<?xml version="1.0" encoding="UTF-8" standalone="no"?>
<!-- Created with Inkscape (http://www.inkscape.org/) -->

<svg
   version="1.1"
   id="svg169366"
   width="189.74936"
   height="239.81999"
   viewBox="0 0 189.74936 239.81999"
   sodipodi:docname="2227763_291304-P7M4R8-611.eps"
   xmlns:inkscape="http://www.inkscape.org/namespaces/inkscape"
   xmlns:sodipodi="http://sodipodi.sourceforge.net/DTD/sodipodi-0.dtd"
   xmlns="http://www.w3.org/2000/svg"
   xmlns:svg="http://www.w3.org/2000/svg">
  <defs
     id="defs169370" />
  <sodipodi:namedview
     id="namedview169368"
     pagecolor="#ffffff"
     bordercolor="#000000"
     borderopacity="0.25"
     inkscape:showpageshadow="2"
     inkscape:pageopacity="0.0"
     inkscape:pagecheckerboard="0"
     inkscape:deskcolor="#d1d1d1"
     showgrid="false" />
  <g
     id="g169374"
     inkscape:groupmode="layer"
     inkscape:label="Page 1"
     transform="matrix(1.3333333,0,0,-1.3333333,-371.42398,413.71866)">
    <path
       d="m 348.083,288.865 c 5.039,4.476 -4.531,11.402 -4.531,11.402 H 332.07 c 0.16,-1.413 0.037,-2.881 -0.431,-4.321 -1.453,-4.471 -5.683,-7.254 -10.159,-7.081 h 11.482 c 0,0 10.082,-4.476 15.121,0"
       style="fill:#2b1815;fill-opacity:1;fill-rule:nonzero;stroke:none;stroke-width:0.1"
       id="path169442"
       inkscape:export-filename="imagesINTERFACES/chocolate.png"
       inkscape:export-xdpi="96"
       inkscape:export-ydpi="96" />
    <path
       d="m 319.367,281.295 h -11.482 c -0.702,-1.238 -1.663,-2.352 -2.889,-3.243 -0.29,-0.211 -0.595,-0.384 -0.898,-0.56 0,0 -4.976,-6.728 7.634,-6.05 12.611,0.679 7.635,9.853 7.635,9.853"
       style="fill:#2b1815;fill-opacity:1;fill-rule:nonzero;stroke:none;stroke-width:0.1"
       id="path169444" />
    <path
       d="m 332.905,271.786 h -34.298 v 34.298 h 34.298 v -34.298"
       style="fill:#63352f;fill-opacity:1;fill-rule:nonzero;stroke:none;stroke-width:0.1"
       id="path169446" />
    <path
       d="m 298.607,306.084 34.298,-34.298 h -34.298 z"
       style="fill:#442521;fill-opacity:1;fill-rule:nonzero;stroke:none;stroke-width:0.1"
       id="path169448" />
    <path
       d="M 329.562,275.129 H 301.95 v 27.612 h 27.612 v -27.612"
       style="fill:#80463f;fill-opacity:1;fill-rule:nonzero;stroke:none;stroke-width:0.1"
       id="path169450" />
    <path
       d="m 367.204,271.786 h -34.299 v 34.298 h 34.299 v -34.298"
       style="fill:#63352f;fill-opacity:1;fill-rule:nonzero;stroke:none;stroke-width:0.1"
       id="path169452" />
    <path
       d="m 332.905,306.084 34.299,-34.298 h -34.299 z"
       style="fill:#442521;fill-opacity:1;fill-rule:nonzero;stroke:none;stroke-width:0.1"
       id="path169454" />
    <path
       d="m 363.861,275.129 h -27.613 v 27.612 h 27.613 v -27.612"
       style="fill:#80463f;fill-opacity:1;fill-rule:nonzero;stroke:none;stroke-width:0.1"
       id="path169456" />
    <path
       d="m 401.502,271.786 h -34.298 v 34.298 h 34.298 v -34.298"
       style="fill:#63352f;fill-opacity:1;fill-rule:nonzero;stroke:none;stroke-width:0.1"
       id="path169458" />
    <path
       d="m 367.204,306.084 34.298,-34.298 h -34.298 z"
       style="fill:#442521;fill-opacity:1;fill-rule:nonzero;stroke:none;stroke-width:0.1"
       id="path169460" />
    <path
       d="m 398.159,275.129 h -27.612 v 27.612 h 27.612 v -27.612"
       style="fill:#80463f;fill-opacity:1;fill-rule:nonzero;stroke:none;stroke-width:0.1"
       id="path169462" />
    <path
       d="m 332.905,237.487 h -34.298 v 34.299 h 34.298 v -34.299"
       style="fill:#63352f;fill-opacity:1;fill-rule:nonzero;stroke:none;stroke-width:0.1"
       id="path169464" />
    <path
       d="m 298.607,271.786 34.298,-34.299 h -34.298 z"
       style="fill:#442521;fill-opacity:1;fill-rule:nonzero;stroke:none;stroke-width:0.1"
       id="path169466" />
    <path
       d="M 329.562,240.83 H 301.95 v 27.613 h 27.612 V 240.83"
       style="fill:#80463f;fill-opacity:1;fill-rule:nonzero;stroke:none;stroke-width:0.1"
       id="path169468" />
    <path
       d="m 367.204,237.487 h -34.299 v 34.299 h 34.299 v -34.299"
       style="fill:#63352f;fill-opacity:1;fill-rule:nonzero;stroke:none;stroke-width:0.1"
       id="path169470" />
    <path
       d="m 332.905,271.786 34.299,-34.299 h -34.299 z"
       style="fill:#442521;fill-opacity:1;fill-rule:nonzero;stroke:none;stroke-width:0.1"
       id="path169472" />
    <path
       d="m 363.861,240.83 h -27.613 v 27.613 h 27.613 V 240.83"
       style="fill:#80463f;fill-opacity:1;fill-rule:nonzero;stroke:none;stroke-width:0.1"
       id="path169474" />
    <path
       d="m 401.502,237.487 h -34.298 v 34.299 h 34.298 v -34.299"
       style="fill:#63352f;fill-opacity:1;fill-rule:nonzero;stroke:none;stroke-width:0.1"
       id="path169476" />
    <path
       d="m 367.204,271.786 34.298,-34.299 h -34.298 z"
       style="fill:#442521;fill-opacity:1;fill-rule:nonzero;stroke:none;stroke-width:0.1"
       id="path169478" />
    <path
       d="m 398.159,240.83 h -27.612 v 27.613 h 27.612 V 240.83"
       style="fill:#80463f;fill-opacity:1;fill-rule:nonzero;stroke:none;stroke-width:0.1"
       id="path169480" />
    <path
       d="m 298.607,203.189 h 34.298 v 34.298 h -34.298 z"
       style="fill:#63352f;fill-opacity:1;fill-rule:nonzero;stroke:none;stroke-width:0.1"
       id="path169482" />
    <path
       d="m 298.607,237.487 34.298,-34.298 h -34.298 v 34.298"
       style="fill:#442521;fill-opacity:1;fill-rule:nonzero;stroke:none;stroke-width:0.1"
       id="path169484" />
    <path
       d="m 301.95,206.532 h 27.6121 v 27.6121 H 301.95 Z"
       style="fill:#80463f;fill-opacity:1;fill-rule:nonzero;stroke:none;stroke-width:0.1"
       id="path169486" />
    <path
       d="m 332.905,203.189 h 34.2988 v 34.298 H 332.905 Z"
       style="fill:#63352f;fill-opacity:1;fill-rule:nonzero;stroke:none;stroke-width:0.1"
       id="path169488" />
    <path
       d="m 332.905,237.487 34.299,-34.298 h -34.299 v 34.298"
       style="fill:#442521;fill-opacity:1;fill-rule:nonzero;stroke:none;stroke-width:0.1"
       id="path169490" />
    <path
       d="m 336.248,206.532 h 27.6129 v 27.6121 H 336.248 Z"
       style="fill:#80463f;fill-opacity:1;fill-rule:nonzero;stroke:none;stroke-width:0.1"
       id="path169492" />
    <path
       d="m 367.204,203.189 h 34.298 v 34.298 h -34.298 z"
       style="fill:#63352f;fill-opacity:1;fill-rule:nonzero;stroke:none;stroke-width:0.1"
       id="path169494" />
    <path
       d="m 367.204,237.487 34.298,-34.298 h -34.298 v 34.298"
       style="fill:#442521;fill-opacity:1;fill-rule:nonzero;stroke:none;stroke-width:0.1"
       id="path169496" />
    <path
       d="m 370.547,206.532 h 27.6121 v 27.6121 H 370.547 Z"
       style="fill:#80463f;fill-opacity:1;fill-rule:nonzero;stroke:none;stroke-width:0.1"
       id="path169498" />
    <path
       d="m 298.607,168.891 h 34.298 v 34.298 h -34.298 z"
       style="fill:#63352f;fill-opacity:1;fill-rule:nonzero;stroke:none;stroke-width:0.1"
       id="path169500" />
    <path
       d="m 298.607,203.189 34.298,-34.298 h -34.298 v 34.298"
       style="fill:#442521;fill-opacity:1;fill-rule:nonzero;stroke:none;stroke-width:0.1"
       id="path169502" />
    <path
       d="m 301.95,172.234 h 27.6121 v 27.6121 H 301.95 Z"
       style="fill:#80463f;fill-opacity:1;fill-rule:nonzero;stroke:none;stroke-width:0.1"
       id="path169504" />
    <path
       d="m 332.905,168.891 h 34.2988 v 34.298 H 332.905 Z"
       style="fill:#63352f;fill-opacity:1;fill-rule:nonzero;stroke:none;stroke-width:0.1"
       id="path169506" />
    <path
       d="m 332.905,203.189 34.299,-34.298 h -34.299 z"
       style="fill:#442521;fill-opacity:1;fill-rule:nonzero;stroke:none;stroke-width:0.1"
       id="path169508" />
    <path
       d="m 336.248,172.234 h 27.6129 v 27.6121 H 336.248 Z"
       style="fill:#80463f;fill-opacity:1;fill-rule:nonzero;stroke:none;stroke-width:0.1"
       id="path169510" />
    <path
       d="m 367.204,168.891 h 34.298 v 34.298 h -34.298 z"
       style="fill:#63352f;fill-opacity:1;fill-rule:nonzero;stroke:none;stroke-width:0.1"
       id="path169512" />
    <path
       d="m 367.204,203.189 34.298,-34.298 h -34.298 v 34.298"
       style="fill:#442521;fill-opacity:1;fill-rule:nonzero;stroke:none;stroke-width:0.1"
       id="path169514" />
    <path
       d="m 370.547,172.234 h 27.6121 v 27.6121 H 370.547 Z"
       style="fill:#80463f;fill-opacity:1;fill-rule:nonzero;stroke:none;stroke-width:0.1"
       id="path169516" />
    <path
       d="m 332.905,134.592 h -34.298 v 34.299 h 34.298 v -34.299"
       style="fill:#63352f;fill-opacity:1;fill-rule:nonzero;stroke:none;stroke-width:0.1"
       id="path169518" />
    <path
       d="m 298.607,168.891 34.298,-34.299 h -34.298 z"
       style="fill:#442521;fill-opacity:1;fill-rule:nonzero;stroke:none;stroke-width:0.1"
       id="path169520" />
    <path
       d="M 329.562,137.935 H 301.95 v 27.613 h 27.612 v -27.613"
       style="fill:#80463f;fill-opacity:1;fill-rule:nonzero;stroke:none;stroke-width:0.1"
       id="path169522" />
    <path
       d="m 367.204,134.592 h -34.299 v 34.299 h 34.299 v -34.299"
       style="fill:#63352f;fill-opacity:1;fill-rule:nonzero;stroke:none;stroke-width:0.1"
       id="path169524" />
    <path
       d="m 332.905,168.891 34.299,-34.299 h -34.299 z"
       style="fill:#442521;fill-opacity:1;fill-rule:nonzero;stroke:none;stroke-width:0.1"
       id="path169526" />
    <path
       d="m 363.861,137.935 h -27.613 v 27.613 h 27.613 v -27.613"
       style="fill:#80463f;fill-opacity:1;fill-rule:nonzero;stroke:none;stroke-width:0.1"
       id="path169528" />
    <path
       d="m 401.502,134.592 h -34.298 v 34.299 h 34.298 v -34.299"
       style="fill:#63352f;fill-opacity:1;fill-rule:nonzero;stroke:none;stroke-width:0.1"
       id="path169530" />
    <path
       d="m 367.204,168.891 34.298,-34.299 h -34.298 z"
       style="fill:#442521;fill-opacity:1;fill-rule:nonzero;stroke:none;stroke-width:0.1"
       id="path169532" />
    <path
       d="m 398.159,137.935 h -27.612 v 27.613 h 27.612 v -27.613"
       style="fill:#80463f;fill-opacity:1;fill-rule:nonzero;stroke:none;stroke-width:0.1"
       id="path169534" />
    <path
       d="m 285.777,310.253 16.173,-7.512 h 27.612 l 3.343,3.343 3.343,-3.343 h 27.613 l 3.343,3.343 3.343,-3.343 h 27.615 l 7.535,7.512 h -119.92"
       style="fill:#9a554c;fill-opacity:1;fill-rule:nonzero;stroke:none;stroke-width:0.1"
       id="path169536" />
    <path
       d="m 285.584,130.424 16.366,7.511 h 27.612 l 3.343,-3.343 3.343,3.343 h 27.613 l 3.343,-3.343 3.343,3.343 h 27.612 l 7.526,-7.511 H 285.584"
       style="fill:#3e211e;fill-opacity:1;fill-rule:nonzero;stroke:none;stroke-width:0.1"
       id="path169538" />
    <path
       d="m 398.174,302.742 v -27.613 l 3.343,-3.343 -3.343,-3.343 v -27.612 l 3.343,-3.343 -3.343,-3.343 v -27.627 l 3.328,-3.328 -3.328,-3.33 v -27.64 l 3.328,-3.328 -3.328,-3.331 v -27.626 l 7.511,-7.511 v 179.865 l -7.511,-7.547"
       style="fill:#9a554c;fill-opacity:1;fill-rule:nonzero;stroke:none;stroke-width:0.1"
       id="path169540" />
    <path
       d="m 301.942,137.971 v 27.612 l -3.343,3.343 3.343,3.343 v 27.613 l -3.343,3.343 3.343,3.343 v 27.626 l -3.328,3.328 3.328,3.331 v 27.64 l -3.328,3.328 3.328,3.33 v 27.626 l -16.165,7.512 V 130.424 l 16.165,7.547"
       style="fill:#3e211e;fill-opacity:1;fill-rule:nonzero;stroke:none;stroke-width:0.1"
       id="path169542" />
    <path
       d="m 324.064,288.935 c 0,-4.589 -3.719,-8.308 -8.308,-8.308 -4.588,0 -8.308,3.719 -8.308,8.308 0,4.588 3.72,8.308 8.308,8.308 4.589,0 8.308,-3.72 8.308,-8.308"
       style="fill:#63352f;fill-opacity:1;fill-rule:nonzero;stroke:none;stroke-width:0.1"
       id="path169544" />
    <path
       d="m 315.756,297.243 c -0.295,0 -0.585,-0.016 -0.872,-0.046 4.178,-0.436 7.436,-3.968 7.436,-8.262 0,-4.294 -3.258,-7.826 -7.436,-8.262 0.287,-0.03 0.577,-0.046 0.872,-0.046 4.589,0 8.308,3.719 8.308,8.308 0,4.588 -3.719,8.308 -8.308,8.308"
       style="fill:#442521;fill-opacity:1;fill-rule:nonzero;stroke:none;stroke-width:0.1"
       id="path169546" />
    <path
       d="m 358.363,288.935 c 0,-4.589 -3.72,-8.308 -8.309,-8.308 -4.588,0 -8.308,3.719 -8.308,8.308 0,4.588 3.72,8.308 8.308,8.308 4.589,0 8.309,-3.72 8.309,-8.308"
       style="fill:#63352f;fill-opacity:1;fill-rule:nonzero;stroke:none;stroke-width:0.1"
       id="path169548" />
    <path
       d="m 350.054,297.243 c -0.294,0 -0.585,-0.016 -0.872,-0.046 4.179,-0.436 7.436,-3.968 7.436,-8.262 0,-4.294 -3.257,-7.826 -7.436,-8.262 0.287,-0.03 0.578,-0.046 0.872,-0.046 4.589,0 8.309,3.719 8.309,8.308 0,4.588 -3.72,8.308 -8.309,8.308"
       style="fill:#442521;fill-opacity:1;fill-rule:nonzero;stroke:none;stroke-width:0.1"
       id="path169550" />
    <path
       d="m 392.661,288.935 c 0,-4.589 -3.72,-8.308 -8.308,-8.308 -4.589,0 -8.308,3.719 -8.308,8.308 0,4.588 3.719,8.308 8.308,8.308 4.588,0 8.308,-3.72 8.308,-8.308"
       style="fill:#63352f;fill-opacity:1;fill-rule:nonzero;stroke:none;stroke-width:0.1"
       id="path169552" />
    <path
       d="m 384.353,297.243 c -0.295,0 -0.586,-0.016 -0.872,-0.046 4.178,-0.436 7.436,-3.968 7.436,-8.262 0,-4.294 -3.258,-7.826 -7.436,-8.262 0.286,-0.03 0.577,-0.046 0.872,-0.046 4.588,0 8.308,3.719 8.308,8.308 0,4.588 -3.72,8.308 -8.308,8.308"
       style="fill:#442521;fill-opacity:1;fill-rule:nonzero;stroke:none;stroke-width:0.1"
       id="path169554" />
    <path
       d="m 324.064,254.637 c 0,-4.589 -3.719,-8.309 -8.308,-8.309 -4.588,0 -8.308,3.72 -8.308,8.309 0,4.588 3.72,8.308 8.308,8.308 4.589,0 8.308,-3.72 8.308,-8.308"
       style="fill:#63352f;fill-opacity:1;fill-rule:nonzero;stroke:none;stroke-width:0.1"
       id="path169556" />
    <path
       d="m 315.756,262.945 c -0.295,0 -0.585,-0.017 -0.872,-0.047 4.178,-0.436 7.436,-3.968 7.436,-8.261 0,-4.294 -3.258,-7.826 -7.436,-8.262 0.287,-0.03 0.577,-0.047 0.872,-0.047 4.589,0 8.308,3.72 8.308,8.309 0,4.588 -3.719,8.308 -8.308,8.308"
       style="fill:#442521;fill-opacity:1;fill-rule:nonzero;stroke:none;stroke-width:0.1"
       id="path169558" />
    <path
       d="m 358.363,254.637 c 0,-4.589 -3.72,-8.309 -8.309,-8.309 -4.588,0 -8.308,3.72 -8.308,8.309 0,4.588 3.72,8.308 8.308,8.308 4.589,0 8.309,-3.72 8.309,-8.308"
       style="fill:#63352f;fill-opacity:1;fill-rule:nonzero;stroke:none;stroke-width:0.1"
       id="path169560" />
    <path
       d="m 350.054,262.945 c -0.294,0 -0.585,-0.017 -0.872,-0.047 4.179,-0.436 7.436,-3.968 7.436,-8.261 0,-4.294 -3.257,-7.826 -7.436,-8.262 0.287,-0.03 0.578,-0.047 0.872,-0.047 4.589,0 8.309,3.72 8.309,8.309 0,4.588 -3.72,8.308 -8.309,8.308"
       style="fill:#442521;fill-opacity:1;fill-rule:nonzero;stroke:none;stroke-width:0.1"
       id="path169562" />
    <path
       d="m 392.661,254.637 c 0,-4.589 -3.72,-8.309 -8.308,-8.309 -4.589,0 -8.308,3.72 -8.308,8.309 0,4.588 3.719,8.308 8.308,8.308 4.588,0 8.308,-3.72 8.308,-8.308"
       style="fill:#63352f;fill-opacity:1;fill-rule:nonzero;stroke:none;stroke-width:0.1"
       id="path169564" />
    <path
       d="m 384.353,262.945 c -0.295,0 -0.586,-0.017 -0.872,-0.047 4.178,-0.436 7.436,-3.968 7.436,-8.261 0,-4.294 -3.258,-7.826 -7.436,-8.262 0.286,-0.03 0.577,-0.047 0.872,-0.047 4.588,0 8.308,3.72 8.308,8.309 0,4.588 -3.72,8.308 -8.308,8.308"
       style="fill:#442521;fill-opacity:1;fill-rule:nonzero;stroke:none;stroke-width:0.1"
       id="path169566" />
    <path
       d="m 324.064,220.356 c 0,-4.588 -3.72,-8.308 -8.308,-8.308 -4.588,0 -8.308,3.72 -8.308,8.308 0,4.589 3.72,8.308 8.308,8.308 4.588,0 8.308,-3.719 8.308,-8.308"
       style="fill:#63352f;fill-opacity:1;fill-rule:nonzero;stroke:none;stroke-width:0.1"
       id="path169568" />
    <path
       d="m 315.756,228.665 c -0.295,0 -0.585,-0.017 -0.872,-0.047 4.178,-0.436 7.436,-3.968 7.436,-8.262 0,-4.293 -3.258,-7.825 -7.436,-8.261 0.287,-0.03 0.577,-0.047 0.872,-0.047 4.588,0 8.308,3.72 8.308,8.308 0,4.589 -3.72,8.309 -8.308,8.309"
       style="fill:#442521;fill-opacity:1;fill-rule:nonzero;stroke:none;stroke-width:0.1"
       id="path169570" />
    <path
       d="m 358.363,220.356 c 0,-4.588 -3.72,-8.308 -8.309,-8.308 -4.588,0 -8.308,3.72 -8.308,8.308 0,4.589 3.72,8.308 8.308,8.308 4.589,0 8.309,-3.719 8.309,-8.308"
       style="fill:#63352f;fill-opacity:1;fill-rule:nonzero;stroke:none;stroke-width:0.1"
       id="path169572" />
    <path
       d="m 350.054,228.665 c -0.294,0 -0.585,-0.017 -0.872,-0.047 4.179,-0.436 7.436,-3.968 7.436,-8.262 0,-4.293 -3.257,-7.825 -7.436,-8.261 0.287,-0.03 0.578,-0.047 0.872,-0.047 4.589,0 8.309,3.72 8.309,8.308 0,4.589 -3.72,8.309 -8.309,8.309"
       style="fill:#442521;fill-opacity:1;fill-rule:nonzero;stroke:none;stroke-width:0.1"
       id="path169574" />
    <path
       d="m 392.661,220.356 c 0,-4.588 -3.72,-8.308 -8.308,-8.308 -4.589,0 -8.308,3.72 -8.308,8.308 0,4.589 3.719,8.308 8.308,8.308 4.588,0 8.308,-3.719 8.308,-8.308"
       style="fill:#63352f;fill-opacity:1;fill-rule:nonzero;stroke:none;stroke-width:0.1"
       id="path169576" />
    <path
       d="m 384.353,228.665 c -0.295,0 -0.586,-0.017 -0.872,-0.047 4.178,-0.436 7.436,-3.968 7.436,-8.262 0,-4.293 -3.258,-7.825 -7.436,-8.261 0.286,-0.03 0.577,-0.047 0.872,-0.047 4.588,0 8.308,3.72 8.308,8.308 0,4.589 -3.72,8.309 -8.308,8.309"
       style="fill:#442521;fill-opacity:1;fill-rule:nonzero;stroke:none;stroke-width:0.1"
       id="path169578" />
    <path
       d="m 405.207,225.9 -38.003,-16.107 -65.257,8.549 v -87.918 h 103.738 l -0.478,95.476"
       style="fill:#bc4749;fill-opacity:1;fill-rule:nonzero;stroke:none;stroke-width:0.1"
       id="path169580" />
    <path
       d="m 384.353,173.21 v 2 h -62.82 v 29.771 h 60.82 V 173.21 h 2 v 2 -2 h 2 v 35.771 h -68.82 V 171.21 h 68.82 v 2 h -2"
       style="fill:#fcd20d;fill-opacity:1;fill-rule:nonzero;stroke:none;stroke-width:0.1"
       id="path169582" />
    <path
       d="m 285.777,130.424 h 16.1699 v 87.918 H 285.777 Z"
       style="fill:#9b3b3c;fill-opacity:1;fill-rule:nonzero;stroke:none;stroke-width:0.1"
       id="path169584" />
    <path
       d="m 398.159,220.356 v -82.421 l 7.526,-7.511 v 89.932 h -7.526"
       style="fill:#c87072;fill-opacity:1;fill-rule:nonzero;stroke:none;stroke-width:0.1"
       id="path169586" />
    <path
       d="m 301.95,137.935 h 96.209 l 7.526,-7.511 H 285.777 l 16.173,7.511"
       style="fill:#823b3c;fill-opacity:1;fill-rule:nonzero;stroke:none;stroke-width:0.1"
       id="path169588" />
    <path
       d="m 310.399,204.997 c 0,0 10.32,-9.884 19.477,-9.157 9.156,0.726 10.029,4.177 16.86,4.559 3.27,0.183 7.04,-0.521 11.309,-1.225 4.65,-0.766 9.891,-1.533 15.725,-1.154 11.192,0.727 25.064,10.685 25.064,10.685 l -9.075,3.343 -37.355,-6.761 -42.005,-0.29"
       style="fill:#ffffff;fill-opacity:1;fill-rule:nonzero;stroke:none;stroke-width:0.1"
       id="path169590" />
    <path
       d="m 394.612,208.176 c 0,0 -14.495,-7.104 -24.96,-6.91 -10.465,0.194 -17.028,3.223 -24.017,3.453 -3.272,0.107 -5.733,-1.279 -8.142,-2.665 -2.738,-1.575 -5.408,-3.151 -9.119,-2.532 -6.977,1.163 -15.31,6.589 -15.31,6.589 0,0 14.341,10.271 14.922,10.271 0.581,0 36.628,-9.634 40.504,-8.499 3.875,1.135 26.122,0.293 26.122,0.293"
       style="fill:#fbbe0c;fill-opacity:1;fill-rule:nonzero;stroke:none;stroke-width:0.1"
       id="path169592" />
    <path
       d="m 326.021,215.188 -0.262,0.035 v 0 l 0.263,-0.035 h -10e-4"
       style="fill:#703d37;fill-opacity:1;fill-rule:nonzero;stroke:none;stroke-width:0.1"
       id="path169594" />
    <path
       d="m 301.947,193.567 v 18.944 l 20.373,2.015 3.439,0.697 0.262,-0.035 c -4.063,-2.707 -12.957,-9.077 -12.957,-9.077 0,0 0.667,-0.434 1.781,-1.084 l -4.446,-0.03 c 0,0 2.674,-2.561 6.506,-4.98 l -14.958,-6.45 m 84.406,6.799 v 1.234 c 5.49,2.47 10.125,5.493 11.806,6.637 v -7 l -11.806,-0.871"
       style="fill:#9b3b3c;fill-opacity:1;fill-rule:nonzero;stroke:none;stroke-width:0.1"
       id="path169596" />
    <path
       d="m 382.682,200.096 c 1.25,0.459 2.48,0.968 3.671,1.504 v -1.234 l -3.671,-0.27"
       style="fill:#ebbf0c;fill-opacity:1;fill-rule:nonzero;stroke:none;stroke-width:0.1"
       id="path169598" />
    <path
       d="m 405.685,201.792 v 18.546 -18.546"
       style="fill:#884b43;fill-opacity:1;fill-rule:nonzero;stroke:none;stroke-width:0.1"
       id="path169600" />
    <path
       d="m 356.545,211.19 -6.557,0.858 v 0 l 6.557,-0.858 m -8.583,1.124 -7.568,0.991 -0.001,0.001 7.569,-0.992 v 0"
       style="fill:#703d37;fill-opacity:1;fill-rule:nonzero;stroke:none;stroke-width:0.1"
       id="path169602" />
    <path
       d="m 349.988,212.048 v 0 0 0 0 m -0.568,0.075 -1.458,0.191 v 0 l 1.459,-0.191 c -10e-4,0 0,0 -10e-4,0"
       style="fill:#552e29;fill-opacity:1;fill-rule:nonzero;stroke:none;stroke-width:0.1"
       id="path169604" />
    <path
       d="m 349.988,212.048 v 0 l -0.568,0.075 c 10e-4,0 0,0 10e-4,0 l 0.567,-0.075"
       style="fill:#3c211d;fill-opacity:1;fill-rule:nonzero;stroke:none;stroke-width:0.1"
       id="path169606" />
    <path
       d="m 361.599,208.981 h -2.278 c -5.637,1.115 -12.845,2.827 -18.927,4.324 l 7.568,-0.991 1.458,-0.191 0.568,-0.075 v 0 l 6.557,-0.858 5.054,-2.209"
       style="fill:#1b64b8;fill-opacity:1;fill-rule:nonzero;stroke:none;stroke-width:0.1"
       id="path169608" />
    <path
       d="m 363.233,208.267 c -1.176,0.192 -2.494,0.434 -3.912,0.714 h 2.278 l 1.634,-0.714"
       style="fill:#ebbf0c;fill-opacity:1;fill-rule:nonzero;stroke:none;stroke-width:0.1"
       id="path169610" />
    <path
       d="m 398.159,208.954 -8.4,3.094 -14.49,-2.622 22.89,8.212 v -8.684"
       style="fill:#1b64b8;fill-opacity:1;fill-rule:nonzero;stroke:none;stroke-width:0.1"
       id="path169612" />
    <path
       d="m 289.324,218.342 h -3.547 v 0 h 3.546"
       style="fill:#371e1b;fill-opacity:1;fill-rule:nonzero;stroke:none;stroke-width:0.1"
       id="path169614" />
    <path
       d="m 295.719,190.881 -9.942,12.251 v 15.21 h 3.547 l 12.623,-5.831 v -18.944 l -6.228,-2.686"
       style="fill:#9b3b3c;fill-opacity:1;fill-rule:nonzero;stroke:none;stroke-width:0.1"
       id="path169616" />
    <path
       d="m 398.159,201.237 v 7 c 0.437,0.298 0.675,0.468 0.675,0.468 l -0.675,0.249 v 8.684 l 7.526,2.7 v -18.546 l -7.526,-0.555"
       style="fill:#c87072;fill-opacity:1;fill-rule:nonzero;stroke:none;stroke-width:0.1"
       id="path169618" />
    <path
       d="m 368.102,199.021 -27.598,4.622 c 1.436,0.635 2.984,1.082 4.774,1.082 0.118,0 0.237,-0.002 0.357,-0.006 6.989,-0.23 13.552,-3.259 24.017,-3.453 0.142,-0.003 0.283,-0.004 0.425,-0.004 10.428,0.001 24.535,6.914 24.535,6.914 0,0 -7.943,0.3 -15.163,0.3 -2.659,0 -5.221,-0.041 -7.251,-0.152 l 3.071,1.102 14.49,2.622 8.4,-3.094 0.675,-0.249 c 0,0 -0.238,-0.17 -0.675,-0.468 -1.681,-1.144 -6.316,-4.167 -11.806,-6.637 -1.191,-0.536 -2.421,-1.045 -3.671,-1.504 l -14.58,-1.075 m -51.197,0.996 c -3.832,2.419 -6.506,4.98 -6.506,4.98 l 4.446,0.03 c 1.475,-0.858 3.732,-2.093 6.265,-3.196 l -4.205,-1.814"
       style="fill:#e0e0de;fill-opacity:1;fill-rule:nonzero;stroke:none;stroke-width:0.1"
       id="path169620" />
    <path
       d="m 370.077,201.262 c -0.142,0 -0.283,0.001 -0.425,0.004 -10.465,0.194 -17.028,3.223 -24.017,3.453 -0.12,0.004 -0.239,0.006 -0.357,0.006 -1.79,0 -3.338,-0.447 -4.774,-1.082 l -10.942,1.832 -8.452,-3.644 c -2.533,1.103 -4.79,2.338 -6.265,3.196 -1.114,0.65 -1.781,1.084 -1.781,1.084 0,0 8.894,6.37 12.957,9.077 h 10e-4 l 14.371,-1.882 0.001,-0.001 c 6.082,-1.497 13.29,-3.209 18.927,-4.324 1.418,-0.28 2.736,-0.522 3.912,-0.714 l 3.971,-1.735 4.994,1.792 c 2.03,0.111 4.592,0.152 7.251,0.152 7.22,0 15.163,-0.3 15.163,-0.3 0,0 -14.107,-6.913 -24.535,-6.914"
       style="fill:#dfaa11;fill-opacity:1;fill-rule:nonzero;stroke:none;stroke-width:0.1"
       id="path169622" />
    <path
       d="m 367.204,209.793 -26.718,14.244 -18.166,-3.681 -20.373,-2.014 -16.363,7.558 -7.016,-8.053 17.151,-21.135 33.843,14.594 38.54,-6.455 52.778,3.892 -15.195,17.426 -38.481,-16.376"
       style="fill:#fdde1c;fill-opacity:1;fill-rule:nonzero;stroke:none;stroke-width:0.1"
       id="path169624" />
    <path
       d="m 295.719,196.712 10.756,9.593 -6.977,7.752 2.449,4.285 -16.363,7.558 -7.016,-8.053 17.151,-21.135"
       style="fill:#fbbe0c;fill-opacity:1;fill-rule:nonzero;stroke:none;stroke-width:0.1"
       id="path169626" />
    <path
       d="m 374.324,157.293 h -47.623 v 5.75 h 47.623 v -5.75"
       style="fill:#ffffff;fill-opacity:1;fill-rule:nonzero;stroke:none;stroke-width:0.1"
       id="path169628" />
    <path
       d="m 367.951,145.71 h -34.877 v 4.25 h 34.877 v -4.25"
       style="fill:#ffffff;fill-opacity:1;fill-rule:nonzero;stroke:none;stroke-width:0.1"
       id="path169630" />
  </g>
</svg>
