<?xml version="1.0" encoding="UTF-8" standalone="no"?>
<!-- Created with Inkscape (http://www.inkscape.org/) -->

<svg
   version="1.1"
   id="svg874"
   width="145.27919"
   height="187.73206"
   viewBox="0 0 145.27919 187.73206"
   sodipodi:docname="arbol.svg"
   xmlns:inkscape="http://www.inkscape.org/namespaces/inkscape"
   xmlns:sodipodi="http://sodipodi.sourceforge.net/DTD/sodipodi-0.dtd"
   xmlns="http://www.w3.org/2000/svg"
   xmlns:svg="http://www.w3.org/2000/svg">
  <defs
     id="defs878" />
  <sodipodi:namedview
     id="namedview876"
     pagecolor="#ffffff"
     bordercolor="#000000"
     borderopacity="0.25"
     inkscape:showpageshadow="2"
     inkscape:pageopacity="0.0"
     inkscape:pagecheckerboard="0"
     inkscape:deskcolor="#d1d1d1"
     showgrid="false" />
  <g
     id="g882"
     inkscape:groupmode="layer"
     inkscape:label="Page 1"
     transform="matrix(1.3333333,0,0,-1.3333333,-468.77217,633.14036)">
    <path
       d="m 418.583,337.169 c -0.362,1.595 -0.74,3.19 -1.13,4.781 0.026,0.931 -0.204,1.785 -0.62,2.543 -0.437,1.898 -0.85,3.983 -2.195,5.408 -1.31,1.39 -3.205,1.791 -5.047,1.69 -0.768,-0.043 -1.53,-0.155 -2.299,-0.193 -0.393,-0.019 -0.795,-0.029 -1.187,0.013 0.556,-0.061 -0.755,0.319 -0.294,0.094 -1.122,0.548 -2.753,0.382 -3.367,-0.883 -0.077,-0.159 -0.148,-0.322 -0.224,-0.483 -0.614,0.917 -2.205,0.93 -2.766,-0.418 -1.052,-2.525 -1.655,-5.28 -2.221,-7.953 -0.28,-1.325 -0.69,-2.757 -0.738,-4.114 -0.059,-1.686 1.177,-2.613 2.739,-2.735 3.066,-0.239 20.498,-2.807 19.349,2.25"
       style="fill:#aa6e44;fill-opacity:0.5;fill-rule:nonzero;stroke:none;stroke-width:0.1"
       id="path972"
       inkscape:export-filename="../../../FinalCase/images/arboldeco.png"
       inkscape:export-xdpi="26.431856"
       inkscape:export-ydpi="26.431856" />
    <path
       d="m 413.194,460.634 c -0.911,1.718 -1.703,3.49 -2.426,5.287 0.667,0.546 1.332,1.092 1.97,1.672 0.792,0.72 0.441,2.311 -0.663,2.511 -0.975,0.175 -1.955,0.293 -2.934,0.36 -0.345,1.132 -0.653,2.275 -0.928,3.428 -0.271,1.142 -1.886,1.293 -2.457,0.322 -0.787,-1.341 -1.587,-2.673 -2.384,-4.007 -0.794,-0.126 -1.584,-0.282 -2.368,-0.486 -0.994,-0.257 -1.553,-1.774 -0.656,-2.483 0.281,-0.222 0.564,-0.442 0.846,-0.663 -0.312,-0.507 -0.627,-1.012 -0.927,-1.527 -0.314,-0.535 -0.61,-1.089 -0.897,-1.64 -0.294,-0.566 -0.39,-1.145 -0.484,-1.775 -0.055,-0.37 0.192,-0.775 0.532,-0.863 0.028,-0.076 0.059,-0.151 0.1,-0.222 0.44,-0.753 1.342,-0.909 2.084,-0.546 0.742,0.364 1.469,0.757 2.186,1.165 -0.372,-1.287 -0.686,-2.594 -1.033,-3.883 -0.246,-0.915 -0.492,-1.831 -0.737,-2.746 -0.268,-0.994 -0.331,-2.126 0.703,-2.714 0.522,-0.296 1.202,-0.17 1.563,0.312 0.259,0.347 0.288,0.725 0.17,1.084 0.008,0.028 0.017,0.057 0.023,0.086 0.05,0.203 0.096,0.408 0.144,0.612 0.088,0.369 0.176,0.738 0.265,1.107 0.054,0.227 0.109,0.454 0.162,0.681 0.01,-0.29 0.019,-0.579 0.04,-0.868 0.033,-0.441 0.082,-0.878 0.141,-1.316 0.067,-0.507 0.076,-1.075 0.389,-1.499 0.298,-0.404 0.699,-0.667 1.227,-0.588 0.107,0.017 0.21,0.05 0.31,0.091 0.205,-0.498 0.543,-0.884 1.127,-0.866 1.236,0.037 1.225,1.76 1.142,2.619 -0.109,1.133 -0.22,2.265 -0.329,3.398 -0.132,1.36 -0.298,2.717 -0.472,4.073 0.781,-0.612 1.561,-1.224 2.341,-1.836 0.558,-0.437 1.267,-0.587 1.864,-0.11 0.564,0.449 0.706,1.19 0.366,1.83"
       style="fill:#fab33b;fill-opacity:0.5;fill-rule:nonzero;stroke:none;stroke-width:0.1"
       id="path974" />
    <path
       d="m 453.725,368.359 c -0.246,0.355 -0.473,0.722 -0.724,1.072 -1.809,2.521 -3.737,4.927 -5.866,7.17 -1,1.056 -2.039,2.072 -3.096,3.067 -0.48,0.677 -0.947,1.365 -1.376,2.081 -0.258,0.431 -0.933,1.4 -0.73,1.66 0.321,0.412 1.534,0.096 1.92,-0.012 2.162,-0.603 3.997,-1.346 6.132,-0.201 0.811,0.436 1.131,1.683 0.63,2.473 -4.341,6.85 -8.825,13.631 -12.96,20.607 1.512,-0.966 3.767,-0.47 4.735,1.043 2.449,3.828 -4.839,9.736 -6.951,12.044 -2.903,3.172 -5.804,6.344 -8.713,9.51 1.141,0.285 2.28,0.57 3.421,0.856 1.304,0.326 1.583,1.994 0.753,2.936 -3.954,4.485 -7.875,9.003 -11.874,13.445 -1.999,2.221 -3.998,4.442 -6.003,6.668 -1.978,2.197 -4.141,5.8 -7.61,5.197 -2.531,-0.44 -4.132,-3.41 -5.746,-5.203 -1.999,-2.22 -3.998,-4.441 -5.997,-6.662 -3.999,-4.442 -7.921,-8.96 -11.875,-13.445 -0.83,-0.942 -0.55,-2.61 0.754,-2.936 1.14,-0.286 2.28,-0.571 3.421,-0.856 -2.909,-3.166 -5.81,-6.338 -8.713,-9.51 -1.681,-1.837 -3.475,-3.62 -5.035,-5.569 -3.779,-4.722 -2.804,-7.965 2.909,-7.531 L 362.08,385.669 c -0.5,-0.79 -0.181,-2.037 0.631,-2.473 2.135,-1.145 3.969,-0.402 6.132,0.201 0.386,0.108 1.598,0.424 1.92,0.012 0.203,-0.26 -0.473,-1.229 -0.73,-1.66 -0.429,-0.716 -0.897,-1.404 -1.376,-2.081 -1.057,-0.995 -2.096,-2.011 -3.097,-3.067 -2.128,-2.243 -4.056,-4.649 -5.866,-7.17 -0.251,-0.35 -0.477,-0.717 -0.723,-1.072 -3.447,-4.077 -6.476,-8.54 -7.365,-13.974 -0.071,-0.436 0.001,-0.91 0.189,-1.314 3.121,-6.689 8.813,-5.755 15.622,-5.896 17.401,-0.364 35.296,-0.655 52.878,-1.305 8.168,-0.302 16.44,-1.274 24.589,-1.247 5.559,0.016 13.086,0.787 15.216,6.936 2,5.774 -3.316,12.394 -6.375,16.8"
       style="fill:#cbdfbd;fill-opacity:0.501961;fill-rule:nonzero;stroke:none;stroke-width:0.1"
       id="path976" />
    <path
       d="m 420.862,449.075 c -0.578,0.366 -1.035,0.238 -1.625,0.455 -0.188,0.07 -0.366,-0.107 -0.371,-0.282 -0.011,-0.289 -0.063,-0.521 -0.11,-0.75 -1.782,-1.937 -3.67,-3.479 -6.081,-4.647 -2.539,-1.228 -5.283,-1.95 -8.015,-2.602 -4.931,-1.176 -11.376,-2.826 -15.701,0.744 -0.882,0.729 -1.942,-0.357 -1.243,-1.243 3.95,-4.998 11.797,-3.568 17.186,-2.514 5.998,1.173 12.859,3.575 16.484,8.839 0.459,0.667 0.104,1.602 -0.524,2"
       style="fill:#fde7c5;fill-opacity:1;fill-rule:nonzero;stroke:none;stroke-width:0.1"
       id="path978" />
    <path
       d="m 432.964,423.472 c -0.257,0.475 -0.877,0.707 -1.387,0.565 -0.118,-0.032 -0.241,-0.101 -0.356,-0.183 0.065,0.136 0.052,0.163 -0.186,-0.133 -0.152,-0.188 -0.213,-0.313 -0.317,-0.542 -0.17,-0.377 -0.251,-0.644 -0.525,-0.98 -1.299,-1.592 -3.037,-2.875 -4.798,-3.904 -3.742,-2.187 -8.006,-3.468 -12.176,-4.563 -8.694,-2.282 -17.771,-3.144 -26.686,-1.737 -2.4,0.378 -4.772,0.936 -7.079,1.699 -1.258,0.416 -2.485,0.902 -3.7,1.433 -1.102,0.48 -2.236,1.143 -3.426,1.34 -0.655,0.108 -1.042,-0.562 -0.628,-1.078 1.305,-1.626 3.764,-2.523 5.638,-3.31 2.054,-0.862 4.168,-1.57 6.328,-2.112 4.415,-1.11 8.978,-1.5 13.523,-1.396 9.001,0.207 18.433,2.078 26.7,5.695 2.27,0.992 4.411,2.227 6.318,3.816 1.454,1.209 3.889,3.296 2.757,5.39"
       style="fill:#fde7c5;fill-opacity:1;fill-rule:nonzero;stroke:none;stroke-width:0.1"
       id="path980" />
    <path
       d="m 439.51,405.495 c -1.347,0.344 -2.047,-0.368 -3.098,-1.119 -1.105,-0.791 -2.228,-1.556 -3.369,-2.296 -2.166,-1.405 -4.391,-2.718 -6.668,-3.936 -4.626,-2.473 -9.458,-4.555 -14.43,-6.223 -9.885,-3.315 -20.287,-5.006 -30.714,-4.934 -2.918,0.02 -5.841,0.17 -8.746,0.444 -2.974,0.282 -5.896,0.901 -8.86,1.215 -1.222,0.13 -1.371,-1.733 -0.281,-2.071 2.541,-0.789 5.293,-1.101 7.926,-1.444 2.698,-0.353 5.407,-0.583 8.127,-0.677 5.299,-0.182 10.606,0.097 15.861,0.795 10.626,1.412 21.006,4.549 30.591,9.358 2.672,1.341 5.279,2.81 7.809,4.404 1.322,0.833 2.622,1.702 3.899,2.602 1.219,0.86 2.527,1.435 2.569,3.072 0.01,0.361 -0.266,0.72 -0.616,0.81"
       style="fill:#fde7c5;fill-opacity:1;fill-rule:nonzero;stroke:none;stroke-width:0.1"
       id="path982" />
    <path
       d="m 444.806,380.344 c -1.208,-0.463 -2.057,-1.584 -3.003,-2.444 -1.09,-0.989 -2.217,-1.941 -3.381,-2.842 -2.231,-1.726 -4.6,-3.282 -7.049,-4.681 -4.814,-2.751 -9.946,-4.88 -15.264,-6.44 -12.044,-3.532 -24.737,-3.973 -37.162,-2.676 -7.57,0.791 -15.035,2.283 -22.48,3.821 -1.27,0.262 -1.809,-1.6 -0.54,-1.958 24.303,-6.87 52.193,-8.276 75.121,3.822 2.843,1.5 5.576,3.211 8.156,5.128 1.334,0.99 2.634,2.027 3.886,3.12 1.148,1.002 2.748,2.122 3.288,3.577 0.325,0.874 -0.692,1.909 -1.572,1.573"
       style="fill:#fde7c5;fill-opacity:1;fill-rule:nonzero;stroke:none;stroke-width:0.1"
       id="path984" />
    <path
       d="m 402.645,445.175 c -10e-4,0.233 -0.06,0.451 -0.177,0.651 -0.103,0.32 -0.281,0.597 -0.533,0.83 -0.174,0.135 -0.348,0.269 -0.522,0.403 -0.402,0.234 -0.835,0.351 -1.3,0.352 -0.118,0.002 -0.37,-0.047 -0.375,-0.048 0.008,10e-4 -0.261,-0.02 -0.374,-0.052 -0.224,-0.063 -0.437,-0.171 -0.644,-0.27 -0.009,-0.005 -0.017,-0.01 -0.025,-0.016 -0.4,-0.281 -0.733,-0.525 -0.966,-0.973 -0.106,-0.201 -0.22,-0.42 -0.272,-0.648 -10e-4,-0.002 -10e-4,-0.005 -0.002,-0.008 -0.007,-0.042 -0.09,-0.658 -0.093,-0.701 -0.001,-0.006 -0.001,-0.012 -0.001,-0.018 0.001,-0.472 0.12,-0.913 0.357,-1.321 l 0.409,-0.53 c 0.326,-0.324 0.711,-0.549 1.155,-0.673 0.347,-0.109 0.696,-0.125 1.044,-0.047 0.348,0.016 0.672,0.119 0.972,0.311 0.306,0.165 0.55,0.389 0.735,0.674 0.12,0.13 0.217,0.274 0.296,0.427 0.003,0.005 0.007,0.009 0.009,0.014 0.087,0.205 0.174,0.41 0.26,0.615 0.107,0.343 0.123,0.686 0.047,1.028"
       style="fill:#bc4749;fill-opacity:0.501961;fill-rule:nonzero;stroke:none;stroke-width:0.1"
       id="path986" />
    <path
       d="m 421.387,432.905 c -0.092,0.326 -0.257,0.611 -0.496,0.85 -0.271,0.42 -0.633,0.752 -1.082,0.994 -0.031,0.017 -0.064,0.035 -0.096,0.051 -0.32,0.136 -0.64,0.271 -0.961,0.407 -0.534,0.167 -1.068,0.191 -1.603,0.071 -0.363,-0.001 -0.701,-0.093 -1.015,-0.274 -0.341,-0.096 -0.637,-0.268 -0.888,-0.518 -0.437,-0.283 -0.783,-0.659 -1.035,-1.128 -0.135,-0.32 -0.27,-0.64 -0.405,-0.961 -0.048,-0.356 -0.097,-0.712 -0.145,-1.068 -0.02,-0.554 0.095,-1.07 0.347,-1.55 0.096,-0.341 0.268,-0.637 0.518,-0.888 0.178,-0.302 0.419,-0.541 0.72,-0.72 0.389,-0.356 0.845,-0.596 1.369,-0.72 0.356,-0.048 0.713,-0.096 1.069,-0.144 0.355,0.048 0.712,0.096 1.068,0.144 0.321,0.135 0.641,0.27 0.961,0.405 0.469,0.253 0.845,0.598 1.128,1.035 0.356,0.389 0.596,0.845 0.72,1.368 0.007,0.045 0.014,0.091 0.02,0.135 0.046,0.342 0.092,0.684 0.138,1.026 0.02,0.531 -0.091,1.026 -0.332,1.485"
       style="fill:#bc4749;fill-opacity:0.501961;fill-rule:nonzero;stroke:none;stroke-width:0.1"
       id="path988" />
    <path
       d="m 398.717,418.343 c 0,0.007 -10e-4,0.013 -0.002,0.019 0,0.004 -10e-4,0.01 -10e-4,0.014 0,0.002 -10e-4,0.003 -10e-4,0.004 -0.002,0.013 -0.003,0.026 -0.005,0.039 -0.024,0.222 -0.067,0.51 -0.098,0.732 -0.003,0.022 -0.006,0.044 -0.009,0.066 -0.097,0.409 -0.285,0.765 -0.563,1.069 -0.139,0.236 -0.328,0.425 -0.564,0.564 -0.304,0.279 -0.66,0.466 -1.069,0.563 -0.287,0.04 -0.573,0.12 -0.863,0.114 -0.564,-0.002 -1.089,-0.144 -1.577,-0.427 -0.364,-0.196 -0.656,-0.464 -0.877,-0.804 -0.276,-0.302 -0.463,-0.657 -0.559,-1.064 -0.149,-0.553 -0.149,-1.107 0,-1.661 0.003,-0.008 0.005,-0.017 0.007,-0.026 0.106,-0.25 0.212,-0.501 0.318,-0.751 0.197,-0.367 0.468,-0.66 0.809,-0.882 0.197,-0.195 0.428,-0.33 0.695,-0.404 0.126,-0.068 0.261,-0.104 0.394,-0.146 0.04,-0.016 0.08,-0.033 0.121,-0.045 0.071,-0.019 0.143,-0.026 0.214,-0.038 0.101,-0.018 0.198,-0.049 0.301,-0.054 0.384,-0.086 0.769,-0.068 1.152,0.052 0.231,0.098 0.461,0.194 0.691,0.292 0.434,0.257 0.78,0.602 1.037,1.036 0.061,0.12 0.123,0.288 0.161,0.378 0.033,0.078 0.118,0.256 0.16,0.383 0.008,0.023 0.013,0.047 0.017,0.072 0.036,0.267 0.072,0.533 0.107,0.801 10e-4,0.003 10e-4,0.007 0.002,0.01 0,0.006 0.001,0.012 0.002,0.018 0.001,0.013 0.001,0.026 0.001,0.039 0,0.012 0,0.025 -0.001,0.037"
       style="fill:#bc4749;fill-opacity:0.501961;fill-rule:nonzero;stroke:none;stroke-width:0.1"
       id="path990" />
    <path
       d="m 422.898,406.893 c -0.174,0.618 -0.487,1.153 -0.939,1.609 l -0.737,0.57 c -0.569,0.33 -1.183,0.496 -1.841,0.498 -0.502,0.019 -0.97,-0.086 -1.404,-0.315 -0.452,-0.146 -0.844,-0.398 -1.174,-0.753 -0.355,-0.331 -0.606,-0.722 -0.754,-1.173 -0.228,-0.435 -0.333,-0.904 -0.314,-1.406 0.044,-0.323 0.087,-0.646 0.131,-0.969 0.172,-0.617 0.485,-1.154 0.937,-1.608 0.246,-0.191 0.492,-0.38 0.738,-0.571 0.569,-0.33 1.182,-0.496 1.84,-0.498 0.502,-0.018 0.971,0.086 1.405,0.315 0.453,0.146 0.843,0.398 1.173,0.754 0.357,0.329 0.608,0.721 0.754,1.172 0.229,0.435 0.333,0.903 0.315,1.405 -0.043,0.324 -0.087,0.647 -0.13,0.97"
       style="fill:#bc4749;fill-opacity:0.501961;fill-rule:nonzero;stroke:none;stroke-width:0.1"
       id="path992" />
    <path
       d="m 386.259,393.42 c -0.002,0.623 -0.159,1.204 -0.472,1.743 -0.307,0.519 -0.72,0.932 -1.239,1.239 -0.539,0.313 -1.12,0.47 -1.744,0.472 -0.476,0.017 -0.919,-0.081 -1.33,-0.298 -0.429,-0.139 -0.799,-0.377 -1.112,-0.714 -0.428,-0.431 -0.725,-0.939 -0.889,-1.524 -0.164,-0.613 -0.164,-1.225 0,-1.837 0.164,-0.585 0.461,-1.093 0.889,-1.525 0.247,-0.19 0.492,-0.39 0.745,-0.574 0.019,-0.015 0.04,-0.028 0.06,-0.042 0.043,-0.028 0.088,-0.055 0.133,-0.08 0.515,-0.299 1.07,-0.448 1.667,-0.45 0.596,0.002 1.152,0.151 1.667,0.45 0.496,0.294 0.891,0.689 1.185,1.186 0.299,0.514 0.449,1.07 0.451,1.666 -0.012,0.095 -0.015,0.191 -0.011,0.288"
       style="fill:#bc4749;fill-opacity:0.501961;fill-rule:nonzero;stroke:none;stroke-width:0.1"
       id="path994" />
    <path
       d="m 409.313,380.165 c -0.025,0.533 -0.183,1.029 -0.476,1.488 -0.356,0.603 -0.835,1.081 -1.436,1.437 -0.013,0.009 -0.027,0.018 -0.041,0.025 -0.299,0.161 -1.212,0.507 -0.994,0.422 -0.033,0.013 -0.066,0.022 -0.1,0.03 -0.529,0.166 -1.059,0.19 -1.589,0.071 -0.53,-0.024 -1.024,-0.181 -1.481,-0.473 -0.269,-0.207 -0.537,-0.415 -0.807,-0.623 -0.389,-0.361 -0.663,-0.788 -0.823,-1.282 -0.181,-0.311 -0.272,-0.646 -0.273,-1.005 -0.118,-0.531 -0.094,-1.06 0.072,-1.59 0.133,-0.317 0.267,-0.634 0.401,-0.951 0.25,-0.422 0.582,-0.761 0.952,-1.062 0.146,-0.129 0.297,-0.246 0.456,-0.351 0.008,-0.005 0.014,-0.012 0.022,-0.017 0.007,-0.003 0.013,-0.009 0.021,-0.012 0.337,-0.218 0.7,-0.388 1.099,-0.5 0.354,-0.048 0.709,-0.095 1.064,-0.143 0.723,0.002 1.397,0.184 2.021,0.547 0.467,0.251 0.841,0.595 1.123,1.031 0.354,0.387 0.593,0.841 0.717,1.361 0.167,0.532 0.191,1.065 0.072,1.597"
       style="fill:#bc4749;fill-opacity:0.501961;fill-rule:nonzero;stroke:none;stroke-width:0.1"
       id="path996" />
    <path
       d="m 382.39,367.841 c -0.019,0.175 -0.105,0.828 -0.135,1 0,0.004 -10e-4,0.008 -0.002,0.013 -0.002,0.011 -0.004,0.022 -0.007,0.032 -0.177,0.635 -0.499,1.187 -0.963,1.655 -0.468,0.465 -1.02,0.786 -1.655,0.965 -0.333,0.044 -0.665,0.088 -0.997,0.133 -0.677,-0.002 -1.307,-0.172 -1.892,-0.512 -0.437,-0.236 -0.787,-0.557 -1.052,-0.965 -0.331,-0.362 -0.555,-0.787 -0.671,-1.276 -0.179,-0.664 -0.179,-1.329 0,-1.993 0.094,-0.336 0.234,-0.645 0.408,-0.934 0.023,-0.03 0.04,-0.062 0.056,-0.095 0.008,-0.02 0.015,-0.039 0.024,-0.058 0.232,-0.43 0.549,-0.776 0.95,-1.036 0.231,-0.228 0.502,-0.386 0.816,-0.474 0.439,-0.232 0.914,-0.338 1.422,-0.319 0.327,0.044 0.654,0.088 0.981,0.132 0.294,0.124 0.588,0.248 0.882,0.372 0.431,0.233 0.775,0.549 1.036,0.951 0.326,0.357 0.547,0.776 0.661,1.256 0.031,0.17 0.051,0.374 0.071,0.519 0.018,0.138 0.051,0.345 0.068,0.516 0.003,0.021 0.003,0.041 0.003,0.062 0,0.018 -0.002,0.037 -0.004,0.056"
       style="fill:#bc4749;fill-opacity:0.501961;fill-rule:nonzero;stroke:none;stroke-width:0.1"
       id="path998" />
    <path
       d="m 435.192,379.488 c -0.001,0.004 -0.001,0.008 -0.002,0.012 -0.04,0.31 -0.081,0.621 -0.125,0.93 -0.117,0.278 -0.235,0.555 -0.352,0.832 -0.309,0.525 -0.726,0.941 -1.25,1.251 -0.03,0.014 -0.058,0.034 -0.086,0.053 0.068,-0.051 0.134,-0.102 0.201,-0.154 -0.194,0.155 -0.406,0.28 -0.649,0.348 -0.135,0.067 -0.271,0.125 -0.411,0.173 -0.014,0.004 -0.025,0.013 -0.04,0.017 -0.009,0.003 -0.018,0.005 -0.027,0.007 -0.384,0.127 -0.783,0.199 -1.201,0.2 -0.527,0.02 -1.018,-0.09 -1.474,-0.329 -0.17,-0.039 -0.325,-0.106 -0.467,-0.199 -0.574,-0.34 -1.031,-0.797 -1.37,-1.371 -0.005,-0.008 -0.01,-0.017 -0.015,-0.025 -0.342,-0.589 -0.513,-1.223 -0.515,-1.905 0.002,-0.682 0.173,-1.317 0.515,-1.905 0.335,-0.5 0.817,-1.14 1.395,-1.396 0.597,-0.346 1.241,-0.519 1.931,-0.522 0.691,0.003 1.334,0.176 1.931,0.522 0.242,0.182 0.558,0.42 0.792,0.611 0.007,0.006 0.014,0.012 0.022,0.018 0.015,0.014 0.03,0.028 0.045,0.043 0.454,0.46 0.873,1.07 1.02,1.712 0.011,0.046 0.13,0.945 0.133,0.988 0,0.005 0.001,0.01 0.001,0.015 0,0.013 10e-4,0.025 0,0.038 0,0.012 -0.001,0.024 -0.002,0.036"
       style="fill:#bc4749;fill-opacity:0.501961;fill-rule:nonzero;stroke:none;stroke-width:0.1"
       id="path1000" />
    <path
       d="m 416.027,356.607 c -0.01,0.022 -0.022,0.041 -0.035,0.06 -0.206,0.283 -0.404,0.579 -0.646,0.833 -0.008,0.009 -0.017,0.016 -0.025,0.024 -0.517,0.442 -1.116,0.927 -1.813,1.053 -0.004,10e-4 -0.007,10e-4 -0.011,0.002 -0.352,0.047 -0.704,0.095 -1.056,0.141 -0.006,10e-4 -0.013,10e-4 -0.02,0.002 -0.013,0 -0.026,-10e-4 -0.04,-0.002 -0.35,-0.046 -0.7,-0.093 -1.05,-0.14 -0.314,-0.133 -0.628,-0.266 -0.942,-0.399 -0.267,-0.206 -0.533,-0.411 -0.799,-0.617 -0.386,-0.357 -0.657,-0.781 -0.816,-1.27 -0.179,-0.308 -0.269,-0.64 -0.27,-0.996 -0.093,-0.35 -0.093,-0.7 0,-1.049 10e-4,-0.357 0.091,-0.689 0.27,-0.996 0.06,-0.187 0.153,-0.355 0.246,-0.522 -0.003,0.004 -0.006,0.008 -0.009,0.012 0.004,-0.005 0.007,-0.01 0.011,-0.016 0.046,-0.083 0.092,-0.166 0.146,-0.244 0.161,-0.26 0.348,-0.504 0.571,-0.728 l 0.81,-0.626 c 0.624,-0.362 1.298,-0.544 2.021,-0.546 0.55,-0.022 1.065,0.094 1.542,0.344 0.497,0.162 0.926,0.438 1.289,0.828 0.39,0.363 0.666,0.793 0.828,1.289 0.25,0.476 0.365,0.991 0.345,1.542 -0.003,0.722 -0.185,1.396 -0.547,2.021"
       style="fill:#bc4749;fill-opacity:0.501961;fill-rule:nonzero;stroke:none;stroke-width:0.1"
       id="path1002" />
    <path
       d="m 409.952,450.382 c 0.005,0.093 -0.009,0.181 -0.044,0.262 -0.058,0.137 -0.116,0.275 -0.173,0.411 l -0.016,0.026 c -0.016,0.025 -0.031,0.051 -0.047,0.076 -0.145,0.246 -0.342,0.443 -0.588,0.588 -0.188,0.119 -0.391,0.184 -0.609,0.194 -0.218,0.049 -0.436,0.04 -0.654,-0.029 -0.278,-0.078 -0.519,-0.219 -0.723,-0.422 -0.115,-0.141 -0.239,-0.28 -0.339,-0.433 -0.188,-0.289 -0.241,-0.639 -0.256,-0.976 l -0.014,-0.34 c -0.005,-0.113 -0.016,-0.227 -0.015,-0.341 0.021,-0.152 0.041,-0.305 0.061,-0.457 0.032,-0.157 0.092,-0.298 0.182,-0.422 0.07,-0.11 0.198,-0.279 0.29,-0.372 0.029,-0.028 0.057,-0.054 0.085,-0.082 0.104,-0.08 0.206,-0.16 0.31,-0.24 0.176,-0.111 0.366,-0.172 0.57,-0.182 0.136,-0.036 0.272,-0.036 0.407,0 0.203,0.01 0.394,0.071 0.57,0.182 0.027,0.021 0.053,0.041 0.081,0.062 0.125,0.092 0.262,0.172 0.369,0.286 0.054,0.056 0.101,0.118 0.143,0.184 0.153,0.166 0.255,0.361 0.308,0.584 0.043,0.189 0.055,0.39 0.073,0.583 0.006,0.06 0.012,0.119 0.017,0.179 0.011,0.113 0.021,0.226 0.032,0.34 0.003,0.03 0.007,0.059 0.009,0.09 0.009,0.083 -10e-4,0.165 -0.029,0.249"
       style="fill:#7e8b75;fill-opacity:0.501961;fill-rule:nonzero;stroke:none;stroke-width:0.1"
       id="path1004" />
    <path
       d="m 389.77,426.954 c -0.052,0.125 -0.105,0.249 -0.157,0.374 -0.076,0.097 -0.151,0.194 -0.226,0.291 -0.13,0.14 -0.285,0.24 -0.464,0.299 -0.112,0.064 -0.233,0.098 -0.363,0.098 -0.192,0.042 -0.384,0.034 -0.575,-0.026 -0.307,-0.052 -0.549,-0.269 -0.775,-0.467 -0.168,-0.147 -0.257,-0.251 -0.406,-0.46 -0.099,-0.138 -0.164,-0.308 -0.241,-0.459 -0.039,-0.077 -0.08,-0.154 -0.118,-0.231 -0.127,-0.264 -0.238,-0.535 -0.213,-0.837 0.003,-0.038 0.009,-0.076 0.013,-0.115 0.007,-0.069 0.015,-0.138 0.023,-0.208 0.011,-0.089 0.022,-0.177 0.034,-0.266 0.008,-0.171 0.059,-0.33 0.152,-0.477 0.05,-0.092 0.124,-0.162 0.196,-0.232 0.006,-0.007 0.011,-0.013 0.017,-0.02 0.021,-0.019 0.033,-0.047 0.054,-0.064 -0.007,0.012 -0.013,0.023 -0.019,0.034 0.129,-0.143 0.295,-0.241 0.482,-0.288 h -0.027 c 0.016,-0.006 0.034,-0.004 0.05,-0.009 0.04,-0.008 0.079,-0.015 0.12,-0.019 0.192,-0.033 0.385,-0.036 0.578,0.008 0.121,0.027 0.255,0.102 0.374,0.162 l 0.199,0.099 c 0.289,0.143 0.525,0.361 0.699,0.634 0.05,0.079 0.094,0.163 0.141,0.243 0.144,0.251 0.323,0.516 0.395,0.796 0.021,0.081 0.03,0.167 0.042,0.25 0.015,0.101 0.029,0.202 0.041,0.302 0.044,0.197 0.035,0.392 -0.026,0.588"
       style="fill:#7e8b75;fill-opacity:0.501961;fill-rule:nonzero;stroke:none;stroke-width:0.1"
       id="path1006" />
    <path
       d="m 407.263,418.321 c -0.07,0.207 -0.164,0.409 -0.246,0.613 -0.119,0.297 -0.296,0.532 -0.621,0.621 -0.312,0.086 -0.634,-0.009 -0.865,-0.228 -0.145,-0.138 -0.296,-0.271 -0.434,-0.413 -0.272,-0.281 -0.492,-0.741 -0.618,-1.11 -0.072,-0.215 -0.106,-0.446 -0.153,-0.666 -0.024,-0.112 -0.05,-0.223 -0.073,-0.334 -0.082,-0.424 -0.046,-0.765 0.158,-1.148 0.023,-0.044 0.047,-0.086 0.072,-0.129 0.18,-0.281 0.45,-0.528 0.785,-0.604 0.323,-0.073 0.736,-0.075 1.014,0.132 0.031,0.024 0.062,0.046 0.092,0.07 0.111,0.084 0.219,0.168 0.328,0.253 0.143,0.133 0.244,0.29 0.302,0.472 0.07,0.162 0.104,0.311 0.141,0.481 0.072,0.334 0.178,0.688 0.19,1.03 0.012,0.292 0.018,0.693 -0.072,0.96"
       style="fill:#7e8b75;fill-opacity:0.501961;fill-rule:nonzero;stroke:none;stroke-width:0.1"
       id="path1008" />
    <path
       d="m 407.391,433.33 c 0.009,0.368 -0.015,0.698 -0.231,1.015 -0.13,0.188 -0.278,0.33 -0.492,0.421 -0.195,0.081 -0.463,0.13 -0.669,0.051 -0.23,-0.088 -0.462,-0.183 -0.638,-0.364 -0.13,-0.134 -0.22,-0.299 -0.305,-0.463 -0.097,-0.186 -0.186,-0.377 -0.27,-0.569 -0.063,-0.146 -0.151,-0.288 -0.186,-0.442 -0.034,-0.147 -0.048,-0.311 -0.057,-0.463 -0.006,-0.104 -0.009,-0.209 -0.012,-0.313 -0.005,-0.215 0.022,-0.428 0.076,-0.636 0.013,-0.053 0.025,-0.105 0.042,-0.156 0.076,-0.231 0.189,-0.399 0.348,-0.586 0.187,-0.218 0.584,-0.37 0.865,-0.357 0.339,0.014 0.607,0.136 0.865,0.357 0.266,0.227 0.444,0.684 0.521,1.011 0.073,0.302 0.158,0.589 0.146,0.906 -0.007,0.196 -0.008,0.392 -0.003,0.588"
       style="fill:#7e8b75;fill-opacity:0.501961;fill-rule:nonzero;stroke:none;stroke-width:0.1"
       id="path1010" />
    <path
       d="m 425.044,423.438 c -0.025,0.186 -0.062,0.368 -0.115,0.548 -0.038,0.129 -0.088,0.256 -0.159,0.37 -0.063,0.102 -0.165,0.218 -0.247,0.317 -0.057,0.068 -0.116,0.133 -0.178,0.198 -0.061,0.063 -0.126,0.125 -0.191,0.184 -0.097,0.086 -0.195,0.176 -0.306,0.241 -0.094,0.052 -0.237,0.102 -0.351,0.145 -0.075,0.03 -0.151,0.056 -0.228,0.079 -0.384,0.116 -0.705,0 -0.971,-0.254 -0.009,10e-4 -0.017,0.002 -0.025,0.003 -0.157,0.016 -0.237,-0.187 -0.153,-0.305 -0.074,-0.265 -0.066,-0.522 0.08,-0.781 0.035,-0.061 0.071,-0.124 0.104,-0.187 0.034,-0.066 0.063,-0.133 0.102,-0.194 0.04,-0.063 0.09,-0.119 0.138,-0.176 0.162,-0.221 0.288,-0.5 0.485,-0.685 0.146,-0.139 0.288,-0.277 0.414,-0.434 0.128,-0.16 0.329,-0.237 0.536,-0.262 0.055,-0.027 0.111,-0.048 0.171,-0.059 0.174,-0.091 0.39,-0.077 0.502,0.119 0.014,0.026 0.028,0.052 0.042,0.079 0.04,0.045 0.083,0.087 0.111,0.14 0.079,0.087 0.147,0.185 0.191,0.29 0.091,0.216 0.08,0.392 0.048,0.624"
       style="fill:#7e8b75;fill-opacity:0.501961;fill-rule:nonzero;stroke:none;stroke-width:0.1"
       id="path1012" />
    <path
       d="m 402.948,399.649 c -0.025,0.154 -0.063,0.309 -0.107,0.458 -0.092,0.314 -0.263,0.519 -0.464,0.768 -0.364,0.451 -1.153,0.283 -1.411,-0.183 -0.049,-0.088 -0.104,-0.174 -0.149,-0.265 -0.082,-0.172 -0.124,-0.338 -0.172,-0.519 -0.057,-0.216 -0.087,-0.434 -0.114,-0.651 -0.03,-0.202 -0.066,-0.402 -0.113,-0.6 -0.023,-0.1 -0.049,-0.197 -0.078,-0.296 -0.054,-0.185 -0.067,-0.381 -0.091,-0.573 -0.003,-0.028 -0.012,-0.059 -0.012,-0.087 0,-0.21 0.066,-0.439 0.169,-0.621 0.064,-0.115 0.159,-0.231 0.256,-0.32 0.311,-0.287 0.719,-0.366 1.119,-0.252 0.73,0.206 0.977,0.934 1.085,1.601 0.082,0.506 0.166,1.03 0.082,1.54"
       style="fill:#7e8b75;fill-opacity:0.501961;fill-rule:nonzero;stroke:none;stroke-width:0.1"
       id="path1014" />
    <path
       d="m 389.604,403.846 c -0.026,0.193 -0.043,0.336 -0.169,0.512 -0.015,0.021 -0.029,0.039 -0.044,0.059 l -0.179,0.232 c -0.103,0.112 -0.226,0.19 -0.368,0.237 -0.089,0.052 -0.185,0.078 -0.289,0.078 -0.152,0.034 -0.304,0.027 -0.456,-0.021 -0.149,-0.022 -0.281,-0.073 -0.417,-0.154 -0.229,-0.136 -0.343,-0.304 -0.499,-0.511 -0.022,-0.027 -0.042,-0.056 -0.063,-0.083 -0.109,-0.143 -0.16,-0.315 -0.191,-0.488 -0.007,-0.034 -0.014,-0.069 -0.019,-0.103 -0.05,-0.277 -0.078,-0.463 10e-4,-0.739 0.06,-0.217 0.169,-0.404 0.328,-0.563 0.115,-0.125 0.252,-0.213 0.41,-0.263 0.151,-0.08 0.315,-0.116 0.491,-0.11 0.23,0 0.444,0.058 0.643,0.174 0.248,0.138 0.397,0.348 0.552,0.574 0.102,0.148 0.198,0.307 0.223,0.49 0.005,0.035 0.01,0.069 0.014,0.103 0.003,0.021 0.006,0.04 0.008,0.06 0.054,0.172 0.062,0.343 0.024,0.516"
       style="fill:#7e8b75;fill-opacity:0.501961;fill-rule:nonzero;stroke:none;stroke-width:0.1"
       id="path1016" />
    <path
       d="m 431.12,405.362 c 0,0.19 -0.048,0.367 -0.144,0.532 -0.013,0.029 -0.025,0.059 -0.039,0.088 -0.046,0.104 -0.09,0.207 -0.137,0.31 -0.048,0.103 -0.117,0.189 -0.185,0.281 -0.077,0.104 -0.154,0.207 -0.23,0.311 -0.029,0.039 -0.057,0.078 -0.086,0.117 -0.153,0.205 -0.239,0.305 -0.449,0.45 -0.081,0.056 -0.165,0.113 -0.25,0.166 -0.193,0.12 -0.397,0.151 -0.62,0.15 -0.23,-0.002 -0.505,-0.129 -0.608,-0.348 -0.011,-0.027 -0.024,-0.053 -0.037,-0.08 -0.04,-0.076 -0.072,-0.156 -0.096,-0.238 -0.043,-0.16 -0.043,-0.32 0,-0.479 0.016,-0.108 0.031,-0.214 0.049,-0.32 0.05,-0.295 0.258,-0.591 0.401,-0.855 0.094,-0.173 0.19,-0.322 0.321,-0.476 0.07,-0.085 0.145,-0.167 0.217,-0.249 0.346,-0.395 0.954,-0.638 1.445,-0.351 0.281,0.164 0.451,0.513 0.454,0.829 0,0.054 -0.003,0.108 -0.006,0.162"
       style="fill:#7e8b75;fill-opacity:0.501961;fill-rule:nonzero;stroke:none;stroke-width:0.1"
       id="path1018" />
    <path
       d="m 419.047,381.853 c 0.196,0.198 0.307,0.499 0.295,0.766 -0.007,0.153 -0.013,0.316 -0.06,0.46 -0.072,0.216 -0.189,0.421 -0.289,0.624 -0.061,0.123 -0.122,0.246 -0.183,0.369 -0.104,0.208 -0.283,0.365 -0.449,0.524 -0.17,0.164 -0.377,0.261 -0.611,0.292 -0.226,0.031 -0.479,0.002 -0.677,-0.126 -0.154,-0.098 -0.283,-0.227 -0.381,-0.38 -0.161,-0.25 -0.153,-0.541 -0.108,-0.82 l 0.035,-0.21 c 0.025,-0.159 0.082,-0.296 0.16,-0.443 0.067,-0.127 0.138,-0.252 0.208,-0.378 0.087,-0.158 0.168,-0.314 0.278,-0.457 0.27,-0.35 0.699,-0.601 1.148,-0.539 0.061,0.002 0.11,0.01 0.169,0.023 0.006,0.002 0.011,0 0.017,0.002 h -0.01 c 0.078,0.02 0.16,0.036 0.22,0.075 0.069,0.045 0.124,0.103 0.178,0.161 -0.003,-0.005 -0.006,-0.01 -0.009,-0.015 0.018,0.015 0.031,0.034 0.048,0.05 0.007,0.008 0.015,0.014 0.021,0.022"
       style="fill:#7e8b75;fill-opacity:0.501961;fill-rule:nonzero;stroke:none;stroke-width:0.1"
       id="path1020" />
    <path
       d="m 442.602,388.094 c -0.049,0.177 -0.13,0.349 -0.207,0.513 -0.031,0.068 -0.069,0.132 -0.112,0.194 -0.295,0.416 -0.616,0.77 -1.131,0.923 -0.179,0.053 -0.384,0.073 -0.562,0.089 -0.071,0.006 -0.14,0.005 -0.212,-0.003 -0.276,-0.031 -0.487,-0.054 -0.728,-0.21 -0.113,-0.072 -0.217,-0.157 -0.319,-0.243 -0.12,-0.101 -0.213,-0.242 -0.303,-0.365 -0.102,-0.177 -0.154,-0.367 -0.155,-0.572 -0.005,-0.156 0.027,-0.301 0.098,-0.437 0.046,-0.139 0.124,-0.262 0.234,-0.364 0.142,-0.141 0.308,-0.237 0.5,-0.291 0.01,-0.002 0.019,-0.007 0.029,-0.009 0.036,-0.018 0.073,-0.037 0.112,-0.053 0.058,-0.029 0.115,-0.058 0.166,-0.097 l -0.081,0.062 c 0.009,-0.003 0.017,-0.006 0.024,-0.009 0.066,-0.049 0.127,-0.104 0.199,-0.144 0.047,-0.045 0.096,-0.086 0.136,-0.138 -0.004,0.007 -0.009,0.014 -0.015,0.021 0.071,-0.097 0.139,-0.197 0.241,-0.263 0.129,-0.117 0.279,-0.196 0.452,-0.237 l 0.353,-0.048 c 0.182,-0.007 0.353,0.031 0.511,0.114 0.113,0.032 0.21,0.089 0.293,0.171 0.145,0.094 0.259,0.218 0.343,0.373 0.167,0.316 0.23,0.671 0.134,1.023"
       style="fill:#7e8b75;fill-opacity:0.501961;fill-rule:nonzero;stroke:none;stroke-width:0.1"
       id="path1022" />
    <path
       d="m 393.343,366.282 c -0.013,0.09 -0.016,0.186 -0.037,0.273 -0.037,0.157 -0.127,0.326 -0.213,0.463 -0.167,0.268 -0.412,0.431 -0.723,0.473 -0.13,0.029 -0.262,0.023 -0.394,-0.018 -0.167,-0.046 -0.313,-0.131 -0.437,-0.254 -0.21,-0.164 -0.347,-0.384 -0.472,-0.615 -0.094,-0.174 -0.207,-0.358 -0.257,-0.547 -0.023,-0.088 -0.036,-0.18 -0.055,-0.269 -0.04,-0.198 -0.084,-0.396 -0.121,-0.595 -0.068,-0.364 -0.05,-0.711 0.136,-1.038 0.111,-0.197 0.303,-0.391 0.493,-0.503 0.148,-0.088 0.304,-0.144 0.475,-0.168 0.645,-0.086 1.369,0.36 1.499,1.021 0.039,0.198 0.064,0.4 0.095,0.6 0.032,0.193 0.085,0.412 0.087,0.6 0.002,0.189 -0.05,0.387 -0.076,0.577"
       style="fill:#7e8b75;fill-opacity:0.501961;fill-rule:nonzero;stroke:none;stroke-width:0.1"
       id="path1024" />
    <path
       d="m 377.638,378.993 c -0.046,0.346 -0.124,0.769 -0.356,1.049 -0.007,0.013 -0.013,0.027 -0.02,0.041 -0.117,0.236 -0.404,0.378 -0.658,0.378 -0.245,0 -0.432,-0.116 -0.582,-0.288 -0.119,-0.097 -0.22,-0.216 -0.315,-0.345 -0.025,-0.03 -0.049,-0.062 -0.076,-0.093 -0.078,-0.091 -0.181,-0.202 -0.228,-0.291 -0.016,-0.028 -0.026,-0.06 -0.038,-0.09 -0.121,-0.279 -0.272,-0.547 -0.418,-0.813 -0.072,-0.129 -0.154,-0.25 -0.233,-0.374 -0.211,-0.331 -0.202,-0.691 -0.136,-1.057 0.001,-0.014 0.003,-0.027 0.006,-0.04 0,-0.003 0,-0.006 10e-4,-0.009 0,-0.005 0.002,-0.009 0.002,-0.012 0.006,-0.031 0.012,-0.061 0.016,-0.092 -0.002,0.016 -0.005,0.033 -0.007,0.05 0.025,-0.21 0.085,-0.421 0.247,-0.571 0.172,-0.157 0.387,-0.262 0.625,-0.259 0.084,10e-4 0.168,0.006 0.251,0.015 0.139,0.015 0.287,0.022 0.421,0.058 0.357,0.096 0.609,0.337 0.813,0.635 0.203,0.292 0.375,0.618 0.492,0.954 0.122,0.353 0.243,0.787 0.193,1.154"
       style="fill:#7e8b75;fill-opacity:0.501961;fill-rule:nonzero;stroke:none;stroke-width:0.1"
       id="path1026" />
    <path
       d="m 364.736,354.832 c -0.014,0.082 -0.029,0.166 -0.046,0.247 -0.08,0.375 -0.306,0.683 -0.582,0.937 -0.448,0.411 -1.073,0.5 -1.61,0.207 -0.324,-0.176 -0.628,-0.412 -0.791,-0.754 -0.031,-0.068 -0.061,-0.137 -0.092,-0.206 -0.065,-0.141 -0.126,-0.286 -0.183,-0.431 -0.021,-0.153 -0.041,-0.304 -0.062,-0.456 -0.002,-0.045 -0.005,-0.088 -0.004,-0.135 0.004,-0.17 0.008,-0.341 0.013,-0.512 0.009,-0.331 0.038,-0.682 0.223,-0.969 0.049,-0.076 0.111,-0.139 0.168,-0.207 0.023,-0.035 0.046,-0.071 0.069,-0.106 0.219,-0.338 0.521,-0.548 0.92,-0.602 0.402,-0.053 0.762,0.068 1.059,0.347 0.035,0.032 0.07,0.066 0.104,0.098 0.068,0.048 0.14,0.088 0.197,0.144 0.237,0.238 0.368,0.545 0.455,0.864 0.045,0.163 0.089,0.327 0.134,0.491 0.103,0.376 0.093,0.67 0.028,1.043"
       style="fill:#7e8b75;fill-opacity:0.501961;fill-rule:nonzero;stroke:none;stroke-width:0.1"
       id="path1028" />
    <path
       d="m 401.4,350.419 c -0.003,0.03 -0.006,0.059 -0.009,0.09 -0.031,0.33 -0.031,0.356 -0.136,0.604 -0.058,0.18 -0.159,0.336 -0.301,0.468 -0.088,0.092 -0.187,0.169 -0.297,0.228 -0.226,0.129 -0.427,0.181 -0.688,0.195 -0.148,0.008 -0.235,0.004 -0.429,-0.049 -0.189,-0.045 -0.354,-0.132 -0.494,-0.261 -0.056,-0.043 -0.113,-0.087 -0.169,-0.13 -0.099,-0.101 -0.18,-0.233 -0.266,-0.346 -0.15,-0.195 -0.225,-0.423 -0.275,-0.66 -0.025,-0.116 -0.05,-0.231 -0.075,-0.347 -0.076,-0.373 -0.063,-0.455 0.002,-0.827 0.004,-0.027 0.01,-0.052 0.014,-0.079 0.03,-0.163 0.082,-0.303 0.171,-0.456 0.086,-0.16 0.204,-0.289 0.354,-0.385 0.133,-0.122 0.288,-0.204 0.467,-0.246 0.122,-0.017 0.244,-0.034 0.366,-0.05 0.248,10e-4 0.48,0.063 0.693,0.188 0.153,0.079 0.266,0.188 0.376,0.309 0.019,0.019 0.038,0.039 0.056,0.059 0.087,0.107 0.171,0.215 0.251,0.327 0.051,0.12 0.102,0.24 0.151,0.359 0.046,0.121 0.089,0.243 0.134,0.364 0.047,0.129 0.064,0.219 0.083,0.366 0.018,0.133 0.031,0.173 0.021,0.279"
       style="fill:#7e8b75;fill-opacity:0.501961;fill-rule:nonzero;stroke:none;stroke-width:0.1"
       id="path1030" />
    <path
       d="m 433.458,362.985 c -0.047,0.072 -0.102,0.141 -0.154,0.211 -0.107,0.147 -0.215,0.294 -0.322,0.44 -0.122,0.166 -0.23,0.316 -0.386,0.441 -0.067,0.055 -0.136,0.109 -0.203,0.164 -0.037,0.029 -0.074,0.06 -0.111,0.089 -0.121,0.13 -0.263,0.222 -0.428,0.275 -0.158,0.083 -0.329,0.121 -0.512,0.114 -0.058,-10e-4 -0.116,-0.011 -0.174,-0.014 0.016,-0.002 0.033,-0.005 0.048,-0.007 -0.56,0.072 -1.024,-0.278 -1.103,-0.839 0.002,0.016 0.005,0.031 0.007,0.047 -0.019,-0.055 -0.044,-0.107 -0.06,-0.163 -0.017,-0.117 -0.032,-0.235 -0.048,-0.354 10e-4,-0.239 0.062,-0.462 0.182,-0.67 0.015,-0.037 0.031,-0.073 0.048,-0.109 0.034,-0.08 0.069,-0.16 0.104,-0.24 0.019,-0.043 0.036,-0.088 0.057,-0.131 0.066,-0.136 0.186,-0.258 0.28,-0.376 0.107,-0.137 0.217,-0.272 0.325,-0.408 0.06,-0.074 0.117,-0.15 0.178,-0.223 0.204,-0.246 0.487,-0.347 0.772,-0.459 0.245,-0.065 0.49,-0.065 0.734,0 0.179,0.043 0.336,0.125 0.469,0.247 0.15,0.097 0.269,0.226 0.355,0.387 0.125,0.216 0.187,0.447 0.188,0.696 -0.034,0.315 -0.067,0.613 -0.246,0.882"
       style="fill:#7e8b75;fill-opacity:0.501961;fill-rule:nonzero;stroke:none;stroke-width:0.1"
       id="path1032" />
    <path
       d="m 448.035,351.406 c -0.043,0.084 -0.086,0.168 -0.13,0.251 -0.094,0.183 -0.219,0.343 -0.37,0.481 -0.141,0.13 -0.281,0.27 -0.447,0.365 -0.215,0.123 -0.429,0.161 -0.671,0.178 -0.013,0.001 -0.028,0.001 -0.042,0.002 -0.028,0.002 -0.056,0.004 -0.085,0.006 -0.098,-0.013 -0.196,-0.026 -0.295,-0.04 -0.144,-0.034 -0.269,-0.099 -0.376,-0.198 -0.083,-0.049 -0.15,-0.115 -0.199,-0.198 -0.098,-0.108 -0.164,-0.233 -0.198,-0.377 -0.009,-0.031 -0.018,-0.061 -0.026,-0.091 -0.005,-0.015 -0.009,-0.029 -0.014,-0.045 -0.062,-0.221 -0.055,-0.333 -0.027,-0.533 0.007,-0.066 0.016,-0.131 0.026,-0.197 0.046,-0.108 0.092,-0.216 0.138,-0.324 0.008,-0.019 0.015,-0.038 0.023,-0.057 0.02,-0.045 0.039,-0.091 0.059,-0.137 0.017,-0.042 0.033,-0.084 0.055,-0.124 0.075,-0.134 0.185,-0.248 0.29,-0.361 0.067,-0.071 0.133,-0.142 0.199,-0.213 0.166,-0.165 0.362,-0.279 0.588,-0.342 0.235,-0.064 0.47,-0.064 0.707,0 0.25,0.084 0.281,0.104 0.452,0.236 0.097,0.058 0.176,0.137 0.234,0.235 0.036,0.046 0.072,0.093 0.109,0.14 0.12,0.207 0.18,0.432 0.181,0.671 -0.001,0.24 -0.061,0.465 -0.181,0.672"
       style="fill:#7e8b75;fill-opacity:0.501961;fill-rule:nonzero;stroke:none;stroke-width:0.1"
       id="path1034" />
  </g>
</svg>
