<?xml version="1.0" encoding="UTF-8" standalone="no"?>
<!-- Created with Inkscape (http://www.inkscape.org/) -->

<svg
   version="1.1"
   id="svg84335"
   width="327.75229"
   height="327.75201"
   viewBox="0 0 327.75227 327.752"
   sodipodi:docname="963996_78339-OFJOYN-218.eps"
   xmlns:inkscape="http://www.inkscape.org/namespaces/inkscape"
   xmlns:sodipodi="http://sodipodi.sourceforge.net/DTD/sodipodi-0.dtd"
   xmlns="http://www.w3.org/2000/svg"
   xmlns:svg="http://www.w3.org/2000/svg">
  <defs
     id="defs84339" />
  <sodipodi:namedview
     id="namedview84337"
     pagecolor="#ffffff"
     bordercolor="#000000"
     borderopacity="0.25"
     inkscape:showpageshadow="2"
     inkscape:pageopacity="0.0"
     inkscape:pagecheckerboard="0"
     inkscape:deskcolor="#d1d1d1"
     showgrid="false" />
  <g
     id="g84343"
     inkscape:groupmode="layer"
     inkscape:label="Page 1"
     transform="matrix(1.3333333,0,0,-1.3333333,-25.286401,958.73598)">
    <g
       id="g84345"
       transform="scale(0.1)">
      <path
         d="m 5229.06,5961.45 c 0,-678.8 -550.27,-1229.07 -1229.06,-1229.07 -678.8,0 -1229.07,550.27 -1229.07,1229.07 0,678.8 550.27,1229.07 1229.07,1229.07 678.79,0 1229.06,-550.27 1229.06,-1229.07"
         style="fill:#c87072;fill-opacity:1;fill-rule:nonzero;stroke:none"
         id="path84355" />
      <path
         d="m 4663.28,5888.5 c 0,-366.87 -297.41,-550.35 -664.29,-550.35 -366.88,0 -664.29,183.48 -664.29,550.35 0,366.88 297.41,664.29 664.29,664.29 366.88,0 664.29,-297.41 664.29,-664.29"
         style="fill:#ffffff;fill-opacity:1;fill-rule:nonzero;stroke:none"
         id="path84357" />
      <path
         d="m 3825.84,6082.87 c -11.85,0 -21.45,9.61 -21.45,21.45 0,35.47 -28.86,64.33 -64.33,64.33 -35.47,0 -64.33,-28.86 -64.33,-64.33 0,-11.84 -9.61,-21.45 -21.45,-21.45 -11.85,0 -21.45,9.61 -21.45,21.45 0,59.12 48.1,107.23 107.23,107.23 59.12,0 107.23,-48.11 107.23,-107.23 0,-11.84 -9.61,-21.45 -21.45,-21.45"
         style="fill:#d9f1db;fill-opacity:1;fill-rule:nonzero;stroke:none"
         id="path84359" />
      <path
         d="m 4269.17,6082.87 c -11.84,0 -21.44,9.61 -21.44,21.45 0,35.47 -28.86,64.33 -64.33,64.33 -35.48,0 -64.33,-28.86 -64.33,-64.33 0,-11.84 -9.61,-21.45 -21.45,-21.45 -11.85,0 -21.45,9.61 -21.45,21.45 0,59.12 48.1,107.23 107.23,107.23 59.12,0 107.22,-48.11 107.22,-107.23 0,-11.84 -9.6,-21.45 -21.45,-21.45"
         style="fill:#d9f1db;fill-opacity:1;fill-rule:nonzero;stroke:none"
         id="path84361" />
      <path
         d="m 3937.77,5560.11 c -20.33,0 -40.24,1.83 -59.4,5.23 -136.3,24.17 -235.22,123.8 -235.22,236.88 0,16.83 13.64,30.47 30.47,30.47 16.83,0 30.47,-13.64 30.47,-30.47 0,-83.48 77.77,-157.87 184.92,-176.88 107.46,-19.04 245.44,23.64 310.31,200.7 5.79,15.8 23.29,23.9 39.1,18.13 15.8,-5.79 23.92,-23.3 18.13,-39.1 -66.51,-181.53 -199.32,-244.96 -318.78,-244.96"
         style="fill:#d9f1db;fill-opacity:1;fill-rule:nonzero;stroke:none"
         id="path84363" />
      <path
         d="m 3620.73,6011.52 303.49,6.63 c 21.65,0.47 43.4,-4.12 62.08,-15.08 21.55,-12.64 43.11,-35.07 43.14,-74.25 0.05,-52.74 -23.52,-76.96 -47.1,-88.01 -21.56,-10.09 -46.71,-9.09 -68.65,0.13 l -301.32,126.65 c -22.75,9.56 -16.31,43.4 8.36,43.93"
         style="fill:#d9f1db;fill-opacity:1;fill-rule:nonzero;stroke:none"
         id="path84365" />
      <path
         d="m 3990.93,5508.29 c -223.04,-26.98 -387.05,-17.91 -500.71,0.55 121.86,-113.74 304.51,-170.69 508.77,-170.69 366.88,0 664.29,183.48 664.29,550.35 0,366.88 -297.41,664.29 -664.29,664.29 -75.96,0 -148.87,-12.92 -216.85,-36.4 -3.27,-25.06 -2.91,-40.82 -2.91,-40.82 0,0 572.09,-48.02 677.05,-327.99 104.95,-279.97 38.51,-578.35 -465.35,-639.29"
         style="fill:#d9f1db;fill-opacity:1;fill-rule:nonzero;stroke:none"
         id="path84367" />
      <path
         d="m 3596.93,6021.05 303.48,6.62 c 21.66,0.47 43.4,-4.12 62.08,-15.07 21.55,-12.65 43.11,-35.08 43.14,-74.26 0.05,-52.73 -23.52,-76.96 -47.1,-88 -21.56,-10.1 -46.71,-9.1 -68.65,0.13 l -301.31,126.64 c -22.75,9.56 -16.31,43.4 8.36,43.94"
         style="fill:#e08916;fill-opacity:1;fill-rule:nonzero;stroke:none"
         id="path84369" />
      <path
         d="m 3812.5,6093.03 c -11.84,0 -21.44,9.6 -21.44,21.45 0,35.47 -28.86,64.33 -64.33,64.33 -35.48,0 -64.33,-28.86 -64.33,-64.33 0,-11.85 -9.61,-21.45 -21.45,-21.45 -11.85,0 -21.45,9.6 -21.45,21.45 0,59.12 48.1,107.23 107.23,107.23 59.12,0 107.22,-48.11 107.22,-107.23 0,-11.85 -9.6,-21.45 -21.45,-21.45"
         style="fill:#381f19;fill-opacity:1;fill-rule:nonzero;stroke:none"
         id="path84371" />
      <path
         d="m 4255.84,6093.03 c -11.84,0 -21.45,9.6 -21.45,21.45 0,35.47 -28.85,64.33 -64.33,64.33 -35.47,0 -64.33,-28.86 -64.33,-64.33 0,-11.85 -9.6,-21.45 -21.45,-21.45 -11.84,0 -21.44,9.6 -21.44,21.45 0,59.12 48.1,107.23 107.22,107.23 59.13,0 107.23,-48.11 107.23,-107.23 0,-11.85 -9.6,-21.45 -21.45,-21.45"
         style="fill:#381f19;fill-opacity:1;fill-rule:nonzero;stroke:none"
         id="path84373" />
      <path
         d="m 3942.25,6957.23 c -16.44,-157.54 -78.08,-323.99 -152.16,-417.31 163.59,43.8 618.78,-91.42 618.78,-91.42 0,0 -10.05,246.73 47.41,392.35 0,0 -180.73,146.86 -514.03,116.38"
         style="fill:#381f19;fill-opacity:1;fill-rule:nonzero;stroke:none"
         id="path84375" />
      <path
         d="m 4163.82,6630.7 c -110.05,20.96 -210.63,33.61 -298.3,38.71 -22.34,-50.39 -48.03,-94.97 -75.43,-129.49 163.59,43.8 618.78,-91.42 618.78,-91.42 0,0 -1.98,48.86 0.87,115.89 -69.27,25.33 -151.09,48.24 -245.92,66.31"
         style="fill:#2d1a15;fill-opacity:1;fill-rule:nonzero;stroke:none"
         id="path84377" />
      <path
         d="m 4340.19,6904.2 c -24.34,-90.64 -59.64,-250.08 -62.92,-420.39 77.54,-19.26 131.6,-35.31 131.6,-35.31 0,0 -10.05,246.73 47.41,392.35 0,0 -39.67,32.22 -116.09,63.35"
         style="fill:#2d1a15;fill-opacity:1;fill-rule:nonzero;stroke:none"
         id="path84379" />
      <path
         d="m 3441.03,5562.08 c 0,0 645.35,-223.93 1117.29,1.75 0,0 14.49,-104.35 -43.97,-212.59 -9.2,-17.04 -24.19,-30.36 -42.01,-37.94 -99.14,-42.2 -466.34,-172.79 -960.39,-40.91 -34.35,9.17 -61.49,35.7 -70.99,69.96 -16.32,58.84 -33.07,152.74 0.07,219.73"
         style="fill:#ed3a28;fill-opacity:1;fill-rule:nonzero;stroke:none"
         id="path84381" />
      <path
         d="m 3924.43,5570.26 c -20.32,0 -40.24,1.83 -59.39,5.23 -136.3,24.18 -235.22,123.81 -235.22,236.89 0,16.83 13.64,30.47 30.47,30.47 16.83,0 30.47,-13.64 30.47,-30.47 0,-83.48 77.77,-157.87 184.92,-176.88 107.46,-19.04 245.44,23.64 310.31,200.69 5.79,15.81 23.29,23.91 39.1,18.13 15.8,-5.78 23.91,-23.29 18.13,-39.09 -66.51,-181.54 -199.32,-244.96 -318.79,-244.97"
         style="fill:#381f19;fill-opacity:1;fill-rule:nonzero;stroke:none"
         id="path84383" />
      <path
         d="m 4514.35,5351.24 c 58.46,108.24 43.97,212.59 43.97,212.59 -40.48,-19.35 -82.25,-35.33 -124.77,-48.5 l 0.06,-0.02 c 0,0 19.28,-137.34 -70.45,-177.16 -152.37,-67.62 -609.51,-112.15 -927.24,23.7 1.65,-6.81 3.34,-13.38 5.04,-19.5 9.5,-34.26 36.64,-60.79 70.99,-69.96 494.05,-131.88 861.25,-1.29 960.39,40.91 17.82,7.58 32.81,20.9 42.01,37.94"
         style="fill:#d53723;fill-opacity:1;fill-rule:nonzero;stroke:none"
         id="path84385" />
      <path
         d="m 3571.25,5257.79 c 60.93,-14.01 119.74,-24.1 176.18,-30.93 -18.03,69.59 -44.07,183.56 -46.74,270.43 v 0 c -27.45,5.06 -53.31,10.35 -77.27,15.63 -24.41,-74.06 -56.03,-200.27 -52.17,-255.13"
         style="fill:#d53723;fill-opacity:1;fill-rule:nonzero;stroke:none"
         id="path84387" />
      <path
         d="m 3518.54,5538.77 c 0,0 -73.64,-289.54 12.87,-586.97 3.73,-12.85 15.89,-21.41 29.26,-20.73 17.06,0.87 43.92,3.05 81.3,8.39 46.46,6.64 78.83,3.52 102.77,-3.7 12.16,-3.66 23.21,8.22 19.06,20.21 -28.23,81.51 -91.32,298.32 -63.11,541.32 0,0 -69.42,64.35 -182.15,41.48"
         style="fill:#ed3a28;fill-opacity:1;fill-rule:nonzero;stroke:none"
         id="path84389" />
      <path
         d="m 3744.74,4935.76 c 12.16,-3.66 23.21,8.22 19.06,20.21 -28.23,81.51 -91.32,298.33 -63.11,541.32 0,0 -12.75,11.73 -36.02,23.39 -0.1,-0.31 -32.84,-162.39 -11.27,-327.28 21.58,-165.06 44.59,-204.26 -15.87,-203.31 -45.01,0.71 -64.86,-3.83 -111.7,-17.98 1.81,-6.76 3.61,-13.53 5.58,-20.31 3.74,-12.85 15.9,-21.41 29.26,-20.73 17.06,0.87 43.92,3.05 81.3,8.39 46.47,6.64 78.83,3.52 102.77,-3.7"
         style="fill:#d53723;fill-opacity:1;fill-rule:nonzero;stroke:none"
         id="path84391" />
      <path
         d="m 4147.31,6579.91 c -360.4,68.66 -619.99,48.52 -653.01,-36.03 -13.07,-33.5 8,-94.43 94.74,-132.65 100.28,58.66 228.46,84.88 409.95,64.88 270.45,-29.8 462.57,-115.22 558.88,-228.74 84.62,-7.74 124.14,12.56 124.14,48.16 0,77.42 -174.31,215.72 -534.7,284.38"
         style="fill:#381f19;fill-opacity:1;fill-rule:nonzero;stroke:none"
         id="path84393" />
      <path
         d="m 4682.01,6295.53 c 0,59.58 -103.35,155.18 -315.16,227.39 115.77,-121.56 -146.53,-87.8 -146.53,-87.8 l -0.03,-0.11 c 155.48,-42.48 270.12,-108.12 337.58,-187.64 84.62,-7.74 124.14,12.57 124.14,48.16"
         style="fill:#2d1a15;fill-opacity:1;fill-rule:nonzero;stroke:none"
         id="path84395" />
      <path
         d="m 3962.49,6012.6 c -7.79,4.57 -16.2,7.79 -24.83,10.24 2.19,-3.22 32.71,-47.98 13.12,-92.38 -28.84,-65.39 -368.65,51.17 -369.51,51.41 1.98,-1.9 4.38,-3.54 7.3,-4.76 l 301.31,-126.64 c 21.94,-9.23 47.09,-10.23 68.65,-0.13 23.58,11.04 47.15,35.27 47.1,88 -0.03,39.18 -21.59,61.61 -43.14,74.26"
         style="fill:#d0791b;fill-opacity:1;fill-rule:nonzero;stroke:none"
         id="path84397" />
      <path
         d="m 3181.77,6534.04 c 0,-17.35 -14.07,-31.42 -31.42,-31.42 -17.36,0 -31.42,14.07 -31.42,31.42 0,17.36 14.06,31.42 31.42,31.42 17.35,0 31.42,-14.06 31.42,-31.42"
         style="fill:#ffffff;fill-opacity:1;fill-rule:nonzero;stroke:none"
         id="path84399" />
      <path
         d="m 3280.8,6297.92 c 0,-27.35 -22.17,-49.52 -49.51,-49.52 -27.35,0 -49.52,22.17 -49.52,49.52 0,27.35 22.17,49.52 49.52,49.52 27.34,0 49.51,-22.17 49.51,-49.52"
         style="fill:#ffffff;fill-opacity:1;fill-rule:nonzero;stroke:none"
         id="path84401" />
      <path
         d="m 3682.35,6994.41 c 0,-27.35 -22.17,-49.52 -49.52,-49.52 -27.35,0 -49.52,22.17 -49.52,49.52 0,27.34 22.17,49.52 49.52,49.52 27.35,0 49.52,-22.18 49.52,-49.52"
         style="fill:#ffffff;fill-opacity:1;fill-rule:nonzero;stroke:none"
         id="path84403" />
      <path
         d="m 4819.68,6585.81 c 0,-27.35 -22.17,-49.52 -49.52,-49.52 -27.35,0 -49.51,22.17 -49.51,49.52 0,27.34 22.16,49.51 49.51,49.51 27.35,0 49.52,-22.17 49.52,-49.51"
         style="fill:#ffffff;fill-opacity:1;fill-rule:nonzero;stroke:none"
         id="path84405" />
      <path
         d="m 5010.13,6367.82 c 0,-20.33 -16.48,-36.81 -36.82,-36.81 -20.33,0 -36.82,16.48 -36.82,36.81 0,20.34 16.49,36.82 36.82,36.82 20.34,0 36.82,-16.48 36.82,-36.82"
         style="fill:#ffffff;fill-opacity:1;fill-rule:nonzero;stroke:none"
         id="path84407" />
      <path
         d="m 4605.94,6908.07 c 0,-20.33 -16.48,-36.81 -36.82,-36.81 -20.33,0 -36.82,16.48 -36.82,36.81 0,20.34 16.49,36.82 36.82,36.82 20.34,0 36.82,-16.48 36.82,-36.82"
         style="fill:#ffffff;fill-opacity:1;fill-rule:nonzero;stroke:none"
         id="path84409" />
      <path
         d="m 3472.74,6702.42 c 0,-20.33 -16.49,-36.82 -36.82,-36.82 -20.33,0 -36.82,16.49 -36.82,36.82 0,20.34 16.49,36.82 36.82,36.82 20.33,0 36.82,-16.48 36.82,-36.82"
         style="fill:#ffffff;fill-opacity:1;fill-rule:nonzero;stroke:none"
         id="path84411" />
      <path
         d="m 4850.15,6063.83 c 0,-28.75 -23.31,-52.05 -52.06,-52.05 -28.75,0 -52.05,23.3 -52.05,52.05 0,28.75 23.3,52.06 52.05,52.06 28.75,0 52.06,-23.31 52.06,-52.06"
         style="fill:#ffffff;fill-opacity:1;fill-rule:nonzero;stroke:none"
         id="path84413" />
      <path
         d="m 5105.97,5866.64 c 0,-24.18 -19.6,-43.78 -43.78,-43.78 -24.19,0 -43.79,19.6 -43.79,43.78 0,24.18 19.6,43.79 43.79,43.79 24.18,0 43.78,-19.61 43.78,-43.79"
         style="fill:#ffffff;fill-opacity:1;fill-rule:nonzero;stroke:none"
         id="path84415" />
      <path
         d="m 4789.82,5545.94 c 0,-24.18 -19.6,-43.79 -43.78,-43.79 -24.18,0 -43.79,19.61 -43.79,43.79 0,24.18 19.61,43.78 43.79,43.78 24.18,0 43.78,-19.6 43.78,-43.78"
         style="fill:#ffffff;fill-opacity:1;fill-rule:nonzero;stroke:none"
         id="path84417" />
      <path
         d="m 3004.65,5961.45 c 0,-23.67 -19.18,-42.85 -42.85,-42.85 -23.66,0 -42.85,19.18 -42.85,42.85 0,23.66 19.19,42.85 42.85,42.85 23.67,0 42.85,-19.19 42.85,-42.85"
         style="fill:#ffffff;fill-opacity:1;fill-rule:nonzero;stroke:none"
         id="path84419" />
      <path
         d="m 3278.89,5835.1 c 0,-15.24 -12.35,-27.6 -27.6,-27.6 -15.24,0 -27.6,12.36 -27.6,27.6 0,15.25 12.36,27.6 27.6,27.6 15.25,0 27.6,-12.35 27.6,-27.6"
         style="fill:#ffffff;fill-opacity:1;fill-rule:nonzero;stroke:none"
         id="path84421" />
      <path
         d="m 4587.51,6611.54 c 0,-15.25 -12.36,-27.61 -27.6,-27.61 -15.25,0 -27.61,12.36 -27.61,27.61 0,15.24 12.36,27.6 27.61,27.6 15.24,0 27.6,-12.36 27.6,-27.6"
         style="fill:#ffffff;fill-opacity:1;fill-rule:nonzero;stroke:none"
         id="path84423" />
      <path
         d="m 3775.03,6847.21 c 0,-15.24 -12.36,-27.6 -27.6,-27.6 -15.25,0 -27.61,12.36 -27.61,27.6 0,15.24 12.36,27.6 27.61,27.6 15.24,0 27.6,-12.36 27.6,-27.6"
         style="fill:#ffffff;fill-opacity:1;fill-rule:nonzero;stroke:none"
         id="path84425" />
      <path
         d="m 5000.91,5620.87 c 0,-15.25 -12.35,-27.61 -27.6,-27.61 -15.24,0 -27.6,12.36 -27.6,27.61 0,15.24 12.36,27.6 27.6,27.6 15.25,0 27.6,-12.36 27.6,-27.6"
         style="fill:#ffffff;fill-opacity:1;fill-rule:nonzero;stroke:none"
         id="path84427" />
      <path
         d="m 3146.53,5648.47 c 0,-15.25 -12.36,-27.6 -27.6,-27.6 -15.25,0 -27.61,12.35 -27.61,27.6 0,15.24 12.36,27.6 27.61,27.6 15.24,0 27.6,-12.36 27.6,-27.6"
         style="fill:#ffffff;fill-opacity:1;fill-rule:nonzero;stroke:none"
         id="path84429" />
      <path
         d="m 4113.98,7066.42 c 0,-15.24 -12.36,-27.6 -27.6,-27.6 -15.25,0 -27.6,12.36 -27.6,27.6 0,15.24 12.35,27.6 27.6,27.6 15.24,0 27.6,-12.36 27.6,-27.6"
         style="fill:#ffffff;fill-opacity:1;fill-rule:nonzero;stroke:none"
         id="path84431" />
      <path
         d="m 2647.79,5961.45 c 0,-678.8 -550.28,-1229.07 -1229.07,-1229.07 -678.798,0 -1229.072,550.27 -1229.072,1229.07 0,678.8 550.274,1229.07 1229.072,1229.07 678.79,0 1229.07,-550.27 1229.07,-1229.07"
         style="fill:#a8b99c;fill-opacity:1;fill-rule:nonzero;stroke:none"
         id="path84433" />
      <path
         d="m 1437,6611.54 c -446.93,0 -843.074,-1229.07 0,-1229.07 843.08,0 446.94,1229.07 0,1229.07"
         style="fill:#efd7a7;fill-opacity:1;fill-rule:nonzero;stroke:none"
         id="path84435" />
      <path
         d="m 1838.43,5550.29 c 184.74,243.67 71.28,691.07 -135.79,919.25 -240.43,-0.83 -493.89,-42.54 -608.82,-102.25 -32.7,-51.19 -61.34,-107.8 -84.66,-167.33 7.98,-31.72 28.01,-46.79 28.01,-46.79 119.41,64.6 455.67,123.64 677.99,19.65 51.25,-23.98 78.98,-80.62 65.82,-135.64 -30.1,-125.94 -133.9,-344.15 -491.77,-360.79 -294.597,-13.7 184.13,-136.83 549.22,-126.1"
         style="fill:#dfc391;fill-opacity:1;fill-rule:nonzero;stroke:none"
         id="path84437" />
      <path
         d="m 1437,5946.21 c -255.17,0 -363.19,-315.88 -551.047,-28.18 0,0 62.621,-269.2 237.957,-269.26 175.11,-0.05 247.32,80.33 313.09,81.15 65.78,-0.82 137.99,-81.2 313.1,-81.15 175.33,0.06 237.95,269.26 237.95,269.26 -187.85,-287.7 -295.87,28.18 -551.05,28.18"
         style="fill:#dfc391;fill-opacity:1;fill-rule:nonzero;stroke:none"
         id="path84439" />
      <path
         d="m 1340.47,6060.96 c -11.84,0 -21.44,9.6 -21.44,21.45 0,35.47 -28.86,64.33 -64.33,64.33 -35.48,0 -64.33,-28.86 -64.33,-64.33 0,-11.85 -9.61,-21.45 -21.45,-21.45 -11.85,0 -21.45,9.6 -21.45,21.45 0,59.12 48.1,107.23 107.23,107.23 59.12,0 107.22,-48.11 107.22,-107.23 0,-11.85 -9.6,-21.45 -21.45,-21.45"
         style="fill:#381f19;fill-opacity:1;fill-rule:nonzero;stroke:none"
         id="path84441" />
      <path
         d="m 1705.09,6060.96 c -11.84,0 -21.45,9.6 -21.45,21.45 0,35.47 -28.86,64.33 -64.33,64.33 -35.47,0 -64.33,-28.86 -64.33,-64.33 0,-11.85 -9.6,-21.45 -21.45,-21.45 -11.84,0 -21.45,9.6 -21.45,21.45 0,59.12 48.11,107.23 107.23,107.23 59.13,0 107.23,-48.11 107.23,-107.23 0,-11.85 -9.6,-21.45 -21.45,-21.45"
         style="fill:#381f19;fill-opacity:1;fill-rule:nonzero;stroke:none"
         id="path84443" />
      <path
         d="m 2079.67,5623.06 c 0,37.94 -9.94,73.51 -27.23,104.43 31,33.76 10.58,149.49 -9.69,194.6 -39.36,87.61 -92.69,160.32 -138.86,156.42 -20.18,-1.7 -29.75,-82.51 -55.4,-172.93 -26.67,-93.95 -260.9,-229.19 -411.49,-229.19 -143.98,0 -384.81,135.24 -411.48,229.19 -25.657,90.42 -35.219,171.23 -55.399,172.93 -46.176,3.9 -99.504,-68.81 -138.863,-156.42 -20.266,-45.11 -40.695,-160.84 -9.695,-194.6 -17.282,-30.92 -27.223,-66.49 -27.223,-104.43 0,-93.26 59.64,-172.38 142.773,-201.9 -0.246,-4.75 -0.718,-9.45 -0.718,-14.27 0,-150.5 122.005,-272.51 272.515,-272.51 1.82,0 3.57,0.23 5.38,0.27 47.66,-73.7 130.69,-121.06 222.71,-120.28 v 0 0 0 0 c 92.03,-0.78 175.06,46.58 222.72,120.28 1.8,-0.04 3.56,-0.27 5.38,-0.27 150.5,0 272.51,122.01 272.51,272.51 0,4.82 -0.47,9.52 -0.72,14.27 83.14,29.52 142.78,108.64 142.78,201.9"
         style="fill:#ffffff;fill-opacity:1;fill-rule:nonzero;stroke:none"
         id="path84445" />
      <path
         d="m 759.742,6405.84 c 0,0 183.449,472.97 678.118,439.69 v -282.88 c 0,0 -282.61,112.37 -678.118,-156.81"
         style="fill:#ed3a28;fill-opacity:1;fill-rule:nonzero;stroke:none"
         id="path84447" />
      <path
         d="m 986.602,6527.11 c 272.288,106.46 451.258,35.54 451.258,35.54 v 282.23 c -220.85,-3.56 -367.33,-174.84 -451.258,-317.77"
         style="fill:#d53723;fill-opacity:1;fill-rule:nonzero;stroke:none"
         id="path84449" />
      <path
         d="m 1445.97,6385.53 -446.025,-49.24 c 0,0 114.095,525.2 444.805,508.87 359.96,-17.78 447.26,-536.64 447.26,-536.64 l -446.04,77.01"
         style="fill:#ed3a28;fill-opacity:1;fill-rule:nonzero;stroke:none"
         id="path84451" />
      <path
         d="m 1892.01,6308.52 c 0,0 -69.44,411.33 -338.93,513.89 4.58,-4.71 93.06,-92.55 129.13,-212.19 10.82,-35.91 -19.78,-70.96 -56.94,-65.92 -111.49,15.12 -335.84,18.85 -546.45,-138.46 0,0 34.14,-20.15 89.45,-50.97 l 277.7,30.66 446.04,-77.01"
         style="fill:#d53723;fill-opacity:1;fill-rule:nonzero;stroke:none"
         id="path84453" />
      <path
         d="m 1868.08,6346.27 c 0,0 -133.18,156.35 -431.08,156.35 -297.89,0 -431.07,-156.35 -431.07,-156.35 -69.492,-95.86 -72.262,-232.26 -35.809,-267.76 146.269,215.65 466.879,205.35 466.879,205.35 0,0 320.61,10.3 466.89,-205.35 36.45,35.5 33.68,171.9 -35.81,267.76"
         style="fill:#ffffff;fill-opacity:1;fill-rule:nonzero;stroke:none"
         id="path84455" />
      <path
         d="M 970.121,6078.51 C 1116.39,6294.16 1437,6283.86 1437,6283.86 c 0,0 320.61,10.3 466.89,-205.35 36.45,35.5 33.68,171.9 -35.81,267.76 0,0 -27.79,32.52 -86.16,67.89 l 1.22,-8.32 c 0,0 41.9,-98.15 -6.36,-97.32 -48.07,0.82 -421.67,219.96 -829.675,-152.31 0.864,-35.43 9.004,-64.05 23.016,-77.7"
         style="fill:#d9f1db;fill-opacity:1;fill-rule:nonzero;stroke:none"
         id="path84457" />
      <path
         d="m 1541.73,6261.37 c -25.89,-0.89 -44.02,24.57 -31.71,47.36 6.32,11.68 15.39,28.69 35.58,35.49 54.98,18.53 189.6,-30.92 235.63,-130.7 7.5,-16.27 -8.5,-32.28 -22.6,-21.22 -49.21,38.61 -120.07,72.38 -216.9,69.07"
         style="fill:#ffffff;fill-opacity:1;fill-rule:nonzero;stroke:none"
         id="path84459" />
      <path
         d="m 1332.28,6261.37 c 25.88,-0.89 44.02,24.57 31.7,47.36 -6.31,11.68 -15.39,28.69 -35.57,35.49 -54.98,18.53 -189.6,-30.92 -235.63,-130.7 -7.5,-16.27 8.5,-32.28 22.6,-21.22 49.21,38.61 120.07,72.38 216.9,69.07"
         style="fill:#ffffff;fill-opacity:1;fill-rule:nonzero;stroke:none"
         id="path84461" />
      <path
         d="m 1777.12,6221.24 c -4.83,-4.02 -11.83,-4.96 -18.49,0.26 -49.21,38.61 -120.07,72.39 -216.9,69.07 -14.33,-0.49 -26.05,7.21 -31.78,17.95 -12.1,-22.73 5.97,-48.03 31.78,-47.15 96.83,3.31 167.69,-30.46 216.9,-69.07 14.1,-11.06 30.1,4.95 22.6,21.22 -1.23,2.66 -2.76,5.13 -4.11,7.72"
         style="fill:#d9f1db;fill-opacity:1;fill-rule:nonzero;stroke:none"
         id="path84463" />
      <path
         d="m 1332.28,6290.57 c -96.83,3.32 -167.69,-30.46 -216.9,-69.07 -6.66,-5.22 -13.66,-4.28 -18.5,-0.26 -1.34,-2.59 -2.87,-5.06 -4.1,-7.72 -7.5,-16.27 8.5,-32.28 22.6,-21.22 49.21,38.61 120.07,72.38 216.9,69.07 25.81,-0.88 43.88,24.42 31.78,47.15 -5.73,-10.74 -17.45,-18.44 -31.78,-17.95"
         style="fill:#d9f1db;fill-opacity:1;fill-rule:nonzero;stroke:none"
         id="path84465" />
      <path
         d="m 1936.12,5716.08 c 44.12,-58.09 3.81,-202.83 -121.2,-234.27 4.3,-57.4 -34.02,-202.82 -195.61,-198.38 -23.15,-73.01 -201.23,-206.33 -389.91,-58.4 0,0 -240.615,-24.19 -292.287,196.13 -0.246,-4.75 -0.718,-9.45 -0.718,-14.27 0,-150.5 122.005,-272.51 272.515,-272.51 1.82,0 3.57,0.23 5.38,0.27 47.66,-73.7 130.69,-121.06 222.71,-120.28 v 0 c 92.03,-0.78 175.06,46.58 222.72,120.28 1.8,-0.04 3.56,-0.27 5.38,-0.27 150.5,0 272.51,122.01 272.51,272.51 0,4.82 -0.47,9.52 -0.72,14.27 83.14,29.52 142.78,108.64 142.78,201.9 0,37.94 -9.94,73.51 -27.23,104.43 31,33.76 10.58,149.49 -9.69,194.6 -39.36,87.61 -92.69,160.32 -138.86,156.42 0,0 136.34,-215.14 32.23,-362.43"
         style="fill:#d9f1db;fill-opacity:1;fill-rule:nonzero;stroke:none"
         id="path84467" />
      <path
         d="m 1437,5973.83 c -255.17,0 -363.19,-315.89 -551.047,-28.18 0,0 62.621,-269.21 237.957,-269.26 175.11,-0.06 247.32,80.33 313.09,81.15 65.78,-0.82 137.99,-81.21 313.1,-81.15 175.33,0.05 237.95,269.26 237.95,269.26 -187.85,-287.71 -295.87,28.18 -551.05,28.18"
         style="fill:#ffffff;fill-opacity:1;fill-rule:nonzero;stroke:none"
         id="path84469" />
      <path
         d="m 1351.78,5961.92 c -1.14,-3.44 -1.75,-6.99 -1.75,-10.63 0,-29.33 38.94,-53.11 86.97,-53.11 48.04,0 86.98,23.78 86.98,53.11 0,3.64 -0.61,7.19 -1.75,10.63 -26.59,7.4 -54.85,11.91 -85.23,11.91 -30.37,0 -58.64,-4.51 -85.22,-11.91"
         style="fill:#d9f1db;fill-opacity:1;fill-rule:nonzero;stroke:none"
         id="path84471" />
      <path
         d="m 1750.1,5723.37 c -175.11,-0.06 -247.32,80.33 -313.1,81.15 -65.77,-0.82 -137.98,-81.21 -313.09,-81.15 -93.37,0.03 -154.738,76.36 -191.73,147.73 -11.282,21.76 -24.379,42.45 -38.258,62.65 -2.641,3.84 -5.293,7.81 -7.969,11.9 0,0 62.621,-269.21 237.957,-269.26 175.11,-0.06 247.32,80.33 313.09,81.15 65.78,-0.82 137.99,-81.21 313.1,-81.15 175.33,0.05 237.95,269.26 237.95,269.26 -2.67,-4.09 -5.32,-8.06 -7.96,-11.9 -13.88,-20.2 -26.98,-40.89 -38.26,-62.65 -37,-71.37 -98.36,-147.7 -191.73,-147.73"
         style="fill:#d9f1db;fill-opacity:1;fill-rule:nonzero;stroke:none"
         id="path84473" />
      <path
         d="m 1523.98,5977.96 c 0,-29.34 -38.94,-53.12 -86.98,-53.12 -48.03,0 -86.97,23.78 -86.97,53.12 0,29.33 38.94,53.11 86.97,53.11 48.04,0 86.98,-23.78 86.98,-53.11"
         style="fill:#ed3a28;fill-opacity:1;fill-rule:nonzero;stroke:none"
         id="path84475" />
      <path
         d="m 1489.89,6020.05 c 1.11,-3.38 1.71,-6.88 1.71,-10.46 0,-29.34 -38.94,-53.12 -86.97,-53.12 -19.93,0 -38.23,4.14 -52.89,11.02 7.96,-24.32 43.1,-42.65 85.26,-42.65 48.04,0 86.98,23.78 86.98,53.12 0,17.16 -13.4,32.38 -34.09,42.09"
         style="fill:#d53723;fill-opacity:1;fill-rule:nonzero;stroke:none"
         id="path84477" />
      <path
         d="m 912.895,6494.85 c -13.813,28.13 -36.278,51.18 -64.04,65.62 -61.742,-84.39 -89.113,-154.63 -89.113,-154.63 53.266,36.26 104.399,65.39 153.153,89.01"
         style="fill:#d53723;fill-opacity:1;fill-rule:nonzero;stroke:none"
         id="path84479" />
      <path
         d="m 906.395,6405.84 c 0,-80.99 -65.661,-146.65 -146.653,-146.65 -80.992,0 -146.648,65.66 -146.648,146.65 0,81 65.656,146.65 146.648,146.65 80.992,0 146.653,-65.65 146.653,-146.65"
         style="fill:#ffffff;fill-opacity:1;fill-rule:nonzero;stroke:none"
         id="path84481" />
      <path
         d="m 788.895,6549.58 c 26.484,-22.9 43.312,-56.66 43.312,-94.41 0,-68.94 -55.891,-124.84 -124.84,-124.84 -34.926,0 -66.461,14.38 -89.121,37.5 16.77,-62.53 73.676,-108.64 141.496,-108.64 80.992,0 146.653,65.66 146.653,146.65 0,71.01 -50.473,130.22 -117.5,143.74"
         style="fill:#d9f1db;fill-opacity:1;fill-rule:nonzero;stroke:none"
         id="path84483" />
      <path
         d="m 2180.39,6572.42 152.03,18.61 -152.03,18.62 57.36,73.36 -73.36,-57.36 -18.62,152.03 -18.61,-152.03 -73.37,57.36 57.36,-73.36 -152.02,-18.62 152.02,-18.61 -57.36,-73.37 73.37,57.36 18.61,-152.02 18.62,152.02 73.36,-57.36 -57.36,73.37"
         style="fill:#ffffff;fill-opacity:1;fill-rule:nonzero;stroke:none"
         id="path84485" />
      <path
         d="m 466.227,6001.44 152.019,18.61 -152.019,18.62 57.359,73.37 -73.367,-57.36 -18.617,152.02 -18.614,-152.02 -73.367,57.36 57.359,-73.37 -152.023,-18.62 152.023,-18.61 -57.359,-73.37 73.367,57.36 18.614,-152.02 18.617,152.02 73.367,-57.36 -57.359,73.37"
         style="fill:#ffffff;fill-opacity:1;fill-rule:nonzero;stroke:none"
         id="path84487" />
      <path
         d="m 649.066,5509.67 73.426,9 -73.426,8.99 27.704,35.43 -35.434,-27.7 -8.992,73.42 -8.992,-73.42 -35.434,27.7 27.703,-35.43 -73.426,-8.99 73.426,-9 -27.703,-35.43 35.434,27.7 8.992,-73.42 8.992,73.42 35.434,-27.7 -27.704,35.43"
         style="fill:#ffffff;fill-opacity:1;fill-rule:nonzero;stroke:none"
         id="path84489" />
      <path
         d="m 2024.34,5080.02 86.87,10.63 -86.87,10.64 32.78,41.92 -41.92,-32.77 -10.64,86.87 -10.64,-86.87 -41.92,32.77 32.77,-41.92 -86.87,-10.64 86.87,-10.63 -32.77,-41.93 41.92,32.78 10.64,-86.87 10.64,86.87 41.92,-32.78 -32.78,41.93"
         style="fill:#ffffff;fill-opacity:1;fill-rule:nonzero;stroke:none"
         id="path84491" />
      <path
         d="m 2352.44,6127.65 87.9,10.76 -87.9,10.77 33.16,42.42 -42.42,-33.17 -10.76,87.91 -10.77,-87.91 -42.42,33.17 33.17,-42.42 -87.91,-10.77 87.91,-10.76 -33.17,-42.43 42.42,33.17 10.77,-87.9 10.76,87.9 42.42,-33.17 -33.16,42.43"
         style="fill:#ffffff;fill-opacity:1;fill-rule:nonzero;stroke:none"
         id="path84493" />
      <path
         d="m 7810.35,5961.45 c 0,-678.8 -550.28,-1229.07 -1229.07,-1229.07 -678.8,0 -1229.07,550.27 -1229.07,1229.07 0,678.8 550.27,1229.07 1229.07,1229.07 678.79,0 1229.07,-550.27 1229.07,-1229.07"
         style="fill:#a8b99c;fill-opacity:1;fill-rule:nonzero;stroke:none"
         id="path84495" />
      <path
         d="m 6798.42,6932.88 115.57,14.15 -115.57,14.15 43.61,55.77 -55.78,-43.6 -14.15,115.57 -14.15,-115.57 -55.77,43.6 43.6,-55.77 -115.57,-14.15 115.57,-14.15 -43.6,-55.78 55.77,43.61 14.15,-115.57 14.15,115.57 55.78,-43.61 -43.61,55.78"
         style="fill:#ffffff;fill-opacity:1;fill-rule:nonzero;stroke:none"
         id="path84497" />
      <path
         d="m 5765.92,5549.04 171.67,21.02 -171.67,21.02 64.77,82.85 -82.85,-64.77 -21.02,171.67 -21.02,-171.67 -82.85,64.77 64.77,-82.85 -171.67,-21.02 171.67,-21.02 -64.77,-82.85 82.85,64.77 21.02,-171.67 21.02,171.67 82.85,-64.77 -64.77,82.85"
         style="fill:#ffffff;fill-opacity:1;fill-rule:nonzero;stroke:none"
         id="path84499" />
      <path
         d="m 5814.19,6040.91 101.23,12.39 -101.23,12.4 38.19,48.86 -48.85,-38.2 -12.4,101.23 -12.39,-101.23 -48.86,38.2 38.2,-48.86 -101.23,-12.4 101.23,-12.39 -38.2,-48.86 48.86,38.2 12.39,-101.23 12.4,101.23 48.85,-38.2 -38.19,48.86"
         style="fill:#ffffff;fill-opacity:1;fill-rule:nonzero;stroke:none"
         id="path84501" />
      <path
         d="m 7380.3,5406.85 138.06,16.91 -138.06,16.9 52.09,66.63 -66.63,-52.09 -16.9,138.06 -16.91,-138.06 -66.63,52.09 52.09,-66.63 -138.06,-16.9 138.06,-16.91 -52.09,-66.63 66.63,52.1 16.91,-138.07 16.9,138.07 66.63,-52.1 -52.09,66.63"
         style="fill:#ffffff;fill-opacity:1;fill-rule:nonzero;stroke:none"
         id="path84503" />
      <path
         d="m 7515,5822.64 87.9,10.77 -87.9,10.76 33.16,42.43 -42.42,-33.17 -10.76,87.9 -10.77,-87.9 -42.42,33.17 33.17,-42.43 -87.91,-10.76 87.91,-10.77 -33.17,-42.42 42.42,33.17 10.77,-87.91 10.76,87.91 42.42,-33.17 -33.16,42.42"
         style="fill:#ffffff;fill-opacity:1;fill-rule:nonzero;stroke:none"
         id="path84505" />
      <path
         d="m 6774.04,4920.3 87.91,10.77 -87.91,10.76 33.17,42.42 -42.42,-33.16 -10.77,87.9 -10.76,-87.9 -42.43,33.16 33.17,-42.42 -87.9,-10.76 87.9,-10.77 -33.17,-42.42 42.43,33.17 10.76,-87.91 10.77,87.91 42.42,-33.17 -33.17,42.42"
         style="fill:#ffffff;fill-opacity:1;fill-rule:nonzero;stroke:none"
         id="path84507" />
      <path
         d="m 6493.57,6018.12 c -22.49,30.37 -44.01,66.12 -46.02,76.36 -22.87,154.87 -137.59,212.51 -251.21,265.75 44.37,26.32 98.61,74.89 126.87,161.74 2.88,-0.23 5.92,-0.42 9.26,-0.42 17.33,0 40.17,3.98 61.79,20.03 35.58,26.42 53.68,75.22 53.84,145.06 0.05,18.48 -14.9,33.49 -33.37,33.53 -0.04,0 -0.07,0 -0.08,0 -18.45,0 -33.41,-14.93 -33.46,-33.38 -0.1,-45.75 -9.46,-78.11 -26.34,-91.13 -5.44,-4.18 -11.37,-6.03 -16.63,-6.77 6.6,49.11 5.8,107.21 -6.19,176.15 -3.19,18.2 -20.34,30.5 -38.71,27.23 -18.2,-3.16 -30.4,-20.5 -27.23,-38.7 50.77,-291.75 -119.85,-348.47 -147.97,-355.76 -46.84,23.96 -92.06,51.59 -131.31,89.37 36.2,26.53 101.53,93.62 81.71,223.35 -2.8,18.26 -20.03,30.74 -38.13,28.02 -18.27,-2.79 -30.82,-19.86 -28.04,-38.13 15.72,-102.8 -39.32,-149.11 -59.43,-162.37 -23.6,33 -43.48,72.14 -57.84,120.19 -5.29,17.7 -23.95,27.76 -41.63,22.48 -17.71,-5.3 -27.77,-23.94 -22.48,-41.65 37.51,-125.54 106.62,-199.87 184.09,-252.56 -20.73,-9.08 -48.04,-16.49 -79.07,-13.31 -57.25,5.96 -112.53,45.65 -164.34,117.98 -10.75,15.01 -31.65,18.48 -46.68,7.72 -15.03,-10.75 -18.49,-31.66 -7.72,-46.68 63.43,-88.58 134.7,-137.56 211.81,-145.58 7.52,-0.77 14.84,-1.14 21.99,-1.14 59.07,0 105.49,24.61 130.26,41.34 29.08,-15.5 58.39,-29.32 86.89,-42.64 114.47,-53.51 204.88,-95.78 223.15,-219.49 4.57,-30.98 42.4,-84.74 58.44,-106.42 6.57,-8.86 16.68,-13.54 26.92,-13.54 6.91,0 13.89,2.14 19.89,6.57 14.85,10.99 17.97,31.95 6.97,46.8"
         style="fill:#5b3a23;fill-opacity:1;fill-rule:nonzero;stroke:none"
         id="path84509" />
      <path
         d="m 6674.86,6018.12 c 22.5,30.37 44.01,66.12 46.02,76.36 22.87,154.87 137.59,212.51 251.22,265.75 -44.38,26.32 -98.62,74.89 -126.88,161.74 -2.88,-0.23 -5.92,-0.42 -9.26,-0.42 -17.33,0 -40.17,3.98 -61.78,20.03 -35.59,26.42 -53.69,75.22 -53.85,145.06 -0.05,18.48 14.9,33.49 33.37,33.53 0.04,0 0.07,0 0.09,0 18.44,0 33.41,-14.93 33.46,-33.38 0.09,-45.75 9.46,-78.11 26.33,-91.13 5.44,-4.18 11.37,-6.03 16.63,-6.77 -6.59,49.11 -5.8,107.21 6.2,176.15 3.18,18.2 20.34,30.5 38.7,27.23 18.2,-3.16 30.4,-20.5 27.23,-38.7 -50.77,-291.75 119.85,-348.47 147.97,-355.76 46.84,23.96 92.06,51.59 131.31,89.37 -36.19,26.53 -101.52,93.62 -81.71,223.35 2.8,18.26 20.03,30.74 38.14,28.02 18.26,-2.79 30.81,-19.86 28.03,-38.13 -15.72,-102.8 39.33,-149.11 59.43,-162.37 23.6,33 43.49,72.14 57.84,120.19 5.3,17.7 23.95,27.76 41.63,22.48 17.71,-5.3 27.77,-23.94 22.48,-41.65 -37.51,-125.54 -106.62,-199.87 -184.08,-252.56 20.72,-9.08 48.03,-16.49 79.06,-13.31 57.25,5.96 112.54,45.65 164.34,117.98 10.75,15.01 31.65,18.48 46.68,7.72 15.03,-10.75 18.49,-31.66 7.73,-46.68 -63.44,-88.58 -134.71,-137.56 -211.82,-145.58 -7.52,-0.77 -14.83,-1.14 -21.99,-1.14 -59.07,0 -105.49,24.61 -130.26,41.34 -29.08,-15.5 -58.39,-29.32 -86.88,-42.64 -114.48,-53.51 -204.89,-95.78 -223.16,-219.49 -4.57,-30.98 -42.39,-84.74 -58.44,-106.42 -6.56,-8.86 -16.68,-13.54 -26.92,-13.54 -6.91,0 -13.89,2.14 -19.88,6.57 -14.86,10.99 -17.98,31.95 -6.98,46.8"
         style="fill:#5b3a23;fill-opacity:1;fill-rule:nonzero;stroke:none"
         id="path84511" />
      <path
         d="m 6483.46,6032.26 c 4.74,-13.48 0.58,-28.99 -11.5,-37.94 -6,-4.43 -12.97,-6.57 -19.88,-6.57 -10.25,0 -20.36,4.68 -26.93,13.55 -4.93,6.66 -11.98,16.53 -19.43,27.67 12.18,-20.38 25.92,-39.67 34.07,-50.68 6.57,-8.86 16.68,-13.54 26.92,-13.54 6.91,0 13.89,2.14 19.89,6.57 14.85,10.99 17.97,31.95 6.97,46.8 -3.42,4.63 -6.79,9.37 -10.11,14.14"
         style="fill:#4b2e1e;fill-opacity:1;fill-rule:nonzero;stroke:none"
         id="path84513" />
      <path
         d="m 6143.56,6327.2 c -28.49,13.33 -57.81,27.15 -86.89,42.64 -24.77,-16.73 -71.19,-41.34 -130.26,-41.34 -7.15,0 -14.47,0.37 -21.99,1.15 -73.05,7.59 -140.85,52.01 -201.72,131.98 1.03,-3.27 2.44,-6.47 4.55,-9.41 63.43,-88.58 134.7,-137.56 211.81,-145.58 7.52,-0.77 14.84,-1.14 21.99,-1.14 59.07,0 105.49,24.61 130.26,41.34 29.08,-15.5 58.39,-29.32 86.89,-42.64 77.44,-36.2 143.78,-67.34 184.31,-121.95 -37.85,69.44 -111.27,103.97 -198.95,144.95"
         style="fill:#4b2e1e;fill-opacity:1;fill-rule:nonzero;stroke:none"
         id="path84515" />
      <path
         d="m 5972.17,6510.19 c 6.7,-6.45 13.62,-12.5 20.65,-18.39 36.9,29.24 94.47,95.86 75.7,218.73 -1.48,9.66 -7.05,17.6 -14.6,22.63 19.63,-129.48 -45.59,-196.47 -81.75,-222.97"
         style="fill:#4b2e1e;fill-opacity:1;fill-rule:nonzero;stroke:none"
         id="path84517" />
      <path
         d="m 6462.57,6064.38 c -8.26,13.76 -14.03,25.05 -15.02,30.1 -7.33,49.67 -24.2,89.25 -47.36,121.98 15.64,-27.93 27.03,-60.44 32.72,-98.98 1.51,-7.68 14.01,-29.74 29.66,-53.1"
         style="fill:#4b2e1e;fill-opacity:1;fill-rule:nonzero;stroke:none"
         id="path84519" />
      <path
         d="m 5885.08,6658.24 c -2.23,7.44 -6.9,13.42 -12.79,17.59 13.27,-42.49 30.94,-77.88 51.69,-108.2 -15.34,26.34 -28.59,56.1 -38.9,90.61"
         style="fill:#4b2e1e;fill-opacity:1;fill-rule:nonzero;stroke:none"
         id="path84521" />
      <path
         d="m 6379.62,6564.58 c -21.62,-16.05 -44.46,-20.03 -61.79,-20.03 -3.34,0 -6.38,0.19 -9.26,0.43 -28.26,-86.85 -82.5,-135.42 -126.87,-161.75 9.68,-4.53 19.34,-9.13 28.97,-13.79 41.21,27.9 87.26,74.82 112.54,152.53 2.88,-0.23 5.92,-0.42 9.26,-0.42 17.33,0 40.17,3.98 61.79,20.03 35.58,26.42 53.68,75.22 53.85,145.06 0.03,11.73 -6.01,22.03 -15.14,28.02 0.25,-1.65 0.5,-3.3 0.5,-5.02 -0.17,-69.83 -18.27,-118.63 -53.85,-145.06"
         style="fill:#4b2e1e;fill-opacity:1;fill-rule:nonzero;stroke:none"
         id="path84523" />
      <path
         d="m 7151.44,6723.42 c -10.05,-65.75 8.85,-108.31 29.04,-133.97 -13.24,25.87 -21.9,61.93 -14.4,110.97 2.03,13.36 -4.18,26.01 -14.78,32.97 0.49,-3.23 0.66,-6.56 0.14,-9.97"
         style="fill:#4b2e1e;fill-opacity:1;fill-rule:nonzero;stroke:none"
         id="path84525" />
      <path
         d="m 7332.82,6662.08 c -37.51,-125.54 -106.62,-199.87 -184.08,-252.56 9.44,-4.15 20.32,-7.88 32.23,-10.48 70.24,51.88 131.85,124.09 166.49,240.03 4.32,14.46 -1.7,29.42 -13.66,37.35 0.68,-4.67 0.46,-9.53 -0.98,-14.34"
         style="fill:#4b2e1e;fill-opacity:1;fill-rule:nonzero;stroke:none"
         id="path84527" />
      <path
         d="m 6887.71,6776.58 c -24.58,-141.23 2.75,-227.28 40.65,-279.41 -29.67,53.37 -47.28,134.22 -26.02,256.4 2.37,13.57 -3.83,26.64 -14.66,33.73 0.53,-3.48 0.66,-7.06 0.03,-10.72"
         style="fill:#4b2e1e;fill-opacity:1;fill-rule:nonzero;stroke:none"
         id="path84529" />
      <path
         d="m 6797.05,6620.5 c -6.31,16.51 -9.75,38.94 -9.8,66.29 -0.04,11.68 -6.06,21.92 -15.15,27.88 0.24,-1.6 0.5,-3.21 0.51,-4.88 0.09,-43.93 8.8,-75.32 24.44,-89.29"
         style="fill:#4b2e1e;fill-opacity:1;fill-rule:nonzero;stroke:none"
         id="path84531" />
      <path
         d="m 7453.46,6498.9 c -0.34,0.25 -0.71,0.38 -1.06,0.61 1.21,-8.26 -0.61,-16.97 -5.85,-24.29 -63.44,-88.58 -134.71,-137.56 -211.82,-145.57 -7.51,-0.78 -14.83,-1.15 -21.99,-1.15 -59.07,0 -105.49,24.61 -130.26,41.34 -29.07,-15.49 -58.39,-29.31 -86.88,-42.64 -114.48,-53.51 -204.89,-95.77 -223.16,-219.49 -4.57,-30.98 -42.39,-84.73 -58.44,-106.41 -6.56,-8.87 -16.68,-13.55 -26.92,-13.55 -6.39,0 -12.77,2.05 -18.44,5.83 1.2,-8.59 5.68,-16.7 13.2,-22.26 5.99,-4.43 12.97,-6.57 19.88,-6.57 10.24,0 20.36,4.68 26.92,13.54 16.05,21.68 53.87,75.44 58.44,106.42 18.27,123.71 108.68,165.98 223.16,219.49 28.49,13.32 57.8,27.14 86.88,42.64 24.77,-16.73 71.19,-41.34 130.26,-41.34 7.16,0 14.47,0.37 21.99,1.14 77.11,8.02 148.38,57 211.82,145.58 10.76,15.02 7.3,35.93 -7.73,46.68"
         style="fill:#4b2e1e;fill-opacity:1;fill-rule:nonzero;stroke:none"
         id="path84533" />
      <path
         d="m 6387.48,6083.69 c 0,0 -139.12,139.12 -398.51,100.53 -29.27,-4.36 -45.58,-35.96 -32.22,-62.36 46.19,-91.25 176.32,-225.75 382.46,-203.86 l 48.27,165.69"
         style="fill:#b48d51;fill-opacity:1;fill-rule:nonzero;stroke:none"
         id="path84535" />
      <path
         d="m 6387.48,5990.63 -45.52,47.06 c 0,0 -84.59,86.45 -291.45,95.45 -16.66,0.72 -26.09,-17.77 -16.94,-31.72 65.81,-100.33 202.79,-69.57 332.44,-113.92 l 21.47,3.13"
         style="fill:#946a3b;fill-opacity:1;fill-rule:nonzero;stroke:none"
         id="path84537" />
      <path
         d="m 6780.96,6083.69 c 0,0 139.11,139.12 398.5,100.53 29.27,-4.36 45.58,-35.96 32.22,-62.36 -46.19,-91.25 -176.32,-225.75 -382.46,-203.86 l -48.26,165.69"
         style="fill:#b48d51;fill-opacity:1;fill-rule:nonzero;stroke:none"
         id="path84539" />
      <path
         d="m 6780.96,5990.63 45.51,47.06 c 0,0 84.59,86.45 291.45,95.45 16.66,0.72 26.09,-17.77 16.94,-31.72 -65.81,-100.33 -202.79,-69.57 -332.44,-113.92 l -21.46,3.13"
         style="fill:#946a3b;fill-opacity:1;fill-rule:nonzero;stroke:none"
         id="path84541" />
      <path
         d="m 6339.21,5918 20.78,71.35 c -35.41,11.47 -71.22,17.71 -105.95,22.67 -8.3,-28.45 -16.67,-58.66 -25.56,-90.55 34.06,-5.99 70.94,-7.7 110.73,-3.47"
         style="fill:#a27a47;fill-opacity:1;fill-rule:nonzero;stroke:none"
         id="path84543" />
      <path
         d="m 6341.96,6037.69 24.68,-25.52 20.84,71.52 c 0,0 -30.06,30.01 -88.2,58.29 -8.43,-18.93 -16.21,-39.22 -23.63,-60.89 45.64,-22.38 66.31,-43.4 66.31,-43.4"
         style="fill:#a27a47;fill-opacity:1;fill-rule:nonzero;stroke:none"
         id="path84545" />
      <path
         d="m 6366.01,5987.5 21.47,3.13 -20.84,21.54 -6.65,-22.82 c 2.01,-0.65 4.02,-1.17 6.02,-1.85"
         style="fill:#b48d51;fill-opacity:1;fill-rule:nonzero;stroke:none"
         id="path84547" />
      <path
         d="m 6275.65,6081.09 c -7.42,-21.68 -14.52,-44.77 -21.61,-69.07 34.73,-4.96 70.54,-11.2 105.95,-22.67 l 6.65,22.82 -24.68,25.52 c 0,0 -20.67,21.02 -66.31,43.4"
         style="fill:#896136;fill-opacity:1;fill-rule:nonzero;stroke:none"
         id="path84549" />
      <path
         d="m 6808.44,5989.35 20.78,-71.35 c 38.87,-4.13 75.01,-2.67 108.42,2.98 -8.91,31.94 -17.29,62.2 -25.6,90.69 -34,-4.9 -68.99,-11.11 -103.6,-22.32"
         style="fill:#a27a47;fill-opacity:1;fill-rule:nonzero;stroke:none"
         id="path84551" />
      <path
         d="m 6801.79,6012.17 24.68,25.52 c 0,0 20.12,20.36 64.23,42.33 -7.39,21.7 -15.16,41.99 -23.57,60.95 -56.79,-27.98 -86.17,-57.28 -86.17,-57.28 l 20.83,-71.52"
         style="fill:#a27a47;fill-opacity:1;fill-rule:nonzero;stroke:none"
         id="path84553" />
      <path
         d="m 6780.96,5990.63 21.46,-3.13 c 2,0.68 4.01,1.2 6.02,1.85 l -6.65,22.82 -20.83,-21.54"
         style="fill:#b48d51;fill-opacity:1;fill-rule:nonzero;stroke:none"
         id="path84555" />
      <path
         d="m 6801.79,6012.17 6.65,-22.82 c 34.61,11.21 69.6,17.42 103.6,22.32 -7.01,24.03 -14.02,46.89 -21.34,68.35 -44.11,-21.97 -64.23,-42.33 -64.23,-42.33 l -24.68,-25.52"
         style="fill:#896136;fill-opacity:1;fill-rule:nonzero;stroke:none"
         id="path84557" />
      <path
         d="m 6981.37,5631.3 c -148.87,370.17 -96.92,603.83 -398.23,613.42 -301.32,-9.59 -249.36,-243.25 -398.24,-613.42 -106.52,-264.85 95.99,-501.2 398.24,-501.2 326.85,0 504.75,236.35 398.23,501.2"
         style="fill:#b48d51;fill-opacity:1;fill-rule:nonzero;stroke:none"
         id="path84559" />
      <path
         d="m 6601.64,5462.35 c -96.24,0 -174.26,-45.76 -174.26,-102.21 0,-24.9 2.68,-39.92 27.93,-57.63 7.19,-5.05 29.34,-10.49 34.74,-3.56 8.31,10.65 22.08,16.79 37.19,14.04 12.19,-2.21 22.66,-10.93 27.73,-22.23 3.11,-6.95 -13.54,-3.12 -14.27,-9.27 -1.31,-11.01 20.83,-20.78 26.22,-21.44 11.22,-1.37 22.81,-2.13 34.72,-2.13 11.91,0 23.51,0.76 34.73,2.13 5.39,0.66 9.44,5.59 8.79,10.98 -0.74,6.16 0.05,12.79 3.16,19.73 5.07,11.3 15.54,20.02 27.73,22.23 15.1,2.75 16.43,2.64 24.74,-8.01 5.4,-6.93 27.43,-15.25 34.62,-10.2 25.24,17.71 40.5,40.46 40.5,65.36 0,56.45 -78.02,102.21 -174.27,102.21"
         style="fill:#a27a47;fill-opacity:1;fill-rule:nonzero;stroke:none"
         id="path84561" />
      <path
         d="m 6584.22,6244.72 c -166.36,-5.3 -225,-79.01 -269.24,-206.17 172.25,-256.98 205.06,-583.77 205.06,-667.96 h 64.18 64.17 c 0,84.19 32.82,410.98 205.06,667.96 -44.24,127.16 -102.88,200.87 -269.23,206.17"
         style="fill:#946a3b;fill-opacity:1;fill-rule:nonzero;stroke:none"
         id="path84563" />
      <path
         d="m 6584.22,5472.81 c -96.25,0 -174.27,-45.77 -174.27,-102.22 0,-24.89 15.26,-47.65 40.5,-65.36 7.19,-5.04 16.78,-2.75 22.18,4.17 8.31,10.66 22.08,16.79 37.18,14.05 12.19,-2.22 22.66,-10.93 27.73,-22.24 3.11,-6.94 3.9,-13.57 3.16,-19.72 -0.65,-5.39 3.4,-10.33 8.79,-10.98 11.22,-1.37 22.81,-2.13 34.73,-2.13 11.91,0 23.5,0.76 34.72,2.13 5.39,0.65 9.45,5.59 8.79,10.98 -0.74,6.15 0.05,12.78 3.16,19.73 5.07,11.3 15.54,20.02 27.73,22.23 15.11,2.74 28.88,-3.39 37.18,-14.05 5.41,-6.92 14.99,-9.21 22.18,-4.17 25.24,17.71 40.5,40.47 40.5,65.36 0,56.45 -78.02,102.22 -174.26,102.22"
         style="fill:#5b3a23;fill-opacity:1;fill-rule:nonzero;stroke:none"
         id="path84565" />
      <path
         d="m 6352.2,5183.87 c 65.44,-34.14 144.03,-53.77 230.94,-53.77 326.85,0 504.75,236.35 398.23,501.2 -135.78,337.61 -104.64,561.57 -326.69,605.65 31.81,-32.97 153.56,-168.41 165.19,-321.32 13.4,-176.03 149.87,-343.92 33.58,-554.8 -115.87,-210.13 -498.56,-177.19 -501.25,-176.96"
         style="fill:#a27a47;fill-opacity:1;fill-rule:nonzero;stroke:none"
         id="path84567" />
      <path
         d="m 6811.1,5969.09 c 13.1,23.55 27.16,46.79 42.35,69.46 -37.3,107.23 -85.12,176.26 -198.86,198.5 27.92,-28.94 125.65,-137.75 156.51,-267.96"
         style="fill:#896136;fill-opacity:1;fill-rule:nonzero;stroke:none"
         id="path84569" />
      <path
         d="m 6463.62,5721.24 c -10.14,0 -18.36,8.22 -18.36,18.36 0,30.35 -24.69,55.05 -55.05,55.05 -30.36,0 -55.05,-24.7 -55.05,-55.05 0,-10.14 -8.22,-18.36 -18.36,-18.36 -10.13,0 -18.35,8.22 -18.35,18.36 0,50.59 41.16,91.76 91.76,91.76 50.6,0 91.76,-41.17 91.76,-91.76 0,-10.14 -8.22,-18.36 -18.35,-18.36"
         style="fill:#381f19;fill-opacity:1;fill-rule:nonzero;stroke:none"
         id="path84571" />
      <path
         d="m 6851.63,5721.24 c -10.14,0 -18.36,8.22 -18.36,18.36 0,30.35 -24.69,55.05 -55.05,55.05 -30.35,0 -55.05,-24.7 -55.05,-55.05 0,-10.14 -8.22,-18.36 -18.35,-18.36 -10.14,0 -18.36,8.22 -18.36,18.36 0,50.59 41.17,91.76 91.76,91.76 50.6,0 91.76,-41.17 91.76,-91.76 0,-10.14 -8.22,-18.36 -18.35,-18.36"
         style="fill:#381f19;fill-opacity:1;fill-rule:nonzero;stroke:none"
         id="path84573" />
      <path
         d="m 6578.99,5169.81 c -111.33,0 -182.76,64.18 -183.83,65.16 -9.19,8.49 -9.77,22.84 -1.28,32.05 8.49,9.18 22.8,9.76 32,1.33 5.44,-4.96 135.29,-119.81 319.48,2.19 10.42,6.9 24.51,4.07 31.43,-6.39 6.91,-10.43 4.05,-24.51 -6.39,-31.42 -71.14,-47.13 -136.18,-62.92 -191.41,-62.92"
         style="fill:#381f19;fill-opacity:1;fill-rule:nonzero;stroke:none"
         id="path84575" />
      <path
         d="m 6636.25,5468.17 c 11.44,-20.98 20.51,-45.92 20.51,-72.48 0,-44.29 -69.29,-72.15 -135.4,-76.81 7,-4.08 12.83,-10.2 16.18,-17.67 3.11,-6.94 3.9,-13.57 3.16,-19.72 -0.65,-5.39 3.4,-10.33 8.79,-10.98 11.22,-1.37 22.81,-2.13 34.73,-2.13 11.91,0 23.5,0.76 34.72,2.13 5.39,0.65 9.45,5.59 8.79,10.98 -0.74,6.15 0.05,12.78 3.17,19.73 5.06,11.3 15.53,20.02 27.72,22.23 15.11,2.74 28.88,-3.39 37.18,-14.04 5.41,-6.93 14.99,-9.22 22.18,-4.18 25.24,17.71 40.5,40.47 40.5,65.36 0,45.82 -51.4,84.59 -122.23,97.58"
         style="fill:#4b2e1e;fill-opacity:1;fill-rule:nonzero;stroke:none"
         id="path84577" />
      <path
         d="m 6472.63,5309.4 c 3.06,3.93 7.04,6.95 11.38,9.43 -27.08,1.99 -50.92,8.59 -65.51,20.46 6.95,-12.58 17.81,-24.13 31.95,-34.06 7.19,-5.04 16.78,-2.75 22.18,4.17"
         style="fill:#4b2e1e;fill-opacity:1;fill-rule:nonzero;stroke:none"
         id="path84579" />
      <path
         d="m 5229.06,2038.55 c 0,-678.8 -550.27,-1229.07 -1229.06,-1229.07 -678.8,0 -1229.07,550.27 -1229.07,1229.07 0,678.79 550.27,1229.06 1229.07,1229.06 678.79,0 1229.06,-550.27 1229.06,-1229.06"
         style="fill:#a8b99c;fill-opacity:1;fill-rule:nonzero;stroke:none"
         id="path84581" />
      <path
         d="m 3181.77,2611.14 c 0,-17.35 -14.07,-31.42 -31.42,-31.42 -17.36,0 -31.42,14.07 -31.42,31.42 0,17.35 14.06,31.42 31.42,31.42 17.35,0 31.42,-14.07 31.42,-31.42"
         style="fill:#ffffff;fill-opacity:1;fill-rule:nonzero;stroke:none"
         id="path84583" />
      <path
         d="m 3273.2,2163.44 c 0,-27.35 -22.16,-49.52 -49.51,-49.52 -27.35,0 -49.52,22.17 -49.52,49.52 0,27.34 22.17,49.51 49.52,49.51 27.35,0 49.51,-22.17 49.51,-49.51"
         style="fill:#ffffff;fill-opacity:1;fill-rule:nonzero;stroke:none"
         id="path84585" />
      <path
         d="m 3555.98,2948.35 c 0,-27.34 -22.17,-49.51 -49.52,-49.51 -27.34,0 -49.51,22.17 -49.51,49.51 0,27.35 22.17,49.52 49.51,49.52 27.35,0 49.52,-22.17 49.52,-49.52"
         style="fill:#ffffff;fill-opacity:1;fill-rule:nonzero;stroke:none"
         id="path84587" />
      <path
         d="m 4847.61,2404.13 c 0,-27.35 -22.17,-49.51 -49.52,-49.51 -27.34,0 -49.51,22.16 -49.51,49.51 0,27.35 22.17,49.52 49.51,49.52 27.35,0 49.52,-22.17 49.52,-49.52"
         style="fill:#ffffff;fill-opacity:1;fill-rule:nonzero;stroke:none"
         id="path84589" />
      <path
         d="m 4072.49,2877.7 c 0,-27.35 -22.17,-49.52 -49.52,-49.52 -27.34,0 -49.51,22.17 -49.51,49.52 0,27.34 22.17,49.51 49.51,49.51 27.35,0 49.52,-22.17 49.52,-49.51"
         style="fill:#ffffff;fill-opacity:1;fill-rule:nonzero;stroke:none"
         id="path84591" />
      <path
         d="m 4973.31,2192.1 c 0,-20.33 -16.48,-36.82 -36.82,-36.82 -20.33,0 -36.81,16.49 -36.81,36.82 0,20.34 16.48,36.82 36.81,36.82 20.34,0 36.82,-16.48 36.82,-36.82"
         style="fill:#ffffff;fill-opacity:1;fill-rule:nonzero;stroke:none"
         id="path84593" />
      <path
         d="m 4560.82,2882.06 c 0,-20.33 -16.49,-36.82 -36.82,-36.82 -20.34,0 -36.82,16.49 -36.82,36.82 0,20.34 16.48,36.82 36.82,36.82 20.33,0 36.82,-16.48 36.82,-36.82"
         style="fill:#ffffff;fill-opacity:1;fill-rule:nonzero;stroke:none"
         id="path84595" />
      <path
         d="m 3575.84,2664.04 c 0,-20.33 -16.49,-36.82 -36.82,-36.82 -20.34,0 -36.82,16.49 -36.82,36.82 0,20.33 16.48,36.82 36.82,36.82 20.33,0 36.82,-16.49 36.82,-36.82"
         style="fill:#ffffff;fill-opacity:1;fill-rule:nonzero;stroke:none"
         id="path84597" />
      <path
         d="m 4864.6,1891.68 c 0,-28.74 -23.31,-52.05 -52.06,-52.05 -28.75,0 -52.05,23.31 -52.05,52.05 0,28.75 23.3,52.06 52.05,52.06 28.75,0 52.06,-23.31 52.06,-52.06"
         style="fill:#ffffff;fill-opacity:1;fill-rule:nonzero;stroke:none"
         id="path84599" />
      <path
         d="m 5115.49,1957.3 c 0,-24.18 -19.6,-43.78 -43.78,-43.78 -24.18,0 -43.79,19.6 -43.79,43.78 0,24.18 19.61,43.79 43.79,43.79 24.18,0 43.78,-19.61 43.78,-43.79"
         style="fill:#ffffff;fill-opacity:1;fill-rule:nonzero;stroke:none"
         id="path84601" />
      <path
         d="m 4812.54,1321.6 c 0,-24.19 -19.6,-43.79 -43.78,-43.79 -24.19,0 -43.79,19.6 -43.79,43.79 0,24.18 19.6,43.78 43.79,43.78 24.18,0 43.78,-19.6 43.78,-43.78"
         style="fill:#ffffff;fill-opacity:1;fill-rule:nonzero;stroke:none"
         id="path84603" />
      <path
         d="m 3365.29,1365.38 c 0,-24.18 -19.6,-43.78 -43.78,-43.78 -24.18,0 -43.79,19.6 -43.79,43.78 0,24.18 19.61,43.79 43.79,43.79 24.18,0 43.78,-19.61 43.78,-43.79"
         style="fill:#ffffff;fill-opacity:1;fill-rule:nonzero;stroke:none"
         id="path84605" />
      <path
         d="m 3030.9,2344.93 c 0,-23.67 -19.19,-42.85 -42.85,-42.85 -23.67,0 -42.85,19.18 -42.85,42.85 0,23.66 19.18,42.85 42.85,42.85 23.66,0 42.85,-19.19 42.85,-42.85"
         style="fill:#ffffff;fill-opacity:1;fill-rule:nonzero;stroke:none"
         id="path84607" />
      <path
         d="m 3113.7,1895.24 c 0,-15.25 -12.35,-27.61 -27.6,-27.61 -15.24,0 -27.6,12.36 -27.6,27.61 0,15.24 12.36,27.6 27.6,27.6 15.25,0 27.6,-12.36 27.6,-27.6"
         style="fill:#ffffff;fill-opacity:1;fill-rule:nonzero;stroke:none"
         id="path84609" />
      <path
         d="m 4929.81,2611.14 c 0,-15.25 -12.36,-27.6 -27.61,-27.6 -15.24,0 -27.6,12.35 -27.6,27.6 0,15.24 12.36,27.6 27.6,27.6 15.25,0 27.61,-12.36 27.61,-27.6"
         style="fill:#ffffff;fill-opacity:1;fill-rule:nonzero;stroke:none"
         id="path84611" />
      <path
         d="m 3849.93,3021.99 c 0,-15.25 -12.36,-27.6 -27.6,-27.6 -15.25,0 -27.6,12.35 -27.6,27.6 0,15.24 12.35,27.6 27.6,27.6 15.24,0 27.6,-12.36 27.6,-27.6"
         style="fill:#ffffff;fill-opacity:1;fill-rule:nonzero;stroke:none"
         id="path84613" />
      <path
         d="m 4964.1,1639.05 c 0,-15.24 -12.36,-27.6 -27.61,-27.6 -15.24,0 -27.6,12.36 -27.6,27.6 0,15.25 12.36,27.61 27.6,27.61 15.25,0 27.61,-12.36 27.61,-27.61"
         style="fill:#ffffff;fill-opacity:1;fill-rule:nonzero;stroke:none"
         id="path84615" />
      <path
         d="m 3113.7,1558.7 c 0,-15.24 -12.35,-27.6 -27.6,-27.6 -15.24,0 -27.6,12.36 -27.6,27.6 0,15.25 12.36,27.61 27.6,27.61 15.25,0 27.6,-12.36 27.6,-27.61"
         style="fill:#ffffff;fill-opacity:1;fill-rule:nonzero;stroke:none"
         id="path84617" />
      <path
         d="m 4251.71,3021.99 c 0,-15.25 -12.36,-27.6 -27.6,-27.6 -15.24,0 -27.6,12.35 -27.6,27.6 0,15.24 12.36,27.6 27.6,27.6 15.24,0 27.6,-12.36 27.6,-27.6"
         style="fill:#ffffff;fill-opacity:1;fill-rule:nonzero;stroke:none"
         id="path84619" />
      <path
         d="m 4719.76,1670.13 c 0,-69.42 -43.82,-125.69 -97.88,-125.69 -54.06,0 -97.88,56.27 -97.88,125.69 0,69.43 43.82,125.7 97.88,125.7 54.06,0 97.88,-56.27 97.88,-125.7"
         style="fill:#efd7a7;fill-opacity:1;fill-rule:nonzero;stroke:none"
         id="path84621" />
      <path
         d="m 4683.87,1670.13 c 0,-43.96 -27.75,-28.4 -61.99,-28.4 -34.24,0 -61.99,-15.56 -61.99,28.4 0,43.97 27.75,79.61 61.99,79.61 34.24,0 61.99,-35.64 61.99,-79.61"
         style="fill:#e7c88e;fill-opacity:1;fill-rule:nonzero;stroke:none"
         id="path84623" />
      <path
         d="m 4524,1670.14 c 0,-69.43 43.82,-125.7 97.88,-125.7 34.68,0 65.08,23.22 82.46,58.15 -13.88,5.98 -24.34,17.62 -32.09,38.8 -11.25,-5.32 -29.59,0.34 -50.37,0.34 -34.23,0 -61.99,-15.56 -61.99,28.41 0,43.96 27.76,79.6 61.99,79.6 12.8,0 24.69,-4.99 34.57,-13.53 -1.12,15.78 -2,33.23 -2.64,52.65 -10.02,4.44 -20.73,6.97 -31.93,6.97 -54.06,0 -97.88,-56.27 -97.88,-125.69"
         style="fill:#dfc391;fill-opacity:1;fill-rule:nonzero;stroke:none"
         id="path84625" />
      <path
         d="m 4621.88,1749.74 c -34.23,0 -61.99,-35.64 -61.99,-79.6 0,-43.97 27.76,-28.41 61.99,-28.41 20.78,0 39.12,-5.66 50.37,-0.34 -7.68,20.96 -12.71,51.34 -15.8,94.82 -9.88,8.54 -21.77,13.53 -34.57,13.53"
         style="fill:#d4b07a;fill-opacity:1;fill-rule:nonzero;stroke:none"
         id="path84627" />
      <path
         d="m 3485.04,1670.13 c 0,-69.42 -43.82,-125.69 -97.88,-125.69 -54.06,0 -97.88,56.27 -97.88,125.69 0,69.43 43.82,125.7 97.88,125.7 54.06,0 97.88,-56.27 97.88,-125.7"
         style="fill:#efd7a7;fill-opacity:1;fill-rule:nonzero;stroke:none"
         id="path84629" />
      <path
         d="m 3449.15,1670.13 c 0,-43.96 -27.75,-28.4 -61.99,-28.4 -34.24,0 -61.99,-15.56 -61.99,28.4 0,43.97 27.75,79.61 61.99,79.61 34.24,0 61.99,-35.64 61.99,-79.61"
         style="fill:#e7c88e;fill-opacity:1;fill-rule:nonzero;stroke:none"
         id="path84631" />
      <path
         d="m 3387.16,1544.44 c 54.06,0 97.88,56.27 97.88,125.7 0,69.42 -43.82,125.69 -97.88,125.69 -6.91,0 -13.65,-0.94 -20.16,-2.69 -0.37,-17.37 -1.22,-33.68 -2.46,-49.05 7.02,3.55 14.62,5.65 22.62,5.65 34.24,0 61.99,-35.64 61.99,-79.6 0,-43.97 -27.75,-28.41 -61.99,-28.41 -15.45,0 -29.55,-3.14 -40.41,-2.57 -7.34,-25.72 -16.06,-46.17 -25.24,-62.06 17.37,-20.23 40.35,-32.66 65.65,-32.66"
         style="fill:#dfc391;fill-opacity:1;fill-rule:nonzero;stroke:none"
         id="path84633" />
      <path
         d="m 3387.16,1641.73 c 34.24,0 61.99,-15.56 61.99,28.41 0,43.96 -27.75,79.6 -61.99,79.6 -8,0 -15.6,-2.1 -22.62,-5.65 -3.38,-41.9 -9.7,-76.62 -17.79,-104.93 10.86,-0.57 24.96,2.57 40.41,2.57"
         style="fill:#d4b07a;fill-opacity:1;fill-rule:nonzero;stroke:none"
         id="path84635" />
      <path
         d="m 4004.11,2501.74 c -580.88,0 -1033.71,-1415.25 0,-1415.25 1035.68,0 580.88,1415.25 0,1415.25"
         style="fill:#efd7a7;fill-opacity:1;fill-rule:nonzero;stroke:none"
         id="path84637" />
      <path
         d="m 4132.83,1519.53 c 0,-38.13 -50.61,-69.04 -113.04,-69.04 -62.43,0 -113.05,30.91 -113.05,69.04 0,38.12 50.62,69.03 113.05,69.03 62.43,0 113.04,-30.91 113.04,-69.03"
         style="fill:#dfc391;fill-opacity:1;fill-rule:nonzero;stroke:none"
         id="path84639" />
      <path
         d="m 4323.68,2154.83 c 0,0 396.08,-982.52 -429.79,-1062.24 34.76,-3.86 71.31,-6.1 110.22,-6.1 712.37,0 719.58,669.55 465.64,1087.59 -86.2,-4.31 -146.07,-19.25 -146.07,-19.25"
         style="fill:#dfc391;fill-opacity:1;fill-rule:nonzero;stroke:none"
         id="path84641" />
      <path
         d="m 3872.21,1652.04 c -13.5,0 -24.44,10.94 -24.44,24.44 0,40.42 -32.88,73.3 -73.3,73.3 -40.42,0 -73.3,-32.88 -73.3,-73.3 0,-13.5 -10.94,-24.44 -24.43,-24.44 -13.5,0 -24.44,10.94 -24.44,24.44 0,67.36 54.81,122.17 122.17,122.17 67.37,0 122.18,-54.81 122.18,-122.17 0,-13.5 -10.95,-24.44 -24.44,-24.44"
         style="fill:#381f19;fill-opacity:1;fill-rule:nonzero;stroke:none"
         id="path84643" />
      <path
         d="m 4333.7,1652.04 c -13.49,0 -24.44,10.94 -24.44,24.44 0,40.42 -32.88,73.3 -73.29,73.3 -40.42,0 -73.3,-32.88 -73.3,-73.3 0,-13.5 -10.95,-24.44 -24.44,-24.44 -13.5,0 -24.44,10.94 -24.44,24.44 0,67.36 54.81,122.17 122.18,122.17 67.36,0 122.17,-54.81 122.17,-122.17 0,-13.5 -10.94,-24.44 -24.44,-24.44"
         style="fill:#381f19;fill-opacity:1;fill-rule:nonzero;stroke:none"
         id="path84645" />
      <path
         d="m 4117.15,1533.84 c 0,-38.12 -50.61,-69.03 -113.04,-69.03 -62.43,0 -113.04,30.91 -113.04,69.03 0,38.13 50.61,69.04 113.04,69.04 62.43,0 113.04,-30.91 113.04,-69.04"
         style="fill:#ed3a28;fill-opacity:1;fill-rule:nonzero;stroke:none"
         id="path84647" />
      <path
         d="m 4072.85,1588.56 c 1.44,-4.4 2.22,-8.95 2.22,-13.61 0,-38.12 -50.61,-69.03 -113.04,-69.03 -25.9,0 -49.68,5.38 -68.74,14.32 10.35,-31.61 56.02,-55.43 110.82,-55.43 62.43,0 113.04,30.91 113.04,69.03 0,22.32 -17.41,42.1 -44.3,54.72"
         style="fill:#d53723;fill-opacity:1;fill-rule:nonzero;stroke:none"
         id="path84649" />
      <path
         d="m 3697.13,1993.03 c 61.14,-28.16 196.24,-79.34 386.83,-88.9 7.68,-0.39 12.98,7.76 9.37,14.55 -5.08,9.57 -11.7,22.49 -17.56,35.38 -4.34,9.54 3.34,20.24 13.74,18.89 61.44,-7.98 236.7,-43.96 373.49,-201.32 5.76,-6.63 16.56,-3.42 17.41,5.32 0.83,8.55 1.36,19.03 0.86,30.41 -0.49,11.45 13.1,17.93 21.76,10.4 29.5,-25.62 77.95,-72.41 112.02,-129.05 7.4,-12.29 26.35,-5.95 24.23,8.24 -5.24,34.96 -13.95,76.04 -28.36,112.02 0,0 -210.91,350.32 -606.81,350.32 -395.9,0 -607.73,-353.97 -607.73,-353.97 0,0 -23.78,-49.9 -29.25,-111.35 -1.87,-20.95 22.24,-34.14 38.61,-20.93 64.15,51.75 191.15,166.45 242.11,299.29 7.83,20.4 29.44,29.84 49.28,20.7"
         style="fill:#e08916;fill-opacity:1;fill-rule:nonzero;stroke:none"
         id="path84651" />
      <path
         d="m 4015.77,2208 -579.71,-64 c 0,0 148.29,567.75 578.11,546.53 467.84,-23.11 581.31,-582.63 581.31,-582.63 L 4015.77,2208"
         style="fill:#eb1744;fill-opacity:1;fill-rule:nonzero;stroke:none"
         id="path84653" />
      <path
         d="m 4003.23,2691.11 c 312.93,5.61 574.09,-145.39 716.53,75.33 0,0 -23.22,-498.37 -505.08,-580.89 -481.87,-82.51 -211.45,505.56 -211.45,505.56"
         style="fill:#eb1744;fill-opacity:1;fill-rule:nonzero;stroke:none"
         id="path84655" />
      <path
         d="m 4667.06,2705.41 c -93.26,-233.67 -173.36,-269.14 -249.41,-227.76 -64.48,35.08 -62.76,-141.11 10.55,-214.93 275.52,165.19 291.56,503.72 291.56,503.72 -16.06,-24.89 -33.71,-44.84 -52.7,-61.03"
         style="fill:#d71743;fill-opacity:1;fill-rule:nonzero;stroke:none"
         id="path84657" />
      <path
         d="m 4014.17,2690.53 c -7.38,0.36 -14.48,0.14 -21.71,0.16 193.34,-15.84 521.86,-342.74 225.79,-331.4 -101.08,3.86 -57.53,-89.57 41.03,-193.34 l 336.2,-58.05 c 0,0 -113.47,559.52 -581.31,582.63"
         style="fill:#d71743;fill-opacity:1;fill-rule:nonzero;stroke:none"
         id="path84659" />
      <path
         d="m 4585.98,2306.85 c -79.21,-68.08 -173.96,-34.25 -230.74,-12.5 -0.86,0.32 -1.65,0.69 -2.5,1.02 -0.82,0.34 -1.64,0.67 -2.47,1.01 -224.89,87.58 -353.43,233.25 -353.43,233.25 0,0 -124.2,-142.47 -339.43,-233.46 -3.68,-1.51 -7.18,-3.05 -10.76,-4.58 -2.66,-1.08 -5.16,-2.26 -7.85,-3.34 0,0 -0.18,-0.09 -0.19,-0.1 -6.39,-2.81 -12.58,-5.65 -18.64,-8.52 -37.82,-15.48 -126.26,-41.99 -202.36,8.62 0,0 -84.16,-310.63 -20.31,-479.28 190.11,280.27 606.81,266.89 606.81,266.89 0,0 416.7,13.38 606.81,-266.89 55.92,168.65 -24.94,497.88 -24.94,497.88"
         style="fill:#68a92f;fill-opacity:1;fill-rule:nonzero;stroke:none"
         id="path84661" />
      <path
         d="m 4609.05,2669.08 c 19.66,-25.81 49.28,-43.58 83.2,-47.43 24.56,83.28 27.51,144.79 27.51,144.79 -31.37,-48.62 -68.53,-79.17 -110.71,-97.36"
         style="fill:#d71743;fill-opacity:1;fill-rule:nonzero;stroke:none"
         id="path84663" />
      <path
         d="m 4003.45,1225.48 c -131.28,0 -234.13,71.95 -234.13,163.79 0,15.7 12.74,28.44 28.44,28.44 15.7,0 28.44,-12.74 28.44,-28.44 0,-57.95 81.17,-106.91 177.25,-106.91 96.08,0 177.26,48.96 177.26,106.91 0,15.7 12.73,28.44 28.43,28.44 15.71,0 28.44,-12.74 28.44,-28.44 0,-91.84 -102.84,-163.79 -234.13,-163.79"
         style="fill:#3b1f16;fill-opacity:1;fill-rule:nonzero;stroke:none"
         id="path84665" />
      <path
         d="m 4610.92,1808.97 c 55.92,168.65 -24.94,497.88 -24.94,497.88 -79.21,-68.08 -173.96,-34.25 -230.74,-12.5 -0.86,0.32 -1.65,0.69 -2.5,1.02 -0.82,0.34 -1.64,0.67 -2.47,1.01 -24.08,9.38 -46.83,19.52 -68.66,29.98 l 0.03,-0.19 c 0,0 151.69,-81.21 136.01,-194.25 -10.2,-73.57 -447.21,134.5 -836.28,-157.96 -0.08,-0.06 -0.15,-0.13 -0.24,-0.19 195.5,109.25 422.98,102.09 422.98,102.09 0,0 416.7,13.38 606.81,-266.89"
         style="fill:#5d932f;fill-opacity:1;fill-rule:nonzero;stroke:none"
         id="path84667" />
      <path
         d="m 4841.88,2766.44 c 0,-67.45 -54.67,-122.12 -122.12,-122.12 -67.44,0 -122.11,54.67 -122.11,122.12 0,67.44 54.67,122.11 122.11,122.11 67.45,0 122.12,-54.67 122.12,-122.11"
         style="fill:#68a92f;fill-opacity:1;fill-rule:nonzero;stroke:none"
         id="path84669" />
      <path
         d="m 4758.82,2882.06 c 18.47,-20 29.84,-46.65 29.84,-76.02 0,-61.97 -50.24,-112.21 -112.21,-112.21 -25.78,0 -49.45,8.78 -68.39,23.39 18.94,-42.91 61.79,-72.9 111.7,-72.9 67.45,0 122.12,54.67 122.12,122.12 0,53.77 -34.79,99.32 -83.06,115.62"
         style="fill:#5d932f;fill-opacity:1;fill-rule:nonzero;stroke:none"
         id="path84671" />
      <path
         d="m 2647.79,2048.7 c 0,-678.79 -550.28,-1229.059 -1229.07,-1229.059 -678.798,0 -1229.072,550.269 -1229.072,1229.059 0,678.8 550.274,1229.07 1229.072,1229.07 678.79,0 1229.07,-550.27 1229.07,-1229.07"
         style="fill:#c87072;fill-opacity:1;fill-rule:nonzero;stroke:none"
         id="path84673" />
      <path
         d="m 751.281,2824.14 86.871,10.64 -86.871,10.64 32.778,41.92 -41.926,-32.78 -10.637,86.87 -10.637,-86.87 -41.925,32.78 32.777,-41.92 -86.867,-10.64 86.867,-10.64 -32.777,-41.92 41.925,32.77 10.637,-86.87 10.637,86.87 41.926,-32.77 -32.778,41.92"
         style="fill:#ffffff;fill-opacity:1;fill-rule:nonzero;stroke:none"
         id="path84675" />
      <path
         d="m 2025.28,2880.97 153.57,18.8 -153.57,18.81 57.94,74.11 -74.12,-57.94 -18.8,153.57 -18.8,-153.57 -74.12,57.94 57.94,-74.11 -153.57,-18.81 153.57,-18.8 -57.94,-74.12 74.12,57.95 18.8,-153.58 18.8,153.58 74.12,-57.95 -57.94,74.12"
         style="fill:#ffffff;fill-opacity:1;fill-rule:nonzero;stroke:none"
         id="path84677" />
      <path
         d="m 534.063,2179.25 136.507,16.71 -136.507,16.72 51.503,65.88 -65.878,-51.5 -16.715,136.51 -16.715,-136.51 -65.883,51.5 51.508,-65.88 -136.512,-16.72 136.512,-16.71 -51.508,-65.88 65.883,51.51 16.715,-136.52 16.715,136.52 65.878,-51.51 -51.503,65.88"
         style="fill:#ffffff;fill-opacity:1;fill-rule:nonzero;stroke:none"
         id="path84679" />
      <path
         d="m 591.504,1498.24 87.633,10.73 -87.633,10.73 33.066,42.29 -42.293,-33.06 -10.73,87.63 -10.731,-87.63 -42.293,33.06 33.067,-42.29 -87.633,-10.73 87.633,-10.73 -33.067,-42.29 42.293,33.06 10.731,-87.63 10.73,87.63 42.293,-33.06 -33.066,42.29"
         style="fill:#ffffff;fill-opacity:1;fill-rule:nonzero;stroke:none"
         id="path84681" />
      <path
         d="m 2382.31,2426.55 80.65,9.88 -80.65,9.87 30.43,38.92 -38.92,-30.43 -9.88,80.66 -9.87,-80.66 -38.93,30.43 30.43,-38.92 -80.65,-9.87 80.65,-9.88 -30.43,-38.92 38.93,30.43 9.87,-80.65 9.88,80.65 38.92,-30.43 -30.43,38.92"
         style="fill:#ffffff;fill-opacity:1;fill-rule:nonzero;stroke:none"
         id="path84683" />
      <path
         d="m 2294.44,1533.32 129.61,15.87 -129.61,15.87 48.91,62.55 -62.56,-48.9 -15.87,129.61 -15.87,-129.61 -62.55,48.9 48.9,-62.55 -129.61,-15.87 129.61,-15.87 -48.9,-62.56 62.55,48.91 15.87,-129.62 15.87,129.62 62.56,-48.91 -48.91,62.56"
         style="fill:#ffffff;fill-opacity:1;fill-rule:nonzero;stroke:none"
         id="path84685" />
      <path
         d="m 2194.74,2033.23 c 0,-428.58 -347.44,-560.6 -776.02,-560.6 -428.587,0 -776.029,132.02 -776.029,560.6 0,428.59 347.442,929.69 776.029,929.69 428.58,0 776.02,-501.1 776.02,-929.69"
         style="fill:#ffffff;fill-opacity:1;fill-rule:nonzero;stroke:none"
         id="path84687" />
      <path
         d="m 1448.31,2077.09 c -124.32,-60.07 -175.23,-62.24 -229.74,-83.16 33.37,-62.3 92.32,-123.64 226.01,-163.16 133.69,39.52 210.48,100.86 243.85,163.16 -54.51,20.92 -115.81,23.09 -240.12,83.16"
         style="fill:#dad9d6;fill-opacity:1;fill-rule:nonzero;stroke:none"
         id="path84689" />
      <path
         d="m 1292.16,2361.27 c -13.84,0 -25.06,11.22 -25.06,25.05 0,41.44 -33.71,75.15 -75.15,75.15 -41.44,0 -75.15,-33.71 -75.15,-75.15 0,-13.83 -11.22,-25.05 -25.05,-25.05 -13.84,0 -25.06,11.22 -25.06,25.05 0,69.07 56.2,125.27 125.26,125.27 69.07,0 125.27,-56.2 125.27,-125.27 0,-13.83 -11.22,-25.05 -25.06,-25.05"
         style="fill:#dad9d6;fill-opacity:1;fill-rule:nonzero;stroke:none"
         id="path84691" />
      <path
         d="m 1776.69,2361.27 c -13.83,0 -25.05,11.22 -25.05,25.05 0,41.44 -33.71,75.15 -75.15,75.15 -41.44,0 -75.15,-33.71 -75.15,-75.15 0,-13.83 -11.22,-25.05 -25.06,-25.05 -13.84,0 -25.06,11.22 -25.06,25.05 0,69.07 56.2,125.27 125.27,125.27 69.06,0 125.26,-56.2 125.26,-125.27 0,-13.83 -11.22,-25.05 -25.06,-25.05"
         style="fill:#dad9d6;fill-opacity:1;fill-rule:nonzero;stroke:none"
         id="path84693" />
      <path
         d="m 2194.74,2033.23 c 0,403.2 -307.51,870.43 -700.78,924.4 4.48,-2.44 424.1,-233.24 435.11,-801.29 11.06,-571.09 -921.05,-403.72 -921.05,-403.72 0,0 185.75,-148.35 399.82,-279.89 3.64,-0.02 7.23,-0.1 10.88,-0.1 428.58,0 776.02,132.02 776.02,560.6"
         style="fill:#dad9d6;fill-opacity:1;fill-rule:nonzero;stroke:none"
         id="path84695" />
      <path
         d="m 1278.81,2372.39 c -13.84,0 -25.06,11.22 -25.06,25.06 0,41.43 -33.71,75.15 -75.15,75.15 -41.44,0 -75.15,-33.72 -75.15,-75.15 0,-13.84 -11.22,-25.06 -25.05,-25.06 -13.84,0 -25.06,11.22 -25.06,25.06 0,69.06 56.2,125.26 125.26,125.26 69.07,0 125.27,-56.2 125.27,-125.26 0,-13.84 -11.22,-25.06 -25.06,-25.06"
         style="fill:#381f19;fill-opacity:1;fill-rule:nonzero;stroke:none"
         id="path84697" />
      <path
         d="m 1763.34,2372.39 c -13.83,0 -25.05,11.22 -25.05,25.06 0,41.43 -33.71,75.15 -75.15,75.15 -41.44,0 -75.15,-33.72 -75.15,-75.15 0,-13.84 -11.22,-25.06 -25.06,-25.06 -13.84,0 -25.06,11.22 -25.06,25.06 0,69.06 56.2,125.26 125.27,125.26 69.06,0 125.26,-56.2 125.26,-125.26 0,-13.84 -11.22,-25.06 -25.06,-25.06"
         style="fill:#381f19;fill-opacity:1;fill-rule:nonzero;stroke:none"
         id="path84699" />
      <path
         d="m 1418.72,1509.5 c -844.255,0 -700.591,915.28 -463.06,1144.48 237.54,229.19 463.06,-77.87 463.06,-77.87 0,0 225.52,307.06 463.05,77.87 237.54,-229.2 395.48,-1144.48 -463.05,-1144.48 z m 0,1453.42 c -428.587,0 -776.029,-501.1 -776.029,-929.69 0,-428.58 347.442,-560.6 776.029,-560.6 428.58,0 776.02,132.02 776.02,560.6 0,428.59 -347.44,929.69 -776.02,929.69"
         style="fill:#17192d;fill-opacity:1;fill-rule:nonzero;stroke:none"
         id="path84701" />
      <path
         d="m 2194.74,2033.23 c 0,403.2 -307.51,870.43 -700.78,924.4 2.43,-1.32 126.61,-69.84 241.81,-222.62 46.83,-8.65 96.14,-32.92 146,-81.03 237.54,-229.2 395.48,-1144.48 -463.05,-1144.48 -25.31,0 -49.68,0.87 -73.24,2.47 20.41,-13.14 41.25,-26.26 62.36,-39.24 3.64,-0.02 7.23,-0.1 10.88,-0.1 428.58,0 776.02,132.02 776.02,560.6"
         style="fill:#171618;fill-opacity:1;fill-rule:nonzero;stroke:none"
         id="path84703" />
      <path
         d="m 1240.45,2195.65 c 0,-44.24 -64.25,-80.1 -143.51,-80.1 -79.25,0 -143.502,35.86 -143.502,80.1 0,44.24 64.252,80.1 143.502,80.1 79.26,0 143.51,-35.86 143.51,-80.1"
         style="fill:#fad2b1;fill-opacity:1;fill-rule:nonzero;stroke:none"
         id="path84705" />
      <path
         d="m 1892.34,2195.65 c 0,-44.24 -64.25,-80.1 -143.5,-80.1 -79.26,0 -143.51,35.86 -143.51,80.1 0,44.24 64.25,80.1 143.51,80.1 79.25,0 143.5,-35.86 143.5,-80.1"
         style="fill:#fad2b1;fill-opacity:1;fill-rule:nonzero;stroke:none"
         id="path84707" />
      <path
         d="m 676.02,1826.6 c 0,0 863.46,-263.65 1485.25,0 0,0 15.76,-123.11 -61.26,-249.55 -12.12,-19.91 -31.87,-35.47 -55.35,-44.33 -130.62,-49.29 -614.42,-201.85 -1265.355,-47.79 -45.258,10.71 -81.012,41.7 -93.532,81.73 -21.5,68.73 -53.418,181.67 -9.753,259.94"
         style="fill:#eb1744;fill-opacity:1;fill-rule:nonzero;stroke:none"
         id="path84709" />
      <path
         d="m 1688.76,1443.5 c 77.88,11.89 145.46,26.58 201.63,41.14 -17.17,61.82 -39.44,158.03 -43.12,252.41 0,0.02 0,0.04 0,0.06 -43.45,-7.42 -87.16,-13.16 -130.86,-17.44 -51.59,-107.01 -118.87,-206.02 -27.65,-276.17"
         style="fill:#d71743;fill-opacity:1;fill-rule:nonzero;stroke:none"
         id="path84711" />
      <path
         d="m 2100.01,1577.05 c 77.02,126.44 61.26,249.55 61.26,249.55 -53.33,-22.62 -111.7,-42.48 -167.72,-57.86 l 0.09,-0.03 c 0,0 25.39,-160.44 -92.83,-206.96 -200.75,-78.98 -803.05,-131.01 -1221.673,27.69 2.176,-7.95 4.398,-15.63 6.636,-22.78 12.52,-40.03 48.274,-71.02 93.532,-81.73 650.935,-154.05 1134.735,-1.5 1265.355,47.79 23.48,8.86 43.23,24.42 55.35,44.33"
         style="fill:#d71743;fill-opacity:1;fill-rule:nonzero;stroke:none"
         id="path84713" />
      <path
         d="m 1554.83,1710.05 c 0,0 -64.14,-286.7 47.53,-634.91 6.43,-20.03 78.62,-16.41 157.23,10.29 79.17,26.89 169.49,-23.06 169.48,3.65 -0.05,114.97 -118.96,364.11 -81.8,647.97 0,0 -152.94,17.33 -292.44,-27"
         style="fill:#eb1744;fill-opacity:1;fill-rule:nonzero;stroke:none"
         id="path84715" />
      <path
         d="m 1420.87,2089.97 c -124.32,-60.07 -180.42,-64.74 -234.93,-85.66 33.37,-62.3 101.24,-118.45 234.93,-157.97 133.69,39.52 201.56,95.67 234.93,157.97 -54.51,20.92 -110.61,25.59 -234.93,85.66"
         style="fill:#e08916;fill-opacity:1;fill-rule:nonzero;stroke:none"
         id="path84717" />
      <path
         d="m 1929.07,1089.08 c -0.05,114.97 -118.96,364.11 -81.8,647.97 l -50.58,3.03 c 0,0 -12.68,-230.62 16.67,-383.21 28.3,-147.17 74.53,-229.17 14.46,-213.59 -60.07,15.57 -181.7,-98.45 -225.46,-68.14 6.43,-20.03 78.62,-16.41 157.23,10.29 79.17,26.89 169.49,-23.06 169.48,3.65"
         style="fill:#d71743;fill-opacity:1;fill-rule:nonzero;stroke:none"
         id="path84719" />
      <path
         d="m 1655.8,2004.31 c -54.51,20.92 -110.61,25.59 -234.93,85.66 l 32.63,-80.47 -32.63,-163.16 c 133.69,39.52 201.56,95.67 234.93,157.97"
         style="fill:#d0791b;fill-opacity:1;fill-rule:nonzero;stroke:none"
         id="path84721" />
      <path
         d="m 7810.35,2048.7 c 0,-678.79 -550.28,-1229.059 -1229.07,-1229.059 -678.8,0 -1229.07,550.269 -1229.07,1229.059 0,678.8 550.27,1229.07 1229.07,1229.07 678.79,0 1229.07,-550.27 1229.07,-1229.07"
         style="fill:#c87072;fill-opacity:1;fill-rule:nonzero;stroke:none"
         id="path84723" />
      <path
         d="m 5913.84,2824.14 86.87,10.64 -86.87,10.64 32.78,41.92 -41.93,-32.78 -10.63,86.87 -10.64,-86.87 -41.92,32.78 32.77,-41.92 -86.87,-10.64 86.87,-10.64 -32.77,-41.92 41.92,32.77 10.64,-86.87 10.63,86.87 41.93,-32.77 -32.78,41.92"
         style="fill:#ffffff;fill-opacity:1;fill-rule:nonzero;stroke:none"
         id="path84725" />
      <path
         d="m 7579.83,2333.87 153.58,18.81 -153.58,18.8 57.95,74.12 -74.12,-57.94 -18.8,153.57 -18.81,-153.57 -74.11,57.94 57.94,-74.12 -153.57,-18.8 153.57,-18.81 -57.94,-74.11 74.11,57.94 18.81,-153.57 18.8,153.57 74.12,-57.94 -57.95,74.11"
         style="fill:#ffffff;fill-opacity:1;fill-rule:nonzero;stroke:none"
         id="path84727" />
      <path
         d="m 5667.62,2031.99 136.51,16.71 -136.51,16.72 51.51,65.88 -65.89,-51.51 -16.71,136.51 -16.72,-136.51 -65.88,51.51 51.51,-65.88 -136.51,-16.72 136.51,-16.71 -51.51,-65.88 65.88,51.5 16.72,-136.51 16.71,136.51 65.89,-51.5 -51.51,65.88"
         style="fill:#ffffff;fill-opacity:1;fill-rule:nonzero;stroke:none"
         id="path84729" />
      <path
         d="m 5873.03,1354.65 87.63,10.73 -87.63,10.73 33.06,42.29 -42.29,-33.06 -10.73,87.63 -10.73,-87.63 -42.29,33.06 33.06,-42.29 -87.63,-10.73 87.63,-10.73 -33.06,-42.29 42.29,33.06 10.73,-87.63 10.73,87.63 42.29,-33.06 -33.06,42.29"
         style="fill:#ffffff;fill-opacity:1;fill-rule:nonzero;stroke:none"
         id="path84731" />
      <path
         d="m 6860.56,2931.56 80.65,9.87 -80.65,9.88 30.43,38.92 -38.93,-30.43 -9.87,80.65 -9.88,-80.65 -38.92,30.43 30.43,-38.92 -80.65,-9.88 80.65,-9.87 -30.43,-38.93 38.92,30.44 9.88,-80.66 9.87,80.66 38.93,-30.44 -30.43,38.93"
         style="fill:#ffffff;fill-opacity:1;fill-rule:nonzero;stroke:none"
         id="path84733" />
      <path
         d="m 7429.1,1664.86 129.61,15.87 -129.61,15.87 48.9,62.56 -62.55,-48.91 -15.87,129.62 -15.87,-129.62 -62.55,48.91 48.9,-62.56 -129.61,-15.87 129.61,-15.87 -48.9,-62.55 62.55,48.91 15.87,-129.62 15.87,129.62 62.55,-48.91 -48.9,62.55"
         style="fill:#ffffff;fill-opacity:1;fill-rule:nonzero;stroke:none"
         id="path84735" />
      <path
         d="m 6292.9,2419.97 c -84.44,-84.44 -226.51,-79.27 -317.32,11.54 -90.81,90.81 -56.11,203.14 28.33,287.58 84.44,84.44 186.63,109.01 277.44,18.2 90.82,-90.82 95.98,-232.89 11.55,-317.32"
         style="fill:#ffffff;fill-opacity:1;fill-rule:nonzero;stroke:none"
         id="path84737" />
      <path
         d="m 6240.67,2472.2 c -54.44,-54.45 -146.04,-51.11 -204.6,7.44 -58.55,58.55 -36.17,130.98 18.27,185.42 54.44,54.44 120.33,70.29 178.89,11.73 58.55,-58.55 61.88,-150.15 7.44,-204.59"
         style="fill:#cededa;fill-opacity:1;fill-rule:nonzero;stroke:none"
         id="path84739" />
      <path
         d="m 6292.9,2419.97 c 84.43,84.43 79.27,226.5 -11.55,317.32 -40.06,40.06 -82.34,57.61 -124.34,57.52 -1.72,-28.22 -6.68,-55.42 -14.17,-81.48 30.4,3.24 61.3,-7.45 90.39,-36.54 58.55,-58.55 61.88,-150.15 7.44,-204.59 -54.44,-54.45 -146.04,-51.11 -204.6,7.44 -7.5,7.5 -13.64,15.24 -18.58,23.14 -19.13,-20.56 -38.46,-38.87 -56.83,-54.73 4.55,-5.58 9.48,-11.1 14.92,-16.54 90.81,-90.81 232.88,-95.98 317.32,-11.54"
         style="fill:#ececeb;fill-opacity:1;fill-rule:nonzero;stroke:none"
         id="path84741" />
      <path
         d="m 6036.07,2479.64 c 58.56,-58.55 150.16,-61.89 204.6,-7.44 54.44,54.44 51.11,146.04 -7.44,204.59 -29.09,29.09 -59.99,39.78 -90.39,36.54 -24,-83.5 -73.8,-155.15 -125.35,-210.55 4.94,-7.9 11.08,-15.64 18.58,-23.14"
         style="fill:#becdc9;fill-opacity:1;fill-rule:nonzero;stroke:none"
         id="path84743" />
      <path
         d="m 6869.66,2419.97 c 84.43,-84.44 226.5,-79.27 317.31,11.54 90.82,90.81 56.11,203.14 -28.33,287.58 -84.43,84.44 -186.63,109.01 -277.44,18.2 -90.81,-90.82 -95.98,-232.89 -11.54,-317.32"
         style="fill:#ffffff;fill-opacity:1;fill-rule:nonzero;stroke:none"
         id="path84745" />
      <path
         d="m 6921.88,2472.2 c 54.45,-54.45 146.05,-51.11 204.6,7.44 58.56,58.55 36.18,130.98 -18.26,185.42 -54.45,54.44 -120.34,70.29 -178.89,11.73 -58.56,-58.55 -61.89,-150.15 -7.45,-204.59"
         style="fill:#cededa;fill-opacity:1;fill-rule:nonzero;stroke:none"
         id="path84747" />
      <path
         d="m 7186.97,2431.51 c 59.55,59.55 64.91,128.32 37.88,192.44 -20.67,-21.74 -43.87,-30.9 -69.92,-30.98 12.52,-38.19 6.64,-78.25 -28.45,-113.33 -58.55,-58.55 -150.15,-61.89 -204.6,-7.44 -54.44,54.44 -51.1,146.04 7.45,204.59 2.97,2.98 5.97,5.63 8.98,8.22 -22.4,12.38 -45.89,25.09 -70.55,37.51 -25.54,-29.94 -42.72,-64.26 -51.41,-99.76 7.99,-36.06 23.73,-82.34 52.1,-141.61 25.55,-53.36 57.22,-89.68 92.34,-113.71 75.88,-20.55 163.3,1.19 226.18,64.07"
         style="fill:#ececeb;fill-opacity:1;fill-rule:nonzero;stroke:none"
         id="path84749" />
      <path
         d="m 6938.31,2685.01 c -3.01,-2.59 -6.01,-5.24 -8.98,-8.22 -58.55,-58.55 -61.89,-150.15 -7.45,-204.59 54.45,-54.45 146.05,-51.11 204.6,7.44 35.09,35.08 40.97,75.14 28.45,113.33 -57.35,-0.19 -128.49,43.34 -216.62,92.04"
         style="fill:#becdc9;fill-opacity:1;fill-rule:nonzero;stroke:none"
         id="path84751" />
      <path
         d="m 6581.28,2766.83 c -288.52,0 -664.29,-273.05 -664.29,-639.93 0,-366.87 469.72,-678.02 664.29,-678.02 194.56,0 664.29,311.15 664.29,678.02 0,366.88 -375.77,639.93 -664.29,639.93"
         style="fill:#ffffff;fill-opacity:1;fill-rule:nonzero;stroke:none"
         id="path84753" />
      <path
         d="m 7044.47,2033.57 c -76.19,-455.18 -644.61,-532.29 -802.46,-412.09 -19.12,14.56 -38.07,20.87 -56.32,20.8 139.62,-118.9 300.46,-193.4 395.59,-193.4 194.56,0 664.29,311.15 664.29,678.02 0,366.88 -375.77,639.93 -664.29,639.93 0,0 539.37,-278.09 463.19,-733.26"
         style="fill:#ececeb;fill-opacity:1;fill-rule:nonzero;stroke:none"
         id="path84755" />
      <path
         d="m 6578.04,2005.01 c -124.24,0 -239.54,-27.99 -334.8,-75.82 -120.58,-60.55 -134.7,-226.59 -29.02,-310.47 132.49,-105.15 278.36,-169.84 367.06,-169.84 88.02,0 232.3,63.72 363.95,167.46 105.84,83.39 92.28,248.88 -27.62,310.39 -96.16,49.33 -213.23,78.28 -339.57,78.28"
         style="fill:#ececeb;fill-opacity:1;fill-rule:nonzero;stroke:none"
         id="path84757" />
      <path
         d="m 6605.96,1450.53 c 4.26,0.48 8.53,0.98 12.98,1.69 2.71,0.44 5.54,1.03 8.31,1.55 4.08,0.77 8.17,1.55 12.38,2.5 3.11,0.7 6.31,1.52 9.49,2.32 4.03,1.02 8.09,2.07 12.23,3.23 3.46,0.98 6.97,2.04 10.5,3.13 4,1.23 8.03,2.51 12.11,3.88 3.78,1.26 7.6,2.58 11.45,3.96 3.93,1.41 7.91,2.9 11.9,4.43 4.11,1.57 8.23,3.15 12.4,4.85 3.77,1.53 7.58,3.16 11.4,4.79 4.51,1.92 9.01,3.83 13.58,5.89 3.37,1.52 6.79,3.16 10.18,4.75 5.11,2.4 10.2,4.75 15.36,7.3 2.13,1.06 4.29,2.21 6.42,3.29 29.72,15 60.26,32.57 90.88,52.51 1.15,0.75 2.3,1.47 3.46,2.23 7.08,4.65 14.16,9.48 21.23,14.38 1.52,1.05 3.04,2.08 4.56,3.14 7,4.9 13.98,9.94 20.95,15.08 1.5,1.11 3.01,2.21 4.51,3.33 7.05,5.25 14.07,10.62 21.05,16.1 0.79,0.62 1.58,1.24 2.37,1.86 79.48,63.02 91.13,172.4 40.67,248.72 -168.4,-304.42 -608.41,-347.45 -744.32,-243.96 -17.55,13.36 -34.93,19.5 -51.78,20.42 6.9,-7.79 14.34,-15.27 22.79,-22.1 43.83,-34.88 89.14,-65.36 133.38,-90.53 0.87,-0.49 1.73,-0.96 2.59,-1.45 7.78,-4.39 15.53,-8.62 23.22,-12.68 1.56,-0.82 3.1,-1.61 4.65,-2.41 6.97,-3.63 13.9,-7.12 20.78,-10.46 2.02,-0.98 4.02,-1.93 6.03,-2.88 6.34,-3.02 12.63,-5.91 18.86,-8.67 2.35,-1.04 4.68,-2.06 7.01,-3.06 5.83,-2.5 11.59,-4.88 17.31,-7.16 2.55,-1.02 5.1,-2.04 7.64,-3.01 5.38,-2.06 10.67,-3.99 15.94,-5.84 2.69,-0.95 5.39,-1.91 8.05,-2.8 5,-1.68 9.91,-3.19 14.78,-4.67 2.72,-0.82 5.47,-1.68 8.15,-2.43 4.71,-1.33 9.29,-2.48 13.86,-3.61 2.67,-0.66 5.38,-1.38 7.99,-1.96 4.5,-1.02 8.84,-1.82 13.18,-2.62 2.48,-0.46 5.04,-1.01 7.47,-1.4 4.55,-0.73 8.91,-1.22 13.26,-1.7 2.02,-0.23 4.13,-0.57 6.11,-0.74 6.22,-0.54 12.24,-0.84 18,-0.84 5.8,0 11.89,0.32 18.16,0.87 2.11,0.18 4.36,0.53 6.52,0.78"
         style="fill:#e2e2e0;fill-opacity:1;fill-rule:nonzero;stroke:none"
         id="path84759" />
      <path
         d="m 6453.44,2318.83 c -11.14,0 -20.18,9.03 -20.18,20.17 0,33.37 -27.15,60.52 -60.52,60.52 -33.37,0 -60.51,-27.15 -60.51,-60.52 0,-11.14 -9.04,-20.17 -20.18,-20.17 -11.14,0 -20.18,9.03 -20.18,20.17 0,55.62 45.25,100.88 100.87,100.88 55.62,0 100.88,-45.26 100.88,-100.88 0,-11.14 -9.04,-20.17 -20.18,-20.17"
         style="fill:#381f19;fill-opacity:1;fill-rule:nonzero;stroke:none"
         id="path84761" />
      <path
         d="m 6870.51,2318.83 c -11.15,0 -20.18,9.03 -20.18,20.17 0,33.37 -27.15,60.52 -60.52,60.52 -33.37,0 -60.52,-27.15 -60.52,-60.52 0,-11.14 -9.03,-20.17 -20.18,-20.17 -11.14,0 -20.17,9.03 -20.17,20.17 0,55.62 45.25,100.88 100.87,100.88 55.62,0 100.87,-45.26 100.87,-100.88 0,-11.14 -9.03,-20.17 -20.17,-20.17"
         style="fill:#381f19;fill-opacity:1;fill-rule:nonzero;stroke:none"
         id="path84763" />
      <path
         d="m 6844.02,2013.93 c -182.48,132.1 -150.09,267.27 -262.74,267.27 -112.66,0 -80.26,-135.17 -262.74,-267.27 -85.58,-61.95 65.97,-242.89 262.74,-242.89 196.76,0 348.32,180.94 262.74,242.89"
         style="fill:#cededa;fill-opacity:1;fill-rule:nonzero;stroke:none"
         id="path84765" />
      <path
         d="m 6578.04,2033.57 c -91.19,0 -165.12,-43.36 -165.12,-96.85 0,-23.59 14.46,-45.15 38.38,-61.93 6.81,-4.78 15.89,-2.61 21.01,3.95 7.87,10.09 20.92,15.91 35.23,13.31 11.55,-2.1 21.47,-10.36 26.27,-21.07 2.95,-6.58 3.7,-12.86 3,-18.69 -0.62,-5.11 3.22,-9.79 8.33,-10.41 10.63,-1.29 21.62,-2.01 32.9,-2.01 11.29,0 22.27,0.72 32.9,2.01 5.11,0.62 8.96,5.3 8.34,10.41 -0.71,5.83 0.04,12.11 2.99,18.69 4.81,10.71 14.73,18.97 26.28,21.07 14.31,2.6 27.36,-3.22 35.23,-13.31 5.12,-6.56 14.2,-8.73 21.01,-3.95 23.92,16.78 38.38,38.34 38.38,61.93 0,53.49 -73.93,96.85 -165.13,96.85"
         style="fill:#5b3a23;fill-opacity:1;fill-rule:nonzero;stroke:none"
         id="path84767" />
      <path
         d="m 6578.09,1655.1 c -4.59,0 -9.16,0.08 -13.77,0.23 -96,3.36 -181.7,41.32 -229.27,101.55 -7.81,9.91 -6.13,24.28 3.78,32.1 9.92,7.82 24.27,6.15 32.11,-3.77 39.32,-49.82 112.23,-81.3 194.99,-84.19 90.23,-3.38 175.19,28.76 226.73,85.4 8.5,9.35 22.96,10.01 32.29,1.53 9.33,-8.5 10.01,-22.95 1.52,-32.28 -57.77,-63.5 -149.84,-100.57 -248.38,-100.57"
         style="fill:#381f19;fill-opacity:1;fill-rule:nonzero;stroke:none"
         id="path84769" />
      <path
         d="m 6084.17,1741.67 c 0,0 275.16,-250.25 497.11,-250.25 221.94,0 497.17,250.25 497.17,250.25 0,0 113.3,-92.17 82.83,-193.75 0,0 -314.39,-261.56 -580,-261.56 -265.62,0 -586.85,269.18 -586.85,269.18 0,0 16.5,113 89.74,186.13"
         style="fill:#ef3929;fill-opacity:1;fill-rule:nonzero;stroke:none"
         id="path84771" />
      <path
         d="m 7078.45,1741.67 c 0,0 -15.31,-13.88 -41.38,-34.98 25.17,-40.05 -56.72,-327.64 -443.35,-329.54 -386.61,-1.91 -592.14,210.83 -592.15,210.84 -5.21,-19.61 -7.14,-32.45 -7.14,-32.45 0,0 321.23,-269.18 586.85,-269.18 265.61,0 580,261.56 580,261.56 30.47,101.58 -82.83,193.75 -82.83,193.75"
         style="fill:#d53723;fill-opacity:1;fill-rule:nonzero;stroke:none"
         id="path84773" />
      <path
         d="m 6652.01,1499.06 c 82.65,-148.58 27.09,-372.05 46.14,-503.458 0,0 48.86,38.088 135.84,24.758 86.99,-13.33 107.94,-9.52 132.7,24.76 0,0 1.48,387.31 -158.13,511.08 0,0 -142.06,-11.41 -156.55,-57.14"
         style="fill:#ef3929;fill-opacity:1;fill-rule:nonzero;stroke:none"
         id="path84775" />
      <path
         d="m 6683.78,1878.74 c 5.12,-6.56 14.2,-8.73 21.01,-3.95 23.92,16.78 38.38,38.34 38.38,61.93 0,37.49 -36.38,69.93 -89.5,86.03 -2.68,-65.6 -54,-133.35 -129.71,-138.77 4.14,-3.56 7.6,-7.97 9.85,-13 2.95,-6.58 3.7,-12.86 3,-18.69 -0.62,-5.11 3.22,-9.79 8.33,-10.41 10.63,-1.29 21.62,-2.01 32.9,-2.01 11.29,0 22.27,0.72 32.9,2.01 5.11,0.62 8.96,5.3 8.34,10.41 -0.71,5.83 0.04,12.11 2.99,18.69 4.81,10.71 14.73,18.97 26.28,21.07 14.31,2.6 27.36,-3.22 35.23,-13.31"
         style="fill:#4b2e1e;fill-opacity:1;fill-rule:nonzero;stroke:none"
         id="path84777" />
      <path
         d="m 6472.31,1878.74 c 2.7,3.46 6.17,6.17 9.94,8.46 -20.58,4.51 -42.34,13.4 -64.99,27.84 5.92,-15.06 17.7,-28.79 34.04,-40.25 6.81,-4.78 15.89,-2.61 21.01,3.95"
         style="fill:#4b2e1e;fill-opacity:1;fill-rule:nonzero;stroke:none"
         id="path84779" />
      <path
         d="m 6833.99,1020.36 c 86.99,-13.33 107.94,-9.52 132.7,24.76 0,0 1.48,387.31 -158.13,511.08 0,0 -5.72,-0.47 -14.78,-1.55 7.88,-17.32 84.27,-187.98 105.94,-344.47 22.86,-165.06 5.08,-154.9 -71.1,-154.9 -47.34,0 -98.56,-33.32 -130.59,-58.569 0.05,-0.359 0.06,-0.75 0.12,-1.109 0,0 48.86,38.088 135.84,24.758"
         style="fill:#d53723;fill-opacity:1;fill-rule:nonzero;stroke:none"
         id="path84781" />
      <path
         d="m 4000.04,400.699 c 5.01,0 8.71,-0.398 12.95,-1.117 l 1.2,7.629 c 0,0 -11.71,3.609 -27.1,2.348 l -1.21,4.152 c 4.78,1 8.38,5.258 8.38,10.34 0,5.82 -4.74,10.531 -10.57,10.531 -5.83,0 -10.56,-4.711 -10.56,-10.531 0,-5.082 3.58,-9.34 8.36,-10.34 l 1.34,-4.629 c -16.35,-2.25 -29.35,-8.633 -29.35,-8.633 l 2.3,-7.047 c 9.89,3.289 18.46,5.297 26.24,6.137 7.62,0.813 13.35,1.16 18.02,1.16"
         style="fill:#444445;fill-opacity:1;fill-rule:nonzero;stroke:none"
         id="path84845" />
    </g>
  </g>
</svg>
