<?xml version="1.0" encoding="UTF-8" standalone="no"?>
<!-- Created with Inkscape (http://www.inkscape.org/) -->

<svg
   width="37.547195mm"
   height="37.56937mm"
   viewBox="0 0 37.547195 37.56937"
   version="1.1"
   id="svg5"
   xml:space="preserve"
   sodipodi:docname="cerrar.svg"
   xmlns:inkscape="http://www.inkscape.org/namespaces/inkscape"
   xmlns:sodipodi="http://sodipodi.sourceforge.net/DTD/sodipodi-0.dtd"
   xmlns="http://www.w3.org/2000/svg"
   xmlns:svg="http://www.w3.org/2000/svg"><sodipodi:namedview
     id="namedview7"
     pagecolor="#ffffff"
     bordercolor="#000000"
     borderopacity="0.25"
     inkscape:showpageshadow="2"
     inkscape:pageopacity="0.0"
     inkscape:pagecheckerboard="0"
     inkscape:deskcolor="#d1d1d1"
     inkscape:document-units="mm"
     showgrid="false" /><defs
     id="defs2" /><g
     inkscape:label="Capa 1"
     inkscape:groupmode="layer"
     id="layer1"
     transform="translate(-83.507428,-99.897038)"><path
       style="fill:#bc4749;fill-opacity:1;stroke-width:0.264583"
       d="m 86.536736,137.10607 c -1.04613,-0.46106 -2.23546,-1.6712 -2.68287,-2.72981 -0.48421,-1.14568 -0.45453,-3.0863 0.063,-4.12268 0.23258,-0.46572 2.8211,-3.25777 5.75227,-6.20457 l 5.32938,-5.35781 -5.32938,-5.35781 c -2.93117,-2.9468 -5.53262,-5.76386 -5.781,-6.26013 -0.65581,-1.31031 -0.44072,-3.62855 0.46344,-4.99483 1.26978,-1.91876 4.33816,-2.762211 6.36545,-1.74977 0.46571,0.23259 3.25777,2.82111 6.20456,5.75227 l 5.357824,5.32939 5.35781,-5.32939 c 2.9468,-2.93116 5.76386,-5.53261 6.26014,-5.781 1.2627,-0.631981 3.63805,-0.440621 4.85149,0.39084 1.31351,0.90003 2.11142,2.20633 2.254,3.69012 0.23198,2.41426 -0.0812,2.87614 -5.98131,8.82021 l -5.44946,5.4901 5.44946,5.4901 c 5.90007,5.94407 6.21329,6.40595 5.98131,8.82021 -0.2245,2.33636 -2.07677,4.18863 -4.41313,4.41312 -2.41441,0.232 -2.87592,-0.081 -8.82316,-5.98424 l -5.49306,-5.4524 -5.354864,5.34266 c -3.43039,3.42257 -5.70838,5.48881 -6.33855,5.74931 -1.19423,0.49369 -2.96919,0.50954 -4.04339,0.0361 z m 9.12813,-7.96383 c 4.414734,-4.38746 6.154364,-5.95312 6.614584,-5.95312 0.46022,0 2.19985,1.56566 6.61458,5.95312 5.92736,5.89073 6.00195,5.95313 7.11647,5.95313 1.58863,0 2.67312,-1.08449 2.67312,-2.67312 0,-1.11452 -0.0624,-1.18911 -5.95313,-7.11647 -4.38746,-4.41473 -5.95312,-6.15436 -5.95312,-6.61458 0,-0.46022 1.56566,-2.19985 5.95312,-6.61458 5.89073,-5.92736 5.95313,-6.00195 5.95313,-7.11647 0,-1.58863 -1.08449,-2.67312 -2.67312,-2.67312 -1.11452,0 -1.18911,0.0624 -7.11647,5.95313 -4.41473,4.38746 -6.15436,5.95312 -6.61458,5.95312 -0.46022,0 -2.19985,-1.56566 -6.614584,-5.95312 -5.92736,-5.89073 -6.00195,-5.95313 -7.11647,-5.95313 -1.58863,0 -2.67312,1.08449 -2.67312,2.67312 0,1.11452 0.0624,1.18911 5.95313,7.11647 4.38746,4.41473 5.95312,6.15436 5.95312,6.61458 0,0.46022 -1.56566,2.19985 -5.95312,6.61458 -5.89073,5.92736 -5.95313,6.00195 -5.95313,7.11647 0,1.58863 1.08449,2.67312 2.67312,2.67312 1.11452,0 1.18911,-0.0624 7.11647,-5.95313 z"
       id="path1035"
       sodipodi:nodetypes="cscscsssccccsssccsssccscccssssssssssssssssscsss" /></g></svg>
