<?xml version="1.0" encoding="UTF-8" standalone="no"?>
<!-- Created with Inkscape (http://www.inkscape.org/) -->

<svg
   width="41.274437mm"
   height="66.248306mm"
   viewBox="0 0 41.274437 66.248306"
   version="1.1"
   id="svg5"
   xml:space="preserve"
   xmlns:inkscape="http://www.inkscape.org/namespaces/inkscape"
   xmlns:sodipodi="http://sodipodi.sourceforge.net/DTD/sodipodi-0.dtd"
   xmlns="http://www.w3.org/2000/svg"
   xmlns:svg="http://www.w3.org/2000/svg"><sodipodi:namedview
     id="namedview7"
     pagecolor="#ffffff"
     bordercolor="#000000"
     borderopacity="0.25"
     inkscape:showpageshadow="2"
     inkscape:pageopacity="0.0"
     inkscape:pagecheckerboard="0"
     inkscape:deskcolor="#d1d1d1"
     inkscape:document-units="mm"
     showgrid="false"
     inkscape:zoom="0.72248176"
     inkscape:cx="397.93392"
     inkscape:cy="562.64396"
     inkscape:window-width="1854"
     inkscape:window-height="1011"
     inkscape:window-x="0"
     inkscape:window-y="0"
     inkscape:window-maximized="1"
     inkscape:current-layer="layer1" /><defs
     id="defs2" /><g
     inkscape:label="Capa 1"
     inkscape:groupmode="layer"
     id="layer1"
     transform="translate(-26.864642,-60.183195)"><path
       style="fill:#000000;fill-opacity:1;stroke:none;stroke-width:0.0870248"
       d="m 31.827437,78.779332 c -0.79993,-0.31033 -1.56435,-0.71465 -2.43669,-0.77548 -2.26378,-0.15778 -2.72179,1.90401 -2.46028,3.73432 0.34201,2.39353 1.68271,4.37099 3.9397,5.30746 0.7552,0.31338 1.62475,0.58916 2.43669,0.34915 0.71308,3.08085 3.46663,5.58403 6.09174,7.08564 0.99843,0.57114 2.23401,1.16761 3.39396,1.26873 -0.8927,0.85198 -1.87216,1.55549 -2.65773,2.52372 -1.78401,2.198598 -2.84815,4.874168 -4.06563,7.397108 -0.82786,1.71552 -1.95492,3.87477 -1.79697,5.83066 0.20398,2.52511 4.1858,2.941 5.21339,0.78322 h 0.087 c 0,2.34601 0.40075,4.84197 0.88861,7.13603 0.26012,1.22339 0.7311,2.58167 0.79419,3.82778 0.0213,0.42033 -0.43434,0.54199 -0.72553,0.73118 -0.64241,0.41755 -1.21304,1.11114 -0.75128,1.87713 0.38848,0.64433 1.14768,0.52589 1.79558,0.52589 1.38343,0 3.41346,0.36246 4.37874,-0.87155 0.6606,-0.84441 0.73188,-2.10522 0.8471,-3.13159 0.21129,-1.88208 0.45583,-3.76896 0.60482,-5.65661 0.53581,0.48273 0.39413,1.49204 0.48525,2.17562 0.20842,1.56392 0.31007,3.13594 0.53546,4.69934 0.10452,0.72491 0.2073,1.60134 0.74842,2.14725 0.99547,1.00452 2.8766,0.55051 4.14855,0.55051 0.46419,0 1.14037,0.12149 1.56271,-0.1026 1.40545,-0.7458 -0.3025,-2.29258 -1.12758,-2.59516 0.85371,-3.68994 1.74049,-7.68142 1.74049,-11.48727 h 0.087 c 1.07223,2.10025 4.6064,2.14803 5.09373,-0.43512 0.29676,-1.5728 -0.56252,-3.29659 -1.16456,-4.69934 -1.1737,-2.73519 -2.36342,-5.44766 -4.04613,-7.919248 -0.8263,-1.21374 -1.84719,-2.55114 -3.18998,-3.21992 3.89888,-1.65599 8.41956,-3.92229 9.4857,-8.52843 0.88469,0.37334 1.86903,0.0632 2.69777,-0.32904 2.16326,-1.02376 3.35437,-3.19555 3.63015,-5.50162 0.2582,-2.15864 -0.51728,-3.81081 -2.93396,-3.45479 -0.84753,0.12488 -1.51144,0.57584 -2.26264,0.93108 1.16474,-2.85894 -0.83465,-5.93988 -1.56644,-8.61545 0.35366,-0.0968 0.86406,-0.47455 1.21834,-0.43939 0.40101,0.0397 0.76643,0.59385 1.13132,0.77574 1.17754,0.58707 2.64651,0.30537 3.52729,-0.69255 1.48412,-1.6814 0.58899,-4.58881 -1.69977,-4.92612 -0.51832,-0.0764 -1.07519,-0.0259 -1.56644,0.15604 -0.2837,0.10512 -0.64303,0.45322 -0.95727,0.33704 -0.65739,-0.24306 -1.35359,-1.12479 -1.91455,-1.56235 -1.03854,-0.81003 -2.21782,-1.48029 -3.39396,-2.06832 -9.06267,-4.531295 -20.93406,0.20825 -24.49094,9.63825 -0.78287,2.07563 -2.02724,4.95032 -1.35541,7.22306 m 28.97925,-9.39868 c -1.02272,-1.75224 -2.23558,-4.46585 -4.26422,-5.22148 l -0.3481,0.6962 0.17405,-0.087 -0.17405,0.17405 v 0.087 c 1.38074,0.97267 2.40598,2.5721 3.25447,4.00314 0.37394,0.63075 0.80132,1.25037 0.8357,2.00157 -1.33696,-0.93056 -2.58255,-1.90837 -4.09017,-2.57263 -5.21704,-2.2985 -11.24037,-2.26987 -16.62172,-0.55774 -1.79454,0.57088 -3.17623,1.8169 -4.87339,2.52119 1.05117,-2.51153 3.11453,-4.44279 5.30851,-5.93456 1.00688,-0.68472 2.0208,-1.48595 3.13289,-1.99339 4.19224,-1.91281 9.53113,-1.89984 13.66289,0.16613 1.26107,0.63049 2.40345,1.46549 3.56801,2.25054 0.57837,0.38987 1.40815,0.90019 1.77339,1.50849 0.20834,0.34697 -0.0577,0.69524 -0.13532,1.04395 -0.24463,1.09764 0.0464,1.44183 -1.20294,1.91454 m -5.30851,-6.0047 0.17405,0.17405 -0.17405,-0.17405 m 0.26107,0.17405 0.087,0.087 -0.087,-0.087 m 0.17405,0.087 0.17405,0.17405 -0.17405,-0.17405 m 0.26107,0.17405 0.087,0.087 -0.087,-0.087 m 0.26108,0.17405 0.087,0.087 -0.087,-0.087 m 0.17405,0.087 0.087,0.087 -0.087,-0.087 m -1.13132,0.43512 0.087,0.087 -0.087,-0.087 m 0.17405,0.087 0.087,0.087 -0.087,-0.087 m 0.43512,0.26107 0.087,0.087 -0.087,-0.087 m 8.87652,1.25229 c 2.36612,-0.16744 2.31391,3.59595 0,3.66809 -2.29936,0.0717 -2.22661,-3.5104 0,-3.66809 m -2.87181,11.7144 h -0.087 c -1.34158,-2.02819 -3.87052,-3.32808 -6.09174,-4.14942 -5.23602,-1.9363 -10.87984,-2.14612 -16.1866,-0.37586 -1.83327,0.61152 -3.53678,1.65356 -5.04744,2.84231 -0.67984,0.53503 -1.47237,1.13663 -1.82752,1.94405 -0.25968,-0.61883 0.008,-1.44409 0.0723,-2.08859 0.34984,-3.4964 2.80637,-5.38501 5.93239,-6.66158 5.22697,-2.13454 11.42583,-1.93734 16.62173,0.13472 1.92751,0.76869 4.77818,2.20677 5.81456,4.09016 0.65503,1.19041 0.79566,2.92682 0.79932,4.26421 m -1.65347,0 c 1.58263,1.11488 1.49021,2.74511 1.32016,4.52529 -0.27995,2.92917 -1.04186,5.93544 -3.06727,8.18033 -5.45019,6.04108 -16.58805,6.93492 -22.14649,0.3481 -1.83675,-2.17658 -2.90185,-5.00645 -3.16457,-7.83223 0.0558,-1.920214 -0.19653,-4.760699 1.958418,-6.041312 0.748089,-0.655203 1.013132,-0.678018 1.429022,-0.920648 1.29893,-0.75772 2.62997,-1.37542 4.09016,-1.74049 l 2.78479,-0.6962 c 0.73119,-0.18275 1.182263,-0.288098 2.26265,-0.244708 0.796874,-0.09765 1.847893,-0.203635 2.715425,-0.105988 0.307634,0.03463 0.780602,0.207533 0.939615,0.176646 1.43295,0.3582 2.91263,0.51058 4.35123,0.87025 0.65112,0.16282 1.27553,0.57019 1.91455,0.78322 1.18075,0.39362 2.46367,0.89044 3.48099,1.65347 0.373297,0.295358 0.370018,0.268529 1.13132,1.0443 m -25.6723,0.95727 c 0.0964,0.09641 0.0964,0.09641 0,0 m -2.69777,3.82909 h -0.087 c -0.4547,-0.64555 -1.10408,-1.18623 -1.82752,-1.50849 -0.25315,-0.11278 -0.76147,-0.35001 -0.90001,0.0423 -0.15073,0.42677 0.42164,0.98652 0.64999,1.29215 0.76312,1.02132 1.24811,2.20268 2.59969,2.52372 l 0.3481,1.47942 c -2.54469,-0.62718 -4.75199,-2.37229 -4.78601,-5.22148 -0.007,-0.57976 -0.15195,-1.51893 0.28805,-1.97729 0.79175,-0.82499 3.3521,0.20964 3.73684,1.12306 0.22766,0.54068 -0.0221,1.64172 -0.0221,2.24663 m 30.02354,3.82909 0.60918,-1.56645 -0.087,0.26107 c 1.009113,-0.643771 1.565823,-1.080491 2.10312,-2.00156 0.25733,-0.43095 1.55522,-1.57202 0.94274,-2.07407 -0.31738,-0.2602 -0.68306,0.0683 -0.95727,0.23201 -0.66461,0.39692 -1.24863,0.95188 -1.91455,1.31991 0.16805,-0.68193 -0.11461,-1.65182 0.13951,-2.24437 0.12079,-0.28161 0.48577,-0.4259 0.73074,-0.57732 0.69838,-0.43182 2.41128,-1.33488 3.08816,-0.47577 0.46559,0.59099 0.22923,1.84153 0.0751,2.51423 -0.60734,2.65008 -2.18293,3.99897 -4.72971,4.61232 m -27.49982,-7.39711 c 0.0964,0.0964 0.0964,0.0964 0,0 m -0.26107,0.3481 c 0.0964,0.09641 0.0964,0.09641 0,0 m -0.3481,0.43512 c 0.09641,0.0964 0.09641,0.0964 0,0 m -0.26108,0.26108 c -0.0964,0.192866 -0.0964,0.192866 0,0 m 6.35281,1.17214 c -2.00783,0.3762 -1.75033,3.87138 0.3481,3.48647 2.378219,-0.231715 1.44595,-3.73138 -0.3481,-3.48647 m 15.92553,1.96075 c 0.132752,-0.948592 -0.36117,-1.560463 -0.52345,-1.68402 -1.15143,-0.82873 -2.72388,0.13872 -2.68515,1.50997 0.0587,2.07876 2.89984,2.22618 3.2086,0.17405 m 1.91455,0.52215 0.087,0.087 -0.087,-0.087 m -10.52991,2.13315 c -1.08024,0.14437 -0.61535,1.22061 0.34766,1.06814 0.94352,-0.14933 0.40032,-1.16805 -0.34766,-1.06814 m 9.74668,2.13106 0.087,0.087 -0.087,-0.087 m -14.09801,8.87653 c 1.25238,2.16056 4.44044,2.19633 6.52686,1.63998 0.88678,-0.23645 2.01828,-0.67418 2.43669,-1.55296 1.00749,0.3454 2.0121,1.82813 2.58081,2.69777 1.73527,2.653378 3.11235,5.642068 4.20251,8.615448 0.43104,1.1757 1.70134,4.26178 -0.60456,4.23436 -0.77504,-0.009 -2.24698,-0.94465 -2.55827,-1.6519 -0.30476,-0.69272 -0.12218,-1.99635 -0.1408,-2.75651 -0.0277,-1.13028 -0.31355,-2.28109 -0.49935,-3.39397 -0.1355,-0.8115 -0.28092,-1.65312 -0.53738,-2.4366 -0.0984,-0.30067 -0.32765,-0.66209 -0.7009,-0.55165 -0.71995,0.21312 -0.27647,1.28135 -0.17535,1.76991 0.37534,1.8129 0.85458,3.70934 0.86999,5.56958 -4.780034,-0.12906 -9.515567,-0.0635 -13.83694,0 0.0151,-1.827 0.42686,-3.78889 0.82012,-5.56959 0.11331,-0.51301 0.54295,-1.53903 -0.21251,-1.78 -0.37317,-0.11897 -0.60387,0.26473 -0.7009,0.56174 -0.26108,0.79959 -0.32321,1.6989 -0.49752,2.52363 -0.3072,1.45288 -0.43156,2.96102 -0.53268,4.43827 -0.0367,0.53572 0.1556,1.31163 -0.0603,1.80898 -0.33426,0.76982 -1.9256,1.53076 -2.73232,1.49387 -2.18606,-0.10008 -0.94752,-3.1382 -0.5265,-4.26013 1.13281,-3.0188 2.52242,-6.02542 4.32687,-8.702468 0.58629,-0.86973 1.53121,-2.35037 2.55244,-2.69777 m 4.09147,4.154738 c -1.06127,0.41606 -0.4581,2.10025 0.60778,1.71038 1.17275,-0.42894 0.54034,-2.16039 -0.60778,-1.71038 m 0,3.56801 c -1.05378,0.41328 -0.46071,2.27561 0.60656,1.87208 1.15282,-0.43582 0.58507,-2.33931 -0.60656,-1.87208 m 7.48282,6.11419 -0.36289,3.48099 -0.79114,5.48256 -0.53198,2.61074 -0.214,1.3555 1.46489,1.60334 c -1.01889,0 -2.03177,-0.085 -3.04587,-0.087 -0.46575,-9.6e-4 -1.02271,0.0151 -1.29318,-0.44017 -0.38091,-0.64085 -0.38439,-1.62214 -0.46176,-2.34462 -0.16134,-1.50684 -0.27108,-3.02385 -0.4708,-4.52529 -0.12201,-0.91794 -0.0859,-2.16909 -1.34227,-2.16866 -1.15761,4.4e-4 -1.34819,1.35715 -1.389,2.25569 -0.0735,1.61944 -0.32461,3.26795 -0.56218,4.87338 -0.0903,0.61022 -0.14029,1.54469 -0.4977,2.06432 -0.24584,0.35749 -0.74624,0.26742 -1.11914,0.2931 -1.07449,0.0741 -2.14054,0.0793 -3.21991,0.0793 0.24288,-0.78758 1.60909,-0.78854 1.61692,-1.7405 0.008,-0.96406 -0.4514,-2.0094 -0.62275,-2.95884 -0.40824,-2.26282 -0.78731,-4.49962 -1.00897,-6.78793 -0.0766,-0.79132 -0.12827,-1.55574 -0.16265,-2.34967 -0.01,-0.22157 -0.14576,-0.61361 0.0572,-0.78079 20.430751,0.0319 -4.546719,-0.1788 13.95721,0.0839 m -16.53476,14.88124 0.087,0.087 z"
       id="path436"
       sodipodi:nodetypes="cccccsccsccccsccscsccscscccccccccccccccccscsccccccccccccccccccssccccccccccccccccccccccccccccccsccccccccscsccccsccccccsccsccccccscccccccccccccccscccccccccccccccccscccccccccccsccsccsssccccsccccccccccsccccccccccccccccscccccccccccc"
       inkscape:export-filename="elfo.png"
       inkscape:export-xdpi="96"
       inkscape:export-ydpi="96" /></g></svg>
