<?xml version="1.0" encoding="UTF-8" standalone="no"?>
<!-- Created with Inkscape (http://www.inkscape.org/) -->

<svg
   version="1.1"
   id="svg1"
   width="2547.8667"
   height="1145.2"
   viewBox="0 0 2547.8667 1145.2"
   sodipodi:docname="formulario.svg"
   inkscape:version="1.2.2 (b0a8486541, 2022-12-01)"
   xmlns:inkscape="http://www.inkscape.org/namespaces/inkscape"
   xmlns:sodipodi="http://sodipodi.sourceforge.net/DTD/sodipodi-0.dtd"
   xmlns="http://www.w3.org/2000/svg"
   xmlns:svg="http://www.w3.org/2000/svg">
  <defs
     id="defs1">
    <clipPath
       clipPathUnits="userSpaceOnUse"
       id="clipPath268">
      <path
         d="M 6122.83,0.0117188 H 0 V 8588.98 h 6122.83 z"
         id="path268" />
    </clipPath>
    <clipPath
       clipPathUnits="userSpaceOnUse"
       id="clipPath270">
      <path
         d="M 6122.83,0.0117188 H 0 V 8588.98 h 6122.83 z"
         id="path270" />
    </clipPath>
    <clipPath
       clipPathUnits="userSpaceOnUse"
       id="clipPath272">
      <path
         d="M 6122.83,0.0117188 H 0 V 8588.98 h 6122.83 z"
         id="path272" />
    </clipPath>
    <clipPath
       clipPathUnits="userSpaceOnUse"
       id="clipPath274">
      <path
         d="M 6122.83,0.0117188 H 0 V 8588.98 h 6122.83 z"
         id="path274" />
    </clipPath>
    <clipPath
       clipPathUnits="userSpaceOnUse"
       id="clipPath276">
      <path
         d="M 6122.83,0.0117188 H 0 V 8588.98 h 6122.83 z"
         id="path276" />
    </clipPath>
    <clipPath
       clipPathUnits="userSpaceOnUse"
       id="clipPath278">
      <path
         d="M 6122.83,0.0117188 H 0 V 8588.98 h 6122.83 z"
         id="path278" />
    </clipPath>
    <clipPath
       clipPathUnits="userSpaceOnUse"
       id="clipPath280">
      <path
         d="M 6122.83,0.0117188 H 0 V 8588.98 h 6122.83 z"
         id="path280" />
    </clipPath>
    <clipPath
       clipPathUnits="userSpaceOnUse"
       id="clipPath282">
      <path
         d="M 6122.83,0.0117188 H 0 V 8588.98 h 6122.83 z"
         id="path282" />
    </clipPath>
    <clipPath
       clipPathUnits="userSpaceOnUse"
       id="clipPath284">
      <path
         d="M 6122.83,0.0117188 H 0 V 8588.98 h 6122.83 z"
         id="path284" />
    </clipPath>
    <clipPath
       clipPathUnits="userSpaceOnUse"
       id="clipPath286">
      <path
         d="M 6122.83,0.0117188 H 0 V 8588.98 h 6122.83 z"
         id="path286" />
    </clipPath>
    <clipPath
       clipPathUnits="userSpaceOnUse"
       id="clipPath288">
      <path
         d="M 6122.83,0.0117188 H 0 V 8588.98 h 6122.83 z"
         id="path288" />
    </clipPath>
    <clipPath
       clipPathUnits="userSpaceOnUse"
       id="clipPath290">
      <path
         d="M 6122.83,0.0117188 H 0 V 8588.98 h 6122.83 z"
         id="path290" />
    </clipPath>
    <clipPath
       clipPathUnits="userSpaceOnUse"
       id="clipPath292">
      <path
         d="M 6122.83,0.0117188 H 0 V 8588.98 h 6122.83 z"
         id="path292" />
    </clipPath>
    <clipPath
       clipPathUnits="userSpaceOnUse"
       id="clipPath294">
      <path
         d="M 6122.83,0.0117188 H 0 V 8588.98 h 6122.83 z"
         id="path294" />
    </clipPath>
    <clipPath
       clipPathUnits="userSpaceOnUse"
       id="clipPath296">
      <path
         d="M 6122.83,0.0117188 H 0 V 8588.98 h 6122.83 z"
         id="path296" />
    </clipPath>
    <clipPath
       clipPathUnits="userSpaceOnUse"
       id="clipPath298">
      <path
         d="M 6122.83,0.0117188 H 0 V 8588.98 h 6122.83 z"
         id="path298" />
    </clipPath>
    <clipPath
       clipPathUnits="userSpaceOnUse"
       id="clipPath300">
      <path
         d="M 6122.83,0.0117188 H 0 V 8588.98 h 6122.83 z"
         id="path300" />
    </clipPath>
    <clipPath
       clipPathUnits="userSpaceOnUse"
       id="clipPath302">
      <path
         d="M 6122.83,0.0117188 H 0 V 8588.98 h 6122.83 z"
         id="path302" />
    </clipPath>
    <clipPath
       clipPathUnits="userSpaceOnUse"
       id="clipPath304">
      <path
         d="M 6122.83,0.0117188 H 0 V 8588.98 h 6122.83 z"
         id="path304" />
    </clipPath>
    <clipPath
       clipPathUnits="userSpaceOnUse"
       id="clipPath306">
      <path
         d="M 6122.83,0.0117188 H 0 V 8588.98 h 6122.83 z"
         id="path306" />
    </clipPath>
    <clipPath
       clipPathUnits="userSpaceOnUse"
       id="clipPath308">
      <path
         d="M 6122.83,0.0117188 H 0 V 8588.98 h 6122.83 z"
         id="path308" />
    </clipPath>
    <clipPath
       clipPathUnits="userSpaceOnUse"
       id="clipPath310">
      <path
         d="M 6122.83,0.0117188 H 0 V 8588.98 h 6122.83 z"
         id="path310" />
    </clipPath>
    <clipPath
       clipPathUnits="userSpaceOnUse"
       id="clipPath312">
      <path
         d="M 6122.83,0.0117188 H 0 V 8588.98 h 6122.83 z"
         id="path312" />
    </clipPath>
    <clipPath
       clipPathUnits="userSpaceOnUse"
       id="clipPath314">
      <path
         d="M 6122.83,0.0117188 H 0 V 8588.98 h 6122.83 z"
         id="path314" />
    </clipPath>
    <clipPath
       clipPathUnits="userSpaceOnUse"
       id="clipPath316">
      <path
         d="M 6122.83,0.0117188 H 0 V 8588.98 h 6122.83 z"
         id="path316" />
    </clipPath>
  </defs>
  <sodipodi:namedview
     id="namedview1"
     pagecolor="#ffffff"
     bordercolor="#000000"
     borderopacity="0.25"
     inkscape:showpageshadow="2"
     inkscape:pageopacity="0.0"
     inkscape:pagecheckerboard="0"
     inkscape:deskcolor="#d1d1d1"
     inkscape:zoom="0.52337988"
     inkscape:cx="806.29771"
     inkscape:cy="555.04617"
     inkscape:window-width="1854"
     inkscape:window-height="1011"
     inkscape:window-x="0"
     inkscape:window-y="0"
     inkscape:window-maximized="1"
     inkscape:current-layer="g1"
     showgrid="false" />
  <g
     id="g1"
     inkscape:groupmode="layer"
     inkscape:label="1">
    <path
       id="path267"
       d="m 3138.3,5118.78 c 3.16,-3.5 6.24,-7.07 9.46,-10.52 49.9,-53.44 99.9,-106.78 149.66,-160.35 12.29,-13.24 23.95,-27.09 35.58,-40.92 5.25,-6.24 3.61,-11.36 -4.14,-14.67 -4.33,-1.84 -8.84,-3.28 -13.32,-4.76 -57.53,-19.12 -113.33,-42.53 -168.57,-67.38 -7.88,-3.55 -15.83,-7 -23.95,-9.94 -7.78,-2.81 -12.11,-0.07 -13.04,8.3 -2,17.96 -3.57,35.96 -5.36,53.95 -4.91,49.34 -6.61,98.81 -4.65,148.37 0,28.31 -0.71,56.64 0.3,84.91 0.51,14.28 -1.89,29.66 8.13,42.33 12.85,-6.83 20.54,-18.92 29.9,-29.32 z m 1857.38,1141.41 c -2.59,19.04 -14.68,31.67 -33.77,34.09 -7.73,0.98 -15.85,0.96 -23.54,-0.23 -19.48,-3.04 -38.45,-8.07 -56.85,-15.58 -38.81,-15.83 -75.28,-36.28 -111.37,-57.22 -64.11,-37.2 -129.11,-72.64 -195.51,-105.59 -28.22,-14.01 -55.91,-29.12 -83.61,-44.16 -39.49,-21.44 -79.18,-42.37 -120.74,-59.66 -60.77,-25.29 -124.3,-40.36 -188.77,-52.1 -75.21,-13.68 -150.25,-28.26 -224.3,-47.28 -72.74,-18.69 -147.12,-27.04 -221.21,-37.34 -8.24,-1.14 -15.59,0.33 -22.12,5.75 -7.27,6.03 -14.78,11.79 -22.1,17.78 -53.04,43.49 -103.33,90.11 -154.14,136.11 -59.57,53.95 -119.55,107.52 -177.36,163.33 -79.51,76.75 -158.24,154.38 -230.32,238.39 0,0 -14.85,192.94 -18.92,289.32 -5.59,132.46 -11.85,264.69 -17.34,397.18 -4.14,99.89 -7.73,199.97 -11.19,300.07 -2.78,80.51 -5.47,161.07 -7.37,241.75 -2.42,102.54 -3.97,205.23 -5.96,307.84 -0.21,10.91 -0.89,221.75 -1.21,232.65 -2.43,84.98 -5.04,169.94 -7.17,254.97 -1.97,78.5 -3.41,157.12 -5.11,235.69 -0.14,6.53 -0.3,13.14 -0.75,19.55 -2.24,32.06 -9.45,50.29 -20.83,53.05 -8.83,2.15 -16.14,-9.12 -20.04,-37.15 -7.96,-57.13 -6.35,-98.97 -6.66,-161.03 -0.37,-72.12 0.22,-144.42 1.65,-216.46 1.85,-93.82 5.67,-387.38 7.32,-481.21 2.15,-122.33 5.45,-244.32 9.17,-366.34 4.58,-150.61 13.51,-299.34 22.78,-448.03 8.07,-129.28 16.04,-258.61 21.13,-389.14 2.82,-72.22 6.99,-240.49 8.48,-252.42 0.93,-7.4 -0.37,-13.95 -4.72,-20.11 -29.56,-41.85 -67.58,-100.7 -98.42,-141.56 -66.48,-88.1 -137.34,-172.7 -211.57,-254.37 -47.17,-51.89 -95.38,-102.85 -143.93,-153.45 -40.37,-42.09 -82,-82.97 -122.9,-124.55 -23.26,-23.65 -48.31,-45.15 -74.22,-65.84 -31.11,-24.84 -65.11,-44.17 -102.04,-58.74 -11.91,-4.69 -23.98,-7.3 -36.82,-7.2 -28.37,0.21 -56.75,0.06 -85.13,0.06 -44.92,0.02 -89.74,-2.27 -134.62,-4.14 -54.36,-2.27 -108.5,-6.73 -162.58,-11.69 -70.73,-6.48 -140.35,-20.75 -209.09,-38.12 -69.5,-17.56 -138.26,-38.07 -205.25,-64.05 -56.71,-22 -111.68,-47.27 -163.59,-79.24 -45.78,-28.18 -87.97,-61.16 -130.39,-93.9 -13.12,-10.13 -25.81,-20.73 -36.99,-33.03 -11.78,-12.97 -21.51,-27.18 -26.48,-44.23 -7.8,-26.74 1.85,-45.18 28.3,-52.77 13.64,-3.9 27.66,-6.27 41.97,-6.23 27.57,0.07 55.01,0.28 82.58,3.27 68.48,7.43 135.17,22.26 200.44,43.94 106.21,35.26 210.71,75.34 316.06,113.03 76.59,27.4 150.61,60.51 221.03,101.42 16.35,9.51 33.02,18.46 49.7,27.39 83.77,44.84 173.2,75.62 263.04,105.29 9.64,3.18 19.96,4.96 30.09,5.82 18.73,1.6 21.12,-7.36 17.31,-19 -0.49,-1.49 -0.66,-3.08 -1,-4.62 -13.33,-59.28 -20.73,-119.5 -28.15,-179.71 -4.05,-32.82 -6.88,-65.8 -10.66,-98.66 -3.87,-33.64 -8.38,-67.21 -12.34,-100.85 -6.65,-56.38 -16.31,-112.26 -27.64,-167.85 -10.7,-52.55 -24.79,-104.25 -39.29,-155.85 -14.5,-51.63 -26.16,-103.91 -33.51,-157.1 -5.61,-40.57 -11.42,-81.12 -16.96,-121.7 -3.52,-25.75 -8.12,-51.46 -9.82,-77.35 -4.6,-70.29 -0.89,-140.19 13.79,-209.28 2.63,-12.39 6.44,-24.39 12.59,-35.53 14.78,-26.75 41.48,-34.48 68.41,-19.75 10.46,5.72 19.63,13.2 27.89,21.73 34.31,35.43 62.82,75.05 81.42,120.82 35.97,88.55 53.81,181.17 56.11,276.47 1.08,44.94 2.45,89.89 6.84,134.5 5.16,52.55 6.67,105.32 12.18,157.8 2.79,26.62 5.34,53.27 8,79.91 3.45,34.48 7.42,68.92 10.13,103.46 1.23,15.65 0.89,31.57 -0.4,47.24 -4.73,57.42 -14.71,114.04 -27.87,170.11 -13.15,56.01 -26.15,112.03 -34.3,169.06 -4.02,28.09 -8.11,56.1 -8.25,84.6 -0.05,12.71 3.4,23.1 13.29,31.31 4.23,3.51 7.93,7.67 11.99,11.41 40.54,37.39 81.14,74.74 121.67,112.15 23.74,21.9 47.4,43.9 71.1,65.86 32.94,30.53 66.1,60.82 98.75,91.65 44.75,42.27 85.6,88.21 125.6,134.91 47.71,55.71 93.14,113.2 132.59,175.17 19.48,30.58 38.91,61.18 58.5,91.7 3.37,5.26 7.14,10.33 11.28,15.01 1.71,1.92 4.98,0.68 5.59,-1.7 1.15,-4.51 1.57,-9.25 1.98,-13.92 2.37,-27.46 4.71,-54.92 6.94,-82.4 2.55,-31.39 5.95,-62.75 7.26,-94.2 2.78,-66.98 0.29,-133.99 -0.48,-200.98 -0.46,-40.93 -3.19,-81.85 -4.95,-122.77 -0.13,-3.15 -0.62,-6.28 -0.85,-9.42 -2.48,-33.77 -5.41,-67.51 -7.27,-101.31 -2.42,-44.04 -3.99,-88.14 -5.92,-132.21 -0.07,-1.57 -0.08,-3.16 -0.28,-4.72 -6.58,-50.91 -3.08,-102.3 -7.49,-153.39 -3.44,-39.96 -2.51,-80.26 -4.24,-120.42 -3.42,-79.53 -3.2,-159.27 0.12,-238.77 2.09,-50.43 2.23,-100.81 3.3,-151.22 0.33,-15.76 0.23,-31.53 0.56,-47.29 0.17,-7.87 0.6,-15.75 1.41,-23.58 3.01,-28.77 3.36,-29.32 -22.55,-41.66 -53.57,-25.54 -103.93,-56.39 -151.7,-91.37 -36.86,-27 -72.86,-55.22 -108.92,-83.3 -23.62,-18.4 -47.37,-36.74 -69.83,-56.5 -44.39,-39.05 -86.67,-80.38 -128.77,-121.88 -33.61,-33.14 -59.66,-71.23 -77.73,-114.69 -7.86,-18.9 -15.51,-38.03 -21.29,-57.63 -18.05,-61.25 -38.03,-121.87 -58.04,-182.48 -5.42,-16.44 -9.26,-33.4 -13.57,-50.19 -3.38,-13.11 -3.8,-26.58 -2.43,-39.94 2.78,-27.12 21.74,-40.35 48.27,-33.45 9.07,2.35 18.03,5.95 26.35,10.3 58.2,30.42 113.36,65.34 160.78,111.29 50.95,49.34 99.98,100.61 151.86,149.04 22.99,21.47 43.78,45.33 65.02,68.61 17.52,19.2 34.83,38.65 51.18,58.84 36.21,44.71 71.48,90.17 107.69,134.87 15.85,19.57 32.92,38.18 49.76,56.93 5.51,6.13 10.24,4.88 11.25,-2.92 3.11,-24.2 5.81,-48.46 8.32,-72.74 3.89,-37.6 7.38,-75.24 11.23,-112.85 5.6,-54.84 11.58,-109.64 17.02,-164.5 4.03,-40.75 7.06,-81.6 11.27,-122.33 4.79,-46.25 8.69,-92.53 9.15,-139.07 0.1,-9.43 1.03,-18.86 1.9,-28.28 3.04,-32.95 0.65,-66.21 5.85,-99.05 1.36,-8.6 -2.34,-15.33 -10.28,-19.46 -7.69,-4.01 -15.3,-8.18 -23,-12.14 -86.23,-44.36 -170.74,-91.81 -254.16,-141.2 -29.23,-17.31 -56.89,-37.01 -82.36,-59.42 -35.49,-31.21 -70.22,-63.31 -104.97,-95.35 -24.39,-22.49 -50.21,-43.1 -77.43,-62.02 -46.03,-32 -94.58,-59.84 -143.91,-86.28 -53.91,-28.89 -102.59,-64.88 -146.6,-107 -43.84,-41.95 -86.56,-85.1 -129.37,-128.12 -10.52,-10.57 -20.01,-22.28 -29.06,-34.17 -12.76,-16.76 -18.49,-36.14 -19.77,-57.2 -2.02,-33.38 10.4,-61.72 29.53,-87.73 8.82,-11.99 21.1,-18.86 36.25,-19.5 15.76,-0.66 31.48,-0.56 47.06,2.82 24.75,5.36 48.57,13.41 71.71,23.65 20.9,9.24 41.91,18.24 62.84,27.41 57.01,25 114.8,48.26 170.04,77.16 30.12,15.76 58.83,33.68 84.76,55.76 61.98,52.76 117.79,111.66 170.34,173.63 31.08,36.65 60.84,74.44 90.94,111.91 45.9,57.13 92.03,114.1 137.24,171.77 43.29,55.24 82.63,113.35 121.6,171.7 3.94,5.9 7.82,11.85 12.04,17.53 3.58,4.8 7.77,4.7 11.3,-0.69 18.59,-28.37 38.86,-55.51 59.85,-82.14 12.2,-15.47 24.34,-30.99 36.07,-46.81 35.21,-47.5 68.58,-96.29 102.09,-144.99 51.38,-74.69 101.37,-150.27 149.85,-226.87 35.39,-55.93 70.06,-112.33 110.36,-165.03 41.34,-54.05 91.31,-97.72 150.96,-130.33 20.05,-10.95 40.09,-21.98 60.53,-32.16 26.16,-13.05 51.08,-28.03 75.46,-44.12 19.72,-13.01 40.15,-24.97 60.44,-37.09 10.19,-6.11 21.12,-10.78 32.96,-12.53 20.32,-3.01 31.46,6.34 32.7,27 0.86,14.35 -1.79,28.35 -5.48,42.04 -21.85,81.09 -49.69,159.37 -101.63,227.23 -27.3,35.64 -52.08,73.24 -81.49,107.27 -38.11,44.12 -76.55,87.97 -115.15,131.67 -42.85,48.52 -89.64,93.11 -138.66,135.26 -52.01,44.72 -107.65,84.92 -161.74,127.05 -42.93,33.44 -88.99,62.49 -133.56,93.65 -31,21.67 -62.22,43.04 -93.65,64.1 -9.29,6.23 -14.66,13.09 -13.86,25.07 0.72,10.93 -0.9,22.01 -1.44,33.02 -1.87,38.55 -3.48,77.11 -5.66,115.65 -1.34,23.59 -3.2,47.17 -5.45,70.69 -3.9,40.77 -8.14,81.5 -12.5,122.22 -3.77,35.23 -7.85,70.44 -11.9,105.64 -3.7,32.08 -7.84,64.13 -11.27,96.23 -4.03,37.58 -7.74,75.21 -11.16,112.85 -4.35,47.84 -8.01,95.74 -12.51,143.56 -1.51,15.98 2.97,28.91 13.35,41.1 26.65,31.25 48.91,65.72 71.44,99.96 14.73,22.39 29.5,44.76 44.73,66.81 24.03,34.8 53.53,63.92 89.97,85.86 8.88,5.34 17.25,7.11 26.65,2.09 10.41,-5.57 21.43,-10.17 31.3,-16.57 21.15,-13.71 41.91,-28.06 62.51,-42.6 61.27,-43.25 116.92,-93.47 174.38,-141.43 41.16,-34.36 82.42,-68.49 128.57,-96.2 17.64,-10.59 35.85,-19.84 55.38,-26.35 51.62,-17.19 104.52,-29.83 157.11,-43.48 33.99,-8.83 68.56,-8.71 103.07,-0.82 15.33,3.5 31.05,5.3 46.55,8.06 8.53,1.52 17.12,2.95 25.44,5.28 41.57,11.61 53.16,39.53 32.7,77.58 -9.94,18.49 -24.95,32.52 -40.73,45.56 -42.12,34.8 -88.06,63.91 -137.71,86.67 -66.61,30.56 -133.94,59.52 -201.87,87.09 -53.41,21.67 -107.72,40.62 -164.19,52.41 -39.31,8.21 -78.99,14.68 -118.54,21.76 -34.11,6.11 -68.13,13.12 -102.95,13.73 -12.24,0.21 -20.52,6.46 -28.24,14.86 -26.65,29.03 -53.76,57.63 -80.16,86.88 -33.79,37.44 -67.12,75.27 -103.15,110.63 -28.12,27.6 -55.84,55.62 -83.72,83.48 -4.47,4.45 -8.8,9.03 -13.23,13.53 -5.84,5.92 -8.63,13.04 -8.52,21.34 0.08,6.3 -0.03,12.62 0.22,18.91 1.47,37.78 3.26,75.55 4.48,113.34 2.17,66.93 3.99,133.88 5.98,200.81 0.09,3.15 0.35,6.3 0.54,9.44 2.65,44.03 5.36,88.04 7.93,132.06 2.07,35.39 3.72,70.8 6.03,106.17 1.43,22 3.67,43.95 5.67,65.9 2.35,25.89 5.14,51.73 7.19,77.63 2.35,29.83 2.88,59.86 6.37,89.55 6.15,52.17 1.03,103.87 -4.37,155.55 -4.01,38.38 -9.93,76.55 -14.82,114.83 -0.8,6.22 -1,12.57 -0.89,18.85 0.04,1.91 1.67,4.77 3.29,5.42 1.7,0.69 4.83,-0.08 6.34,-1.37 9.59,-8.17 19.29,-16.26 28.24,-25.11 44.25,-43.81 87.79,-88.35 132.55,-131.63 30.58,-29.55 62.52,-57.72 94.31,-85.98 26.5,-23.56 53.59,-46.44 80.57,-69.45 36.57,-31.19 73.32,-62.17 109.93,-93.32 30,-25.53 59.82,-51.28 89.92,-76.69 7.09,-5.98 10.81,-12.84 11.64,-22.16 1.62,-18.04 3.92,-36.03 6.33,-53.98 6.73,-50 11.17,-100.15 12.82,-150.61 1.03,-31.47 2.87,-62.97 5.68,-94.33 3.39,-37.64 8.03,-75.17 12.44,-112.72 7.34,-62.58 14.15,-125.24 24.24,-187.47 11.11,-68.5 24.97,-136.39 42.79,-203.49 9.57,-36.05 23.8,-70.08 42.2,-102.45 23.62,-41.54 57.67,-72.57 98.38,-96.62 13.68,-8.07 28.85,-12.93 44.84,-13.71 23.5,-1.16 39.09,11.06 44.33,33.83 2.7,11.69 2.31,23.47 1.09,35.28 -0.81,7.83 -2.05,15.66 -2.3,23.51 -1.9,60.9 -12.04,120.61 -25.07,179.98 -11.83,53.94 -25.37,107.42 -43.96,159.43 -16.18,45.26 -33.66,90.06 -50.76,134.98 -25.81,67.77 -52.23,135.27 -82.3,201.31 -28.76,63.15 -54.4,127.58 -75.77,193.65 -5.34,16.49 -10.32,33.1 -15.21,49.73 -1.67,5.69 1.28,9.48 7.06,9.39 5.49,-0.1 11.1,-0.2 16.45,-1.32 46.39,-9.75 93.78,-11.31 140.62,-17.26 35.93,-4.57 71.93,-8.6 107.94,-12.41 38.36,-4.06 76.71,-9.26 115.2,-10.88 46.43,-1.97 92.72,-7.25 139.28,-6.18 3.14,0.07 6.33,-0.07 9.44,-0.53 33.97,-5.06 67.63,-0.05 101.16,4.02 47.9,5.82 93.82,20.44 139.95,33.95 34.25,10.03 66.47,24.71 97.37,42.29 30.82,17.54 61.25,35.77 91.82,53.74 24.55,14.43 47.04,31.69 68.75,50.01 32.53,27.43 63.94,56.34 97.85,81.94 60.69,45.84 97.2,108.62 128.6,175.48 4.79,10.19 6.37,21.1 4.84,32.32"
       style="fill:#99a88e;fill-opacity:0.8;fill-rule:nonzero;stroke:none"
       transform="matrix(0.13333333,0,0,-0.13333333,0,1201.2)"
       clip-path="url(#clipPath268)"
       inkscape:export-filename="formulario2.svg"
       inkscape:export-xdpi="96"
       inkscape:export-ydpi="96" />
    <path
       id="path269"
       d="m 3081.06,3955.78 c 25.39,-0.83 49.36,-6.25 71.46,-20.22 29.09,-18.37 53.2,-41.62 73.28,-69.27 18.15,-24.99 25.58,-54.16 28.35,-83.98 1.65,-17.82 -3.83,-35.8 -10.87,-52.68 -6.41,-15.35 -15.1,-29.37 -24.63,-42.93 -9.96,-14.15 -20.35,-28.02 -29.54,-42.65 -6.86,-10.93 -15.45,-19.81 -25.74,-27.17 -19.86,-14.22 -39.78,-28.12 -65.11,-31.39 -13.4,-1.72 -26.41,-2.15 -39.81,0.32 -39.9,7.35 -73.55,26.87 -104.28,52.24 -15.74,13 -31.4,25.79 -43.7,42.74 -16.16,22.25 -25.69,46.69 -30.71,73.29 -1.19,6.3 0.29,12.39 1.43,18.65 5.92,32.65 22.9,60.03 40.7,87.03 13.11,19.88 29.85,36.65 47.27,52.58 22.5,20.57 48.74,34.46 79.12,39.5 10.82,1.8 21.35,6.17 32.78,3.94"
       style="fill:#9b3b3c;fill-opacity:0.8;fill-rule:nonzero;stroke:none"
       transform="matrix(0.13333333,0,0,-0.13333333,0,1201.2)"
       clip-path="url(#clipPath270)" />
    <path
       id="path271"
       d="m 3313.67,4943.91 c 19.46,0.65 35.73,-1.26 52.15,-3.7 27.65,-4.1 50.64,-15.66 69.7,-36.01 11.35,-12.11 21.9,-24.8 29.83,-39.33 18.68,-34.18 25.62,-70.26 17.9,-109.11 -6.37,-32.05 -16.36,-62.03 -37.21,-88.01 -23.77,-29.6 -53.94,-47.36 -91.26,-53.41 -11.62,-1.88 -23.37,-3.38 -34.71,-6.41 -19.11,-5.1 -37.78,-2.69 -55.68,3.5 -36.3,12.55 -64.55,34.98 -82.07,70.15 -10.3,20.68 -16.81,42.28 -20.11,64.99 -2.7,18.63 -5.45,37.25 -7.96,55.91 -2.88,21.46 0.83,42.51 6.78,62.8 8.29,28.25 28.72,46.41 54.99,58.12 31.94,14.26 64.99,23.73 97.65,20.51"
       style="fill:#9b3b3c;fill-opacity:0.8;fill-rule:nonzero;stroke:none"
       transform="matrix(0.13333333,0,0,-0.13333333,0,1201.2)"
       clip-path="url(#clipPath272)" />
    <path
       id="path273"
       d="m 3401.74,3460.43 c -41.61,-1.37 -76.4,14.09 -105.74,43.09 -14.45,14.29 -22.15,32.37 -28.43,50.95 -7.03,20.8 -12.18,42.34 -14.27,64.18 -3.61,37.71 5.72,72.26 32.98,99.51 38.41,38.39 82.65,66.92 137.17,77.93 23.65,4.77 46.55,5.78 69.78,-0.5 11.53,-3.11 22.43,-7.78 31.3,-15.76 25.85,-23.25 48.87,-48.63 63.59,-80.93 10.74,-23.57 14.6,-47.81 12.82,-73.35 -0.45,-6.42 -2.36,-12.31 -4.87,-18.09 -8.84,-20.34 -20.55,-39.11 -35.03,-55.66 -24.37,-27.86 -51.84,-52.36 -83.03,-72.77 -18.44,-12.08 -38.17,-17.83 -59.77,-18.58 -5.5,-0.18 -11,-0.02 -16.5,-0.02"
       style="fill:#9b3b3c;fill-opacity:0.8;fill-rule:nonzero;stroke:none"
       transform="matrix(0.13333333,0,0,-0.13333333,0,1201.2)"
       clip-path="url(#clipPath274)" />
    <path
       id="path275"
       d="m 3408.11,5057.44 c -0.35,19.5 -0.61,36.77 4.75,53.62 4.36,13.69 10.59,26.08 20.59,36.65 26.79,28.3 59.06,42.3 98.47,43.27 38.18,0.94 71,-10.28 100.35,-33.87 8.56,-6.89 17.6,-13.18 26.47,-19.7 19.47,-14.32 34.01,-33.17 44.18,-54.5 11.25,-23.58 10.3,-49.15 2.89,-73.81 -7.98,-26.55 -21.19,-50.85 -37.34,-73.3 -9.62,-13.36 -20.41,-25.83 -31.79,-37.91 -20.73,-22 -46.28,-30.93 -75.45,-33.27 -34.57,-2.77 -62.89,10.95 -88.47,32.17 -28.8,23.88 -47.05,54.74 -56.85,90.45 -6.47,23.58 -8.84,47.86 -7.8,70.2"
       style="fill:#9b3b3c;fill-opacity:0.8;fill-rule:nonzero;stroke:none"
       transform="matrix(0.13333333,0,0,-0.13333333,0,1201.2)"
       clip-path="url(#clipPath276)" />
    <path
       id="path277"
       d="m 3253.18,5262.86 c 14.88,1.46 39.18,-8.01 62,-23.64 14.33,-9.82 27.91,-20.21 40.59,-32.15 23.86,-22.46 33.98,-51.01 36.32,-82.18 2.57,-34.08 -4.82,-67.22 -16.03,-99.38 -3.14,-8.99 -7.9,-16.83 -16.62,-22.15 -5.25,-3.21 -9.17,-8.56 -13.88,-12.72 -22.02,-19.4 -47.44,-30.14 -77.02,-31.16 -31.04,-1.08 -61.12,3.22 -90.22,14.15 -34.49,12.95 -60.41,36.2 -79.72,67.12 -3.29,5.27 -5.82,11.25 -7.5,17.23 -6.83,24.35 -11.01,48.67 -4.64,74.2 7.14,28.63 17.1,55.56 36.55,78.26 30.75,35.85 70.84,50.53 130.17,52.42"
       style="fill:#9b3b3c;fill-opacity:0.8;fill-rule:nonzero;stroke:none"
       transform="matrix(0.13333333,0,0,-0.13333333,0,1201.2)"
       clip-path="url(#clipPath278)" />
    <path
       id="path279"
       d="m 3639.58,5924.95 c -0.18,18.87 0.07,37.54 4.77,56.19 8.75,34.8 30.36,60.07 57.81,80.9 12.62,9.58 28.53,14.59 43.94,16.14 33.83,3.4 67.68,2.98 98.82,-14.34 13.02,-7.25 26.29,-13.77 38.49,-22.74 24.52,-18.03 40.29,-41.49 48.9,-70.21 2.71,-9.01 5.53,-18.09 7.12,-27.34 5.31,-30.89 -0.94,-59.75 -19.13,-85.09 -24.01,-33.46 -56.27,-56.54 -95.06,-70.43 -4.43,-1.58 -9.19,-2.52 -13.32,-4.68 -21.3,-11.14 -43.29,-12.77 -66.26,-6.11 -24.41,7.08 -47.19,17.38 -66.73,33.82 -25.74,21.64 -35.37,51.25 -39.16,83.21 -1.2,10.1 -0.19,20.45 -0.19,30.68"
       style="fill:#9b3b3c;fill-opacity:0.8;fill-rule:nonzero;stroke:none"
       transform="matrix(0.13333333,0,0,-0.13333333,0,1201.2)"
       clip-path="url(#clipPath280)" />
    <path
       id="path281"
       d="m 2300.77,5918.75 c 40,0.48 73.33,-16.43 103.39,-40.52 15.31,-12.28 28.66,-26.79 39.52,-43.56 15.71,-24.29 20.61,-50.67 17.71,-78.97 -1.16,-11.35 -6.27,-21.32 -12.7,-30.14 -12.04,-16.5 -24.95,-32.38 -37.99,-48.11 -10.16,-12.25 -22.94,-21.45 -37.04,-28.81 -18.98,-9.9 -39.34,-16.21 -59.94,-21.18 -9.71,-2.34 -20.55,-2.18 -30.51,-0.71 -20.18,2.98 -40.05,7.63 -59.32,14.89 -25.94,9.78 -46.79,26.35 -63.01,48.06 -22.01,29.48 -25.07,62.16 -10.29,95.89 10.14,23.13 23.99,44.23 38.6,64.75 9.13,12.81 18.96,25.1 30.58,35.86 22.9,21.22 49.6,32.71 81,32.55"
       style="fill:#9b3b3c;fill-opacity:0.8;fill-rule:nonzero;stroke:none"
       transform="matrix(0.13333333,0,0,-0.13333333,0,1201.2)"
       clip-path="url(#clipPath282)" />
    <path
       id="path283"
       d="m 2465.13,5568.49 c 36.28,-0.34 67.02,-14.47 93.79,-38.16 6.47,-5.72 12.46,-12 18.39,-18.3 24.85,-26.37 33.74,-57.12 27.45,-93.09 -4.12,-23.53 -11.5,-45.59 -22.38,-66.65 -16.6,-32.12 -41.55,-54.54 -75.84,-66.86 -17.12,-6.16 -34.64,-10.99 -52.47,-12.77 -29.87,-2.98 -58.42,4.51 -82.35,22.29 -30.98,23.01 -52.9,52.75 -61.35,91.99 -6.01,27.86 -1.24,53.62 11.13,77.53 17.16,33.2 42.27,60.28 72.81,82.18 21.24,15.23 44.84,22.13 70.82,21.84"
       style="fill:#9b3b3c;fill-opacity:0.8;fill-rule:nonzero;stroke:none"
       transform="matrix(0.13333333,0,0,-0.13333333,0,1201.2)"
       clip-path="url(#clipPath284)" />
    <path
       id="path285"
       d="m 3700.83,5701.22 c 1.38,-34.33 -9.09,-64.84 -28.35,-93.04 -8.29,-12.12 -19.35,-20.87 -31.06,-28.49 -26.57,-17.31 -54.65,-31.39 -87.87,-29.12 -26.39,1.81 -51.02,8.85 -72.27,25.32 -3.71,2.88 -7.53,5.88 -10.42,9.53 -21.92,27.64 -37.62,58.08 -39.13,94.11 -0.74,17.89 -3.75,35.57 -0.78,53.82 4.8,29.62 16.8,53.67 43.63,68.98 47.48,27.11 97.09,35.02 149.39,16.1 38.19,-13.81 62.28,-40.98 73.89,-79.77 3.71,-12.4 2.35,-24.95 2.97,-37.44"
       style="fill:#9b3b3c;fill-opacity:0.8;fill-rule:nonzero;stroke:none"
       transform="matrix(0.13333333,0,0,-0.13333333,0,1201.2)"
       clip-path="url(#clipPath286)" />
    <path
       id="path287"
       d="m 3993.5,5625.74 c 1.29,-39.74 -10.04,-70.7 -31.06,-97.05 -25.54,-32.01 -59.92,-50.04 -101.08,-53.92 -7.81,-0.74 -15.74,-0.02 -23.57,-0.62 -17.26,-1.34 -32.22,4.48 -46.81,13.04 -33.47,19.63 -47.88,50.09 -52.6,87.22 -2.8,22.04 -0.42,43.78 0.81,65.57 1.23,21.53 9.02,41.41 20.82,59.39 9.4,14.32 23.11,24.13 39.38,28.46 21.15,5.63 42.54,10.66 64.82,10.64 15.15,-0.02 29.77,-2.5 44,-6.96 39.23,-12.29 65.58,-38.65 81.58,-76.09 4.83,-11.33 3.22,-23.19 3.71,-29.68"
       style="fill:#9b3b3c;fill-opacity:0.8;fill-rule:nonzero;stroke:none"
       transform="matrix(0.13333333,0,0,-0.13333333,0,1201.2)"
       clip-path="url(#clipPath288)" />
    <path
       id="path289"
       d="m 2101.37,7617.55 c -26.56,0.32 -53.1,0.9 -79.63,-1.87 -16.63,-1.75 -33.58,-1.14 -50.19,-3.79 -25.19,-4.03 -47.5,-13.08 -65.83,-29.3 -11.38,-10.08 -12.81,-21.77 -7.61,-34.59 1.27,-3.14 3.14,-6.14 5.1,-9.02 12.66,-18.68 27.9,-35.54 46.34,-49.99 36.37,-28.5 76.46,-52.35 119.09,-72.68 62.7,-29.88 127.88,-54.9 195.2,-75.52 42.07,-12.89 84.99,-23.26 127.46,-34.95 86.86,-23.9 176.02,-37.3 265.85,-48.07 33.3,-3.99 66.65,-7.95 99.69,-13.31 82.71,-13.43 164.26,-31.66 246.19,-48.3 6.73,-1.36 13.22,-4.12 20.43,-3.22 -0.31,7.9 -9.25,9.68 -13.38,14.87 -0.31,0.39 -0.79,0.67 -1.2,0.98 -29.23,22.27 -56.73,46.21 -84.27,70.08 -32.6,28.24 -64.53,57.1 -96.8,85.65 -11.9,10.53 -23.7,21.15 -36.91,30.48 -20.37,14.37 -40.8,28.71 -60.67,43.62 -40.87,30.66 -86.09,55.33 -133.86,76.29 -45.81,20.11 -94.09,34.75 -142.92,47.94 -28.02,7.58 -56.31,14.37 -84.14,22.44 -69.65,20.21 -141.38,29.16 -214.24,32.15 -17.86,0.72 -35.8,0.11 -53.7,0.11 z m 1014.92,-428.29 c 10.21,3.21 17.61,8.13 25.29,12.38 30.83,17.05 61.2,34.76 92.18,51.61 48.09,26.15 96.45,51.9 144.83,77.61 52.13,27.69 103.23,56.81 154.34,85.92 43.82,24.95 87.39,50.25 129.9,76.93 80.14,50.28 160.3,100.56 239.98,151.41 44,28.08 87.7,56.51 127.9,89.04 22.2,17.97 41.68,37.71 59.92,58.7 10.92,12.56 17.43,26.23 19.53,42.05 2.97,22.41 -7.63,42.36 -29.87,53.27 -9.05,4.45 -18.61,7.99 -28.83,9.57 -24.58,3.81 -49.18,7.57 -74.28,3.93 -2.66,-0.38 -5.4,-0.44 -8.11,-0.45 -15.27,-0.04 -30.23,-2.39 -45.13,-4.93 -41.19,-7.01 -80.56,-19.39 -119.62,-32.48 -55.93,-18.76 -109.48,-42.05 -161.39,-68.27 -91,-45.95 -174.34,-100.7 -246.02,-168.94 -26.7,-25.42 -51.03,-52.42 -73.4,-80.85 -49.84,-63.34 -90.82,-131.1 -126.59,-201.41 -24.1,-47.36 -48.68,-94.52 -75.05,-140.93 -2.16,-3.8 -5.26,-7.34 -5.58,-14.16 z m -1035.54,469.89 c 38.59,0.25 73.68,-2.57 108.82,-4.97 30.83,-2.12 61.48,-5.36 92.12,-8.97 83.48,-9.8 163.18,-30.93 239.79,-61.73 41.54,-16.7 82.41,-34.53 121.57,-55.32 49.94,-26.5 96.65,-56.99 141.27,-90.07 37.9,-28.09 73.93,-57.99 109.95,-87.96 50.68,-42.17 99.9,-85.6 148.18,-129.9 7.91,-7.26 15.07,-15.16 22.85,-22.53 5.52,-5.22 8.24,-5.04 12.23,1.6 8.41,14.01 16.88,28.04 24.15,42.53 41.29,82.31 86.41,162.89 138.28,240.36 38.55,57.58 80.75,113.02 128.95,164.69 25.3,27.13 53.37,51.78 84.14,74.15 29.41,21.37 59.35,42.04 90.83,60.92 38.24,22.95 77.72,44.19 118.86,62.69 69.87,31.43 142.41,56.91 218.9,72.89 50.44,10.53 101.49,15.63 153.32,13.23 29.16,-1.35 56.96,-6.99 80.8,-23.19 3.44,-2.34 6.84,-4.74 10.06,-7.31 19.85,-15.94 26.86,-35.56 21.17,-58.76 -4.41,-17.97 -11.19,-35.29 -20.83,-51.5 -11.16,-18.75 -24.35,-36.4 -40.02,-52.53 -38.78,-39.91 -82.22,-75.32 -130.18,-106.39 -33.3,-21.57 -66.44,-43.34 -99.93,-64.68 -44.09,-28.09 -90.12,-53.63 -135.69,-79.73 -45.13,-25.85 -90.21,-51.74 -134.25,-79.04 -49.38,-30.61 -99.67,-59.92 -151.68,-86.97 -50.07,-26.05 -98.94,-53.92 -149.02,-79.95 -52.88,-27.48 -105.51,-55.46 -161.13,-78.56 -1.47,-0.61 -2.97,-1.19 -4.4,-1.87 -8.71,-4.16 -9.54,-6.08 -3.85,-13.4 14.78,-19.04 30.46,-37.48 48.18,-54.48 37.33,-35.82 78.34,-67.86 123.16,-96.18 43.79,-27.67 88.15,-54.53 135.05,-77.86 45.43,-22.59 91.86,-43.54 138.1,-64.8 86.25,-39.67 171,-81.75 251.57,-130.07 43.6,-26.14 86.68,-52.98 128.04,-81.89 23.98,-16.75 44.92,-36.29 64.71,-56.77 42.59,-44.04 77.6,-92.65 108.88,-143.48 24.2,-39.31 49.47,-78.06 80.34,-113.65 15.54,-17.92 31.34,-35.71 47.88,-52.9 8.4,-8.73 11.42,-16.94 4.8,-27.32 -2.92,-4.57 -4.78,-9.67 -7.56,-14.33 -1.07,-1.78 -3.61,-1.92 -5.76,-0.94 -0.95,0.43 -1.78,1.11 -2.54,1.79 -31.64,28.44 -63.85,56.5 -88.82,90.04 -13.45,18.06 -25.8,36.77 -38.16,55.44 -32.45,49.05 -68.07,96.2 -106.87,141.45 -34.63,40.4 -74.44,76.35 -118.63,108.63 -45.36,33.14 -94.49,61.46 -143.64,89.73 -36.41,20.94 -73.23,41.37 -110.54,61.03 -48.51,25.55 -97.67,50.13 -146.58,75.09 -62.57,31.92 -124.71,64.47 -184.8,99.98 -53.91,31.86 -103.86,67.97 -148.24,110 -21.94,20.77 -42.23,42.67 -60.2,66.24 -1.83,2.39 -3.55,4.85 -5.53,7.14 -2.63,3.06 -5.24,3.45 -8.28,1.15 -2.88,-2.18 -5.58,-4.56 -8.27,-6.94 -32.96,-29.12 -59.43,-62.46 -81.36,-98.72 -16.45,-27.19 -29.56,-55.73 -42.15,-84.45 -33.28,-75.93 -73.02,-149.22 -115.66,-221.27 -35.42,-59.85 -77.2,-116.04 -126.38,-167.77 -34.38,-36.17 -72.49,-68.93 -114.45,-98.18 -38.46,-26.82 -79.51,-50.28 -120.67,-73.59 -74.09,-41.96 -148,-84.14 -218.07,-131.37 -14.71,-9.92 -28.75,-20.51 -42.6,-31.3 -25.68,-20.01 -50.58,-40.78 -74.64,-62.34 -21,-18.81 -42.27,-37.39 -63.31,-56.17 -22.21,-19.81 -42.65,-41.02 -62.42,-62.76 -6.47,-7.12 -12.96,-14.22 -19.72,-21.12 -6.46,-6.61 -9.24,-7.13 -18.46,-3.5 -5.94,2.34 -11.77,4.99 -17.33,7.95 -5.66,3.02 -7.3,6.84 -4.93,12.3 1.92,4.44 4.64,8.68 7.56,12.69 14.75,20.24 31.16,39.46 48.46,57.96 18,19.25 36.96,37.82 56.33,55.99 19.77,18.55 41.55,35.28 64.12,51.1 31.07,21.79 62.55,43.11 93.89,64.58 32.25,22.1 66.61,41.46 100.77,61.09 23.22,13.34 46.6,26.47 69.86,39.77 31.46,18 62.87,36.07 94.3,54.11 35.58,20.42 69.17,43.13 101.36,67.63 21.03,16 40.59,33.35 60.98,49.93 22.02,17.9 41.49,38.06 59.32,59.33 42.93,51.18 78.6,106.07 107.85,164.39 28.01,55.86 54.11,112.42 80.67,168.82 22.39,47.58 47.65,93.95 79.77,137.11 16.14,21.71 33.72,42.51 52.02,62.81 1.35,1.51 2.92,2.85 4.28,4.35 6.09,6.71 5.33,9.07 -4.42,12.06 -7.18,2.2 -14.49,4.07 -21.8,5.87 -31.41,7.76 -63.44,12.84 -95.64,17.07 -59.53,7.84 -119.16,15.15 -178.6,23.48 -61.61,8.62 -122.84,19.18 -183.99,30.08 -57.97,10.34 -115.81,21.22 -172.93,34.86 -85.69,20.45 -168.3,48.11 -246.77,85.04 -56.66,26.66 -110.74,57.01 -161.75,91.53 -25.09,16.98 -48.42,35.67 -67.68,58.04 -9.61,11.16 -17.59,23.03 -22.03,36.72 -5.29,16.28 -2.43,31.49 6.75,45.92 10.7,16.79 26.35,29.19 45.17,38.56 22.99,11.45 47.76,18.32 73.67,21.96 30.59,4.28 61.39,6.34 89.08,5.61"
       style="fill:#234d30;fill-opacity:0.5;fill-rule:nonzero;stroke:none"
       transform="matrix(0.13333333,0,0,-0.13333333,0,1201.2)"
       clip-path="url(#clipPath290)" />
    <path
       id="path291"
       d="m 1748.98,6876.19 c -6.39,2.11 -12.7,1.97 -18.98,-0.16 -10.78,-3.66 -21.18,-7.96 -31.19,-13.65 -11.52,-6.54 -14.37,-4.21 -14.85,9.55 -0.05,1.5 0.19,3 0.05,4.48 -0.65,6.81 -6,11.78 -13.21,12.36 -5.9,0.48 -10.63,-3.28 -11.74,-10.12 -1.3,-8.06 -2.03,-16.24 -3.12,-24.34 -0.63,-4.7 -2.66,-8.5 -7.19,-10.01 -11.32,-3.78 -21.9,-10.03 -33.89,-10.95 -4.19,6.31 -1.29,12.35 -2.01,18.16 -0.89,7.15 -4.74,11.96 -10.36,12.89 -5.69,0.95 -11.17,-2.16 -13.91,-7.85 -1.94,-4.04 -2.55,-8.34 -2.57,-12.94 -0.02,-5.96 -0.54,-11.91 -0.98,-17.85 -0.42,-5.72 -3.08,-9.71 -8.41,-11.48 -18.26,-6.06 -34.07,-17.77 -52.67,-23.12 -8.19,-2.36 -15.61,-6.65 -23.19,-10.66 -10.01,-5.28 -20.99,-8.71 -31.7,-12.5 -4.68,-1.65 -8.67,2.83 -6.98,7.85 7.54,22.28 14.69,44.75 23.23,66.58 10.19,26.04 7.86,21.19 30.63,29.18 4.03,1.42 8.3,2.24 12.14,4.04 3.11,1.46 6.23,3.53 8.47,6.15 5.6,6.54 3.33,15.16 -4.64,17.92 -3.33,1.16 -7,1.12 -10.5,1.73 -7.42,1.29 -9.71,5.14 -7.45,12.45 3.18,10.29 8.04,18.75 19.25,21.32 5.53,1.26 10.81,3.56 16.18,5.43 2.69,0.95 5.47,1.73 7.97,3.05 6.18,3.22 9.63,8.51 9.3,15.98 -0.25,5.66 -6.48,10.32 -14.32,11.7 -4.44,0.78 -9.35,-3.92 -14.61,2.11 5.01,11.52 9.51,23.11 15.03,34.12 4.94,9.85 2.44,19.91 -5.15,23.21 -6.89,2.98 -14.67,-1.16 -18.41,-10.36 -4.99,-12.23 -10.41,-24.28 -16,-36.21 -1.66,-3.53 -1.9,-9.05 -8.1,-8.69 -1.74,2.15 -3.52,4.53 -5.49,6.73 -1.97,2.23 -3.97,4.5 -6.24,6.37 -6.73,5.59 -13.89,3.77 -17.57,-4.24 -2.32,-5.03 -2.56,-9.96 0.96,-14.77 3.08,-4.23 5.87,-8.76 9.34,-12.62 8.1,-9.04 8.24,-18.82 4.29,-29.22 -1.31,-3.43 -2.68,-6.85 -4.15,-10.2 -5.88,-13.42 -5.91,-13.42 -19.34,-4.11 -0.6,0.42 -1.12,0.98 -1.75,1.35 -5.59,3.42 -12.69,2.18 -17.4,-3.03 -3.79,-4.19 -3.42,-10.16 1.25,-16.1 4.16,-5.28 8.22,-10.73 12.91,-15.46 5.68,-5.72 5.59,-11.18 2.89,-18.24 -9.43,-24.66 -18.26,-49.58 -27.44,-74.34 -0.7,-1.91 -2.36,-3.41 -5.2,-7.35 -4.94,8.28 -9.11,14.49 -12.48,21.14 -2.71,5.33 -4.41,11.19 -6.64,16.78 -2.5,6.29 -3.87,13.62 -7.9,18.59 -8.82,10.89 -6.42,20.5 -0.93,30.89 3.41,6.45 6.19,13.27 9.1,20 1.15,2.68 2.22,5.47 2.78,8.34 1.19,6.04 -2.27,12.58 -7.62,14.77 -5.28,2.16 -10.15,1.02 -13.63,-3.15 -2.72,-3.26 -4.44,-7.45 -6.59,-11.23 -1.39,-2.44 -2.13,-5.99 -5.36,-6.07 -4.92,-0.13 -4.92,4.88 -6.01,7.99 -10.42,29.59 -14.37,23.25 3.61,55.71 0.71,1.28 1.66,2.39 2.32,3.69 2.14,4.16 1.97,8.53 0.55,13.02 -3.32,10.58 -12.05,13.08 -20.06,6.28 -4.26,-3.62 -5.56,-10.38 -11.47,-12 -5.85,2.69 -5.77,8.62 -7.66,13.2 -3.17,7.64 -5.34,15.72 -8.77,23.23 -4.71,10.32 -13.63,15.19 -20.65,12.2 -5.84,-2.48 -8.43,-11.68 -5.02,-21.67 4.11,-12.06 7.16,-24.61 14.5,-35.38 2,-2.93 4.17,-6.24 1.53,-10.45 -6.11,-0.08 -12.54,0.34 -18.8,-0.41 -4.51,-0.55 -7.35,-4.13 -8.33,-8.9 -1.04,-5.1 1.31,-11.42 5.47,-13.76 2.5,-1.41 5.32,-2.37 8.09,-2.96 5.64,-1.2 11.34,-2.23 17.04,-2.93 7.01,-0.86 11.71,-4.66 15.66,-10.81 4.12,-6.41 7.29,-13.11 9.51,-20.34 1.77,-5.73 -0.15,-9.03 -5.4,-9 -3.57,0.01 -7.15,0.54 -10.73,0.8 -4.08,0.28 -6.62,-2.1 -8.49,-5.43 -4.74,-8.43 -2.14,-16.54 7.14,-19.64 6.82,-2.27 14.06,-3.69 21.14,-4.14 10.94,-0.68 16.91,-6.44 20.27,-17.03 2.03,-6.39 4.91,-12.68 8.34,-18.42 6.66,-11.11 10.1,-23.46 14.58,-35.41 2.07,-5.51 -0.55,-7.81 -6.69,-6.3 -3.36,0.83 -6.76,1.6 -10.04,2.72 -5.4,2.51 -10.86,4.79 -16.48,6.29 -19.12,5.09 -36.26,15.19 -54.56,22.19 -11.39,4.35 -17.79,12.25 -21.07,23.95 -1.82,6.5 -4.28,12.86 -6.67,19.19 -1.32,3.5 -2.78,7.04 -4.75,10.18 -3.72,5.94 -12.44,5.85 -16.54,0.19 -2.71,-3.73 -3.14,-7.97 -3.19,-12.58 -0.06,-5.88 3.54,-11.67 0.59,-18.27 -7.46,1.98 -15.03,3.97 -22.58,6.02 -5.41,1.46 -8.76,5.27 -10.21,10.76 -1.15,4.35 -1.51,8.93 -2.94,13.18 -3.12,9.24 -6.25,18.54 -10.26,27.4 -2.48,5.47 -10.85,6.04 -14.97,1.83 -4.27,-4.37 -6.05,-9.74 -5.53,-16.11 0.41,-4.98 4.48,-9.78 0.6,-16.06 -3.57,1.38 -7.51,2.64 -11.26,4.4 -11.24,5.29 -22.45,10.67 -33.59,16.22 -6.23,3.11 -12.25,4.14 -18.53,0.87 -5.52,-2.88 -7.68,-9.46 -4.54,-15.06 3.4,-6.08 8.22,-10.52 14.33,-13.54 10.5,-5.19 21.12,-9.65 32.37,-12.85 12.96,-3.7 13.55,-7.38 4.85,-17.39 -0.94,-1.08 -2.11,-1.96 -2.99,-3.11 -3.99,-5.25 -3.25,-12.58 1.77,-18.18 4.12,-4.58 10.14,-5.34 15.47,-1.33 6.28,4.72 12.21,9.94 18.37,14.85 3.55,2.84 7.58,4.04 11.98,1.85 10.98,-5.49 23.02,-8.7 32.61,-16.68 -1.02,-7.45 -7.16,-9.61 -10.45,-14.21 -4.04,-5.65 -4.31,-11.81 -0.71,-16.5 3.64,-4.75 9.8,-6.52 15.6,-4.48 4.11,1.44 7.4,4.01 10.43,7.23 3.95,4.17 8.25,7.98 12.5,11.84 4.07,3.7 8.69,4.6 13.86,2 14.76,-7.41 30.83,-10.87 45.91,-17.4 -0.05,-0.11 -0.09,-0.23 -0.14,-0.35 1.24,-0.42 2.48,-0.85 3.72,-1.28 1.76,-0.83 3.51,-1.67 5.22,-2.62 7.69,-4.22 16.09,-6.55 24.41,-9.19 7.06,-2.25 13.91,-5.32 20.71,-8.56 0.33,-0.69 0.52,-1.46 0.27,-2.43 -0.3,-1.22 -1.33,-2.73 -2.39,-3.13 -13.34,-5.01 -25.46,-12.76 -38.5,-18.42 -12.95,-5.94 -26.11,-11.38 -39.75,-15.66 -6.51,-2.05 -12.46,-2.04 -18.61,1.55 -7.61,4.45 -15.41,8.53 -23.05,12.9 -5.44,3.11 -10.81,3.81 -16.49,1.3 -7.58,-3.35 -9.25,-14.91 -2.56,-20.16 4.64,-3.64 9.78,-6.55 14.58,-9.99 2.31,-1.66 2.13,-6.31 -0.13,-7.62 -1.84,-1.07 -3.72,-2.09 -5.66,-2.92 -10.41,-4.46 -20.55,-11.63 -31.36,-12.53 -12.06,-1 -22,10.27 -33.18,15.41 -3.31,1.52 -6.6,3.4 -10.04,4.11 -5.34,1.1 -9.87,-0.85 -12.76,-5.76 -2.48,-4.24 -2.04,-11.02 1.61,-14.65 3.1,-3.09 6.96,-5.36 10.51,-7.97 2.81,-2.08 6.87,-2.9 7.08,-7.66 -1.89,-3.61 -5.67,-3.83 -8.77,-5.23 -11.64,-5.27 -23.34,-10.39 -34.89,-15.84 -5.19,-2.45 -7.98,-9.43 -6.27,-14.9 1.82,-5.79 6.56,-8.19 11.62,-8.89 3.39,-0.47 7.11,0.4 10.42,1.48 9.45,3.09 18.72,6.54 27.22,12.09 4.54,2.96 10.38,7 15.78,3.08 4.85,-3.52 1.4,-9.76 1.57,-14.8 0.24,-7.54 4.98,-14.27 10.54,-15.01 5.97,-0.81 13.42,3.64 15.35,9.51 0.91,2.77 1.37,5.77 1.66,8.72 0.67,6.66 1.19,13.35 1.62,20.05 0.32,4.77 1.89,8.81 6.09,10.86 10.84,5.29 21.65,10.72 32.76,15.37 7.64,3.19 10.6,1.13 11.3,-7.39 0.55,-6.81 1.16,-13.5 4.46,-19.59 2.33,-4.28 6.09,-6.46 10.79,-6.15 4.58,0.31 8.38,2.3 9.56,7.2 1.03,4.29 1.68,8.75 1.94,13.19 0.5,8.92 -1.46,18.8 1.44,26.6 3.54,9.5 16.06,7.68 23.38,13.33 8.1,6.25 18.19,7.95 27.34,11.81 6.66,2.8 13.33,5.78 20.48,8.96 1.89,0.65 3.77,1.3 5.65,1.97 3.25,1.17 7.09,-3.24 6.43,-6.87 -0.27,-1.46 -0.62,-2.9 -1.06,-4.3 -13.4,-42.06 -26.59,-84.2 -40.31,-126.14 -7.16,-21.9 -7.58,-21.73 -29.37,-29.76 -4.01,-1.48 -8.02,-2.95 -11.97,-4.57 -4.16,-1.72 -6.74,-5.11 -8.63,-9.24 -3.09,-6.78 -0.65,-13.7 6.23,-16.65 2.63,-1.13 5.52,-1.95 8.31,-2.11 4.14,-0.24 8.95,3.31 12.28,-0.33 4.32,-4.73 0.1,-9.75 -1.18,-14.56 -1.7,-6.42 -3.48,-12.82 -4.94,-19.31 -0.81,-3.6 -1.29,-7.33 -1.45,-11.04 -0.31,-7.19 3.75,-12.06 11.45,-14.29 6.03,-1.73 10.81,1.04 12.92,8.07 1.7,5.63 2.72,11.51 4.33,17.19 2.97,10.44 6.15,20.81 9.72,32.82 5.45,-6.02 9.11,-10.59 13.3,-14.55 7.95,-7.53 16.83,-4.82 19.75,5.65 1.51,5.43 0.48,10.39 -2.72,14.91 -4.33,6.11 -9,11.96 -13.25,18.12 -5.05,7.3 -5.67,14.77 -2.85,23.35 13.8,41.9 27.04,84.01 40.65,125.98 1.81,5.57 4.45,10.85 6.92,16.14 1.36,2.91 5.42,2.97 6.82,0.21 10.13,-20.13 19.69,-40.49 26.97,-61.91 2.32,-6.84 2.64,-13.06 -0.46,-19.44 -3.84,-7.89 -7.3,-15.99 -11.06,-23.93 -2.68,-5.64 -3.05,-11.24 -0.33,-17.22 3.62,-7.97 14.78,-9.88 19.43,-2.95 3.23,4.8 5.73,10.14 8.75,15.1 1.46,2.4 5.92,2.15 7.31,-0.24 1.12,-1.93 2.2,-3.9 3.1,-5.95 4.85,-10.95 12.28,-21.64 13.74,-32.97 1.63,-12.61 -8.61,-22.86 -12.91,-34.48 -1.26,-3.43 -2.88,-6.85 -3.37,-10.44 -0.76,-5.57 1.36,-10.33 6.23,-13.42 4.18,-2.66 10.65,-2.28 13.92,1.48 2.79,3.21 4.75,7.21 7.05,10.88 1.82,2.92 2.39,7.15 6.93,7.3 3.56,-2.03 3.98,-5.98 5.49,-9.24 5.69,-12.24 11.25,-24.54 17.1,-36.7 2.63,-5.46 9.47,-8.47 14.61,-6.76 5.45,1.82 7.47,6.75 7.86,12.03 0.26,3.54 -0.77,7.44 -1.99,10.91 -3.48,9.93 -7.3,19.67 -13.08,28.63 -3.09,4.79 -7.28,10.96 -3.83,16.55 3.1,5.02 9.26,1.33 14.08,1.43 7.2,0.15 13.37,5.02 13.78,10.83 0.43,6.23 -4.23,14.07 -9.96,16.17 -2.7,0.99 -5.6,1.51 -8.43,1.86 -6.42,0.8 -12.85,1.43 -19.28,1.97 -4.59,0.39 -8.54,2.09 -10.73,6.52 -5.68,11.41 -11.47,22.77 -16.54,34.46 -3.47,8.03 -1.66,11.1 6.45,11.71 6.49,0.49 12.86,1.03 18.49,4.4 3.98,2.37 5.85,6.28 5.29,11.19 -0.55,4.8 -2.65,8.8 -7.42,10.1 -4.16,1.13 -8.47,1.89 -12.73,2.21 -8.57,0.65 -17.9,-1.27 -25.53,1.87 -9.29,3.83 -8.24,16.89 -14.06,24.63 -6.44,8.55 -8.62,19.13 -12.82,28.76 -4.15,9.5 -8.54,18.9 -13.46,29.76 9.34,-0.32 16.69,-2.98 24.05,-5.82 21,-8.1 41.85,-16.78 63.14,-23.87 11.53,-3.85 19,-9.83 21.76,-22.41 1.61,-7.31 4.36,-14.4 6.74,-21.54 1.19,-3.56 2.41,-7.16 4.11,-10.48 2.49,-4.88 7.88,-7.29 12.84,-6.26 5.87,1.22 10.23,6.6 9.48,12.76 -0.63,5.18 -2.37,10.24 -3.28,15.41 -1.07,6.08 2.85,9.68 8.96,8.39 2.1,-0.45 4.11,-1.51 6.22,-1.91 20,-3.73 33.12,-13.56 33.26,-37.18 0.05,-7.22 3.15,-14.7 7.46,-21.02 3.33,-4.88 10.68,-8.03 15.26,-6.47 5.4,1.84 7.05,6.62 7.65,12.12 0.68,6.1 -0.59,11.86 -2.43,17.68 -1.04,3.28 -3.49,6.82 0.51,11.24 7.71,-1.59 15.8,-4.09 23.82,-7.5 8.02,-3.42 16.27,-6.38 24.61,-8.67 7.24,-2 13.65,2.07 15.22,8.41 1.41,5.71 -1.15,12.06 -6.53,15.46 -2.46,1.56 -5.14,2.83 -7.85,3.83 -11.56,4.28 -23.21,8.34 -34.77,12.63 -11.1,4.13 -11.52,7.44 -2.34,16.41 2.56,2.5 5.27,4.9 7.42,7.76 3.68,4.92 2.21,12.9 -2.98,18.28 -3.58,3.7 -9.11,4.4 -13.75,1.05 -5.2,-3.76 -9.94,-8.21 -15.05,-12.11 -20.32,-15.47 -13.44,-14.63 -40.57,-6.54 -2.07,0.62 -4.05,1.66 -6.04,2.57 -12.5,5.8 -13.46,9.11 -5.62,19.51 1.3,1.73 2.95,3.18 4.21,4.95 4.81,6.7 4.39,15.21 -0.89,19.98 -4.56,4.12 -12.29,3.87 -17.47,-1.17 -5.66,-5.5 -11.13,-11.26 -16.28,-17.29 -5.32,-6.24 -11.05,-7.8 -19.03,-4.72 -20.32,7.86 -40.87,15 -61.31,22.47 -1.35,0.5 -2.61,1.33 -3.84,2.12 -3.22,2.08 -5.69,4.68 -5.3,9 0.32,3.49 2.87,4.99 5.48,6.05 11.21,4.53 23.28,7.5 33.59,13.61 16.78,9.94 35.47,14.69 52.92,22.6 10.87,4.93 20.55,3.62 30.56,-2.8 5.56,-3.57 11.47,-6.57 17.32,-9.6 3.23,-1.67 6.58,-3.27 10.04,-4.21 6.52,-1.78 12.58,4.55 11.74,11.75 -0.56,4.75 -3.05,8.23 -6.05,11.73 -3.82,4.45 -10.17,6.2 -12.44,13.27 6.55,3.88 13.17,7.84 19.82,11.73 4.77,2.8 9.63,2.35 14.26,-0.72 3.67,-2.43 6.94,-5.62 10.73,-7.77 8.28,-4.69 16.6,-9.41 25.25,-13.17 5.34,-2.32 11.59,3.27 11.72,9.4 0.12,6.35 -2.16,11.65 -6.73,16.06 -3.56,3.44 -9.58,4.1 -10.99,11.6 3.41,1.54 7.02,3.43 10.8,4.8 11.38,4.12 22.79,8.16 34.27,12 6.42,2.15 11.33,5.71 13.58,12.68 1.99,6.13 -0.83,12.61 -6.72,14.56"
       style="fill:#ffffff;fill-opacity:0.894118;fill-rule:nonzero;stroke:none"
       transform="matrix(0.13333333,0,0,-0.13333333,0,1201.2)"
       clip-path="url(#clipPath292)" />
    <path
       id="path293"
       d="m 4892.89,3641.95 c -3.51,5.74 -8.43,9.71 -14.59,12.13 -10.6,4.17 -21.32,7.59 -32.64,9.7 -13.03,2.45 -13.69,6.06 -5.18,16.88 0.93,1.18 2.08,2.17 2.93,3.4 3.89,5.61 3.02,12.87 -2.12,17.97 -4.2,4.17 -10.24,4.34 -15.49,-0.16 -6.2,-5.32 -12.04,-11.09 -18.1,-16.58 -3.51,-3.19 -7.51,-4.78 -11.96,-3 -11.08,4.41 -23.19,6.47 -32.94,13.51 0.88,7.52 6.99,10.27 10.18,15.17 3.94,6.03 4.1,12.19 0.41,16.53 -3.74,4.39 -9.93,5.55 -15.69,2.97 -4.1,-1.83 -7.33,-4.71 -10.31,-8.22 -3.87,-4.54 -8.1,-8.75 -12.28,-13.01 -4.01,-4.09 -8.61,-5.43 -13.83,-3.33 -17.86,7.16 -37.5,8.42 -55.16,16.33 -7.77,3.49 -16.21,5 -24.59,6.84 -11.05,2.42 -21.65,6.88 -32.28,10.91 -4.64,1.75 -4.8,7.75 -0.26,10.49 20.14,12.15 40.1,24.7 60.72,35.86 24.59,13.32 19.67,11.12 42.22,2.53 3.99,-1.52 7.79,-3.66 11.89,-4.75 3.32,-0.89 7.03,-1.33 10.44,-0.77 8.49,1.38 12.32,9.43 8.02,16.67 -1.8,3.04 -4.63,5.39 -6.91,8.11 -4.83,5.77 -4.1,10.2 2.34,14.32 9.08,5.81 18.25,9.13 28.47,3.85 5.03,-2.6 10.55,-4.25 15.87,-6.28 2.66,-1.02 5.29,-2.21 8.05,-2.83 6.8,-1.53 12.84,0.29 17.42,6.21 3.46,4.49 1.71,12.06 -3.39,18.18 -2.89,3.45 -9.67,3.03 -9.79,11.04 11.26,5.56 22.17,11.52 33.49,16.36 10.13,4.34 14.72,13.63 11.05,21.04 -3.33,6.74 -11.95,8.59 -20.75,3.99 -11.7,-6.13 -23.61,-11.84 -35.59,-17.33 -3.55,-1.64 -7.29,-5.7 -11.79,-1.41 0.06,2.75 0.23,5.72 0.15,8.67 -0.07,2.98 -0.13,6.01 -0.65,8.9 -1.54,8.61 -8.18,11.84 -16.16,8.1 -5.03,-2.35 -8.39,-5.95 -8.81,-11.9 -0.37,-5.23 -1.16,-10.48 -1.01,-15.67 0.36,-12.13 -5.85,-19.69 -15.58,-25.08 -3.21,-1.78 -6.46,-3.51 -9.75,-5.12 -13.16,-6.46 -13.17,-6.44 -17.42,9.34 -0.19,0.71 -0.24,1.48 -0.47,2.16 -2.07,6.23 -8.29,9.86 -15.24,8.92 -5.6,-0.75 -9.18,-5.55 -9.44,-13.11 -0.23,-6.71 -0.65,-13.49 -0.12,-20.13 0.65,-8.04 -2.95,-12.16 -9.57,-15.8 -23.12,-12.75 -45.94,-26.09 -68.94,-39.08 -1.77,-1 -4,-1.07 -8.72,-2.25 1.57,9.51 2.41,16.95 4.11,24.2 1.38,5.82 3.86,11.39 5.77,17.11 2.15,6.41 5.83,12.89 5.96,19.29 0.3,14.01 8.33,19.81 19.23,24.19 6.76,2.73 13.29,6.15 19.86,9.41 2.61,1.3 5.22,2.74 7.51,4.58 4.8,3.85 6.38,11.07 3.71,16.19 -2.65,5.06 -7.09,7.33 -12.45,6.4 -4.18,-0.74 -8.19,-2.83 -12.28,-4.33 -2.64,-0.97 -5.48,-3.2 -8.01,-1.17 -3.84,3.07 -0.61,6.9 0.56,9.99 11.14,29.31 4.04,27.02 38.72,40.21 1.37,0.52 2.82,0.75 4.16,1.32 4.31,1.8 7,5.25 8.82,9.59 4.29,10.23 -0.77,17.76 -11.27,17.74 -5.59,-0.01 -10.94,-4.34 -16.51,-1.75 -2.73,5.83 1.16,10.3 2.67,15.02 2.51,7.88 6.07,15.46 8.3,23.4 3.06,10.92 -0.61,20.41 -7.9,22.65 -6.07,1.88 -13.98,-3.49 -17.83,-13.32 -4.64,-11.85 -10.41,-23.42 -11.75,-36.38 -0.37,-3.52 -0.85,-7.46 -5.58,-8.96 -4.72,3.88 -9.36,8.35 -14.62,11.82 -3.8,2.49 -8.29,1.58 -12.11,-1.43 -4.09,-3.22 -6.37,-9.56 -4.7,-14.03 1,-2.69 2.53,-5.26 4.26,-7.49 3.54,-4.56 7.22,-9.02 11.13,-13.24 4.8,-5.17 5.94,-11.11 4.98,-18.37 -0.99,-7.55 -2.89,-14.71 -5.85,-21.67 -2.35,-5.51 -5.96,-6.79 -9.94,-3.38 -2.72,2.31 -5.12,5.03 -7.69,7.53 -2.93,2.85 -6.41,2.67 -9.98,1.34 -9.06,-3.39 -12.32,-11.26 -7.22,-19.62 3.73,-6.13 8.35,-11.88 13.47,-16.79 7.92,-7.59 8.76,-15.85 4.49,-26.11 -2.57,-6.18 -4.43,-12.84 -5.51,-19.44 -2.09,-12.78 -7.43,-24.44 -11.73,-36.46 -1.97,-5.54 -5.46,-5.62 -9.17,-0.49 -2.03,2.8 -4.13,5.57 -5.91,8.55 -2.51,5.41 -5.21,10.68 -8.54,15.44 -11.32,16.23 -17.89,35.01 -27.34,52.17 -5.9,10.67 -5.69,20.83 -0.64,31.88 2.8,6.16 5.03,12.59 7.29,18.97 1.25,3.52 2.42,7.18 2.94,10.84 0.99,6.95 -5.72,12.51 -12.51,10.83 -4.48,-1.11 -7.53,-4.06 -10.55,-7.56 -3.85,-4.44 -4.83,-11.2 -11.34,-14.34 -4.42,6.34 -8.93,12.74 -13.37,19.17 -3.19,4.62 -3.28,9.69 -0.86,14.82 1.93,4.07 4.62,7.8 6.27,11.96 3.58,9.07 7.2,18.19 9.85,27.56 1.63,5.77 -4.39,11.61 -10.26,11.05 -6.08,-0.57 -10.9,-3.52 -14.62,-8.74 -2.9,-4.06 -2.88,-10.36 -9.9,-12.65 -1.84,3.36 -4.04,6.87 -5.76,10.63 -5.18,11.3 -10.27,22.64 -15.19,34.08 -2.75,6.39 -6.69,11.06 -13.59,12.61 -6.08,1.37 -11.97,-2.25 -13.2,-8.56 -1.33,-6.85 -0.51,-13.35 2.21,-19.6 4.67,-10.73 9.91,-21 16.43,-30.71 7.51,-11.18 5.59,-14.37 -7.51,-16.4 -1.42,-0.23 -2.89,-0.15 -4.29,-0.45 -6.44,-1.44 -10.61,-7.52 -10.39,-15.04 0.19,-6.15 4.3,-10.61 10.96,-11 7.85,-0.44 15.74,-0.28 23.61,-0.5 4.55,-0.13 8.41,-1.81 10.34,-6.33 4.85,-11.27 11.97,-21.5 14.15,-33.79 -5.58,-5.03 -11.67,-2.71 -17.15,-4.1 -6.74,-1.71 -10.91,-6.24 -11.19,-12.14 -0.29,-5.99 3.28,-11.31 9.01,-13.5 4.08,-1.56 8.26,-1.71 12.65,-1.21 5.7,0.64 11.45,0.77 17.18,0.98 5.5,0.19 9.61,-2.1 11.88,-7.42 6.49,-15.19 16.53,-28.21 23.83,-42.92 -0.11,-0.06 -0.21,-0.12 -0.32,-0.18 0.67,-1.12 1.34,-2.25 2.02,-3.38 0.8,-1.77 1.59,-3.53 2.29,-5.37 3.14,-8.19 8.06,-15.38 12.71,-22.77 3.94,-6.27 7.19,-13.05 10.28,-19.91 -0.19,-0.74 -0.54,-1.45 -1.34,-2.03 -1.02,-0.74 -2.78,-1.23 -3.86,-0.85 -13.41,4.79 -27.67,6.68 -41.3,10.79 -13.72,3.81 -27.28,8.16 -40.46,13.69 -6.3,2.63 -10.83,6.47 -13.21,13.19 -2.94,8.31 -6.27,16.46 -9.29,24.74 -2.14,5.89 -5.79,9.88 -11.75,11.63 -7.95,2.34 -16.69,-5.41 -14.97,-13.74 1.2,-5.78 3.24,-11.33 4.69,-17.04 0.69,-2.77 -2.44,-6.2 -5.02,-5.75 -2.09,0.38 -4.18,0.81 -6.2,1.43 -10.84,3.31 -23.21,4.38 -32.05,10.67 -9.85,7.02 -10.17,22.05 -15.4,33.19 -1.54,3.29 -2.84,6.84 -5.01,9.62 -3.37,4.28 -8.08,5.71 -13.46,3.82 -4.63,-1.62 -8.67,-7.09 -8.23,-12.22 0.37,-4.37 1.86,-8.59 2.88,-12.87 0.81,-3.4 3.38,-6.64 0.47,-10.41 -3.78,-1.55 -6.8,0.73 -10.07,1.66 -12.29,3.48 -24.54,7.12 -36.88,10.42 -5.54,1.47 -12.18,-2.06 -14.4,-7.34 -2.36,-5.6 -0.27,-10.49 3.14,-14.28 2.29,-2.55 5.68,-4.29 8.9,-5.6 9.22,-3.75 18.53,-7.09 28.6,-8.34 5.38,-0.66 12.45,-1.36 14.04,-7.83 1.44,-5.81 -5.22,-8.35 -8.35,-12.32 -4.68,-5.9 -5.41,-14.12 -1.64,-18.28 4.05,-4.46 12.61,-5.87 17.87,-2.62 2.48,1.52 4.76,3.52 6.89,5.58 4.82,4.66 9.52,9.44 14.18,14.26 3.32,3.45 7.13,5.52 11.66,4.37 11.7,-2.95 23.46,-5.78 34.94,-9.4 7.9,-2.49 8.82,-5.99 3.86,-12.94 -3.97,-5.57 -7.83,-11.05 -9.23,-17.84 -0.99,-4.78 0.48,-8.87 4.27,-11.66 3.7,-2.72 7.88,-3.65 11.95,-0.67 3.55,2.61 6.93,5.6 9.99,8.82 6.15,6.49 11.02,15.3 18.28,19.39 8.82,4.97 17.21,-4.49 26.46,-4.9 10.22,-0.45 19.02,-5.68 28.5,-8.64 6.9,-2.16 13.91,-4.19 21.42,-6.37 1.86,-0.73 3.72,-1.45 5.59,-2.14 3.24,-1.21 3.32,-7.05 0.48,-9.4 -1.15,-0.93 -2.35,-1.81 -3.59,-2.59 -37.38,-23.49 -74.66,-47.16 -112.2,-70.35 -19.6,-12.1 -19.81,-11.7 -41.64,-3.77 -4.02,1.47 -8.03,2.93 -12.09,4.23 -4.29,1.38 -8.45,0.45 -12.55,-1.48 -6.75,-3.19 -9.35,-10.04 -5.99,-16.74 1.27,-2.56 2.95,-5.05 4.98,-6.97 3.01,-2.85 8.97,-3.25 9.17,-8.18 0.25,-6.4 -6.22,-7.52 -10.3,-10.37 -5.45,-3.8 -10.94,-7.54 -16.24,-11.56 -2.94,-2.22 -5.71,-4.77 -8.23,-7.49 -4.88,-5.29 -4.93,-11.63 -0.48,-18.29 3.48,-5.23 8.93,-6.19 15.08,-2.2 4.93,3.21 9.51,7.05 14.4,10.35 9,6.06 18.12,11.93 28.61,18.79 0.28,-8.11 0.12,-13.96 0.76,-19.69 1.21,-10.89 9.74,-14.56 18.73,-8.43 4.67,3.16 7.08,7.61 7.55,13.14 0.63,7.46 0.85,14.94 1.58,22.39 0.86,8.83 5.2,14.95 12.9,19.67 37.57,23.1 74.87,46.71 112.35,69.99 4.98,3.1 10.4,5.42 15.7,7.86 2.92,1.35 6.07,-1.23 5.34,-4.24 -5.24,-21.91 -11.08,-43.63 -19.36,-64.69 -2.63,-6.72 -6.4,-11.68 -12.89,-14.55 -8.02,-3.56 -15.89,-7.51 -23.89,-11.15 -5.69,-2.57 -9.59,-6.62 -11.37,-12.93 -2.38,-8.43 4.91,-17.09 12.94,-14.8 5.56,1.58 10.92,4.04 16.44,5.89 2.66,0.89 5.9,-2.18 5.42,-4.89 -0.39,-2.21 -0.84,-4.42 -1.47,-6.56 -3.36,-11.49 -4.59,-24.46 -10.79,-34.05 -6.9,-10.68 -21.32,-11.9 -32.12,-18.01 -3.18,-1.8 -6.62,-3.37 -9.31,-5.8 -4.18,-3.76 -5.63,-8.76 -3.9,-14.27 1.48,-4.72 6.66,-8.61 11.59,-7.85 4.19,0.65 8.28,2.44 12.4,3.76 3.28,1.05 6.44,3.92 10.01,1.11 1.41,-3.85 -0.82,-7.14 -1.77,-10.61 -3.56,-13.02 -7.25,-26.01 -10.63,-39.07 -1.51,-5.86 1.77,-12.58 6.8,-14.59 5.33,-2.12 10.06,0.34 13.77,4.12 2.48,2.53 4.21,6.18 5.52,9.62 3.75,9.82 7.12,19.73 8.48,30.31 0.74,5.65 1.52,13.06 7.76,15.11 5.61,1.83 7.93,-4.96 11.68,-7.99 5.6,-4.54 13.46,-4.8 17.52,-0.63 4.35,4.48 5.85,13.48 2.82,18.78 -1.42,2.5 -3.3,4.77 -5.24,6.87 -4.38,4.75 -8.89,9.37 -13.45,13.94 -3.25,3.26 -5.17,7.1 -3.99,11.9 3.03,12.38 5.94,24.8 9.62,37 2.52,8.37 5.89,9.55 12.48,4.79 5.27,-3.82 10.48,-7.51 16.97,-8.58 4.56,-0.75 8.52,1.02 11.26,5.14 2.67,4.01 3.64,8.43 0.85,12.5 -2.45,3.54 -5.26,6.9 -8.3,9.9 -6.13,6.03 -14.5,10.59 -18.3,17.91 -4.62,8.92 4.61,18.22 5.16,27.88 0.61,10.7 5.77,20.18 8.77,30.25 2.97,9.93 5.68,19.94 8.93,31.42 6.93,-6.28 10.83,-13.04 14.61,-19.97 10.81,-19.74 21.14,-39.83 32.82,-58.98 6.33,-10.39 8.17,-19.78 2.16,-31.16 -3.49,-6.63 -5.96,-13.82 -8.75,-20.82 -1.4,-3.48 -2.78,-7.02 -3.63,-10.65 -1.25,-5.33 1.31,-10.65 5.77,-13.07 5.27,-2.86 12.07,-1.56 15.47,3.63 2.86,4.36 4.8,9.35 7.44,13.88 3.11,5.35 8.43,5.56 12.26,0.64 1.32,-1.7 2.17,-3.81 3.52,-5.48 12.87,-15.76 16.55,-31.74 1.42,-49.86 -4.63,-5.55 -7.1,-13.26 -7.88,-20.88 -0.61,-5.88 2.98,-13.02 7.48,-14.79 5.32,-2.08 9.65,0.5 13.67,4.32 4.45,4.22 7.2,9.44 9.55,15.08 1.32,3.17 1.74,7.46 7.64,8.24 4.86,-6.18 9.43,-13.3 13.36,-21.09 3.92,-7.79 8.3,-15.38 13.19,-22.51 4.25,-6.2 11.78,-7.23 17.06,-3.4 4.76,3.45 6.91,9.96 5,16.02 -0.88,2.79 -2.11,5.49 -3.53,8 -6.07,10.73 -12.34,21.35 -18.4,32.09 -5.82,10.31 -4,13.11 8.8,14.04 3.56,0.26 7.19,0.34 10.67,1.15 5.99,1.37 10.02,8.41 9.52,15.88 -0.34,5.13 -4.12,9.23 -9.82,9.67 -6.4,0.49 -12.89,0.14 -19.31,0.47 -25.5,1.29 -19.7,-2.5 -35.21,21.19 -1.18,1.81 -2.02,3.87 -2.95,5.86 -5.81,12.49 -4.41,15.64 8.3,18.53 2.11,0.48 4.3,0.53 6.4,1.06 8.01,2.01 13.18,8.78 12.22,15.83 -0.82,6.1 -6.89,10.89 -14.09,10.39 -7.88,-0.55 -15.78,-1.42 -23.6,-2.71 -8.09,-1.33 -13.47,1.18 -17.58,8.69 -10.45,19.11 -21.53,37.83 -32.33,56.74 -0.71,1.24 -1.14,2.69 -1.56,4.09 -1.12,3.66 -1.33,7.25 1.77,10.29 2.49,2.46 5.4,1.97 8.07,1.09 11.5,-3.78 22.63,-9.3 34.45,-11.29 19.23,-3.23 36.57,-11.67 55.01,-16.89 11.47,-3.25 18.03,-10.5 21.53,-21.86 1.95,-6.32 4.52,-12.42 7.04,-18.52 1.39,-3.36 2.91,-6.75 4.94,-9.69 3.84,-5.57 12.56,-4.64 16.56,1.4 2.63,3.99 2.98,8.24 2.95,12.86 -0.05,5.86 -3.77,11.3 -0.94,18.17 7.51,-1.26 15.12,-2.51 22.71,-3.83 5.45,-0.95 8.87,-4.43 10.42,-9.76 1.24,-4.23 1.68,-8.78 3.19,-12.87 3.29,-8.91 6.6,-17.89 10.78,-26.35 2.59,-5.21 10.97,-4.98 15.02,-0.38 4.19,4.77 5.87,10.29 5.23,16.6 -0.5,4.94 -4.67,9.33 -0.91,15.96 3.6,-1.03 7.57,-1.91 11.35,-3.31 11.35,-4.19 22.67,-8.48 33.92,-12.95 6.3,-2.5 12.34,-2.95 18.56,0.92 5.47,3.41 7.51,10.17 4.26,15.46"
       style="fill:#ffffff;fill-opacity:0.894118;fill-rule:nonzero;stroke:none"
       transform="matrix(0.13333333,0,0,-0.13333333,0,1201.2)"
       clip-path="url(#clipPath294)" />
    <path
       id="path295"
       d="m 4546.5,6586.11 c 15.41,-15.58 42.44,-15.99 58.91,-0.89 17.43,15.98 17.7,43.96 0.59,61.58 -15.99,16.47 -39.45,15.64 -57.46,-2.03 -15.83,-15.53 -16.81,-43.71 -2.04,-58.66"
       style="fill:#ffffff;fill-opacity:0.894118;fill-rule:nonzero;stroke:none"
       transform="matrix(0.13333333,0,0,-0.13333333,0,1201.2)"
       clip-path="url(#clipPath296)" />
    <path
       id="path297"
       d="m 2110.64,7028.37 c 15.41,-15.58 42.45,-15.99 58.92,-0.89 17.42,15.97 17.69,43.96 0.58,61.58 -15.98,16.47 -39.44,15.64 -57.45,-2.03 -15.84,-15.54 -16.82,-43.71 -2.05,-58.66"
       style="fill:#ffffff;fill-opacity:0.894118;fill-rule:nonzero;stroke:none"
       transform="matrix(0.13333333,0,0,-0.13333333,0,1201.2)"
       clip-path="url(#clipPath298)" />
    <path
       id="path299"
       d="m 3528.19,4194.62 c 15.4,-15.58 42.44,-15.99 58.9,-0.89 17.44,15.97 17.7,43.95 0.59,61.58 -15.98,16.46 -39.44,15.63 -57.45,-2.03 -15.84,-15.54 -16.82,-43.71 -2.04,-58.66"
       style="fill:#ffffff;fill-opacity:0.894118;fill-rule:nonzero;stroke:none"
       transform="matrix(0.13333333,0,0,-0.13333333,0,1201.2)"
       clip-path="url(#clipPath300)" />
    <path
       id="path301"
       d="m 1905.71,4429.18 c 15.41,-15.59 42.44,-16 58.91,-0.9 17.43,15.97 17.69,43.95 0.59,61.58 -15.99,16.47 -39.45,15.63 -57.46,-2.03 -15.84,-15.53 -16.81,-43.71 -2.04,-58.65"
       style="fill:#ffffff;fill-opacity:0.894118;fill-rule:nonzero;stroke:none"
       transform="matrix(0.13333333,0,0,-0.13333333,0,1201.2)"
       clip-path="url(#clipPath302)" />
    <path
       id="path303"
       d="m 1411.82,5877.22 c 7.7,-7.79 21.22,-8 29.45,-0.45 8.72,7.99 8.85,21.98 0.3,30.79 -8,8.24 -19.72,7.82 -28.73,-1.02 -7.92,-7.76 -8.41,-21.85 -1.02,-29.32"
       style="fill:#ffffff;fill-opacity:0.894118;fill-rule:nonzero;stroke:none"
       transform="matrix(0.13333333,0,0,-0.13333333,0,1201.2)"
       clip-path="url(#clipPath304)" />
    <path
       id="path305"
       d="m 2673.43,8200.18 c 7.71,-7.8 21.22,-8 29.46,-0.45 8.71,7.98 8.84,21.98 0.29,30.79 -7.99,8.23 -19.72,7.82 -28.73,-1.02 -7.92,-7.77 -8.41,-21.85 -1.02,-29.32"
       style="fill:#ffffff;fill-opacity:0.894118;fill-rule:nonzero;stroke:none"
       transform="matrix(0.13333333,0,0,-0.13333333,0,1201.2)"
       clip-path="url(#clipPath306)" />
    <path
       id="path307"
       d="m 3322.08,5856.1 c 7.71,-7.78 21.22,-7.99 29.46,-0.45 8.71,7.99 8.85,21.99 0.29,30.8 -7.99,8.23 -19.72,7.82 -28.72,-1.02 -7.92,-7.76 -8.41,-21.85 -1.03,-29.33"
       style="fill:#ffffff;fill-opacity:0.894118;fill-rule:nonzero;stroke:none"
       transform="matrix(0.13333333,0,0,-0.13333333,0,1201.2)"
       clip-path="url(#clipPath308)" />
    <path
       id="path309"
       d="m 1921.13,3721.91 c 7.7,-7.79 21.22,-8 29.46,-0.45 8.71,7.99 8.84,21.98 0.29,30.79 -7.99,8.23 -19.72,7.82 -28.73,-1.01 -7.92,-7.77 -8.4,-21.86 -1.02,-29.33"
       style="fill:#ffffff;fill-opacity:0.894118;fill-rule:nonzero;stroke:none"
       transform="matrix(0.13333333,0,0,-0.13333333,0,1201.2)"
       clip-path="url(#clipPath310)" />
    <path
       id="path311"
       d="m 4628.68,4423.19 c 7.7,-7.78 21.22,-7.99 29.45,-0.45 8.72,7.99 8.85,21.99 0.3,30.8 -8,8.23 -19.72,7.82 -28.73,-1.02 -7.92,-7.76 -8.41,-21.85 -1.02,-29.33"
       style="fill:#ffffff;fill-opacity:0.894118;fill-rule:nonzero;stroke:none"
       transform="matrix(0.13333333,0,0,-0.13333333,0,1201.2)"
       clip-path="url(#clipPath312)" />
    <path
       id="path313"
       d="m 3925.83,7016.64 c 7.71,-7.79 21.23,-8 29.46,-0.45 8.71,7.99 8.85,21.98 0.29,30.79 -7.99,8.24 -19.72,7.82 -28.72,-1.01 -7.92,-7.77 -8.41,-21.85 -1.03,-29.33"
       style="fill:#ffffff;fill-opacity:0.894118;fill-rule:nonzero;stroke:none"
       transform="matrix(0.13333333,0,0,-0.13333333,0,1201.2)"
       clip-path="url(#clipPath314)" />
    <path
       id="path315"
       d="m 3202.19,2669.35 c 7.71,-7.79 21.22,-8 29.46,-0.45 8.71,7.99 8.84,21.97 0.29,30.79 -7.99,8.24 -19.72,7.82 -28.73,-1.01 -7.92,-7.77 -8.41,-21.86 -1.02,-29.33"
       style="fill:#ffffff;fill-opacity:0.894118;fill-rule:nonzero;stroke:none"
       transform="matrix(0.13333333,0,0,-0.13333333,0,1201.2)"
       clip-path="url(#clipPath316)" />
  </g>
</svg>
