<?xml version="1.0" encoding="UTF-8" standalone="no"?>
<!-- Created with Inkscape (http://www.inkscape.org/) -->

<svg
   width="115.83302mm"
   height="79.105347mm"
   viewBox="0 0 115.83302 79.105347"
   version="1.1"
   id="svg5"
   xml:space="preserve"
   sodipodi:docname="limpiar.svg"
   xmlns:inkscape="http://www.inkscape.org/namespaces/inkscape"
   xmlns:sodipodi="http://sodipodi.sourceforge.net/DTD/sodipodi-0.dtd"
   xmlns="http://www.w3.org/2000/svg"
   xmlns:svg="http://www.w3.org/2000/svg"><sodipodi:namedview
     id="namedview7"
     pagecolor="#ffffff"
     bordercolor="#000000"
     borderopacity="0.25"
     inkscape:showpageshadow="2"
     inkscape:pageopacity="0.0"
     inkscape:pagecheckerboard="0"
     inkscape:deskcolor="#d1d1d1"
     inkscape:document-units="mm"
     showgrid="false" /><defs
     id="defs2" /><g
     inkscape:label="Capa 1"
     inkscape:groupmode="layer"
     id="layer1"
     transform="translate(-56.429548,-76.393476)"><path
       style="fill:#bc4749;fill-opacity:1;stroke-width:0.265;stroke-dasharray:none"
       d="m 60.396372,154.87965 c -1.447154,-0.6739 -2.864312,-2.11313 -3.536901,-3.59197 -0.389789,-0.85704 -0.429923,-4.15617 -0.429923,-35.34112 0,-31.184955 0.04013,-34.484085 0.429923,-35.341125 0.672589,-1.47884 2.089747,-2.91807 3.536901,-3.59197 l 1.324843,-0.61695 40.582845,-0.003 c 30.34605,-0.002 40.84482,0.0759 41.62139,0.30857 1.31487,0.39395 3.23625,2.07317 3.99485,3.49138 0.55601,1.03946 0.58832,1.45075 0.66836,8.50822 0.0821,7.2419 0.0708,7.43286 -0.48223,8.13594 -1.25134,1.59083 -3.43834,0.51146 -3.43834,-1.69695 v -1.02265 H 102.46705 60.266006 v 27.785135 27.78514 l 0.90569,0.9883 0.90569,0.9883 39.993244,0.0687 c 36.65093,0.0629 40.06987,0.0323 40.91014,-0.36641 1.65938,-0.78743 1.68732,-0.96389 1.68732,-10.6569 0,-5.96295 0.0955,-8.94147 0.30106,-9.39268 0.55993,-1.22891 2.44208,-1.3525 3.30455,-0.21699 0.55924,0.73629 0.50856,17.72385 -0.0586,19.65637 -0.52394,1.78513 -2.57365,3.92191 -4.23912,4.4192 -0.84089,0.25109 -10.33616,0.32459 -41.67188,0.3226 l -40.582845,-0.003 z M 144.66809,86.432375 c 0,-4.50533 -0.19854,-5.20037 -1.68732,-5.90685 -0.84027,-0.39873 -4.25921,-0.42935 -40.91014,-0.3664 l -39.993244,0.0687 -0.90569,0.9883 -0.90569,0.9883 v 4.10493 4.10493 h 42.201044 42.20104 z m -25.01575,0.1068 c -1.35914,-1.46654 -0.37727,-3.79783 1.59952,-3.79783 1.2909,0 2.24957,0.95841 2.24957,2.24896 0,2.05317 -2.46314,3.04433 -3.84909,1.54887 z m 9.26102,0.0507 c -1.40005,-1.40005 -0.42181,-3.84849 1.53761,-3.84849 1.45682,0 2.55109,1.38815 2.19927,2.7899 -0.41979,1.67257 -2.52619,2.26928 -3.73688,1.05859 z m 9.23428,0.0223 c -1.02172,-0.87885 -1.02172,-2.36473 0,-3.24358 1.02544,-0.88205 2.13576,-0.81924 3.13218,0.17718 0.67255,0.67255 0.77764,0.94352 0.64139,1.65365 -0.35419,1.84589 -2.38578,2.60647 -3.77357,1.41275 z m -14.6742,59.784185 c -4.6438,-1.93011 -11.06414,-7.83073 -17.5282,-16.10929 -3.15707,-4.04328 -3.61048,-4.8361 -3.61048,-6.31322 0,-1.02944 0.14866,-1.43123 0.80697,-2.18101 0.95837,-1.09152 1.79108,-1.38242 4.61699,-1.61292 3.0751,-0.25082 5.86344,-0.87162 7.39042,-1.64539 0.73494,-0.37243 2.1112,-1.41563 3.05834,-2.31824 2.82885,-2.69582 6.29324,-4.71129 10.48884,-6.10206 1.97198,-0.65367 2.22688,-0.83372 4.85927,-3.43237 1.54381,-1.52403 3.08941,-2.81797 3.47874,-2.91234 0.58643,-0.14214 0.94263,0.0494 2.18562,1.17501 0.81675,0.73966 1.57303,1.34349 1.68063,1.34186 0.1076,-0.002 5.01767,-4.95095 10.91126,-10.998475 5.8936,-6.04753 11.2262,-11.29892 11.85022,-11.66977 0.96695,-0.57463 1.37004,-0.65723 2.72802,-0.55901 1.5914,0.11512 1.59612,0.11796 3.71859,2.24042 l 2.12516,2.12517 0.0273,1.56096 c 0.018,1.03182 -0.13453,1.87487 -0.45014,2.487 -0.26261,0.50932 -4.24477,4.73607 -8.84925,9.392775 -4.60449,4.65671 -9.55926,9.68617 -11.01061,11.1766 l -2.63883,2.70986 1.38205,1.39943 c 2.05651,2.08237 2.00644,2.26367 -1.66065,6.01301 -1.77228,1.81203 -3.04271,3.32592 -3.04271,3.6258 0,0.8774 -1.23043,4.1859 -2.36122,6.34908 -2.7699,5.29874 -7.96086,10.25198 -14.59754,13.92902 -2.09459,1.1605 -3.37434,1.23604 -5.55881,0.3281 z m 6.77486,-5.59112 c 6.30991,-4.15442 10.32386,-9.33064 11.84013,-15.26851 l 0.59144,-2.31617 -5.07518,-5.07518 -5.07518,-5.07518 -1.30661,0.3016 c -1.83443,0.42344 -5.72693,2.14367 -7.47168,3.302 -0.8085,0.53676 -2.40499,1.82823 -3.54774,2.86993 -3.09275,2.81925 -5.83561,3.91027 -10.98955,4.37127 -3.13775,0.28066 -3.09912,0.2155 -1.43307,2.41746 l 1.45069,1.91732 h 1.68771 c 2.45184,0 5.6012,-0.6729 7.42279,-1.58596 1.81079,-0.90765 2.44647,-1.43691 4.05954,-3.3799 1.2812,-1.54325 1.9248,-1.7197 3.04853,-0.83577 1.41734,1.11488 0.47601,3.39295 -2.38567,5.77343 -2.06401,1.71694 -7.28001,3.73236 -9.65951,3.73236 -0.41329,0 -0.75143,0.10737 -0.75143,0.2386 0,0.13124 1.15655,1.45495 2.5701,2.9416 l 2.5701,2.70299 1.37005,-0.1414 c 3.31204,-0.34183 6.77095,-2.34826 10.51356,-6.09864 2.69125,-2.69684 2.92026,-2.86459 3.70417,-2.71327 0.9137,0.17638 1.7616,1.01236 1.7616,1.73682 0,1.25837 -4.06669,5.52583 -7.26963,7.62853 -1.14491,0.75162 -2.89464,1.68555 -3.8883,2.07539 -0.99366,0.38985 -1.80665,0.79077 -1.80665,0.89094 0,0.10017 0.84194,0.61523 1.87098,1.14456 l 1.87098,0.96244 1.10558,-0.56182 c 0.60807,-0.30901 2.05809,-1.18896 3.22225,-1.95544 z m 12.11321,-27.42982 -4.96244,-4.9676 -0.90652,0.90652 -0.90651,0.90652 4.85238,5.05374 4.85238,5.05373 1.01657,-0.99265 1.01658,-0.99266 z m 14.7969,-12.17929 c 5.74229,-5.857215 10.58355,-10.917375 10.75837,-11.244795 0.37004,-0.69306 0.0624,-1.49896 -0.85621,-2.24308 -1.29366,-1.0479 -1.27392,-1.06419 -12.45738,10.27879 -5.82811,5.911235 -10.64013,10.863985 -10.69338,11.006115 -0.0963,0.25712 2.29945,2.85245 2.63313,2.85245 0.0962,0 4.87318,-4.79227 10.61547,-10.64948 z"
       id="path302" /></g></svg>
