<?xml version="1.0" encoding="UTF-8" standalone="no"?>
<!-- Created with Inkscape (http://www.inkscape.org/) -->

<svg
   version="1.1"
   id="svg2471"
   width="1927.7373"
   height="1445.8134"
   viewBox="0 0 1927.7373 1445.8134"
   sodipodi:docname="vecteezy_hamburger-menu-filled-icon-in-transparent-background-basic_21190402.eps"
   xmlns:inkscape="http://www.inkscape.org/namespaces/inkscape"
   xmlns:sodipodi="http://sodipodi.sourceforge.net/DTD/sodipodi-0.dtd"
   xmlns="http://www.w3.org/2000/svg"
   xmlns:svg="http://www.w3.org/2000/svg">
  <defs
     id="defs2475" />
  <sodipodi:namedview
     id="namedview2473"
     pagecolor="#ffffff"
     bordercolor="#000000"
     borderopacity="0.25"
     inkscape:showpageshadow="2"
     inkscape:pageopacity="0.0"
     inkscape:pagecheckerboard="0"
     inkscape:deskcolor="#d1d1d1"
     showgrid="false" />
  <g
     id="g2479"
     inkscape:groupmode="layer"
     inkscape:label="Page 1"
     transform="matrix(1.3333333,0,0,-1.3333333,-1034.8494,2722.9066)">
    <g
       id="g2481"
       transform="scale(0.1)">
      <path
         d="m 8665,18614.5 h 12650.8 c 498.8,0 903.6,404.8 903.6,903.6 0,498.8 -404.8,903.7 -903.6,903.7 H 8665 c -498.8,0 -903.63,-404.9 -903.63,-903.7 0,-498.8 404.86,-903.6 903.63,-903.6 z m 0,-4518.1 h 12650.8 c 498.8,0 903.6,404.8 903.6,903.6 0,498.8 -404.8,903.6 -903.6,903.6 H 8665 c -498.8,0 -903.63,-404.8 -903.63,-903.6 0,-498.8 404.86,-903.6 903.63,-903.6 z m 0,-4518.2 h 12650.8 c 498.8,0 903.6,404.9 903.6,903.7 0,498.8 -404.8,903.5 -903.6,903.5 H 8665 c -498.8,0 -903.63,-404.8 -903.63,-903.5 0,-498.9 404.86,-903.7 903.63,-903.7 v 0"
         style="fill:#99a88e;fill-opacity:1;fill-rule:evenodd;stroke:none"
         id="path2483"
         inkscape:export-filename="../imagesINTERFACES/menuhamb.png"
         inkscape:export-xdpi="96"
         inkscape:export-ydpi="96" />
    </g>
  </g>
</svg>
