<?xml version="1.0" encoding="UTF-8" standalone="no"?>
<!-- Created with Inkscape (http://www.inkscape.org/) -->

<svg
   version="1.1"
   id="svg56208"
   width="176.95703"
   height="245.78102"
   viewBox="0 0 176.95703 245.78102"
   sodipodi:docname="3242039_471180-PG3M0Y-981.eps"
   xmlns:inkscape="http://www.inkscape.org/namespaces/inkscape"
   xmlns:sodipodi="http://sodipodi.sourceforge.net/DTD/sodipodi-0.dtd"
   xmlns="http://www.w3.org/2000/svg"
   xmlns:svg="http://www.w3.org/2000/svg">
  <defs
     id="defs56212" />
  <sodipodi:namedview
     id="namedview56210"
     pagecolor="#ffffff"
     bordercolor="#000000"
     borderopacity="0.25"
     inkscape:showpageshadow="2"
     inkscape:pageopacity="0.0"
     inkscape:pagecheckerboard="0"
     inkscape:deskcolor="#d1d1d1"
     showgrid="false" />
  <g
     id="g56216"
     inkscape:groupmode="layer"
     inkscape:label="Page 1"
     transform="matrix(1.3333333,0,0,-1.3333333,-395.29828,629.78501)">
    <g
       id="g56218"
       transform="scale(0.1)">
      <path
         d="m 3903.52,3828.56 c 5.68,6.2 9.52,11.31 14.27,15.32 4.12,3.45 9.61,5.21 13.92,8.47 41.2,31.26 81.57,63.06 111.69,106.35 29.46,42.36 52.15,87.53 66.65,136.98 12.8,43.72 14.71,88.92 13.48,133.65 -0.94,33.62 -9.63,67.04 -15.12,100.51 -2.15,13.13 -4.34,26.33 -7.71,39.19 -9.87,37.74 -22.7,74.3 -45.47,106.61 -3.11,4.45 -5.35,9.54 -7.82,14.41 -16.61,32.77 -38.83,61.79 -62.46,89.52 -14.48,16.99 -31.37,32.23 -48.61,46.52 -12.53,10.37 -27.31,18.09 -41.28,26.66 -37.05,22.71 -76.29,40.22 -119.4,47.63 -14.92,2.57 -30.03,4.76 -45.1,5.35 -19.91,0.77 -39.99,1.11 -59.77,-0.79 -20.51,-1.96 -40.63,-8.51 -61.13,-10 -31.61,-2.3 -60.84,-12.46 -88.56,-25.87 -34.35,-16.62 -67.94,-35.22 -100.19,-55.6 -23.43,-14.82 -45.25,-32.73 -65.82,-51.44 -18.78,-17.07 -34.72,-37.23 -52.24,-55.72 -27.9,-29.45 -50.08,-62.36 -62.97,-101.15 -9.17,-27.59 -19.32,-54.86 -27.81,-82.65 -10.67,-34.94 -18.76,-70.66 -19.86,-107.27 -1.97,-64.99 13.42,-126.82 40.69,-185.22 29.16,-62.49 66.7,-119.49 120.03,-164.7 6.78,-5.74 12.96,-12.18 21.25,-20.02 -11.9,-5.79 -21.58,-12.37 -32.28,-15.4 -46.35,-13.11 -89.81,-33.25 -133.12,-53.7 -48.92,-23.12 -97.4,-47.07 -142.5,-77.34 -30.77,-20.65 -56.75,-44.7 -72.2,-79.76 -21.14,-48.02 -14.4,-92.55 25.09,-126.54 17.19,-14.8 37.55,-26.19 60.71,-31.03 21.12,-4.43 41.89,-3.01 63.26,-0.94 40.79,3.92 79.75,14.95 118.95,25.49 30.54,8.21 61.17,16.24 93.04,16.56 7.92,0.08 15.85,-2.45 24.73,-3.94 -10.11,-23.68 -14.65,-46.85 -31.17,-64.36 -2.02,-2.14 -3.13,-5.21 -4.32,-8 -9.19,-21.82 -18.25,-43.7 -27.45,-65.52 -18.38,-43.66 -35.24,-88.07 -55.69,-130.75 -22.36,-46.68 -44.88,-93.03 -56.79,-143.72 -8.11,-34.5 -14.65,-68.54 -0.2,-103.66 12.84,-31.17 31.38,-56.32 62.19,-70.6 34.84,-16.14 70.54,-22.91 106.93,-3.97 10.7,5.56 21.82,10.46 32.08,16.71 22.41,13.65 42.51,30.01 56.82,52.53 10.66,16.79 21.32,33.59 31.96,50.4 22.4,35.39 44.77,70.82 67.19,106.21 7.47,11.78 15.76,23.09 22.49,35.27 20.81,37.66 41,75.64 61.51,113.47 7.27,13.43 23.04,13.87 31.39,0.85 2.95,-4.59 5.14,-9.66 8.1,-14.25 48.34,-75.14 95.81,-150.84 148.99,-222.77 12.28,-16.61 22.48,-34.75 34.68,-51.42 27.97,-38.21 63.44,-66.8 108.87,-82.1 43.61,-14.69 87.99,-0.98 109.06,34.94 30.4,51.83 37.12,106.86 22.91,165.38 -6.95,28.63 -20.04,54.64 -29.95,81.98 -5.99,16.52 -12.32,33.05 -20.23,48.7 -12.79,25.33 -24.68,50.99 -41.2,74.6 -15.89,22.68 -26.17,49.22 -40.39,73.17 -12.65,21.32 -28.25,40.9 -40.87,62.21 -13.37,22.54 -35.4,41.18 -33.98,72.93 1.62,-0.08 3.27,-0.06 4.92,-0.04 3.62,0.04 7.23,0.09 10.47,-0.98 14.3,-4.69 27.99,-11.49 42.47,-15.29 27.03,-7.05 54.26,-13.81 81.79,-18.42 31.7,-5.32 63.91,-7.55 95.72,-12.28 28.99,-4.29 56.9,-0.13 84.7,7.28 15.57,4.14 26.38,13.33 34.13,27.7 26.6,49.33 0.28,122.82 -36.25,145.89 -20.49,12.93 -40.37,26.97 -61.6,38.56 -32.93,17.98 -63.4,40.75 -99.79,52.18 -5.16,1.62 -10.04,4.34 -14.8,6.99 -21.17,11.8 -42.2,23.85 -63.39,35.6 -3.67,2.03 -7.94,2.94 -11.89,4.47 -16.27,6.28 -32.65,12.32 -48.73,19.06 -5.33,2.22 -9.9,6.26 -17.02,10.91 m 25.46,4.05 c 4.73,-2.69 7.12,-4.55 9.83,-5.52 81.9,-29.45 160.58,-66.42 238.98,-103.83 34.7,-16.56 67.24,-37.91 88.21,-71.51 28.9,-46.38 36.41,-95.05 8.19,-144.88 -15.19,-26.8 -37.24,-43.53 -69.56,-45.12 -16.82,-0.84 -33.49,-4.6 -50.29,-6.37 -8.3,-0.88 -16.91,-1.24 -25.15,-0.13 -42.59,5.77 -84.97,11.75 -126.71,23.48 -22.26,6.26 -44.65,10.32 -64.25,23.31 -1.38,0.9 -3.52,0.85 -5.3,0.84 -1.09,-0.01 -2.19,-0.8 -3.75,-1.43 13.33,-20.93 26.44,-41.89 39.93,-62.6 22.9,-35.14 47.36,-69.33 68.8,-105.33 38.62,-64.86 73.28,-131.84 91.3,-205.85 8.62,-35.4 17.39,-71.28 9.93,-108.16 -11.96,-59.07 -41.42,-105.68 -100.78,-125.71 -27.71,-9.35 -57.65,-8.24 -85.35,4.57 -25.89,11.98 -51.78,24.3 -72.17,45.06 -18.64,19 -37.64,37.71 -52.36,60.21 -20.27,30.96 -42.07,60.95 -61.33,92.5 -34.83,57.01 -68.25,114.86 -102.31,172.33 -0.58,0.98 -1.76,1.62 -4.68,4.21 -3.88,-4.98 -8.52,-9.36 -11.26,-14.74 -15.5,-30.26 -30.55,-60.76 -45.75,-91.19 -1.89,-3.8 -3.5,-7.77 -5.63,-11.44 -19.84,-34.15 -40.4,-67.87 -59.44,-102.46 -15.52,-28.2 -30.29,-56.7 -48.79,-83.2 -32.35,-46.31 -73.25,-79.18 -130.66,-87.82 -61.4,-9.26 -133.2,17.28 -165.2,79.01 -12.88,24.86 -19.73,52.96 -16.18,82.63 5.27,44.16 15.01,87.27 28.95,129.27 8.19,24.69 19.58,48.35 30.31,72.12 18.78,41.51 37.62,83.01 57.5,124 11.12,22.9 24.4,44.74 36.68,67.06 9.01,16.37 17.98,32.75 28.9,52.66 -8.52,-1 -14.24,-0.83 -19.43,-2.4 -31.38,-9.53 -62.5,-19.9 -93.97,-29.12 -40.88,-12.01 -82.31,-23.21 -125.13,-22.85 -50.63,0.43 -95.24,17.75 -128.76,57.54 -9.81,11.64 -16.77,25.23 -19.25,40.67 -1.89,11.78 -6.78,22.51 -7.94,34.98 -1.87,19.78 3.67,37.22 8.29,55.29 1.3,5.09 4.62,9.73 7.35,14.38 1.84,3.1 4.73,5.6 6.44,8.76 23.68,43.81 59.51,73.92 104.47,94.3 12.65,5.74 24.24,13.8 36.29,20.81 38.02,22.11 80.11,35.06 119.63,53.5 31.55,14.71 63.88,25.57 99.91,33.89 -4.14,5.27 -6.16,8.73 -8.98,11.26 -47.24,42.33 -84.02,92.85 -112.58,148.94 -22.72,44.61 -34.87,92.93 -44.94,142.07 -17.41,84.89 -2.76,166.09 26.06,245.25 19.71,54.1 49.82,102.27 94.43,140.91 24.73,21.4 46.72,45.91 72.78,66.13 22.67,17.61 45.92,33.95 71.74,46.52 37.09,18.07 72.52,39.97 112.74,50.96 15.76,4.31 31.97,7.18 48.11,9.96 22.72,3.92 45.52,7.77 68.41,10.52 27.19,3.27 54.46,3.97 81.6,-1.47 21.28,-4.27 43.17,-6.49 63.89,-12.6 23.72,-7.01 47.31,-15.65 69.46,-26.6 33.26,-16.48 61.71,-40.6 89.36,-65.05 13.84,-12.24 25.88,-27.23 36.16,-42.67 24.56,-36.82 48.77,-73.97 70.79,-112.33 13.2,-23.01 21.99,-48.54 32.76,-72.94 9.73,-36.75 8.37,-46.22 14.18,-68.8 6.07,-23.59 13.22,-46.76 14.17,-71.25 0.49,-12.72 0.61,-25.5 0,-38.21 -1.04,-21.25 -3.25,-42.45 -4.16,-63.72 -1.24,-28.94 -8.45,-56.55 -18.76,-83.28 -19.41,-50.27 -44.31,-97.37 -82.83,-136.09 -28.84,-28.98 -60.83,-54.06 -94.37,-77.3 -6.21,-4.31 -11.55,-9.88 -18.53,-15.93"
         style="fill:#231f20;fill-opacity:1;fill-rule:evenodd;stroke:none"
         id="path56422" />
      <path
         d="m 3589.68,3705.27 c 0.8,-31.62 11.74,-50.64 31.98,-64.96 5.42,-3.84 10.16,-5.62 16.63,-4.53 39.38,6.59 52.95,27.66 56.71,60.4 1.83,16 -3.12,35.45 -22.79,43.74 -5.02,2.11 -9.71,5.07 -14.83,6.83 -31.68,10.9 -67.6,-14.81 -67.7,-41.48 m 51.37,-274.88 c 3.64,0 7.32,-0.38 10.9,0.06 21.93,2.71 47.19,23.69 48.46,42.94 1.85,27.84 -1.71,54.11 -28.51,71.54 -17.42,11.33 -50.71,10.74 -65.93,-3.26 -20.21,-18.56 -27.22,-54.86 -13.02,-78.31 10.69,-17.64 24.41,-33.31 48.1,-32.97 m 256.03,893.63 c -23.76,0.53 -45.46,-13.18 -54.98,-35.22 -9.87,-22.88 -6.05,-43.82 9.43,-63.08 9.2,-11.43 21.11,-19.83 35.29,-20.17 31.98,-0.75 56.89,24.94 60.68,47.87 4.71,28.46 -9.03,73.35 -50.42,70.6 m 131.88,-771.22 c 0.16,-21.4 18.31,-33.49 42.15,-25.01 17.78,6.32 28.66,19.7 37.68,35.17 4.28,7.34 6.6,16.72 12.63,21.94 12.96,11.23 17.4,25.7 21.52,41.16 1.61,6.02 5.49,11.95 9.73,16.66 10.12,11.24 11.49,26.57 2.3,37.38 -16.15,18.96 -45.02,18.68 -60.06,-1.18 -4.27,-5.62 -7.58,-12.64 -9.14,-19.51 -5.94,-26.25 -17.97,-48.34 -37.61,-67.25 -9.6,-9.25 -19.93,-20.14 -19.2,-39.36 m -842.31,-31.52 c -7.29,28.99 -14.19,63.17 -50.74,79.56 -12.13,5.45 -18.92,14.4 -19.8,28.1 -0.67,10.27 -2.01,20.6 -4.22,30.65 -2.55,11.62 -9.81,20 -22.21,20.95 -12.56,0.98 -24.43,-1.26 -30.84,-14.42 -2.66,-5.47 -5.31,-10.99 -8.59,-16.08 -10.34,-15.96 -6.7,-31.62 1.74,-46.41 4.42,-7.75 10.4,-15.44 17.51,-20.68 16.65,-12.21 26.81,-27.54 28.9,-48.13 0.17,-1.8 0.55,-3.64 1.17,-5.33 8.99,-24 25.16,-40.04 51.09,-44.1 23.75,-3.71 35.93,7.11 35.99,35.89 m 103.39,-389.56 c -19.92,1.14 -36.37,-21.77 -27.43,-39.77 5.85,-11.79 13.42,-23.18 22.16,-33.01 21.29,-23.88 48.38,-35.42 80.73,-33.95 15.86,0.7 29.43,-5.01 41.29,-15.54 3.43,-3.07 7.81,-5.39 12.13,-7.13 14.04,-5.64 22.62,3.96 31.56,12.03 12.53,11.31 14.99,23.77 5.1,36.76 -12.57,16.52 -27.31,31.04 -49.04,35.09 -9.5,1.78 -19.18,2.69 -28.65,4.56 -18.96,3.74 -34.61,14.2 -49.59,25.7 -11.37,8.72 -23.83,14.37 -38.26,15.26 m 791.2,28.41 c -1.88,4.63 -2.74,10.57 -6.09,14.29 -17.78,19.88 -32.31,24.82 -51.61,9.02 -30.6,-25.06 -66.62,-34.4 -104.07,-39.2 -27.89,-3.57 -45.4,-17.83 -56.12,-42.68 -7.53,-17.42 0.25,-34.83 18.28,-40.19 9.03,-2.69 17.61,-2.4 26.68,0.82 19.93,7.07 39.28,16.06 61.01,17.4 28.48,1.77 53.43,15.08 77.76,28.04 19.57,10.42 29.15,29.89 34.16,52.5 m -400.96,820.71 c 9.06,0.61 18.44,-0.13 27.08,2.08 22.82,5.85 45.02,14.26 67.99,19.25 25.4,5.51 36.33,24.66 46.8,44.55 6.64,12.63 4.42,30.3 -4.07,37.46 -12.74,10.74 -27.44,16.33 -43.94,10.07 -8.42,-3.18 -16.11,-8.35 -23.98,-12.86 -29.56,-16.93 -60.85,-24.86 -94.49,-15.89 -15.79,4.21 -30.69,11.71 -46.45,16.09 -15.08,4.18 -30.67,8.09 -46.18,8.73 -18.2,0.75 -33.26,-19.82 -28.39,-36.28 4.22,-14.25 11.28,-26.77 24.88,-34.55 5.79,-3.3 11.17,-7.32 16.76,-10.97 31.63,-20.64 67.43,-25.66 103.99,-27.68 m -93.73,460.82 c 3.65,0 7.3,0.12 10.93,-0.02 27.96,-1.05 54.5,4.74 78.25,19.41 16.95,10.49 33.42,22.17 48.44,35.24 32.36,28.15 50.87,62.73 45.65,107.44 -2.9,24.78 -22.1,46.56 -46.28,52.43 -26.64,6.48 -49.24,-2.76 -70.07,-17.19 -21.2,-14.67 -31.95,-37.83 -43.31,-59.94 -21.23,-41.28 -54.79,-61.67 -101.01,-62.37 -8.39,-0.12 -16.9,-1.8 -25.08,-3.85 -15.58,-3.9 -19.38,-17.18 -7.42,-28.49 30.71,-29.02 66.66,-45.65 109.9,-42.66 m 316.97,-613.1 c 7.12,-4.65 11.69,-8.69 17.02,-10.91 16.08,-6.74 32.46,-12.78 48.73,-19.06 3.95,-1.53 8.22,-2.44 11.89,-4.47 21.19,-11.75 42.22,-23.8 63.39,-35.6 4.76,-2.65 9.64,-5.37 14.8,-6.99 36.39,-11.43 66.86,-34.2 99.79,-52.18 21.23,-11.59 41.11,-25.63 61.6,-38.56 36.53,-23.07 62.85,-96.56 36.25,-145.89 -7.75,-14.37 -18.56,-23.56 -34.13,-27.7 -27.8,-7.41 -55.71,-11.57 -84.7,-7.28 -31.81,4.73 -64.02,6.96 -95.72,12.28 -27.53,4.61 -54.76,11.37 -81.79,18.42 -14.48,3.8 -28.17,10.6 -42.47,15.29 -3.24,1.07 -6.85,1.02 -10.47,0.98 -1.65,-0.02 -3.3,-0.04 -4.92,0.04 -1.42,-31.75 20.61,-50.39 33.98,-72.93 12.62,-21.31 28.22,-40.89 40.87,-62.21 14.22,-23.95 24.5,-50.49 40.39,-73.17 16.52,-23.61 28.41,-49.27 41.2,-74.6 7.91,-15.65 14.24,-32.18 20.23,-48.7 9.91,-27.34 23,-53.35 29.95,-81.98 14.21,-58.52 7.49,-113.55 -22.91,-165.38 -21.07,-35.92 -65.45,-49.63 -109.06,-34.94 -45.43,15.3 -80.9,43.89 -108.87,82.1 -12.2,16.67 -22.4,34.81 -34.68,51.42 -53.18,71.93 -100.65,147.63 -148.99,222.77 -2.96,4.59 -5.15,9.66 -8.1,14.25 -8.35,13.02 -24.12,12.58 -31.39,-0.85 -20.51,-37.83 -40.7,-75.81 -61.51,-113.47 -6.73,-12.18 -15.02,-23.49 -22.49,-35.27 -22.42,-35.39 -44.79,-70.82 -67.19,-106.21 -10.64,-16.81 -21.3,-33.61 -31.96,-50.4 -14.31,-22.52 -34.41,-38.88 -56.82,-52.53 -10.26,-6.25 -21.38,-11.15 -32.08,-16.71 -36.39,-18.94 -72.09,-12.17 -106.93,3.97 -30.81,14.28 -49.35,39.43 -62.19,70.6 -14.45,35.12 -7.91,69.16 0.2,103.66 11.91,50.69 34.43,97.04 56.79,143.72 20.45,42.68 37.31,87.09 55.69,130.75 9.2,21.82 18.26,43.7 27.45,65.52 1.19,2.79 2.3,5.86 4.32,8 16.52,17.51 21.06,40.68 31.17,64.36 -8.88,1.49 -16.81,4.02 -24.73,3.94 -31.87,-0.32 -62.5,-8.35 -93.04,-16.56 -39.2,-10.54 -78.16,-21.57 -118.95,-25.49 -21.37,-2.07 -42.14,-3.49 -63.26,0.94 -23.16,4.84 -43.52,16.23 -60.71,31.03 -39.49,33.99 -46.23,78.52 -25.09,126.54 15.45,35.06 41.43,59.11 72.2,79.76 45.1,30.27 93.58,54.22 142.5,77.34 43.31,20.45 86.77,40.59 133.12,53.7 10.7,3.03 20.38,9.61 32.28,15.4 -8.29,7.84 -14.47,14.28 -21.25,20.02 -53.33,45.21 -90.87,102.21 -120.03,164.7 -27.27,58.4 -42.66,120.23 -40.69,185.22 1.1,36.61 9.19,72.33 19.86,107.27 8.49,27.79 18.64,55.06 27.81,82.65 12.89,38.79 35.07,71.7 62.97,101.15 17.52,18.49 33.46,38.65 52.24,55.72 20.57,18.71 42.39,36.62 65.82,51.44 32.25,20.38 65.84,38.98 100.19,55.6 27.72,13.41 56.95,23.57 88.56,25.87 20.5,1.49 40.62,8.04 61.13,10 19.78,1.9 39.86,1.56 59.77,0.79 15.07,-0.59 30.18,-2.78 45.1,-5.35 43.11,-7.41 82.35,-24.92 119.4,-47.63 13.97,-8.57 28.75,-16.29 41.28,-26.66 17.24,-14.29 34.13,-29.53 48.61,-46.52 23.63,-27.73 45.85,-56.75 62.46,-89.52 2.47,-4.87 4.71,-9.96 7.82,-14.41 22.77,-32.31 35.6,-68.87 45.47,-106.61 3.37,-12.86 5.56,-26.06 7.71,-39.19 5.49,-33.47 14.18,-66.89 15.12,-100.51 1.23,-44.73 -0.68,-89.93 -13.48,-133.65 -14.5,-49.45 -37.19,-94.62 -66.65,-136.98 -30.12,-43.29 -70.49,-75.09 -111.69,-106.35 -4.31,-3.26 -9.8,-5.02 -13.92,-8.47 -4.75,-4.01 -8.59,-9.12 -14.27,-15.32"
         style="fill:#cb8441;fill-opacity:1;fill-rule:evenodd;stroke:none"
         id="path56424" />
      <path
         d="m 3481.16,4495.67 c 5.4,-7.57 7.75,-14.24 12.3,-16.62 24.23,-12.62 49.1,-23.09 77.33,-24.07 39.03,-1.35 74.34,10.17 108.12,28.1 39.93,21.18 63.66,53.12 67.07,99.37 1.12,15.11 -3.46,25.93 -12.87,37.85 -22.84,28.98 -73.5,19.76 -89.03,-12.29 -9.24,-19.08 -18.6,-38.21 -29.54,-56.35 -5.78,-9.59 -13.86,-18.72 -22.96,-25.21 -26.88,-19.2 -57.59,-27.37 -90.61,-27.34 -5.51,0.01 -11.04,-1.85 -19.81,-3.44 m 105.39,-54.01 c -43.24,-2.99 -79.19,13.64 -109.9,42.66 -11.96,11.31 -8.16,24.59 7.42,28.49 8.18,2.05 16.69,3.73 25.08,3.85 46.22,0.7 79.78,21.09 101.01,62.37 11.36,22.11 22.11,45.27 43.31,59.94 20.83,14.43 43.43,23.67 70.07,17.19 24.18,-5.87 43.38,-27.65 46.28,-52.43 5.22,-44.71 -13.29,-79.29 -45.65,-107.44 -15.02,-13.07 -31.49,-24.75 -48.44,-35.24 -23.75,-14.67 -50.29,-20.46 -78.25,-19.41 -3.63,0.14 -7.28,0.02 -10.93,0.02"
         style="fill:#231f20;fill-opacity:1;fill-rule:evenodd;stroke:none"
         id="path56426" />
      <path
         d="m 3670.21,4000.97 c 40.77,2.27 74.56,8.23 106.82,22.23 17.46,7.58 28.39,20.62 35.54,37.19 5.53,12.8 0.58,19.41 -13.72,20.21 -12.58,0.7 -24.66,-2.47 -34.3,-9.96 -14.33,-11.13 -31.11,-15.91 -47.52,-22.07 -31.46,-11.82 -60.58,-5.38 -89.13,9.77 -11.74,6.23 -24.1,11.57 -36.68,15.82 -6.61,2.24 -14.53,2.56 -21.47,1.42 -12,-1.95 -19.53,-12.8 -15.52,-22.34 6.92,-16.52 16.84,-31.78 34.28,-38.34 28.11,-10.6 58.13,-11.2 81.7,-13.93 m 10.07,-20.13 c -36.56,2.02 -72.36,7.04 -103.99,27.68 -5.59,3.65 -10.97,7.67 -16.76,10.97 -13.6,7.78 -20.66,20.3 -24.88,34.55 -4.87,16.46 10.19,37.03 28.39,36.28 15.51,-0.64 31.1,-4.55 46.18,-8.73 15.76,-4.38 30.66,-11.88 46.45,-16.09 33.64,-8.97 64.93,-1.04 94.49,15.89 7.87,4.51 15.56,9.68 23.98,12.86 16.5,6.26 31.2,0.67 43.94,-10.07 8.49,-7.16 10.71,-24.83 4.07,-37.46 -10.47,-19.89 -21.4,-39.04 -46.8,-44.55 -22.97,-4.99 -45.17,-13.4 -67.99,-19.25 -8.64,-2.21 -18.02,-1.47 -27.08,-2.08"
         style="fill:#231f20;fill-opacity:1;fill-rule:evenodd;stroke:none"
         id="path56428" />
      <path
         d="m 3917.04,3129.12 c -4.72,-0.53 -9.68,-0.25 -14.08,-1.71 -17.76,-5.88 -26.81,-20.2 -32.5,-36.66 -0.94,-2.7 3.17,-9.46 6.45,-10.9 10.19,-4.47 20.77,-4.97 31.64,0 9.76,4.48 20.04,9.03 30.53,10.4 27.93,3.72 54.05,11.81 79.49,24.04 18.25,8.76 29.41,22.97 38.99,39.26 5.82,9.84 3.42,17.8 -5.36,23.42 -9.95,6.39 -17.4,5.06 -25.32,-3.54 -8.5,-9.24 -16.88,-18.75 -26.44,-26.8 -24.35,-20.51 -55.43,-12.67 -83.4,-17.51 m 164.2,31.01 c -5.01,-22.61 -14.59,-42.08 -34.16,-52.5 -24.33,-12.96 -49.28,-26.27 -77.76,-28.04 -21.73,-1.34 -41.08,-10.33 -61.01,-17.4 -9.07,-3.22 -17.65,-3.51 -26.68,-0.82 -18.03,5.36 -25.81,22.77 -18.28,40.19 10.72,24.85 28.23,39.11 56.12,42.68 37.45,4.8 73.47,14.14 104.07,39.2 19.3,15.8 33.83,10.86 51.61,-9.02 3.35,-3.72 4.21,-9.66 6.09,-14.29"
         style="fill:#231f20;fill-opacity:1;fill-rule:evenodd;stroke:none"
         id="path56430" />
      <path
         d="m 3422.28,3020.48 c 13.28,-0.27 25.25,5.95 27.29,12.56 2.99,9.61 -1.78,17.6 -13.18,24.99 -17.72,11.55 -37.13,18.61 -57.95,16.76 -20.91,-1.86 -36.15,7.1 -51.03,19.27 -8.44,6.92 -17,13.73 -25.93,19.97 -3.82,2.66 -8.59,4.61 -13.18,5.41 -7.56,1.33 -11.61,-2.85 -10.58,-10.38 0.49,-3.52 1.6,-7.33 3.63,-10.16 17.99,-25.13 38.25,-47.55 70.98,-52.53 19.45,-2.96 37.74,-8.45 54.48,-19.09 5.49,-3.48 12.03,-5.33 15.47,-6.8 m -132.24,111.24 c 14.43,-0.89 26.89,-6.54 38.26,-15.26 14.98,-11.5 30.63,-21.96 49.59,-25.7 9.47,-1.87 19.15,-2.78 28.65,-4.56 21.73,-4.05 36.47,-18.57 49.04,-35.09 9.89,-12.99 7.43,-25.45 -5.1,-36.76 -8.94,-8.07 -17.52,-17.67 -31.56,-12.03 -4.32,1.74 -8.7,4.06 -12.13,7.13 -11.86,10.53 -25.43,16.24 -41.29,15.54 -32.35,-1.47 -59.44,10.07 -80.73,33.95 -8.74,9.83 -16.31,21.22 -22.16,33.01 -8.94,18 7.51,40.91 27.43,39.77"
         style="fill:#231f20;fill-opacity:1;fill-rule:evenodd;stroke:none"
         id="path56432" />
      <path
         d="m 3175.68,3521.29 c -4.21,19.68 -12.24,38.39 -31.67,51.09 -23.67,15.5 -42.58,34.63 -40.44,66.23 0.08,1.19 -0.16,2.42 -0.19,3.64 -0.26,7.8 -4.52,12.1 -11.87,14 -7.03,1.82 -13.25,0.97 -18.36,-4.56 -11.04,-11.92 -14.75,-32.18 -5.93,-45.36 7.64,-11.42 16.55,-23.05 27.54,-30.91 13.37,-9.59 20.92,-20.77 24.13,-36.51 2.16,-10.56 5.61,-21.19 10.42,-30.81 5.48,-11 20.14,-16.02 31.35,-12.8 9.24,2.66 15.25,12.36 15.02,25.99 m 10.97,-0.01 c -0.06,-28.78 -12.24,-39.6 -35.99,-35.89 -25.93,4.06 -42.1,20.1 -51.09,44.1 -0.62,1.69 -1,3.53 -1.17,5.33 -2.09,20.59 -12.25,35.92 -28.9,48.13 -7.11,5.24 -13.09,12.93 -17.51,20.68 -8.44,14.79 -12.08,30.45 -1.74,46.41 3.28,5.09 5.93,10.61 8.59,16.08 6.41,13.16 18.28,15.4 30.84,14.42 12.4,-0.95 19.66,-9.33 22.21,-20.95 2.21,-10.05 3.55,-20.38 4.22,-30.65 0.88,-13.7 7.67,-22.65 19.8,-28.1 36.55,-16.39 43.45,-50.57 50.74,-79.56"
         style="fill:#231f20;fill-opacity:1;fill-rule:evenodd;stroke:none"
         id="path56434" />
      <path
         d="m 4117.34,3681.68 c -7.12,-0.41 -13.41,-2.48 -15.69,-10.06 -3.6,-12.05 -7.85,-24.04 -9.94,-36.37 -3.34,-19.78 -11.26,-36.18 -26.6,-49.68 -9.41,-8.26 -17.28,-18.53 -24.55,-28.82 -2.49,-3.53 -2.99,-10.86 -0.98,-14.64 3.22,-6.09 10.18,-5.54 16.24,-2.95 15.13,6.44 26.4,17.05 34.14,31.52 4.87,9.08 10.52,17.79 14.93,27.09 9.33,19.68 18.15,39.59 26.97,59.5 1.2,2.69 1.67,5.91 1.7,8.9 0.11,9.55 -6.58,15.8 -16.22,15.51 m -88.38,-128.88 c -0.73,19.22 9.6,30.11 19.2,39.36 19.64,18.91 31.67,41 37.61,67.25 1.56,6.87 4.87,13.89 9.14,19.51 15.04,19.86 43.91,20.14 60.06,1.18 9.19,-10.81 7.82,-26.14 -2.3,-37.38 -4.24,-4.71 -8.12,-10.64 -9.73,-16.66 -4.12,-15.46 -8.56,-29.93 -21.52,-41.16 -6.03,-5.22 -8.35,-14.6 -12.63,-21.94 -9.02,-15.47 -19.9,-28.85 -37.68,-35.17 -23.84,-8.48 -41.99,3.61 -42.15,25.01"
         style="fill:#231f20;fill-opacity:1;fill-rule:evenodd;stroke:none"
         id="path56436" />
      <path
         d="m 3927.52,4267.64 c 0.33,24.24 -12.57,40.72 -31.89,40.72 -21.25,0.02 -45,-19.72 -44.86,-37.29 0.2,-22.79 21,-42.61 45.15,-43.01 16.56,-0.26 31.31,18.2 31.6,39.58 z m -30.44,56.38 c 41.39,2.75 55.13,-42.14 50.42,-70.6 -3.79,-22.93 -28.7,-48.62 -60.68,-47.87 -14.18,0.34 -26.09,8.74 -35.29,20.17 -15.48,19.26 -19.3,40.2 -9.43,63.08 9.52,22.04 31.22,35.75 54.98,35.22"
         style="fill:#231f20;fill-opacity:1;fill-rule:evenodd;stroke:none"
         id="path56438" />
      <path
         d="m 3598.53,3483.51 c -0.64,-8.63 1.79,-19.67 12.72,-28.26 11.46,-9.02 22.76,-12.27 36.91,-6.4 13.01,5.38 26.31,9.55 33.27,23.35 11.91,23.62 3.13,51.16 -20.92,65.43 -7.09,4.21 -13.76,5.39 -22.32,2.86 -30.59,-9.04 -38.39,-23.41 -39.66,-56.98 m 42.52,-53.12 c -23.69,-0.34 -37.41,15.33 -48.1,32.97 -14.2,23.45 -7.19,59.75 13.02,78.31 15.22,14 48.51,14.59 65.93,3.26 26.8,-17.43 30.36,-43.7 28.51,-71.54 -1.27,-19.25 -26.53,-40.23 -48.46,-42.94 -3.58,-0.44 -7.26,-0.06 -10.9,-0.06"
         style="fill:#231f20;fill-opacity:1;fill-rule:evenodd;stroke:none"
         id="path56440" />
      <path
         d="m 3600.61,3698.96 c -0.33,-22.6 18.31,-45.19 38.11,-46.21 22.52,-1.17 43.93,20.59 43.93,44.63 0,18.67 -19.31,39.32 -38.37,38.68 -21.51,-0.71 -43.28,-12.28 -43.67,-37.1 m -10.93,6.31 c 0.1,26.67 36.02,52.38 67.7,41.48 5.12,-1.76 9.81,-4.72 14.83,-6.83 19.67,-8.29 24.62,-27.74 22.79,-43.74 -3.76,-32.74 -17.33,-53.81 -56.71,-60.4 -6.47,-1.09 -11.21,0.69 -16.63,4.53 -20.24,14.32 -31.18,33.34 -31.98,64.96"
         style="fill:#231f20;fill-opacity:1;fill-rule:evenodd;stroke:none"
         id="path56442" />
      <path
         d="m 3481.16,4495.67 c 8.77,1.59 14.3,3.45 19.81,3.44 33.02,-0.03 63.73,8.14 90.61,27.34 9.1,6.49 17.18,15.62 22.96,25.21 10.94,18.14 20.3,37.27 29.54,56.35 15.53,32.05 66.19,41.27 89.03,12.29 9.41,-11.92 13.99,-22.74 12.87,-37.85 -3.41,-46.25 -27.14,-78.19 -67.07,-99.37 -33.78,-17.93 -69.09,-29.45 -108.12,-28.1 -28.23,0.98 -53.1,11.45 -77.33,24.07 -4.55,2.38 -6.9,9.05 -12.3,16.62"
         style="fill:#f4dfab;fill-opacity:1;fill-rule:evenodd;stroke:none"
         id="path56444" />
      <path
         d="m 3670.21,4000.97 c -23.57,2.73 -53.59,3.33 -81.7,13.93 -17.44,6.56 -27.36,21.82 -34.28,38.34 -4.01,9.54 3.52,20.39 15.52,22.34 6.94,1.14 14.86,0.82 21.47,-1.42 12.58,-4.25 24.94,-9.59 36.68,-15.82 28.55,-15.15 57.67,-21.59 89.13,-9.77 16.41,6.16 33.19,10.94 47.52,22.07 9.64,7.49 21.72,10.66 34.3,9.96 14.3,-0.8 19.25,-7.41 13.72,-20.21 -7.15,-16.57 -18.08,-29.61 -35.54,-37.19 -32.26,-14 -66.05,-19.96 -106.82,-22.23"
         style="fill:#f4dfab;fill-opacity:1;fill-rule:evenodd;stroke:none"
         id="path56446" />
      <path
         d="m 3917.04,3129.12 c 27.97,4.84 59.05,-3 83.4,17.51 9.56,8.05 17.94,17.56 26.44,26.8 7.92,8.6 15.37,9.93 25.32,3.54 8.78,-5.62 11.18,-13.58 5.36,-23.42 -9.58,-16.29 -20.74,-30.5 -38.99,-39.26 -25.44,-12.23 -51.56,-20.32 -79.49,-24.04 -10.49,-1.37 -20.77,-5.92 -30.53,-10.4 -10.87,-4.97 -21.45,-4.47 -31.64,0 -3.28,1.44 -7.39,8.2 -6.45,10.9 5.69,16.46 14.74,30.78 32.5,36.66 4.4,1.46 9.36,1.18 14.08,1.71"
         style="fill:#f4dfab;fill-opacity:1;fill-rule:evenodd;stroke:none"
         id="path56448" />
      <path
         d="m 3422.28,3020.48 c -3.44,1.47 -9.98,3.32 -15.47,6.8 -16.74,10.64 -35.03,16.13 -54.48,19.09 -32.73,4.98 -52.99,27.4 -70.98,52.53 -2.03,2.83 -3.14,6.64 -3.63,10.16 -1.03,7.53 3.02,11.71 10.58,10.38 4.59,-0.8 9.36,-2.75 13.18,-5.41 8.93,-6.24 17.49,-13.05 25.93,-19.97 14.88,-12.17 30.12,-21.13 51.03,-19.27 20.82,1.85 40.23,-5.21 57.95,-16.76 11.4,-7.39 16.17,-15.38 13.18,-24.99 -2.04,-6.61 -14.01,-12.83 -27.29,-12.56"
         style="fill:#f4dfab;fill-opacity:1;fill-rule:evenodd;stroke:none"
         id="path56450" />
      <path
         d="m 3175.68,3521.29 c 0.23,-13.63 -5.78,-23.33 -15.02,-25.99 -11.21,-3.22 -25.87,1.8 -31.35,12.8 -4.81,9.62 -8.26,20.25 -10.42,30.81 -3.21,15.74 -10.76,26.92 -24.13,36.51 -10.99,7.86 -19.9,19.49 -27.54,30.91 -8.82,13.18 -5.11,33.44 5.93,45.36 5.11,5.53 11.33,6.38 18.36,4.56 7.35,-1.9 11.61,-6.2 11.87,-14 0.03,-1.22 0.27,-2.45 0.19,-3.64 -2.14,-31.6 16.77,-50.73 40.44,-66.23 19.43,-12.7 27.46,-31.41 31.67,-51.09"
         style="fill:#f4dfab;fill-opacity:1;fill-rule:evenodd;stroke:none"
         id="path56452" />
      <path
         d="m 4117.33,3681.69 c 9.65,0.28 16.34,-5.97 16.23,-15.52 -0.03,-2.99 -0.5,-6.21 -1.7,-8.9 -8.82,-19.91 -17.64,-39.82 -26.97,-59.5 -4.41,-9.3 -10.06,-18.01 -14.93,-27.09 -7.74,-14.47 -19.01,-25.08 -34.14,-31.52 -6.06,-2.59 -13.02,-3.14 -16.24,2.95 -2.01,3.78 -1.51,11.11 0.98,14.64 7.27,10.29 15.14,20.56 24.55,28.82 15.34,13.5 23.26,29.9 26.6,49.68 2.09,12.33 6.34,24.32 9.94,36.37 2.28,7.58 8.57,9.65 15.68,10.07"
         style="fill:#f4dfab;fill-opacity:1;fill-rule:evenodd;stroke:none"
         id="path56454" />
      <path
         d="m 3927.52,4267.64 c -0.29,-21.38 -15.04,-39.84 -31.6,-39.58 -24.15,0.4 -44.95,20.22 -45.15,43.01 -0.14,17.57 23.61,37.31 44.86,37.29 19.32,0 32.22,-16.48 31.89,-40.72"
         style="fill:#231f20;fill-opacity:1;fill-rule:evenodd;stroke:none"
         id="path56456" />
      <path
         d="m 3532.29,4267.64 c 0.33,24.24 -12.57,40.72 -31.89,40.72 -21.26,0.02 -45.01,-19.72 -44.86,-37.29 0.19,-22.79 20.99,-42.61 45.14,-43.01 16.57,-0.26 31.31,18.2 31.61,39.58 z m -30.44,56.38 c 41.38,2.75 55.12,-42.14 50.42,-70.6 -3.79,-22.93 -28.71,-48.62 -60.69,-47.87 -14.18,0.34 -26.08,8.74 -35.28,20.17 -15.48,19.26 -19.31,40.2 -9.43,63.08 9.52,22.04 31.22,35.75 54.98,35.22"
         style="fill:#231f20;fill-opacity:1;fill-rule:evenodd;stroke:none"
         id="path56458" />
      <path
         d="m 3532.29,4267.64 c -0.3,-21.38 -15.04,-39.84 -31.61,-39.58 -24.15,0.4 -44.95,20.22 -45.14,43.01 -0.15,17.57 23.6,37.31 44.86,37.29 19.32,0 32.22,-16.48 31.89,-40.72"
         style="fill:#231f20;fill-opacity:1;fill-rule:evenodd;stroke:none"
         id="path56460" />
      <path
         d="m 3598.53,3483.51 c 1.27,33.57 9.07,47.94 39.66,56.98 8.56,2.53 15.23,1.35 22.32,-2.86 24.05,-14.27 32.83,-41.81 20.92,-65.43 -6.96,-13.8 -20.26,-17.97 -33.27,-23.35 -14.15,-5.87 -25.45,-2.62 -36.91,6.4 -10.93,8.59 -13.36,19.63 -12.72,28.26"
         style="fill:#849a26;fill-opacity:1;fill-rule:evenodd;stroke:none"
         id="path56462" />
      <path
         d="m 3600.61,3698.96 c 0.39,24.82 22.16,36.39 43.67,37.1 19.06,0.64 38.37,-20.01 38.37,-38.68 0,-24.04 -21.41,-45.8 -43.93,-44.63 -19.8,1.02 -38.44,23.61 -38.11,46.21"
         style="fill:#849a26;fill-opacity:1;fill-rule:evenodd;stroke:none"
         id="path56464" />
      <path
         d="m 3123.08,3434.2 v 0 0 0 m 0.08,0 c 39.79,0.01 78.41,9.89 116.5,20.95 -38.09,-11.06 -76.7,-20.94 -116.5,-20.95 m 118.03,21.39 c 0.66,0.19 1.32,0.39 1.97,0.58 -0.65,-0.19 -1.31,-0.39 -1.97,-0.58 m 2.32,0.68 c 0.43,0.13 0.87,0.25 1.3,0.38 -0.43,-0.13 -0.87,-0.25 -1.3,-0.38 m -133.21,2.35 c -0.02,0 -0.03,0 -0.04,0 0.01,0 0.02,0 0.04,0 v 0 m 0.04,0 c 9.39,0 18.8,0.67 28.32,1.54 -9.52,-0.87 -18.93,-1.54 -28.32,-1.54 m 28.95,1.6 c 0.22,0.02 0.44,0.04 0.65,0.06 -0.21,-0.02 -0.43,-0.04 -0.65,-0.06 m 0.97,0.09 c 0.15,0.01 0.29,0.03 0.43,0.04 -0.14,-0.01 -0.28,-0.03 -0.43,-0.04 m 0.79,0.07 c 0.17,0.02 0.34,0.04 0.52,0.05 -0.18,-0.01 -0.35,-0.03 -0.52,-0.05 m 1.15,0.11 c 0.13,0.02 0.26,0.03 0.39,0.04 -0.13,-0.01 -0.26,-0.02 -0.39,-0.04 m -60.4,0.65 c -0.01,0 -0.03,0.01 -0.05,0.01 0.02,0 0.04,-0.01 0.05,-0.01 m -0.58,0.11 c -0.44,0.09 -0.89,0.18 -1.34,0.28 0.45,-0.1 0.9,-0.19 1.34,-0.28 m 270.89,13.69 c 2.4,4.38 4.88,8.91 7.48,13.64 -2.59,-4.73 -5.08,-9.26 -7.48,-13.64 m -193.03,9.75 h -0.01 0.01 v 0 m 0.04,0 c 15.79,0.01 24.88,8.65 27.03,27.4 v 0 c -2.15,-18.76 -11.24,-27.39 -27.03,-27.4 m -8.08,0.64 c -0.12,0.02 -0.25,0.04 -0.38,0.06 0.13,-0.02 0.26,-0.04 0.38,-0.06 m 204.52,17.31 c -0.03,0 -0.06,0 -0.09,0 v 0 c 0.03,0 0.06,0 0.09,0"
         style="fill:#b0b0ae;fill-opacity:1;fill-rule:nonzero;stroke:none"
         id="path56466" />
      <path
         d="m 3123.08,3434.2 v 0 c -0.67,0 -1.34,0 -2.02,0.01 v 0 c -50.63,0.43 -95.24,17.75 -128.76,57.54 v 0 l -0.44,0.57 c 10.97,-2.75 22.24,-4.31 33.66,-4.96 15.79,-12.25 33.99,-21.58 54.36,-25.83 v 0 c 0.45,-0.1 0.9,-0.19 1.34,-0.28 0.18,-0.03 0.36,-0.06 0.53,-0.1 0.02,0 0.04,-0.01 0.05,-0.01 9.52,-1.84 18.98,-2.52 28.46,-2.52 0.01,0 0.02,0 0.04,0 v 0 0 c 0.01,0 0.02,0 0.04,0 9.39,0 18.8,0.67 28.32,1.54 0.21,0.02 0.42,0.04 0.63,0.06 0.22,0.02 0.44,0.04 0.65,0.06 0.11,0.01 0.22,0.02 0.32,0.03 0.15,0.01 0.29,0.03 0.43,0.04 0.12,0.01 0.24,0.02 0.36,0.03 0.17,0.02 0.34,0.04 0.52,0.05 0.21,0.02 0.42,0.04 0.63,0.06 0.13,0.02 0.26,0.03 0.39,0.04 0.19,0.02 0.37,0.04 0.55,0.06 40.79,3.92 79.75,14.95 118.95,25.49 30.54,8.21 61.17,16.24 93.04,16.56 0.11,0 0.22,0 0.34,0 0.03,0 0.06,0 0.09,0 5.67,-0.01 11.36,-1.33 17.41,-2.6 -3.53,-7.36 -7.85,-14.2 -11.45,-19.7 -6.63,-10.14 -14.21,-19.67 -22.24,-28.8 4.1,7.48 8.32,15.17 12.83,23.4 2.4,4.38 4.89,8.91 7.48,13.64 v 0 0 0 c -8.52,-1 -14.24,-0.83 -19.43,-2.4 -31.38,-9.53 -62.5,-19.9 -93.97,-29.12 v 0 c -0.46,-0.14 -0.92,-0.27 -1.38,-0.41 -0.43,-0.13 -0.87,-0.25 -1.3,-0.38 -0.12,-0.03 -0.23,-0.07 -0.35,-0.1 -0.65,-0.19 -1.31,-0.39 -1.97,-0.58 -0.51,-0.15 -1.02,-0.29 -1.53,-0.44 -38.09,-11.06 -76.71,-20.94 -116.5,-20.95 -0.02,0 -0.05,0 -0.08,0"
         style="fill:#100f0d;fill-opacity:1;fill-rule:nonzero;stroke:none"
         id="path56468" />
      <path
         d="m 3110.3,3458.62 v 0 c -0.02,0 -0.03,0 -0.04,0 -9.48,0 -18.94,0.68 -28.46,2.52 -0.01,0 -0.03,0.01 -0.05,0.01 -0.17,0.04 -0.35,0.07 -0.53,0.1 -0.44,0.09 -0.89,0.18 -1.34,0.28 v 0 c -20.37,4.25 -38.57,13.58 -54.36,25.83 4.34,-0.24 8.69,-0.36 13.07,-0.36 27.95,0 56.49,4.74 83.46,10.23 7.82,-6.01 17.28,-10.06 28.61,-11.84 v 0 c 0.13,-0.02 0.26,-0.04 0.38,-0.06 2.85,-0.43 5.52,-0.64 8.03,-0.64 h 0.01 v 0 0 c 0.01,0 0.03,0 0.04,0 15.79,0.01 24.88,8.64 27.03,27.4 26.65,7.03 53.01,14.83 79.77,22.09 21.68,5.87 43.67,11.12 66.01,13.67 4.78,0.55 11.23,1.3 17.82,1.3 11.09,0 22.56,-2.14 27.09,-11.06 5.86,-11.56 2.13,-25.56 -3.87,-38.05 -6.05,1.27 -11.74,2.59 -17.41,2.6 -0.03,0 -0.06,0 -0.09,0 v 0 c -0.12,0 -0.23,0 -0.34,0 -31.87,-0.32 -62.5,-8.35 -93.04,-16.56 -39.2,-10.54 -78.16,-21.57 -118.95,-25.49 -0.18,-0.02 -0.36,-0.04 -0.55,-0.06 -0.13,-0.01 -0.26,-0.02 -0.39,-0.04 -0.21,-0.02 -0.42,-0.04 -0.63,-0.06 -0.18,-0.01 -0.35,-0.03 -0.52,-0.05 -0.12,-0.01 -0.24,-0.02 -0.36,-0.03 -0.14,-0.01 -0.28,-0.03 -0.43,-0.04 -0.1,-0.01 -0.21,-0.02 -0.32,-0.03 -0.21,-0.02 -0.43,-0.04 -0.65,-0.06 -0.21,-0.02 -0.42,-0.04 -0.63,-0.06 -9.52,-0.87 -18.93,-1.54 -28.32,-1.54 -0.02,0 -0.03,0 -0.04,0"
         style="fill:#895930;fill-opacity:1;fill-rule:nonzero;stroke:none"
         id="path56470" />
      <path
         d="m 3153.58,3494.34 c -0.04,0 -0.07,0 -0.11,0 0.04,0 0.07,0 0.11,0 v 0 m 0.02,0 c 2.42,0 4.81,0.31 7.06,0.96 -2.25,-0.65 -4.64,-0.96 -7.06,-0.96"
         style="fill:#b0b0ae;fill-opacity:1;fill-rule:nonzero;stroke:none"
         id="path56472" />
      <path
         d="m 3159.08,3484.69 v 0 h -0.01 c -2.51,0 -5.18,0.21 -8.03,0.64 -0.12,0.02 -0.25,0.04 -0.38,0.06 v 0 c -11.33,1.78 -20.79,5.83 -28.61,11.84 4.71,0.96 9.36,1.94 13.95,2.92 4.94,-3.75 11.32,-5.79 17.47,-5.81 0.04,0 0.07,0 0.11,0 v 0 0 c 0.01,0 0.01,0 0.02,0 2.42,0 4.81,0.31 7.06,0.96 v 0 c 6.11,1.76 10.81,6.6 13.22,13.61 4.1,1.04 8.19,2.1 12.27,3.18 -2.15,-18.75 -11.24,-27.39 -27.03,-27.4 -0.01,0 -0.03,0 -0.04,0"
         style="fill:#100f0d;fill-opacity:1;fill-rule:nonzero;stroke:none"
         id="path56474" />
      <path
         d="m 3153.58,3494.34 v 0 c -0.04,0 -0.07,0 -0.11,0 -6.15,0.02 -12.53,2.06 -17.47,5.81 2.73,0.59 5.43,1.17 8.11,1.75 10,2.16 19.91,4.52 29.77,7.01 -2.41,-7.01 -7.11,-11.85 -13.22,-13.61 v 0 c -2.25,-0.65 -4.64,-0.96 -7.06,-0.96 -0.01,0 -0.01,0 -0.02,0"
         style="fill:#a69975;fill-opacity:1;fill-rule:nonzero;stroke:none"
         id="path56476" />
      <path
         d="m 4140.23,3454.55 c -0.01,0 -0.02,0 -0.03,0 0.01,0 0.02,0 0.03,0 v 0 m 0.05,0 c 4.7,0.01 9.43,0.34 14.06,0.83 16.8,1.77 33.47,5.53 50.29,6.37 32.32,1.59 54.37,18.32 69.56,45.12 0.11,0.2 0.21,0.39 0.32,0.58 -0.11,-0.19 -0.21,-0.38 -0.32,-0.58 -15.19,-26.8 -37.24,-43.53 -69.56,-45.12 -16.82,-0.84 -33.49,-4.6 -50.29,-6.37 -4.63,-0.49 -9.36,-0.82 -14.06,-0.83 m -10.41,0.61 h -0.01 0.01 m -0.28,0.04 c -0.04,0 -0.08,0.01 -0.12,0.01 0.04,0 0.08,-0.01 0.12,-0.01 m -0.4,0.05 v 0 c -42.59,5.77 -84.97,11.75 -126.71,23.48 -22.26,6.26 -44.65,10.32 -64.25,23.31 -0.08,0.05 -0.16,0.1 -0.25,0.15 0.09,-0.05 0.17,-0.1 0.25,-0.15 19.6,-12.99 41.99,-17.05 64.25,-23.31 41.74,-11.73 84.12,-17.71 126.71,-23.48 v 0 m 32.9,22.94 c -0.01,0 -0.02,0 -0.03,0 0.01,0 0.02,0 0.03,0 v 0 m 0.06,0 c 20.19,0.01 39.99,3.54 59.72,8.74 -19.74,-5.2 -39.53,-8.73 -59.72,-8.74 m -23.47,1.66 c -0.17,0.02 -0.34,0.05 -0.52,0.07 0.18,-0.02 0.35,-0.05 0.52,-0.07 m -208.48,20 c -0.34,0.53 -0.68,1.06 -1.02,1.6 0.34,-0.54 0.68,-1.07 1.02,-1.6 m 3.16,3.03 c 0.13,0 0.26,0 0.38,0 -0.12,0 -0.25,0 -0.38,0 m 0.44,0 c -0.01,0 -0.02,0 -0.04,0 v 0 c 0.02,0 0.03,0 0.04,0 m 340.73,4.6 c 0.03,0.06 0.06,0.11 0.09,0.17 -0.03,-0.06 -0.06,-0.11 -0.09,-0.17 m -218.15,17.58 c -0.01,0 -0.03,0 -0.05,0 0.02,0 0.04,0 0.05,0 v 0 m 0.02,0 c 4.32,0 9,0.79 13.93,2.46 -4.93,-1.67 -9.61,-2.46 -13.93,-2.46 m -138.22,0.85 c -0.14,0.04 -0.28,0.09 -0.42,0.13 0.14,-0.04 0.28,-0.09 0.42,-0.13 m -12.63,0.96 c -0.24,0 -0.48,0 -0.72,0 0.24,0 0.48,0 0.72,0 v 0 m 5.71,0.02 c -0.19,0.01 -0.39,0.01 -0.59,0.01 0.2,0 0.4,0 0.59,-0.01 m -0.91,0.01 c -0.16,0 -0.32,0.01 -0.49,0.01 v 0 c 0.17,0 0.33,-0.01 0.49,-0.01 m -7.18,0.02 c -0.12,0 -0.25,0.01 -0.38,0.01 0.13,0 0.26,-0.01 0.38,-0.01 m 167.28,0.64 c 0.07,0.02 0.14,0.04 0.21,0.07 -0.07,-0.03 -0.14,-0.05 -0.21,-0.07"
         style="fill:#b0b0ae;fill-opacity:1;fill-rule:nonzero;stroke:none"
         id="path56478" />
      <path
         d="m 4140.23,3454.55 c -0.01,0 -0.02,0 -0.03,0 -3.47,0.01 -6.93,0.19 -10.33,0.61 h -0.01 c -0.09,0.01 -0.18,0.03 -0.27,0.04 -0.04,0 -0.08,0.01 -0.12,0.01 -0.09,0.01 -0.19,0.03 -0.28,0.04 v 0 c -42.59,5.77 -84.97,11.75 -126.71,23.48 -22.26,6.26 -44.65,10.32 -64.25,23.31 -0.08,0.05 -0.16,0.1 -0.25,0.15 -1.14,0.62 -2.72,0.69 -4.18,0.69 -0.01,0 -0.02,0 -0.04,0 v 0 0 c 0,0 -0.01,0 -0.02,0 -0.12,0 -0.25,0 -0.38,0 -0.14,0 -0.29,0 -0.43,0 v 0 c -1.09,-0.01 -2.19,-0.8 -3.75,-1.43 v 0 0 0 c 0.34,-0.54 0.68,-1.07 1.02,-1.6 2.56,-4.03 5.11,-8.06 7.66,-12.09 -11.87,9.23 -24.77,17.4 -34.66,28.55 -0.31,2.47 -0.47,5.03 -0.47,7.68 0,0.97 0.02,1.95 0.06,2.94 v 0 c 0.13,0 0.26,-0.01 0.38,-0.01 0.55,-0.03 1.11,-0.04 1.66,-0.05 0.24,0 0.48,0 0.72,0 v 0 0 c 0.72,0 1.44,0.01 2.16,0.02 0.72,0.01 1.44,0.02 2.15,0.02 0.17,0 0.33,-0.01 0.49,-0.01 0.11,0 0.21,0 0.32,0 0.2,0 0.4,0 0.59,-0.01 2.25,-0.05 4.44,-0.24 6.5,-0.85 0.14,-0.04 0.28,-0.09 0.42,-0.13 v 0 c 14.3,-4.69 27.99,-11.49 42.47,-15.29 27.03,-7.05 54.26,-13.81 81.79,-18.42 31.7,-5.32 63.91,-7.55 95.72,-12.28 v 0 c 0.18,-0.02 0.35,-0.05 0.52,-0.07 7.87,-1.14 15.65,-1.66 23.38,-1.66 0.01,0 0.02,0 0.03,0 v 0 0 c 0.02,0 0.04,0 0.06,0 20.19,0.01 39.98,3.54 59.72,8.74 0.33,0.09 0.66,0.18 0.99,0.27 15.57,4.14 26.38,13.33 34.13,27.7 2.48,4.59 4.49,9.39 6.09,14.34 1.91,0.03 3.81,0.05 5.72,0.05 5.19,0 10.37,-0.13 15.53,-0.38 -2.57,-7.06 -5.73,-14.15 -9.71,-21.26 -0.03,-0.06 -0.06,-0.11 -0.09,-0.17 -0.01,-0.01 -0.01,-0.02 -0.02,-0.03 -0.11,-0.19 -0.21,-0.38 -0.32,-0.58 -15.19,-26.8 -37.24,-43.53 -69.56,-45.12 -16.82,-0.84 -33.49,-4.6 -50.29,-6.37 -4.63,-0.49 -9.36,-0.82 -14.06,-0.83 -0.02,0 -0.03,0 -0.05,0"
         style="fill:#100f0d;fill-opacity:1;fill-rule:nonzero;stroke:none"
         id="path56480" />
      <path
         d="m 4162.09,3478.19 v 0 c -0.01,0 -0.02,0 -0.03,0 -7.73,0 -15.51,0.52 -23.38,1.66 -0.17,0.02 -0.34,0.05 -0.52,0.07 v 0 c -31.81,4.73 -64.02,6.96 -95.72,12.28 -27.53,4.61 -54.76,11.37 -81.79,18.42 -14.48,3.8 -28.17,10.6 -42.47,15.29 v 0 c -0.14,0.04 -0.28,0.09 -0.42,0.13 -2.06,0.61 -4.25,0.8 -6.5,0.85 -0.19,0.01 -0.39,0.01 -0.59,0.01 -0.11,0 -0.21,0 -0.32,0 -0.16,0 -0.32,0.01 -0.49,0.01 v 0 c -0.71,0 -1.43,-0.01 -2.15,-0.02 -0.72,-0.01 -1.44,-0.02 -2.16,-0.02 v 0 c -0.24,0 -0.48,0 -0.72,0 -0.55,0.01 -1.11,0.02 -1.66,0.05 -0.12,0 -0.25,0.01 -0.38,0.01 v 0 c -0.04,-0.99 -0.06,-1.97 -0.06,-2.94 0,-2.65 0.16,-5.21 0.47,-7.68 -2.64,2.98 -5.07,6.17 -7.2,9.66 -8.12,13.25 -11.4,34.72 5.2,42.31 6.24,2.85 13.41,3.83 20.77,3.83 9.76,0 19.84,-1.72 28.44,-3.08 20.04,-3.14 39.74,-8.44 59.3,-13.71 6.45,-1.74 12.9,-3.62 19.39,-5.39 1.3,-15.08 12,-24.85 27.23,-24.87 0.02,0 0.04,0 0.05,0 v 0 0 c 0.01,0 0.01,0 0.02,0 4.32,0 9,0.79 13.93,2.46 0.04,0.01 0.08,0.02 0.12,0.04 0.07,0.02 0.14,0.04 0.21,0.07 0.15,0.05 0.3,0.1 0.45,0.16 7.47,2.65 13.71,6.55 19.12,11.32 21.65,-2.6 43.45,-4.62 64.95,-7.02 18.36,-2.05 37.16,-4.5 55.67,-4.5 0.38,0 0.76,0.01 1.13,0.01 16.47,0.09 32.91,1.25 49.38,1.6 0.57,0.02 1.14,0.03 1.72,0.04 -1.6,-4.95 -3.61,-9.75 -6.09,-14.34 -7.75,-14.37 -18.56,-23.56 -34.13,-27.7 -0.33,-0.09 -0.66,-0.18 -0.99,-0.27 -19.73,-5.2 -39.53,-8.73 -59.72,-8.74 -0.02,0 -0.04,0 -0.06,0"
         style="fill:#895930;fill-opacity:1;fill-rule:nonzero;stroke:none"
         id="path56482" />
      <path
         d="m 4047.9,3537.32 c -0.01,0 -0.02,0 -0.04,0 0.02,0 0.03,0 0.04,0 v 0 m 0.04,0 c 2.34,0 4.85,0.62 7.25,1.57 -2.4,-0.95 -4.91,-1.57 -7.25,-1.57 m 7.56,1.7 c 0.11,0.05 0.21,0.09 0.32,0.14 -0.11,-0.05 -0.21,-0.09 -0.32,-0.14 m -15.57,2.48 c -0.03,0.04 -0.05,0.08 -0.07,0.11 0.02,-0.03 0.04,-0.07 0.07,-0.11"
         style="fill:#b0b0ae;fill-opacity:1;fill-rule:nonzero;stroke:none"
         id="path56484" />
      <path
         d="m 4056.38,3525.06 v 0 c -0.01,0 -0.03,0 -0.05,0 -15.23,0.02 -25.93,9.79 -27.23,24.87 3.07,-0.84 6.16,-1.66 9.25,-2.42 0.07,-2.04 0.47,-3.97 1.23,-5.4 0.09,-0.17 0.18,-0.34 0.28,-0.5 0.02,-0.03 0.04,-0.07 0.07,-0.11 1.86,-3.02 4.74,-4.18 7.93,-4.18 0.02,0 0.03,0 0.04,0 v 0 0 c 0.02,0 0.03,0 0.04,0 2.34,0 4.85,0.62 7.25,1.57 0.1,0.05 0.2,0.09 0.31,0.13 0.11,0.05 0.21,0.09 0.32,0.14 v 0 c 2.55,1.08 5,2.29 7.33,3.61 8.98,-1.37 18.02,-2.56 27.08,-3.66 -5.41,-4.77 -11.65,-8.67 -19.12,-11.32 -0.15,-0.06 -0.3,-0.11 -0.45,-0.16 -0.07,-0.03 -0.14,-0.05 -0.21,-0.07 -0.04,-0.02 -0.08,-0.03 -0.12,-0.04 -4.93,-1.67 -9.61,-2.46 -13.93,-2.46 -0.01,0 -0.01,0 -0.02,0"
         style="fill:#100f0d;fill-opacity:1;fill-rule:nonzero;stroke:none"
         id="path56486" />
      <path
         d="m 4047.9,3537.32 v 0 c -0.01,0 -0.02,0 -0.04,0 -3.19,0 -6.07,1.16 -7.93,4.18 -0.03,0.04 -0.05,0.08 -0.07,0.11 -0.1,0.16 -0.19,0.33 -0.28,0.5 -0.76,1.43 -1.16,3.36 -1.23,5.4 4.93,-1.22 9.88,-2.3 14.87,-3.14 3.3,-0.56 6.61,-1.09 9.93,-1.6 -2.33,-1.32 -4.78,-2.53 -7.33,-3.61 v 0 c -0.11,-0.05 -0.21,-0.09 -0.32,-0.14 -0.11,-0.04 -0.21,-0.08 -0.31,-0.13 -2.4,-0.95 -4.91,-1.57 -7.25,-1.57 -0.01,0 -0.02,0 -0.04,0"
         style="fill:#a69975;fill-opacity:1;fill-rule:nonzero;stroke:none"
         id="path56488" />
      <path
         d="m 3576.64,4441.32 c -0.02,0 -0.04,0 -0.06,0 0.02,0 0.04,0 0.06,0 v 0 m 0,0 c 3.26,0 6.57,0.11 9.91,0.34 -3.34,-0.23 -6.65,-0.34 -9.91,-0.34 m 27.18,0.2 v 0 0 0 m 0.05,0 c 24.7,0.01 48.18,5.56 69.49,18.11 -21.31,-12.55 -44.79,-18.1 -69.49,-18.11 m -13.81,0.17 c 1.08,0.01 2.16,0.02 3.24,0.02 -1.08,0 -2.16,-0.01 -3.24,-0.02 m 3.34,0.02 c -0.01,0 -0.02,0 -0.04,0 v 0 c 0.02,0 0.03,0 0.04,0 m 80.05,17.97 c 0.39,0.23 0.77,0.46 1.15,0.69 -0.38,-0.23 -0.76,-0.46 -1.15,-0.69 m 1.86,1.11 c 0.14,0.09 0.28,0.18 0.42,0.26 -0.14,-0.08 -0.28,-0.17 -0.42,-0.26"
         style="fill:#b0b0ae;fill-opacity:1;fill-rule:nonzero;stroke:none"
         id="path56490" />
      <path
         d="m 3540.21,4406.55 c -33.13,0.01 -70.23,7.76 -67.36,43.73 0.73,0 1.46,0 2.2,0 13.21,0 27.22,0.33 38.93,6.61 l 0.28,-0.16 1.42,-0.79 c 3.49,-1.92 7.36,-3.55 11.12,-4.91 15.42,-6.28 31.96,-9.71 49.78,-9.71 0.02,0 0.04,0 0.06,0 v 0 0 0 c 3.26,0 6.57,0.11 9.91,0.34 v 0 c 1.17,0 2.34,0.02 3.51,0.03 1.08,0.01 2.16,0.02 3.24,0.02 0.02,0 0.04,0 0.06,0 0.02,0 0.03,0 0.04,0 1.36,0 2.72,-0.02 4.08,-0.07 2.12,-0.08 4.23,-0.12 6.34,-0.12 v 0 0 0 c 0.02,0 0.04,0 0.05,0 24.7,0.01 48.18,5.56 69.49,18.11 0.03,0.01 0.06,0.03 0.09,0.05 0.39,0.23 0.77,0.46 1.15,0.69 0.24,0.14 0.47,0.28 0.71,0.42 0.14,0.09 0.28,0.18 0.42,0.26 v 0 c 16.95,10.49 33.42,22.17 48.44,35.24 14.43,12.55 26.1,26.38 34.15,41.81 0.31,-1.2 0.57,-2.42 0.78,-3.64 4.63,-26.58 -17.17,-59.44 -35.72,-76.57 -9.48,-8.75 -22.66,-14.12 -34.36,-19.08 -36.36,-15.4 -75.88,-25.14 -115.01,-30 -9.04,-1.12 -21.13,-2.26 -33.8,-2.26"
         style="fill:#895930;fill-opacity:1;fill-rule:nonzero;stroke:none"
         id="path56492" />
      <path
         d="m 3576.64,4441.32 v 0 c -0.02,0 -0.04,0 -0.06,0 -17.82,0 -34.36,3.43 -49.78,9.71 5.69,-2.06 11.12,-3.51 14.65,-4.42 6.8,-1.75 13.87,-2.36 20.98,-2.36 8.39,0 16.84,0.85 24.97,1.67 18.66,1.89 36.7,5.76 54.4,12.03 48.27,17.09 83.45,50.49 112.69,89.76 1.66,-2.86 2.94,-6.18 3.83,-9.61 -8.05,-15.43 -19.72,-29.26 -34.15,-41.81 -15.02,-13.07 -31.49,-24.75 -48.44,-35.24 v 0 c -0.14,-0.08 -0.28,-0.17 -0.42,-0.26 -0.24,-0.14 -0.47,-0.28 -0.71,-0.42 -0.38,-0.23 -0.76,-0.46 -1.15,-0.69 -0.03,-0.02 -0.06,-0.04 -0.09,-0.05 -21.31,-12.55 -44.79,-18.1 -69.49,-18.11 -0.01,0 -0.03,0 -0.05,0 v 0 0 c -2.11,0 -4.22,0.04 -6.34,0.12 -1.36,0.05 -2.72,0.07 -4.08,0.07 -0.01,0 -0.02,0 -0.04,0 v 0 c -0.02,0 -0.04,0 -0.06,0 -1.08,0 -2.16,-0.01 -3.24,-0.02 -1.17,-0.01 -2.34,-0.03 -3.51,-0.03 v 0 c -3.34,-0.23 -6.65,-0.34 -9.91,-0.34 v 0"
         style="fill:#100f0d;fill-opacity:1;fill-rule:nonzero;stroke:none"
         id="path56494" />
      <path
         d="m 3634.69,3635.46 c -0.04,0 -0.08,0 -0.11,0 0.03,0 0.07,0 0.11,0 v 0 m 0.02,0 c 1.05,0 2.14,0.09 3.29,0.27 -1.15,-0.18 -2.24,-0.27 -3.29,-0.27 m -12.28,4.32 c -0.05,0.03 -0.1,0.06 -0.14,0.09 0.04,-0.03 0.09,-0.06 0.14,-0.09 m -0.18,0.12 c -0.08,0.05 -0.15,0.1 -0.23,0.15 0.08,-0.05 0.15,-0.1 0.23,-0.15 m -0.35,0.24 c -0.08,0.06 -0.16,0.11 -0.24,0.17 0.08,-0.06 0.16,-0.11 0.24,-0.17"
         style="fill:#b0b0ae;fill-opacity:1;fill-rule:nonzero;stroke:none"
         id="path56496" />
      <path
         d="m 3635.6,3620.75 c -4.16,0 -8.37,0.76 -12.73,2.32 -10.51,3.77 -23.45,15.6 -23.87,27.45 0,-0.2 -0.01,-0.3 -0.02,-0.3 -0.07,0 -0.31,8.82 -0.45,15.79 5.36,-10.36 13.1,-18.61 23.13,-25.7 v 0 c 0.08,-0.06 0.16,-0.11 0.24,-0.17 0.04,-0.03 0.08,-0.06 0.12,-0.09 0.08,-0.05 0.15,-0.1 0.23,-0.15 0.01,-0.01 0.03,-0.02 0.04,-0.03 0.04,-0.03 0.09,-0.06 0.14,-0.09 4.03,-2.74 7.73,-4.29 12.15,-4.32 0.03,0 0.07,0 0.11,0 v 0 0 c 0,0 0.01,0 0.02,0 1.05,0 2.14,0.09 3.29,0.27 0.1,0.01 0.19,0.03 0.29,0.05 37.13,6.21 51.32,25.31 55.97,54.92 6.63,-4.9 4.56,-18.79 2.35,-24.78 -6.98,-18.96 -27.4,-33.76 -45.16,-41.58 -5.37,-2.37 -10.58,-3.59 -15.85,-3.59"
         style="fill:#895930;fill-opacity:1;fill-rule:nonzero;stroke:none"
         id="path56498" />
      <path
         d="m 3640.46,3652.7 c 0,0 0,0 -0.01,0 0.01,0 0.01,0 0.01,0 v 0 m 0.06,0 c 16.85,0.04 32.77,12.67 39.17,29.19 v 0 c -6.4,-16.52 -22.32,-29.15 -39.17,-29.19 m -1.68,0.04 c -0.04,0 -0.08,0.01 -0.12,0.01 0.04,0 0.08,-0.01 0.12,-0.01"
         style="fill:#b0b0ae;fill-opacity:1;fill-rule:nonzero;stroke:none"
         id="path56500" />
      <path
         d="m 3634.69,3635.46 v 0 c -0.04,0 -0.08,0 -0.11,0 -4.42,0.03 -8.12,1.58 -12.15,4.32 -0.05,0.03 -0.1,0.06 -0.14,0.09 -0.01,0.01 -0.03,0.02 -0.04,0.03 -0.08,0.05 -0.15,0.1 -0.23,0.15 -0.04,0.03 -0.08,0.06 -0.12,0.09 -0.08,0.06 -0.16,0.11 -0.24,0.17 v 0 c -10.03,7.09 -17.77,15.34 -23.13,25.7 -0.07,3.71 -0.12,6.89 -0.09,7.93 0.12,5.16 1.62,5.7 3.3,5.7 0.22,0 0.45,-0.01 0.68,-0.02 0.23,-0.01 0.45,-0.02 0.68,-0.02 0.54,0 1.07,0.06 1.54,0.31 6.5,-14.8 19.99,-26.43 34.08,-27.16 v 0 c 0.04,0 0.08,-0.01 0.12,-0.01 0.54,-0.02 1.08,-0.04 1.61,-0.04 0.01,0 0.01,0 0.01,0 v 0 0 c 0.02,0 0.04,0 0.06,0 16.85,0.04 32.77,12.67 39.17,29.19 4.59,2.96 8.52,6.36 11.93,10.12 1,-0.3 1.88,-0.75 2.64,-1.31 -4.65,-29.61 -18.84,-48.71 -55.97,-54.92 -0.1,-0.02 -0.19,-0.04 -0.29,-0.05 -1.15,-0.18 -2.24,-0.27 -3.29,-0.27 -0.01,0 -0.02,0 -0.02,0"
         style="fill:#100f0d;fill-opacity:1;fill-rule:nonzero;stroke:none"
         id="path56502" />
      <path
         d="m 3640.46,3652.7 v 0 c 0,0 0,0 -0.01,0 -0.53,0 -1.07,0.02 -1.61,0.04 -0.04,0 -0.08,0.01 -0.12,0.01 v 0 c -14.09,0.73 -27.58,12.36 -34.08,27.16 0.13,0.06 0.25,0.14 0.37,0.24 4.31,-3.78 9.08,-7.01 14.95,-9.1 5.04,-1.79 10.33,-2.55 15.68,-2.55 12.08,0 24.47,3.88 35.03,8.55 3.26,1.44 6.26,3.06 9.02,4.84 -6.4,-16.52 -22.32,-29.15 -39.17,-29.19 -0.02,0 -0.04,0 -0.06,0"
         style="fill:#5a6723;fill-opacity:1;fill-rule:nonzero;stroke:none"
         id="path56504" />
      <path
         d="m 3647.96,3430.24 c -0.02,0 -0.04,0 -0.06,0 0.02,0 0.04,0 0.06,0 v 0 m 0.03,0 c 1.16,0 2.31,0.04 3.45,0.16 -1.14,-0.12 -2.29,-0.16 -3.45,-0.16 m -3.48,0.07 c -1.16,0.04 -2.31,0.08 -3.46,0.08 1.15,0 2.3,-0.04 3.46,-0.08 m -4.21,0.08 c -0.02,0 -0.03,0 -0.05,0 0.02,0 0.03,0 0.05,0 v 0 m 0.18,0 h 0.01 -0.01 m 0.18,0 c 0.01,0 0.02,0 0.03,0 -0.01,0 -0.02,0 -0.03,0 m 0.2,0 h 0.01 -0.01 m 10.69,0.02 c 0.01,0 0.02,0 0.03,0 -0.01,0 -0.02,0 -0.03,0 m -57.98,31.93 v 0 0 m -0.14,0.22 c -0.04,0.07 -0.08,0.15 -0.13,0.22 0.05,-0.07 0.09,-0.15 0.13,-0.22 m -0.23,0.39 c -0.06,0.09 -0.11,0.18 -0.16,0.26 0.05,-0.08 0.1,-0.17 0.16,-0.26"
         style="fill:#b0b0ae;fill-opacity:1;fill-rule:nonzero;stroke:none"
         id="path56506" />
      <path
         d="m 3645.63,3416.26 c -24.15,0 -47.82,16.79 -57.14,40.45 0.04,2.37 0.09,4.74 0.39,7.1 0.84,0.3 1.6,0.86 1.75,1.97 0.06,0.48 0.14,0.96 0.23,1.43 0.64,-1.32 1.33,-2.6 2.09,-3.85 0.03,-0.05 0.06,-0.1 0.09,-0.15 0.05,-0.08 0.1,-0.17 0.16,-0.26 0.03,-0.06 0.07,-0.11 0.1,-0.17 0.05,-0.07 0.09,-0.15 0.13,-0.22 0.05,-0.07 0.1,-0.15 0.14,-0.22 v 0 c 10.48,-17.02 23.94,-31.94 46.68,-31.95 0.02,0 0.03,0 0.05,0 v 0 0 c 0.06,0 0.12,0 0.18,0 h 0.01 c 0.06,0 0.11,0 0.17,0 0.01,0 0.02,0 0.03,0 0.05,0 0.11,0 0.17,0 h 0.01 c 0.06,0 0.12,0 0.18,0 v 0 c 1.15,0 2.3,-0.04 3.46,-0.08 1.13,-0.03 2.26,-0.07 3.39,-0.07 0.02,0 0.04,0 0.06,0 v 0 0 c 0.01,0 0.02,0 0.03,0 1.16,0 2.31,0.04 3.45,0.16 0.04,0 0.08,0 0.11,0.01 0.01,0 0.02,0 0.03,0 0.13,0.01 0.25,0.03 0.37,0.04 19.88,2.46 42.5,19.92 47.5,37.51 0.55,-2.53 0.93,-5.09 1.18,-7.65 -4.35,-10.55 -10.03,-20.37 -18.4,-28.59 -10.98,-10.79 -23.86,-15.46 -36.6,-15.46"
         style="fill:#895930;fill-opacity:1;fill-rule:nonzero;stroke:none"
         id="path56508" />
      <path
         d="m 3634.47,3445.89 c -0.02,0 -0.03,0 -0.05,0 0.02,0 0.03,0 0.05,0 v 0 m 0.03,0 c 4.06,0.01 8.31,0.85 12.84,2.63 -4.53,-1.78 -8.78,-2.62 -12.84,-2.63 m 13.3,2.81 c 0.05,0.02 0.1,0.04 0.16,0.06 -0.06,-0.02 -0.11,-0.04 -0.16,-0.06 m -35.4,5.67 c -0.01,0 -0.01,0.01 -0.02,0.02 0.01,-0.01 0.01,-0.02 0.02,-0.02 m -0.19,0.14 c -0.28,0.22 -0.57,0.44 -0.85,0.66 0.28,-0.22 0.57,-0.44 0.85,-0.66"
         style="fill:#b0b0ae;fill-opacity:1;fill-rule:nonzero;stroke:none"
         id="path56510" />
      <path
         d="m 3647.96,3430.24 v 0 c -0.02,0 -0.04,0 -0.06,0 -1.13,0 -2.26,0.04 -3.39,0.07 -1.16,0.04 -2.31,0.08 -3.46,0.08 v 0 c -0.06,0 -0.12,0 -0.18,0 h -0.01 c -0.06,0 -0.12,0 -0.17,0 -0.01,0 -0.02,0 -0.03,0 -0.06,0 -0.11,0 -0.17,0 h -0.01 c -0.06,0 -0.12,0 -0.18,0 v 0 c -0.02,0 -0.03,0 -0.05,0 -22.74,0.01 -36.2,14.93 -46.68,31.95 v 0 c -0.04,0.07 -0.09,0.15 -0.14,0.22 -0.04,0.07 -0.08,0.15 -0.13,0.22 -0.03,0.06 -0.07,0.11 -0.1,0.17 -0.06,0.09 -0.11,0.18 -0.16,0.26 -0.03,0.05 -0.06,0.1 -0.09,0.15 -0.76,1.25 -1.45,2.53 -2.09,3.85 0.89,4.5 3.08,8.6 5.37,12.64 0.77,-0.79 1.56,-1.55 2.38,-2.29 0.75,-7.39 4.1,-15.59 12.64,-22.31 0.04,-0.03 0.08,-0.05 0.11,-0.08 0.28,-0.22 0.57,-0.44 0.85,-0.66 0.05,-0.04 0.11,-0.08 0.17,-0.12 0.01,-0.01 0.01,-0.02 0.02,-0.02 7.12,-5.37 14.22,-8.46 22.02,-8.48 0.02,0 0.03,0 0.05,0 v 0 0 c 0.01,0 0.02,0 0.03,0 4.06,0.01 8.31,0.85 12.84,2.63 0.15,0.06 0.3,0.12 0.46,0.18 0.05,0.02 0.1,0.04 0.16,0.06 0.07,0.03 0.13,0.06 0.2,0.09 13.01,5.38 26.31,9.55 33.27,23.35 2.2,4.37 3.7,8.88 4.52,13.42 0.31,0.35 0.62,0.7 0.92,1.05 0.39,0.08 0.77,0.12 1.15,0.12 2.08,0 4.06,-1.32 6.31,-5.21 2.45,-4.23 4.08,-8.86 5.12,-13.62 -5,-17.59 -27.62,-35.05 -47.5,-37.51 -0.12,-0.01 -0.24,-0.03 -0.37,-0.04 -0.01,0 -0.02,0 -0.03,0 -0.03,-0.01 -0.07,-0.01 -0.11,-0.01 -1.14,-0.12 -2.29,-0.16 -3.45,-0.16 -0.01,0 -0.02,0 -0.03,0"
         style="fill:#100f0d;fill-opacity:1;fill-rule:nonzero;stroke:none"
         id="path56512" />
      <path
         d="m 3634.47,3445.89 v 0 c -0.02,0 -0.03,0 -0.05,0 -7.8,0.02 -14.9,3.11 -22.02,8.48 -0.01,0 -0.01,0.01 -0.02,0.02 -0.06,0.04 -0.12,0.08 -0.17,0.12 -0.28,0.22 -0.57,0.44 -0.85,0.66 -0.03,0.03 -0.07,0.05 -0.11,0.08 -8.54,6.72 -11.89,14.92 -12.64,22.31 10.85,-9.85 25.85,-15.26 40.64,-15.26 9.46,0 18.84,2.21 27,6.89 7.36,4.23 13.89,9.89 19.7,16.43 -0.82,-4.54 -2.32,-9.05 -4.52,-13.42 -6.96,-13.8 -20.26,-17.97 -33.27,-23.35 -0.07,-0.03 -0.13,-0.06 -0.2,-0.09 -0.06,-0.02 -0.11,-0.04 -0.16,-0.06 -0.16,-0.06 -0.31,-0.12 -0.46,-0.18 -4.53,-1.78 -8.78,-2.62 -12.84,-2.63 -0.01,0 -0.02,0 -0.03,0"
         style="fill:#5a6723;fill-opacity:1;fill-rule:nonzero;stroke:none"
         id="path56514" />
      <path
         d="m 3672.1,3966.5 c -5.76,0 -11.49,0.13 -17.19,0.36 -22.03,0.9 -42.25,4.9 -62.81,12.89 -11.6,4.51 -23.65,9.93 -33.22,18.06 -10.46,8.89 -4.41,15.33 4.2,19.55 0.59,-0.37 1.18,-0.75 1.76,-1.13 0.26,-0.32 0.6,-0.56 1.01,-0.66 3.5,-2.32 6.93,-4.75 10.44,-7.05 31.63,-20.64 67.43,-25.66 103.99,-27.68 9.06,0.61 18.44,-0.13 27.08,2.08 22.82,5.85 45.02,14.26 67.99,19.25 13.2,2.86 22.5,9.41 29.85,17.83 -9.27,-24.49 -34.68,-37.05 -58.96,-44.11 -23.88,-6.95 -49.17,-9.39 -74.14,-9.39"
         style="fill:#895930;fill-opacity:1;fill-rule:nonzero;stroke:none"
         id="path56516" />
      <path
         d="m 3680.28,3980.84 c -36.56,2.02 -72.36,7.04 -103.99,27.68 -3.51,2.3 -6.94,4.73 -10.44,7.05 0.15,-0.04 0.31,-0.06 0.49,-0.06 0.23,0 0.47,0.04 0.74,0.12 1.57,0.46 3.14,0.79 4.73,1.15 9.4,-11.87 25.6,-16.95 40.18,-19.91 14.46,-2.94 29.52,-4.04 44.51,-4.04 8.88,0 17.74,0.39 26.42,1.01 38.71,2.76 76.81,13.56 112.62,29.4 3.17,0.19 6.34,0.42 9.55,0.42 0.44,0 0.89,-0.01 1.34,-0.02 -0.38,-1.24 -0.79,-2.45 -1.23,-3.64 -7.35,-8.42 -16.65,-14.97 -29.85,-17.83 -22.97,-4.99 -45.17,-13.4 -67.99,-19.25 -8.64,-2.21 -18.02,-1.47 -27.08,-2.08 m -115.44,35.39 c -0.58,0.38 -1.17,0.76 -1.76,1.13 0.39,0.19 0.78,0.37 1.18,0.55 0.02,-0.62 0.22,-1.23 0.58,-1.68"
         style="fill:#100f0d;fill-opacity:1;fill-rule:nonzero;stroke:none"
         id="path56518" />
      <path
         d="m 3334.38,2880.03 c -0.03,0 -0.06,0 -0.08,0 0.02,0 0.05,0 0.08,0 v 0 m 0.01,0 c 7.96,0 15.86,0.57 23.6,1.7 -7.74,-1.13 -15.64,-1.7 -23.6,-1.7 m 666.85,7.61 c -0.01,0 -0.02,0 -0.03,0 0.01,0 0.02,0 0.03,0 v 0 m 0.04,0 c 12.05,0 24.04,1.93 35.66,5.69 -11.62,-3.76 -23.61,-5.69 -35.66,-5.69 m 35.69,5.7 c 0.46,0.15 0.93,0.3 1.39,0.46 0.11,0.04 0.21,0.07 0.32,0.11 -0.11,-0.04 -0.22,-0.08 -0.32,-0.11 -0.46,-0.16 -0.93,-0.31 -1.39,-0.46 m 1.84,0.61 c 0.06,0.02 0.13,0.04 0.19,0.07 -0.06,-0.03 -0.13,-0.05 -0.19,-0.07 m 0.34,0.12 c 0.06,0.02 0.11,0.04 0.17,0.06 -0.05,-0.02 -0.11,-0.04 -0.17,-0.06 m 0.33,0.11 c 0.05,0.02 0.1,0.04 0.15,0.05 -0.05,-0.01 -0.1,-0.03 -0.15,-0.05 m 0.33,0.12 c 0.04,0.01 0.08,0.02 0.12,0.04 -0.04,-0.02 -0.08,-0.03 -0.12,-0.04 m 0.32,0.11 c 0.02,0 0.02,0 0.03,0.01 -0.01,0 -0.02,-0.01 -0.03,-0.01 m -712.89,2.24 c -0.01,0 -0.03,0 -0.05,0 0.02,0 0.04,0 0.05,0 v 0 m 0.04,0 c 14.96,0.01 30.06,3.29 45.27,11.06 -15.22,-7.77 -30.31,-11.05 -45.27,-11.06 m 626.88,1.2 c -0.16,0.07 -0.32,0.14 -0.48,0.22 0.16,-0.08 0.32,-0.15 0.48,-0.22 m 57.84,9.36 c -0.01,0 -0.01,0 -0.02,0 0.01,0 0.01,0 0.02,0 v 0 m 0.05,0 c 30.59,0.02 58.23,14.02 73.81,39.67 -15.58,-25.65 -43.22,-39.66 -73.81,-39.67 m -639.16,0.67 c 0.08,0.04 0.16,0.08 0.24,0.12 -0.08,-0.04 -0.16,-0.08 -0.24,-0.12 m -104.82,3.46 h -0.01 0.01 m -1.31,0.6 c -0.11,0.05 -0.22,0.1 -0.33,0.15 0.11,-0.05 0.22,-0.1 0.33,-0.15 m 711.77,0.72 c -0.02,0.01 -0.04,0.01 -0.06,0.02 0.02,-0.01 0.04,-0.01 0.06,-0.02 m -0.55,0.18 c -0.18,0.06 -0.36,0.12 -0.54,0.18 0.18,-0.06 0.36,-0.12 0.54,-0.18 m 107.93,34.13 c 0.14,0.23 0.27,0.45 0.41,0.68 -0.14,-0.23 -0.27,-0.45 -0.41,-0.68 m 0.43,0.72 c 0.05,0.09 0.11,0.18 0.16,0.27 -0.05,-0.09 -0.11,-0.18 -0.16,-0.27 m -891.92,11.27 c -0.01,0.02 -0.02,0.04 -0.03,0.05 0.01,-0.01 0.02,-0.03 0.03,-0.05 m -0.23,0.43 c -0.17,0.31 -0.33,0.61 -0.49,0.92 0.16,-0.31 0.32,-0.61 0.49,-0.92 m -0.76,1.45 v 0 c -0.3,0.57 -0.59,1.14 -0.88,1.71 0.29,-0.57 0.58,-1.14 0.88,-1.71 v 0 m -0.96,1.87 c 0,0.01 0,0.01 -0.01,0.02 0.01,-0.01 0.01,-0.01 0.01,-0.02 m 234.59,37.92 c 0,0 -0.01,0 -0.02,0 0.01,0 0.02,0 0.02,0 v 0 m 0.04,0 c 8.91,0.02 15.49,6.5 22.11,12.57 -6.62,-6.07 -13.2,-12.55 -22.11,-12.57 m 22.38,12.81 c 0.11,0.1 0.22,0.2 0.33,0.3 -0.11,-0.1 -0.22,-0.2 -0.33,-0.3 m 0.81,0.74 c 0.07,0.06 0.13,0.12 0.19,0.17 -0.06,-0.05 -0.12,-0.11 -0.19,-0.17 m 443.42,45.36 c -0.02,0 -0.03,0 -0.04,0 0.01,0 0.02,0 0.04,0 v 0 m 0.03,0 c 2.54,0.01 5.08,0.26 7.63,0.75 v 0 c -2.55,-0.5 -5.09,-0.74 -7.63,-0.75 m -248.25,223.32 c 3.72,6.75 9.59,10.17 15.57,10.2 -5.98,-0.03 -11.86,-3.45 -15.57,-10.2 m 31.15,0.94 c -0.08,0.12 -0.16,0.24 -0.24,0.36 0.08,-0.12 0.16,-0.24 0.24,-0.36 m -15.47,9.26 c -0.01,0 -0.03,0 -0.04,0 v 0 c 0.01,0 0.03,0 0.04,0"
         style="fill:#b0b0ae;fill-opacity:1;fill-rule:nonzero;stroke:none"
         id="path56520" />
      <path
         d="m 3334.38,2880.03 c -0.03,0 -0.06,0 -0.08,0 -54.4,0.03 -111.67,26.46 -139.88,78.93 -0.01,0.02 -0.02,0.04 -0.03,0.05 -0.07,0.13 -0.13,0.26 -0.2,0.38 -0.17,0.31 -0.33,0.61 -0.49,0.92 -0.09,0.18 -0.18,0.35 -0.27,0.53 v 0 c -0.3,0.57 -0.59,1.14 -0.88,1.71 -0.02,0.05 -0.05,0.11 -0.08,0.16 0,0.01 0,0.01 -0.01,0.02 -4.73,9.43 -8.54,19.34 -11.3,29.59 9.31,-10.27 19.85,-19.42 31.23,-27.04 12.34,-23.1 29.2,-41.67 54.04,-53.19 v 0 c 0.11,-0.05 0.22,-0.1 0.33,-0.15 0.44,-0.2 0.87,-0.4 1.3,-0.6 h 0.01 c 19.45,-8.84 39.17,-14.68 59.12,-14.69 0.02,0 0.04,0 0.05,0 v 0 0 c 0.01,0 0.03,0 0.04,0 14.96,0.01 30.05,3.29 45.27,11.06 0.11,0.05 0.23,0.11 0.34,0.17 0.08,0.04 0.16,0.08 0.24,0.12 0.08,0.04 0.15,0.08 0.23,0.12 10.7,5.56 21.82,10.46 32.08,16.71 22.41,13.65 42.51,30.01 56.82,52.53 10.66,16.79 21.32,33.59 31.96,50.4 22.4,35.39 44.77,70.82 67.19,106.21 7.47,11.78 15.76,23.09 22.49,35.27 20.81,37.66 41,75.64 61.51,113.47 0.03,0.05 0.06,0.1 0.08,0.15 3.71,6.75 9.59,10.17 15.57,10.2 0.02,0 0.05,0 0.07,0 0.01,0 0.03,0 0.04,0 5.56,-0.02 11.19,-2.97 15.23,-8.9 0.08,-0.12 0.16,-0.24 0.24,-0.36 0.05,-0.08 0.11,-0.16 0.16,-0.24 2.95,-4.59 5.14,-9.66 8.1,-14.25 48.34,-75.14 95.81,-150.84 148.99,-222.77 12.28,-16.61 22.48,-34.75 34.68,-51.42 27.97,-38.21 63.44,-66.8 108.87,-82.1 v 0 c 0.18,-0.06 0.36,-0.12 0.54,-0.18 0.16,-0.05 0.33,-0.11 0.49,-0.16 0.02,-0.01 0.04,-0.01 0.06,-0.02 11.25,-3.67 22.53,-5.45 33.45,-5.45 0.01,0 0.01,0 0.02,0 v 0 0 c 0.02,0 0.03,0 0.05,0 30.59,0.01 58.23,14.02 73.81,39.67 0.02,0.03 0.03,0.06 0.05,0.09 0.14,0.23 0.27,0.45 0.41,0.68 0.01,0.01 0.01,0.02 0.02,0.04 0.05,0.09 0.11,0.18 0.16,0.27 v 0 c 6.13,10.45 11.3,21.03 15.53,31.75 10.46,4.43 20.66,9.73 30.79,15.21 -14.59,-46.72 -42.94,-83.09 -92.66,-100.5 -0.01,-0.01 -0.01,-0.01 -0.03,-0.01 -0.07,-0.03 -0.13,-0.05 -0.2,-0.07 -0.04,-0.02 -0.08,-0.03 -0.12,-0.04 -0.06,-0.02 -0.11,-0.04 -0.18,-0.07 -0.05,-0.01 -0.1,-0.03 -0.15,-0.05 -0.06,-0.02 -0.11,-0.04 -0.16,-0.05 -0.06,-0.02 -0.11,-0.04 -0.17,-0.06 -0.05,-0.02 -0.1,-0.04 -0.15,-0.05 -0.06,-0.03 -0.13,-0.05 -0.19,-0.07 -0.05,-0.01 -0.09,-0.03 -0.13,-0.04 -0.11,-0.04 -0.21,-0.07 -0.32,-0.11 -0.46,-0.16 -0.93,-0.31 -1.39,-0.46 -0.01,0 -0.02,-0.01 -0.03,-0.01 -11.62,-3.76 -23.61,-5.69 -35.66,-5.69 -0.01,0 -0.02,0 -0.04,0 -0.01,0 -0.02,0 -0.03,0 -15.85,0 -31.78,3.34 -47.05,10.21 -0.16,0.07 -0.32,0.14 -0.48,0.22 -0.23,0.1 -0.45,0.2 -0.67,0.3 v 0 c -25.89,11.98 -51.78,24.3 -72.17,45.06 -18.64,19 -37.64,37.71 -52.36,60.21 -20.27,30.96 -42.07,60.95 -61.33,92.5 -34.83,57.01 -68.25,114.86 -102.31,172.33 -0.58,0.98 -1.76,1.62 -4.68,4.21 -3.88,-4.98 -8.52,-9.36 -11.26,-14.74 -15.5,-30.26 -30.55,-60.76 -45.75,-91.19 -1.89,-3.8 -3.5,-7.77 -5.63,-11.44 -19.84,-34.15 -40.4,-67.87 -59.44,-102.46 -15.52,-28.2 -30.29,-56.7 -48.79,-83.2 -32.35,-46.31 -73.25,-79.18 -130.66,-87.82 v 0 c -0.21,-0.04 -0.42,-0.07 -0.64,-0.1 -7.74,-1.13 -15.64,-1.7 -23.6,-1.7 -0.01,0 -0.01,0 -0.01,0"
         style="fill:#100f0d;fill-opacity:1;fill-rule:nonzero;stroke:none"
         id="path56522" />
      <path
         d="m 3327.24,2896.65 v 0 c -0.01,0 -0.03,0 -0.05,0 -19.95,0.01 -39.67,5.85 -59.12,14.69 h -0.01 c -0.43,0.2 -0.86,0.4 -1.3,0.6 -0.11,0.05 -0.22,0.1 -0.33,0.15 v 0 c -24.84,11.52 -41.7,30.09 -54.04,53.19 6.98,-4.67 14.28,-8.77 21.81,-12.19 17.85,-8.14 35.58,-11.92 52.88,-11.92 32.22,0 62.99,13.1 90.41,35.59 11.42,9.37 21.98,19.68 31.92,30.61 2.91,-2.07 6.22,-3.72 9.51,-5.05 2.93,-1.17 5.62,-1.69 8.12,-1.69 0.01,0 0.02,0 0.02,0 v 0 0 c 0.01,0 0.03,0 0.04,0 8.91,0.02 15.49,6.5 22.11,12.57 0.09,0.08 0.18,0.16 0.27,0.24 0.11,0.1 0.22,0.2 0.33,0.3 0.16,0.15 0.32,0.3 0.48,0.44 0.07,0.06 0.13,0.12 0.19,0.17 v 0 c 7.29,6.59 11.17,13.56 11.19,20.8 0.02,5.2 -1.96,10.53 -6.09,15.96 -1.87,2.45 -3.77,4.85 -5.75,7.19 11.07,15.39 21.75,31.03 32.54,46.25 14.94,21.03 29.6,41.51 42.28,64.05 14.72,26.17 28.32,52.92 43.68,78.71 20.38,34.21 53.99,89.1 98.97,89.1 5.34,0 10.84,-0.77 16.5,-2.45 21.43,-6.34 39.23,-22.9 54.24,-38.73 17.57,-18.55 32.57,-39.51 46.84,-60.63 12.59,-18.63 24.37,-37.78 36.62,-56.63 12.27,-18.86 25.88,-36.77 38.22,-55.6 2.63,-4.03 5.26,-8.07 7.9,-12.13 -1.53,-2.73 -2.95,-5.63 -4.27,-8.68 -1.93,-4.46 -2.85,-8.92 -2.86,-13.17 -0.02,-12.37 7.73,-23.03 21.14,-27.02 4.08,-1.21 8.06,-1.82 12.04,-1.83 0.01,0 0.02,0 0.04,0 v 0 0 c 0.01,0 0.02,0 0.03,0 2.54,0.01 5.08,0.25 7.63,0.75 16.48,-22.56 34.65,-43.73 56.63,-61.21 25.88,-20.59 56.32,-31.41 87.51,-31.41 16.4,0 33.02,2.99 49.28,9.14 2.43,0.91 4.84,1.88 7.24,2.9 -4.23,-10.72 -9.4,-21.3 -15.53,-31.75 v 0 c -0.05,-0.09 -0.11,-0.18 -0.16,-0.27 -0.01,-0.02 -0.01,-0.03 -0.02,-0.04 -0.14,-0.23 -0.27,-0.45 -0.41,-0.68 -0.02,-0.03 -0.03,-0.06 -0.05,-0.09 -15.58,-25.65 -43.22,-39.65 -73.81,-39.67 -0.02,0 -0.03,0 -0.05,0 v 0 c -0.01,0 -0.01,0 -0.02,0 -10.92,0 -22.2,1.78 -33.45,5.45 -0.02,0.01 -0.04,0.01 -0.06,0.02 -0.16,0.05 -0.33,0.11 -0.49,0.16 -0.18,0.06 -0.36,0.12 -0.54,0.18 v 0 c -45.43,15.3 -80.9,43.89 -108.87,82.1 -12.2,16.67 -22.4,34.81 -34.68,51.42 -53.18,71.93 -100.65,147.63 -148.99,222.77 -2.96,4.59 -5.15,9.66 -8.1,14.25 -0.05,0.08 -0.11,0.16 -0.16,0.24 -0.08,0.12 -0.16,0.24 -0.24,0.36 -4.04,5.93 -9.67,8.88 -15.23,8.9 -0.01,0 -0.03,0 -0.04,0 v 0 c -0.02,0 -0.05,0 -0.07,0 -5.98,-0.03 -11.85,-3.45 -15.57,-10.2 -0.02,-0.05 -0.05,-0.1 -0.08,-0.15 -20.51,-37.83 -40.7,-75.81 -61.51,-113.47 -6.73,-12.18 -15.02,-23.49 -22.49,-35.27 -22.42,-35.39 -44.79,-70.82 -67.19,-106.21 -10.64,-16.81 -21.3,-33.61 -31.96,-50.4 -14.31,-22.52 -34.41,-38.88 -56.82,-52.53 -10.26,-6.25 -21.38,-11.15 -32.08,-16.71 -0.08,-0.04 -0.15,-0.08 -0.23,-0.12 -0.08,-0.04 -0.16,-0.08 -0.24,-0.12 -0.11,-0.06 -0.23,-0.12 -0.34,-0.17 -15.21,-7.77 -30.31,-11.05 -45.27,-11.06 -0.01,0 -0.03,0 -0.04,0"
         style="fill:#895930;fill-opacity:1;fill-rule:nonzero;stroke:none"
         id="path56524" />
      <path
         d="m 3423.13,3020.47 v 0 0 0 m 0.05,0 c 12.6,0.02 23.84,5.82 26.23,12.1 -2.39,-6.28 -13.62,-12.08 -26.23,-12.1 m 26.28,12.25 c 0.01,0.01 0.01,0.02 0.01,0.03 0,-0.01 0,-0.02 -0.01,-0.03 m 0.05,0.13 c 0.02,0.06 0.04,0.13 0.06,0.19 -0.02,-0.06 -0.04,-0.13 -0.06,-0.19 m 427.86,46.8 c -0.15,0.07 -0.3,0.13 -0.46,0.2 0.16,-0.07 0.31,-0.13 0.46,-0.2"
         style="fill:#b0b0ae;fill-opacity:1;fill-rule:nonzero;stroke:none"
         id="path56526" />
      <path
         d="m 3893.71,3059.54 v 0 c -0.02,0 -0.03,0 -0.04,0 -3.98,0.01 -7.96,0.62 -12.04,1.83 -13.41,3.99 -21.16,14.65 -21.14,27.02 0.01,4.25 0.93,8.71 2.86,13.17 1.32,3.05 2.74,5.95 4.27,8.68 2.19,-3.37 4.39,-6.76 6.6,-10.14 -1.41,-3.01 -2.65,-6.14 -3.76,-9.35 -0.09,-0.27 -0.14,-0.57 -0.14,-0.9 0,-3.07 3.63,-8.7 6.59,-10 v 0 c 0.16,-0.07 0.31,-0.13 0.46,-0.2 4.14,-1.76 8.35,-2.87 12.61,-3.22 3.72,-5.44 7.51,-10.83 11.39,-16.14 -2.55,-0.49 -5.09,-0.74 -7.63,-0.75 -0.01,0 -0.02,0 -0.03,0"
         style="fill:#100f0d;fill-opacity:1;fill-rule:nonzero;stroke:none"
         id="path56528" />
      <path
         d="m 3427.06,3000.63 v 0 c 0,0 -0.01,0 -0.02,0 -2.5,0 -5.19,0.52 -8.12,1.69 -3.29,1.33 -6.6,2.98 -9.51,5.05 4.02,4.42 7.94,8.95 11.78,13.55 0.39,-0.15 0.75,-0.29 1.09,-0.44 0.28,0 0.57,-0.01 0.85,-0.01 v 0 0 0 c 0.02,0 0.04,0 0.05,0 12.61,0.02 23.84,5.82 26.23,12.1 0.02,0.05 0.03,0.1 0.05,0.15 0.01,0.01 0.01,0.02 0.01,0.03 0.01,0.03 0.03,0.07 0.04,0.1 0.02,0.06 0.04,0.13 0.06,0.19 v 0 c 0.58,1.88 0.87,3.69 0.87,5.45 0,4.59 -1.95,8.81 -5.7,12.79 1.71,2.34 3.4,4.67 5.09,7.02 1.98,-2.34 3.88,-4.74 5.75,-7.19 4.13,-5.43 6.11,-10.76 6.09,-15.96 -0.02,-7.24 -3.9,-14.21 -11.19,-20.8 v 0 c -0.06,-0.05 -0.12,-0.11 -0.19,-0.17 -0.16,-0.14 -0.32,-0.29 -0.48,-0.44 -0.11,-0.1 -0.22,-0.2 -0.33,-0.3 -0.09,-0.08 -0.18,-0.16 -0.27,-0.24 -6.62,-6.07 -13.2,-12.55 -22.11,-12.57 -0.01,0 -0.03,0 -0.04,0"
         style="fill:#100f0d;fill-opacity:1;fill-rule:nonzero;stroke:none"
         id="path56530" />
      <path
         d="m 3889.98,3076.43 c -4.26,0.35 -8.47,1.46 -12.61,3.22 -0.15,0.07 -0.3,0.13 -0.46,0.2 v 0 c -2.96,1.3 -6.59,6.93 -6.59,10 0,0.33 0.05,0.63 0.14,0.9 1.11,3.21 2.35,6.34 3.76,9.35 5.17,-7.93 10.4,-15.85 15.76,-23.67"
         style="fill:#a69975;fill-opacity:1;fill-rule:nonzero;stroke:none"
         id="path56532" />
      <path
         d="m 3423.13,3020.47 v 0 0 c -0.28,0 -0.57,0.01 -0.85,0.01 -0.34,0.15 -0.7,0.29 -1.09,0.44 8.18,9.83 15.97,20.02 23.55,30.36 3.75,-3.98 5.7,-8.2 5.7,-12.79 0,-1.76 -0.29,-3.57 -0.87,-5.45 v 0 c -0.02,-0.06 -0.04,-0.13 -0.06,-0.19 -0.01,-0.03 -0.03,-0.07 -0.04,-0.1 0,-0.01 0,-0.02 -0.01,-0.03 -0.02,-0.05 -0.03,-0.1 -0.05,-0.15 -2.39,-6.28 -13.63,-12.08 -26.23,-12.1 -0.01,0 -0.03,0 -0.05,0"
         style="fill:#a69975;fill-opacity:1;fill-rule:nonzero;stroke:none"
         id="path56534" />
      <path
         d="m 4126.95,3679.26 -0.21,0.16 0.21,-0.16"
         style="fill:#a69975;fill-opacity:1;fill-rule:nonzero;stroke:none"
         id="path56536" />
      <path
         d="m 4129.12,3677.61 v 0 h -0.01 0.01"
         style="fill:#100f0d;fill-opacity:1;fill-rule:nonzero;stroke:none"
         id="path56538" />
      <path
         d="m 4129.62,3677 -0.5,0.61 v 0 l 0.5,-0.61"
         style="fill:#a69975;fill-opacity:1;fill-rule:nonzero;stroke:none"
         id="path56540" />
      <path
         d="m 4133.29,3669.59 c -0.28,1.6 -0.84,3.02 -1.53,4.35 0.69,-1.33 1.25,-2.75 1.53,-4.35"
         style="fill:#a69975;fill-opacity:1;fill-rule:nonzero;stroke:none"
         id="path56542" />
    </g>
  </g>
</svg>
