<?xml version="1.0" encoding="UTF-8" standalone="no"?>
<!-- Created with Inkscape (http://www.inkscape.org/) -->

<svg
   version="1.1"
   id="svg10064"
   width="61.997208"
   height="73.633392"
   viewBox="0 0 61.997208 73.633392"
   sodipodi:docname="1324419_179087-OWZFQ4-709.eps"
   xmlns:inkscape="http://www.inkscape.org/namespaces/inkscape"
   xmlns:sodipodi="http://sodipodi.sourceforge.net/DTD/sodipodi-0.dtd"
   xmlns="http://www.w3.org/2000/svg"
   xmlns:svg="http://www.w3.org/2000/svg">
  <defs
     id="defs10068">
    <clipPath
       clipPathUnits="userSpaceOnUse"
       id="clipPath10344">
      <path
         d="m 1128.51,2716.23 c -7.98,0 -14.65,6.67 -14.65,14.65 0,12.85 0.22,25.72 -0.33,38.54 -0.49,11.35 -1.3,22.68 -1.7,34.03 -0.28,7.98 6.88,14.65 14.65,14.65 8.21,0 14.38,-6.68 14.65,-14.65 0.41,-11.5 1.33,-22.97 1.72,-34.46 0.43,-12.7 0.32,-25.41 0.32,-38.11 0,-7.98 -6.67,-14.65 -14.66,-14.65"
         id="path10342" />
    </clipPath>
  </defs>
  <sodipodi:namedview
     id="namedview10066"
     pagecolor="#ffffff"
     bordercolor="#000000"
     borderopacity="0.25"
     inkscape:showpageshadow="2"
     inkscape:pageopacity="0.0"
     inkscape:pagecheckerboard="0"
     inkscape:deskcolor="#d1d1d1"
     showgrid="false" />
  <g
     id="g10072"
     inkscape:groupmode="layer"
     inkscape:label="Page 1"
     transform="matrix(1.3333333,0,0,-1.3333333,-136.78038,418.29332)">
    <g
       id="g10074"
       transform="scale(0.1)">
      <path
         d="m 1346.2,2958.02 v 0.03 l 4.95,0.02 c 3.62,0.01 7.25,0.02 10.86,0.02 13.93,0 25.42,-0.12 36.19,-0.38 l 0.39,-0.01 c 14.55,-0.36 29.6,-0.73 44.26,-2.44 5.54,-0.93 9.98,-2.01 14.02,-3.44 l -0.02,-2.28 c -0.01,-1.77 -0.03,-3.54 0,-5.3 0.03,-4.94 0.1,-9.88 0.22,-14.82 0.11,-5 0.27,-10.01 0.47,-15.01 l 0.13,-2.81 c 0.16,-3.41 0.33,-6.95 0.14,-10.44 l -0.69,-0.36 c -2.88,-1.06 -5.47,-1.8 -7.93,-2.25 -2.38,-0.44 -4.75,-0.8 -7.14,-1.14 -4.66,-0.58 -8.87,-1 -12.85,-1.29 -3.73,-0.26 -7.53,-0.35 -11.21,-0.45 -2.09,-0.05 -4.17,-0.1 -6.26,-0.19 -4.6,-0.17 -9.21,-0.38 -13.82,-0.59 -7.92,-0.35 -16.11,-0.72 -24.18,-0.94 -7.22,-0.21 -15.13,-0.31 -24.2,-0.31 l -4.13,0.03 c -6.83,0.02 -13.67,0.08 -20.5,0.15 -4.14,0.04 -8.29,0.09 -12.43,0.11 v -0.02 c -4.36,0.04 -8.72,0.05 -13.07,0.05 l -2.67,-0.01 c -7.62,-0.02 -15.36,-0.21 -22.85,-0.4 -4.8,-0.11 -9.6,-0.23 -14.4,-0.31 -6.47,-0.11 -12.92,-0.27 -19.39,-0.43 -4.37,-0.11 -8.73,-0.21 -13.11,-0.29 -2.1,-0.04 -4.18,-0.07 -6.27,-0.11 -9.18,-0.14 -18.36,-0.46 -27.53,-0.86 v -0.03 c -3.36,-0.14 -6.73,-0.3 -10.1,-0.48 -6.05,-0.29 -12.18,-0.74 -18.12,-1.17 -6.99,-0.51 -14.23,-1.03 -21.36,-1.33 l -7.14,-0.3 c -11.62,-0.51 -23.62,-1.03 -35.41,-1.03 h -0.79 c -7.59,0.01 -15.29,0.08 -22.88,0.2 -6.92,0.13 -12.72,0.33 -18.58,0.91 -0.12,3.57 -0.11,7.15 -0.09,10.18 0.06,6.61 0.51,13.22 0.94,18.89 0.39,4.9 0.71,9.79 1.03,14.69 0.48,7.28 0.98,14.8 1.67,22.21 3.06,0.2 6.12,0.28 9.17,0.37 l 0.7,0.02 4.79,0.16 c 4.12,0.13 8.25,0.27 12.37,0.32 5.16,0.06 10.32,0.09 15.48,0.12 6.52,0.04 13.03,0.06 19.55,0.18 7.21,0.11 14.41,0.28 21.63,0.46 l 0.04,-0.01 c 5.58,0.14 11.16,0.29 16.74,0.45 1.33,0.03 2.65,0.06 3.97,0.09 l 0.03,0.02 c 7.83,0.16 15.78,0.2 23.47,0.23 l 2.34,0.02 0.02,-0.01 v -0.02 c 2.31,0.01 4.61,0.02 6.91,0.04 8.68,0.05 17.36,0.13 26.04,0.2 v 0.03 c 12.78,0.12 25.56,0.25 38.35,0.39 16.43,0.18 32.85,0.35 49.28,0.49 l 0.02,-0.01 0.01,-0.02 c 10.98,0.1 21.96,0.16 32.94,0.21 m -22.09,32.9 c -16.54,-0.04 -33.06,-0.28 -49.59,-0.5 v -0.02 c -7.41,-0.09 -14.83,-0.19 -22.27,-0.23 -1.59,0 -3.18,-0.01 -4.77,-0.02 -25.03,-0.18 -50.06,-0.39 -75.1,-0.67 -12.78,-0.15 -25.55,-0.65 -38.34,-0.9 -5.22,-0.1 -10.46,-0.19 -15.69,-0.26 l 0.01,-0.03 -4.47,-0.05 -0.06,0.02 c -4.95,-0.05 -9.9,-0.09 -14.85,-0.11 -11.48,-0.03 -22.95,-0.29 -34.41,-0.8 -2.53,-0.11 -5.06,-0.29 -7.58,-0.6 -3.58,-0.46 -7.28,-0.78 -10.68,-2.05 -2.08,-0.78 -4.34,-1.61 -6.26,-2.79 -3.17,-1.95 -5.8,-4.59 -7.8,-7.73 -1.47,-2.3 -2.55,-4.91 -3.29,-7.53 l -0.5,-2.41 c -0.69,-3.94 -0.75,-7.52 0.83,-11.09 -0.93,-10.67 -1.46,-21.36 -2.29,-32.04 -0.86,-11.03 -1.42,-21.97 -1.01,-33.04 0.17,-4.43 0.39,-8.67 1.18,-13.06 0.72,-4.06 3.47,-8.05 6.25,-10.94 3.19,-3.32 8.41,-5.67 12.75,-6.77 6.95,-1.75 14.26,-2.24 21.39,-2.53 8.54,-0.35 17.09,-0.48 25.64,-0.5 v 0.03 h 1.95 c 3.92,0 7.83,0.02 11.74,0.05 4.71,0.03 9.48,0.24 14.11,0.44 l 5.1,0.22 c 2.94,0.12 5.88,0.21 8.83,0.31 3.68,0.12 7.36,0.25 11.04,0.41 6.94,0.28 13.97,0.8 20.77,1.31 5.71,0.42 11.62,0.85 17.43,1.15 12.16,0.61 23.34,1.01 34.2,1.23 l 0.02,-0.01 0.01,-0.01 c 1.47,0.03 2.94,0.06 4.42,0.08 9.52,0.14 19.04,0.46 28.55,0.67 v 0.02 c 2.88,0.07 5.76,0.12 8.63,0.17 5.34,0.06 10.69,0.2 16.03,0.32 5.2,0.13 10.39,0.26 15.59,0.33 l 0.02,-0.01 0.01,-0.01 c 2.27,0.03 4.53,0.04 6.8,0.05 8.71,0.03 17.43,-0.12 26.14,-0.23 v 0.01 c 3.98,-0.05 7.98,-0.1 11.96,-0.12 2.63,-0.02 5.25,-0.03 7.88,-0.03 10.61,0 21.14,0.14 31.3,0.44 7.71,0.22 15.55,0.57 23.13,0.92 4.73,0.21 9.45,0.42 14.17,0.62 1.89,0.06 3.78,0.11 5.67,0.16 2.66,0.06 5.31,0.13 7.97,0.26 h 0.02 v -0.02 c 1.27,0.06 2.53,0.14 3.79,0.25 6.28,0.5 12.55,1.25 18.79,2.14 5.56,0.79 11.04,1.61 16.35,3.49 3.53,1.25 7.22,2.6 10.37,4.65 6.61,4.31 11.5,10.51 13.49,18.23 1.93,7.44 1.32,15.05 1.01,22.62 -0.23,5.55 -0.41,11.09 -0.52,16.64 -0.12,5.55 -0.17,11.08 -0.21,16.62 -0.02,2.76 -0.03,5.52 -0.04,8.27 0,2.67 -0.36,5.24 -0.8,7.87 -0.96,5.69 -5.8,10.05 -10.17,13.25 -5.91,4.34 -13.03,6.86 -20.07,8.65 -7.52,1.91 -15.45,2.57 -23.16,3.26 -12.38,1.13 -24.9,1.31 -37.32,1.68 -11.29,0.34 -22.59,0.43 -33.88,0.43 -13.41,0 -26.82,-0.13 -40.21,-0.16"
         style="fill:#565148;fill-opacity:1;fill-rule:nonzero;stroke:none"
         id="path10298"
         inkscape:export-filename="path10298.png"
         inkscape:export-xdpi="96"
         inkscape:export-ydpi="96" />
      <path
         d="m 1426.67,2865.41 v -2.36 l 0.02,-0.01 v -0.02 c 0,-9.07 -0.08,-18.14 -0.16,-27.21 -0.1,-13.59 -0.21,-27.63 -0.09,-41.46 0.11,-13.6 0.4,-25.65 0.9,-36.84 0.25,-6.07 0.59,-12.16 0.92,-18.24 0.33,-6.08 0.66,-12.15 0.93,-18.24 0.66,-15.27 0.87,-27.92 0.68,-39.82 -0.2,-11.58 -0.48,-23.9 -1.84,-35.98 -0.8,-5.07 -1.79,-9.19 -3.14,-12.98 -0.91,-1.88 -1.92,-3.67 -3.1,-5.46 l -0.82,-0.82 c -1.32,-0.87 -2.72,-1.69 -4.29,-2.49 -1.87,-0.63 -3.77,-1.13 -5.8,-1.53 -8.23,-0.76 -16.64,-0.93 -24.78,-1.11 -2.69,-0.05 -5.38,-0.11 -8.06,-0.2 -4.75,-0.13 -9.58,-0.47 -14.25,-0.8 l -4.22,-0.29 c -3.24,-0.21 -6.48,-0.34 -9.71,-0.46 -2.69,-0.11 -5.38,-0.21 -8.06,-0.37 -6.25,-0.34 -12.72,-0.57 -19.29,-0.65 v 0.01 c -11.06,-0.19 -22.12,-0.01 -33.17,0.42 v -0.01 c -6.75,0.24 -13.9,0.63 -21.24,1.1 -5.67,0.37 -11.26,0.57 -17.86,0.76 -6.76,0.17 -13.52,0.28 -20.28,0.59 -4.37,0.2 -8.73,0.49 -13.09,0.82 v -0.03 l -3.94,0.3 c -6.44,0.48 -13.1,0.99 -19.67,1.22 -7.44,0.27 -15.02,0.33 -22.34,0.39 -5.59,0.05 -11.18,0.09 -16.76,0.22 -11.64,0.27 -24.12,0.7 -36.39,2.07 -4.51,0.74 -8.48,1.7 -12.16,2.94 -1.82,0.88 -3.43,1.76 -4.95,2.73 -1.75,1.54 -3.34,3.15 -4.87,4.93 -0.95,1.41 -1.78,2.8 -2.52,4.23 -0.55,1.73 -1,3.57 -1.4,5.81 -1,9.02 -1.48,18.98 -1.48,31.34 l 0.01,12.75 c 0,8.49 0,17 0.02,25.49 0.03,13.04 0.24,26.31 0.45,39.13 0.19,11.78 0.39,23.96 0.43,35.95 0.04,10.02 0.13,21.83 0.48,33.71 0.24,8.06 0.69,16.26 1.12,24.18 l 0.3,5.17 v 0 c 0.14,2.55 0.26,5.09 0.39,7.63 0.43,8.99 -7.82,16.49 -16.49,16.49 -4.35,0 -8.58,-1.75 -11.66,-4.83 -3.19,-3.19 -4.61,-7.21 -4.82,-11.66 -0.64,-13.63 -1.49,-27.29 -1.9,-40.95 -0.36,-12.38 -0.34,-24.77 -0.39,-37.17 -0.05,-12.84 -0.53,-25.69 -0.69,-38.53 -0.15,-12.52 -0.16,-25.03 -0.18,-37.55 -0.01,-12.48 -0.11,-24.97 0.03,-37.45 0.07,-5.89 0.32,-11.76 0.83,-17.61 0.24,-2.66 0.48,-5.33 0.83,-7.99 0.34,-2.6 0.69,-5.21 1.1,-7.82 0.62,-3.73 2.01,-7.08 3.53,-10.54 3.08,-7.02 8.16,-13.18 13.83,-18.29 3.42,-3.08 7.55,-6.02 11.84,-7.87 4.03,-1.74 8.08,-3.6 12.37,-4.62 13.38,-3.15 27.36,-3.57 41.05,-4.22 12.83,-0.6 25.68,-0.69 38.52,-0.85 6.03,-0.07 12.09,-0.01 18.1,-0.4 6.35,-0.41 12.67,-0.98 19.02,-1.44 12.46,-0.9 24.94,-0.87 37.42,-1.3 12.44,-0.44 24.82,-1.62 37.26,-1.95 12.04,-0.33 24.15,-0.64 36.19,-0.21 6.03,0.22 12.05,0.66 18.09,0.9 6.37,0.27 12.75,0.58 19.12,1.03 11.55,0.84 23.15,0.81 34.72,1.31 7.33,0.31 14.83,0.7 21.93,2.57 3.74,0.97 7.49,2.61 10.86,4.45 4.11,2.25 8.05,4.97 11.3,8.34 5.3,5.54 8.9,12.95 11.43,20.09 2.23,6.3 3.11,12.9 3.93,19.51 1.42,11.54 1.76,23.24 1.99,34.87 0.24,12.01 0.19,24.05 -0.33,36.05 -0.52,12.19 -1.22,24.37 -1.82,36.56 -0.97,19.56 -1.24,39.12 -1.3,58.7 -0.06,18.62 0.35,37.25 0.34,55.87 0,8.98 -7.5,16.48 -16.48,16.48 -8.99,0 -16.49,-7.5 -16.49,-16.48"
         style="fill:#565148;fill-opacity:1;fill-rule:nonzero;stroke:none"
         id="path10300" />
      <path
         d="m 1223.41,2876.5 c -3.17,-3.19 -4.63,-7.22 -4.82,-11.66 -0.08,-1.81 -0.15,-3.61 -0.22,-5.42 l 0.02,-0.01 0.01,-0.01 c -0.4,-10.64 -0.71,-21.7 -0.94,-33.82 l -0.06,-3.05 c -0.21,-11.51 -0.43,-23.39 -0.17,-35.11 l 0.26,-11.8 c 0.49,-21.28 0.98,-43.29 0.84,-64.93 l -0.11,-14.59 c -0.06,-9.71 -0.14,-19.42 -0.18,-29.13 -0.04,-7.79 -0.32,-15.69 -0.59,-23.33 -0.25,-6.82 -0.5,-13.88 -0.57,-20.82 l -0.01,-0.98 c 0.45,-8.55 7.88,-15.51 16.47,-15.51 8.21,0 15.01,6.18 16.27,14.04 h -0.02 l 0.2,2.45 c 0.09,7.54 0.36,15.19 0.62,22.6 0.17,4.82 0.35,9.66 0.47,14.5 0.2,7.7 0.2,15.53 0.21,23.09 0,4.41 0,8.81 0.03,13.21 0.19,19.92 -0.14,40.15 -0.44,59.72 -0.1,5.8 -0.18,11.6 -0.27,17.4 -0.05,4 -0.14,8.02 -0.24,12.03 -0.06,2.99 -0.13,6 -0.19,8.99 -0.1,6.44 0.03,12.97 0.17,19.29 l 0.08,4.07 c 0.28,13.86 0.57,27.42 1.09,40.88 0.07,2.08 0.15,4.16 0.23,6.24 0.39,8.99 -7.78,16.49 -16.48,16.49 -4.35,0 -8.57,-1.75 -11.66,-4.83"
         style="fill:#565148;fill-opacity:1;fill-rule:nonzero;stroke:none"
         id="path10302" />
      <path
         d="m 1296.66,2877.34 c -3.19,-3.19 -4.63,-7.21 -4.83,-11.66 -0.07,-1.56 -0.13,-3.13 -0.2,-4.7 l 0.01,-0.01 0.01,-0.01 c -0.51,-11.68 -1.02,-23.37 -1.43,-35.06 -0.32,-9.24 -0.46,-18.63 -0.59,-27.71 -0.05,-3.5 -0.1,-6.99 -0.15,-10.49 -0.4,-22.37 -0.39,-45.15 -0.39,-67.17 v -7.75 c 0,-11.73 0,-23.44 0,-35.16 v -17.59 -24.61 l -0.01,-3.6 c -0.03,-4.24 -0.05,-8.6 0.23,-12.89 0.17,-2.29 0.44,-4.57 0.86,-6.81 1.04,-5.51 6.33,-10.08 11.52,-11.51 5.89,-1.62 11.62,0.24 16.04,4.23 l 0.1,0.1 c 3.71,3.36 5.19,8.33 4.7,13.13 h -0.02 l -0.18,1.29 c -0.38,7.81 -0.35,15.77 -0.33,23.45 l 0.01,5.77 v 12.8 c 0,8.53 0,17.06 0,25.58 v 13.82 c 0,20.38 -0.01,41.45 0.1,62.17 0.09,16.21 0.31,32.86 0.64,49.5 0.32,15 1,30.24 1.66,44.99 l 0.18,3.36 c 0.07,1.63 0.14,3.25 0.21,4.88 0.41,8.99 -7.79,16.49 -16.48,16.49 -4.35,0 -8.58,-1.75 -11.66,-4.83"
         style="fill:#565148;fill-opacity:1;fill-rule:nonzero;stroke:none"
         id="path10304" />
      <path
         d="m 1192.77,2969.55 c -0.05,-4.28 -0.1,-8.55 -0.14,-12.84 l 0.02,-0.01 v -0.02 c -0.12,-14.14 -0.07,-25.7 0.16,-36.37 0.16,-7.42 0.31,-14.84 0.36,-22.26 l 0.03,-5.69 -0.02,-0.82 c 0.01,-1.54 0.02,-3.06 0.03,-4.6 0.01,-1.57 0.03,-3.15 0.06,-4.73 0.09,-6.17 1.23,-12.1 6.09,-16.41 3.35,-2.97 7.09,-4.83 11.66,-4.83 4.36,0 8.58,1.76 11.66,4.83 4.67,4.65 6.14,12.39 3.51,18.44 -0.04,2.76 -0.05,5.51 -0.06,8.27 h -0.01 l -0.01,0.54 c 0,2.46 -0.01,4.92 -0.04,7.38 -0.05,5.65 -0.16,11.29 -0.28,16.94 l -0.08,3.8 c -0.21,10.68 -0.25,22.05 -0.11,35.79 0.04,4.2 0.09,8.4 0.14,12.59 0.12,8.99 -7.59,16.49 -16.49,16.49 -9.08,0 -16.36,-7.5 -16.48,-16.49"
         style="fill:#565148;fill-opacity:1;fill-rule:nonzero;stroke:none"
         id="path10306" />
      <path
         d="m 1313.23,2969.34 c 0,-3.83 0,-7.67 0,-11.5 l 0.02,-0.01 0.01,-0.02 v -34.33 c 0,-7.27 -0.26,-14.67 -0.51,-21.81 -0.09,-2.58 -0.18,-5.16 -0.28,-7.76 h -0.01 c -0.09,-2.9 -0.16,-5.81 -0.2,-8.71 -0.13,-8.99 7.6,-16.48 16.48,-16.48 9.09,0 16.36,7.5 16.49,16.48 0.04,2.83 0.11,5.64 0.2,8.47 h -0.03 c 0.09,2.67 0.17,5.34 0.27,8 0.24,7.14 0.5,14.54 0.5,21.81 l 0.03,34.57 c 0,3.77 0,7.53 0,11.29 0,8.99 -7.51,16.49 -16.48,16.49 -8.99,0 -16.49,-7.5 -16.49,-16.49"
         style="fill:#565148;fill-opacity:1;fill-rule:nonzero;stroke:none"
         id="path10308" />
      <path
         d="m 1131.69,3131.11 c -1.35,-0.02 -2.74,-0.2 -4.08,-0.37 -2.55,-0.34 -5.22,-0.53 -7.71,-1.06 -6.98,-1.46 -13.8,-3.77 -20.09,-7.17 -7.08,-3.81 -13.61,-8.16 -19.82,-13.3 -3.21,-2.65 -6.11,-5.95 -8.68,-9.22 -1.95,-2.47 -3.9,-4.93 -5.73,-7.48 -2.88,-4 -4.94,-8.76 -6.59,-13.37 -2.29,-6.32 -3.87,-12.62 -4.9,-19.27 -1.17,-7.56 -1.81,-15.24 -1.88,-22.89 -0.1,-14.11 3.33,-27.78 9.17,-40.54 1.68,-3.66 3.39,-7.37 5.69,-10.68 2.95,-4.21 6.17,-8.08 9.88,-11.62 5.93,-5.67 12.56,-10.88 20.08,-14.24 1.32,-0.55 2.63,-1.1 3.94,-1.66 2.92,-0.79 5.84,-0.79 8.77,0 4.12,1.14 7.68,3.88 9.84,7.58 2.23,3.8 2.83,8.44 1.67,12.69 -1,3.66 -3.74,7.98 -7.3,9.73 h -0.06 l -0.23,0.11 c -3.1,1.39 -5.98,3.04 -8.83,5.04 -3.56,2.93 -6.57,5.84 -9.19,8.88 -2,3 -3.82,6.4 -5.74,10.68 -1.92,5.12 -3.36,10.32 -4.3,15.45 -0.63,7.15 -0.46,14.74 0.57,24.63 1.07,6.23 2.52,11.75 4.44,16.9 1.13,2.27 2.39,4.42 3.87,6.57 3.24,3.96 6.14,7.02 9.14,9.65 5.26,3.76 10.23,6.71 15.18,9.03 2.86,1.03 5.85,1.86 9.41,2.64 2.47,0.23 4.78,0.36 7.08,0.41 h 0.59 c 2.48,0 4.99,-0.26 7.42,-0.52 l 0.36,-0.02 c 3.6,-0.62 6.84,-1.47 9.92,-2.57 6.1,-2.96 12.36,-6.87 19.74,-12.31 6.86,-5.76 11.77,-10.55 15.94,-15.52 0.68,-1 1.34,-2.02 1.96,-3.07 2.39,-3.88 4.49,-7.93 6.65,-11.95 2.49,-4.65 4.97,-9.27 7.3,-13.99 3.66,-9.12 7.03,-18.38 9.8,-27.8 1.58,-5.42 2.38,-11.19 3.42,-16.72 1.18,-6.21 2.12,-12.49 3.11,-18.74 0.62,-4 4.23,-7.9 7.57,-9.85 3.81,-2.22 8.44,-2.84 12.7,-1.66 4.12,1.13 7.69,3.89 9.85,7.57 0.55,1.32 1.11,2.63 1.66,3.94 0.78,2.92 0.78,5.84 0,8.77 -0.33,2.13 -0.67,4.26 -1,6.38 h -0.03 l -0.32,2.07 0.01,0.06 c -1.79,11.08 -3.77,22.15 -6.94,32.92 -0.87,2.99 -2.09,5.93 -3.16,8.85 -1.14,3.08 -2.25,6.16 -3.42,9.22 -1.53,4.01 -3.05,8.06 -4.93,11.9 -1.42,2.93 -2.93,5.8 -4.45,8.67 -3.16,5.9 -6.25,11.85 -9.69,17.59 -2.86,4.79 -6.59,9.01 -10.31,13.14 -2.02,2.24 -4.24,4.39 -6.49,6.4 -12.36,10.98 -25.92,20.63 -41.51,26.43 -6.26,2.34 -13.29,2.81 -19.9,3.45 -2.15,0.21 -4.3,0.26 -6.45,0.26 -1,0 -2,-0.01 -3,-0.02"
         style="fill:#565148;fill-opacity:1;fill-rule:nonzero;stroke:none"
         id="path10310" />
      <path
         d="m 1385.8,3135.28 c -5.89,-0.99 -11.67,-2.54 -17.26,-4.6 -6.84,-2.51 -13.14,-6.12 -19.43,-9.75 -6.06,-3.5 -11.75,-7.39 -17.08,-11.96 -3.76,-3.23 -7.55,-6.49 -11.11,-9.96 -3.6,-3.51 -6.88,-7.31 -9.97,-11.27 -3.95,-5.06 -8.12,-10.05 -11.36,-15.59 -2.72,-4.64 -5.13,-9.47 -7.52,-14.28 -4.62,-9.36 -8.35,-19 -11.23,-28.98 v -0.08 c -0.42,-1.4 -0.81,-2.82 -1.19,-4.26 -1.15,-4.37 -1.81,-8.98 -2.45,-13.45 l -0.37,-2.56 c -0.83,-5.52 -1.55,-11.29 -2.25,-17.64 -0.2,-1.86 -0.39,-3.73 -0.57,-5.6 -0.41,-4.14 1.99,-8.83 4.82,-11.66 3.08,-3.08 7.31,-4.83 11.66,-4.83 4.36,0 8.57,1.75 11.66,4.83 3.32,3.32 4.39,7.14 4.82,11.66 0.43,4.54 0.97,9.07 1.48,13.59 0.85,5.99 1.69,12.03 3.23,17.87 1.64,6.21 3.62,12.28 5.91,18.27 0.87,1.91 1.78,3.81 2.7,5.71 l -0.04,-0.04 c 1.33,2.72 2.71,5.44 4.13,8.13 1.63,3.08 3.04,5.62 4.42,7.99 1.16,1.97 2.58,3.85 3.96,5.67 l 0.63,0.84 c 3.21,4.1 6.75,8.43 10.83,12.4 3.5,3.39 7.52,6.97 12.31,10.92 3.65,2.56 7.55,4.87 10.88,6.79 3.39,1.96 7.03,4.02 10.83,5.81 5.56,1.96 11.5,3.45 17.69,4.47 2.9,0.28 5.46,0.42 7.82,0.42 1.29,0 2.58,-0.04 3.88,-0.13 3.78,-0.71 7.28,-1.68 10.7,-2.96 5.32,-2.46 9.62,-4.88 13.56,-7.63 5.01,-4.24 9.39,-8.65 13.4,-13.48 1.8,-2.48 4.08,-5.78 5.88,-9.39 1.37,-3.87 2.41,-7.89 3.21,-12.34 0.68,-6.06 0.85,-10.75 0.54,-15.22 -0.66,-3.34 -1.62,-6.63 -2.95,-10.07 -3.43,-7.58 -6.82,-13.62 -10.64,-18.99 -2.05,-2.51 -4.1,-4.79 -6.25,-6.92 -1.79,-1.81 -3.65,-3.53 -5.62,-5.18 -2.76,-1.99 -5.63,-3.77 -8.74,-5.22 l -0.59,-0.24 c -5.69,0.01 -11.28,-2.88 -14.32,-8.09 -4.52,-7.71 -1.87,-18.09 5.9,-22.56 5.57,-3.21 11.51,-3.42 17.33,-1.07 2.91,1.18 5.83,2.35 8.7,3.65 5.92,2.71 11.22,6.94 16.13,11.12 9.78,8.32 17.59,19.08 23.5,30.41 3.35,6.48 6.4,13.31 8.47,20.32 1.18,4.01 1.59,8.36 2.03,12.49 0.33,2.99 0.24,6.01 0.06,9.01 -0.9,15.26 -4.02,30.24 -12.83,43.02 -8.04,11.66 -18.17,22.19 -30.25,29.71 -6.12,3.8 -12.99,6.86 -19.77,9.23 -6.09,2.13 -12.77,3.14 -19.19,3.51 l -2.69,0.08 c -5.81,0 -11.74,-0.96 -17.4,-1.92"
         style="fill:#565148;fill-opacity:1;fill-rule:nonzero;stroke:none"
         id="path10312" />
      <path
         d="m 1264.09,3090.92 c -6.79,-1.38 -13.33,-4.06 -19.08,-7.93 -6.94,-4.67 -12.42,-11.19 -16.56,-18.42 -3.53,-6.18 -5.53,-13.27 -6.88,-20.21 -1.28,-6.66 -1.91,-13.61 -2.22,-20.38 -0.45,-9.52 -0.26,-19.06 -0.1,-28.59 0.17,-8.99 7.39,-16.48 16.49,-16.48 7.79,0 14.73,5.77 16.2,13.25 l -0.01,0.07 c 0.2,1.04 0.28,2.1 0.26,3.16 -0.24,14.5 -0.34,26.59 0.96,39.06 0.79,4.52 1.81,8.54 3.14,12.29 0.89,1.71 1.88,3.35 3.01,5.04 1.1,1.24 2.26,2.42 3.47,3.5 1.25,0.79 2.58,1.55 3.95,2.24 1.5,0.52 3.03,0.95 4.55,1.3 l 1.27,0.02 h 0.01 l 1.41,-0.03 c 0.91,-0.21 1.81,-0.44 2.71,-0.72 l 1.73,-1.03 1.79,-1.78 0.86,-1.41 c 0.43,-1.41 0.8,-2.94 1.1,-4.69 0.37,-4.25 0.36,-8.6 -0.05,-12.93 -0.97,-2.37 -1.41,-4.93 -1.26,-7.44 l -0.02,-0.07 c 0.07,-1.07 0.24,-2.14 0.53,-3.19 2.43,-8.82 11.56,-13.68 20.28,-11.52 2.82,0.71 5.48,2.25 7.53,4.3 2.43,2.44 3.24,4.77 4.48,7.89 l 0.4,2.15 c 0.32,1.83 0.55,3.8 0.77,5.6 0.38,2.97 0.6,5.97 0.59,8.97 -0.01,2.26 -0.09,4.53 -0.33,6.77 -0.42,3.67 -0.79,7.53 -1.7,11.13 -2.09,8.18 -6.91,15.84 -13.53,21.11 -1.93,1.54 -3.8,2.99 -5.89,4.26 -1.89,1.13 -3.93,1.9 -5.96,2.73 -1.32,0.55 -2.59,1.05 -3.99,1.37 -2.52,0.57 -5.03,0.91 -7.61,1.23 -1.38,0.17 -2.76,0.26 -4.12,0.26 -2.74,0 -5.46,-0.33 -8.18,-0.88"
         style="fill:#565148;fill-opacity:1;fill-rule:nonzero;stroke:none"
         id="path10314" />
      <path
         d="m 1386.62,3071.05 c -1.98,-0.03 -3.99,-0.33 -5.93,-0.64 l -2.21,-0.32 c -5.29,-0.72 -10.82,-2.29 -16.9,-4.81 l -2.14,-0.9 c -3.15,-1.29 -6.4,-2.64 -9.47,-4.21 -2.61,-1.36 -5.41,-2.92 -8.53,-4.78 -6.63,-3.96 -12.31,-7.76 -17.22,-11.52 -1.38,-1.07 -2.74,-2.16 -4.06,-3.28 -3.63,-3.07 -6.61,-7.08 -9.65,-10.74 -3.19,-3.85 -6.19,-7.92 -9.08,-12 -5.45,-7.73 -9.81,-16.01 -14.08,-24.43 -2.05,-4.04 -2.89,-8.24 -1.66,-12.7 1.14,-4.12 3.88,-7.7 7.57,-9.86 7.41,-4.33 18.49,-2.1 22.56,5.92 2.48,4.87 4.85,9.91 7.72,14.57 2.74,4.48 5.59,8.77 8.63,13.07 3.63,4.69 7.38,9.35 11.81,13.27 4.39,3.16 8.99,6.03 13.56,8.93 3.97,2.51 8.12,4.68 12.36,6.67 5.09,2.02 10.21,3.7 15.59,4.72 1.25,0.07 2.5,0.1 3.75,0.07 1.25,-0.31 2.48,-0.69 3.71,-1.11 1.58,-0.76 3.13,-1.57 4.64,-2.5 0.99,-0.89 1.92,-1.83 2.82,-2.82 l 1.47,-2.38 c 0.3,-1.04 0.56,-2.08 0.79,-3.15 0.19,-2.66 0.15,-5.29 -0.06,-7.96 -0.7,-3.79 -1.75,-7.41 -3.11,-11.02 -1.94,-4.16 -4.21,-8.18 -6.8,-11.97 -2.54,-3.19 -4.16,-6.55 -4.16,-10.84 0,-4.36 1.75,-8.58 4.83,-11.66 3.08,-3.08 7.31,-4.83 11.66,-4.83 4.05,0 8.94,1.64 11.65,4.83 4.6,5.42 8.59,11.69 11.49,18.2 2.14,4.81 4.2,9.67 5.48,14.75 l -0.03,-0.03 c 0.41,1.6 0.72,3.18 0.94,4.7 0.63,4.3 1.15,8.2 1.27,12.27 0.12,4.42 -0.75,9 -1.51,13.03 -0.9,4.82 -3.2,9.79 -6.63,14.35 l -0.6,0.8 c -1.25,1.68 -2.55,3.4 -4,4.93 -3.26,3.45 -7.21,6.45 -11.74,8.93 -3.24,1.77 -6.81,3.09 -10.25,4.38 l -0.61,0.23 c -3.34,1.25 -7.45,1.85 -12.53,1.85 l -1.34,-0.01"
         style="fill:#565148;fill-opacity:1;fill-rule:nonzero;stroke:none"
         id="path10316" />
      <path
         d="m 1161.62,3071.04 c -7.69,0 -14.41,-0.9 -20.54,-2.78 -3.93,-1.21 -8.13,-3.08 -12.49,-5.58 -2.43,-1.39 -4.97,-3.52 -5.94,-4.37 -2.15,-1.87 -3.84,-4.19 -5.48,-6.44 l -0.5,-0.68 c -0.92,-1.27 -1.62,-2.75 -2.29,-4.17 l -0.54,-1.12 c -1.09,-2.24 -2.08,-4.72 -2.86,-7.19 -0.47,-1.5 -0.69,-3.1 -0.92,-4.82 -0.36,-2.65 -0.69,-5.23 -0.83,-7.93 -0.35,-6.44 0.49,-13.48 2.4,-20.31 1.47,-5.19 3.44,-10.37 6,-15.83 0.64,-1.35 1.31,-2.69 2,-4.02 3.09,-5.97 7.19,-11.25 11.54,-16.36 4.33,-5.09 9.15,-9.94 14.83,-13.52 h 0.04 l 1.85,-1.1 c 2.52,-1.41 5.38,-2.17 8.27,-2.17 3.91,0 7.68,1.36 10.66,3.82 h 0.03 c 1.39,1.16 2.61,2.58 3.59,4.24 4.47,7.65 1.91,18.16 -5.92,22.56 l -2.32,1.43 c -3.41,2.98 -6.44,6.42 -9.31,9.94 -2.76,3.91 -5.01,8.08 -7.07,12.41 -1.53,4.03 -2.71,8.15 -3.51,12.4 -0.2,2.81 -0.18,5.58 -0.01,8.4 0.21,1.02 0.48,2.03 0.79,3.02 0.53,1.04 1.09,2.05 1.7,3.05 1.16,0.72 2.36,1.39 3.6,2 2.42,0.87 4.85,1.54 7.37,2.05 3.2,0.21 6.39,0.17 9.6,-0.05 2.92,-0.55 5.75,-1.3 8.54,-2.31 6.12,-3.04 11.65,-7.13 17.1,-11.27 5,-4.14 9.62,-8.54 13.82,-13.5 1.07,-1.56 2.01,-3.14 2.87,-4.86 2.92,-7.65 4.92,-15.63 6.87,-23.58 2.14,-8.73 11.81,-13.85 20.28,-11.52 8.84,2.43 13.64,11.56 11.52,20.29 -1.76,7.17 -3.71,14.22 -6.01,21.23 -1.48,4.52 -3.42,8.98 -5.69,13.16 -1.34,2.45 -3.54,4.97 -5.26,7.09 -1.04,1.27 -2.07,2.55 -3.19,3.76 -2.19,2.38 -4.4,4.75 -6.82,6.91 -5.45,4.88 -11.31,9.35 -17.29,13.56 -3.42,2.4 -6.81,4.71 -10.48,6.65 l 0.02,-0.03 -2.56,1.26 c -8.93,4.13 -17.98,6.25 -26.93,6.28 h -0.53"
         style="fill:#565148;fill-opacity:1;fill-rule:nonzero;stroke:none"
         id="path10318" />
      <path
         d="m 1184.17,2858.19 c -5.81,-0.3 -11.72,-0.74 -17.43,-1.16 -6.8,-0.5 -13.83,-1.03 -20.77,-1.31 -3.68,-0.16 -7.36,-0.28 -11.04,-0.4 -2.95,-0.1 -5.89,-0.2 -8.83,-0.31 l -5.1,-0.22 c -4.63,-0.2 -9.4,-0.41 -14.11,-0.44 -3.91,-0.04 -7.82,-0.06 -11.74,-0.06 h -1.95 l -0.3,-5.17 c -0.43,-7.92 -0.88,-16.12 -1.12,-24.18 -0.35,-11.88 -0.44,-23.69 -0.48,-33.71 -0.04,-11.99 -0.24,-24.17 -0.43,-35.95 -0.21,-12.82 -0.42,-26.09 -0.45,-39.13 -0.02,-8.49 -0.02,-17 -0.02,-25.49 l -0.01,-12.75 c 0,-12.36 0.48,-22.32 1.48,-31.34 0.4,-2.24 0.85,-4.08 1.4,-5.81 0.74,-1.43 1.57,-2.82 2.52,-4.23 1.53,-1.78 3.12,-3.39 4.87,-4.93 1.52,-0.97 3.13,-1.85 4.95,-2.73 3.68,-1.24 7.65,-2.2 12.16,-2.94 12.27,-1.37 24.75,-1.8 36.39,-2.07 5.58,-0.13 11.17,-0.17 16.76,-0.22 7.32,-0.06 14.9,-0.12 22.34,-0.39 6.57,-0.23 13.23,-0.74 19.67,-1.22 l 3.94,-0.3 0.01,1.09 c 0.06,6.95 0.32,14 0.57,20.82 0.27,7.64 0.55,15.54 0.59,23.33 0.04,9.71 0.12,19.42 0.19,29.13 l 0.1,14.59 c 0.14,21.64 -0.35,43.64 -0.84,64.93 l -0.26,11.8 c -0.25,11.72 -0.04,23.6 0.17,35.11 l 0.06,3.05 c 0.23,12.12 0.53,23.18 0.94,33.82 l -0.01,0.01 -0.02,0.01 c -10.86,-0.22 -22.04,-0.62 -34.2,-1.23"
         style="fill:#bc4749;fill-opacity:1;fill-rule:nonzero;stroke:none"
         id="path10320" />
      <path
         d="m 1418.7,2862.78 c -1.89,-0.04 -3.78,-0.09 -5.67,-0.16 -4.72,-0.19 -9.44,-0.4 -14.17,-0.62 -7.58,-0.34 -15.42,-0.7 -23.13,-0.91 -10.16,-0.3 -20.69,-0.44 -31.3,-0.44 -2.63,0 -5.25,0.01 -7.88,0.03 -3.98,0.02 -7.98,0.06 -11.96,0.12 l -0.18,-3.36 c -0.66,-14.75 -1.34,-29.99 -1.66,-44.99 -0.33,-16.64 -0.55,-33.29 -0.64,-49.5 -0.11,-20.72 -0.1,-41.79 -0.1,-62.17 v -13.82 c 0,-8.52 0,-17.05 0,-25.58 v -12.8 l -0.01,-5.77 c -0.02,-7.68 -0.05,-15.64 0.33,-23.45 l 0.18,-1.29 c 6.57,0.08 13.04,0.31 19.29,0.65 2.68,0.16 5.36,0.26 8.06,0.37 3.23,0.12 6.47,0.25 9.71,0.46 l 4.22,0.29 c 4.67,0.33 9.5,0.67 14.25,0.8 2.68,0.09 5.37,0.15 8.06,0.2 8.14,0.17 16.55,0.35 24.78,1.11 2.03,0.4 3.93,0.9 5.8,1.53 1.57,0.8 2.97,1.62 4.29,2.49 l 0.82,0.82 c 1.18,1.79 2.19,3.58 3.1,5.46 1.35,3.79 2.34,7.91 3.14,12.98 1.36,12.08 1.64,24.4 1.84,35.98 0.19,11.9 -0.02,24.55 -0.68,39.82 -0.27,6.09 -0.6,12.16 -0.93,18.24 -0.33,6.08 -0.67,12.16 -0.92,18.24 -0.5,11.19 -0.79,23.24 -0.9,36.84 -0.12,13.83 -0.01,27.87 0.1,41.45 0.07,9.08 0.15,18.15 0.15,27.22 v 0.02 l -0.02,0.01 c -2.66,-0.13 -5.31,-0.2 -7.97,-0.27"
         style="fill:#bc4749;fill-opacity:1;fill-rule:nonzero;stroke:none"
         id="path10322" />
      <path
         d="m 1190.29,2956.69 c -7.69,-0.03 -15.64,-0.06 -23.47,-0.23 -2.98,-2.46 -6.75,-3.81 -10.66,-3.81 -2.89,0 -5.75,0.75 -8.27,2.16 l -1.85,1.11 c -7.22,-0.18 -14.42,-0.35 -21.63,-0.47 -6.52,-0.11 -13.03,-0.14 -19.55,-0.18 -5.16,-0.03 -10.32,-0.06 -15.48,-0.11 -4.12,-0.05 -8.25,-0.19 -12.37,-0.33 l -4.79,-0.15 -0.7,-0.03 c -3.05,-0.08 -6.11,-0.17 -9.17,-0.36 -0.69,-7.41 -1.19,-14.94 -1.67,-22.21 -0.32,-4.9 -0.64,-9.8 -1.03,-14.69 -0.43,-5.68 -0.88,-12.29 -0.94,-18.89 -0.02,-3.03 -0.03,-6.61 0.09,-10.18 5.86,-0.58 11.66,-0.78 18.58,-0.91 7.59,-0.12 15.29,-0.19 22.88,-0.2 h 0.79 c 11.79,0 23.79,0.52 35.41,1.03 l 7.14,0.3 c 7.13,0.3 14.37,0.82 21.36,1.33 5.94,0.43 12.07,0.88 18.12,1.17 3.37,0.18 6.74,0.34 10.1,0.48 l 0.02,0.84 -0.03,5.69 c -0.05,7.42 -0.2,14.84 -0.36,22.26 -0.23,10.67 -0.28,22.23 -0.16,36.37 v 0.02 l -0.02,0.01 -2.34,-0.02"
         style="fill:#bc4749;fill-opacity:1;fill-rule:nonzero;stroke:none"
         id="path10324" />
      <path
         d="m 1351.15,2958.07 -4.95,-0.02 -0.03,-34.57 c 0,-7.27 -0.26,-14.67 -0.5,-21.81 -0.1,-2.66 -0.18,-5.33 -0.27,-8 l 4.13,-0.03 c 9.07,0 16.98,0.1 24.2,0.3 8.07,0.23 16.26,0.6 24.18,0.95 4.61,0.21 9.22,0.42 13.82,0.59 2.09,0.09 4.17,0.14 6.26,0.19 3.68,0.09 7.48,0.19 11.21,0.45 3.98,0.28 8.18,0.7 12.85,1.29 2.39,0.34 4.76,0.7 7.14,1.14 2.46,0.45 5.05,1.18 7.93,2.24 l 0.69,0.36 c 0.19,3.5 0.02,7.03 -0.14,10.45 l -0.13,2.8 c -0.2,5.01 -0.36,10.02 -0.47,15.02 -0.12,4.94 -0.19,9.88 -0.22,14.82 -0.03,1.76 -0.01,3.52 0,5.29 l 0.02,2.28 c -4.04,1.43 -8.48,2.52 -14.02,3.44 -14.66,1.72 -29.71,2.08 -44.26,2.44 l -0.39,0.01 c -10.77,0.26 -22.26,0.39 -36.19,0.39 -3.61,0 -7.24,-0.01 -10.86,-0.02"
         style="fill:#bc4749;fill-opacity:1;fill-rule:nonzero;stroke:none"
         id="path10326" />
      <path
         d="m 1263.95,2957.34 c -12.79,-0.13 -25.57,-0.27 -38.35,-0.38 -0.14,-13.74 -0.1,-25.11 0.11,-35.79 l 0.08,-3.8 c 0.12,-5.65 0.23,-11.29 0.28,-16.94 0.03,-2.46 0.04,-4.92 0.04,-7.38 l 0.01,-0.54 c 4.67,0.07 9.31,0.18 13.97,0.3 6.47,0.16 12.92,0.32 19.39,0.43 4.8,0.08 9.6,0.2 14.4,0.31 7.49,0.19 15.23,0.38 22.85,0.4 l 2.67,0.01 c 4.35,0 8.71,-0.02 13.07,-0.05 0.1,2.6 0.19,5.18 0.28,7.76 0.25,7.14 0.51,14.54 0.51,21.81 v 34.33 l -0.01,0.02 -0.02,0.01 c -16.43,-0.15 -32.85,-0.32 -49.28,-0.5"
         style="fill:#a8b99c;fill-opacity:1;fill-rule:nonzero;stroke:none"
         id="path10328" />
      <path
         d="m 1276.03,2860.66 c -5.34,-0.13 -10.69,-0.26 -16.03,-0.33 -2.87,-0.05 -5.75,-0.09 -8.63,-0.16 -0.55,-13.97 -0.85,-28.06 -1.14,-42.45 l -0.08,-4.07 c -0.14,-6.32 -0.27,-12.85 -0.17,-19.29 0.06,-2.99 0.13,-6 0.19,-8.99 0.1,-4.01 0.19,-8.03 0.24,-12.03 0.09,-5.8 0.17,-11.6 0.27,-17.4 0.3,-19.57 0.63,-39.8 0.44,-59.72 -0.03,-4.4 -0.03,-8.8 -0.03,-13.21 -0.01,-7.56 -0.01,-15.39 -0.21,-23.09 -0.12,-4.84 -0.3,-9.68 -0.47,-14.5 -0.26,-7.41 -0.53,-15.06 -0.62,-22.6 l -0.2,-2.45 c 6.89,-0.2 12.66,-0.4 18.51,-0.78 7.34,-0.47 14.49,-0.86 21.24,-1.11 -0.32,4.43 -0.29,8.96 -0.26,13.34 l 0.01,3.6 v 24.61 17.59 c 0,11.72 0,23.43 0,35.16 v 7.75 c 0,22.02 -0.01,44.8 0.39,67.17 0.05,3.5 0.1,6.99 0.15,10.49 0.13,9.08 0.27,18.47 0.59,27.71 0.41,11.69 0.92,23.38 1.43,35.06 l -0.01,0.01 -0.01,0.01 c -5.21,-0.07 -10.4,-0.2 -15.6,-0.32"
         style="fill:#a8b99c;fill-opacity:1;fill-rule:nonzero;stroke:none"
         id="path10330" />
      <path
         d="m 1272.54,3058.84 -1.27,-0.02 c -1.52,-0.35 -3.05,-0.78 -4.55,-1.3 -1.37,-0.69 -2.7,-1.45 -3.95,-2.24 -1.21,-1.08 -2.37,-2.26 -3.47,-3.5 -1.13,-1.69 -2.12,-3.33 -3.01,-5.04 -1.33,-3.75 -2.35,-7.77 -3.14,-12.29 -1.3,-12.47 -1.2,-24.56 -0.96,-39.06 0.02,-1.06 -0.06,-2.12 -0.26,-3.16 l 0.32,-2.06 c 7.44,0.04 14.86,0.13 22.27,0.23 0.72,6.54 1.46,12.48 2.31,18.14 l 0.37,2.56 c 0.64,4.47 1.3,9.08 2.45,13.45 0.38,1.44 0.77,2.86 1.19,4.26 -0.15,2.51 0.29,5.07 1.26,7.44 0.41,4.33 0.42,8.68 0.05,12.93 -0.3,1.75 -0.67,3.28 -1.1,4.69 l -0.86,1.41 -1.79,1.78 -1.73,1.03 c -0.9,0.28 -1.8,0.51 -2.71,0.72 l -1.41,0.03 h -0.01"
         style="fill:#a8b99c;fill-opacity:1;fill-rule:nonzero;stroke:none"
         id="path10332" />
      <path
         d="m 1395.93,3103.72 c -6.19,-1.02 -12.13,-2.51 -17.69,-4.47 -3.8,-1.79 -7.44,-3.85 -10.83,-5.81 -3.33,-1.92 -7.23,-4.23 -10.88,-6.79 -4.79,-3.95 -8.81,-7.53 -12.31,-10.92 -4.08,-3.97 -7.62,-8.3 -10.83,-12.4 l -0.63,-0.84 c -1.38,-1.82 -2.8,-3.7 -3.96,-5.67 -1.38,-2.37 -2.79,-4.91 -4.42,-7.99 -1.42,-2.69 -2.8,-5.41 -4.13,-8.13 5.76,4.79 12.68,9.61 21.19,14.69 3.12,1.86 5.92,3.42 8.53,4.78 3.07,1.57 6.32,2.92 9.47,4.21 l 2.14,0.9 c 6.08,2.52 11.61,4.09 16.9,4.81 l 2.21,0.32 c 1.94,0.31 3.95,0.61 5.93,0.64 l 1.34,0.01 c 5.08,0 9.19,-0.6 12.53,-1.85 l 0.61,-0.23 c 3.44,-1.29 7.01,-2.61 10.25,-4.38 4.53,-2.48 8.48,-5.48 11.74,-8.93 1.45,-1.53 2.75,-3.25 4,-4.93 l 0.6,-0.8 c 3.43,-4.56 5.73,-9.53 6.63,-14.35 0.76,-4.03 1.63,-8.61 1.51,-13.03 -0.12,-4.07 -0.64,-7.97 -1.27,-12.27 -0.22,-1.52 -0.53,-3.1 -0.94,-4.7 2.69,2.52 5.2,5.26 7.71,8.34 3.82,5.37 7.21,11.41 10.64,18.99 1.33,3.44 2.29,6.73 2.95,10.07 0.31,4.47 0.14,9.16 -0.54,15.22 -0.8,4.45 -1.84,8.47 -3.21,12.34 -1.8,3.61 -4.08,6.91 -5.88,9.39 -4.01,4.83 -8.39,9.24 -13.4,13.48 -3.94,2.75 -8.24,5.17 -13.56,7.63 -3.42,1.28 -6.92,2.25 -10.7,2.96 -1.3,0.09 -2.59,0.13 -3.88,0.13 -2.36,0 -4.92,-0.14 -7.82,-0.42"
         style="fill:#a8b99c;fill-opacity:1;fill-rule:nonzero;stroke:none"
         id="path10334" />
      <path
         d="m 1135.29,3098.23 c -2.3,-0.05 -4.61,-0.18 -7.08,-0.41 -3.56,-0.78 -6.55,-1.61 -9.41,-2.64 -4.95,-2.32 -9.92,-5.27 -15.18,-9.03 -3,-2.63 -5.9,-5.69 -9.14,-9.65 -1.48,-2.15 -2.74,-4.3 -3.87,-6.57 -1.92,-5.15 -3.37,-10.67 -4.44,-16.9 -1.03,-9.89 -1.2,-17.48 -0.57,-24.63 0.94,-5.13 2.38,-10.33 4.3,-15.45 1.92,-4.28 3.74,-7.68 5.74,-10.68 2.62,-3.04 5.63,-5.95 9.19,-8.88 2.85,-2 5.73,-3.65 8.83,-5.04 l 0.23,-0.11 4.47,0.06 c -2.92,6.02 -5.12,11.68 -6.73,17.35 -1.91,6.83 -2.75,13.87 -2.4,20.31 0.14,2.7 0.47,5.28 0.83,7.93 0.23,1.72 0.45,3.32 0.92,4.82 0.78,2.47 1.77,4.95 2.86,7.19 l 0.54,1.12 c 0.67,1.42 1.37,2.9 2.29,4.17 l 0.5,0.68 c 1.64,2.25 3.33,4.57 5.48,6.44 0.97,0.85 3.51,2.98 5.94,4.37 4.36,2.5 8.56,4.37 12.49,5.58 6.13,1.88 12.85,2.78 20.54,2.78 h 0.53 c 8.95,-0.03 18,-2.15 26.93,-6.28 l 2.56,-1.26 c -0.75,1.3 -1.54,2.56 -2.38,3.79 -4.17,4.97 -9.08,9.76 -15.94,15.52 -7.38,5.44 -13.64,9.35 -19.74,12.31 -3.08,1.1 -6.32,1.95 -9.92,2.57 l -0.36,0.02 c -2.43,0.26 -4.94,0.52 -7.42,0.52 h -0.59"
         style="fill:#a8b99c;fill-opacity:1;fill-rule:nonzero;stroke:none"
         id="path10336" />
      <g
         id="g10338">
        <g
           id="g10340"
           clip-path="url(#clipPath10344)">
          <path
             d="m 1111.55,2716.23 h 31.7305 v 101.871 H 1111.55 Z"
             style="fill:#c87072;fill-opacity:1;fill-rule:nonzero;stroke:none"
             id="path10346" />
        </g>
      </g>
      <path
         d="m 1089.17,2897.18 c -3.86,0 -7.63,1.55 -10.36,4.29 -2.93,2.93 -3.93,6.35 -4.3,10.36 -0.16,1.81 -0.32,3.63 -0.47,5.44 -0.32,3.7 1.74,7.82 4.29,10.36 2.74,2.74 6.49,4.29 10.36,4.29 3.88,0 7.63,-1.55 10.36,-4.29 2.93,-2.92 3.95,-6.36 4.3,-10.36 0.15,-1.81 0.31,-3.63 0.47,-5.44 0.34,-3.69 -1.75,-7.83 -4.29,-10.36 -2.73,-2.74 -6.49,-4.29 -10.36,-4.29"
         style="fill:#c87072;fill-opacity:1;fill-rule:nonzero;stroke:none"
         id="path10348" />
      <path
         d="m 1129.23,2659.45 c -8.08,0 -14.56,6.66 -14.66,14.65 -0.05,3.88 -0.05,7.77 -0.05,11.66 0,7.99 6.66,14.65 14.66,14.65 7.98,0 14.65,-6.66 14.65,-14.65 0,-3.89 0,-7.78 0.05,-11.66 0.1,-7.99 -6.75,-14.65 -14.65,-14.65"
         style="fill:#c87072;fill-opacity:1;fill-rule:nonzero;stroke:none"
         id="path10350" />
    </g>
  </g>
</svg>
