<?xml version="1.0" encoding="UTF-8" standalone="no"?>
<!-- Created with Inkscape (http://www.inkscape.org/) -->

<svg
   version="1.1"
   id="svg28611"
   width="128.54846"
   height="128.77853"
   viewBox="0 0 128.54846 128.77853"
   sodipodi:docname="1469336_203387-OZE7CT-812.eps"
   xmlns:inkscape="http://www.inkscape.org/namespaces/inkscape"
   xmlns:sodipodi="http://sodipodi.sourceforge.net/DTD/sodipodi-0.dtd"
   xmlns="http://www.w3.org/2000/svg"
   xmlns:svg="http://www.w3.org/2000/svg">
  <defs
     id="defs28615" />
  <sodipodi:namedview
     id="namedview28613"
     pagecolor="#ffffff"
     bordercolor="#000000"
     borderopacity="0.25"
     inkscape:showpageshadow="2"
     inkscape:pageopacity="0.0"
     inkscape:pagecheckerboard="0"
     inkscape:deskcolor="#d1d1d1"
     showgrid="false" />
  <g
     id="g28619"
     inkscape:groupmode="layer"
     inkscape:label="Page 1"
     transform="matrix(1.3333333,0,0,-1.3333333,-1559.5384,563.32769)">
    <g
       id="g28621"
       transform="scale(0.1)">
      <g
         id="g50178"
         transform="translate(15521.445,6409.563)">
        <path
           d="m -2989.3162,-2731.8504 c 7.37,117.23 -14.7,236.21 -63.62,343 -14.4,31.43 -39.31,66.49 -73.67,62.74 -26.69,-2.92 -44.43,-28.43 -56.98,-52.16 -61.32,-115.86 -87.47,-250.04 -74.14,-380.44 88.85,5.11 179.56,21.75 268.41,26.86"
           style="fill:#f9c857;fill-opacity:1;fill-rule:nonzero;stroke:none"
           id="path28665" />
        <path
           d="m -3447.2662,-2830.2104 c -7.77,11.25 -19.2,13.38 -30.93,14.46 -16.41,1.49 -29.35,-10.07 -31.17,-26.7 -0.83,-7.58 1.76,-12.04 8.54,-15.34 12.54,-6.11 25.15,-7.78 39.15,-5.77 8.04,1.14 13.12,3.07 16.39,10.51 3.7,8.43 4.25,16.15 -1.98,22.84"
           style="fill:#e1ebe7;fill-opacity:1;fill-rule:nonzero;stroke:none"
           id="path28827" />
        <path
           d="m -3165.4562,-2319.5804 v -0.01 c 0,-0.01 0,-0.01 0,-0.01 v 0.02"
           style="fill:#e1ebe7;fill-opacity:1;fill-rule:nonzero;stroke:none"
           id="path28853" />
        <path
           d="m -3474.3062,-2367.4804 c -0.01,-0.01 -0.15,-0.86 -0.15,-0.9 0.04,0.3 0.08,0.61 0.12,0.91 0.01,0 0.02,-0.01 0.03,-0.01 z m -14.47,60.6 c -15.61,-4.19 -5.86,-23.67 -18.62,-29.15 -0.7,-0.31 -1.16,-2.31 -0.94,-3.34 0.24,-1.1 1.26,-2.34 2.28,-2.88 4.3,-2.33 6.33,-5.93 7.75,-10.56 3.56,-11.58 12.34,-15.82 23.84,-15.6 v 0 c 1.78,-0.27 3.56,-0.55 5.34,-0.83 l 0.13,0.76 c 0.02,0.02 0.05,0.03 0.08,0.04 -0.06,-0.26 -0.14,-0.53 -0.21,-0.8 4.84,-2.63 9.55,-2.5 14.11,0.68 7.09,-1.45 10.98,2.48 13.42,8.33 6.48,15.48 -4.69,43.29 -19.51,52.16 -9.58,5.74 -18.01,3.78 -27.67,1.19"
           style="fill:#e1ebe7;fill-opacity:1;fill-rule:nonzero;stroke:none"
           id="path28865" />
        <path
           d="m -3674.4262,-2578.5004 v 0 c 0.02,-0.01 0.76,-0.18 0.77,-0.18 -0.27,0.05 -0.53,0.09 -0.8,0.14 0.01,0.01 0.02,0.03 0.03,0.04 z m 0.78,-0.19 v 0.01 c 0.28,1.8 0.56,3.6 0.84,5.41 l -0.68,0.06 c -0.01,0.01 -0.01,0.01 -0.01,0.01 0.23,-0.02 0.46,-0.05 0.69,-0.07 -0.55,8.06 -0.04,16.79 -10.32,19.61 -10.22,2.81 -18.8,1.23 -24.02,-9.36 -2.17,-4.38 -8.36,-6.21 -8.06,-12.29 v 0 c -0.28,-1.8 -0.57,-3.6 -0.85,-5.39 l 0.53,-0.08 v 0 c 0.01,-0.02 0.02,-0.04 0.03,-0.06 -0.19,0.05 -0.38,0.09 -0.56,0.14 -3.6,-13.98 -0.13,-28.26 -1.91,-42.32 -0.34,-2.66 0.1,-5.38 3.16,-6.18 2.66,-0.68 5.11,0.34 6.8,2.61 11.41,15.31 22.8,30.63 34.16,45.99 0.33,0.44 0.14,1.26 0.2,1.91"
           style="fill:#e1ebe7;fill-opacity:1;fill-rule:nonzero;stroke:none"
           id="path28899" />
        <path
           d="m -3174.5962,-3050.2404 c 0,-0.06 -0.02,-0.11 -0.02,-0.17 v -0.02 l 0.02,0.19"
           style="fill:#e1ebe7;fill-opacity:1;fill-rule:nonzero;stroke:none"
           id="path28951" />
        <path
           d="m -3309.1562,-2309.1804 z m -4.78,6.18 c -1.01,-0.76 -2.02,-1.51 -3.03,-2.26 1.98,-2.54 4.25,-4.49 7.79,-3.93 1.83,-0.26 3.65,-0.53 5.47,-0.85 1.98,-2.56 4.26,-4.5 7.82,-3.9 v 0 0 0 c 0,0 -0.02,0.02 -0.03,0.02 8.05,-2.05 14.63,-7.05 21.09,-11.67 1.57,1.67 3.15,2.57 3.16,3.49 0.14,10.36 -19.19,38.03 -28.4,40.47 -3.01,0.8 -6.37,0.84 -9.5,0.54 -9.44,-0.94 -10.25,-5.99 -5.82,-13.22 l 0.01,-0.04 c -0.06,-1.85 -0.44,-3.65 -0.75,-5.46 0.74,-1.06 1.48,-2.12 2.19,-3.19"
           style="fill:#e1ebe7;fill-opacity:1;fill-rule:nonzero;stroke:none"
           id="path28961" />
        <path
           d="m -3191.6562,-3043.2404 c -2.82,-2.64 -6.05,-4.83 -8.92,-7.4 -5.89,-5.31 -3.88,-11.92 -2.3,-18.07 1.78,-6.93 6.98,-8.61 13.51,-7.1 4.34,-1.91 6.41,-0.43 6.26,4.33 v 0 c 0.86,0.91 1.83,1.71 2.89,2.37 4.74,3.31 9.52,6.6 4.9,13.32 0.33,1.78 0.63,3.56 0.7,5.37 v -0.01 0.02 0 c -0.27,1.49 -0.63,2.74 -1.03,3.89 -3.58,13.22 -5.59,13 -16.01,3.28"
           style="fill:#e1ebe7;fill-opacity:1;fill-rule:nonzero;stroke:none"
           id="path28995" />
        <path
           d="m -3440.0462,-2560.5604 c 2.5,2.2 4.08,5.73 1.05,8.45 -3.8,3.43 -8.45,7.25 -13.67,3.15 -3.41,-2.69 0.08,-5.79 1.29,-8.23 3.14,-4.18 6.41,-7.64 11.33,-3.37"
           style="fill:#e1ebe7;fill-opacity:1;fill-rule:nonzero;stroke:none"
           id="path29039" />
        <path
           d="m -3117.7562,-2765.5104 c -1.5,-3.21 -0.3,-5.93 1.54,-8.54 2.31,-3.1 4.61,-6.2 6.92,-9.3 6.22,-1.91 9.33,0.41 9.41,6.89 v 0 0 0 c 0.86,8.65 -3.11,13.77 -11.5,15.67 v 0 c -0.8,0.97 -1.56,1.94 -2.3,2.96 -4.59,1.87 -6.66,0.35 -6.19,-4.59 v 0 0 c 0.75,-1 1.45,-2.02 2.12,-3.09"
           style="fill:#e1ebe7;fill-opacity:1;fill-rule:nonzero;stroke:none"
           id="path29041" />
        <path
           d="m -3253.7462,-2652.9204 c 0,-0.01 -0.01,-0.01 -0.02,-0.02 v 0 c -0.01,0 -0.79,0.2 -0.83,0.21 0.28,-0.06 0.57,-0.12 0.85,-0.19 z m 5.27,-34.47 v 0 c 1.8,-0.25 3.61,-0.5 5.41,-0.74 3.23,-1.4 5.99,-0.23 8.64,1.54 l 0.02,0.15 v 0 0 c -0.01,-0.05 -0.01,-0.1 -0.02,-0.15 4.83,-1.89 9.35,0.59 12.8,2.69 10.07,6.14 17.61,14.52 18.14,27.34 0.4,9.74 -5.39,14.93 -12.84,19.75 -10.02,6.48 -18.6,-1.09 -27.81,-1.91 -7.99,-0.71 -9.57,-7.38 -10.48,-14 v 0 c -8.13,-15.92 -6.31,-26.19 6.14,-34.67"
           style="fill:#e1ebe7;fill-opacity:1;fill-rule:nonzero;stroke:none"
           id="path29053" />
        <path
           d="m -3066.7562,-2854.1504 c 8.98,-1.52 13.84,5.3 19.24,10.19 4.5,4.07 1.84,8.12 -2.85,10.36 -3.77,1.79 -7.42,0.37 -10.78,-1.71 v 0 c -6.11,1.61 -9.27,-0.76 -9.53,-7.05 v 0 c -0.27,-1.82 -0.55,-3.64 -0.82,-5.44 -1.55,-4.45 -0.03,-6.62 4.74,-6.35"
           style="fill:#e1ebe7;fill-opacity:1;fill-rule:nonzero;stroke:none"
           id="path29237" />
        <path
           d="m -3584.8862,-2249.3604 c -0.4,-0.35 0.46,-2.16 0.74,-3.3 0.68,-1.01 0.38,-1.48 0.13,-1.67 0.13,0.08 0.31,0.17 0.84,0.3 0.52,0.13 0.83,2.19 0.78,3.34 -0.07,1.61 -1.35,2.32 -2.49,1.33"
           style="fill:#e1ebe7;fill-opacity:1;fill-rule:nonzero;stroke:none"
           id="path29239" />
        <path
           d="m -3583.9262,-2255.8704 1.03,-0.15 -0.24,1.84 z"
           style="fill:#e1ebe7;fill-opacity:1;fill-rule:nonzero;stroke:none"
           id="path29271" />
        <path
           d="m -3799.0457,-2753.9997 c -0.7135,-0.2005 -1.4216,-0.3978 -2.1313,-0.592 2.9459,-19.5244 5.8955,-39.0425 8.8414,-58.5669 0.6377,0.069 1.2738,0.1347 1.9061,0.2036 0,12.512 -0.1319,25.024 0.045,37.5361 0.1247,8.5564 -4.5939,14.8014 -8.6616,21.4192 z m 28.8919,-133.376 c 0.1723,2.3709 0.3192,3.3762 0.312,4.3816 -0.1297,24.7672 -0.7401,49.5438 -0.197,74.2922 0.2227,10.066 -6.769,15.027 -10.9605,22.0519 -5.2056,-32.7161 0.2214,-83.3216 10.8455,-100.7257 z m -44.1319,238.4958 c -0.6276,-28.6446 13.5284,-88.9998 23.1258,-97.8788 0.1347,0.5543 0.3646,1.0585 0.3611,1.5628 -0.079,18.3844 -0.1566,36.7687 -0.3523,55.1531 -0.01,1.0649 -0.8907,2.2205 -1.5857,3.1695 -1.715,2.3302 -3.9259,4.3659 -5.2801,6.8777 -5.5789,10.3448 -10.9116,20.8179 -16.2688,31.1157 z m 476.1178,154.601 c 7.1063,0.8832 13.7711,1.6223 20.4013,2.6089 1.9136,0.285 3.9087,0.9646 5.5467,1.9856 28.7291,17.7423 45.6602,43.7341 52.8417,76.3562 1.4533,6.6147 1.7978,13.4516 -1.8133,19.6842 -0.6985,1.2026 -2.208,2.5086 -3.5047,2.7122 -6.3358,0.9584 -12.4274,0.2349 -17.3132,-4.463 -5.6281,-5.4088 -11.7573,-10.4575 -16.5522,-16.5459 -19.205,-24.3914 -31.0217,-52.4628 -39.6063,-82.3382 z m -39.4309,-90.926 c 3.2134,-2.5086 5.8442,-4.6321 8.547,-6.6616 5.5185,-4.156 11.4284,-7.8642 16.5522,-12.4493 14.2284,-12.7282 30.5989,-20.9369 49.309,-24.3601 9.2987,-1.7069 18.66,-3.2541 28.062,-4.131 6.2639,-0.5794 12.8409,-0.758 18.9544,0.476 12.8283,2.5839 17.2569,17.2475 7.6419,26.4585 -6.3046,6.0383 -13.9872,11.1747 -21.9172,14.861 -15.2712,7.0938 -31.8955,8.5 -48.598,8.7004 -12.5715,0.1535 -24.5449,2.944 -35.8793,8.4969 -1.1776,0.5826 -3.2071,0.5669 -4.3221,-0.075 -5.8097,-3.3605 -11.4534,-7.0155 -18.3499,-11.3156 z m -93.5004,48.6983 c -1.2465,2.5995 -1.9511,4.6916 -3.1475,6.4549 -8.9667,13.2261 -19.2927,25.5001 -32.6159,34.2507 -17.6452,11.5881 -36.0922,21.9579 -54.4046,32.4811 -8.3058,4.7762 -17.6703,5.5404 -27.1005,4.6948 -4.9265,-0.4416 -9.3926,-2.7499 -9.8812,-7.8549 -0.5387,-5.6155 -1.0711,-12.2333 1.3186,-16.9312 6.4235,-12.6592 15.4685,-23.4048 29.3179,-28.9295 9.1389,-3.6487 18.0837,-7.8298 27.3698,-11.04 11.3063,-3.9181 22.7221,-7.7609 34.3791,-10.3354 10.066,-2.2236 20.5329,-2.659 30.8244,-3.7865 0.9803,-0.1065 2.0326,0.4886 3.9399,0.996 z m 83.1463,-52.7729 c -8.1712,-0.7172 -15.7379,-1.3592 -23.2858,-2.0702 -0.8739,-0.081 -1.7727,-0.4228 -2.5432,-0.8675 -18.3781,-10.5546 -34.8332,-23.3923 -46.675,-41.2568 -10.398,-15.6753 -17.4323,-32.7693 -19.6089,-51.6329 -0.7736,-6.7399 0.3852,-13.8117 6.245,-16.9813 5.8849,-3.182 11.8825,0.805 16.8122,4.9485 19.8188,16.6712 36.9472,35.5066 49.832,58.2349 8.8946,15.6972 15.2743,32.121 19.2237,49.6253 z m -266.4576,-364.6777 c 0.4823,0.2725 0.9709,0.5418 1.4532,0.8143 0.088,1.7288 0.3007,3.4608 0.2474,5.1833 -0.238,8.0177 -0.7015,16.0292 -0.8174,24.0438 -0.2067,13.5048 -0.038,27.0034 -0.4385,40.4926 -0.075,2.5118 -1.5001,5.6406 -3.3542,7.3255 -6.7274,6.1073 -14.0621,11.5474 -20.8837,17.5638 -16.4476,14.5134 -28.0554,32.9886 -41.0025,50.3864 -19.0815,25.6222 -37.7863,51.423 -51.2645,80.6219 -3.6042,7.8079 -8.2802,15.1272 -13.2483,24.0876 -0.1604,-2.6214 -0.2935,-3.6174 -0.2703,-4.6039 0.4221,-18.0211 0.8014,-36.0453 1.3811,-54.0633 0.058,-1.8697 1.0546,-3.8491 2.0577,-5.5184 6.2701,-10.47 13.2424,-20.5611 18.9165,-31.338 21.039,-39.9758 45.2074,-77.9378 72.5748,-113.8109 10.8712,-14.2471 23.0575,-27.4857 34.6487,-41.1847 z m 378.7307,572.9285 c -5.7408,3.608 -11.3438,6.1449 -15.7066,10.066 -11.1277,10.0065 -25.7005,12.5778 -38.5947,18.7039 -5.3931,2.565 -12.2207,3.0442 -16.7996,-2.2613 -12.1205,-14.0404 -24.5104,-27.9336 -35.4909,-42.8384 -8.5909,-11.6664 -15.3308,-24.7046 -22.7033,-37.2417 -2.6809,-4.5726 -4.8232,-9.4646 -8.0021,-15.7786 16.0386,5.8504 29.2115,2.1673 42.0805,-4.4661 13.1322,-6.7712 19.6434,-19.3271 27.3104,-31.9206 0.902,2.6841 1.4689,4.2125 1.9355,5.7659 6.6052,21.8953 15.0301,42.9888 27.5233,62.2814 9.7998,15.1272 20.6457,29.1926 38.4475,37.6895 z m -198.4041,-137.3848 c 4.3471,28.5349 20.7271,48.1 44.0129,62.557 -10.7644,13.5706 -31.1125,32.0051 -40.4613,36.9034 -7.7577,4.0558 -15.4936,8.1618 -23.2451,12.2239 -11.5787,6.0728 -23.5802,10.564 -36.9128,10.874 -5.888,0.1347 -10.4544,-1.4845 -14.4632,-6.0007 -10.7738,-12.13 -21.9047,-23.9404 -32.8226,-35.9388 -3.2446,-3.5704 -6.2638,-7.3569 -10.3635,-12.1957 16.3831,1.2747 29.675,-4.0559 41.927,-11.8638 17.3415,-11.0431 34.7268,-22.1207 51.2257,-34.3477 7.905,-5.8567 13.8212,-14.3912 21.1029,-22.2116 z m 237.7755,-99.1535 c 1.2653,1.5315 2.6151,2.7811 3.5046,4.3033 8.5721,14.601 17.4573,29.0423 25.403,43.9784 3.489,6.5676 5.8504,14.8954 1.2622,21.5194 -7.6231,10.9899 -15.9071,21.77 -29.6061,26.3363 -10.8834,3.6268 -21.5288,7.9802 -32.4185,11.585 -20.2447,6.7055 -40.7588,11.1591 -62.272,6.5896 -4.344,-0.9208 -5.8817,-2.2769 -4.5037,-6.8902 1.3436,-4.5037 1.8228,-9.2831 2.5212,-13.959 1.7602,-11.7917 0.7485,-23.0134 -7.739,-32.2995 -2.9941,-3.276 -6.4862,-6.0947 -10.0002,-9.3551 1.0179,-0.6263 1.7257,-1.187 2.5275,-1.5409 10.7174,-4.6697 22.0362,-6.3296 33.6086,-6.2826 16.2641,0.072 32.1523,-2.5337 46.8911,-9.1546 14.5102,-6.5175 28.9891,-14.0154 29.8097,-33.2547 0.019,-0.4416 0.5387,-0.8613 1.0116,-1.5754 z m -232.7425,72.4946 c -10.5326,-7.93 -19.944,-15.0834 -29.4244,-22.1364 -18.5284,-13.7836 -31.9487,-32.1868 -44.9681,-50.7591 -8.6002,-12.2677 -11.7666,-26.9408 -14.9706,-41.4322 -1.8478,-8.3559 -1.7914,-10.0566 6.0947,-13.724 20.8054,-9.6777 41.8143,-18.9075 62.7543,-28.2844 0.2506,-0.1128 0.6484,0.1065 0.7862,0.1346 -5.625,24.3758 4.322,45.297 15.9007,65.0657 11.8418,20.2072 28.0025,36.7656 50.7465,46.2334 -23.0352,6.7744 -38.0779,21.4913 -46.9193,44.9024 z m 127.2594,9.5367 c -2.4555,33.4552 -6.9748,39.6376 -22.1803,62.0339 -7.2817,10.7206 -19.4774,16.9406 -32.0615,16.239 -30.9621,-1.7162 -53.7688,-18.9199 -65.122,-50.2015 -5.4401,-14.9863 -0.8174,-29.368 5.7408,-43.2738 10.5765,-22.4339 36.7594,-33.7339 58.1128,-30.2543 12.9975,2.1172 25.0773,6.6616 35.7133,14.3974 11.8825,8.6472 18.9669,20.2166 19.7969,31.0593 z m 91.9375,-406.5797 c -3.6518,-0.5356 -6.4204,-0.5481 -8.9354,-1.3687 -18.4157,-6.0164 -37.2354,-10.0691 -56.5969,-10.8051 -7.573,-0.2913 -15.3652,0.1535 -22.7284,1.7445 -4.6007,0.9959 -7.9488,0.5074 -10.7612,-1.2309 1.2371,-17.7987 2.6746,-34.8551 3.5672,-51.9335 1.8541,-35.3215 3.4639,-70.6376 10.5797,-105.4424 0.8456,-4.1338 1.9637,-5.0511 5.9913,-3.965 16.8498,4.5476 33.8373,8.5665 50.6432,13.2606 13.6301,3.8084 27.066,8.3181 40.3203,12.4312 -1.9762,24.6783 -3.8867,49.0011 -5.8786,73.3211 -1.995,24.3128 -4.0746,48.6196 -6.2012,73.9882 z m -232.2883,748.0374 c -10.2758,-1.4 -20.5705,-2.7248 -30.8369,-4.2344 -11.6883,-1.7257 -23.4612,-3.1006 -34.993,-5.5905 -12.3679,-2.684 -12.346,-3.3417 -7.8955,-15.0551 0.1346,-0.3414 0.2537,-0.6859 0.3852,-1.0273 8.1806,-21.2783 17.6797,-42.1525 24.2317,-63.9194 10.3541,-34.3728 18.6506,-69.3626 28.087,-104.0142 0.6859,-2.5243 3.0756,-5.246 5.4089,-6.552 19.2143,-10.7487 39.6939,-19.4993 54.6708,-36.6403 5.6249,-6.4424 11.8105,-12.4087 17.8363,-18.5034 1.165,-1.1776 2.7561,-1.9449 4.156,-2.9002 0.7705,1.3562 1.6975,2.6465 2.2863,4.0778 1.6443,4.0402 2.8156,8.3027 4.7699,12.18 5.0957,10.0911 10.6987,19.9285 15.6377,30.0947 1.1526,2.3834 1.3624,5.9757 0.4886,8.4812 -12.0391,34.401 -24.4603,68.6705 -36.5401,103.0621 -10.3949,29.5842 -20.1602,59.3907 -30.8212,88.8777 -4.9234,13.6239 -1.9105,11.7196 -16.8717,11.6633 z m -1.9449,-352.0875 c -0.2537,0.3258 -0.3477,0.5575 -0.4636,0.57 -0.8988,0.097 -1.8039,0.1911 -2.7122,0.2099 -16.5052,0.3414 -32.8758,1.5691 -47.9372,9.1796 -9.9094,5.0111 -19.5557,6.386 -30.5863,2.7906 -14.1782,-4.6227 -28.9891,-7.2567 -43.3897,-11.2342 -34.2569,-9.4678 -68.5345,-18.8792 -102.6126,-28.9578 -32.8301,-9.7089 -65.4105,-20.2666 -98.1379,-30.3232 -3.28,-1.0054 -3.887,-2.8501 -4.1707,-5.9381 -0.9055,-9.8656 0.5383,-18.9513 5.2741,-27.9211 6.7825,-12.8346 12.5521,-26.2079 18.7596,-39.3495 1.5782,-3.3292 4.0862,-4.3001 7.6513,-3.2822 7.5351,2.1516 15.2744,3.6894 22.6525,6.267 24.7519,8.666 49.3757,17.711 74.0787,26.5242 8.5809,3.0536 17.1545,6.2137 25.9151,8.6817 35.065,9.8843 70.2365,19.4085 105.2733,29.3962 3.7207,1.0617 7.6262,3.6518 10.0597,6.6616 11.942,14.7576 23.7494,29.5622 39.2305,40.9154 7.0217,5.1489 13.9464,10.4356 21.1154,15.8099 z m -162.2586,-332.8918 c 0.7141,-25.4625 1.4438,-50.402 2.0671,-75.3509 0.084,-3.3261 2.1078,-3.7364 4.6258,-4.0652 42.1463,-5.4997 84.3207,-10.5139 126.9712,-7.6983 15.644,1.0273 31.2754,2.255 46.9193,3.2572 30.0289,1.923 60.0672,3.774 89.4477,10.9053 10.0409,2.4398 20.0224,5.1677 30.602,7.9081 -3.3449,27.1037 -6.6177,53.5496 -9.9313,80.3902 -48.811,-8.0616 -96.8578,-12.2709 -145.1207,-15.2055 -48.3193,-2.9283 -96.5352,1.8353 -145.5811,-0.1409 z m 752.5443,464.9806 c -3.157,4.4505 -4.8608,8.1054 -7.6294,10.5264 -10.6799,9.355 -21.4756,18.5973 -32.6816,27.2884 -5.5654,4.3189 -11.9295,7.7359 -18.2654,10.8866 -11.4628,5.7001 -23.1167,1.4313 -34.1849,-1.259 -16.784,-4.0809 -33.1608,-9.8311 -49.6942,-14.9237 -22.6438,-6.9779 -45.0119,-15.052 -67.9658,-20.8022 -50.3989,-12.6122 -101.7749,-21.3628 -150.9962,-38.5665 -2.1203,-0.7391 -4.6258,-2.5149 -5.4683,-4.4473 -7.7985,-17.9459 -20.6488,-31.6293 -35.7665,-43.4992 -0.8738,-0.6828 -1.5566,-1.6098 -2.9002,-3.0317 26.2831,-4.1404 49.785,-14.1501 73.5062,-23.5082 1.4626,-0.5763 3.5735,-0.4573 5.0706,0.1378 33.7746,13.2668 67.5304,26.5023 102.4702,36.6121 37.3074,10.7958 74.2672,22.7848 111.5151,33.7841 32.1617,9.4928 64.5082,18.3781 96.7983,27.4168 4.8263,1.3499 9.8249,2.0765 16.1921,3.3856 z m 18.0116,-126.9054 c -0.5762,-0.031 -1.1494,-0.063 -1.7194,-0.091 -0.8112,-3.3355 -1.5785,-6.6804 -2.4429,-10.0034 -5.1176,-19.6403 -11.0181,-39.1333 -21.3722,-56.6439 -19.0296,-32.1805 -41.6233,-61.6206 -69.8481,-86.5162 -18.4502,-16.2703 -34.9805,-34.8426 -56.0959,-47.9121 -40.5302,-25.093 -82.1722,-48.0781 -126.6079,-65.7046 -26.6025,-10.5514 -53.4493,-20.2071 -82.4415,-25.5627 2.9565,-27.5641 5.9068,-55.0216 8.9635,-83.4939 17.3415,6.8996 33.734,12.9379 49.7224,19.9127 18.3531,8.0021 36.6404,16.2735 54.4453,25.425 40.5427,20.8304 78.4734,45.7824 113.0436,75.5356 16.1576,13.9089 32.3151,28.0527 46.6719,43.7373 17.2067,18.7947 33.0386,38.9329 48.4477,59.2591 14.7356,19.4461 28.2374,39.8349 42.0523,59.9638 1.5221,2.2111 2.2205,5.4464 2.1892,8.1931 -0.1848,16.2358 -0.3132,32.4905 -1.2183,48.6951 -0.6578,11.7666 -2.4805,23.4737 -3.7897,35.2059 z m -536.2068,-122.145 c 3.9525,-9.3519 8.1305,-17.877 11.2186,-26.781 14.269,-41.1691 28.4817,-82.3601 42.165,-123.7234 4.7981,-14.5102 8.4625,-29.4401 11.7823,-44.3668 2.0827,-9.3801 2.634,-19.1047 3.7521,-28.6884 1.8509,-15.9383 3.6988,-31.8798 5.3806,-47.8369 1.0398,-9.8468 1.4188,-10.9743 11.1214,-10.5953 12.5371,0.4854 25.1619,1.3498 37.5017,3.4701 14.6417,2.5181 29.0391,6.5019 43.5149,9.9376 10.2476,2.4304 10.0785,2.4805 8.9416,12.8096 -2.8219,25.7444 -5.1207,51.5608 -8.4249,77.2363 -1.3592,10.5702 -4.2876,21.0151 -7.3756,31.2534 -2.5682,8.5188 -6.8589,16.5084 -9.6056,24.9896 -5.7847,17.8488 -10.8365,35.9388 -16.5836,53.8001 -9.593,29.8441 -19.5306,59.5723 -29.2302,89.3788 -0.9145,2.8093 -2.161,4.4066 -5.2397,5.3744 -17.7517,5.6155 -33.9813,13.8274 -47.4799,27.1537 -5.8285,5.7534 -12.9724,10.1631 -20.2917,15.7786 -5.3399,-26.6244 -18.6287,-48.2691 -31.147,-69.1904 z m 433.6991,309.8097 c -2.7311,1.3999 -5.4997,3.0442 -8.4406,4.2844 -10.5702,4.4599 -21.1154,9.0231 -31.8359,13.0915 -10.5515,4.0088 -21.1343,8.121 -32.0145,11.0306 -22.8474,6.1135 -46.4151,7.0155 -69.8983,8.7475 -40.4612,2.969 -80.1176,-1.2653 -119.2792,-11.2969 -14.6229,-3.7489 -18.4439,-2.4993 -27.3322,9.8781 -5.5341,7.7014 -10.5953,15.7473 -16.2735,23.3359 -15.5469,20.7678 -35.7478,36.2833 -57.3956,50.1014 -9.0575,5.7878 -17.5481,13.0789 -27.3667,16.9405 -20.3043,7.9927 -41.213,14.5478 -62.1217,20.843 -7.6732,2.3051 -16.0636,2.208 -24.4196,3.2446 21.7356,-63.2554 43.1798,-125.662 64.5207,-187.7743 12.0016,13.721 23.0823,26.6965 34.5107,39.362 8.8539,9.8123 18.9011,11.6069 31.1532,6.5238 7.7358,-3.2102 15.6189,-6.0728 23.3673,-9.2454 2.684,-1.0993 5.2898,-2.4836 7.7233,-4.0559 6.7273,-4.3471 13.5737,-8.5626 19.9378,-13.3952 6.5864,-4.9985 14.9142,-7.7108 19.3427,-15.6283 5.6813,-10.1443 5.3055,-20.6112 2.7499,-31.3192 -1.1651,-4.8607 -2.7467,-9.6244 -4.3158,-15.0301 2.1046,0.7423 3.4514,1.2497 4.82,1.6881 19.9472,6.3797 39.6689,13.5957 59.898,18.9106 29.7877,7.8266 60.2456,13.1822 89.8485,21.6071 41.0846,11.6977 81.643,25.2652 122.8215,38.1562 z m -250.8638,-725.481 c 3.0599,1.0705 5.1489,1.6383 7.1095,2.5156 18.3123,8.1696 36.6247,16.363 54.9025,24.6159 12.9568,5.8542 26.0827,11.3852 38.7231,17.8557 11.1904,5.7183 21.9266,12.3551 32.666,18.904 25.0647,15.2803 51.0816,29.2894 74.6931,46.5651 23.0197,16.8372 44.5767,36.0453 64.8465,56.1553 21.5632,21.3973 41.1158,44.8585 61.0223,67.8719 6.6428,7.6763 11.419,16.9342 17.5419,25.0992 2.7122,3.6142 3.9462,7.1282 3.7113,11.5254 -0.7673,14.2033 -1.7163,28.4066 -1.9699,42.6223 -0.5888,33.189 -0.8081,66.3905 -1.2027,99.5857 -0.019,1.5002 -0.285,3.0036 -0.5387,5.4903 -1.5127,-2.0295 -2.3521,-3.1601 -3.1946,-4.2939 -9.9094,-13.2918 -19.7373,-26.637 -29.7532,-39.8505 -6.1699,-8.1368 -12.44,-16.2109 -18.9857,-24.0469 -11.0933,-13.2794 -21.6228,-27.16 -33.8373,-39.3401 -35.3719,-35.2967 -74.2672,-66.3529 -117.2466,-91.9657 -19.2488,-11.4691 -38.792,-22.697 -59.1181,-32.0364 -26.7842,-12.3022 -53.4713,-25.2339 -82.4322,-32.0991 -2.6151,-0.6232 -4.1028,-1.7069 -3.9619,-4.7855 0.2506,-5.2648 -2.6276,-8.5063 -7.5291,-10.088 -2.5682,-0.8236 -5.127,-1.6661 -7.4039,-2.4115 3.9713,-45.7793 7.9207,-91.3209 11.9577,-137.8888 z m -532.5988,260.7227 c -0.8478,-27.1225 -1.7016,-52.6476 -2.3612,-78.1727 -0.067,-2.4461 0.6596,-5.0894 1.648,-7.3663 15.0884,-34.78 29.0793,-70.1112 45.841,-104.0731 12.7087,-25.7613 27.8951,-50.4838 43.9976,-74.3023 12.305,-18.1871 27.7328,-34.2664 41.911,-51.1665 1.1401,-1.3521 3.2885,-2.1485 5.1145,-2.5864 28.5286,-6.7555 57.4175,-3.6837 86.1121,-2.3489 23.6429,1.0961 47.1981,4.2525 70.7501,6.8081 32.6002,3.5432 65.1878,7.2451 97.7441,11.1882 8.7412,1.0583 17.3415,3.2469 26.3332,4.9829 -1.8447,11.0046 -4.3189,20.8235 -5.0079,30.7614 -2.2738,32.5657 -3.8429,65.1819 -5.8035,97.7657 -0.595,9.9094 -1.5941,19.8 -2.3426,28.8388 -89.9363,-17.5388 -179.3056,-23.8809 -270.1157,-12.7564 -0.2725,-2.7373 -0.7172,-5.3931 -0.7704,-8.0521 -0.3821,-19.7029 -0.9365,-39.4115 -0.9521,-59.1182 -0.028,-25.7162 0.4228,-51.4358 0.5324,-77.1479 0.01,-1.473 -1.2183,-2.9509 -1.8698,-4.4264 -0.7767,1.4313 -2.161,2.8285 -2.2268,4.2917 -1.1243,23.3009 -2.3677,46.6117 -2.9878,69.9323 -0.4886,18.6068 -0.1785,37.2257 -0.2161,55.8419 -0.016,6.6678 -0.01,13.3357 -0.01,20.1069 -4.2124,0.4197 -7.6795,0.5418 -11.0588,1.1776 -2.1924,0.4134 -4.7981,1.0241 -6.2576,2.4993 -8.7099,8.8226 -17.5951,17.5419 -25.584,27.0034 -29.872,35.3563 -55.8215,73.4654 -78.6184,113.7357 -1.0339,1.8322 -2.1031,3.6455 -3.805,6.5833 z m 198.7078,292.3554 c -5.415,2.6434 -11.0588,4.5225 -15.6815,7.8329 -17.0783,12.2302 -31.7295,26.186 -29.3367,49.9323 0.9803,9.7152 6.4017,17.5293 12.4087,24.5041 14.1531,16.4395 29.155,32.1461 43.4303,48.4759 6.2921,7.1972 13.8588,9.7121 22.9226,8.8132 4.5256,-0.4447 9.0074,-1.3342 13.5142,-2.0044 1.3279,-0.2004 2.6684,-0.3445 4.5663,-0.5825 -0.8205,3.3323 -1.3435,6.0007 -2.1234,8.5971 -6.0978,20.2447 -12.4369,40.4143 -18.2935,60.7311 -3.4733,12.0735 -5.2742,24.6983 -9.471,36.49 -7.7014,21.629 -16.6837,42.8039 -24.9614,64.2263 -1.4094,3.6424 -3.0129,4.8419 -6.8526,3.2227 -14.2691,-6.0164 -29.0705,-10.9429 -42.8478,-17.8989 -18.5285,-9.3519 -36.9943,-19.1517 -54.2459,-30.6239 -45.3787,-30.1824 -80.1602,-70.1049 -102.3674,-119.962 -9.7578,-21.9047 -17.3111,-44.9243 -24.2614,-67.9251 -13.9565,-46.1865 -16.7593,-93.9013 -17.0665,-141.8259 0,-0.6734 0.2715,-1.3405 0.5211,-2.5087 82.2988,27.1287 165.1143,51.4575 250.1459,70.5058 z m 205.9051,-329.8163 c -15.5939,63.5279 -39.1209,123.5918 -59.3405,185.679 -2.1047,-2.446 -3.4765,-4.0934 -4.9078,-5.7 -11.7697,-13.2324 -23.8339,-26.1453 -38.6416,-36.1612 -6.7211,-4.5538 -13.9715,-5.4871 -21.4004,-3.0599 -7.9394,2.5995 -15.6283,5.9632 -23.3923,9.092 -3.8805,1.5659 -7.6983,3.3041 -11.513,5.0298 -13.9339,6.2983 -27.9117,12.4964 -41.7328,19.0202 -2.8877,1.3655 -5.2241,3.9368 -7.7672,5.9976 -3.9713,3.2196 -5.3337,7.5135 -3.9619,12.2678 3.7427,12.9317 7.7735,25.7788 11.7009,38.651 0.3915,1.2809 0.9176,2.5212 1.5158,4.1561 -13.3451,-3.7709 -26.0669,-7.5261 -38.8734,-10.943 -22.3682,-5.9757 -45.0746,-10.8646 -67.1264,-17.8269 -25.5352,-8.049 -50.4537,-18.0273 -75.7646,-26.8155 -13.7476,-4.773 -27.7482,-8.8132 -42.0107,-13.3013 0.6997,-1.5596 1.3054,-3.2571 2.1839,-4.8012 13.8575,-24.4196 27.0789,-49.2338 41.8528,-73.0802 10.8283,-17.4824 23.8649,-33.5774 35.6278,-50.4897 12.2636,-17.6421 26.9492,-33.0449 42.6082,-47.6084 1.281,-1.1901 2.9221,-2.7592 4.4379,-2.8093 8.1086,-0.2725 16.2328,-0.053 24.3507,-0.1221 21.1593,-0.1598 42.3874,0.6263 63.459,-0.8206 33.1107,-2.2769 66.0115,0.7924 98.9374,2.4272 28.3689,1.4125 56.6189,5.2773 84.9126,8.1524 7.9488,0.8018 15.8663,1.9512 24.8456,3.0662 z m 119.0474,31.4946 c 17.0095,4.748 33.3111,7.8674 48.4884,13.8462 29.1488,11.4879 58.1097,23.6711 86.3064,37.3074 23.1104,11.1747 45.2092,24.5167 67.3613,37.5674 21.4098,12.6123 38.2721,30.887 56.409,47.5175 36.6091,33.5711 67.4648,71.3076 83.7507,119.107 6.8214,20.0318 12.2803,40.383 12.8722,61.8961 0.7141,25.9261 -2.0232,51.2727 -9.1734,76.1934 -2.2957,7.999 -2.3207,8.2213 -10.0284,5.3681 -0.5136,-0.1879 -1.0586,-0.2787 -1.5879,-0.4322 -37.5235,-10.7425 -75.188,-21.0277 -112.5361,-32.3402 -64.7368,-19.6152 -130.0938,-37.2636 -193.7156,-60.4555 -2.3396,-0.8487 -4.7417,-1.5283 -8.096,-2.6026 2.7717,-2.4366 4.6916,-4.2782 6.7649,-5.9318 18.7414,-14.98 21.6948,-31.9895 9.2611,-52.466 -3.4075,-5.6093 -6.1198,-11.6382 -9.615,-17.188 -7.1784,-11.3908 -14.3912,-22.7784 -22.127,-33.7965 -4.2813,-6.0979 -10.5859,-9.6683 -18.0461,-11.5443 -10.4074,-2.6183 -20.5893,-1.8885 -30.8996,0.1817 -4.726,0.9521 -9.5461,1.4125 -15.8913,2.3239 20.4451,-62.366 40.3892,-123.1942 60.5024,-184.5516 z m 351.1667,401.7722 c 7.789,-16.6462 11.3125,-35.5536 13.414,-54.8211 2.8876,-26.4616 6.101,-52.8951 8.5407,-79.4036 1.6944,-18.3343 2.3239,-36.7688 3.4232,-55.1626 0.2506,-4.1842 0.5481,-8.3622 0.7329,-12.5527 0.2881,-6.5708 -1.5472,-12.4463 -5.0048,-18.1244 -1.5785,-2.5839 -2.0828,-6.1981 -2.0358,-9.33 0.6013,-41.9521 1.4658,-83.8979 2.0671,-125.85 0.1879,-13.1259 -0.1159,-26.2643 -0.4228,-39.3902 -0.05,-2.233 -0.7799,-4.7511 -2.0013,-6.6052 -36.1518,-54.865 -80.5405,-102.2259 -131.9666,-142.9127 -31.4101,-24.8518 -66.0992,-44.7363 -101.0859,-64.0502 -39.8381,-21.9955 -81.4738,-39.9577 -124.1556,-55.5854 -0.4824,-0.1823 -0.8801,-0.5922 -1.2841,-0.8675 1.8196,-9.3714 1.2715,-10.3673 -7.2097,-12.9129 -20.0913,-6.0205 -40.0667,-12.4616 -60.3239,-17.8582 -11.7447,-3.1235 -23.9123,-6.0951 -35.9451,-6.3359 -13.793,-0.2766 -26.6526,-4.4289 -40.0291,-6.127 -27.849,-3.5319 -55.6699,-7.3562 -83.5722,-10.4099 -29.5434,-3.2359 -59.1212,-6.5366 -88.7743,-8.2776 -25.973,-1.5256 -52.0995,-3.1601 -78.0694,1.2931 -6.4079,1.1 -11.5317,3.5234 -15.8036,8.6507 -15.2901,18.3499 -32.5729,35.2964 -45.9531,54.9211 -17.5122,25.6917 -34.707,51.8517 -47.1712,80.6657 -11.7923,27.2571 -23.614,54.5142 -36.0293,81.4863 -10.5592,22.9382 -19.4717,46.293 -23.8232,71.2857 -1.1244,6.4329 -3.5394,12.6373 -5.2717,18.9669 -8.7474,31.9832 -14.1168,64.4361 -14.4644,97.7003 -0.062,5.6562 -2.0627,11.491 -4.0628,16.9061 -8.7524,23.7243 -8.5727,48.7045 -10.5862,73.3433 -0.7989,9.781 -2.042,20.0599 0.034,29.4181 4.0323,18.1746 1.3323,36.2708 2.1751,54.3639 2.1472,46.105 8.7058,91.2798 23.7537,135.3147 10.9386,32.0082 23.7807,62.7323 42.8914,90.6597 19.369,28.2938 43.5828,51.874 71.1193,72.1406 23.6294,17.3885 49.6212,30.6678 76.086,43.0264 7.9112,3.6956 16.3799,6.173 24.4196,9.6306 9.2861,3.9964 18.0367,9.5681 27.6235,12.4588 12.2897,3.7019 25.1023,5.8943 37.8242,7.8486 12.3868,1.9011 24.9426,2.7906 37.439,3.8961 4.1592,0.3665 8.4186,0.379 12.5433,-0.1284 2.1141,-0.2568 4.8576,-1.5378 5.8661,-3.2196 2.1015,-3.5203 4.9579,-4.3878 8.6034,-4.6259 32.1554,-2.1453 63.08,-10.7236 90.9103,-25.9417 38.4756,-21.0371 74.7621,-45.7698 98.3235,-84.8155 9.947,-16.499 10.5013,-16.3925 29.3994,-11.9545 40.0917,9.4208 80.5436,12.465 121.6688,9.1984 25.3216,-2.0107 50.5524,-3.8491 74.9625,-11.3751 6.7744,-2.0953 13.4798,-4.5852 19.9566,-7.4916 19.0954,-8.5815 37.8274,-18.0211 57.167,-26.0012 10.8271,-4.4661 21.8013,-8.4844 31.0655,-15.669 12.0705,-9.3582 24.0344,-18.9419 35.1872,-29.3461 4.3001,-4.0151 6.7148,-10.3541 9.0481,-16.0198 0.9521,-2.3239 -0.5888,-5.675 -1.1995,-10.0096"
           style="fill:#231f20;fill-opacity:1;fill-rule:evenodd;stroke:none;stroke-width:0.313192"
           id="path42967" />
        <path
           d="m -3238.0999,-2824.042 c -20.1132,61.3574 -40.0573,122.1856 -60.5024,184.5516 6.3452,-0.9114 11.1653,-1.3718 15.8913,-2.3239 10.3103,-2.0702 20.4922,-2.8 30.8996,-0.1817 7.4602,1.876 13.7648,5.4464 18.0461,11.5443 7.7358,11.0181 14.9486,22.4057 22.127,33.7965 3.4952,5.5498 6.2075,11.5787 9.615,17.188 12.4337,20.4765 9.4803,37.486 -9.2611,52.466 -2.0733,1.6536 -3.9932,3.4952 -6.7649,5.9318 3.3543,1.0743 5.7564,1.7539 8.096,2.6026 63.6218,23.1919 128.9788,40.8403 193.7156,60.4555 37.3481,11.3125 75.0126,21.5977 112.5361,32.3402 0.5293,0.1535 1.0743,0.2443 1.5879,0.4322 7.7077,2.8532 7.7327,2.6309 10.0284,-5.3681 7.1502,-24.9207 9.8875,-50.2673 9.1734,-76.1934 -0.5919,-21.5131 -6.0508,-41.8643 -12.8722,-61.8961 -16.2859,-47.7994 -47.1416,-85.5359 -83.7507,-119.107 -18.1369,-16.6305 -34.9992,-34.9052 -56.409,-47.5175 -22.1521,-13.0507 -44.2509,-26.3927 -67.3613,-37.5674 -28.1967,-13.6363 -57.1576,-25.8195 -86.3064,-37.3074 -15.1773,-5.9788 -31.4789,-9.0982 -48.4884,-13.8462"
           style="fill:#78a1bb;fill-opacity:1;fill-rule:evenodd;stroke:none;stroke-width:0.313192"
           id="path42969" />
        <path
           d="m -3357.1473,-2855.5366 c -8.9793,-1.115 -16.8968,-2.2644 -24.8456,-3.0662 -28.2937,-2.8751 -56.5437,-6.7399 -84.9126,-8.1524 -32.9259,-1.6348 -65.8267,-4.7041 -98.9374,-2.4272 -21.0716,1.4469 -42.2997,0.6608 -63.459,0.8206 -8.1179,0.069 -16.2421,-0.1504 -24.3507,0.1221 -1.5158,0.05 -3.1569,1.6192 -4.4379,2.8093 -15.659,14.5635 -30.3446,29.9663 -42.6082,47.6084 -11.7629,16.9123 -24.7995,33.0073 -35.6278,50.4897 -14.7739,23.8464 -27.9953,48.6606 -41.8528,73.0802 -0.8785,1.5441 -1.4842,3.2416 -2.1839,4.8012 14.2625,4.4881 28.2631,8.5283 42.0107,13.3013 25.3109,8.7882 50.2294,18.7665 75.7646,26.8155 22.0518,6.9623 44.7582,11.8512 67.1264,17.8269 12.8065,3.4169 25.5283,7.1721 38.8734,10.943 -0.5982,-1.6349 -1.1243,-2.8752 -1.5158,-4.1561 -3.9274,-12.8722 -7.9582,-25.7193 -11.7009,-38.651 -1.3718,-4.7543 -0.01,-9.0482 3.9619,-12.2678 2.5431,-2.0608 4.8795,-4.6321 7.7672,-5.9976 13.8211,-6.5238 27.7989,-12.7219 41.7328,-19.0202 3.8147,-1.7257 7.6325,-3.4639 11.513,-5.0298 7.764,-3.1288 15.4529,-6.4925 23.3923,-9.092 7.4289,-2.4272 14.6793,-1.4939 21.4004,3.0599 14.8077,10.0159 26.8719,22.9288 38.6416,36.1612 1.4313,1.6066 2.8031,3.254 4.9078,5.7 20.2196,-62.0872 43.7466,-122.1511 59.3405,-185.679"
           style="fill:#78a1bb;fill-opacity:1;fill-rule:evenodd;stroke:none;stroke-width:0.313192"
           id="path42971" />
        <path
           d="m -3563.0524,-2525.7203 c -85.0316,-19.0483 -167.8471,-43.3771 -250.1459,-70.5058 -0.2496,1.1682 -0.5258,1.8353 -0.5211,2.5087 0.3072,47.9246 3.11,95.6394 17.0665,141.8259 6.9503,23.0008 14.5036,46.0204 24.2614,67.9251 22.2072,49.8571 56.9887,89.7796 102.3674,119.962 17.2516,11.4722 35.7174,21.272 54.2459,30.6239 13.7773,6.956 28.5787,11.8825 42.8478,17.8989 3.8397,1.6192 5.4432,0.4197 6.8526,-3.2227 8.2777,-21.4224 17.26,-42.5973 24.9614,-64.2263 4.1968,-11.7917 5.9977,-24.4165 9.471,-36.49 5.8566,-20.3168 12.1957,-40.4864 18.2935,-60.7311 0.7799,-2.5964 1.3029,-5.2648 2.1234,-8.5971 -1.8979,0.238 -3.2384,0.3821 -4.5663,0.5825 -4.5068,0.6702 -8.9886,1.5597 -13.5142,2.0044 -9.0638,0.8989 -16.6305,-1.616 -22.9226,-8.8132 -14.2753,-16.3298 -29.2772,-32.0364 -43.4303,-48.4759 -6.007,-6.9748 -11.4284,-14.7889 -12.4087,-24.5041 -2.3928,-23.7463 12.2584,-37.7021 29.3367,-49.9323 4.6227,-3.3104 10.2665,-5.1895 15.6815,-7.8329"
           style="fill:#78a1bb;fill-opacity:1;fill-rule:evenodd;stroke:none;stroke-width:0.313192"
           id="path42973" />
        <path
           d="m -3761.7602,-2818.0757 c 1.7019,-2.9378 2.7711,-4.7511 3.805,-6.5833 22.7969,-40.2703 48.7464,-78.3794 78.6184,-113.7357 7.9889,-9.4615 16.8741,-18.1808 25.584,-27.0034 1.4595,-1.4752 4.0652,-2.0859 6.2576,-2.4993 3.3793,-0.6358 6.8464,-0.7579 11.0588,-1.1776 0,-6.7712 -0.01,-13.4391 0.01,-20.1069 0.038,-18.6162 -0.2725,-37.2351 0.2161,-55.8419 0.6201,-23.3206 1.8635,-46.6314 2.9878,-69.9323 0.066,-1.4632 1.4501,-2.8604 2.2268,-4.2917 0.6515,1.4755 1.876,2.9534 1.8698,4.4264 -0.1096,25.7121 -0.5606,51.4317 -0.5324,77.1479 0.016,19.7067 0.57,39.4153 0.9521,59.1182 0.053,2.659 0.4979,5.3148 0.7704,8.0521 90.8101,-11.1245 180.1794,-4.7824 270.1157,12.7564 0.7485,-9.0388 1.7476,-18.9294 2.3426,-28.8388 1.9606,-32.5838 3.5297,-65.2 5.8035,-97.7657 0.689,-9.9379 3.1632,-19.7568 5.0079,-30.7614 -8.9917,-1.736 -17.592,-3.9246 -26.3332,-4.9829 -32.5563,-3.9431 -65.1439,-7.645 -97.7441,-11.1882 -23.552,-2.5556 -47.1072,-5.712 -70.7501,-6.8081 -28.6946,-1.3348 -57.5835,-4.4066 -86.1121,2.3489 -1.826,0.4379 -3.9744,1.2343 -5.1145,2.5864 -14.1782,16.9001 -29.606,32.9794 -41.911,51.1665 -16.1025,23.8185 -31.2889,48.541 -43.9976,74.3023 -16.7617,33.9619 -30.7526,69.2931 -45.841,104.0731 -0.9884,2.2769 -1.715,4.9202 -1.648,7.3663 0.6596,25.5251 1.5134,51.0502 2.3612,78.1727"
           style="fill:#698da4;fill-opacity:1;fill-rule:evenodd;stroke:none;stroke-width:0.313192"
           id="path42975" />
        <path
           d="m -3229.1614,-3078.7984 c -4.037,46.5679 -7.9864,92.1095 -11.9577,137.8888 2.2769,0.7454 4.8357,1.5879 7.4039,2.4115 4.9015,1.5817 7.7797,4.8232 7.5291,10.088 -0.1409,3.0786 1.3468,4.1623 3.9619,4.7855 28.9609,6.8652 55.648,19.7969 82.4322,32.0991 20.3261,9.3394 39.8693,20.5673 59.1181,32.0364 42.9794,25.6128 81.8747,56.669 117.2466,91.9657 12.2145,12.1801 22.744,26.0607 33.8373,39.3401 6.5457,7.836 12.8158,15.9101 18.9857,24.0469 10.0159,13.2135 19.8438,26.5587 29.7532,39.8505 0.8425,1.1338 1.6819,2.2644 3.1946,4.2939 0.2537,-2.4867 0.5199,-3.9901 0.5387,-5.4903 0.3946,-33.1952 0.6139,-66.3967 1.2027,-99.5857 0.2536,-14.2157 1.2026,-28.419 1.9699,-42.6223 0.2349,-4.3972 -0.9991,-7.9112 -3.7113,-11.5254 -6.1229,-8.165 -10.8991,-17.4229 -17.5419,-25.0992 -19.9065,-23.0134 -39.4591,-46.4746 -61.0223,-67.8719 -20.2698,-20.11 -41.8268,-39.3181 -64.8465,-56.1553 -23.6115,-17.2757 -49.6284,-31.2848 -74.6931,-46.5651 -10.7394,-6.5489 -21.4756,-13.1857 -32.666,-18.904 -12.6404,-6.4705 -25.7663,-12.0015 -38.7231,-17.8557 -18.2778,-8.2529 -36.5902,-16.4463 -54.9025,-24.6159 -1.9606,-0.8773 -4.0496,-1.4451 -7.1095,-2.5156"
           style="fill:#698da4;fill-opacity:1;fill-rule:evenodd;stroke:none;stroke-width:0.313192"
           id="path42977" />
        <path
           d="m -2978.2976,-2353.3174 c -41.1785,-12.891 -81.7369,-26.4585 -122.8215,-38.1562 -29.6029,-8.4249 -60.0608,-13.7805 -89.8485,-21.6071 -20.2291,-5.3149 -39.9508,-12.5309 -59.898,-18.9106 -1.3686,-0.4384 -2.7154,-0.9458 -4.82,-1.6881 1.5691,5.4057 3.1507,10.1694 4.3158,15.0301 2.5556,10.708 2.9314,21.1749 -2.7499,31.3192 -4.4285,7.9175 -12.7563,10.6298 -19.3427,15.6283 -6.3641,4.8326 -13.2105,9.0481 -19.9378,13.3952 -2.4335,1.5723 -5.0393,2.9566 -7.7233,4.0559 -7.7484,3.1726 -15.6315,6.0352 -23.3673,9.2454 -12.2521,5.0831 -22.2993,3.2885 -31.1532,-6.5238 -11.4284,-12.6655 -22.5091,-25.641 -34.5107,-39.362 -21.3409,62.1123 -42.7851,124.5189 -64.5207,187.7743 8.356,-1.0366 16.7464,-0.9395 24.4196,-3.2446 20.9087,-6.2952 41.8174,-12.8503 62.1217,-20.843 9.8186,-3.8616 18.3092,-11.1527 27.3667,-16.9405 21.6478,-13.8181 41.8487,-29.3336 57.3956,-50.1014 5.6782,-7.5886 10.7394,-15.6345 16.2735,-23.3359 8.8883,-12.3774 12.7093,-13.627 27.3322,-9.8781 39.1616,10.0316 78.818,14.2659 119.2792,11.2969 23.4832,-1.732 47.0509,-2.634 69.8983,-8.7475 10.8802,-2.9096 21.463,-7.0218 32.0145,-11.0306 10.7205,-4.0684 21.2657,-8.6316 31.8359,-13.0915 2.9409,-1.2402 5.7095,-2.8845 8.4406,-4.2844"
           style="fill:#78a1bb;fill-opacity:1;fill-rule:evenodd;stroke:none;stroke-width:0.313192"
           id="path42979" />
        <path
           d="m -3411.9967,-2663.1271 c 12.5183,20.9213 25.8071,42.566 31.147,69.1904 7.3193,-5.6155 14.4632,-10.0252 20.2917,-15.7786 13.4986,-13.3263 29.7282,-21.5382 47.4799,-27.1537 3.0787,-0.9678 4.3252,-2.5651 5.2397,-5.3744 9.6996,-29.8065 19.6372,-59.5347 29.2302,-89.3788 5.7471,-17.8613 10.7989,-35.9513 16.5836,-53.8001 2.7467,-8.4812 7.0374,-16.4708 9.6056,-24.9896 3.088,-10.2383 6.0164,-20.6832 7.3756,-31.2534 3.3042,-25.6755 5.603,-51.4919 8.4249,-77.2363 1.1369,-10.3291 1.306,-10.3792 -8.9416,-12.8096 -14.4758,-3.4357 -28.8732,-7.4195 -43.5149,-9.9376 -12.3398,-2.1203 -24.9646,-2.9847 -37.5017,-3.4701 -9.7026,-0.379 -10.0816,0.7485 -11.1214,10.5953 -1.6818,15.9571 -3.5297,31.8986 -5.3806,47.8369 -1.1181,9.5837 -1.6694,19.3083 -3.7521,28.6884 -3.3198,14.9267 -6.9842,29.8566 -11.7823,44.3668 -13.6833,41.3633 -27.896,82.5543 -42.165,123.7234 -3.0881,8.904 -7.2661,17.4291 -11.2186,26.781"
           style="fill:#bc4749;fill-opacity:1;fill-rule:evenodd;stroke:none;stroke-width:0.313192"
           id="path42981" />
        <path
           d="m -2875.7899,-2540.9821 c 1.3092,-11.7322 3.1319,-23.4393 3.7897,-35.206 0.9051,-16.2045 1.0335,-32.4592 1.2183,-48.6951 0.031,-2.7467 -0.6671,-5.9819 -2.1892,-8.1931 -13.8149,-20.1288 -27.3167,-40.5176 -42.0523,-59.9637 -15.4091,-20.3262 -31.241,-40.4645 -48.4477,-59.2591 -14.3568,-15.6847 -30.5143,-29.8284 -46.6719,-43.7373 -34.5702,-29.7532 -72.5009,-54.7053 -113.0436,-75.5356 -17.8049,-9.1515 -36.0922,-17.4229 -54.4453,-25.425 -15.9884,-6.9748 -32.3809,-13.0131 -49.7224,-19.9127 -3.0567,28.4723 -6.007,55.9298 -8.9635,83.4938 28.9922,5.3556 55.839,15.0113 82.4415,25.5628 44.4357,17.6264 86.0777,40.6116 126.6079,65.7045 21.1154,13.0696 37.6457,31.6418 56.0959,47.9122 28.2248,24.8956 50.8185,54.3357 69.8481,86.5162 10.3541,17.5105 16.2546,37.0036 21.3722,56.6439 0.8644,3.323 1.6317,6.6678 2.4429,10.0033 0.57,0.028 1.1432,0.059 1.7194,0.091"
           style="fill:#78a1bb;fill-opacity:1;fill-rule:evenodd;stroke:none;stroke-width:0.313192"
           id="path42983" />
        <path
           d="m -2893.8015,-2414.0767 c -6.3672,-1.3091 -11.3658,-2.0357 -16.1921,-3.3856 -32.2901,-9.0387 -64.6366,-17.924 -96.7983,-27.4168 -37.2479,-10.9993 -74.2077,-22.9883 -111.5151,-33.7841 -34.9398,-10.1098 -68.6956,-23.3453 -102.4702,-36.6121 -1.4971,-0.5951 -3.608,-0.7141 -5.0706,-0.1378 -23.7212,9.3581 -47.2231,19.3678 -73.5062,23.5082 1.3436,1.4219 2.0264,2.3489 2.9002,3.0317 15.1177,11.8699 27.968,25.5533 35.7665,43.4992 0.8425,1.9324 3.348,3.7082 5.4683,4.4473 49.2213,17.2037 100.5973,25.9543 150.9962,38.5665 22.9539,5.7502 45.322,13.8243 67.9658,20.8022 16.5334,5.0926 32.9102,10.8428 49.6942,14.9237 11.0682,2.6903 22.7221,6.9591 34.1849,1.259 6.3359,-3.1507 12.7,-6.5677 18.2654,-10.8866 11.206,-8.6911 22.0017,-17.9334 32.6816,-27.2884 2.7686,-2.421 4.4724,-6.0759 7.6294,-10.5264"
           style="fill:#bc4749;fill-opacity:1;fill-rule:evenodd;stroke:none;stroke-width:0.313192"
           id="path42985" />
        <path
           d="m -3646.3458,-2879.0573 c 49.0459,1.9762 97.2618,-2.7874 145.5811,0.1409 48.2629,2.9346 96.3097,7.1439 145.1207,15.2055 3.3136,-26.8406 6.5864,-53.2865 9.9313,-80.3902 -10.5796,-2.7404 -20.5611,-5.4683 -30.602,-7.9081 -29.3805,-7.1313 -59.4188,-8.9823 -89.4477,-10.9053 -15.6439,-1.0022 -31.2753,-2.2299 -46.9193,-3.2572 -42.6505,-2.8156 -84.8249,2.1986 -126.9712,7.6983 -2.518,0.3288 -4.5413,0.7391 -4.6258,4.0652 -0.6233,24.9489 -1.353,49.8884 -2.0671,75.3509"
           style="fill:#78a1bb;fill-opacity:1;fill-rule:evenodd;stroke:none;stroke-width:0.313192"
           id="path42987" />
        <path
           d="m -3484.0872,-2546.1655 c -7.169,-5.3743 -14.0937,-10.661 -21.1154,-15.8099 -15.4811,-11.3532 -27.2885,-26.1578 -39.2305,-40.9154 -2.4335,-3.0098 -6.339,-5.5999 -10.0597,-6.6616 -35.0368,-9.9877 -70.2083,-19.5119 -105.2733,-29.3962 -8.7606,-2.468 -17.3342,-5.6281 -25.9151,-8.6817 -24.703,-8.8132 -49.3268,-17.8582 -74.0787,-26.5242 -7.3781,-2.5776 -15.1174,-4.1154 -22.6525,-6.267 -3.5651,-1.0179 -6.0731,-0.047 -7.6513,3.2822 -6.2075,13.1416 -11.9771,26.5149 -18.7596,39.3495 -4.7358,8.9698 -6.1796,18.0555 -5.2741,27.9211 0.2837,3.088 0.8907,4.9327 4.1707,5.9381 32.7274,10.0566 65.3078,20.6143 98.1379,30.3232 34.0781,10.0786 68.3557,19.49 102.6126,28.9578 14.4006,3.9775 29.2115,6.6115 43.3897,11.2342 11.0306,3.5954 20.6769,2.2205 30.5863,-2.7906 15.0614,-7.6105 31.432,-8.8382 47.9372,-9.1796 0.9083,-0.019 1.8134,-0.1128 2.7122,-0.2099 0.1159,-0.012 0.2099,-0.2442 0.4636,-0.57"
           style="fill:#bc4749;fill-opacity:1;fill-rule:evenodd;stroke:none;stroke-width:0.313192"
           id="path42989" />
        <path
           d="m -3482.1423,-2194.078 c 14.9612,0.056 11.9483,1.9606 16.8717,-11.6633 10.661,-29.487 20.4263,-59.2935 30.8212,-88.8777 12.0798,-34.3916 24.501,-68.6611 36.5401,-103.0621 0.8738,-2.5055 0.664,-6.0978 -0.4886,-8.4812 -4.939,-10.1662 -10.542,-20.0036 -15.6377,-30.0947 -1.9543,-3.8773 -3.1256,-8.1398 -4.7699,-12.18 -0.5888,-1.4313 -1.5158,-2.7216 -2.2863,-4.0778 -1.3999,0.9553 -2.991,1.7226 -4.156,2.9002 -6.0258,6.0947 -12.2114,12.061 -17.8363,18.5034 -14.9769,17.141 -35.4565,25.8916 -54.6708,36.6403 -2.3333,1.306 -4.723,4.0277 -5.4089,6.552 -9.4364,34.6516 -17.7329,69.6414 -28.087,104.0142 -6.552,21.7669 -16.0511,42.6411 -24.2317,63.9194 -0.1315,0.3414 -0.2506,0.6859 -0.3852,1.0273 -4.4505,11.7134 -4.4724,12.3711 7.8955,15.0551 11.5318,2.4899 23.3047,3.8648 34.993,5.5905 10.2664,1.5096 20.5611,2.8344 30.8369,4.2344"
           style="fill:#bc4749;fill-opacity:1;fill-rule:evenodd;stroke:none;stroke-width:0.313192"
           id="path42991" />
        <path
           d="m -3249.854,-2942.1154 c 2.1266,-25.3686 4.2062,-49.6754 6.2012,-73.9882 1.9919,-24.32 3.9024,-48.6428 5.8786,-73.3211 -13.2543,-4.1131 -26.6902,-8.6228 -40.3203,-12.4312 -16.8059,-4.6941 -33.7934,-8.713 -50.6432,-13.2606 -4.0276,-1.0861 -5.1457,-0.1688 -5.9913,3.965 -7.1158,34.8048 -8.7256,70.1209 -10.5797,105.4424 -0.8926,17.0784 -2.3301,34.1348 -3.5672,51.9335 2.8124,1.7383 6.1605,2.2268 10.7612,1.2309 7.3632,-1.591 15.1554,-2.0358 22.7284,-1.7445 19.3615,0.736 38.1812,4.7887 56.5969,10.8051 2.515,0.8206 5.2836,0.8331 8.9354,1.3687"
           style="fill:#bc4749;fill-opacity:1;fill-rule:evenodd;stroke:none;stroke-width:0.313192"
           id="path42993" />
        <path
           d="m -3341.7915,-2535.5357 c -0.83,-10.8427 -7.9144,-22.4121 -19.7969,-31.0593 -10.636,-7.7358 -22.7158,-12.2802 -35.7133,-14.3974 -21.3534,-3.4796 -47.5363,7.8204 -58.1128,30.2543 -6.5582,13.9058 -11.1809,28.2875 -5.7408,43.2738 11.3532,31.2816 34.1599,48.4853 65.122,50.2015 12.5841,0.7016 24.7798,-5.5184 32.0615,-16.239 15.2055,-22.3963 19.7248,-28.5787 22.1803,-62.0339"
           style="fill:#bc4749;fill-opacity:1;fill-rule:evenodd;stroke:none;stroke-width:0.313192"
           id="path42995" />
        <path
           d="m -3469.0509,-2545.0724 c 8.8414,-23.4111 23.8841,-38.128 46.9193,-44.9024 -22.744,-9.4678 -38.9047,-26.0262 -50.7465,-46.2334 -11.5787,-19.7687 -21.5257,-40.6899 -15.9007,-65.0657 -0.1378,-0.028 -0.5356,-0.2474 -0.7862,-0.1346 -20.94,9.3769 -41.9489,18.6067 -62.7543,28.2844 -7.8861,3.6674 -7.9425,5.3681 -6.0947,13.724 3.204,14.4914 6.3704,29.1645 14.9706,41.4322 13.0194,18.5723 26.4397,36.9755 44.9681,50.7591 9.4804,7.053 18.8918,14.2064 29.4244,22.1364"
           style="fill:#bc4749;fill-opacity:1;fill-rule:evenodd;stroke:none;stroke-width:0.313192"
           id="path42997" />
        <path
           d="m -3236.3084,-2617.567 c -0.4729,0.7141 -0.9928,1.1338 -1.0116,1.5754 -0.8206,19.2393 -15.2995,26.7372 -29.8097,33.2547 -14.7388,6.6209 -30.627,9.2266 -46.8911,9.1546 -11.5724,-0.047 -22.8912,1.6129 -33.6086,6.2826 -0.8018,0.3539 -1.5096,0.9146 -2.5275,1.5409 3.514,3.2604 7.0061,6.0791 10.0002,9.3551 8.4875,9.2861 9.4992,20.5078 7.739,32.2995 -0.6984,4.6759 -1.1776,9.4553 -2.5212,13.959 -1.378,4.6133 0.1597,5.9694 4.5037,6.8902 21.5132,4.5695 42.0273,0.1159 62.272,-6.5896 10.8897,-3.6048 21.5351,-7.9582 32.4185,-11.585 13.699,-4.5663 21.983,-15.3464 29.6061,-26.3363 4.5882,-6.624 2.2268,-14.9518 -1.2622,-21.5194 -7.9457,-14.9361 -16.8309,-29.3774 -25.403,-43.9784 -0.8895,-1.5222 -2.2393,-2.7718 -3.5046,-4.3033"
           style="fill:#bc4749;fill-opacity:1;fill-rule:evenodd;stroke:none;stroke-width:0.313192"
           id="path42999" />
        <path
           d="m -3474.0839,-2518.4135 c -7.2817,7.8204 -13.1979,16.3549 -21.1029,22.2116 -16.4989,12.227 -33.8842,23.3046 -51.2257,34.3477 -12.252,7.8079 -25.5439,13.1385 -41.927,11.8638 4.0997,4.8388 7.1189,8.6253 10.3635,12.1957 10.9179,11.9984 22.0488,23.8088 32.8226,35.9388 4.0088,4.5162 8.5752,6.1354 14.4632,6.0007 13.3326,-0.31 25.3341,-4.8012 36.9128,-10.874 7.7515,-4.0621 15.4874,-8.1681 23.2451,-12.2239 9.3488,-4.8983 29.6969,-23.3328 40.4613,-36.9034 -23.2858,-14.457 -39.6658,-34.0221 -44.0129,-62.557"
           style="fill:#bc4749;fill-opacity:1;fill-rule:evenodd;stroke:none;stroke-width:0.313192"
           id="path43001" />
        <path
           d="m -3275.6798,-2381.0287 c -17.8018,-8.4969 -28.6477,-22.5623 -38.4475,-37.6895 -12.4932,-19.2926 -20.9181,-40.3861 -27.5233,-62.2814 -0.4666,-1.5534 -1.0335,-3.0818 -1.9355,-5.7659 -7.667,12.5935 -14.1782,25.1494 -27.3104,31.9206 -12.869,6.6334 -26.0419,10.3165 -42.0805,4.4661 3.1789,6.314 5.3212,11.206 8.0021,15.7786 7.3725,12.5371 14.1124,25.5753 22.7033,37.2417 10.9805,14.9048 23.3704,28.798 35.4909,42.8384 4.5789,5.3055 11.4065,4.8263 16.7996,2.2613 12.8942,-6.1261 27.467,-8.6974 38.5947,-18.7039 4.3628,-3.9211 9.9658,-6.458 15.7066,-10.066"
           style="fill:#bc4749;fill-opacity:1;fill-rule:evenodd;stroke:none;stroke-width:0.313192"
           id="path43003" />
        <path
           d="m -3654.4105,-2953.9572 c -11.5912,13.699 -23.7775,26.9376 -34.6487,41.1847 -27.3674,35.8731 -51.5358,73.8351 -72.5748,113.8109 -5.6741,10.7769 -12.6464,20.868 -18.9165,31.338 -1.0031,1.6693 -2,3.6487 -2.0577,5.5184 -0.5797,18.018 -0.959,36.0422 -1.3811,54.0633 -0.023,0.9865 0.1099,1.9825 0.2703,4.6039 4.9681,-8.9604 9.6441,-16.2797 13.2483,-24.0876 13.4782,-29.1989 32.183,-54.9997 51.2645,-80.6219 12.9471,-17.3978 24.5549,-35.873 41.0025,-50.3864 6.8216,-6.0164 14.1563,-11.4565 20.8837,-17.5638 1.8541,-1.6849 3.2791,-4.8137 3.3542,-7.3255 0.4009,-13.4892 0.2318,-26.9878 0.4385,-40.4926 0.1159,-8.0146 0.5794,-16.0261 0.8174,-24.0438 0.053,-1.7225 -0.1597,-3.4545 -0.2474,-5.1833 -0.4823,-0.2725 -0.9709,-0.5418 -1.4532,-0.8143"
           style="fill:#78a1bb;fill-opacity:1;fill-rule:evenodd;stroke:none;stroke-width:0.313192"
           id="path43005" />
        <path
           d="m -3387.9529,-2589.2795 c -3.9494,-17.5043 -10.3291,-33.9281 -19.2237,-49.6253 -12.8848,-22.7283 -30.0132,-41.5637 -49.832,-58.2349 -4.9297,-4.1435 -10.9273,-8.1305 -16.8122,-4.9485 -5.8598,3.1696 -7.0186,10.2414 -6.245,16.9813 2.1766,18.8636 9.2109,35.9576 19.6089,51.6329 11.8418,17.8645 28.2969,30.7022 46.675,41.2568 0.7705,0.4447 1.6693,0.7861 2.5432,0.8675 7.5479,0.711 15.1146,1.353 23.2858,2.0702"
           style="fill:#9b3b3c;fill-opacity:1;fill-rule:evenodd;stroke:none;stroke-width:0.313192"
           id="path43007" />
        <path
           d="m -3471.0992,-2536.5066 c -1.9073,-0.5074 -2.9596,-1.1025 -3.9399,-0.996 -10.2915,1.1275 -20.7584,1.5629 -30.8244,3.7865 -11.657,2.5745 -23.0728,6.4173 -34.3791,10.3354 -9.2861,3.2102 -18.2309,7.3913 -27.3698,11.04 -13.8494,5.5247 -22.8944,16.2703 -29.3179,28.9295 -2.3897,4.6979 -1.8573,11.3157 -1.3186,16.9312 0.4886,5.105 4.9547,7.4133 9.8812,7.8549 9.4302,0.8456 18.7947,0.081 27.1005,-4.6948 18.3124,-10.5232 36.7594,-20.893 54.4046,-32.4811 13.3232,-8.7506 23.6492,-21.0246 32.6159,-34.2507 1.1964,-1.7633 1.901,-3.8554 3.1475,-6.4549"
           style="fill:#9b3b3c;fill-opacity:1;fill-rule:evenodd;stroke:none;stroke-width:0.313192"
           id="path43009" />
        <path
           d="m -3377.5988,-2585.2049 c 6.8965,4.3002 12.5402,7.9551 18.3499,11.3157 1.115,0.642 3.1445,0.6577 4.3221,0.075 11.3344,-5.5529 23.3078,-8.3435 35.8793,-8.4969 16.7025,-0.2005 33.3268,-1.6067 48.598,-8.7005 7.93,-3.6863 15.6126,-8.8226 21.9172,-14.861 9.615,-9.211 5.1864,-23.8746 -7.6419,-26.4584 -6.1135,-1.234 -12.6905,-1.0555 -18.9544,-0.4761 -9.402,0.8769 -18.7633,2.4241 -28.062,4.131 -18.7101,3.4232 -35.0806,11.632 -49.309,24.3601 -5.1238,4.5851 -11.0337,8.2933 -16.5522,12.4494 -2.7028,2.0295 -5.3336,4.1529 -8.547,6.6616"
           style="fill:#9b3b3c;fill-opacity:1;fill-rule:evenodd;stroke:none;stroke-width:0.313192"
           id="path43011" />
        <path
           d="m -3338.1679,-2494.2789 c 8.5846,29.8754 20.4013,57.9468 39.6063,82.3382 4.7949,6.0884 10.9241,11.1371 16.5522,16.5459 4.8858,4.6979 10.9774,5.4214 17.3132,4.463 1.2967,-0.2036 2.8062,-1.5096 3.5047,-2.7122 3.6111,-6.2326 3.2666,-13.0695 1.8133,-19.6842 -7.1815,-32.6221 -24.1126,-58.6139 -52.8417,-76.3562 -1.638,-1.021 -3.6331,-1.7006 -5.5467,-1.9856 -6.6302,-0.9866 -13.295,-1.7257 -20.4013,-2.6089"
           style="fill:#9b3b3c;fill-opacity:1;fill-rule:evenodd;stroke:none;stroke-width:0.313192"
           id="path43013" />
        <path
           d="m -3814.2857,-2648.8799 c 5.3572,-10.2978 10.6899,-20.7709 16.2688,-31.1157 1.3542,-2.5118 3.5651,-4.5475 5.2801,-6.8777 0.695,-0.949 1.5769,-2.1046 1.5857,-3.1695 0.1957,-18.3844 0.2728,-36.7687 0.3523,-55.1531 0,-0.5043 -0.2264,-1.0085 -0.3611,-1.5628 -9.5974,8.879 -23.7534,69.2342 -23.1258,97.8788"
           style="fill:#bc4749;fill-opacity:1;fill-rule:evenodd;stroke:none;stroke-width:0.313192"
           id="path43015" />
        <path
           d="m -3770.1538,-2887.3757 c -10.6241,17.4041 -16.0511,68.0096 -10.8455,100.7257 4.1915,-7.0249 11.1832,-11.9859 10.9605,-22.0519 -0.5431,-24.7484 0.067,-49.525 0.197,-74.2922 0.01,-1.0054 -0.1397,-2.0107 -0.312,-4.3816"
           style="fill:#698da4;fill-opacity:1;fill-rule:evenodd;stroke:none;stroke-width:0.313192"
           id="path43017" />
        <path
           d="m -3799.0457,-2753.9997 c 4.0677,-6.6178 8.7863,-12.8628 8.6616,-21.4192 -0.1773,-12.5121 -0.045,-25.0241 -0.045,-37.5361 -0.6323,-0.069 -1.2684,-0.1347 -1.9061,-0.2036 -2.9459,19.5244 -5.8955,39.0425 -8.8414,58.5669 0.7097,0.1942 1.4178,0.3915 2.1313,0.592"
           style="fill:#bc4749;fill-opacity:1;fill-rule:evenodd;stroke:none;stroke-width:0.313192"
           id="path43019" />
      </g>
    </g>
  </g>
</svg>
