<?xml version="1.0" encoding="UTF-8" standalone="no"?>
<!-- Created with Inkscape (http://www.inkscape.org/) -->

<svg
   version="1.1"
   id="svg28611"
   width="150.88989"
   height="133.56136"
   viewBox="0 0 150.88989 133.56136"
   sodipodi:docname="1469336_203387-OZE7CT-812.eps"
   xmlns:inkscape="http://www.inkscape.org/namespaces/inkscape"
   xmlns:sodipodi="http://sodipodi.sourceforge.net/DTD/sodipodi-0.dtd"
   xmlns="http://www.w3.org/2000/svg"
   xmlns:svg="http://www.w3.org/2000/svg">
  <defs
     id="defs28615" />
  <sodipodi:namedview
     id="namedview28613"
     pagecolor="#ffffff"
     bordercolor="#000000"
     borderopacity="0.25"
     inkscape:showpageshadow="2"
     inkscape:pageopacity="0.0"
     inkscape:pagecheckerboard="0"
     inkscape:deskcolor="#d1d1d1"
     showgrid="false" />
  <g
     id="g28619"
     inkscape:groupmode="layer"
     inkscape:label="Page 1"
     transform="matrix(1.3333333,0,0,-1.3333333,-1608.944,756.10986)">
    <g
       id="g28621"
       transform="scale(0.1)">
      <path
         d="m 13198.674,5204.1641 c 0.02,0 0.03,-0.01 0.04,-0.01 0.02,0 0.03,0 0.04,0 l -0.08,0.01"
         style="fill:#e1ebe7;fill-opacity:1;fill-rule:nonzero;stroke:none"
         id="path28839" />
      <path
         d="m 12395.164,4845.7241 c -22.29,-6.9 -23.85,-21.45 -11.39,-44.46 6.91,-9.36 24.12,-13.2 34.92,-7.66 1.41,0.72 3.79,0.58 3.15,3.72 -1.62,8.12 4.14,14.73 5.12,22.33 1.82,13.96 -18.34,30.24 -31.8,26.07"
         style="fill:#e1ebe7;fill-opacity:1;fill-rule:nonzero;stroke:none"
         id="path28871"
         inkscape:export-filename="../regalo3.svg"
         inkscape:export-xdpi="96"
         inkscape:export-ydpi="96" />
      <path
         d="m 12937.434,5133.2941 c -11.32,-2.13 -21.64,-7.56 -25.42,-20.15 -0.02,0.01 -0.04,0.03 -0.07,0.04 v -0.01 0.01 -0.01 c -4.64,-7.33 -5.72,-14.98 1.09,-21.15 7.65,-6.91 15.79,-13.4 27.72,-8.95 12.76,4.77 20.9,14.29 21.57,26.88 0.9,16.7 -8.61,26.4 -24.89,23.34"
         style="fill:#e1ebe7;fill-opacity:1;fill-rule:nonzero;stroke:none"
         id="path28889" />
      <path
         d="m 13092.444,5650.5141 c 0,0 0.01,0.01 0.01,0.02 v 0.01 l -0.01,-0.03"
         style="fill:#e1ebe7;fill-opacity:1;fill-rule:nonzero;stroke:none"
         id="path28923" />
      <path
         d="m 12994.684,5670.8241 v -0.01 c -0.01,-0.03 -0.01,-0.06 -0.02,-0.09 l 0.02,0.1"
         style="fill:#e1ebe7;fill-opacity:1;fill-rule:nonzero;stroke:none"
         id="path28927" />
      <path
         d="m 12353.774,5093.6241 c 2.9,-6.3 -0.6,-14.49 9.2,-14.82 3.19,-0.11 5.56,3.18 5.61,6.56 0.14,10.09 -6.92,8.04 -14.81,8.26"
         style="fill:#e1ebe7;fill-opacity:1;fill-rule:nonzero;stroke:none"
         id="path29051" />
      <path
         d="m 12732.354,5427.7441 z m 16,-21.67 c -0.19,-0.14 -0.39,-0.27 -0.58,-0.39 0.15,0.19 0.25,0.46 0.36,0.7 0.08,-0.11 0.15,-0.22 0.22,-0.31 z m -39.04,-19.42 v 0 l -0.32,-0.01 c 0.12,0.02 0.23,0.05 0.34,0.07 -0.01,-0.02 -0.01,-0.04 -0.02,-0.06 z m 73.41,25.3 c 3.44,2.63 7.7,4.7 7.08,10.16 7.8,13.2 6.86,18.6 -4.43,25.38 0.04,0.03 0.08,0.05 0.12,0.08 l -0.31,0.05 v 0 h -0.01 l 0.01,-0.01 c 0.01,-0.02 0.01,-0.04 0.03,-0.06 -12.01,-0.8 -24.02,-1.51 -36.01,-2.45 -10.59,-0.82 -16.63,-6.28 -16.84,-17.29 -0.55,-1.74 -0.81,-3.54 -0.87,-5.37 -1.39,-2.58 -2.8,-5.16 -4.2,-7.74 -19.1,-5.08 -22.18,-9.81 -18.3,-28.06 v 0 c -1.14,-5.16 -1.65,-11.34 3.11,-13.84 6.13,-3.24 10.28,2.12 14.11,6.64 2.44,2.87 5.99,4.89 5.7,9.36 l -0.36,0.14 c 0.01,0.03 0.01,0.06 0.03,0.09 0.11,-0.08 0.23,-0.15 0.33,-0.23 3.18,2.86 7.26,4.81 6.14,10.6 -1.24,6.44 -0.77,6.55 7.23,4.44 8.4,-10.26 15.42,-3.19 22.59,1.91 h 0.05 c 1.94,-0.25 3.9,-0.45 5.86,-0.22 0.82,0.78 1.77,1.34 2.85,1.67 v 0 0 c 4.49,-1.56 6.48,0.08 6.09,4.75"
         style="fill:#e1ebe7;fill-opacity:1;fill-rule:nonzero;stroke:none"
         id="path29243" />
      <path
         d="m 12438.734,5279.0941 h 0.01 c 1.94,-2.53 4.2,-4.46 7.69,-4.04 v 0 l 0.15,-0.02 c 1.86,-0.14 3.7,-0.32 5.56,-0.53 0.86,0.77 1.77,1.46 2.75,2.08 2.66,1.9 4.69,4.14 4.25,7.75 v 0 c 1.03,0.81 2.06,1.61 3.1,2.42 0.09,1.85 0.54,3.63 0.83,5.46 v 0.01 c 0.21,1.83 0.49,3.64 0.8,5.46 v 0 l 0.01,0.01 v -0.01 c 0.58,12.86 -10.1,13.07 -18.06,15.03 -14.39,3.53 -16.65,0.86 -15.55,-15.58 l -1.55,-1.16 -1.56,-1.15 c -0.18,-1.85 -0.45,-3.68 -0.84,-5.48 2.32,-3.14 4.64,-6.27 6.95,-9.41 v 0 0 c 1.82,-0.28 3.64,-0.56 5.46,-0.84"
         style="fill:#e1ebe7;fill-opacity:1;fill-rule:nonzero;stroke:none"
         id="path29267" />
      <path
         d="m 12630.804,4901.1841 c 0,0 -0.08,-0.3 -0.08,-0.32 0.03,0.11 0.05,0.22 0.08,0.32 z m -1.42,47.04 c 0,0.01 0.13,0.55 0.13,0.55 0,-0.21 0,-0.44 0,-0.66 -0.04,0.05 -0.09,0.08 -0.13,0.11 z m 20.37,-33.25 c 0.26,1.81 0.52,3.62 0.78,5.43 l -0.39,0.05 c -0.02,0.02 -0.03,0.05 -0.04,0.08 0.13,-0.05 0.28,-0.09 0.43,-0.13 1.44,3.18 0.29,5.94 -1.39,8.61 l -0.31,0.04 v 0 c 0.09,-0.01 0.2,-0.02 0.31,-0.04 0.49,8.59 -3.5,13.89 -11.8,16.01 v 0 c -2.08,2.36 -4.37,4.26 -7.83,3.76 v 0 c -1.81,0.28 -3.61,0.58 -5.42,0.87 l -0.06,-0.36 c 0,-0.01 0,-0.01 -0.01,-0.01 0.02,0.13 0.04,0.25 0.07,0.37 -6.1,1.62 -9.27,-0.78 -9.63,-7.02 l 0.27,-0.08 0.01,-0.01 c -0.09,0.03 -0.19,0.06 -0.28,0.09 -6.37,-3.9 -9.17,-10.19 -5.36,-16.15 6,-9.38 5.59,-24.66 21.62,-25.63 v 0 c 3.65,-5.61 9.01,-9.13 15.18,-11.08 6.33,-1.99 11.54,-0.96 12.24,7.18 v 0 c 1.93,8.2 -5.39,12.11 -8.39,18.02 -0.12,-0.05 -0.25,-0.08 -0.37,-0.12 0.03,0.05 0.03,0.09 0.06,0.14 l 0.31,-0.02"
         style="fill:#e1ebe7;fill-opacity:1;fill-rule:nonzero;stroke:none"
         id="path29293" />
      <path
         d="m 12298.046,5452.8128 c -17.501,-6.4267 -32.349,-15.1084 -44.642,-28.5192 11.936,-4.0371 23.408,-7.9175 35.359,-11.964 3.044,13.2794 6.101,26.6119 9.283,40.4832 z m 43.286,-186.1426 c -0.02,-0.6514 -0.05,-1.3029 -0.08,-1.9512 47.383,-7.1345 94.763,-14.2721 142.14,-21.4066 0.162,0.7516 0.335,1.5001 0.501,2.2518 -3.89,1.3561 -7.711,2.9378 -11.673,4.0214 -19.853,5.4401 -39.844,10.4011 -59.594,16.1764 -23.787,6.956 -47.477,5.7439 -71.295,0.9082 z m 649.426,-297.7862 c 13.514,13.3358 26.493,25.0241 35.682,40.0949 3.076,5.0424 2.578,11.0807 -0.319,15.763 -4.839,7.8141 -10.768,14.9674 -16.349,22.3055 -0.742,0.9772 -2.155,1.4344 -2.953,1.9481 -5.296,-26.4115 -10.505,-52.394 -16.061,-80.1115 z m -411.137,290.9806 c -4.162,3.2728 -8.387,6.7618 -12.825,9.9501 -0.974,0.6984 -2.878,0.8049 -4.074,0.3852 -9.124,-3.157 -17.511,-7.5385 -22.748,-16.0887 -1.23,-2.0138 -1.966,-4.7824 -1.785,-7.1188 0.473,-6.3296 1.688,-12.6029 2.381,-18.9262 1.074,-9.7497 11.268,-19.1862 19.856,-19.3302 2.772,6.0007 4.291,12.4149 8.108,16.8372 5.51,6.3859 12.384,11.7415 19.252,16.7526 5.403,3.9368 5.832,4.0433 2.334,9.5304 -1.926,3.0161 -4.109,3.9588 -7.26,2.3114 -3.383,-1.7633 -6.634,-3.7959 -10.091,-5.3932 -1.776,-0.8174 -3.868,-0.9521 -5.819,-1.3937 0.708,2.064 0.805,4.8764 2.239,6.0384 3.304,2.6778 7.25,4.5538 10.432,6.4455 z m 380.566,-197.6243 c 9.174,-15.3965 10.229,-32.1554 12.127,-48.7358 1.917,-16.7651 4.072,-33.5084 6.12,-50.2579 0.686,-0.4698 1.369,-0.9365 2.061,-1.4062 0.435,1.1713 0.952,2.3238 1.293,3.5234 1.507,5.2334 3.273,10.4073 4.382,15.7253 2.69,12.9944 5.359,26.0044 7.479,39.0989 1.685,10.3949 2.743,20.9087 3.589,31.4038 0.15,1.8948 -1.65,5.1677 -3.304,5.7815 -10.63,3.9744 -21.748,5.2617 -33.747,4.867 z m -209.638,153.508 c -0.138,-0.4666 -0.282,-0.9333 -0.426,-1.4062 16.042,-4.7449 31.842,-10.7143 48.175,-13.9465 24.455,-4.8356 49.281,-7.7922 73.964,-11.4597 9.176,-1.3717 18.475,-2.067 27.58,-3.8146 12.869,-2.4649 25.584,-5.7189 38.409,-8.4406 11.532,-2.4491 23.12,-4.6446 34.683,-6.9434 0.254,0.4823 0.508,0.9646 0.761,1.45 -8.75,8.4876 -14.513,20.3387 -29.349,21.6103 -20.147,1.7257 -40.22,4.4097 -60.324,6.6428 -29.355,3.2572 -58.726,6.3108 -88.054,9.7904 -15.18,1.8008 -30.282,4.322 -45.419,6.5175 z m 183.139,-155.5468 c -0.291,-3.0004 -0.313,-5.3869 -0.773,-7.6826 -5.375,-26.6182 -10.874,-53.2051 -16.108,-79.8484 -0.404,-2.0576 0.229,-5.1927 1.626,-6.5645 5.051,-4.9735 10.595,-9.4552 16.057,-14.0059 0.905,-0.7485 2.34,-1.3499 3.476,-1.2653 10.928,0.8143 21.561,2.9033 31.605,7.5479 -0.605,4.2218 -1.256,7.9833 -1.657,11.7698 -2.556,24.1095 -4.848,48.2472 -7.723,72.3098 -0.627,5.2866 -2.825,10.5326 -5.152,15.384 -0.937,1.9574 -4.125,3.918 -6.333,3.9744 -4.864,0.1221 -9.753,-0.9741 -15.018,-1.6192 z m -24.106,-83.5597 c 6.157,26.994 13.32,54.0476 16.414,82.5449 -25.879,-0.9364 -50.965,-0.4917 -75.589,5.3807 -24.491,5.8379 -47.805,14.8641 -69.926,26.9658 6.07,-6.9372 12.064,-13.7084 18.575,-19.9347 6.28,-6.0007 13.001,-11.5599 19.71,-17.0971 6.038,-4.9704 13.169,-8.8853 18.356,-14.5854 21.623,-23.7901 45.24,-45.2312 72.46,-63.2742 z m -337.997,495.993 c -40.076,3.1883 -79.156,6.292 -118.051,9.3832 12.211,-11.6664 24.275,-23.7556 36.947,-35.1746 25.631,-23.0854 46.43,-49.7381 61.67,-80.7096 0.824,-1.6725 1.811,-3.2635 2.719,-4.8858 0.617,0.069 1.234,0.1378 1.851,0.2161 -0.908,37.8618 7.67,74.4332 14.864,111.1707 z m -156.452,-103.5852 c 0.482,0.6671 0.968,1.3373 1.453,2.0076 -10.338,15.3746 -19.903,31.3442 -31.216,45.964 -15.142,19.5808 -31.381,38.3347 -47.686,56.9759 -6.994,7.999 -15.334,14.8172 -23.634,22.7096 -0.573,-2.0451 -0.939,-3.0286 -1.121,-4.0464 -4.184,-23.2984 -8.428,-46.5874 -12.499,-69.9045 -2.822,-16.1513 -2.782,-16.358 12.703,-22.0519 10.77,-3.9556 21.694,-7.5228 32.666,-10.8834 23.072,-7.0562 46.221,-13.8619 69.334,-20.7709 z m -107.444,130.7264 c -9.157,3.4012 -18.346,7.5855 -27.961,10.1944 -14.116,3.8303 -28.686,6.7837 -42.748,-0.072 -9.959,-4.8482 -19.888,-10.0347 -28.983,-16.2891 -5.628,-3.8711 -12.183,-9.2862 -13.987,-15.3057 -6.818,-22.719 -2.274,-31.9707 18.106,-41.1316 2.812,-1.2621 5.834,-2.0702 8.791,-2.9878 6.611,-2.0483 13.311,-3.8523 19.85,-6.1073 3.026,-1.0429 4.867,-0.5355 7.081,1.826 9.897,10.5608 20.637,20.0129 34.367,25.5533 5.208,2.1015 10.135,4.9641 15.052,7.7108 1.196,0.6734 2.386,2.1485 2.703,3.4639 2.631,10.7456 5.048,21.5382 7.729,33.1451 z m 699.064,-336.6471 c 3.119,21.1499 6.267,41.2944 8.985,61.4953 1.134,8.4468 2.713,17.1692 1.704,25.4782 -1.835,15.1428 -5.741,30.0257 -8.268,45.1028 -5.243,31.2534 -10.182,62.5601 -15.171,93.8605 -1.698,10.6235 -3.173,21.2845 -4.748,31.9331 -1.388,-2.4774 -1.785,-4.9516 -2.117,-7.4289 -6.577,-49.1681 -13.013,-98.3486 -19.782,-147.4853 -2.887,-20.9589 -6.536,-41.8081 -9.618,-62.7324 -0.282,-1.9042 0.461,-4.557 1.717,-5.9914 7.676,-8.7161 15.615,-17.1942 23.514,-25.7099 1.569,-1.6944 3.113,-4.0527 5.089,-4.6008 5.917,-1.6693 12.04,-2.587 18.695,-3.9212 z m -81.139,-470.9438 c 0.464,-0.019 0.927,-0.038 1.391,-0.05 7.441,36.2836 12.944,72.9143 19.324,109.4043 6.411,36.681 15.017,72.9831 22.637,109.3102 -20.749,4.8389 -41.081,9.5806 -61.407,14.3192 -3.571,-15.5093 -6.822,-29.8942 -10.21,-44.2415 -1.698,-7.1972 -2.744,-14.2377 0.711,-21.319 1.083,-2.2205 1.193,-4.9453 1.553,-7.4696 2.96,-20.5861 5.653,-41.2067 8.879,-61.749 1.638,-10.4261 4.548,-20.6519 6.295,-31.0718 3.032,-18.1281 5.581,-36.3396 8.406,-54.5048 0.655,-4.2343 1.607,-8.4242 2.421,-12.6279 z m -333.026,572.5371 c 18.102,32.9697 38.19,65.0782 53.803,99.2318 15.587,34.0941 27.41,70.0078 34.15,108.1421 -33.887,1.2496 -67.179,2.4742 -99.858,3.6768 -3.83,-19.4555 -7.905,-37.2416 -10.708,-55.2251 -2.806,-17.9835 -4.219,-36.1831 -6.461,-54.2574 -1.485,-11.9389 -2.762,-23.7588 3.116,-35.0337 0.736,-1.4156 0.987,-3.1288 1.291,-4.7355 3.006,-16.1137 5.869,-32.2556 9.051,-48.3318 0.545,-2.7404 1.785,-6.007 3.821,-7.6356 3.025,-2.4116 7.05,-3.586 11.795,-5.8316 z m 529.172,-129.9246 c -7.047,1.5189 -13.373,3.1757 -19.797,4.2155 -19.061,3.0912 -38.244,5.5091 -57.232,8.9636 -42.316,7.6951 -84.553,15.8193 -126.812,23.837 -20.931,3.9776 -41.701,9.0763 -62.782,11.9452 -32.162,4.3721 -64.543,7.1376 -95.095,19.349 -5.982,2.3928 -12.321,3.8679 -19.324,6.0195 0.937,-1.2371 1.171,-1.8133 1.591,-2.0608 5.644,-3.3543 11.344,-6.5989 16.966,-9.9908 33.364,-20.157 68.842,-36.0609 105.026,-50.1452 42.44,-16.5209 85.595,-31.2127 128.271,-47.1385 12.731,-4.7511 25.722,-9.6369 34.375,-21.3096 0.724,-0.9678 2.497,-1.447 3.853,-1.6192 4.516,-0.5982 9.051,-1.0116 13.595,-1.3843 17.433,-1.4157 34.871,-2.8125 52.31,-4.1686 5.9,-0.4573 11.81,-0.7579 18.049,-1.1557 2.374,21.9203 4.667,43.0514 7.006,64.6429 z m -629.669,190.402 c 0.228,0.4666 0.454,0.9364 0.689,1.4031 -6.255,3.1851 -12.403,6.5958 -18.776,9.521 -28.667,13.1447 -57.242,26.7466 -88.37,33.1326 -29.29,6.0102 -56.554,17.877 -84.509,27.7488 -8.178,2.8877 -15.725,7.5667 -23.912,10.398 -17.906,6.1918 -35.942,12.0704 -54.114,17.4479 -15.816,4.6823 -30.805,10.1506 -39.349,26.756 -2.449,-11.112 -2.092,-21.4129 1.212,-31.1156 7.398,-21.7324 15.162,-43.3646 23.771,-64.6335 2.214,-5.4714 7.673,-9.9939 12.465,-13.9589 5.005,-4.1436 10.956,-7.1753 16.584,-10.5421 12.659,-7.5667 25.456,-14.9048 38.034,-22.5999 6.705,-4.106 13.636,-4.0684 21.028,-2.8783 34.538,5.5498 69.015,11.6758 103.697,16.1451 30.324,3.9086 60.832,7.7202 91.55,3.1758 z m -412.947,-102.2228 c 0.996,0.1441 2.427,0.213 3.783,0.5575 16.076,4.0746 32.068,8.4937 48.222,12.227 28.401,6.5582 56.663,14.2628 85.414,18.6412 40.355,6.1511 80.935,10.5608 120.789,19.9942 23.376,5.5403 47.239,7.4446 70.988,1.0053 14.084,-3.8209 28.125,-7.7953 42.246,-11.4691 19.431,-5.0518 38.673,-10.185 55.877,-21.4223 7.391,-4.8357 16.383,-7.216 25.757,-11.1841 -0.943,5.1019 -1.444,8.8759 -2.368,12.5496 -1.325,5.2773 -0.636,10.0378 2.484,14.5634 5.531,8.0303 12.537,14.1563 21.695,17.7173 1.757,0.6796 3.426,1.5816 6.342,2.9472 -6.205,5.9255 -12.152,10.6078 -16.856,16.3141 -8.669,10.5202 -19.966,14.9737 -32.87,17.7361 -31.748,6.7994 -63.587,5.365 -95.288,1.1713 -50.227,-6.6396 -100.253,-14.8421 -150.492,-21.3847 -34.135,-4.4411 -68.47,-7.4133 -102.768,-10.5734 -20.145,-1.8572 -40.377,-2.7435 -60.559,-4.2531 -1.309,-0.1003 -3.176,-1.5597 -3.633,-2.8031 -6.32,-17.2538 -12.434,-34.5733 -18.763,-52.3344 z m 211.799,294.2346 c -0.175,-0.5262 -0.357,-1.0523 -0.536,-1.5754 1.836,-0.6827 3.737,-1.2465 5.503,-2.0796 8.698,-4.0965 18.457,-6.8933 25.776,-12.7375 11.146,-8.904 22.24,-18.3155 29.788,-31.0029 2.768,-4.654 6.595,-8.7255 10.232,-12.8064 21.475,-24.1189 43.374,-48.028 57.289,-77.5777 5.941,-12.6154 15.274,-18.8072 27.893,-23.4017 20.861,-7.6043 41.172,-16.8028 58.501,-31.3255 1.838,-1.544 4.544,-2.4366 6.975,-2.8281 16.652,-2.7029 29.944,-10.708 40.148,-24.1847 4.541,-5.9976 9.749,-11.4785 15.349,-18.0023 -0.138,2.6841 -0.07,4.2939 -0.313,5.8536 -4.4,28.0338 -10.999,55.3097 -24.714,80.5906 -14.034,25.8759 -31.335,49.1179 -52.491,69.5161 -9.443,9.117 -19.08,18.0305 -28.482,27.1819 -15.302,14.8829 -32.81,26.7905 -53.468,31.8016 -26.001,6.3108 -52.557,10.3009 -78.874,15.2869 -12.857,2.4366 -25.716,4.8576 -38.576,7.2911 z m -51.692,-335.2753 c 3.833,1.0429 7.072,2.421 10.416,2.7498 24.758,2.4179 49.551,2.3959 74.255,-0.5105 23.349,-2.7467 46.622,-6.0822 69.92,-9.2517 18.41,-2.5024 37.004,-4.1936 55.163,-7.9519 25.34,-5.2522 50.947,-6.7368 76.616,-8.1211 1.776,-0.097 4.501,1.3718 5.362,2.9064 5.161,9.2235 9.966,18.6475 14.776,28.0714 1.879,3.6926 3.461,7.5354 4.347,9.496 -6.151,7.7641 -11.359,14.3849 -16.633,20.9588 -1.125,1.4 -2.252,3.204 -3.777,3.8147 -11.141,4.4223 -22.062,10.6548 -33.65,12.4181 -28.247,4.3064 -56.854,6.2043 -85.241,9.662 -15.187,1.8478 -30.22,4.9296 -45.322,7.4508 -14.73,2.4617 -29.447,4.986 -44.195,7.3256 -2.433,0.3852 -5.045,0.2662 -7.482,-0.1472 -17.075,-2.8877 -34.075,-6.2326 -51.204,-8.6974 -5.064,-0.7297 -7.034,-2.4491 -8.18,-7.2504 -4.611,-19.3083 -9.647,-38.5101 -14.479,-57.7651 -0.385,-1.5221 -0.436,-3.1319 -0.692,-5.1583 z m 337.962,39.6658 c -0.651,0.056 -1.303,0.1096 -1.954,0.1722 -1.381,-4.1654 -4.363,-8.5501 -3.818,-12.44 1.228,-8.7505 3.094,-17.7485 6.649,-25.7819 18.406,-41.6139 48.122,-74.6995 82.119,-103.8639 41.642,-35.7196 84.468,-70.058 126.495,-105.3328 19.838,-16.6493 42.798,-24.8142 68.126,-26.0607 17.617,-0.8738 35.328,0.097 52.995,0.4228 5.13,0.094 10.248,0.8143 15.835,1.2778 -7.1,6.6992 -13.471,12.9098 -20.063,18.8855 -5.519,5.0048 -10.834,10.4356 -17.038,14.4288 -11.939,7.6826 -21.858,17.4886 -32.046,27.1694 -13.041,12.393 -24.169,26.7278 -39.346,37.0287 -8.782,5.96 -16.405,13.7241 -24.15,21.0966 -16.408,15.6346 -30.48,33.5867 -49.917,46.199 -24.598,15.9602 -48.25,33.3675 -72.485,49.8977 -5.074,3.4608 -10.796,6.0666 -16.436,8.594 -12.44,5.5749 -24.962,10.9837 -37.561,16.2077 -15.979,6.6209 -29.024,16.5835 -37.405,32.0991 z m 1.112,3.7144 c 16.405,-18.4125 36.978,-27.16 57.251,-36.2927 10.943,-4.9327 22.926,-7.9676 33.133,-14.0498 19.719,-11.7353 39.403,-23.8809 57.458,-37.962 22.935,-17.8801 47.43,-32.6659 73.801,-44.5234 10.946,-4.9233 22.111,-9.4897 33.477,-13.3263 29.806,-10.0535 60.565,-12.7312 91.79,-10.1975 16.878,1.3749 33.587,3.9775 50.703,2.2299 32.515,-3.3104 54.27,-23.1386 59.059,-54.6865 1.199,-7.9206 -0.08,-14.7544 -5.813,-20.6487 -7.623,-7.8455 -15.068,-15.8726 -22.581,-23.8245 -12.7,-13.4485 -28.711,-21.5383 -46.212,-25.8259 -27.091,-6.6334 -54.862,-7.0844 -82.633,-6.0289 -3.016,0.1159 -6.022,0.3883 -9.029,0.5888 2.355,-1.3624 4.82,-1.7977 7.269,-2.2769 18.071,-3.5422 36.437,-6.0384 54.132,-10.9242 21.573,-5.96 43.399,-8.8257 65.558,-10.9304 29.437,-2.803 55.472,23.8903 57.64,46.2898 1.086,11.253 -0.232,22.9163 -1.839,34.2006 -1.844,12.9442 -3.905,26.02 -10.379,37.7929 -5.011,9.1108 -9.565,18.4877 -14.939,27.3761 -5.005,8.2652 -10.401,16.7589 -19.753,20.6237 -22.393,9.2642 -44.934,18.1902 -67.571,26.8531 -36.938,14.1375 -74.791,25.7068 -111.112,41.6796 -30.332,13.3389 -59.509,28.607 -87.75,45.6885 -16.655,10.0754 -34.056,18.2904 -52.121,25.1994 -28.322,10.8208 -58.204,13.2449 -88.064,15.6095 -0.858,0.069 -1.901,-0.078 -2.605,-0.523 -6.242,-3.9337 -12.428,-7.9582 -18.87,-12.1112 z m 34.686,-112.2386 c -0.363,-0.7548 -0.755,-1.2121 -0.789,-1.6975 -1.735,-25.4657 -3.192,-50.9501 -5.224,-76.3876 -2.271,-28.3439 -4.47,-56.7159 -7.858,-84.9345 -2.077,-17.3102 -7.498,-34.1536 -6.687,-51.9367 0.263,-5.7032 2.336,-6.8933 7.401,-7.1376 15.468,-0.7423 30.965,-1.5221 46.365,-3.1131 16.12,-1.6631 32.08,-5.1019 48.219,-6.3202 40.53,-3.0599 81.113,-5.4402 121.697,-7.7985 15.077,-0.8707 30.213,-0.8363 45.316,-1.3969 6.893,-0.2599 13.764,-1.0053 20.651,-1.45 3.032,-0.1911 4.291,1.3154 5.002,4.394 3.426,14.908 7.188,29.7407 10.799,44.608 0.498,2.0357 0.852,4.109 1.297,6.2951 -2.224,0.5074 -3.796,1.0085 -5.403,1.2183 -19.023,2.4805 -37.696,6.408 -56.005,12.2646 -19.026,6.0822 -37.746,12.772 -53.584,25.3404 -15.704,12.4682 -31.015,25.4343 -46.478,38.2126 -13.768,11.3814 -27.661,22.625 -41.225,34.2507 -22.137,18.9732 -44.163,38.081 -65.99,57.4175 -6.223,5.509 -11.594,11.9858 -17.504,18.1714 z m -55.899,86.1403 c -1.816,-4.4661 -3.132,-8.8977 -5.305,-12.8628 -15.588,-28.5286 -25.769,-59.0962 -34.959,-90.121 -9.057,-30.5581 -14.998,-61.4577 -16.473,-93.4596 -0.993,-21.579 -3.752,-43.3615 -8.551,-64.408 -5.43,-23.8026 -7.093,-46.888 -1.415,-70.7876 7.191,-30.3139 13.373,-60.8721 19.768,-91.3707 4.407,-21.0374 8.485,-42.14 12.588,-63.2338 0.827,-4.271 3.185,-5.5275 7.281,-5.3428 19.446,0.8858 38.526,-2.0676 57.625,-5.3145 8.506,-1.451 17.3,-1.238 26.777,-1.8265 -1.791,8.8173 -2.455,16.9944 -5.155,24.4264 -7.742,21.2937 -10.846,43.5553 -14.172,65.6886 -4.03,26.85 -6.893,53.8847 -9.705,80.9007 -2.068,19.7781 -3.508,39.6282 0.886,59.378 2.098,9.4334 4.322,18.9043 5.399,28.4723 2.359,21.0152 4.181,42.0931 5.945,63.1615 2.674,31.98 5.167,63.9789 7.538,95.9808 0.151,2.0702 -1.09,4.4662 -2.239,6.3829 -11.053,18.422 -22.378,36.6811 -33.258,55.2032 -2.346,4.0058 -3.862,8.7694 -4.607,13.3671 -0.799,4.9359 -3.029,6.5457 -7.968,5.7658 z m -43.374,-490.3958 c -12.709,63.2144 -25.346,126.0407 -38.049,189.2241 -94.312,7.5448 -189.184,15.1303 -284.911,22.7847 0.701,-3.2008 1.065,-5.1332 1.56,-7.0343 6.097,-23.2827 12.427,-46.5153 18.249,-69.8731 3.22,-12.9098 4.839,-26.2455 8.529,-38.9987 6.326,-21.8796 13.78,-43.4241 20.564,-65.1725 0.993,-3.1823 2.734,-4.3311 5.753,-4.5879 6.715,-0.5725 13.427,-1.2343 20.138,-1.9255 37.176,-3.8185 74.343,-7.7835 111.534,-11.4513 33.202,-3.2688 66.438,-6.1977 99.649,-9.3174 12.299,-1.1523 24.579,-2.4176 36.984,-3.6481 z m 79.285,175.7036 c 1.218,-10.0723 2.098,-18.3656 3.242,-26.6151 4.663,-33.7684 8.844,-67.6182 14.359,-101.2484 2.794,-17.0092 8.172,-33.5961 12.14,-50.4302 1.995,-8.4596 1.744,-8.6162 10.755,-9.2426 30.019,-2.1018 60.051,-3.9898 90.061,-6.204 34.555,-2.5497 69.084,-5.5006 103.642,-7.9864 18.735,-1.3568 37.517,-2.1238 56.274,-3.1504 11.432,-0.6336 22.86,-1.2465 33.624,-1.8288 -4.842,31.0339 -9.69,61.5886 -14.369,92.1559 -4.695,30.674 -9.223,61.3762 -13.871,92.3634 -98.242,1.6005 -196.528,8.9135 -295.857,22.1866 z m -66.926,267.7322 c -2.001,0 -3.812,-0.069 -5.606,0.01 -16.765,0.736 -33.599,0.7799 -50.271,2.4742 -13.37,1.3656 -26.458,5.3462 -39.813,7.1064 -35.061,4.6164 -70.176,8.9165 -105.323,12.8283 -24.523,2.7248 -49.14,3.2509 -73.735,0.4604 -7.112,-0.808 -8.459,-2.2237 -9.69,-8.8258 -6.671,-35.6475 -12.979,-71.3764 -20.263,-106.9018 -8.435,-41.1033 -17.752,-82.0282 -26.672,-123.0313 -0.413,-1.8854 -0.679,-3.8052 -1.055,-5.9569 94.772,-8.1304 188.92,-16.2139 282.762,-24.2692 1.738,9.1922 3.774,18.6349 5.268,28.1591 3.492,22.1395 8.603,44.229 9.621,66.4969 1.626,35.3845 8.212,69.4598 19.359,102.893 5.302,15.8663 10.144,31.8861 15.418,48.5573 z m 457.185,291.1246 c -14.316,1.8948 -27.601,4.0057 -40.962,5.3368 -26.856,2.6809 -53.741,5.1583 -80.65,7.2943 -22.725,1.8039 -45.504,2.9659 -68.251,4.4943 -32.942,2.2174 -65.883,4.4567 -98.812,6.8463 -4.228,0.3132 -5.904,-0.9552 -7.072,-5.1551 -5.716,-20.5172 -11.811,-40.9279 -17.871,-61.3512 -7.914,-26.6934 -19.436,-51.8396 -33.023,-76.0681 -6.683,-11.9201 -13.514,-23.765 -20.357,-35.5943 -5.472,-9.4615 -11.328,-18.7007 -16.499,-28.3157 -3.643,-6.7681 0.698,-13.4579 8.268,-13.937 25.538,-1.613 50.69,-5.1521 75.367,-12.4776 12.844,-3.8147 26.28,-5.9256 39.587,-7.8674 20.364,-2.9659 40.853,-5.0831 61.282,-7.6262 18.072,-2.255 36.124,-4.7355 54.208,-6.8589 21.901,-2.5651 43.828,-4.9046 65.754,-7.2567 15.187,-1.6286 30.396,-3.1131 46.788,-4.7887 10.796,81.4644 21.538,162.5248 32.243,243.3252 z m 31.078,-281.851 c 21.921,-3.3918 43.193,-6.5519 64.418,-10.0065 15.108,-2.4616 30.179,-5.1833 45.218,-8.0584 5.362,-1.0241 6.916,-4.0088 6.239,-10.3071 -2.011,-18.6788 -4.093,-37.3545 -6.066,-56.0395 -0.285,-2.7028 -0.304,-5.4621 -0.16,-8.1774 0.297,-5.8693 -1.814,-8.0553 -7.727,-7.4759 -26.862,2.637 -53.715,5.3148 -80.568,7.9644 -0.339,0.034 -0.692,-0.1002 -1.851,-0.285 4.507,-8.4718 8.757,-16.7902 13.301,-24.9488 11.081,-19.894 14.77,-41.3602 13.699,-63.8255 -0.332,-7.0781 -0.153,-14.3755 -1.845,-21.1655 -6.57,-26.4459 -33.536,-53.0735 -66.694,-49.4906 -13.47,1.4563 -13.207,1.0273 -15.948,-11.9514 -3.655,-17.2913 -8.208,-34.401 -11.719,-51.7237 -5.531,-27.3291 -10.235,-54.8211 -15.82,-82.1346 -4.848,-23.7331 -10.369,-47.3202 -15.716,-70.9443 -1.287,-5.6778 -3.163,-11.2147 -4.566,-16.8719 -1.256,-5.0477 -4.2,-7.262 -9.458,-6.9466 -15.838,0.953 -31.699,1.5537 -47.53,2.6157 -40.214,2.6929 -80.416,5.5495 -120.62,8.3717 -40.386,2.8334 -80.813,5.2888 -121.152,8.728 -23.311,1.9891 -46.475,5.6594 -69.726,8.4255 -5.788,0.6887 -11.638,0.7889 -17.457,1.1989 -37.408,2.6402 -74.831,5.0026 -112.205,8.0306 -26.715,2.1641 -53.352,5.2494 -80.026,7.8896 -24.498,2.4272 -49.002,4.7358 -73.491,7.2253 -13.239,1.3471 -26.48,2.7126 -39.634,4.6722 -2.656,0.3978 -6.402,3.0536 -7.122,5.4308 -8.24,27.3764 -16.565,54.7463 -23.703,82.4199 -6.956,26.9752 -12.656,54.2825 -18.707,81.4863 -1.97,8.8727 -3.392,17.8676 -4.876,26.8312 -0.288,1.7194 0.09,3.6205 0.482,5.3712 7.526,33.6212 15.397,67.1703 22.544,100.8729 3.855,18.162 6.088,36.6686 9.775,54.8713 3.686,18.2184 8.039,36.3115 12.59,54.3357 1.638,6.505 2.333,12.8753 1.112,19.349 -2.534,13.4422 1.149,26.0294 4.672,38.7043 4.958,17.8363 9.794,35.7133 15.09,55.0529 -20.345,-3.3919 -40.095,-5.7346 -59.387,-10.1005 -35.758,-8.0897 -71.23,-17.451 -106.883,-26.0544 -4.889,-1.1808 -10.104,-1.0523 -15.763,-1.5879 6.05,16.2766 11.622,30.9121 16.928,45.6446 3.088,8.5752 5.643,17.3415 8.731,25.9167 0.508,1.4187 2.418,3.2258 3.777,3.3135 20.558,1.2559 41.154,1.9418 61.696,3.3888 24.912,1.7538 49.813,3.8648 74.668,6.2826 12.312,1.1964 24.514,3.4451 37.358,5.3023 -10.122,5.9162 -19.7,11.394 -29.161,17.0753 -8.131,4.8795 -16.584,9.3958 -24.032,15.1867 -5.744,4.463 -12.155,9.8217 -14.795,16.2171 -9.286,22.5529 -18.115,45.4003 -25.134,68.7362 -7.222,24.0187 -0.325,46.6343 12.578,67.3144 3.066,4.9077 8.018,9.2799 13.082,12.1894 14.006,8.0491 28.225,15.8945 42.961,22.4653 10.918,4.8733 23.135,5.3556 34.993,3.7896 16.073,-2.1297 32.071,-4.8638 48.034,-7.7107 25.312,-4.5163 50.643,-8.9918 75.815,-14.2409 8.806,-1.8353 17.15,-5.8974 25.703,-8.9322 1.861,-0.6577 3.696,-1.6443 5.613,-1.8447 16.665,-1.7476 33.339,-3.4733 50.029,-4.9641 27.229,-2.4304 54.461,-4.8608 81.721,-6.8527 5.046,-0.3695 10.251,1.9951 15.371,1.9356 19.481,-0.2443 38.955,-1.0117 58.43,-1.4908 10,-0.2443 20.038,0.1628 29.991,-0.6233 5.982,-0.4666 11.823,-2.6684 17.73,-4.0715 1.058,-0.2505 2.123,-0.5042 3.197,-0.5794 31.11,-2.1454 62.241,-3.9744 93.319,-6.4674 39.97,-3.2071 79.895,-6.9811 119.84,-10.4262 15.074,-1.2997 30.182,-2.1955 45.25,-3.5923 11.948,-1.1118 23.849,-2.7028 35.776,-4.0934 6.593,-0.7642 7.833,-6.1135 8.597,-11.0745 2.314,-14.9674 3.909,-30.0382 6.248,-44.9994 5.071,-32.4467 10.273,-64.8684 15.729,-97.2493 2.756,-16.3486 7.093,-32.4874 8.957,-48.9206 1.084,-9.5524 -0.821,-19.5777 -2.252,-29.2616 -2.643,-17.8582 -5.932,-35.6224 -8.926,-53.4368 -0.263,-1.5753 -0.31,-3.182 -0.542,-5.6782"
         style="fill:#231f20;fill-opacity:1;fill-rule:evenodd;stroke:none;stroke-width:0.313192"
         id="path42915" />
      <path
         d="m 12983.282,5443.3826 c -10.705,-80.8004 -21.447,-161.8608 -32.243,-243.3252 -16.392,1.6756 -31.601,3.1601 -46.788,4.7887 -21.926,2.3521 -43.853,4.6916 -65.754,7.2567 -18.084,2.1234 -36.136,4.6039 -54.208,6.8589 -20.429,2.5431 -40.918,4.6603 -61.282,7.6262 -13.307,1.9418 -26.743,4.0527 -39.587,7.8674 -24.677,7.3255 -49.829,10.8646 -75.367,12.4776 -7.57,0.4791 -11.911,7.1689 -8.268,13.937 5.171,9.615 11.027,18.8542 16.499,28.3157 6.843,11.8293 13.674,23.6742 20.357,35.5943 13.587,24.2285 25.109,49.3747 33.023,76.0681 6.06,20.4233 12.155,40.834 17.871,61.3512 1.168,4.1999 2.844,5.4683 7.072,5.1551 32.929,-2.3896 65.87,-4.6289 98.812,-6.8463 22.747,-1.5284 45.526,-2.6904 68.251,-4.4943 26.909,-2.136 53.794,-4.6134 80.65,-7.2943 13.361,-1.3311 26.646,-3.442 40.962,-5.3368"
         style="fill:#99a88e;fill-opacity:1;fill-rule:evenodd;stroke:none;stroke-width:0.313192"
         id="path42917" />
      <path
         d="m 12526.097,5152.258 c -5.274,-16.6712 -10.116,-32.691 -15.418,-48.5573 -11.147,-33.4332 -17.733,-67.5085 -19.359,-102.893 -1.018,-22.2679 -6.129,-44.3574 -9.621,-66.4969 -1.494,-9.5242 -3.53,-18.9669 -5.268,-28.1591 -93.842,8.0553 -187.99,16.1388 -282.762,24.2692 0.376,2.1517 0.642,4.0715 1.055,5.9569 8.92,41.0031 18.237,81.928 26.672,123.0313 7.284,35.5254 13.592,71.2543 20.263,106.9018 1.231,6.6021 2.578,8.0178 9.69,8.8258 24.595,2.7905 49.212,2.2644 73.735,-0.4604 35.147,-3.9118 70.262,-8.2119 105.323,-12.8283 13.355,-1.7602 26.443,-5.7408 39.813,-7.1064 16.672,-1.6943 33.506,-1.7382 50.271,-2.4742 1.794,-0.078 3.605,-0.01 5.606,-0.01"
         style="fill:#99a88e;fill-opacity:1;fill-rule:evenodd;stroke:none;stroke-width:0.313192"
         id="path42919" />
      <path
         d="m 12593.023,4884.5258 c 99.329,-13.2731 197.615,-20.5861 295.857,-22.1866 4.648,-30.9872 9.176,-61.6894 13.871,-92.3634 4.679,-30.5673 9.527,-61.122 14.369,-92.1559 -10.764,0.5823 -22.192,1.1952 -33.624,1.8288 -18.757,1.0266 -37.539,1.7936 -56.274,3.1504 -34.558,2.4858 -69.087,5.4367 -103.642,7.9864 -30.01,2.2142 -60.042,4.1022 -90.061,6.204 -9.011,0.6264 -8.76,0.783 -10.755,9.2426 -3.968,16.8341 -9.346,33.421 -12.14,50.4302 -5.515,33.6302 -9.696,67.48 -14.359,101.2484 -1.144,8.2495 -2.024,16.5428 -3.242,26.6151"
         style="fill:#99a88e;fill-opacity:1;fill-rule:evenodd;stroke:none;stroke-width:0.313192"
         id="path42921" />
      <path
         d="m 12513.738,4708.8222 c -12.405,1.2305 -24.685,2.4958 -36.984,3.6481 -33.211,3.1197 -66.447,6.0486 -99.649,9.3174 -37.191,3.6678 -74.358,7.6328 -111.534,11.4513 -6.711,0.6912 -13.423,1.353 -20.138,1.9255 -3.019,0.2568 -4.76,1.4056 -5.753,4.5879 -6.784,21.7484 -14.238,43.2929 -20.564,65.1725 -3.69,12.7532 -5.309,26.0889 -8.529,38.9987 -5.822,23.3578 -12.152,46.5904 -18.249,69.8731 -0.495,1.9011 -0.859,3.8335 -1.56,7.0343 95.727,-7.6544 190.599,-15.2399 284.911,-22.7847 12.703,-63.1834 25.34,-126.0097 38.049,-189.2241"
         style="fill:#99a88e;fill-opacity:1;fill-rule:evenodd;stroke:none;stroke-width:0.313192"
         id="path42923" />
      <path
         d="m 12557.112,5199.218 c 4.939,0.7799 7.169,-0.8299 7.968,-5.7658 0.745,-4.5977 2.261,-9.3613 4.607,-13.3671 10.88,-18.5221 22.205,-36.7812 33.258,-55.2032 1.149,-1.9167 2.39,-4.3127 2.239,-6.3829 -2.371,-32.0019 -4.864,-64.0008 -7.538,-95.9808 -1.764,-21.0684 -3.586,-42.1463 -5.945,-63.1615 -1.077,-9.568 -3.301,-19.0389 -5.399,-28.4723 -4.394,-19.7498 -2.954,-39.5999 -0.886,-59.378 2.812,-27.016 5.675,-54.0507 9.705,-80.9007 3.326,-22.1333 6.43,-44.3949 14.172,-65.6886 2.7,-7.432 3.364,-15.6091 5.155,-24.4264 -9.477,0.5885 -18.271,0.3755 -26.777,1.8265 -19.099,3.2469 -38.179,6.2003 -57.625,5.3145 -4.096,-0.1847 -6.454,1.0718 -7.281,5.3428 -4.103,21.0938 -8.181,42.1964 -12.588,63.2338 -6.395,30.4986 -12.577,61.0568 -19.768,91.3707 -5.678,23.8996 -4.015,46.985 1.415,70.7876 4.799,21.0465 7.558,42.829 8.551,64.408 1.475,32.0019 7.416,62.9015 16.473,93.4596 9.19,31.0248 19.371,61.5924 34.959,90.121 2.173,3.9651 3.489,8.3967 5.305,12.8628"
         style="fill:#bc4749;fill-opacity:1;fill-rule:evenodd;stroke:none;stroke-width:0.313192"
         id="path42925" />
      <path
         d="m 12613.011,5113.0777 c 5.91,-6.1856 11.281,-12.6624 17.504,-18.1714 21.827,-19.3365 43.853,-38.4443 65.99,-57.4175 13.564,-11.6257 27.457,-22.8693 41.225,-34.2507 15.463,-12.7783 30.774,-25.7444 46.478,-38.2126 15.838,-12.5684 34.558,-19.2582 53.584,-25.3404 18.309,-5.8566 36.982,-9.7841 56.005,-12.2646 1.607,-0.2098 3.179,-0.7109 5.403,-1.2183 -0.445,-2.1861 -0.799,-4.2594 -1.297,-6.2951 -3.611,-14.8673 -7.373,-29.7 -10.799,-44.608 -0.711,-3.0786 -1.97,-4.5851 -5.002,-4.394 -6.887,0.4447 -13.758,1.1901 -20.651,1.45 -15.103,0.5606 -30.239,0.5262 -45.316,1.3969 -40.584,2.3583 -81.167,4.7386 -121.697,7.7985 -16.139,1.2183 -32.099,4.6571 -48.219,6.3202 -15.4,1.591 -30.897,2.3708 -46.365,3.1131 -5.065,0.2443 -7.138,1.4344 -7.401,7.1376 -0.811,17.7831 4.61,34.6265 6.687,51.9367 3.388,28.2186 5.587,56.5906 7.858,84.9345 2.032,25.4375 3.489,50.9219 5.224,76.3876 0.03,0.4854 0.426,0.9427 0.789,1.6975"
         style="fill:#99a88e;fill-opacity:1;fill-rule:evenodd;stroke:none;stroke-width:0.313192"
         id="path42927" />
      <path
         d="m 12578.325,5225.3163 c 6.442,4.153 12.628,8.1775 18.87,12.1112 0.704,0.4447 1.747,0.5919 2.605,0.523 29.86,-2.3646 59.742,-4.7887 88.064,-15.6095 18.065,-6.909 35.466,-15.124 52.121,-25.1994 28.241,-17.0815 57.418,-32.3496 87.75,-45.6885 36.321,-15.9728 74.174,-27.5421 111.112,-41.6796 22.637,-8.6629 45.178,-17.5889 67.571,-26.8531 9.352,-3.8648 14.748,-12.3585 19.753,-20.6237 5.374,-8.8884 9.928,-18.2653 14.939,-27.3761 6.474,-11.7729 8.535,-24.8487 10.379,-37.7929 1.607,-11.2843 2.925,-22.9476 1.839,-34.2006 -2.168,-22.3995 -28.203,-49.0928 -57.64,-46.2898 -22.159,2.1047 -43.985,4.9704 -65.558,10.9304 -17.695,4.8858 -36.061,7.382 -54.132,10.9242 -2.449,0.4792 -4.914,0.9145 -7.269,2.2769 3.007,-0.2005 6.013,-0.4729 9.029,-0.5888 27.771,-1.0555 55.542,-0.6045 82.633,6.0289 17.501,4.2876 33.512,12.3774 46.212,25.8259 7.513,7.9519 14.958,15.979 22.581,23.8245 5.731,5.8943 7.012,12.7281 5.813,20.6487 -4.789,31.5479 -26.544,51.3761 -59.059,54.6865 -17.116,1.7476 -33.825,-0.855 -50.703,-2.2299 -31.225,-2.5337 -61.984,0.144 -91.79,10.1975 -11.366,3.8366 -22.531,8.403 -33.477,13.3263 -26.371,11.8575 -50.866,26.6433 -73.801,44.5234 -18.055,14.0811 -37.739,26.2267 -57.458,37.962 -10.207,6.0822 -22.19,9.1171 -33.133,14.0498 -20.273,9.1327 -40.846,17.8802 -57.251,36.2927"
         style="fill:#bc4749;fill-opacity:1;fill-rule:evenodd;stroke:none;stroke-width:0.313192"
         id="path42929" />
      <path
         d="m 12577.213,5221.6019 c 8.381,-15.5156 21.426,-25.4782 37.405,-32.0991 12.599,-5.224 25.121,-10.6328 37.561,-16.2077 5.64,-2.5274 11.362,-5.1332 16.436,-8.594 24.235,-16.5302 47.887,-33.9375 72.485,-49.8977 19.437,-12.6123 33.509,-30.5644 49.917,-46.199 7.745,-7.3725 15.368,-15.1366 24.15,-21.0966 15.177,-10.3009 26.305,-24.6357 39.346,-37.0287 10.188,-9.6808 20.107,-19.4868 32.046,-27.1694 6.204,-3.9932 11.519,-9.424 17.038,-14.4288 6.592,-5.9757 12.963,-12.1863 20.063,-18.8855 -5.587,-0.4635 -10.705,-1.1838 -15.835,-1.2778 -17.667,-0.3257 -35.378,-1.2966 -52.995,-0.4228 -25.328,1.2465 -48.288,9.4114 -68.126,26.0607 -42.027,35.2748 -84.853,69.6132 -126.495,105.3328 -33.997,29.1644 -63.713,62.25 -82.119,103.8639 -3.555,8.0334 -5.421,17.0314 -6.649,25.7819 -0.545,3.8899 2.437,8.2746 3.818,12.44 0.651,-0.063 1.303,-0.1158 1.954,-0.1722"
         style="fill:#9b3b3c;fill-opacity:1;fill-rule:evenodd;stroke:none;stroke-width:0.313192"
         id="path42931" />
      <path
         d="m 12239.251,5181.9361 c 0.256,2.0264 0.307,3.6362 0.692,5.1583 4.832,19.255 9.868,38.4568 14.479,57.7651 1.146,4.8013 3.116,6.5207 8.18,7.2504 17.129,2.4648 34.129,5.8097 51.204,8.6974 2.437,0.4134 5.049,0.5324 7.482,0.1472 14.748,-2.3396 29.465,-4.8639 44.195,-7.3256 15.102,-2.5212 30.135,-5.603 45.322,-7.4508 28.387,-3.4577 56.994,-5.3556 85.241,-9.662 11.588,-1.7633 22.509,-7.9958 33.65,-12.4181 1.525,-0.6107 2.652,-2.4147 3.777,-3.8147 5.274,-6.5739 10.482,-13.1947 16.633,-20.9588 -0.886,-1.9606 -2.468,-5.8034 -4.347,-9.496 -4.81,-9.4239 -9.615,-18.8479 -14.776,-28.0714 -0.861,-1.5346 -3.586,-3.0035 -5.362,-2.9064 -25.669,1.3843 -51.276,2.8689 -76.616,8.1211 -18.159,3.7583 -36.753,5.4495 -55.163,7.9519 -23.298,3.1695 -46.571,6.505 -69.92,9.2517 -24.704,2.9064 -49.497,2.9284 -74.255,0.5105 -3.344,-0.3288 -6.583,-1.7069 -10.416,-2.7498"
         style="fill:#bc4749;fill-opacity:1;fill-rule:evenodd;stroke:none;stroke-width:0.313192"
         id="path42933" />
      <path
         d="m 12290.943,5517.2114 c 12.86,-2.4335 25.719,-4.8545 38.576,-7.2911 26.317,-4.986 52.873,-8.9761 78.874,-15.2869 20.658,-5.0111 38.166,-16.9187 53.468,-31.8016 9.402,-9.1514 19.039,-18.0649 28.482,-27.1819 21.156,-20.3982 38.457,-43.6402 52.491,-69.5161 13.715,-25.2809 20.314,-52.5568 24.714,-80.5906 0.244,-1.5597 0.175,-3.1695 0.313,-5.8536 -5.6,6.5238 -10.808,12.0047 -15.349,18.0023 -10.204,13.4767 -23.496,21.4818 -40.148,24.1847 -2.431,0.3915 -5.137,1.2841 -6.975,2.8281 -17.329,14.5227 -37.64,23.7212 -58.501,31.3255 -12.619,4.5945 -21.952,10.7863 -27.893,23.4017 -13.915,29.5497 -35.814,53.4588 -57.289,77.5777 -3.637,4.0809 -7.464,8.1524 -10.232,12.8064 -7.548,12.6874 -18.642,22.0989 -29.788,31.0029 -7.319,5.8442 -17.078,8.641 -25.776,12.7375 -1.766,0.8331 -3.667,1.3969 -5.503,2.0796 0.179,0.5231 0.361,1.0492 0.536,1.5754"
         style="fill:#bc4749;fill-opacity:1;fill-rule:evenodd;stroke:none;stroke-width:0.313192"
         id="path42935" />
      <path
         d="m 12079.144,5222.9768 c 6.329,17.7611 12.443,35.0806 18.763,52.3344 0.457,1.2434 2.324,2.7028 3.633,2.8031 20.182,1.5096 40.414,2.3959 60.559,4.2531 34.298,3.1601 68.633,6.1323 102.768,10.5734 50.239,6.5426 100.265,14.7451 150.492,21.3847 31.701,4.1937 63.54,5.6281 95.288,-1.1713 12.904,-2.7624 24.201,-7.2159 32.87,-17.7361 4.704,-5.7063 10.651,-10.3886 16.856,-16.3141 -2.916,-1.3656 -4.585,-2.2676 -6.342,-2.9472 -9.158,-3.561 -16.164,-9.687 -21.695,-17.7173 -3.12,-4.5256 -3.809,-9.2861 -2.484,-14.5634 0.924,-3.6737 1.425,-7.4477 2.368,-12.5496 -9.374,3.9681 -18.366,6.3484 -25.757,11.1841 -17.204,11.2373 -36.446,16.3705 -55.877,21.4223 -14.121,3.6738 -28.162,7.6482 -42.246,11.4691 -23.749,6.4393 -47.612,4.535 -70.988,-1.0053 -39.854,-9.4334 -80.434,-13.8431 -120.789,-19.9942 -28.751,-4.3784 -57.013,-12.083 -85.414,-18.6412 -16.154,-3.7333 -32.146,-8.1524 -48.222,-12.227 -1.356,-0.3445 -2.787,-0.4134 -3.783,-0.5575"
         style="fill:#bc4749;fill-opacity:1;fill-rule:evenodd;stroke:none;stroke-width:0.313192"
         id="path42937" />
      <path
         d="m 12492.091,5325.1996 c -30.718,4.5444 -61.226,0.7328 -91.55,-3.1758 -34.682,-4.4693 -69.159,-10.5953 -103.697,-16.1451 -7.392,-1.1901 -14.323,-1.2277 -21.028,2.8783 -12.578,7.6951 -25.375,15.0332 -38.034,22.5999 -5.628,3.3668 -11.579,6.3985 -16.584,10.5421 -4.792,3.965 -10.251,8.4875 -12.465,13.9589 -8.609,21.2689 -16.373,42.9011 -23.771,64.6335 -3.304,9.7027 -3.661,20.0036 -1.212,31.1156 8.544,-16.6054 23.533,-22.0737 39.349,-26.756 18.172,-5.3775 36.208,-11.2561 54.114,-17.4479 8.187,-2.8313 15.734,-7.5103 23.912,-10.398 27.955,-9.8718 55.219,-21.7386 84.509,-27.7488 31.128,-6.386 59.703,-19.9879 88.37,-33.1326 6.373,-2.9252 12.521,-6.3359 18.776,-9.521 -0.235,-0.4667 -0.461,-0.9365 -0.689,-1.4031"
         style="fill:#bc4749;fill-opacity:1;fill-rule:evenodd;stroke:none;stroke-width:0.313192"
         id="path42939" />
      <path
         d="m 13121.76,5134.7976 c -2.339,-21.5915 -4.632,-42.7226 -7.006,-64.6429 -6.239,0.3978 -12.149,0.6984 -18.049,1.1557 -17.439,1.3561 -34.877,2.7529 -52.31,4.1686 -4.544,0.3727 -9.079,0.7861 -13.595,1.3843 -1.356,0.1722 -3.129,0.6514 -3.853,1.6192 -8.653,11.6727 -21.644,16.5585 -34.375,21.3096 -42.676,15.9258 -85.831,30.6176 -128.271,47.1385 -36.184,14.0843 -71.662,29.9882 -105.026,50.1452 -5.622,3.3919 -11.322,6.6365 -16.966,9.9908 -0.42,0.2475 -0.654,0.8237 -1.591,2.0608 7.003,-2.1516 13.342,-3.6267 19.324,-6.0195 30.552,-12.2114 62.933,-14.9769 95.095,-19.349 21.081,-2.8689 41.851,-7.9676 62.782,-11.9452 42.259,-8.0177 84.496,-16.1419 126.812,-23.837 18.988,-3.4545 38.171,-5.8724 57.232,-8.9636 6.424,-1.0398 12.75,-2.6966 19.797,-4.2155"
         style="fill:#bc4749;fill-opacity:1;fill-rule:evenodd;stroke:none;stroke-width:0.313192"
         id="path42941" />
      <path
         d="m 12592.588,5264.7222 c -4.745,2.2456 -8.77,3.42 -11.795,5.8316 -2.036,1.6286 -3.276,4.8952 -3.821,7.6356 -3.182,16.0762 -6.045,32.2181 -9.051,48.3318 -0.304,1.6067 -0.555,3.3199 -1.291,4.7355 -5.878,11.2749 -4.601,23.0948 -3.116,35.0337 2.242,18.0743 3.655,36.2739 6.461,54.2574 2.803,17.9835 6.878,35.7696 10.708,55.2251 32.679,-1.2026 65.971,-2.4272 99.858,-3.6768 -6.74,-38.1343 -18.563,-74.048 -34.15,-108.1421 -15.613,-34.1536 -35.701,-66.2621 -53.803,-99.2318"
         style="fill:#bc4749;fill-opacity:1;fill-rule:evenodd;stroke:none;stroke-width:0.313192"
         id="path42943" />
      <path
         d="m 12925.614,4692.1851 c -0.814,4.2037 -1.766,8.3936 -2.421,12.6279 -2.825,18.1652 -5.374,36.3767 -8.406,54.5048 -1.747,10.4199 -4.657,20.6457 -6.295,31.0718 -3.226,20.5423 -5.919,41.1629 -8.879,61.749 -0.36,2.5243 -0.47,5.2491 -1.553,7.4696 -3.455,7.0813 -2.409,14.1218 -0.711,21.319 3.388,14.3473 6.639,28.7322 10.21,44.2415 20.326,-4.7386 40.658,-9.4803 61.407,-14.3192 -7.62,-36.3271 -16.226,-72.6292 -22.637,-109.3102 -6.38,-36.49 -11.883,-73.1207 -19.324,-109.4043 -0.464,0.012 -0.927,0.032 -1.391,0.05"
         style="fill:#99a88e;fill-opacity:1;fill-rule:evenodd;stroke:none;stroke-width:0.313192"
         id="path42945" />
      <path
         d="m 13006.753,5163.1289 c -6.655,1.3342 -12.778,2.2519 -18.695,3.9212 -1.976,0.5481 -3.52,2.9064 -5.089,4.6008 -7.899,8.5157 -15.838,16.9938 -23.514,25.7099 -1.256,1.4344 -1.999,4.0872 -1.717,5.9914 3.082,20.9243 6.731,41.7735 9.618,62.7324 6.769,49.1367 13.205,98.3172 19.782,147.4853 0.332,2.4773 0.729,4.9515 2.117,7.4289 1.575,-10.6486 3.05,-21.3096 4.748,-31.9331 4.989,-31.3004 9.928,-62.6071 15.171,-93.8605 2.527,-15.0771 6.433,-29.96 8.268,-45.1028 1.009,-8.309 -0.57,-17.0314 -1.704,-25.4782 -2.718,-20.2009 -5.866,-40.3454 -8.985,-61.4953"
         style="fill:#99a88e;fill-opacity:1;fill-rule:evenodd;stroke:none;stroke-width:0.313192"
         id="path42947" />
      <path
         d="m 12307.689,5499.776 c -2.681,-11.6069 -5.098,-22.3995 -7.729,-33.1451 -0.317,-1.3154 -1.507,-2.7906 -2.703,-3.4639 -4.917,-2.7467 -9.844,-5.6093 -15.052,-7.7108 -13.73,-5.5404 -24.47,-14.9925 -34.367,-25.5534 -2.214,-2.3614 -4.055,-2.8688 -7.081,-1.8259 -6.539,2.255 -13.239,4.059 -19.85,6.1073 -2.957,0.9176 -5.979,1.7256 -8.791,2.9878 -20.38,9.1609 -24.924,18.4126 -18.106,41.1315 1.804,6.0196 8.359,11.4347 13.987,15.3057 9.095,6.2545 19.024,11.4409 28.983,16.2892 14.062,6.8557 28.632,3.9023 42.748,0.072 9.615,-2.6089 18.804,-6.7932 27.961,-10.1944"
         style="fill:#9b3b3c;fill-opacity:1;fill-rule:evenodd;stroke:none;stroke-width:0.313192"
         id="path42949" />
      <path
         d="m 12415.133,5369.0496 c -23.113,6.909 -46.262,13.7147 -69.334,20.7709 -10.972,3.3606 -21.896,6.9278 -32.666,10.8834 -15.485,5.6939 -15.525,5.9006 -12.703,22.0519 4.071,23.3171 8.315,46.6061 12.499,69.9045 0.182,1.0178 0.548,2.0013 1.121,4.0464 8.3,-7.8924 16.64,-14.7106 23.634,-22.7096 16.305,-18.6412 32.544,-37.3951 47.686,-56.9759 11.313,-14.6198 20.878,-30.5894 31.216,-45.964 -0.485,-0.6703 -0.971,-1.3405 -1.453,-2.0076"
         style="fill:#99a88e;fill-opacity:1;fill-rule:evenodd;stroke:none;stroke-width:0.313192"
         id="path42951" />
      <path
         d="m 12571.585,5472.6348 c -7.194,-36.7375 -15.772,-73.3089 -14.864,-111.1707 -0.617,-0.078 -1.234,-0.1472 -1.851,-0.2161 -0.908,1.6223 -1.895,3.2133 -2.719,4.8858 -15.24,30.9715 -36.039,57.6242 -61.67,80.7096 -12.672,11.419 -24.736,23.5082 -36.947,35.1746 38.895,-3.0912 77.975,-6.1949 118.051,-9.3832"
         style="fill:#99a88e;fill-opacity:1;fill-rule:evenodd;stroke:none;stroke-width:0.313192"
         id="path42953" />
      <path
         d="m 12909.582,4976.6418 c -27.22,18.043 -50.837,39.4841 -72.46,63.2742 -5.187,5.7001 -12.318,9.615 -18.356,14.5854 -6.709,5.5372 -13.43,11.0964 -19.71,17.0971 -6.511,6.2263 -12.505,12.9975 -18.575,19.9347 22.121,-12.1017 45.435,-21.1279 69.926,-26.9658 24.624,-5.8724 49.71,-6.3171 75.589,-5.3807 -3.094,-28.4973 -10.257,-55.5509 -16.414,-82.5449"
         style="fill:#99a88e;fill-opacity:1;fill-rule:evenodd;stroke:none;stroke-width:0.313192"
         id="path42955" />
      <path
         d="m 12933.688,5060.2015 c 5.265,0.6451 10.154,1.7413 15.018,1.6192 2.208,-0.056 5.396,-2.017 6.333,-3.9744 2.327,-4.8514 4.525,-10.0974 5.152,-15.384 2.875,-24.0626 5.167,-48.2003 7.723,-72.3098 0.401,-3.7865 1.052,-7.548 1.657,-11.7698 -10.044,-4.6446 -20.677,-6.7336 -31.605,-7.5479 -1.136,-0.085 -2.571,0.5168 -3.476,1.2653 -5.462,4.5507 -11.006,9.0324 -16.057,14.0059 -1.397,1.3718 -2.03,4.5069 -1.626,6.5645 5.234,26.6433 10.733,53.2302 16.108,79.8484 0.46,2.2957 0.482,4.6822 0.773,7.6826"
         style="fill:#99a88e;fill-opacity:1;fill-rule:evenodd;stroke:none;stroke-width:0.313192"
         id="path42957" />
      <path
         d="m 12750.549,5215.7483 c 15.137,-2.1955 30.239,-4.7167 45.419,-6.5175 29.328,-3.4796 58.699,-6.5332 88.054,-9.7904 20.104,-2.2331 40.177,-4.9171 60.324,-6.6428 14.836,-1.2716 20.599,-13.1227 29.349,-21.6103 -0.253,-0.4854 -0.507,-0.9677 -0.761,-1.45 -11.563,2.2988 -23.151,4.4943 -34.683,6.9434 -12.825,2.7217 -25.54,5.9757 -38.409,8.4406 -9.105,1.7476 -18.404,2.4429 -27.58,3.8146 -24.683,3.6675 -49.509,6.6241 -73.964,11.4597 -16.333,3.2322 -32.133,9.2016 -48.175,13.9465 0.144,0.4729 0.288,0.9396 0.426,1.4062"
         style="fill:#bc4749;fill-opacity:1;fill-rule:evenodd;stroke:none;stroke-width:0.313192"
         id="path42959" />
      <path
         d="m 12960.187,5062.2403 c 11.999,0.3947 23.117,-0.8926 33.747,-4.867 1.654,-0.6138 3.454,-3.8867 3.304,-5.7815 -0.846,-10.4951 -1.904,-21.0089 -3.589,-31.4038 -2.12,-13.0945 -4.789,-26.1045 -7.479,-39.0989 -1.109,-5.318 -2.875,-10.4919 -4.382,-15.7253 -0.341,-1.1996 -0.858,-2.3521 -1.293,-3.5234 -0.692,0.4697 -1.375,0.9364 -2.061,1.4062 -2.048,16.7495 -4.203,33.4928 -6.12,50.2579 -1.898,16.5804 -2.953,33.3393 -12.127,48.7358"
         style="fill:#bc4749;fill-opacity:1;fill-rule:evenodd;stroke:none;stroke-width:0.313192"
         id="path42961" />
      <path
         d="m 12579.621,5259.8646 c -3.182,-1.8917 -7.128,-3.7677 -10.432,-6.4455 -1.434,-1.162 -1.531,-3.9744 -2.239,-6.0384 1.951,0.4416 4.043,0.5763 5.819,1.3937 3.457,1.5973 6.708,3.6299 10.091,5.3932 3.151,1.6474 5.334,0.7047 7.26,-2.3114 3.498,-5.4871 3.069,-5.5936 -2.334,-9.5304 -6.868,-5.0111 -13.742,-10.3667 -19.252,-16.7526 -3.817,-4.4223 -5.336,-10.8365 -8.108,-16.8372 -8.588,0.144 -18.782,9.5805 -19.856,19.3302 -0.693,6.3233 -1.908,12.5966 -2.381,18.9262 -0.181,2.3364 0.555,5.105 1.785,7.1188 5.237,8.5502 13.624,12.9317 22.748,16.0887 1.196,0.4197 3.1,0.3132 4.074,-0.3852 4.438,-3.1883 8.663,-6.6773 12.825,-9.9501"
         style="fill:#bc4749;fill-opacity:1;fill-rule:evenodd;stroke:none;stroke-width:0.313192"
         id="path42963" />
      <path
         d="m 12341.332,5266.6702 c 23.819,4.8357 47.509,6.0478 71.296,-0.9082 19.749,-5.7753 39.74,-10.7363 59.594,-16.1764 3.962,-1.0836 7.783,-2.6653 11.672,-4.0214 -0.166,-0.7517 -0.338,-1.5002 -0.501,-2.2518 -47.376,7.1345 -94.756,14.2721 -142.139,21.4066 0.02,0.6483 0.05,1.2998 0.08,1.9512"
         style="fill:#99a88e;fill-opacity:1;fill-rule:evenodd;stroke:none;stroke-width:0.313192"
         id="path42965" />
    </g>
  </g>
</svg>
