<?xml version='1.0' encoding='utf-8'?>
<svg xmlns="http://www.w3.org/2000/svg" version="1.1" id="Capa_1" x="0px" y="0px" viewBox="0 0 576 720" style="enable-background:new 0 0 576 720;"> <style type="text/css"> .st0{fill:#EFAFB4;} .st1{fill:#432918;} .st2{fill:#ABD6D1;} .st3{fill:#DB959E;} </style> <g> <path class="st0" d="M267.9,305.4c-11.6-4.7-26.8-5.4-34.7-15.6c-8.7-11.5-0.1-28.3-5-41.7c-7.4-18.1-27-13.2-44.6-15 c-18.3-2.4-28.5-10.8-38-24.4c7,5.4,20.6,2.8,29.7,0.1c-4.1-8.6-2.1-18.8-0.1-28.3c3.5,15.8,27.9,15.2,41.6,17.5 c17.6,3.9,34.4,6.5,42.5,22.3c8,14.4,5.5,31.8,2.9,47.7c-2.6,14.5,3.8,26.3,4.2,37.6L267.9,305.4z"/> <g> <path class="st1" d="M268.5,303c-10.8-4.3-25.9-4.9-33.4-14.8c-7.7-10.3-1.2-25.5-3.6-37.3c-5.2-25-33.9-17.4-51.9-21 c-13.9-2.8-23.9-11.1-32-22.5c-1.1,1.1-2.3,2.3-3.4,3.4c9,6.2,21.9,3.1,31.6,0.3c1.7-0.5,2.1-2.2,1.5-3.7 c-3.6-8.4-1.6-17.7,0.2-26.4c-1.6,0-3.2,0-4.8,0c5,19.5,33.2,17,48.5,20.3c11.5,2.5,24.6,5.1,32.5,14.7c9.9,12,9.4,28.6,7.4,43.1 c-1.1,7.8-2.5,15.1-1.4,23c1.1,7.8,3.8,15.3,4.2,23.2c0.1,1.8,1.5,2.6,3.2,2.4c0.5-0.1,1-0.1,1.5-0.2c3.2-0.4,1.8-5.3-1.3-4.8 c-0.5,0.1-1,0.1-1.5,0.2c1.1,0.8,2.1,1.6,3.2,2.4c-0.3-6.2-2-12.2-3.3-18.3c-1.7-8.2-1.4-15.5-0.2-23.7c2-13.2,3.4-27.4-1.8-40.1 c-9.4-22.7-35.1-26.8-56.9-29.4c-10.2-1.2-26-2.4-29.1-14.4c-0.6-2.3-4.3-2.5-4.8,0c-2.1,10.2-3.9,20.3,0.3,30.2 c0.5-1.2,1-2.4,1.5-3.7c-8.4,2.4-19.9,5.6-27.8,0.2c-2-1.4-4.9,1.4-3.4,3.4c6.4,8.9,13.9,16.9,24.1,21.4 c11.1,4.8,22.4,4.4,34.2,4.9c13,0.5,24.5,5,25.5,19.7c0.8,11.8-3.9,25.3,4.2,35.5c8.5,10.8,23.9,11.6,35.8,16.3 C270.2,309,271.5,304.2,268.5,303z"/> </g> </g> <g> <path class="st0" d="M309.7,305.4c11.6-4.7,26.8-5.4,34.7-15.6c8.7-11.5,0.1-28.3,5-41.7c7.4-18.1,27-13.2,44.6-15 c18.3-2.4,28.5-10.8,38-24.4c-7,5.4-20.6,2.8-29.7,0.1c4.1-8.6,2.1-18.8,0.1-28.3c-3.5,15.8-27.9,15.2-41.6,17.5 c-17.6,3.9-34.4,6.5-42.5,22.3c-8,14.4-5.5,31.8-2.9,47.7c2.6,14.5-3.8,26.3-4.2,37.6L309.7,305.4z"/> <g> <path class="st1" d="M310.4,307.9c10.8-4.2,23.4-5.1,32.5-12.9c10.3-8.7,7.8-21.7,7.5-33.7c-0.2-6.8,0.6-13.8,5.7-18.8 c4.1-4.1,10-5.4,15.5-5.9c11.7-1.1,23.2,0.3,34.6-3.6c12.1-4.1,20.8-12.7,28.1-22.9c1.4-2-1.4-4.8-3.4-3.4 c-7.8,5.4-19.4,2.2-27.8-0.2c0.5,1.2,1,2.4,1.5,3.7c4.2-9.9,2.5-20,0.3-30.2c-0.5-2.5-4.2-2.3-4.8,0 c-2.7,10.5-15.4,12.5-24.5,13.8c-11,1.5-21.7,2.9-32.4,5.9c-10.7,3.1-20.6,8.3-26.3,18.2c-7.3,12.6-7.2,27-5.4,41.1 c1.1,8.7,2.7,16.7,1.1,25.4c-1.3,7.1-3.5,14.1-3.9,21.4c1.1-0.8,2.1-1.6,3.2-2.4c-0.5-0.1-1-0.1-1.5-0.2c-3.1-0.4-4.5,4.4-1.3,4.8 c0.5,0.1,1,0.1,1.5,0.2c1.6,0.2,3.1-0.6,3.2-2.4c0.3-6.8,2.5-13.4,3.7-20c1.2-6.4,1.2-12.6,0.2-19.1c-2.4-15.2-4.6-31.5,3.2-45.6 c11.5-20.8,41-19.4,61.3-23.3c9.7-1.9,20-5.9,22.7-16.4c-1.6,0-3.2,0-4.8,0c1.8,8.6,3.8,17.9,0.2,26.4c-0.6,1.5-0.2,3.2,1.5,3.7 c9.7,2.8,22.6,5.9,31.6-0.3c-1.1-1.1-2.3-2.3-3.4-3.4c-7,9.7-15.4,17.8-27.1,21.3c-11,3.3-22.4,1.6-33.7,3.1 c-9.6,1.2-18,5.7-21.8,15c-4.7,11.6,1.2,24.2-2.2,35.9c-4.3,14.8-24.1,15.5-36.1,20.3C306.1,304.2,307.4,309,310.4,307.9z"/> </g> </g> <g> <path class="st2" d="M417,504.3c3.4,52-247.3,43.1-244.4,0c3.2-47.8,0-191.4,0-191.4H417C417,312.9,413.9,456.5,417,504.3z"/> <g> <path class="st1" d="M414.5,504.3c0.5,8.9-7.5,14.6-14.6,18.3c-12.1,6.2-26,9-39.3,11.1c-35.1,5.5-71.6,5.1-106.9,1.3 c-15.9-1.7-31.8-4.2-47.2-8.7c-9.6-2.8-21.2-6.3-28.1-13.9c-2.4-2.6-3.4-5.2-3.2-8.7c0.3-7.9,0.7-15.8,0.9-23.7 c0.5-21.5,0.5-42.9,0.4-64.4c-0.1-21.4-0.3-42.8-0.7-64.1c-0.1-7.8-0.3-15.6-0.4-23.3c-0.1-4.4,0.3-9.1-0.3-13.4 c-0.1-0.6,0-1.2,0-1.7c-0.8,0.8-1.7,1.7-2.5,2.5c27.5,0,54.9,0,82.4,0c44,0,87.9,0,131.9,0c10,0,20.1,0,30.1,0 c-0.8-0.8-1.7-1.7-2.5-2.5c-1.1,49.5-1.8,99-1.2,148.5C413.4,475.7,413.6,490,414.5,504.3c0.2,3.2,5.2,3.2,5,0 c-1.8-28.3-1.5-56.8-1.4-85.1c0.1-29.3,0.5-58.6,1-88c0.1-6.1,0.2-12.2,0.4-18.3c0-1.4-1.2-2.5-2.5-2.5c-27.5,0-54.9,0-82.4,0 c-44,0-87.9,0-131.9,0c-10,0-20.1,0-30.1,0c-1.3,0-2.5,1.1-2.5,2.5c0.7,30.4,1.1,60.9,1.3,91.3c0.2,22.8,0.2,45.5-0.2,68.3 c-0.2,9-0.4,17.9-0.8,26.8c-0.2,4.7-0.7,8.8,1.8,13c5,8.5,16,12.9,24.8,16.1c14.8,5.3,30.4,8.1,45.9,10.2 c36.7,5,74.7,5.7,111.5,0.9c14.6-1.9,29.4-4.6,43.1-10.4c8.5-3.6,18.4-9.2,21.2-18.7c0.6-2,0.8-4.1,0.7-6.1 C419.3,501.1,414.3,501,414.5,504.3z"/> </g> </g> <g> <path class="st2" d="M434.3,340.4H155.3c0,0-17.7-68.5,0-72.3c57.2-12.2,216.9-12.2,279.1,0C452.1,271.5,434.3,340.4,434.3,340.4z"/> <g> <path class="st1" d="M434.3,337.9c-31.6,0-63.2,0-94.8,0c-49.9,0-99.9,0-149.8,0c-11.5,0-23,0-34.5,0c0.8,0.6,1.6,1.2,2.4,1.8 c-2.1-8.1-3.7-16.3-5.1-24.6c-2-12.1-5-27-1.2-39c1.7-5.3,4.8-5.7,9.9-6.7c6.2-1.1,12.5-2,18.9-2.8c16.1-1.9,32.4-3,48.6-3.8 c38.3-1.9,76.6-2,114.9-0.6c17.6,0.6,35.1,1.6,52.7,3.2c7.6,0.7,15.3,1.5,22.9,2.6c3,0.4,5.9,0.9,8.9,1.4c2.2,0.4,5.4,0.4,7.3,1.7 c4.2,2.8,4.2,10.6,4.4,14.9c0.2,7.8-0.6,15.6-1.7,23.3c-1.5,10.2-3.5,20.4-6,30.4c-0.8,3.1,4,4.4,4.8,1.3 c2.3-9.1,4.2-18.3,5.6-27.5c2-12.4,4.9-27.9,0.4-40.1c-1.7-4.6-4.5-7.2-9.3-8.1c-6.7-1.3-13.6-2.2-20.4-3.1 c-17.1-2.1-34.2-3.3-51.4-4.2c-40.9-2.1-81.9-2.3-122.8-0.6c-17.6,0.7-35.2,1.7-52.7,3.6c-7.1,0.7-14.3,1.6-21.3,2.8 c-4.7,0.8-11.1,0.9-14.6,4.4c-4.1,4.1-4.8,10.8-5.1,16.2c-0.4,7.8,0.4,15.7,1.4,23.4c1.5,11.2,3.6,22.3,6.4,33.3 c0.3,1.1,1.3,1.8,2.4,1.8c31.6,0,63.2,0,94.8,0c49.9,0,99.9,0,149.8,0c11.5,0,23,0,34.5,0C437.5,342.9,437.6,337.9,434.3,337.9z"/> </g> </g> <g> <path class="st0" d="M327.1,541.6c0,0-24.5,1.7-32.3,1.7c-12.3,0-31.1-3.3-31.1-3.3V343.2h62.2L327.1,541.6z"/> <g> <path class="st1" d="M327.1,539.1c-9.6,0.7-19.2,1.3-28.8,1.6c-11.3,0.4-22.8-1.2-33.9-3.1c0.6,0.8,1.2,1.6,1.8,2.4 c0-22.2,0-44.3,0-66.5c0-35.3,0-70.6,0-106c0-8.1,0-16.2,0-24.3c-0.8,0.8-1.7,1.7-2.5,2.5c20.7,0,41.5,0,62.2,0 c-0.8-0.8-1.7-1.7-2.5-2.5c0.1,22.3,0.3,44.5,0.4,66.8c0.2,35.7,0.4,71.4,0.7,107c0,8.2,0.1,16.4,0.1,24.5c0,3.2,5,3.2,5,0 c-0.1-22.3-0.3-44.5-0.4-66.8c-0.2-35.7-0.4-71.4-0.7-107c0-8.2-0.1-16.4-0.1-24.5c0-1.4-1.1-2.5-2.5-2.5c-20.7,0-41.5,0-62.2,0 c-1.4,0-2.5,1.1-2.5,2.5c0,22.2,0,44.3,0,66.5c0,35.3,0,70.6,0,106c0,8.1,0,16.2,0,24.3c0,1,0.8,2.2,1.8,2.4 c11.3,1.9,22.9,3.6,34.4,3.3c9.9-0.3,19.8-1,29.7-1.6C330.3,543.9,330.3,538.9,327.1,539.1z"/> </g> </g> <g> <rect x="253.6" y="260.8" class="st0" width="65.1" height="82.4"/> <g> <path class="st1" d="M318.7,340.7c-21.7,0-43.4,0-65.1,0c0.8,0.8,1.7,1.7,2.5,2.5c0-27.5,0-54.9,0-82.4c-0.8,0.8-1.7,1.7-2.5,2.5 c21.7,0,43.4,0,65.1,0c-0.8-0.8-1.7-1.7-2.5-2.5c0,27.5,0,54.9,0,82.4c0,3.2,5,3.2,5,0c0-27.5,0-54.9,0-82.4 c0-1.4-1.1-2.5-2.5-2.5c-21.7,0-43.4,0-65.1,0c-1.4,0-2.5,1.1-2.5,2.5c0,27.5,0,54.9,0,82.4c0,1.4,1.1,2.5,2.5,2.5 c21.7,0,43.4,0,65.1,0C321.9,345.7,321.9,340.7,318.7,340.7z"/> </g> </g> <g> <path class="st0" d="M247.8,201.4c17.6,0.1,42.2,56.6,42.2,56.6s-59.9,21.2-70.2,6.9C209.6,250.8,230.5,201.2,247.8,201.4z"/> <g> <path class="st1" d="M247.8,203.9c5.5,0.2,10.1,5.6,13.3,9.4c5.1,6,9.3,12.7,13.3,19.5c4.9,8.5,9.5,17.4,13.4,26.4 c0.5-1.2,1-2.4,1.5-3.7c-15.3,5.4-31.6,10.1-47.7,11.5c-6.8,0.6-18.5,1.8-21.2-6.5c-3.2-10,1.5-22.9,5.4-32 C229.5,220.3,237.1,204.2,247.8,203.9c3.2-0.1,3.2-5.1,0-5c-10.6,0.3-18.2,11.8-22.8,20.1c-6,10.8-11,24.2-10.4,36.8 c0.5,9.8,5.8,15.2,15.5,16.3c11.7,1.3,24.1-1.5,35.3-4.3c8.5-2.1,17-4.5,25.2-7.4c1.7-0.6,2.2-2.1,1.5-3.7 c-4.5-10.3-9.7-20.4-15.6-30c-5.9-9.8-15.6-27.2-28.8-27.8C244.6,198.7,244.6,203.7,247.8,203.9z"/> </g> </g> <g> <path class="st0" d="M324.4,201.4c-17.6,0.1-42.2,56.6-42.2,56.6s59.9,21.2,70.2,6.9C362.6,250.8,341.8,201.2,324.4,201.4z"/> <g> <path class="st1" d="M324.4,198.9c-13.2,0.6-22.9,18-28.8,27.8c-5.8,9.6-11.1,19.7-15.6,30c-0.7,1.5-0.2,3.1,1.5,3.7 c17.7,6.2,37.5,12.4,56.4,12c9-0.2,17.3-2.9,19.2-12.7c2.2-11.9-2.4-25.1-7.4-35.7C345.2,214.3,336.8,199.2,324.4,198.9 c-3.2-0.1-3.2,4.9,0,5c9.5,0.3,16.4,13.3,20,20.6c4.8,9.7,9.4,21.9,8,33c-1.2,9.6-10,10.2-18.1,9.9c-10.8-0.4-21.6-3-32-5.8 c-6.6-1.8-13.1-3.7-19.5-6c0.5,1.2,1,2.4,1.5,3.7c3.9-9,8.5-17.9,13.4-26.4c3.9-6.7,8-13.3,13-19.2c3.3-3.9,8.1-9.5,13.7-9.8 C327.6,203.7,327.6,198.7,324.4,198.9z"/> </g> </g> <g> <path class="st3" d="M279.6,236.7c2.6,3.7-11.1,2.8-20.2-2.1c-9.1-4.9-13.8-11.6-12.8-15.8c2.1-9.1,13.5-5.7,20.2,2.1 C276,231.6,276,231.6,279.6,236.7z"/> <g> <path class="st1" d="M277.5,237.9c0.9-1.5,0.7-2-0.5-1.5c-0.7,0-1.3,0-2,0c-1.9,0-3.7-0.4-5.5-0.8c-3.7-0.8-7.1-2.2-10.4-4.1 c-3.5-2.1-7.5-5-9.3-8.8c-1.5-3.2-0.4-6.8,3.6-6.8c7.4-0.1,12.8,8.1,17,13C272.9,231.8,275.3,234.8,277.5,237.9 c1.8,2.6,6.2,0.1,4.3-2.5c-4.9-6.9-10.5-14.9-17.2-20c-6.2-4.7-18.6-7.6-20.4,3.2c-1.7,10.2,12.1,18.1,19.9,20.7 c2.9,1,22.6,5.3,17.7-3.9C280.3,232.6,276,235.1,277.5,237.9z"/> </g> </g> <g> <path class="st3" d="M293.5,236.8c-2.5,3.7,11.1,2.6,20.1-2.5c9-5.1,13.5-11.8,12.5-16c-2.3-9-13.6-5.4-20.1,2.5 C297,231.7,297,231.7,293.5,236.8z"/> <g> <path class="st1" d="M291.3,235.6c-4.8,9.3,14.8,4.6,17.7,3.6c7.7-2.8,21.4-10.9,19.5-21.1c-2-10.8-14.3-7.7-20.4-2.8 C301.6,220.5,296.1,228.6,291.3,235.6c-1.8,2.7,2.5,5.2,4.3,2.5c2-3,4.2-5.9,6.5-8.7c4.1-5,9.5-13.7,16.9-13.8 c4-0.1,5.6,3.2,4,6.7c-1.6,3.6-5.2,6.4-8.4,8.5c-3.4,2.2-7.1,3.8-11,4.8c-1.8,0.4-3.7,0.8-5.5,0.9c-0.7,0-1.3,0.1-2,0 c-1.2-0.4-1.4,0.1-0.5,1.6C297.1,235.2,292.8,232.7,291.3,235.6z"/> </g> </g> <g> <g> <path class="st1" d="M276,248.7c-7.9,0.7-18.2,2.2-23.5-5.2c-0.9-1.3-3.1-0.1-2.2,1.3c5.9,8.3,16.6,7.2,25.7,6.4 C277.6,251.1,277.6,248.6,276,248.7L276,248.7z"/> </g> </g> <g> <g> <path class="st1" d="M295.2,251.2c8.4,2.4,18.9,0.1,26.3-4.5c1.4-0.8,0.1-3-1.3-2.2c-6.8,4.2-16.5,6.5-24.3,4.2 C294.3,248.3,293.6,250.7,295.2,251.2L295.2,251.2z"/> </g> </g> <g> <g> <path class="st1" d="M273.7,252.7c-4.5,3.5-10.2,4.7-15.7,5.4c-1.6,0.2-1.6,2.7,0,2.5c6.3-0.8,12.4-2.2,17.5-6.1 C276.7,253.5,274.9,251.7,273.7,252.7L273.7,252.7z"/> </g> </g> <g> <g> <path class="st1" d="M297.8,255.4c3.7,2.6,8.3,3.8,12.6,5.2c1.5,0.5,2.2-1.9,0.7-2.4c-4.1-1.3-8.4-2.4-12-4.9 C297.7,252.3,296.5,254.5,297.8,255.4L297.8,255.4z"/> </g> </g> <g> <path class="st0" d="M300.8,255.1c0,8.1-6.6,14.7-14.7,14.7l0,0c-8.1,0-14.7-6.6-14.7-14.7v-11c0-8.1,6.6-14.7,14.7-14.7l0,0 c8.1,0,14.7,6.6,14.7,14.7V255.1z"/> <g> <path class="st1" d="M298.3,255.1c-0.5,12.2-17.2,17-23.1,5.6c-2.3-4.5-1.7-11.7-1.4-16.7c0.7-11.8,16.5-17.1,22.8-6.2 C299.5,242.7,298.3,249.7,298.3,255.1c0,3.2,5,3.2,5,0c0-6.7,1.1-14.3-2.7-20.3c-5.2-8.2-16.6-10.4-24.5-4.8 c-7.5,5.4-7.2,13.6-7.2,21.9c0,8.4,2.8,16.3,11.4,19.4c11.4,4.1,22.5-4.6,23-16.2C303.5,251.9,298.5,251.9,298.3,255.1z"/> </g> </g> </svg>