<?xml version="1.0" encoding="UTF-8" standalone="no"?>
<!-- Created with Inkscape (http://www.inkscape.org/) -->

<svg
   version="1.1"
   id="svg28611"
   width="135.0741"
   height="107.37969"
   viewBox="0 0 135.0741 107.37969"
   sodipodi:docname="1469336_203387-OZE7CT-812.eps"
   xmlns:inkscape="http://www.inkscape.org/namespaces/inkscape"
   xmlns:sodipodi="http://sodipodi.sourceforge.net/DTD/sodipodi-0.dtd"
   xmlns="http://www.w3.org/2000/svg"
   xmlns:svg="http://www.w3.org/2000/svg">
  <defs
     id="defs28615" />
  <sodipodi:namedview
     id="namedview28613"
     pagecolor="#ffffff"
     bordercolor="#000000"
     borderopacity="0.25"
     inkscape:showpageshadow="2"
     inkscape:pageopacity="0.0"
     inkscape:pagecheckerboard="0"
     inkscape:deskcolor="#d1d1d1"
     showgrid="false" />
  <g
     id="g28619"
     inkscape:groupmode="layer"
     inkscape:label="Page 1"
     transform="matrix(1.3333333,0,0,-1.3333333,-1401.444,796.95872)">
    <g
       id="g28621"
       transform="scale(0.1)">
      <path
         d="m 11193.218,5327.8562 c 0.01,0 0.03,0 0.04,-0.01 0.01,0 0.02,0 0.03,0 l -0.07,0.01"
         style="fill:#e1ebe7;fill-opacity:1;fill-rule:nonzero;stroke:none"
         id="path28825" />
      <path
         d="m 11496.828,5489.1362 c 0.01,-0.01 0.02,-0.01 0.03,-0.01 0.01,0 0.02,0 0.02,0 l -0.05,0.01"
         style="fill:#e1ebe7;fill-opacity:1;fill-rule:nonzero;stroke:none"
         id="path28835" />
      <path
         d="m 11387.818,5328.5162 c -0.07,0.19 -0.15,0.39 -0.22,0.58 0.06,-0.02 0.13,-0.01 0.19,-0.02 0,-0.02 0.03,-0.56 0.03,-0.56 z m -35.35,2.73 c -0.38,0.05 -0.77,0.1 -1.16,0.15 0.15,0.14 0.32,0.24 0.47,0.37 l 0.35,-0.04 v 0 c 0.1,-0.17 0.24,-0.32 0.34,-0.48 z m 15.52,70.2 v 0.16 c 0.01,-0.05 0.01,-0.11 0.02,-0.18 -0.01,0.01 -0.01,0.01 -0.02,0.01 z m 33.68,-52.53 c 0,0.06 -0.01,0.12 -0.01,0.17 0.18,-0.1 0.35,-0.19 0.52,-0.29 3.08,2.62 4.97,5.89 5.41,9.96 2.01,18.42 -19.33,41.54 -39.6,42.86 v 0 c -1.81,0.22 -3.63,0.45 -5.45,0.68 l -0.03,-0.33 v 0 c -0.03,-0.02 -0.06,-0.03 -0.08,-0.05 0.03,0.13 0.07,0.25 0.11,0.38 -3.21,1.49 -5.96,0.32 -8.61,-1.47 l -0.01,-0.27 c -0.01,-0.01 -0.02,-0.02 -0.04,-0.03 0.02,0.1 0.03,0.2 0.05,0.3 -15.26,0.83 -22.76,-8.88 -28.5,-20.99 v 0 c -0.24,-1.82 -0.49,-3.62 -0.74,-5.44 1.33,-13.78 9.31,-25.16 13.86,-37.78 1.5,-4.17 4.78,-7.84 10.18,-7.84 v 0 c 1.81,-0.26 3.63,-0.53 5.43,-0.8 11.22,-0.01 22.6,-9.91 33.66,0.54 v 0 c 11.74,3.48 14.71,7.67 14.36,20.28 l -0.51,0.12"
         style="fill:#e1ebe7;fill-opacity:1;fill-rule:nonzero;stroke:none"
         id="path29109" />
      <path
         d="m 11206.358,5649.5462 c -1.56,1.29 -3.61,0.06 -4.58,-1.68 -1.27,-2.27 -1.72,-4.81 0.26,-6.92 1.47,-1.57 3.25,-1.19 4.83,0.15 1.53,2.93 2.37,6.08 -0.51,8.45"
         style="fill:#e1ebe7;fill-opacity:1;fill-rule:nonzero;stroke:none"
         id="path29131" />
      <path
         d="m 10817.558,5783.7462 v 0.01 -0.01 c 2.52,-1.24 5.03,-2.48 7.54,-3.72 9.02,-6.07 16.34,-19.22 29.73,-7.15 l -0.01,-0.01 0.01,0.01 -0.12,-0.02 c 16.73,3.95 19.54,6.69 19.62,19.19 l 0.01,-0.01 c 2.19,5.18 -1.37,8.44 -4.02,11.99 0,0 0,-0.02 0,-0.03 0,0.01 0,0.02 0,0.03 -0.77,0.72 -1.4,1.55 -1.9,2.48 -5.37,6.95 -13.65,7.21 -21.18,9.17 0.01,0 0.02,0 0.03,0 h -0.05 v 0 c -1.77,0.27 -3.54,0.59 -5.35,0.63 v 0 l -0.16,0.02 c 0.05,0 0.1,-0.02 0.15,-0.02 -9.9,0.4 -16.09,-4.26 -18.75,-13.72 -7.26,-4.68 -11.47,-10.26 -5.55,-18.84"
         style="fill:#e1ebe7;fill-opacity:1;fill-rule:nonzero;stroke:none"
         id="path29141" />
      <path
         d="m 11341.928,5573.8662 v 0 l -1.4,-1.18 -1.51,-1.04 c -2.7,-1.94 -4.72,-4.22 -4.13,-7.88 -1.76,-4.43 -0.22,-6.5 4.55,-6.26 v 0 l 0.02,-0.01 c 1.97,-2.54 4.26,-4.47 7.8,-3.89 6.14,-5.83 10.27,-5.26 11.75,3.73 v 0 c 0.85,0.86 1.78,1.61 2.8,2.25 0.46,1.85 0.91,3.71 1.03,5.62 1.76,4.47 0.24,6.51 -4.55,6.13 -2.62,3.47 -4.66,7.79 -10.2,7.03 -4.43,1.88 -6.4,0.27 -6.16,-4.5"
         style="fill:#e1ebe7;fill-opacity:1;fill-rule:nonzero;stroke:none"
         id="path29251" />
      <path
         d="m 11444.667,5616.2305 c -0.445,-0.072 -0.89,-0.1441 -1.334,-0.213 -2.431,-14.7169 -4.858,-29.4369 -7.357,-44.5923 12.23,-0.038 24.022,-1.306 35.863,3.893 -9.229,13.8932 -18.202,27.4012 -27.172,40.9123 z m -16.433,-44.4702 c 0.335,0.4448 0.664,0.8864 0.999,1.3311 -11.297,18.5191 -28.833,31.4476 -43.713,47.7054 -2.605,-15.1365 -5.064,-29.4244 -7.667,-44.5202 17.192,-1.5409 33.788,-3.0255 50.381,-4.5163 z m -34.433,100.6631 c -2.214,-14.1062 -4.422,-26.8406 -6.048,-39.6501 -0.294,-2.3302 1.119,-5.5999 2.847,-7.3475 9.929,-10.0503 20.248,-19.7092 30.292,-29.6468 2.769,-2.7404 5.052,-5.9725 8.309,-9.8843 2.381,13.8494 4.604,25.4531 6.202,37.1383 0.357,2.5745 -0.733,6.1511 -2.478,8.0835 -10.955,12.1644 -22.274,24.0062 -33.502,35.9263 -1.563,1.6662 -3.301,3.1695 -5.622,5.3806 z m -112.655,-220.7472 c 24.495,-28.0401 36.205,-62.4567 54.721,-94.3209 3.79,26.2424 7.413,51.3009 10.918,75.5263 -21.516,6.1573 -42.954,12.2959 -65.639,18.7946 z m -188.116,202.3534 c -2.612,2.2738 -4.268,3.8147 -6.025,5.2272 -3.395,2.7373 -7.235,5.0361 -10.173,8.1869 -4.548,4.8732 -9.963,6.9121 -16.223,5.7282 -7.482,-1.4187 -14.752,-3.9086 -22.221,-5.3869 -12.252,-2.4303 -20.201,-9.7465 -24.489,-21.0715 -2.568,-6.79 -4.942,-13.7773 -6.248,-20.8837 -2.271,-12.3773 0.918,-16.7652 13.066,-20.2228 0.351,-0.1002 0.727,-0.1472 1.05,-0.2944 5.249,-2.3677 10.488,-4.748 15.734,-7.1282 1.241,-0.5575 2.475,-1.1087 4.238,-1.9043 -0.232,1.8761 -0.285,2.5964 -0.414,3.3074 -3.285,17.664 -0.463,23.433 15.372,31.41 0.977,0.4917 2.004,0.9082 2.919,1.4971 10.83,6.9622 21.651,13.9495 33.414,21.535 z m -292.853,33.878 c 0.351,0.617 0.701,1.2309 1.059,1.8447 -43.212,34.2726 -85.292,70.0047 -131.847,101.6246 0.241,-12.5966 3.169,-23.2514 8.476,-33.142 10.841,-20.2228 28.821,-31.8673 49.379,-40.3141 18.494,-7.598 36.95,-15.2931 55.438,-22.9256 5.81,-2.4022 11.657,-4.7261 17.495,-7.0876 z m 623.882,198.8989 c -3.502,-28.1058 -6.759,-55.0591 -10.282,-81.9749 -1.084,-8.2964 -2.948,-16.4864 -4.36,-24.739 -0.648,-3.8053 -0.08,-6.5207 4.172,-8.6974 10.197,-5.2146 19.966,-11.2811 29.891,-17.0407 3.677,-2.136 7.294,-4.3753 11.206,-6.7305 0.974,14.2784 1.7,27.7175 2.897,41.1158 0.448,5.0863 -0.608,9.4804 -2.506,14.1469 -5.227,12.8221 -10.025,25.8196 -14.801,38.8202 -5.403,14.6856 -10.599,29.4432 -16.217,45.0996 z m -630.174,-30.436 c -0.229,-0.7485 -0.454,-1.497 -0.677,-2.2424 1.31,-1.187 2.544,-2.4742 3.947,-3.5391 17.852,-13.5518 35.713,-27.0849 53.59,-40.6022 31.119,-23.527 62.181,-47.1323 93.438,-70.4682 5.418,-4.0434 11.697,-6.9341 17.579,-10.3573 0.41,0.5042 0.821,1.0116 1.234,1.5158 -12.283,15.6659 -22.744,32.9635 -37.862,46.1708 -21.939,19.1674 -44.987,37.06 -66.951,56.1961 -9.643,8.3998 -19.916,14.5853 -32.378,17.0971 -10.626,2.1391 -21.281,4.1592 -31.92,6.2294 z m 584.457,-582.5655 c 0.448,-0.084 0.896,-0.166 1.347,-0.2474 8.039,53.9755 16.076,107.9573 23.899,160.4953 -15.75,-0.783 -32.193,-1.6004 -49.005,-2.4335 -0.36,-1.9167 -0.971,-4.4003 -1.278,-6.9184 -3.078,-25.3247 -6.198,-50.6432 -9.023,-75.9961 -0.316,-2.8187 0.558,-6.1197 1.851,-8.7098 5.45,-10.9148 11.523,-21.5257 16.878,-32.4843 5.412,-11.087 10.245,-22.4622 15.331,-33.7058 z m -155.941,320.5334 c -0.282,0.1221 0.35,-0.2475 1.033,-0.4448 35.2,-10.3009 70.262,-20.7396 107.842,-16.3831 13.251,1.5378 26.824,0.2443 40.311,0.2443 1.923,14.8203 3.852,29.7126 5.784,44.6049 -19.405,3.5453 -38.36,7.0249 -57.323,10.4668 -20.79,3.7803 -41.614,7.3788 -62.344,11.4315 -3.53,0.6922 -5.184,0.2036 -6.975,-2.8187 -9.249,-15.6314 -18.701,-31.1407 -28.328,-47.1009 z m -509.21,330.1201 c 5.998,-5.0706 10.805,-8.951 15.406,-13.057 16.737,-14.9393 33.33,-30.032 50.164,-44.8554 2.44,-2.1422 5.979,-4.5726 8.866,-4.4034 16.543,0.974 32.19,-2.7217 47.897,-7.1565 8.337,-2.3583 15.384,-6.4423 21.917,-11.8386 16.017,-13.2355 31.507,-27.182 48.213,-39.481 28.757,-21.1656 50.217,-48.5354 69.688,-77.8408 1.453,-2.1798 2.734,-4.9641 4.839,-6.1448 17.52,-9.8468 32.278,-23.1199 46.719,-36.822 0.968,-0.9208 2.064,-1.7069 4.259,-3.5109 -0.877,3.6925 -1.249,5.9976 -1.976,8.1868 -2.346,7.1001 -5.331,14.0279 -7.103,21.2626 -2.171,8.8383 -6.737,16.167 -12.625,22.6845 -24.028,26.6182 -50.9,50.2204 -78.956,72.4101 -16.142,12.7657 -33.408,24.1189 -50.217,36.0484 -14.873,10.5545 -29.64,21.2626 -44.758,31.4601 -14.958,10.0879 -30.583,19.2018 -45.366,29.5309 -12.424,8.6786 -26.199,14.2722 -39.904,20.2385 -11.569,5.0298 -23.464,3.6706 -37.063,3.2885 z m 543.968,-272.5899 c 1.061,-0.3445 1.719,-0.6546 2.414,-0.7704 19.396,-3.1915 38.811,-6.2858 58.195,-9.5618 18.844,-3.182 37.658,-6.5394 56.481,-9.8374 2.634,-0.4603 5.105,-1.0805 5.621,2.8595 1.842,13.8932 3.868,27.7645 5.635,41.6671 0.232,1.8102 -0.04,4.2876 -1.121,5.5591 -5.434,6.3641 -10.649,13.1071 -16.997,18.4564 -11.83,9.9721 -24.445,19.0139 -36.619,28.5819 -2.837,2.23 -5.515,2.5901 -8.497,0.8018 -6.536,-3.9305 -13.542,-7.2911 -19.446,-12.0172 -21.504,-17.2067 -34.686,-40.3923 -45.666,-65.739 z m -61.135,-308.0808 c -1.375,1.9669 -2.434,3.5955 -3.605,5.127 -23.847,31.1187 -47.746,62.1905 -71.524,93.3594 -5.412,7.0969 -10.996,14.1751 -15.459,21.8639 -9.34,16.0793 -17.977,32.5658 -26.935,48.8705 -0.98,1.7852 -2.136,3.4733 -3.21,5.2053 0.464,-8.1806 2.026,-15.8413 3.414,-23.5364 3.526,-19.5557 3.83,-39.1803 0.297,-58.7298 -4.015,-22.2304 -8.503,-44.373 -12.671,-66.5752 -0.42,-2.2174 -0.06,-4.5852 -0.06,-6.8182 43.267,-6.2576 86.128,-12.4557 129.752,-18.7665 z m -465.26,276.9464 c 15.685,-0.8488 31.254,-1.6192 46.822,-2.5901 3.59,-0.2224 7.285,-0.6953 10.693,-1.7946 8.706,-2.8093 17.454,-3.2572 26.468,-2.0138 5.195,0.7172 10.564,1.353 15.728,0.8237 9.233,-0.9427 18.403,-2.6121 27.539,-4.3221 11.441,-2.1391 22.722,-5.509 34.248,-6.7743 21.519,-2.3584 43.217,-2.3615 64.508,-7.62 13.545,-3.3449 27.72,-4.1059 41.564,-6.3171 7.588,-1.2152 11.904,0.4448 16.724,7.7265 -6.956,2.8218 -14.623,4.8732 -16.129,13.58 -1.977,0 -3.245,-0.022 -4.51,0.01 -15.325,0.3414 -30.02,2.1829 -42.751,12.3053 -7.169,5.697 -15.92,8.6347 -25.337,9.2987 -6.17,0.4384 -12.415,1.1243 -18.397,2.6308 -31.385,7.9081 -60.512,20.9588 -87.465,38.9517 -4.003,2.6684 -8.654,4.5319 -13.226,6.1542 -11.3,4.0089 -22.735,7.6513 -34.11,11.4597 -8.068,2.7029 -16.123,5.4402 -24.367,8.2213 -5.931,-26.2768 -11.782,-52.1778 -18.002,-79.7262 z m 764.042,-84.4804 c 8.96,21.0057 15.625,41.1722 18.553,62.4473 2.734,19.9253 1.422,39.4059 -7.754,57.5961 -6.562,13.0068 -13.875,25.6473 -21.2,38.2501 -4.488,7.7139 -9.891,14.8985 -14.426,22.5874 -11.876,20.1633 -31.448,30.8682 -50.759,41.9772 -11.679,6.7179 -23.749,11.7353 -37.633,11.4283 -24.952,-0.5512 -49.92,-0.6733 -74.875,-1.1776 -10.445,-0.2129 -20.874,-0.9458 -31.557,-1.45 0.451,-0.6296 0.598,-1.0806 0.845,-1.1463 40.364,-10.5577 72.182,-35.5661 101.897,-62.8577 21.279,-19.5369 40.349,-41.617 59.187,-63.603 11.914,-13.912 21.432,-29.8629 32.322,-44.6769 11.892,-16.1732 19.28,-34.2319 23.687,-53.6623 0.344,-1.5284 0.898,-3.0098 1.713,-5.7126 z m -222.097,-324.8836 c -12.49,24.0375 -24.245,48.1157 -37.37,71.4297 -9.202,16.3361 -20.352,31.5635 -30.433,47.4142 -2.149,3.373 -4.811,5.2365 -8.641,5.8191 -19.28,2.944 -38.523,6.1323 -57.831,8.8257 -20.398,2.8469 -40.859,5.2523 -61.298,7.8079 -3.546,0.4416 -7.116,0.6796 -11.422,1.0805 0,-2.7341 0.02,-4.6916 0,-6.6522 -0.144,-20.9369 3.166,-41.4353 8.039,-61.7051 2.387,-9.9188 4.867,-19.8658 8.178,-29.4996 2.461,-7.1627 6.633,-13.7272 9.446,-20.7928 1.158,-2.9095 2.584,-3.8773 5.44,-4.1717 8.506,-0.8863 16.994,-1.9606 25.481,-3.038 18.065,-2.2957 36.092,-4.9484 54.198,-6.8902 31.654,-3.395 63.353,-6.3609 96.213,-9.6275 z m -109.809,707.8862 c -17.51,2.7467 -33.289,6.7649 -49.19,7.3349 -20.257,0.7235 -39.402,6.9498 -59.287,9.1202 -4.222,0.4635 -5.835,-0.3571 -6.436,-4.6509 -1.394,-9.9282 -2.831,-19.8846 -5.002,-29.6624 -11.428,-51.5421 -16.308,-103.6259 -15.277,-156.4364 0.454,-23.0634 7.141,-44.2822 14.303,-65.8235 11.664,2.3176 23.343,6.8025 33.694,0.6952 6.072,6.527 11.678,12.1362 16.802,18.1558 7.276,8.5439 10.226,18.7477 9.813,30.2606 -11.451,-13.58 -22.907,-27.16 -34.364,-40.74 -0.128,2.5713 -0.01,5.2553 1.24,7.2284 5.04,7.952 9.891,16.12 15.81,23.3986 9.91,12.1863 19.96,24.0344 25.491,39.1678 6.812,18.6632 13.07,37.7303 22.105,55.3192 10.382,20.2008 13.508,41.7704 17.176,63.4495 2.468,14.5854 1.506,30.0727 13.122,43.183 z m -122.605,14.8703 c -6.461,0.9647 -11.679,1.6944 -16.875,2.5306 -23.405,3.7646 -46.741,8.0428 -70.224,11.2374 -36.117,4.9045 -72.36,8.9071 -108.511,13.652 -13.158,1.7257 -26.177,4.463 -39.256,6.7869 -3.407,0.6076 -4.961,-0.404 -5.152,-4.1467 -0.933,-18.0305 -2.142,-36.0453 -3.069,-54.0726 -0.08,-1.4908 0.817,-3.6236 1.979,-4.4881 5.703,-4.2374 11.582,-8.2557 17.536,-12.1424 11.303,-7.3694 22.932,-14.2534 33.994,-21.9579 16.608,-11.5725 32.471,-24.2317 49.299,-35.4534 42.266,-28.1778 80.293,-61.2133 115.089,-98.1011 0.886,-0.9459 1.961,-1.7194 3.354,-2.9252 0,2.3959 0.04,4.0214 -0.01,5.6406 -0.05,1.8227 -0.253,3.6455 -0.266,5.4652 -0.489,49.049 4.187,97.5906 14.213,145.6218 2.894,13.8681 5.211,27.8584 7.895,42.3529 z m -358.086,-540.5852 c 1.43,-5.5372 2.503,-9.5774 3.515,-13.6301 9.064,-36.2802 18.074,-72.5729 27.307,-108.8092 0.436,-1.7069 2.706,-3.9963 4.329,-4.1749 10.144,-1.1212 20.338,-1.804 30.523,-2.4867 21.463,-1.4376 42.936,-2.7968 64.402,-4.1686 18.92,-1.212 37.862,-2.1046 56.75,-3.6863 19.788,-1.6568 39.525,-3.9806 59.281,-6.0007 8.441,-0.8613 16.881,-1.6756 25.46,-2.5212 0,1.3498 0.116,1.9198 -0.02,2.4241 -10.176,38.1155 -18.892,76.4721 -18.732,116.2475 0.02,3.5735 -1.839,4.297 -4.748,4.369 -5.65,0.1347 -11.335,-0.025 -16.941,0.5888 -16.314,1.7946 -32.547,4.4599 -48.899,5.7941 -41.266,3.3699 -82.579,6.1448 -123.864,9.2893 -7.996,0.6107 -15.941,1.8541 -23.912,2.7842 -11.175,1.3029 -22.356,2.5839 -34.452,3.9807 z m 350.034,98.3267 c 0,0.5199 -0.107,1.068 0.02,1.5534 1.979,7.5542 4.754,14.9988 5.797,22.6782 1.297,9.5336 1.312,19.2551 1.613,28.9014 0.41,13.1071 0.623,26.2204 0.758,39.3275 0.01,1.5629 -0.554,3.8335 -1.66,4.5695 -3.304,2.2018 -6.896,4.106 -10.608,5.5153 -1.76,0.6703 -4.92,0.7987 -5.957,-0.2725 -8.735,-8.9792 -18.03,-17.6295 -25.412,-27.6611 -12.334,-16.762 -18.303,-36.7656 -25.71,-55.9799 -26.684,-69.2186 -35.463,-140.047 -19.08,-213.0865 3.423,-15.2838 7.652,-30.3859 11.247,-45.629 1.391,-5.8849 5.143,-7.7672 10.58,-7.9895 6.37,-0.26 12.728,-0.9803 19.095,-1.0085 26.183,-0.1065 51.789,-4.1843 77.105,-10.6078 4.262,-1.0837 8.769,-1.1996 13.16,-1.7664 0.276,0.4698 0.554,0.9395 0.833,1.4031 -1.879,2.7811 -4.366,5.3211 -5.525,8.3747 -3.673,9.6683 -7.219,19.4179 -10.172,29.3273 -15.274,51.2539 -16.045,102.7114 -1.215,154.197 6.336,21.9986 6.737,44.3073 3.511,66.6379 -3.339,23.0666 -7.808,45.9704 -11.827,68.9336 -1.368,7.8298 -0.335,16.6211 -8.487,21.8577 -1.663,-30.6114 0.842,-62.0089 -18.065,-89.2754 z m 35.478,72.1782 c -0.855,-0.6013 -1.713,-1.2089 -2.568,-1.8102 1.961,-7.4979 2.506,-15.7787 6.142,-22.3526 12.43,-22.4809 25.027,-44.9806 39.299,-66.3121 16.405,-24.5167 34.564,-47.8652 52.14,-71.5895 17.79,-24.0093 36.396,-47.4392 53.506,-71.9183 13.035,-18.6474 25.309,-37.987 36.092,-58 15.04,-27.9242 28.351,-56.7723 42.454,-85.1977 2.934,-5.9162 5.246,-6.5613 11.462,-4.4911 8.983,2.9941 18.047,5.7533 27.104,8.5188 17.075,5.224 34.154,10.4387 51.279,15.503 3.902,1.1588 4.66,3.1852 3.429,6.862 -3.93,11.7416 -7.519,23.5928 -11.522,35.3031 -9.393,27.4888 -21.053,53.9504 -35.102,79.4255 -14.786,26.8123 -28.438,54.2542 -43.412,80.9539 -8.97,15.9978 -17.999,32.2212 -32.062,44.6706 -2.258,1.9981 -4.484,4.4943 -7.19,5.4589 -10.815,3.8585 -21.867,7.0437 -32.732,10.7738 -21.895,7.5197 -44.389,13.7554 -65.438,23.1887 -34.787,15.5845 -64.531,38.8359 -90.666,66.5815 -1.09,1.1557 -1.494,2.9409 -2.215,4.4317 z m 348.84,334.984 c -17.583,1.5002 -33.709,3.3011 -49.882,4.1717 -35.688,1.9136 -71.395,3.3669 -107.096,4.9986 -8.738,0.4009 -17.498,0.5355 -26.218,1.1713 -18.346,1.3311 -36.668,3.0693 -55.021,4.3377 -10.163,0.7016 -12.45,-0.9896 -15.71,-10.7205 -1.209,-3.5986 -1.873,-7.4195 -2.452,-11.1935 -1.413,-9.1922 -2.374,-18.4627 -3.987,-27.6142 -3.192,-18.115 -5.418,-36.537 -15.578,-52.6256 -1.244,-1.9669 -1.785,-4.3785 -2.678,-6.5708 -7.529,-18.588 -14.977,-37.2072 -22.653,-55.7294 -2.174,-5.246 -3.984,-9.853 -3.715,-16.2046 0.711,-16.7401 -4.359,-31.9518 -17.952,-43.3551 -3.855,-3.2322 -6.793,-7.548 -10.144,-11.3783 -1.961,-2.2425 -1.613,-4.2031 0.67,-6.0227 5.064,-4.0433 10.091,-8.1336 15.359,-12.3867 1.823,1.7413 3.605,3.2853 5.208,4.9985 14.207,15.1836 28.385,30.3859 42.557,45.6008 26.74,28.704 57.521,50.6776 96.322,60.4962 11.945,3.0223 23.728,5.4307 35.992,5.8566 11.3,0.3884 22.584,1.2967 33.884,1.5128 19.306,0.3633 38.617,0.5199 57.928,0.4572 9.976,-0.028 19.941,-0.7047 31.1,-1.1369 4.639,39.9978 9.302,80.2649 14.066,121.3369 z m -606.591,-185.6509 c 0.191,0.2725 0.379,0.5419 0.564,0.8143 1.807,-1.0523 3.683,-1.9981 5.406,-3.1632 6.508,-4.3878 13.113,-8.641 19.412,-13.3138 25.641,-19.0295 53.371,-31.9362 86.24,-31.1689 10,0.2318 20.217,0.081 30.01,-1.6943 17.01,-3.0819 33.756,-7.5981 50.637,-11.4096 1.372,-0.3101 2.925,0.1754 4.391,0.2881 -0.31,1.4031 -0.16,3.2478 -1.012,4.1435 -12.906,13.555 -24.466,28.4629 -40.091,39.315 -5.362,3.7208 -9.994,8.5063 -14.824,12.9599 -2.067,1.9136 -3.771,4.2156 -5.643,6.3453 0.366,0.4385 0.732,0.8738 1.099,1.3123 13.232,-5.9663 23.702,-16.2516 35.801,-23.9937 12.669,-8.0991 18.478,-22.2397 28.503,-32.2963 4.567,4.1435 8.657,7.8517 13.02,11.8104 -14.288,13.0601 -28.4,26.471 -45.413,36.4337 -17.908,10.4888 -36.928,18.9669 -53.465,31.9581 -30.411,23.8934 -60.913,47.7367 -92.32,70.2772 -34.498,24.7578 -66.45,52.397 -97.396,81.289 -18.748,17.5043 -38.902,33.0198 -60.589,46.6781 -9.08,5.7158 -18.064,11.7322 -26.308,18.5629 -5.499,4.5601 -10.288,5.3775 -16.86,3.0255 -21.454,-7.6764 -43.177,-14.6104 -64.601,-22.3557 -14.859,-5.3681 -30.01,-10.3322 -42.984,-20.3293 0.716,-0.6859 1.327,-1.3436 2.015,-1.9073 29.314,-24.0782 58.427,-48.4007 88.024,-72.1313 19.185,-15.3871 38.96,-30.057 58.686,-44.7677 21.927,-16.3549 44.452,-31.9299 66.075,-48.67 28.691,-22.2179 55.992,-46.3024 85.319,-67.6151 30.38,-22.0831 64.28,-37.4797 102.254,-41.6483 11.582,-1.2747 22.466,-4.4316 31.407,-11.5849 11.942,-9.5555 26.011,-10.2602 39.488,-12.2145 1.979,9.6682 3.886,18.9919 5.809,28.4253 -5.587,0.902 -11.391,1.0586 -16.668,2.825 -23.928,7.9989 -48.745,8.8978 -73.522,9.2861 -16.571,0.2568 -31.651,5.2898 -46.224,11.9201 -20.664,9.402 -37.598,24.2755 -53.906,39.7942 -0.874,0.83 -1.56,1.8635 -2.334,2.7999 z m -128.328,-312.0458 c 85.152,-7.7546 168.946,-15.3808 253.317,-23.0603 2.524,72.8861 23.862,140.0125 60.008,202.9892 -0.959,0.1315 -2.691,0.4009 -4.435,0.5919 -9.067,0.9991 -18.319,1.1588 -27.163,3.1288 -21.444,4.7762 -43.108,6.8307 -64.966,8.7694 -21.694,1.923 -43.082,7.2754 -64.649,10.8584 -4.597,0.7641 -9.489,1.0648 -14.071,0.3821 -12.315,-1.8385 -24.329,-1.8479 -36.13,2.7091 -2.149,0.8299 -4.667,1.1556 -6.975,1.0366 -13.63,-0.6953 -26.913,1.234 -40.079,4.5758 -7.918,2.0138 -8.259,1.8697 -10.038,-6.0697 -8.077,-35.9576 -16.136,-71.9214 -23.975,-107.9291 -7.015,-32.24 -13.74,-64.5395 -20.844,-97.9822 z m 793.984,168.2875 c -13.283,-6.4204 -26.13,-6.5739 -38.867,-6.3922 -12.754,0.1848 -25.541,0.8331 -38.219,2.1579 -27.063,2.8312 -54.051,5.484 -81.336,2.5713 -8.613,-0.9208 -17.733,-0.9521 -26.145,0.8487 -24.934,5.3368 -49.626,11.8387 -74.452,17.7079 -1.952,0.4635 -4.88,0.3383 -6.242,-0.8205 -6.64,-5.6563 -14.37,-8.5126 -22.738,-10.1036 -12.725,-2.4241 -25.447,-4.8827 -38.178,-7.2849 -17.586,-3.3198 -35.144,-5.0392 -52.228,2.3051 -7.194,3.0944 -14.858,5.6625 -21.172,10.0942 -7.946,5.5748 -14.733,12.8127 -22.017,19.3334 0.413,0.5261 0.83,1.0523 1.243,1.5784 0.758,-0.2818 1.672,-0.3821 2.252,-0.8738 10.279,-8.7224 22.271,-14.4225 34.567,-19.5651 11.864,-4.9578 23.884,-9.2736 37.097,-6.8839 20.621,3.7207 41.264,7.3381 61.815,11.4064 3.959,0.7861 7.968,2.8814 11.231,5.3337 9.982,7.5103 18.742,16.3079 24.824,27.3824 9.743,17.736 19.565,35.4439 28.951,53.3742 11.507,21.9735 24.583,42.5753 45.617,56.8569 4.619,3.1381 9.264,6.2481 13.909,9.3801 -0.298,0.3883 -0.451,0.7641 -0.73,0.9145 -4.325,2.3552 -8.654,4.7104 -13.01,7.0092 -27.561,14.5196 -56.099,17.0001 -84.938,4.9672 -16.922,-7.0624 -31.93,-17.9239 -44.933,-30.8055 -19.556,-19.3835 -38.204,-39.6783 -57.28,-59.5441 -16.819,-17.5137 -37.179,-29.8347 -59.134,-39.6689 -6.561,-2.9409 -10.793,-17.3571 -6.317,-22.9539 18.604,-23.2607 38.231,-45.3439 62.112,-63.6437 25.178,-19.2989 52.025,-34.8113 82.395,-44.2603 30.116,-9.3739 60.02,-19.4336 90.143,-28.7949 19.822,-6.1605 39.634,-12.7031 59.879,-17.0878 23.016,-4.9797 46.365,-5.9851 68.67,4.535 4.448,2.0984 9.161,3.6143 13.64,5.6532 8.776,3.9932 19.092,6.3985 25.895,12.6059 17.379,15.8601 31.018,34.8521 37.833,57.928 0.398,1.3468 0.702,3.0161 0.263,4.2626 -4.638,13.3326 -9.436,26.6088 -14.4,40.4769 z m -735.745,134.4785 c -8.29,3.5797 -16.586,6.8714 -24.632,10.6892 -18.717,8.8884 -34.443,21.2438 -44.43,39.8819 -6.323,11.7917 -9.321,24.4321 -9.726,37.8117 -0.07,2.2675 -1.56,5.1896 -3.344,6.6021 -25.047,19.7968 -50.438,39.1615 -75.377,59.0899 -22.649,18.0994 -44.848,36.7625 -67.256,55.1625 -6.113,5.0236 -5.632,8.3685 1.093,12.3429 33.106,19.5902 69.613,30.6052 105.887,42.2215 4.165,1.331 8.386,2.5118 12.485,4.0057 5.61,2.0389 10.196,0.2693 14.805,-2.9691 18.038,-12.6717 36.169,-25.2057 54.34,-37.6801 1.322,-0.9051 3.449,-1.6881 4.839,-1.2872 21.545,6.2513 41.805,2.8719 61.286,-7.5417 5.897,-3.157 12.017,-5.9131 18.775,-9.2141 0.138,3.0286 0.22,5.6688 0.382,8.3058 0.99,15.8288 1.914,31.67 3.042,47.4894 0.466,6.5394 2.455,8.5908 9.045,8.1148 9.602,-0.6984 19.183,-1.9449 28.707,-3.3731 20.176,-3.0254 40.264,-6.6773 60.474,-9.4083 26.9,-3.633 53.95,-6.1793 80.813,-10.0597 21.632,-3.1226 43.064,-7.62 64.624,-11.2562 2.565,-0.429 5.384,0.9803 8.096,1.0962 3.94,0.1723 7.914,0.1942 11.836,-0.166 19.364,-1.8008 37.99,-7.8172 57.639,-8.8602 17.542,-0.927 35.61,-3.2415 52.112,-8.8664 13.643,-4.6509 26.951,-2.0389 40.227,-4.3002 39.866,-6.7774 80.415,-4.2406 120.497,-8.4687 13.386,-1.4093 26.994,-0.6013 40.459,-1.4219 14.372,-0.8675 28.694,-2.4773 43.045,-3.727 2.167,-0.191 4.356,-0.2192 6.539,-0.2599 6.176,-0.119 9.631,-2.8344 11.764,-8.4687 11.807,-31.2002 23.116,-62.6103 36.004,-93.3563 3.605,-8.6003 3.699,-16.12 2.531,-24.5699 -1.757,-12.6405 -3.226,-25.3216 -4.657,-37.9996 -0.138,-1.2497 0.479,-2.9534 1.349,-3.8899 14.912,-16.0574 25.548,-35.0211 36.597,-53.6999 3.617,-6.1198 6.994,-12.3836 10.498,-18.5723 16.224,-28.6602 16.75,-59.0304 7.974,-89.6137 -5.716,-19.9064 -14.341,-38.9579 -20.83,-58.6671 -6.324,-19.1893 -17.837,-34.9115 -30.446,-50.1796 -6.467,-7.8267 -14.259,-13.4172 -23.652,-17.0721 -7.648,-2.9722 -15.287,-6.0196 -22.694,-9.5399 -2.246,-1.0648 -4.538,-3.4952 -5.381,-5.8191 -7.598,-20.9588 -8.647,-43.1954 -12.205,-64.9435 -5.809,-35.4565 -11.328,-70.9631 -17.329,-106.3851 -1.146,-6.7618 -0.413,-12.6968 1.848,-19.1141 4,-11.3344 7.291,-22.9445 10.267,-34.5921 1.882,-7.3694 0.62,-9.9156 -6.361,-12.2145 -18.854,-6.2168 -37.89,-11.8731 -56.838,-17.7736 -7.999,-2.4962 -16.086,-4.7511 -23.944,-7.6388 -12.064,-4.4379 -18.807,-2.0858 -24.72,9.3676 -1.76,3.4013 -4.112,6.6929 -4.958,10.3291 -1.957,8.3935 -8.253,9.4866 -15.099,10.1599 -39.913,3.9118 -79.842,7.6451 -119.727,11.8324 -14.128,1.4846 -28.106,4.3221 -42.218,6.0165 -5.271,0.6295 -10.755,-0.7141 -16.08,-0.3226 -7.41,0.5449 -14.801,1.6599 -22.133,2.9252 -11.66,2.0044 -23.186,4.9547 -34.905,6.3797 -18.601,2.2644 -37.317,3.5516 -55.974,5.3744 -2.878,0.2756 -5.972,0.6483 -8.481,1.9261 -5.866,2.9847 -12.017,3.1883 -18.384,3.6518 -25.1,1.8009 -50.149,4.297 -75.245,6.1323 -30.558,2.2362 -61.147,4.1248 -91.728,6.054 -21.303,1.3468 -42.612,2.5024 -63.922,3.7552 -9.214,0.5418 -11.081,2.493 -13.167,11.3877 -6.824,29.1049 -13.924,58.1441 -20.813,87.2302 -2.816,11.8888 -5.445,23.8246 -7.941,35.7822 -0.542,2.6183 -0.595,5.506 -0.118,8.1336 5.323,29.3931 10.19,58.8864 16.367,88.1041 9.621,45.4786 20.103,90.7693 30.332,136.1164 5.735,25.425 11.71,50.7966 17.567,76.1934 0.235,1.0367 0.338,2.1046 0.57,3.6268"
         style="fill:#231f20;fill-opacity:1;fill-rule:evenodd;stroke:none;stroke-width:0.313192"
         id="path43125" />
      <path
         d="m 11475.626,5569.6212 c 4.964,-13.8681 9.762,-27.1443 14.4,-40.4769 0.439,-1.2465 0.135,-2.9158 -0.263,-4.2626 -6.815,-23.0759 -20.454,-42.0679 -37.833,-57.928 -6.803,-6.2074 -17.119,-8.6127 -25.895,-12.6059 -4.479,-2.0389 -9.192,-3.5548 -13.64,-5.6532 -22.305,-10.5201 -45.654,-9.5147 -68.67,-4.535 -20.245,4.3847 -40.057,10.9273 -59.879,17.0878 -30.123,9.3613 -60.027,19.421 -90.143,28.7949 -30.37,9.449 -57.217,24.9614 -82.395,44.2603 -23.881,18.2998 -43.508,40.383 -62.112,63.6437 -4.476,5.5968 -0.244,20.013 6.317,22.9539 21.955,9.8342 42.315,22.1552 59.134,39.6689 19.076,19.8658 37.724,40.1606 57.28,59.5441 13.003,12.8816 28.011,23.7431 44.933,30.8055 28.839,12.0329 57.377,9.5524 84.938,-4.9672 4.356,-2.2988 8.685,-4.654 13.01,-7.0092 0.279,-0.1504 0.432,-0.5262 0.73,-0.9145 -4.645,-3.132 -9.29,-6.242 -13.909,-9.3801 -21.034,-14.2816 -34.11,-34.8834 -45.617,-56.8569 -9.386,-17.9303 -19.208,-35.6382 -28.951,-53.3742 -6.082,-11.0745 -14.842,-19.8721 -24.824,-27.3824 -3.263,-2.4523 -7.272,-4.5476 -11.231,-5.3337 -20.551,-4.0683 -41.194,-7.6857 -61.815,-11.4064 -13.213,-2.3897 -25.233,1.9261 -37.097,6.8839 -12.296,5.1426 -24.288,10.8427 -34.567,19.5651 -0.58,0.4917 -1.494,0.592 -2.252,0.8738 -0.413,-0.5261 -0.83,-1.0523 -1.243,-1.5784 7.284,-6.5207 14.071,-13.7586 22.017,-19.3334 6.314,-4.4317 13.978,-6.9998 21.172,-10.0942 17.084,-7.3443 34.642,-5.6249 52.228,-2.3051 12.731,2.4022 25.453,4.8608 38.178,7.2849 8.368,1.591 16.098,4.4473 22.738,10.1036 1.362,1.1588 4.29,1.284 6.242,0.8205 24.826,-5.8692 49.518,-12.3711 74.452,-17.7079 8.412,-1.8008 17.532,-1.7695 26.145,-0.8487 27.285,2.9127 54.273,0.2599 81.336,-2.5713 12.678,-1.3248 25.465,-1.9731 38.219,-2.1579 12.737,-0.1817 25.584,-0.028 38.867,6.3922"
         style="fill:#99a88e;fill-opacity:1;fill-rule:evenodd;stroke:none;stroke-width:0.313192"
         id="path43127" />
      <path
         d="m 10681.642,5401.3337 c 7.104,33.4427 13.829,65.7422 20.844,97.9822 7.839,36.0077 15.898,71.9715 23.975,107.9291 1.779,7.9394 2.12,8.0835 10.038,6.0697 13.166,-3.3418 26.449,-5.2711 40.079,-4.5758 2.308,0.119 4.826,-0.2067 6.975,-1.0366 11.801,-4.557 23.815,-4.5476 36.13,-2.7091 4.582,0.6827 9.474,0.382 14.071,-0.3821 21.567,-3.583 42.955,-8.9354 64.649,-10.8584 21.858,-1.9387 43.522,-3.9932 64.966,-8.7694 8.844,-1.97 18.096,-2.1297 27.163,-3.1288 1.744,-0.191 3.476,-0.4604 4.435,-0.5919 -36.146,-62.9767 -57.484,-130.1031 -60.008,-202.9892 -84.371,7.6795 -168.165,15.3057 -253.317,23.0603"
         style="fill:#bc4749;fill-opacity:1;fill-rule:evenodd;stroke:none;stroke-width:0.313192"
         id="path43129" />
      <path
         d="m 10809.97,5713.3795 c 0.774,-0.9364 1.46,-1.9699 2.334,-2.7999 16.308,-15.5187 33.242,-30.3922 53.906,-39.7942 14.573,-6.6303 29.653,-11.6633 46.224,-11.9201 24.777,-0.3883 49.594,-1.2872 73.522,-9.2861 5.277,-1.7664 11.081,-1.923 16.668,-2.825 -1.923,-9.4334 -3.83,-18.7571 -5.809,-28.4253 -13.477,1.9543 -27.546,2.659 -39.488,12.2145 -8.941,7.1533 -19.825,10.3102 -31.407,11.5849 -37.974,4.1686 -71.874,19.5652 -102.254,41.6483 -29.327,21.3127 -56.628,45.3972 -85.319,67.6151 -21.623,16.7401 -44.148,32.3151 -66.075,48.67 -19.726,14.7107 -39.501,29.3806 -58.686,44.7677 -29.597,23.7306 -58.71,48.0531 -88.024,72.1313 -0.688,0.5637 -1.299,1.2214 -2.015,1.9073 12.974,9.9971 28.125,14.9612 42.984,20.3293 21.424,7.7453 43.147,14.6793 64.601,22.3557 6.572,2.352 11.361,1.5346 16.86,-3.0255 8.244,-6.8307 17.228,-12.8471 26.308,-18.5629 21.687,-13.6583 41.841,-29.1738 60.589,-46.6781 30.946,-28.892 62.898,-56.5312 97.396,-81.289 31.407,-22.5405 61.909,-46.3838 92.32,-70.2772 16.537,-12.9912 35.557,-21.4693 53.465,-31.9581 17.013,-9.9627 31.125,-23.3736 45.413,-36.4337 -4.363,-3.9587 -8.453,-7.6669 -13.02,-11.8104 -10.025,10.0566 -15.834,24.1972 -28.503,32.2963 -12.099,7.7421 -22.569,18.0274 -35.801,23.9937 -0.367,-0.4385 -0.733,-0.8738 -1.099,-1.3123 1.872,-2.1297 3.576,-4.4317 5.643,-6.3453 4.83,-4.4536 9.462,-9.2391 14.824,-12.9599 15.625,-10.8521 27.185,-25.76 40.091,-39.315 0.852,-0.8957 0.702,-2.7404 1.012,-4.1435 -1.466,-0.1127 -3.019,-0.5982 -4.391,-0.2881 -16.881,3.8115 -33.627,8.3277 -50.637,11.4096 -9.793,1.7758 -20.01,1.9261 -30.01,1.6943 -32.869,-0.7673 -60.599,12.1394 -86.24,31.1689 -6.299,4.6728 -12.904,8.926 -19.412,13.3138 -1.723,1.1651 -3.599,2.1109 -5.406,3.1632 -0.185,-0.2724 -0.373,-0.5418 -0.564,-0.8143"
         style="fill:#99a88e;fill-opacity:1;fill-rule:evenodd;stroke:none;stroke-width:0.313192"
         id="path43131" />
      <path
         d="m 11416.561,5899.0304 c -4.764,-41.072 -9.427,-81.3391 -14.066,-121.3369 -11.159,0.4322 -21.124,1.1087 -31.1,1.1369 -19.311,0.063 -38.622,-0.094 -57.928,-0.4572 -11.3,-0.2161 -22.584,-1.1244 -33.884,-1.5128 -12.264,-0.4259 -24.047,-2.8343 -35.992,-5.8566 -38.801,-9.8186 -69.582,-31.7922 -96.322,-60.4962 -14.172,-15.2149 -28.35,-30.4172 -42.557,-45.6008 -1.603,-1.7132 -3.385,-3.2572 -5.208,-4.9985 -5.268,4.2531 -10.295,8.3434 -15.359,12.3867 -2.283,1.8196 -2.631,3.7802 -0.67,6.0227 3.351,3.8303 6.289,8.1461 10.144,11.3783 13.593,11.4033 18.663,26.615 17.952,43.3551 -0.269,6.3516 1.541,10.9586 3.715,16.2046 7.676,18.5222 15.124,37.1414 22.653,55.7294 0.893,2.1923 1.434,4.6039 2.678,6.5708 10.16,16.0886 12.386,34.5106 15.578,52.6256 1.613,9.1515 2.574,18.422 3.987,27.6142 0.579,3.774 1.243,7.5949 2.452,11.1935 3.26,9.7309 5.547,11.4221 15.71,10.7205 18.353,-1.2684 36.675,-3.0066 55.021,-4.3377 8.72,-0.6358 17.48,-0.7704 26.218,-1.1713 35.701,-1.6317 71.408,-3.085 107.096,-4.9986 16.173,-0.8706 32.299,-2.6715 49.882,-4.1717"
         style="fill:#bc4749;fill-opacity:1;fill-rule:evenodd;stroke:none;stroke-width:0.313192"
         id="path43133" />
      <path
         d="m 11067.721,5564.0464 c 0.721,-1.4908 1.125,-3.276 2.215,-4.4317 26.135,-27.7456 55.879,-50.997 90.666,-66.5815 21.049,-9.4333 43.543,-15.669 65.438,-23.1887 10.865,-3.7301 21.917,-6.9153 32.732,-10.7738 2.706,-0.9646 4.932,-3.4608 7.19,-5.4589 14.063,-12.4494 23.092,-28.6728 32.062,-44.6706 14.974,-26.6997 28.626,-54.1416 43.412,-80.9539 14.049,-25.4751 25.709,-51.9367 35.102,-79.4255 4.003,-11.7103 7.592,-23.5615 11.522,-35.3031 1.231,-3.6768 0.473,-5.7032 -3.429,-6.862 -17.125,-5.0643 -34.204,-10.279 -51.279,-15.503 -9.057,-2.7655 -18.121,-5.5247 -27.104,-8.5188 -6.216,-2.0702 -8.528,-1.4251 -11.462,4.4911 -14.103,28.4254 -27.414,57.2735 -42.454,85.1977 -10.783,20.013 -23.057,39.3526 -36.092,58 -17.11,24.4791 -35.716,47.909 -53.506,71.9183 -17.576,23.7243 -35.735,47.0728 -52.14,71.5895 -14.272,21.3315 -26.869,43.8312 -39.299,66.3121 -3.636,6.5739 -4.181,14.8547 -6.142,22.3526 0.855,0.6013 1.713,1.2089 2.568,1.8102"
         style="fill:#99a88e;fill-opacity:1;fill-rule:evenodd;stroke:none;stroke-width:0.313192"
         id="path43135" />
      <path
         d="m 11032.243,5491.8682 c 18.907,27.2665 16.402,58.664 18.065,89.2754 8.152,-5.2366 7.119,-14.0279 8.487,-21.8577 4.019,-22.9632 8.488,-45.867 11.826,-68.9336 3.226,-22.3306 2.825,-44.6393 -3.51,-66.6379 -14.83,-51.4856 -14.06,-102.9431 1.215,-154.197 2.953,-9.9094 6.498,-19.659 10.172,-29.3273 1.159,-3.0536 3.646,-5.5936 5.525,-8.3747 -0.279,-0.4636 -0.558,-0.9333 -0.833,-1.4031 -4.391,0.5668 -8.898,0.6827 -13.16,1.7664 -25.316,6.4235 -50.922,10.5013 -77.105,10.6078 -6.367,0.028 -12.725,0.7485 -19.096,1.0085 -5.437,0.2223 -9.189,2.1046 -10.579,7.9895 -3.596,15.2431 -7.824,30.3452 -11.247,45.629 -16.383,73.0395 -7.604,143.8679 19.08,213.0865 7.407,19.2143 13.376,39.2179 25.71,55.9799 7.382,10.0316 16.677,18.6819 25.412,27.6611 1.037,1.0712 4.197,0.9428 5.957,0.2725 3.711,-1.4093 7.304,-3.3135 10.608,-5.5153 1.105,-0.736 1.672,-3.0066 1.66,-4.5695 -0.135,-13.1071 -0.348,-26.2204 -0.758,-39.3275 -0.301,-9.6463 -0.317,-19.3678 -1.613,-28.9014 -1.043,-7.6794 -3.818,-15.124 -5.797,-22.6782 -0.126,-0.4854 -0.02,-1.0335 -0.02,-1.5534"
         style="fill:#99a88e;fill-opacity:1;fill-rule:evenodd;stroke:none;stroke-width:0.313192"
         id="path43137" />
      <path
         d="m 10682.209,5393.5415 c 12.096,-1.3968 23.277,-2.6778 34.452,-3.9807 7.971,-0.9301 15.917,-2.1735 23.912,-2.7842 41.285,-3.1445 82.598,-5.9194 123.865,-9.2893 16.351,-1.3342 32.584,-3.9995 48.898,-5.7941 5.606,-0.6138 11.291,-0.4541 16.941,-0.5888 2.909,-0.072 4.764,-0.7955 4.748,-4.369 -0.16,-39.7754 8.556,-78.132 18.732,-116.2475 0.135,-0.5043 0.02,-1.0743 0.02,-2.4241 -8.578,0.8456 -17.019,1.6599 -25.459,2.5212 -19.757,2.0201 -39.494,4.3439 -59.281,6.0007 -18.889,1.5817 -37.831,2.4743 -56.751,3.6863 -21.466,1.3718 -42.939,2.731 -64.402,4.1686 -10.185,0.6827 -20.379,1.3655 -30.523,2.4867 -1.623,0.1786 -3.893,2.468 -4.329,4.1749 -9.232,36.2363 -18.243,72.529 -27.307,108.8092 -1.011,4.0527 -2.085,8.0929 -3.515,13.6301"
         style="fill:#bc4749;fill-opacity:1;fill-rule:evenodd;stroke:none;stroke-width:0.313192"
         id="path43139" />
      <path
         d="m 11040.295,5934.1267 c -2.684,-14.4945 -5.002,-28.4848 -7.896,-42.3529 -10.025,-48.0312 -14.701,-96.5728 -14.212,-145.6218 0.01,-1.8197 0.213,-3.6425 0.266,-5.4652 0.04,-1.6192 0.01,-3.2447 0.01,-5.6406 -1.394,1.2058 -2.468,1.9793 -3.354,2.9252 -34.796,36.8878 -72.824,69.9233 -115.089,98.1011 -16.828,11.2217 -32.691,23.8809 -49.299,35.4534 -11.062,7.7045 -22.691,14.5885 -33.994,21.9579 -5.954,3.8867 -11.833,7.905 -17.536,12.1424 -1.162,0.8645 -2.055,2.9973 -1.979,4.4881 0.927,18.0273 2.136,36.0421 3.069,54.0726 0.191,3.7427 1.744,4.7543 5.152,4.1467 13.079,-2.3239 26.098,-5.0612 39.255,-6.7869 36.152,-4.7449 72.395,-8.7475 108.512,-13.652 23.483,-3.1946 46.819,-7.4728 70.224,-11.2374 5.196,-0.8362 10.414,-1.5659 16.875,-2.5306"
         style="fill:#bc4749;fill-opacity:1;fill-rule:evenodd;stroke:none;stroke-width:0.313192"
         id="path43141" />
      <path
         d="m 11162.9,5919.2564 c -11.616,-13.1103 -10.654,-28.5976 -13.122,-43.183 -3.668,-21.6791 -6.794,-43.2487 -17.176,-63.4495 -9.035,-17.5889 -15.293,-36.656 -22.105,-55.3192 -5.531,-15.1334 -15.581,-26.9815 -25.491,-39.1678 -5.919,-7.2786 -10.77,-15.4466 -15.81,-23.3986 -1.249,-1.9731 -1.368,-4.6571 -1.24,-7.2284 11.457,13.58 22.913,27.16 34.364,40.74 0.413,-11.5129 -2.537,-21.7167 -9.813,-30.2606 -5.124,-6.0196 -10.73,-11.6288 -16.802,-18.1558 -10.351,6.1073 -22.03,1.6224 -33.694,-0.6952 -7.162,21.5413 -13.849,42.7601 -14.303,65.8235 -1.031,52.8105 3.849,104.8943 15.277,156.4364 2.171,9.7778 3.608,19.7342 5.002,29.6624 0.601,4.2938 2.214,5.1144 6.436,4.6509 19.885,-2.1704 39.03,-8.3967 59.287,-9.1202 15.901,-0.57 31.68,-4.5882 49.19,-7.3349"
         style="fill:#99a88e;fill-opacity:1;fill-rule:evenodd;stroke:none;stroke-width:0.313192"
         id="path43143" />
      <path
         d="m 11272.709,5211.3702 c -32.86,3.2666 -64.559,6.2325 -96.213,9.6275 -18.106,1.9418 -36.133,4.5945 -54.198,6.8902 -8.487,1.0774 -16.975,2.1517 -25.481,3.038 -2.856,0.2944 -4.282,1.2622 -5.44,4.1717 -2.813,7.0656 -6.985,13.6301 -9.446,20.7928 -3.311,9.6338 -5.791,19.5808 -8.178,29.4996 -4.873,20.2698 -8.183,40.7682 -8.039,61.7051 0.02,1.9606 0,3.9181 0,6.6522 4.306,-0.4009 7.876,-0.6389 11.422,-1.0805 20.439,-2.5556 40.9,-4.961 61.298,-7.8079 19.308,-2.6934 38.551,-5.8817 57.831,-8.8257 3.83,-0.5826 6.492,-2.4461 8.641,-5.8191 10.081,-15.8507 21.231,-31.0781 30.433,-47.4142 13.125,-23.314 24.88,-47.3922 37.37,-71.4297"
         style="fill:#bc4749;fill-opacity:1;fill-rule:evenodd;stroke:none;stroke-width:0.313192"
         id="path43145" />
      <path
         d="m 11494.806,5536.2538 c -0.815,2.7028 -1.369,4.1842 -1.713,5.7126 -4.407,19.4304 -11.795,37.4891 -23.687,53.6623 -10.89,14.814 -20.408,30.7649 -32.322,44.6769 -18.838,21.986 -37.908,44.0661 -59.187,63.603 -29.715,27.2916 -61.533,52.3 -101.897,62.8577 -0.247,0.066 -0.394,0.5167 -0.845,1.1463 10.683,0.5042 21.112,1.2371 31.557,1.45 24.955,0.5043 49.923,0.6264 74.875,1.1776 13.884,0.307 25.954,-4.7104 37.633,-11.4283 19.311,-11.109 38.883,-21.8139 50.759,-41.9772 4.535,-7.6889 9.938,-14.8735 14.426,-22.5874 7.325,-12.6028 14.638,-25.2433 21.2,-38.2501 9.176,-18.1902 10.488,-37.6708 7.754,-57.5961 -2.928,-21.2751 -9.593,-41.4416 -18.553,-62.4473"
         style="fill:#99a88e;fill-opacity:1;fill-rule:evenodd;stroke:none;stroke-width:0.313192"
         id="path43147" />
      <path
         d="m 10730.764,5620.7342 c 6.22,27.5484 12.071,53.4494 18.002,79.7262 8.244,-2.7812 16.299,-5.5185 24.367,-8.2213 11.375,-3.8084 22.81,-7.4509 34.11,-11.4597 4.572,-1.6224 9.223,-3.4859 13.226,-6.1542 26.953,-17.9929 56.08,-31.0436 87.465,-38.9517 5.982,-1.5065 12.227,-2.1924 18.397,-2.6309 9.417,-0.6639 18.168,-3.6017 25.337,-9.2986 12.731,-10.1224 27.426,-11.964 42.751,-12.3054 1.265,-0.028 2.533,-0.01 4.51,-0.01 1.506,-8.7067 9.173,-10.7581 16.129,-13.58 -4.82,-7.2817 -9.136,-8.9416 -16.724,-7.7264 -13.844,2.2111 -28.019,2.9722 -41.564,6.3171 -21.291,5.2585 -42.989,5.2616 -64.508,7.6199 -11.526,1.2653 -22.807,4.6353 -34.248,6.7744 -9.136,1.71 -18.306,3.3793 -27.539,4.322 -5.164,0.5293 -10.533,-0.1065 -15.728,-0.8237 -9.014,-1.2433 -17.762,-0.7955 -26.468,2.0139 -3.408,1.0993 -7.103,1.5722 -10.693,1.7945 -15.568,0.9709 -31.137,1.7414 -46.822,2.5901"
         style="fill:#99a88e;fill-opacity:1;fill-rule:evenodd;stroke:none;stroke-width:0.313192"
         id="path43149" />
      <path
         d="m 11196.024,5343.7878 c -43.625,6.3108 -86.485,12.5089 -129.753,18.7665 0,2.233 -0.36,4.6008 0.06,6.8182 4.169,22.2022 8.657,44.3448 12.672,66.5752 3.533,19.5495 3.229,39.1741 -0.298,58.7298 -1.387,7.6951 -2.95,15.3558 -3.413,23.5364 1.074,-1.732 2.229,-3.4201 3.21,-5.2053 8.957,-16.3047 17.595,-32.7912 26.934,-48.8705 4.463,-7.6888 10.047,-14.767 15.459,-21.8639 23.778,-31.1689 47.678,-62.2407 71.524,-93.3594 1.171,-1.5315 2.23,-3.1601 3.605,-5.127"
         style="fill:#bc4749;fill-opacity:1;fill-rule:evenodd;stroke:none;stroke-width:0.313192"
         id="path43151" />
      <path
         d="m 11257.159,5651.8686 c 10.98,25.3467 24.162,48.5323 45.666,65.739 5.904,4.7261 12.91,8.0867 19.446,12.0172 2.982,1.7883 5.66,1.4282 8.497,-0.8018 12.174,-9.568 24.789,-18.6098 36.619,-28.5819 6.348,-5.3493 11.563,-12.0923 16.997,-18.4564 1.083,-1.2715 1.353,-3.7489 1.121,-5.5591 -1.767,-13.9026 -3.793,-27.7739 -5.635,-41.6671 -0.516,-3.94 -2.987,-3.3198 -5.621,-2.8595 -18.823,3.298 -37.637,6.6554 -56.481,9.8374 -19.384,3.276 -38.799,6.3703 -58.195,9.5618 -0.695,0.1158 -1.353,0.4259 -2.414,0.7704"
         style="fill:#bc4749;fill-opacity:1;fill-rule:evenodd;stroke:none;stroke-width:0.313192"
         id="path43153" />
      <path
         d="m 10713.191,5924.4585 c 13.599,0.3821 25.494,1.7413 37.063,-3.2885 13.705,-5.9663 27.48,-11.5599 39.904,-20.2385 14.783,-10.3291 30.408,-19.443 45.366,-29.5309 15.118,-10.1975 29.885,-20.9056 44.758,-31.4601 16.809,-11.9295 34.075,-23.2827 50.217,-36.0484 28.056,-22.1897 54.928,-45.7919 78.956,-72.4101 5.888,-6.5175 10.454,-13.8462 12.625,-22.6845 1.772,-7.2347 4.757,-14.1625 7.103,-21.2626 0.727,-2.1892 1.099,-4.4943 1.976,-8.1868 -2.195,1.804 -3.291,2.5901 -4.259,3.5109 -14.441,13.7021 -29.199,26.9752 -46.719,36.822 -2.105,1.1807 -3.386,3.965 -4.839,6.1448 -19.471,29.3054 -40.931,56.6752 -69.688,77.8408 -16.706,12.299 -32.196,26.2455 -48.213,39.481 -6.533,5.3963 -13.58,9.4803 -21.917,11.8386 -15.707,4.4348 -31.354,8.1305 -47.897,7.1565 -2.887,-0.1692 -6.426,2.2612 -8.866,4.4034 -16.834,14.8234 -33.427,29.9161 -50.164,44.8554 -4.601,4.106 -9.408,7.9864 -15.406,13.057"
         style="fill:#99a88e;fill-opacity:1;fill-rule:evenodd;stroke:none;stroke-width:0.313192"
         id="path43155" />
      <path
         d="m 11222.401,5594.3384 c 9.627,15.9602 19.079,31.4695 28.328,47.1009 1.791,3.0223 3.445,3.5109 6.975,2.8187 20.73,-4.0527 41.554,-7.6512 62.344,-11.4315 18.963,-3.4419 37.918,-6.9215 57.323,-10.4668 -1.932,-14.8923 -3.861,-29.7846 -5.784,-44.6049 -13.487,0 -27.06,1.2935 -40.311,-0.2443 -37.58,-4.3565 -72.642,6.0822 -107.842,16.3831 -0.683,0.1973 -1.315,0.5669 -1.033,0.4448"
         style="fill:#99a88e;fill-opacity:1;fill-rule:evenodd;stroke:none;stroke-width:0.313192"
         id="path43157" />
      <path
         d="m 11378.342,5273.805 c -5.086,11.2436 -9.919,22.6188 -15.331,33.7058 -5.355,10.9586 -11.428,21.5695 -16.878,32.4843 -1.293,2.5901 -2.167,5.8911 -1.851,8.7098 2.825,25.3529 5.945,50.6714 9.023,75.9961 0.307,2.5181 0.918,5.0017 1.278,6.9184 16.812,0.8331 33.255,1.6505 49.005,2.4335 -7.823,-52.538 -15.86,-106.5198 -23.899,-160.4953 -0.451,0.081 -0.899,0.1629 -1.347,0.2474"
         style="fill:#bc4749;fill-opacity:1;fill-rule:evenodd;stroke:none;stroke-width:0.313192"
         id="path43159" />
      <path
         d="m 10793.885,5856.3705 c 10.639,-2.0702 21.294,-4.0903 31.92,-6.2294 12.462,-2.5118 22.735,-8.6973 32.378,-17.0971 21.964,-19.1361 45.012,-37.0287 66.951,-56.1961 15.118,-13.2073 25.579,-30.5049 37.862,-46.1708 -0.413,-0.5042 -0.824,-1.0116 -1.234,-1.5158 -5.882,3.4232 -12.161,6.3139 -17.579,10.3573 -31.257,23.3359 -62.319,46.9412 -93.438,70.4682 -17.877,13.5173 -35.738,27.0504 -53.59,40.6022 -1.403,1.0649 -2.637,2.3521 -3.947,3.5391 0.223,0.7454 0.448,1.4939 0.677,2.2424"
         style="fill:#bc4749;fill-opacity:1;fill-rule:evenodd;stroke:none;stroke-width:0.313192"
         id="path43161" />
      <path
         d="m 11424.059,5886.8065 c 5.618,-15.6564 10.814,-30.414 16.217,-45.0996 4.776,-13.0006 9.574,-25.9981 14.801,-38.8202 1.898,-4.6665 2.954,-9.0606 2.506,-14.1469 -1.197,-13.3983 -1.923,-26.8374 -2.897,-41.1158 -3.912,2.3552 -7.529,4.5945 -11.206,6.7305 -9.925,5.7596 -19.694,11.8261 -29.891,17.0407 -4.257,2.1767 -4.82,4.8921 -4.172,8.6974 1.412,8.2526 3.276,16.4426 4.36,24.739 3.523,26.9158 6.78,53.8691 10.282,81.9749"
         style="fill:#bc4749;fill-opacity:1;fill-rule:evenodd;stroke:none;stroke-width:0.313192"
         id="path43163" />
      <path
         d="m 10800.177,5687.9076 c -5.838,2.3615 -11.685,4.6854 -17.495,7.0876 -18.488,7.6325 -36.944,15.3276 -55.438,22.9256 -20.558,8.4468 -38.538,20.0913 -49.379,40.3141 -5.307,9.8906 -8.235,20.5454 -8.476,33.142 46.555,-31.6199 88.635,-67.352 131.847,-101.6246 -0.358,-0.6138 -0.708,-1.2277 -1.059,-1.8447"
         style="fill:#99a88e;fill-opacity:1;fill-rule:evenodd;stroke:none;stroke-width:0.313192"
         id="path43165" />
      <path
         d="m 11074.746,5656.817 c -1.046,4.3002 -4.334,4.9328 -7.548,4.0528 -8.403,-2.3114 -17.128,-4.2 -24.839,-8.0303 -5.042,-2.4993 -8.644,-8.0052 -12.644,-12.3899 -0.676,-0.7422 -0.08,-2.6433 -0.07,-4.0088 1.497,0.066 3.057,-0.1065 4.47,0.2787 0.958,0.2631 1.826,1.1995 2.53,2.017 9.888,11.5004 23.656,14.6918 38.1,18.0805 z m 18.284,-2.7874 c -11.763,-7.5855 -22.584,-14.5728 -33.414,-21.535 -0.915,-0.5889 -1.942,-1.0054 -2.919,-1.4971 -15.835,-7.977 -18.657,-13.746 -15.372,-31.41 0.129,-0.711 0.182,-1.4313 0.414,-3.3074 -1.763,0.7956 -2.997,1.3468 -4.238,1.9043 -5.246,2.3802 -10.485,4.7605 -15.734,7.1282 -0.323,0.1472 -0.699,0.1942 -1.05,0.2944 -12.148,3.4576 -15.337,7.8455 -13.066,20.2228 1.306,7.1064 3.68,14.0937 6.248,20.8837 4.288,11.325 12.237,18.6412 24.489,21.0715 7.469,1.4783 14.739,3.9682 22.221,5.3869 6.26,1.1839 11.675,-0.855 16.223,-5.7282 2.938,-3.1508 6.778,-5.4496 10.173,-8.1869 1.757,-1.4125 3.413,-2.9534 6.025,-5.2272"
         style="fill:#99a88e;fill-opacity:1;fill-rule:evenodd;stroke:none;stroke-width:0.313192"
         id="path43167" />
      <path
         d="m 11281.146,5451.6762 c 22.685,-6.4987 44.123,-12.6373 65.639,-18.7946 -3.505,-24.2254 -7.128,-49.2839 -10.918,-75.5263 -18.516,31.8642 -30.226,66.2808 -54.721,94.3209"
         style="fill:#bc4749;fill-opacity:1;fill-rule:evenodd;stroke:none;stroke-width:0.313192"
         id="path43169" />
      <path
         d="m 11393.801,5672.4234 c 2.321,-2.2111 4.059,-3.7144 5.622,-5.3806 11.228,-11.9201 22.547,-23.7619 33.502,-35.9263 1.745,-1.9324 2.835,-5.509 2.478,-8.0835 -1.598,-11.6852 -3.821,-23.2889 -6.202,-37.1383 -3.257,3.9118 -5.54,7.1439 -8.309,9.8843 -10.044,9.9376 -20.363,19.5965 -30.292,29.6468 -1.728,1.7476 -3.141,5.0173 -2.847,7.3475 1.626,12.8095 3.834,25.5439 6.048,39.6501"
         style="fill:#bc4749;fill-opacity:1;fill-rule:evenodd;stroke:none;stroke-width:0.313192"
         id="path43171" />
      <path
         d="m 11428.234,5571.7603 c -16.593,1.4908 -33.189,2.9754 -50.381,4.5163 2.603,15.0958 5.062,29.3837 7.667,44.5202 14.88,-16.2578 32.416,-29.1863 43.713,-47.7054 -0.335,-0.4447 -0.664,-0.8863 -0.999,-1.3311"
         style="fill:#99a88e;fill-opacity:1;fill-rule:evenodd;stroke:none;stroke-width:0.313192"
         id="path43173" />
      <path
         d="m 11074.746,5656.817 c -14.444,-3.3887 -28.212,-6.5801 -38.1,-18.0805 -0.704,-0.8175 -1.572,-1.7539 -2.53,-2.017 -1.413,-0.3852 -2.972,-0.213 -4.469,-0.2787 -0.01,1.3655 -0.608,3.2666 0.07,4.0088 3.999,4.3847 7.601,9.8906 12.643,12.3899 7.711,3.8303 16.436,5.7189 24.839,8.0303 3.214,0.88 6.502,0.2474 7.548,-4.0528"
         style="fill:#99a88e;fill-opacity:1;fill-rule:evenodd;stroke:none;stroke-width:0.313192"
         id="path43175" />
    </g>
  </g>
</svg>
