<?xml version="1.0" encoding="UTF-8" standalone="no"?>
<!-- Created with Inkscape (http://www.inkscape.org/) -->

<svg
   version="1.1"
   id="svg28611"
   width="131.9176"
   height="138.84612"
   viewBox="0 0 131.9176 138.84612"
   sodipodi:docname="1469336_203387-OZE7CT-812.eps"
   xmlns:inkscape="http://www.inkscape.org/namespaces/inkscape"
   xmlns:sodipodi="http://sodipodi.sourceforge.net/DTD/sodipodi-0.dtd"
   xmlns="http://www.w3.org/2000/svg"
   xmlns:svg="http://www.w3.org/2000/svg">
  <defs
     id="defs28615" />
  <sodipodi:namedview
     id="namedview28613"
     pagecolor="#ffffff"
     bordercolor="#000000"
     borderopacity="0.25"
     inkscape:showpageshadow="2"
     inkscape:pageopacity="0.0"
     inkscape:pagecheckerboard="0"
     inkscape:deskcolor="#d1d1d1"
     showgrid="false" />
  <g
     id="g28619"
     inkscape:groupmode="layer"
     inkscape:label="Page 1"
     transform="matrix(1.3333333,0,0,-1.3333333,-1201.3291,706.10484)">
    <g
       id="g28621"
       transform="scale(0.1)">
      <g
         id="g50133">
        <path
           d="m 9430.2875,5228.7439 c -5.43,-5.6 -15.72,-7.94 -18.48,-17.71 -3.88,-13.75 7.48,-43.53 19.8,-50.39 7.43,-4.15 15.94,-5.97 24.01,-0.52 3.77,2.55 7.73,4.99 10.93,8.17 8.3,8.26 15.82,17.57 19.65,28.51 2.86,8.2 -6.22,13.62 -9.26,20.64 -12.6,29.04 -20.21,30.83 -46.65,11.3"
           style="fill:#e1ebe7;fill-opacity:1;fill-rule:nonzero;stroke:none"
           id="path28799" />
        <path
           d="m 9472.5875,4715.4839 c -0.01,0.02 -0.01,0.02 -0.02,0.04 -0.01,0.02 -0.02,0.03 -0.04,0.05 l 0.06,-0.09"
           style="fill:#e1ebe7;fill-opacity:1;fill-rule:nonzero;stroke:none"
           id="path28877" />
        <path
           d="m 9733.8875,4840.7639 v 0 c 0.01,0 0.44,-0.06 0.45,-0.06 -0.16,0.01 -0.31,0.03 -0.48,0.04 0.01,0.01 0.02,0.01 0.03,0.02 z m -13.2,-28.5 c 10,2.65 14.75,11.17 12.81,22.94 0.28,1.83 0.57,3.66 0.85,5.5 1.48,3.2 0.33,5.96 -1.44,8.6 -0.1,-0.03 -0.2,-0.06 -0.3,-0.1 0.01,0.04 0.01,0.06 0.02,0.1 h 0.28 c 1.55,4.44 -0.05,6.56 -4.71,6.45 l -0.07,-0.22 c -0.03,0 -0.06,0 -0.09,-0.01 0.06,0.08 0.11,0.15 0.16,0.23 -5.66,6.21 -13.68,6.64 -21.08,8.62 -8.28,1.96 -12.19,-5.35 -18.05,-8.51 -5.82,3.17 -8.95,2.44 -10.67,-4.98 -2.44,-10.56 6.59,-16.03 9.34,-24.23 2.6,-7.77 24.99,-16.49 32.95,-14.39"
           style="fill:#e1ebe7;fill-opacity:1;fill-rule:nonzero;stroke:none"
           id="path28881" />
        <path
           d="m 9065.5675,4584.7339 c 5.8,-8.67 20.49,-11.56 29.43,-5.79 5.46,3.52 10.99,21.3 8.14,26.19 -4.19,7.22 -24.85,12.72 -31.76,8.45 -10.09,-6.23 -12.61,-18.71 -5.81,-28.85"
           style="fill:#e1ebe7;fill-opacity:1;fill-rule:nonzero;stroke:none"
           id="path28911" />
        <path
           d="m 9874.8275,4493.1739 c -5.08,-9.83 1.17,-16.7 7.42,-21.95 6.91,-5.8 16.06,-8.21 25.12,-9.45 18.02,-2.45 26.3,3.01 33.17,21.54 -0.21,13.4 -9.9,20.07 -19.48,26.31 -20.69,13.48 -37.25,7.41 -46.23,-16.45"
           style="fill:#e1ebe7;fill-opacity:1;fill-rule:nonzero;stroke:none"
           id="path28971" />
        <path
           d="m 9201.0875,4907.6339 c 1.48,3.23 0.33,5.99 -1.52,8.62 -1.84,0.23 -3.68,0.5 -5.5,0.86 l 0.02,-0.03 v 0 c -13.6,-1.46 -17.1,-5.67 -12.01,-15.82 3.75,-7.46 9.73,-13.63 12.5,-21.88 1.31,-3.9 6.42,-4.14 10.3,-3.85 4.07,0.32 3.87,4.44 5.4,7.13 6.72,11.85 -5.45,13.74 -10.06,19.59 -0.11,1.86 0.74,3.57 0.87,5.38"
           style="fill:#e1ebe7;fill-opacity:1;fill-rule:nonzero;stroke:none"
           id="path29115" />
        <path
           d="m 9524.9675,4386.9439 c 2.11,1.11 1.84,3.17 0.95,4.95 -1.27,2.58 -3.43,3.74 -6.24,2.65 -2.58,-1 -4.19,-2.77 -2.84,-6.15 2.1,-2.71 5,-3.1 8.13,-1.45"
           style="fill:#e1ebe7;fill-opacity:1;fill-rule:nonzero;stroke:none"
           id="path29125" />
        <path
           d="m 9448.3375,4623.9139 c -3.17,1.5 -5.91,0.34 -8.56,-1.4 l -0.02,-0.64 v 0 c -0.05,-0.03 -0.09,-0.07 -0.14,-0.1 0.05,0.24 0.11,0.49 0.16,0.74 -4.92,1.86 -8.18,-1.47 -11.78,-3.78 0.07,-0.16 0.14,-0.32 0.22,-0.48 -0.09,0.03 -0.16,0.04 -0.24,0.08 l 0.02,0.4 c -1.81,0.23 -3.62,0.45 -5.44,0.68 l -0.05,-0.79 h -0.01 c -0.01,-0.02 -0.03,-0.03 -0.05,-0.05 0.04,0.28 0.07,0.56 0.11,0.84 -4.45,1.63 -6.58,0.05 -6.42,-4.67 l 0.52,-0.16 c 0,-0.05 -0.01,-0.09 -0.01,-0.13 -0.17,0.1 -0.35,0.2 -0.51,0.29 -9.05,-16.05 -8.24,-19.44 6.88,-29.13 l 0.11,0.42 c 0.02,0.01 0.03,0.03 0.05,0.04 -0.06,-0.16 -0.11,-0.31 -0.16,-0.46 19.05,-10.32 30.86,-6.05 38.65,13.94 h -0.01 c 0.27,1.8 0.53,3.6 0.8,5.4 -0.19,9.69 -4.7,16.15 -14.12,18.96"
           style="fill:#e1ebe7;fill-opacity:1;fill-rule:nonzero;stroke:none"
           id="path29153" />
        <path
           d="m 9472.5275,4715.5739 v -0.01 c 0.02,-0.03 0.04,-0.05 0.05,-0.08 l -0.05,0.09"
           style="fill:#e1ebe7;fill-opacity:1;fill-rule:nonzero;stroke:none"
           id="path29287" />
        <path
           d="m 9311.2475,5045.3232 c 3.9807,1.0931 7.1251,1.9575 11.4534,3.1476 -3.7614,1.5503 -6.4737,2.6684 -9.7465,4.0183 -0.5794,-2.4429 -1.0461,-4.4035 -1.7069,-7.1659 z m 358.0254,13.1071 c -7.1157,-2.3176 -14.197,-4.6258 -21.2751,-6.9341 0.075,-0.6326 0.1535,-1.2653 0.2318,-1.8948 5.1802,0 10.3666,-0.166 15.5374,0.041 6.9905,0.2819 7.4258,1.068 5.5059,8.7882 z m -118.9441,167.6423 c 0.4573,-0.2724 0.9052,-0.5449 1.3624,-0.8174 5.5529,4.0559 11.1591,8.0459 16.6274,12.2239 0.9427,0.7235 1.9136,2.2832 1.8165,3.3668 -0.5919,6.8401 -1.4532,13.6615 -2.2894,20.4765 -0.141,1.1651 -0.6045,2.2895 -0.9208,3.4326 -0.6796,0.072 -1.353,0.1503 -2.0295,0.2224 -4.8513,-12.9693 -9.7089,-25.9355 -14.5666,-38.9048 z m 58.235,29.4652 c -15.6941,-10.5233 -30.6521,-20.5486 -45.607,-30.5707 20.1382,4.1623 40.1167,5.4276 61.0536,4.8545 -5.1457,8.5595 -10.0691,16.762 -15.4466,25.7162 z m -292.8408,-196.669 c 12.2458,-3.7207 23.6773,-9.2079 36.8658,-4.5319 6.4549,2.2863 13.5393,2.7811 20.3356,4.0778 3.6675,0.6952 7.3412,1.3655 11.0118,2.0514 -9.3143,2.3834 -17.6483,5.6719 -24.786,11.7478 -0.8143,0.689 -2.2957,0.8143 -3.4576,0.8049 -6.1824,-0.053 -12.3805,-0.6295 -18.5253,-0.2756 -10.5891,0.6045 -16.6086,-2.8845 -21.4443,-13.8744 z m 283.1193,19.1736 c 8.5721,-10.1161 17.7987,-17.6014 29.1081,-22.3431 1.2653,-0.5293 2.9502,-0.7642 4.2437,-0.4103 11.7228,3.2227 23.3923,6.6084 35.1496,9.9626 -2.4147,6.386 -7.0406,11.513 -12.3554,13.2888 -18.4157,6.1511 -36.8158,5.769 -56.146,-0.498 z m 69.6821,-36.1893 c -7.0531,0 -13.4485,-0.592 -19.6966,0.1064 -22.744,2.5432 -41.5732,12.6687 -56.4153,30.1824 -0.9553,1.1243 -3.1664,2.3113 -4.3002,1.9449 -3.4325,-1.1024 -6.743,-2.7498 -9.8342,-4.6321 -0.9646,-0.5826 -1.6756,-2.659 -1.4908,-3.8961 1.8635,-12.0454 3.821,-24.0782 6.0791,-36.0516 0.3758,-1.9856 1.9418,-4.6853 3.6236,-5.3242 6.8996,-2.634 13.959,-5.0487 21.1467,-6.7243 17.5419,-4.084 34.0284,-0.9208 49.3341,8.4531 6.0195,3.6894 9.6964,9.1327 11.5536,15.9415 z m -212.7545,-54.3169 c 2.136,4.2719 3.6769,6.6866 4.6039,9.3143 6.6146,18.7132 7.8267,38.081 6.8464,57.7213 -0.5168,10.3416 -2.6935,20.179 -7.5918,29.3837 -3.5923,6.7524 -5.982,7.8768 -11.5161,2.4115 -6.4016,-6.3264 -11.5881,-13.9088 -17.1128,-21.0934 -4.6791,-6.0822 -5.9506,-13.0508 -5.1113,-20.6613 1.6944,-15.3809 6.8558,-29.4839 15.7379,-42.0367 3.5892,-5.0768 8.5564,-9.1828 14.1438,-15.0394 z m 217.2018,8.5376 c 7.3287,-2.7154 14.1532,-5.5842 21.1875,-7.7766 14.0404,-4.3753 28.1841,-8.4311 42.331,-12.4619 1.6161,-0.4604 3.5892,-0.2098 5.2773,0.2067 13.0946,3.2008 26.1735,6.4643 39.2242,9.8248 11.3814,2.9346 22.7252,6.0133 34.0878,9.0294 -0.019,0.4791 -0.034,0.9521 -0.05,1.4281 -1.638,0.6139 -3.2259,1.4219 -4.9077,1.804 -12.2552,2.778 -24.5167,5.5216 -36.8032,8.1681 -9.1985,1.9856 -18.5441,3.42 -27.6455,5.7877 -16.5083,4.2908 -31.6011,1.0743 -46.556,-6.4267 -8.1304,-4.0808 -17.1629,-6.3609 -26.1453,-9.5836 z m -248.07,19.1924 c -5.4339,12.5527 -7.999,24.9175 -7.7014,37.8242 0.016,0.7203 -0.7298,2.0138 -1.2747,2.1015 -6.0258,0.974 -12.4243,3.4483 -18.0649,2.2988 -20.4514,-4.1685 -40.6711,-9.4991 -60.9377,-14.5383 -7.4039,-1.8447 -14.7232,-4.0277 -22.03,-6.22 -3.5014,-1.0555 -4.5068,-3.5955 -4.0464,-7.2379 1.1776,-9.33 4.3064,-18.0117 10.9774,-24.501 4.0903,-3.9838 9.7966,-8.2652 15.052,-8.6473 8.8665,-0.642 18.0837,1.0712 26.9126,2.944 14.9173,3.1602 29.6656,7.144 44.445,10.9398 5.412,1.3875 10.708,3.2228 16.6681,5.0362 z m -11.4754,190.5335 c 3.3574,11.6539 6.6961,22.8223 9.6808,34.0816 0.3696,1.3937 -0.6327,3.8523 -1.8134,4.8357 -7.4164,6.1793 -15.0802,12.0673 -22.6344,18.0837 -7.6293,6.0634 -8.0051,6.5895 -15.8975,0.5512 -16.3549,-12.5089 -32.6033,-25.2026 -48.1909,-38.6354 -9.449,-8.1524 -17.5889,-17.83 -26.4177,-26.9251 3.871,-4.9954 7.0342,-9.1891 10.3635,-13.2512 0.5794,-0.7109 1.8165,-1.1525 2.7811,-1.2308 8.7193,-0.6953 17.4417,-1.5033 26.1798,-1.7351 2.0294,-0.053 4.8889,1.4407 6.0477,3.1288 4.6916,6.8245 10.7675,11.7729 18.0743,15.4811 13.2261,6.7086 27.3134,6.8808 41.8267,5.6155 z m -64.7022,-29.7094 c -15.5469,0 -29.7376,-0.144 -43.9252,0.088 -4.4474,0.075 -7.5949,-1.591 -10.5703,-4.6008 -14.2252,-14.3724 -18.4595,-32.2212 -18.0336,-51.6485 0.041,-1.757 1.14,-4.0182 2.5024,-5.1395 10.3604,-8.5595 20.3826,-17.689 31.5447,-25.0898 12.2678,-8.1304 26.7341,-8.3841 42.2904,-7.9613 -7.2066,14.9862 -8.8602,30.3733 -9.7842,45.8169 -0.9364,15.7222 -0.012,31.3536 5.9758,48.5353 z m -32.572,-101.4084 c -11.679,8.0772 -23.0823,16.1262 -34.7142,23.8276 -1.66,1.1024 -4.6791,1.2653 -6.6397,0.6045 -9.5618,-3.2228 -16.7088,-9.9345 -24.0406,-16.6399 -13.9089,-12.7062 -17.4668,-27.5954 -11.4065,-45.0809 4.1373,-11.9326 10.7895,-21.2595 24.0626,-24.5668 6.4956,-1.6161 12.559,-4.9014 18.9825,-6.8996 11.7134,-3.6362 23.5427,-6.8808 35.325,-10.2915 -20.5674,30.6678 -20.9996,55.0936 -1.5691,79.0466 z m 254.5186,6.0947 c 9.6463,4.2594 18.5848,7.8861 27.1663,12.2082 2.1735,1.0962 4.2406,4.2469 4.6415,6.7305 4.4003,26.8468 -5.1677,50.1076 -19.3428,71.9935 -1.0304,1.5816 -4.0746,2.6527 -6.1605,2.6151 -8.1712,-0.144 -16.4645,-0.085 -24.4759,-1.4563 -17.1911,-2.9472 -31.8141,-12.0673 -46.4621,-20.9244 -0.1534,-0.097 -0.056,-0.6201 -0.088,-1.1181 14.3192,-6.5426 23.7682,-17.5325 29.0736,-32.3245 0.664,-1.8541 2.2425,-3.9713 3.9525,-4.77 14.5353,-6.7774 26.4898,-16.0041 31.6951,-32.954 z m -147.6701,-12.1206 c 1.5848,2.302 2.6308,3.7552 3.608,5.2554 8.2902,12.7375 17.9177,23.9404 32.8664,29.2052 9.449,3.3261 18.9387,6.5457 28.2467,10.2288 10.8177,4.2751 21.8546,5.3681 33.2767,3.6487 1.3467,-0.2036 2.7436,-0.028 4.5225,-0.028 -0.6953,1.6881 -1.187,3.0348 -1.7883,4.3283 -5.8505,12.5935 -16.2328,19.6748 -28.9139,24.216 -2.0076,0.7172 -4.5664,3.1946 -4.6822,4.9954 -0.1159,1.8166 2.1798,4.2125 3.9838,5.6312 2.6871,2.1172 5.8504,3.6519 8.8633,5.3462 18.2497,10.2539 36.0609,21.6573 57.9625,22.5843 0.9427,0.038 1.8666,0.5575 3.5703,1.0931 -19.9534,3.6643 -43.2737,-1.8604 -58.5982,-12.9317 -7.811,-5.6469 -16.0887,-10.6642 -24.2849,-15.7599 -3.9963,-2.4867 -8.1555,-3.5077 -12.9129,-1.1275 -9.781,4.9015 -20.132,5.3274 -30.7617,3.2103 -19.0484,-3.7928 -31.7045,-18.0149 -32.381,-37.3357 -0.5449,-15.6032 2.4429,-30.508 10.9085,-43.9314 1.7977,-2.8469 4.0558,-5.3995 6.5144,-8.6285 z m 195.958,24.0187 c 0.05,-0.4885 0.097,-0.974 0.1504,-1.4594 7.9801,0 15.9884,0.4228 23.9278,-0.1128 8.8227,-0.6013 17.1129,-3.2165 24.1033,-9.1201 16.1419,-13.6364 15.6283,-36.9317 6.4768,-51.4575 -10.6454,-16.903 -28.109,-21.9234 -46.5623,-23.3015 -15.2524,-1.1369 -29.5496,3.8147 -43.8061,9.709 0.714,-1.779 1.6755,-3.5015 3.1476,-4.3158 4.9327,-2.7467 10.0378,-5.1834 15.0864,-7.7171 13.4516,-6.7524 27.5515,-9.3362 42.4188,-6.2294 6.7649,1.4188 13.4014,3.4577 20.1695,4.8482 21.8076,4.4693 41.8112,13.9026 62.1467,22.4089 6.2983,2.6309 9.7998,7.7077 11.942,14.1281 3.7928,11.3752 3.4044,22.8067 -0.1064,33.9031 -4.723,14.9392 -12.5778,28.3157 -29.0674,32.0552 -14.6668,3.3261 -29.6687,5.2616 -44.6549,-0.7642 -10.7864,-4.3408 -22.1646,-7.2473 -33.3613,-10.5076 -3.8741,-1.1306 -8.002,-1.4062 -12.0109,-2.0671 z m -164.7797,74.3769 c 0.1409,0.4291 0.2912,0.8613 0.4384,1.2935 -4.7511,4.4692 -9.1734,9.3676 -14.316,13.3294 -14.4225,11.1152 -30.0915,18.1433 -49.1554,15.2306 -19.5776,-2.9941 -33.1357,-13.7836 -36.6842,-34.2163 -2.1046,-12.1017 -2.9972,-24.6638 -2.3928,-36.9159 0.5669,-11.3438 3.4232,-22.6501 6.0572,-33.7841 2.7467,-11.6319 11.1058,-17.9991 22.3776,-20.8585 12.0015,-3.0443 23.9966,-6.101 36.017,-9.045 0.9896,-0.2412 2.1766,0.3413 3.2665,0.5418 -0.4572,0.9928 -0.7266,2.1454 -1.3999,2.9534 -3.4765,4.1498 -7.5292,7.9018 -10.517,12.3679 -8.4249,12.581 -10.9993,26.9909 -10.8772,41.7454 0.1378,17.3853 7.1533,31.4852 22.5217,40.6242 10.6736,6.3546 22.1614,9.0919 34.6641,6.7336 z m 156.715,-70.6248 c 20.7334,6.6365 39.979,12.7626 59.1746,19.0139 1.3843,0.4541 2.9784,1.6004 3.5985,2.8594 5.0487,10.2633 8.8759,20.8711 7.2536,32.6158 -2.681,19.4117 -10.3855,36.584 -22.6219,51.9273 -8.3685,10.4888 -19.2958,15.7003 -32.1304,17.9678 -14.8202,2.6214 -29.6969,1.2434 -44.0943,-1.4876 -41.8832,-7.9395 -76.2529,-30.9434 -108.9407,-56.8475 -0.4103,-0.3258 -0.4542,-1.1056 -1.0586,-2.7092 2.7561,0.9052 4.7699,1.1933 6.3703,2.1642 6.7117,4.0496 13.7554,7.7327 19.8407,12.5966 18.5629,14.8108 39.9665,19.7342 63.0143,18.7884 8.1711,-0.332 15.9696,-2.706 22.9695,-7.6889 9.07,-6.458 12.512,-16.4958 16.7839,-25.7099 9.0732,-19.5557 14.9644,-39.9727 9.8405,-63.4903 z m 367.8066,-56.8287 c -0.01,0.4259 -0.019,0.855 -0.028,1.2841 -5.6844,0.6263 -11.4033,0.9928 -17.0377,1.9167 -33.0918,5.4214 -66.2276,10.6078 -99.2224,16.5773 -37.132,6.7179 -74.1231,14.1907 -111.1831,21.297 -5.5843,1.0711 -6.7055,-0.1378 -5.2022,-5.5905 3.3668,-12.1769 5.0205,-24.4571 0.2161,-36.537 -2.4209,-6.0884 -6.0477,-11.6977 -9.2078,-17.6765 0.1441,-0.038 1.1243,-0.4761 2.1422,-0.5606 6.3422,-0.5325 12.7877,-0.4636 19.0139,-1.591 9.662,-1.7508 19.1987,-4.2 28.7417,-6.5301 13.2167,-3.229 27.0629,-4.4254 38.9704,-12.0172 1.0962,-0.6984 3.1414,-0.3445 4.6134,0.038 35.4627,9.1922 70.9286,18.3875 106.3537,27.7394 13.9966,3.6926 27.8898,7.7578 41.83,11.6508 z M 9465.1594,5166.61 c 0.3727,0.2568 1.0085,0.6013 1.544,1.0649 20.6488,17.9396 43.8814,31.9487 68.0661,44.4419 4.0214,2.0796 6.505,4.5444 7.9456,8.8696 5.4465,16.38 8.1681,33.759 18.2842,48.7296 -37.89,5.6593 -75.2319,11.2373 -114.0176,17.0282 -7.9206,-26.6401 -15.8099,-53.3397 -23.8684,-79.9892 -1.1306,-3.7396 0.307,-5.1677 3.4733,-6.4581 16.6368,-6.79 28.6853,-18.8604 38.5728,-33.6869 z m 353.0677,-178.0497 c -6.8495,-2.017 -12.725,-3.94 -18.7038,-5.4715 -19.6215,-5.0079 -39.2837,-9.8467 -58.9083,-14.8359 -2.4648,-0.6264 -5.1113,-0.6921 -5.0142,-4.939 0.6639,-28.8106 0.8988,-57.6305 1.4344,-86.4473 0.2944,-15.9478 0.8957,-31.883 1.3718,-48.1627 1.5565,0.4072 2.7748,0.7016 3.9744,1.0429 20.7145,5.8066 41.3727,11.7917 62.1467,17.3697 12.3053,3.301 12.678,3.0035 12.9849,15.7034 0.4573,18.9294 0.7454,37.8681 0.5512,56.8005 -0.144,14.3724 -1.4876,28.7354 -1.6411,43.1141 -0.091,8.3277 1.115,16.6712 1.804,25.8258 z m -596.042,-7.8705 c 0,-8.2276 0.2004,-15.8632 -0.038,-23.4863 -1.1557,-36.277 -2.3615,-72.551 -3.7615,-108.8186 -0.1315,-3.4764 0.7172,-4.9547 4.0684,-5.5592 12.3147,-2.2205 24.6044,-4.6039 37.5267,-7.0405 0.6138,13.533 6.3954,25.1117 14.7169,35.5911 9.2986,11.7134 18.6756,23.3673 27.8052,35.2091 1.3937,1.8102 2.3051,4.5037 2.3145,6.79 0.069,14.5791 -0.1378,29.1644 -0.3508,43.7404 -0.06,4.1686 1.5221,7.0343 5.5623,8.3434 8.4749,2.753 16.9311,5.5467 25.4343,8.2057 21.9078,6.8495 43.8406,13.6144 65.7483,20.4483 9.6808,3.0192 19.3365,6.1198 29.4495,9.33 -1.1056,1.8102 -2.0076,3.2854 -2.2801,3.7364 -11.3313,-2.9065 -21.8764,-5.6062 -32.4278,-8.3153 -4.4003,-1.1306 -8.9949,-1.7883 -13.1697,-3.4858 -29.6718,-12.0517 -59.6913,-11.87 -90.1148,-3.3136 -3.3637,0.949 -7.2535,1.2496 -10.6642,0.5982 -14.6699,-2.8062 -29.249,-6.126 -43.8782,-9.1546 -5.1645,-1.068 -10.3886,-1.8478 -15.9414,-2.8187 z m 241.4616,2.6183 c 11.372,-4.8608 23.242,-12.2051 36.0797,-14.8453 15.7035,-3.2322 32.1993,-2.7467 48.2974,0.523 5.3367,1.0836 9.4709,3.5672 12.3867,8.1367 8.4061,13.1791 13.8494,27.6831 13.8337,43.1735 -0.019,19.1267 -2.9096,37.865 -10.0441,56.1429 -7.3412,18.8009 -21.2313,26.9815 -39.4778,31.4444 -22.7033,5.5529 -41.1629,-6.8369 -60.8846,-12.393 18.8792,-37.3293 14.8798,-73.8976 -0.191,-112.1822 z m 526.5761,51.2789 c -1.2872,-0.072 -1.8478,-0.012 -2.3552,-0.1472 -25.7193,-6.8182 -51.4387,-13.6583 -77.1549,-20.4922 -26.2549,-6.9716 -52.5317,-13.8775 -78.7396,-21.0465 -1.9919,-0.5449 -4.8983,-2.85 -4.9954,-4.4786 -1.0523,-17.6484 -3.5172,-35.5066 -1.8854,-52.9545 2.3708,-25.3843 3.0473,-50.5743 1.0304,-75.9115 -0.166,-2.064 -0.019,-4.153 -0.019,-6.7806 2.399,0.689 3.9493,1.14 5.4996,1.5753 29.3054,8.2589 58.5262,16.831 87.9381,24.6764 22.7127,6.0572 45.8858,10.3886 67.4084,20.4264 3.4576,1.6129 4.441,3.1194 4.1873,6.8213 -0.6859,10.0034 -1.2089,20.0412 -1.1494,30.0665 0.1723,29.3617 0.6828,58.7298 0.974,88.0978 0.031,3.3699 -0.476,6.7461 -0.7391,10.1474 z m -765.432,-199.8166 c -0.1973,-2.2048 -0.4259,-3.4482 -0.4009,-4.6916 0.7642,-43.399 1.5409,-86.798 2.3552,-130.1971 0.2099,-11.1152 0.9803,-22.2366 0.8049,-33.3424 -0.9427,-58.0126 -2.3019,-116.0189 -3.1037,-174.0346 -0.3758,-27.1788 0.2318,-54.3733 0.2756,-81.5583 0.038,-22.0519 -0.056,-44.1069 -0.2192,-66.1619 -0.025,-3.3449 0.7047,-5.3649 4.3502,-6.2763 8.6692,-2.1548 17.2224,-4.7856 25.854,-7.0907 16.7151,-4.4755 33.4489,-8.8602 50.6682,-13.414 0.1911,2.1641 0.426,3.7426 0.4448,5.3211 0.2787,23.17 0.902,46.3399 0.6827,69.5005 -0.2349,24.2442 -1.5847,48.4758 -1.8885,72.7138 -0.2725,21.7011 0.1033,43.4147 0.4572,65.1157 0.075,4.3534 -1.638,5.8943 -5.5685,7.0343 -14.006,4.0621 -27.8741,8.5596 -41.8143,12.8221 -4.6227,1.4125 -7.0061,4.4943 -7.1126,9.2204 -0.1409,6.0164 -0.166,12.0391 -0.056,18.0555 0.8895,51.257 1.3781,102.5203 2.8971,153.7586 0.9051,30.436 3.4545,60.8281 5.2679,91.2391 0.1378,2.3207 0.8769,4.7605 -2.6559,5.4652 -10.3166,2.067 -20.6049,4.2876 -31.2378,6.5206 z m 3.1225,232.1004 c -0.2349,0.085 -0.5888,0.3539 -0.8769,0.2944 -33.4051,-6.7273 -66.8415,-13.2699 -100.1808,-20.3011 -28.3407,-5.9788 -56.6314,-12.2364 -84.7905,-18.9951 -8.3183,-1.9981 -16.1262,-6.1291 -23.3641,-8.9667 0.4134,-5.7721 0.7861,-9.9188 0.996,-14.0686 1.9042,-37.868 3.7395,-75.7392 5.8128,-113.5947 0.078,-1.4908 2.0514,-3.6988 3.5641,-4.1467 5.5811,-1.6474 11.3125,-2.8375 17.0377,-3.9493 54.3764,-10.5577 108.9345,-20.3293 162.102,-36.3272 1.0993,-0.332 2.3207,-0.2787 3.0818,-0.3602 0,12.036 -0.213,23.6805 0.044,35.3156 0.5982,27.3385 1.4094,54.6771 2.1767,82.0125 0.1597,5.6124 0.7329,11.2248 0.6608,16.834 -0.047,3.2729 1.3969,4.4223 4.225,5.0299 10.8552,2.3333 21.7105,4.6854 32.5281,7.1784 7.3569,1.6943 14.6574,3.6267 21.983,5.4526 0.3351,0.5105 0.6733,1.021 1.0085,1.5284 -38.7826,6.8621 -49.3247,32.3402 -46.008,67.0638 z m 586.9219,-226.6539 c -6.2701,-1.5096 -11.2436,-2.5338 -16.1168,-3.9118 -18.9419,-5.3587 -37.8493,-10.8396 -56.7786,-16.2578 -2.8,-0.8018 -4.5601,-1.5347 -4.0934,-5.5122 1.0742,-9.2047 2.0764,-18.5629 1.5753,-27.7801 -2.8751,-52.9953 -6.4142,-105.9592 -9.3018,-158.9576 -2.3051,-42.4344 -3.8397,-84.9095 -6.0289,-127.3501 -2.7123,-52.325 -3.7051,-104.6281 0.2474,-156.9406 0.1284,-1.7132 0.2975,-3.4232 0.4854,-5.531 1.5785,0.5293 2.4273,0.7924 3.2604,1.1025 24.2066,9.164 48.3819,18.4125 72.6511,27.4074 3.4044,1.2622 3.7834,3.2228 3.6174,6.2137 -0.7548,13.4673 -2.0671,26.9534 -1.9418,40.4206 0.2506,27.1694 1.3655,54.3294 1.9982,81.4926 1.4876,63.6438 2.8218,127.2875 4.3815,190.925 0.996,40.8309 -0.1065,81.7306 4.1154,122.4644 1.0648,10.2884 1.259,20.6644 1.9292,32.215 z m -430.4605,61.5485 c 0,-8.3403 0.1973,-15.6346 -0.119,-22.9038 -0.1034,-2.2393 -1.068,-5.2209 -2.6903,-6.3672 -1.2371,-0.8738 -5.1113,-0.075 -6.054,1.2403 -1.1526,1.6035 -0.7736,4.5663 -0.4917,6.8714 0.285,2.3521 1.6223,4.5851 1.8447,6.9309 0.3257,3.4358 -0.078,6.9341 0.1002,10.3918 0.1441,2.9158 -0.7235,4.1372 -3.8836,4.4379 -16.6963,1.5847 -33.3737,3.3731 -50.0418,5.2272 -3.9713,0.4416 -6.9686,-0.4667 -9.5148,-3.7615 -8.1493,-10.5358 -15.8663,-21.5037 -24.9144,-31.219 -13.0226,-13.9777 -18.9701,-30.0915 -19.7906,-48.9519 -1.7664,-40.8183 -4.7637,-81.5959 -6.1198,-122.4268 -1.472,-44.2979 -1.4908,-88.6427 -2.5588,-132.9594 -0.1597,-6.646 2.2706,-9.3676 8.1994,-10.9805 35.0242,-9.5305 69.8669,-19.7249 105.0039,-28.7793 29.4556,-7.5855 59.2308,-13.9276 88.8682,-20.8053 5.4088,-1.2559 10.8301,-2.446 16.4457,-3.7113 0.2818,2.0232 0.5105,3.0943 0.5668,4.1717 2.1266,43.3708 4.0997,86.7511 6.3892,130.1125 1.4626,27.6862 3.254,55.363 5.1238,83.0272 2.1015,31.0937 4.3158,62.1781 6.7931,93.2467 0.7047,8.8759 -1.923,16.0073 -6.8338,23.3892 -8.9667,13.4767 -16.7652,27.7332 -24.999,41.6984 -3.2478,5.5091 -6.0102,10.9492 -13.7836,11.7416 -11.2248,1.1463 -22.3369,3.3543 -33.5022,5.0956 -10.9398,1.7069 -21.8858,3.3981 -34.0376,5.2836 z m 1.4125,9.7966 c 22.1802,-3.5203 43.3332,-7.5573 64.6584,-9.9908 11.751,-1.3373 18.7414,-6.8401 24.216,-16.7245 8.2088,-14.8077 16.9782,-29.3304 26.1829,-43.5368 4.8701,-7.5104 8.0302,-14.9925 7.1126,-24.0281 -1.0492,-10.351 -1.7226,-20.7365 -2.8532,-31.0749 -1.0241,-9.377 -1.2622,-9.615 7.7327,-11.7197 8.6598,-2.0263 17.7048,-5.6374 26.139,-4.6728 16.95,1.9324 33.972,5.2804 50.3049,10.2257 42.4188,12.8534 84.493,26.85 126.6769,40.4832 12.8722,4.1561 12.8753,4.3565 12.8972,17.8958 0,0.3665 -0.01,0.7298 0,1.0962 0.166,38.1249 0.332,76.2466 0.4886,114.3746 0.019,3.5955 0.01,7.194 0.01,11.2937 -2.5086,-0.5668 -4.4661,-0.9145 -6.364,-1.4532 -56.788,-16.1419 -113.5635,-32.3245 -170.3609,-48.4163 -3.9493,-1.1181 -8.0709,-1.6193 -12.1143,-2.4054 -0.2161,0.8989 -0.429,1.7946 -0.6483,2.6935 28.4034,12.9849 59.3969,18.1338 88.9372,27.6455 29.8911,9.6212 60.1454,18.1181 91.2235,27.4011 -1.7289,0.8018 -2.4774,1.2497 -3.2823,1.5159 -17.996,5.888 -35.9952,11.7729 -54.01,17.6108 -2.4711,0.8017 -5.0768,2.0232 -7.5385,1.8447 -4.3315,-0.3132 -8.5877,-1.6036 -12.891,-2.4022 -12.4243,-2.3082 -24.7735,-2.0326 -36.609,2.6371 -8.2464,3.254 -16.1639,7.3506 -24.3382,11.1152 -2.565,-6.7149 -4.7292,-13.2543 -7.5354,-19.5056 -4.0026,-8.9511 -9.8687,-15.406 -20.1821,-18.3187 -10.7456,-3.0317 -21.5413,-3.0974 -32.3527,-4.3878 -15.7411,-1.8823 -30.3014,0.059 -44.5046,7.2692 -14.4914,7.3538 -29.4369,13.7899 -40.3799,26.5368 -0.7391,0.8613 -3.2728,0.7548 -4.7417,0.3257 -22.5812,-6.6021 -45.1309,-13.3295 -67.6807,-20.0286 -16.7213,-4.9673 -33.4458,-9.9345 -50.615,-15.0395 -0.902,-14.0185 -1.8416,-28.6696 -2.7498,-42.7946 22.4934,1.9731 44.1632,-4.9891 66.7036,-4.8231 0.8206,10.5451 1.6036,20.6111 2.4022,30.8713 -1.1024,0.2443 -1.9668,0.4823 -2.85,0.617 -12.4432,1.8729 -24.9113,3.6017 -37.3137,5.7377 -1.9324,0.332 -3.5516,2.5055 -5.318,3.8272 1.9292,0.9677 3.8021,2.0984 5.8128,2.8344 0.9427,0.3445 2.1673,-0.022 3.2509,-0.1629 10.8427,-1.4062 21.6949,-2.7968 32.5313,-4.2751 4.0402,-0.5512 7.1533,-0.7642 10.2821,3.4608 6.671,9.0231 17.5199,9.6682 27.5859,11.0244 1.5753,0.2161 3.5985,-2.8532 5.4119,-4.4098 -1.3592,-1.5033 -2.4429,-3.6581 -4.1372,-4.3753 -2.9754,-1.2653 -6.3704,-1.5033 -9.5023,-2.4523 -3.6675,-1.1024 -7.241,-2.5024 -11.6099,-4.0433 21.1842,-5.4182 41.1095,-10.2601 60.8907,-15.6502 19.8156,-5.3994 40.978,-5.8191 59.5597,-16.1889 -1.7006,-0.6044 -3.4012,-0.8675 -4.986,-0.5637 -22.1677,4.1873 -44.348,8.3277 -66.4688,12.7438 -16.264,3.2478 -32.4498,6.8526 -48.6543,10.3603 -3.6706,0.7956 -5.3869,-0.4228 -5.7282,-4.2468 -0.7548,-8.5157 -1.757,-17.0064 -2.6841,-25.7507 z m 427.2221,-539.9995 c 8.2432,3.3824 15.3903,6.602 22.7378,9.2704 36.9786,13.436 73.9885,26.7968 111.0642,39.9634 3.9869,1.4156 5.1927,3.3793 5.2647,7.4414 0.4354,24.2567 0.7799,48.5229 1.851,72.7514 1.5315,34.4355 3.5391,68.849 5.5811,103.2563 1.8259,30.7523 4.0401,61.4859 5.9475,92.2351 1.0648,17.1065 1.7382,34.2381 2.7999,51.3447 0.9145,14.7388 2.8094,29.4432 3.063,44.1883 0.5137,29.7094 0.2005,59.4376 0.2005,89.1563 0,0.4698 -0.3602,0.9396 -0.5512,1.4031 -9.424,-2.5337 -18.7352,-5.0016 -28.0245,-7.526 -38.1937,-10.3823 -76.3969,-20.7145 -114.5124,-31.3693 -2.0733,-0.5794 -4.6603,-3.8491 -4.8263,-6.0352 -1.7288,-23.0885 -3.6361,-46.1958 -4.2938,-69.3313 -1.2152,-42.4877 -1.5284,-85.0004 -2.396,-127.4974 -0.9521,-46.8661 -2.0952,-93.7321 -3.1695,-140.5951 -0.7422,-32.099 -1.6912,-64.1856 -2.1641,-96.2846 -0.1566,-10.5045 0.8926,-21.0277 1.4281,-32.3715 z m -596.5369,-29.1112 c -0.3288,6.2137 -0.8769,11.2717 -0.8174,16.3235 0.2224,18.7728 0.8425,37.5455 0.949,56.3151 0.2223,38.4913 0.034,76.9857 0.3476,115.4771 0.4667,57.9843 1.4814,115.9625 1.7445,173.9468 0.1535,32.262 -0.783,64.5301 -1.1526,96.7983 -0.1284,11.0933 -0.022,22.1928 -0.022,34.044 -55.3254,16.8372 -112.8807,26.0701 -170.627,37.7459 0,-4.7605 -0.066,-8.5564 0.016,-12.3491 0.4792,-23.3423 0.9834,-46.6845 1.5096,-70.0235 0.1817,-8.0271 0.3038,-16.0574 0.7047,-24.0751 2.0671,-41.3602 5.105,-82.6921 6.1448,-124.0773 1.9449,-77.5151 2.4711,-155.0614 4.2093,-232.5827 0.4761,-21.0152 -3.8491,-16.0292 16.9938,-22.7441 39.5593,-12.7375 79.3504,-24.7672 119.0099,-37.2103 6.7399,-2.1109 13.3013,-4.7887 20.9901,-7.5886 z m 95.6583,191.2789 c 0,-14.1281 -0.3069,-27.6048 0.063,-41.0626 0.7767,-28.2625 2.4179,-56.5093 2.7593,-84.7686 0.3413,-28.6383 -0.2976,-57.2891 -0.8958,-85.9305 -0.1033,-5.0267 1.4344,-6.9685 6.1041,-8.1461 43.1391,-10.8208 86.2499,-21.7794 129.3358,-32.8194 18.6787,-4.7856 38.3284,-5.4872 56.2211,-13.5456 9.9501,-4.4786 19.017,-4.3847 30.0883,-0.4353 32.8257,11.7071 65.2317,24.3037 97.4654,37.5235 25.4469,10.445 51.7112,18.9043 77.7186,27.9649 4.1592,1.4501 4.9673,3.4765 4.7543,7.548 -1.4188,27.1287 -3.3606,54.2636 -3.5673,81.4111 -0.2098,27.3417 1.3217,54.7021 2.2425,82.0501 0.8926,26.4428 1.7131,52.8887 3.0661,79.3096 1.1275,22.0362 3.1351,44.0254 4.4599,66.0491 1.8823,31.3161 3.6111,62.6416 5.1677,93.9764 1.0335,20.7521 1.7194,41.523 2.3708,62.2908 0.094,3.1069 -0.8487,6.245 -1.3185,9.3864 -1.3687,-0.1629 -1.9293,-0.141 -2.4366,-0.3007 -32.143,-10.2195 -64.2357,-20.583 -96.4288,-30.6364 -16.5052,-5.1521 -33.0762,-10.1725 -49.81,-14.4695 -13.2355,-3.3982 -26.7498,-5.7126 -40.1857,-8.2307 -3.063,-0.5732 -6.4643,-0.5356 -9.4991,0.1503 -8.9636,2.0264 -17.8207,4.5162 -27.2383,6.956 -0.2631,-5.3994 -0.4573,-10.3009 -0.7423,-15.1961 -3.1382,-54.0882 -6.4298,-108.1703 -9.3739,-162.2711 -1.5972,-29.3273 -2.5462,-58.689 -3.8961,-88.032 -0.3382,-7.3256 -2.2957,-8.9322 -9.6588,-8.1586 -5.246,0.5512 -10.5233,1.2277 -15.6596,2.4021 -10.1286,2.3051 -20.1383,5.1395 -30.2606,7.4979 -21.485,5.011 -43.0639,9.64 -64.4987,14.8421 -18.5911,4.5163 -37.0444,9.6056 -56.3464,14.6449 z m -39.1522,574.2784 c -7.1251,5.3212 -5.7032,12.083 -5.4119,18.3155 0.7516,16.1826 5.0173,31.3505 15.2775,44.2008 8.7882,11.015 11.0557,11.9357 25.6692,13.4391 -2.1046,2.7153 -3.7833,5.1645 -5.7533,7.3537 -3.5892,3.9932 -3.489,7.9645 0.081,11.6727 11.2373,11.6821 21.9924,23.9279 34.0847,34.6578 13.3389,11.8356 27.6517,22.6501 42.093,33.1389 11.1998,8.1367 13.7742,7.4477 24.6356,-0.974 7.2974,-5.6657 14.767,-11.1215 22.7691,-17.1254 4.3753,11.9452 8.6785,23.3109 12.6968,34.7769 2.7874,7.9456 4.3972,9.2297 12.8847,7.8298 27.871,-4.6102 55.7451,-9.2298 83.5753,-14.0561 10.5515,-1.8322 20.9902,-4.2813 31.4946,-6.3891 5.2554,-1.0555 6.9936,-4.8858 7.4728,-9.5242 0.7454,-7.2222 1.2622,-14.4695 1.9355,-22.3682 3.7865,2.6434 7.4258,5.2272 11.1121,7.7515 5.4119,3.7176 10.7581,7.5354 16.311,11.0369 5.0361,3.1758 7.833,2.7749 11.0839,-2.2362 4.9578,-7.645 9.5774,-15.5249 13.9621,-23.5113 3.1288,-5.7032 7.147,-9.568 13.6332,-11.4847 13.7429,-4.0559 22.2179,-14.9268 28.7949,-26.4115 6.718,-11.7416 12.1675,-24.5167 16.1169,-37.4641 4.3753,-14.3536 2.5462,-28.9358 -5.7471,-43.0232 8.5157,-1.1212 16.4238,-1.9011 24.2286,-3.2509 10.9429,-1.8948 20.0912,-7.1314 27.5609,-15.4842 1.9136,-2.1423 4.7354,-4.2594 7.4477,-4.7825 61.7458,-11.9263 123.5574,-23.5207 185.3095,-35.4157 22.7377,-4.3785 45.3533,-9.3864 68.0378,-14.0561 3.7051,-0.7611 5.0643,-2.089 5.0142,-6.577 -0.4886,-46.1395 -0.5856,-92.2852 -0.642,-138.4278 0,-4.1404 -1.5096,-6.3484 -5.2773,-7.7922 -4.5914,-1.7508 -10.4544,-2.8877 -13.0413,-6.3328 -2.3114,-3.0755 -1.1494,-8.9353 -1.1119,-13.5643 0.2537,-30.2794 2.0139,-60.6183 0.6515,-90.8163 -2.7749,-61.2385 -7.5166,-122.3861 -10.8834,-183.5964 -2.7279,-49.5564 -4.6415,-99.1597 -6.8746,-148.7412 -0.3884,-8.5595 -0.1817,-17.166 -1.0805,-25.6629 -0.2568,-2.4586 -2.9472,-5.3995 -5.3086,-6.7431 -5.365,-3.063 -11.0964,-5.581 -16.8873,-7.7609 -20.9776,-7.9049 -42.068,-15.5218 -63.0769,-23.3578 -44.9149,-16.7558 -90.0365,-32.9979 -134.6225,-50.6025 -24.429,-9.6494 -49.4437,-17.4291 -74.1138,-26.2799 -15.954,-5.7252 -31.5259,-12.5246 -47.3766,-18.5535 -24.8831,-9.4741 -49.8758,-18.6537 -74.7746,-28.0777 -5.2522,-1.9856 -10.1286,-5.2428 -15.5124,-6.5332 -4.3722,-1.0492 -9.5492,-1.0586 -13.8525,0.2193 -48.4852,14.4663 -98.6931,21.5883 -147.4507,34.8457 -31.3318,8.522 -62.6729,16.9876 -93.9639,25.6473 -21.0841,5.8442 -42.212,11.5631 -63.0894,18.09 -43.1454,13.4829 -86.1529,27.4106 -129.173,41.2975 -7.9707,2.5744 -15.6815,5.9632 -23.6021,8.6973 -3.868,1.3374 -5.365,3.6894 -5.531,7.6733 -0.57,13.6614 -1.6975,27.3103 -2.0295,40.9749 -1.6004,65.6701 -2.7498,131.3433 -4.6008,197.0041 -0.8926,31.908 -3.1413,63.7784 -4.4536,95.6802 -1.2246,29.7031 -2.0858,59.425 -2.9628,89.1438 -0.5669,18.9607 -0.7986,37.9307 -1.4438,56.8882 -0.056,1.5315 -1.8823,3.7677 -3.3856,4.3284 -3.2071,1.1932 -6.7117,1.7131 -10.1443,2.1203 -4.7887,0.57 -7.0938,3.1507 -7.5197,7.8298 -3.5391,38.8922 -6.2701,77.8251 -5.7346,116.9177 0.034,2.3677 0.4448,4.8326 -0.038,7.1001 -2.0576,9.6338 2.8031,14.7889 10.7488,19.0233 12.1894,6.4956 25.5721,8.4499 38.7137,11.3563 27.2383,6.029 54.4891,11.989 81.7807,17.7455 26.2142,5.5278 52.5066,10.6736 78.7271,16.1763 7.6356,1.6036 14.3661,4.1749 19.9253,10.9242 8.3027,10.0848 17.8582,19.4054 32.6408,23.1198"
           style="fill:#231f20;fill-opacity:1;fill-rule:evenodd;stroke:none;stroke-width:0.313192"
           id="path43021" />
        <path
           d="m 9530.0246,4741.1417 c -0.6546,0.075 -1.3029,0.1503 -1.9543,0.2255 -0.8488,-3.0881 -1.9387,-6.1292 -2.5056,-9.2737 -3.3636,-18.7696 -3.6486,-37.7302 -3.1131,-56.7159 0.6953,-24.9771 2.4022,-49.9573 2.1767,-74.9218 -0.642,-70.4119 -2.1829,-140.8175 -3.0849,-211.2262 -0.3696,-28.6383 -0.1504,-57.2891 0.119,-85.9274 0.069,-7.6231 1.0147,-15.2869 2.1767,-22.8317 0.4823,-3.1037 2.6089,-5.9537 3.9869,-8.9197 0.7611,0.094 1.519,0.1911 2.28,0.285 0.5168,3.5829 1.5159,7.1784 1.4564,10.7519 -0.1504,8.381 -1.2277,16.7558 -1.1902,25.1337 0.2036,51.0691 0.6108,102.1476 0.9647,153.2198 0.238,34.6735 0.2725,69.347 0.8111,104.008 0.4103,26.0826 0.7517,52.1026 -0.8518,78.204 -1.5973,25.9825 -0.9615,52.1027 -1.2622,78.1634 -0.075,6.6084 -0.01,13.2167 -0.01,19.8251 z m -217.8939,-207.4115 c 19.302,-5.0393 37.7553,-10.1286 56.3464,-14.6449 21.4348,-5.2021 43.0137,-9.8311 64.4987,-14.8421 10.1223,-2.3584 20.132,-5.1928 30.2606,-7.4979 5.1363,-1.1744 10.4136,-1.8509 15.6596,-2.4021 7.3631,-0.7736 9.3206,0.833 9.6588,8.1586 1.3499,29.343 2.2989,58.7047 3.8961,88.032 2.9441,54.1008 6.2357,108.1829 9.3739,162.2711 0.285,4.8952 0.4792,9.7967 0.7423,15.1961 9.4176,-2.4398 18.2747,-4.9296 27.2383,-6.956 3.0348,-0.6859 6.4361,-0.7235 9.4991,-0.1503 13.4359,2.5181 26.9502,4.8325 40.1857,8.2307 16.7338,4.297 33.3048,9.3174 49.81,14.4695 32.1931,10.0534 64.2858,20.4169 96.4288,30.6364 0.5073,0.1597 1.0679,0.1378 2.4366,0.3007 0.4698,-3.1414 1.4125,-6.2795 1.3185,-9.3864 -0.6514,-20.7678 -1.3373,-41.5387 -2.3708,-62.2908 -1.5566,-31.3348 -3.2854,-62.6603 -5.1677,-93.9764 -1.3248,-22.0237 -3.3324,-44.0129 -4.4599,-66.0491 -1.353,-26.4209 -2.1735,-52.8668 -3.0661,-79.3096 -0.9208,-27.348 -2.4523,-54.7084 -2.2425,-82.0501 0.2067,-27.1475 2.1485,-54.2824 3.5673,-81.4111 0.213,-4.0715 -0.5951,-6.0979 -4.7543,-7.548 -26.0074,-9.0606 -52.2717,-17.5199 -77.7186,-27.9649 -32.2337,-13.2198 -64.6397,-25.8164 -97.4654,-37.5235 -11.0713,-3.9494 -20.1382,-4.0433 -30.0883,0.4353 -17.8927,8.0584 -37.5424,8.76 -56.2211,13.5456 -43.0859,11.04 -86.1967,21.9986 -129.3358,32.8194 -4.6697,1.1776 -6.2074,3.1194 -6.1041,8.1461 0.5982,28.6414 1.2371,57.2922 0.8958,85.9305 -0.3414,28.2593 -1.9826,56.5061 -2.7593,84.7686 -0.3695,13.4578 -0.063,26.9345 -0.063,41.0626"
           style="fill:#f8c33b;fill-opacity:1;fill-rule:evenodd;stroke:none;stroke-width:0.313192"
           id="path43023" />
        <path
           d="m 9216.4724,4342.4513 c -7.6888,2.7999 -14.2502,5.4777 -20.9901,7.5886 -39.6595,12.4431 -79.4506,24.4728 -119.0099,37.2103 -20.8429,6.7149 -16.5177,1.7289 -16.9938,22.7441 -1.7382,77.5213 -2.2644,155.0676 -4.2093,232.5827 -1.0398,41.3852 -4.0777,82.7171 -6.1448,124.0773 -0.4009,8.0177 -0.523,16.048 -0.7047,24.0751 -0.5262,23.339 -1.0304,46.6812 -1.5096,70.0235 -0.081,3.7927 -0.016,7.5886 -0.016,12.3491 57.7463,-11.6758 115.3016,-20.9087 170.627,-37.7459 0,-11.8512 -0.1065,-22.9507 0.022,-34.044 0.3696,-32.2682 1.3061,-64.5363 1.1526,-96.7983 -0.2631,-57.9843 -1.2778,-115.9625 -1.7445,-173.9468 -0.3132,-38.4914 -0.1253,-76.9858 -0.3476,-115.4771 -0.1065,-18.7696 -0.7266,-37.5423 -0.949,-56.3151 -0.06,-5.0518 0.4886,-10.1098 0.8174,-16.3235"
           style="fill:#f8c33b;fill-opacity:1;fill-rule:evenodd;stroke:none;stroke-width:0.313192"
           id="path43025" />
        <path
           d="m 9813.0093,4371.5625 c -0.5355,11.3438 -1.5847,21.867 -1.4281,32.3715 0.4729,32.099 1.4219,64.1856 2.1641,96.2846 1.0743,46.863 2.2174,93.729 3.1695,140.5951 0.8676,42.497 1.1808,85.0097 2.396,127.4974 0.6577,23.1355 2.565,46.2428 4.2938,69.3313 0.166,2.1861 2.753,5.4558 4.8263,6.0352 38.1155,10.6548 76.3187,20.987 114.5124,31.3693 9.2893,2.5244 18.6005,4.9923 28.0245,7.526 0.191,-0.4635 0.5512,-0.9333 0.5512,-1.4031 0,-29.7187 0.3132,-59.4469 -0.2005,-89.1563 -0.2536,-14.7451 -2.1485,-29.4495 -3.063,-44.1883 -1.0617,-17.1066 -1.7351,-34.2382 -2.7999,-51.3447 -1.9074,-30.7492 -4.1216,-61.4828 -5.9475,-92.2351 -2.042,-34.4073 -4.0496,-68.8208 -5.5811,-103.2563 -1.0711,-24.2285 -1.4156,-48.4947 -1.851,-72.7514 -0.072,-4.0621 -1.2778,-6.0258 -5.2647,-7.4414 -37.0757,-13.1666 -74.0856,-26.5274 -111.0642,-39.9634 -7.3475,-2.6684 -14.4946,-5.888 -22.7378,-9.2704"
           style="fill:#f8c33b;fill-opacity:1;fill-rule:evenodd;stroke:none;stroke-width:0.313192"
           id="path43027" />
        <path
           d="m 9528.2237,4776.5574 c 0.9897,0.016 1.9794,0.034 2.9691,0.05 0.3884,1.9888 1.0304,3.9619 1.1181,5.9601 0.2224,4.914 0.053,9.8436 0.2944,14.7545 1.6098,32.5563 3.2979,65.1095 4.9234,97.6658 0.081,1.6192 0.2004,3.3981 -0.3664,4.8388 -0.4416,1.1212 -1.8291,2.3082 -2.9785,2.5431 -0.7141,0.1409 -2.1986,-1.2903 -2.5807,-2.3019 -0.5606,-1.4783 -0.5606,-3.2071 -0.5982,-4.8326 -0.3414,-15.2932 -0.4385,-30.5957 -1.0022,-45.8764 -0.7485,-20.3888 -1.9293,-40.7619 -2.7248,-61.1476 -0.1535,-3.8648 0.6076,-7.7672 0.9458,-11.6539 z m -142.4365,135.0046 c 0.9271,8.7443 1.9293,17.235 2.6841,25.7507 0.3413,3.824 2.0576,5.0424 5.7282,4.2468 16.2045,-3.5077 32.3903,-7.1125 48.6543,-10.3603 22.1208,-4.4161 44.3011,-8.5565 66.4688,-12.7438 1.5848,-0.3038 3.2854,-0.041 4.986,0.5637 -18.5817,10.3698 -39.7441,10.7895 -59.5597,16.1889 -19.7812,5.3901 -39.7065,10.232 -60.8907,15.6502 4.3689,1.5409 7.9424,2.9409 11.6099,4.0433 3.1319,0.949 6.5269,1.187 9.5023,2.4523 1.6943,0.7172 2.778,2.872 4.1372,4.3753 -1.8134,1.5566 -3.8366,4.6259 -5.4119,4.4098 -10.066,-1.3562 -20.9149,-2.0013 -27.5859,-11.0244 -3.1288,-4.225 -6.2419,-4.012 -10.2821,-3.4608 -10.8364,1.4783 -21.6886,2.8689 -32.5313,4.2751 -1.0836,0.1409 -2.3082,0.5074 -3.2509,0.1629 -2.0107,-0.736 -3.8836,-1.8667 -5.8128,-2.8344 1.7664,-1.3217 3.3856,-3.4952 5.318,-3.8272 12.4024,-2.136 24.8705,-3.8648 37.3137,-5.7377 0.8832,-0.1347 1.7476,-0.3727 2.85,-0.617 -0.7986,-10.2602 -1.5816,-20.3262 -2.4022,-30.8713 -22.5404,-0.166 -44.2102,6.7962 -66.7036,4.8231 0.9082,14.125 1.8478,28.7761 2.7498,42.7946 17.1692,5.105 33.8937,10.0722 50.615,15.0395 22.5498,6.6991 45.0995,13.4265 67.6807,20.0286 1.4689,0.4291 4.0026,0.5356 4.7417,-0.3257 10.943,-12.7469 25.8885,-19.183 40.3799,-26.5368 14.2032,-7.2097 28.7635,-9.1515 44.5046,-7.2692 10.8114,1.2904 21.6071,1.3561 32.3527,4.3878 10.3134,2.9127 16.1795,9.3676 20.1821,18.3187 2.8062,6.2513 4.9704,12.7907 7.5354,19.5056 8.1743,-3.7646 16.0918,-7.8612 24.3382,-11.1152 11.8355,-4.6697 24.1847,-4.9453 36.609,-2.6371 4.3033,0.7986 8.5595,2.089 12.891,2.4022 2.4617,0.1785 5.0674,-1.043 7.5385,-1.8447 18.0148,-5.8379 36.014,-11.7228 54.01,-17.6108 0.8049,-0.2662 1.5534,-0.7141 3.2823,-1.5159 -31.0781,-9.283 -61.3324,-17.7799 -91.2235,-27.4011 -29.5403,-9.5117 -60.5338,-14.6606 -88.9372,-27.6455 0.2193,-0.8989 0.4322,-1.7946 0.6483,-2.6935 4.0434,0.7861 8.165,1.2873 12.1143,2.4054 56.7974,16.0918 113.5729,32.2744 170.3609,48.4163 1.8979,0.5387 3.8554,0.8864 6.364,1.4532 0,-4.0997 0.012,-7.6982 -0.01,-11.2937 -0.1566,-38.128 -0.3226,-76.2497 -0.4886,-114.3746 0,-0.3664 0,-0.7297 0,-1.0962 -0.022,-13.5393 -0.025,-13.7397 -12.8972,-17.8958 -42.1839,-13.6332 -84.2581,-27.6298 -126.6769,-40.4832 -16.3329,-4.9453 -33.3549,-8.2933 -50.3049,-10.2257 -8.4342,-0.9646 -17.4792,2.6465 -26.139,4.6728 -8.9949,2.1047 -8.7568,2.3427 -7.7327,11.7197 1.1306,10.3384 1.804,20.7239 2.8532,31.0749 0.9176,9.0356 -2.2425,16.5177 -7.1126,24.0281 -9.2047,14.2064 -17.9741,28.7291 -26.1829,43.5368 -5.4746,9.8844 -12.465,15.3872 -24.216,16.7245 -21.3252,2.4335 -42.4782,6.4705 -64.6584,9.9908"
           style="fill:#f8c33b;fill-opacity:1;fill-rule:evenodd;stroke:none;stroke-width:0.313192"
           id="path43029" />
        <path
           d="m 9284.1407,4578.3726 c 0,-9.4803 6.837,-16.0104 16.8435,-16.1043 6.8338,-0.069 12.1362,7.0186 12.0673,16.1294 -0.05,7.1313 -8.0271,15.9038 -14.5854,16.0416 -7.811,0.1629 -14.3348,-7.1501 -14.3254,-16.0667 z m 22.0237,281.8666 c -0.066,-9.2642 6.2168,-17.1441 13.8587,-17.3727 7.4321,-0.2193 16.405,8.879 16.5491,16.7745 0.1253,7.1345 -7.7828,15.171 -15.0771,15.3182 -7.6105,0.1566 -15.2743,-7.2034 -15.3307,-14.72 z m 133.8018,-257.7477 c 0.1096,10.6799 -7.2128,18.1871 -17.9803,18.4376 -8.4719,0.1973 -16.0292,-6.2607 -16.0919,-13.7522 -0.097,-12.393 9.2893,-21.7951 21.6823,-21.7262 7.1721,0.041 12.2834,7.0719 12.3899,17.0408 z m -79.8169,-37.1038 c -0.166,-8.6191 6.4048,-15.0865 15.6439,-15.3903 9.1954,-0.3038 17.5827,8.5846 17.5952,18.6443 0.01,7.7014 -9.1014,17.0408 -16.8873,17.3164 -10.4137,0.3727 -16.0825,-6.7618 -16.3518,-20.5704 z m 90.431,283.4043 c 0.1284,10.8365 -7.4728,19.1204 -17.5388,19.1142 -9.615,-0.01 -17.26,-7.3037 -17.4573,-16.665 -0.213,-9.7152 8.7757,-19.4179 18.2779,-19.7342 9.0074,-0.3007 16.6023,7.5542 16.7182,17.285 z m -140.4478,-238.4049 c 9.2799,0.025 17.2162,8.5533 17.1003,18.3781 -0.084,7.4352 -10.5765,16.8497 -18.7727,16.8497 -9.1327,0 -16.6775,-9.4458 -16.6117,-20.7928 0.047,-8.6691 7.3882,-14.4601 18.2841,-14.435 z m 142.2142,-64.5771 c 0.1284,13.5268 -14.7294,24.548 -27.4168,19.7217 -3.2478,-1.234 -6.2827,-4.8388 -7.9207,-8.1085 -3.1382,-6.2513 -0.9176,-12.1707 2.4711,-18.0931 3.655,-6.3766 13.6677,-12.1738 20.5329,-10.6987 7.36,1.5785 12.2489,8.3904 12.3335,17.1786 z m -134.9074,227.7126 c -9.6087,-2.6465 -18.3969,-4.8639 -27.0441,-7.5605 -3.0255,-0.9427 -7.3507,-2.5368 -8.0491,-4.7793 -0.7422,-2.3708 1.3812,-6.6616 3.561,-8.738 8.8446,-8.4124 18.0743,-16.4301 27.4231,-24.2818 2.4335,-2.0389 3.0035,-3.6738 1.7946,-6.433 -2.9064,-6.671 -5.697,-13.3952 -8.5,-20.1163 -1.3969,-3.3512 -3.1695,-6.6366 -3.9462,-10.138 -1.0524,-4.7011 1.45,-7.2097 6.2231,-7.3538 10.5264,-0.3194 21.0434,-0.8112 31.5729,-1.0523 3.514,-0.081 5.5717,-1.3906 7.0844,-4.6979 5.9287,-12.9317 12.1612,-25.7256 18.2653,-38.5759 2.991,-6.3014 6.9153,-6.9622 11.7103,-1.8666 1.1181,1.1839 1.9543,2.6308 2.9972,3.893 7.0249,8.5 14.0718,16.9844 20.987,25.3216 9.3049,-5.5028 18.71,-11.0432 28.0902,-16.6337 3.2822,-1.9606 6.3452,-4.369 9.7903,-5.9788 5.2241,-2.4492 9.0857,0.3007 8.9573,6.054 -0.038,1.6317 -0.263,3.2823 -0.6044,4.8795 -2.3333,11.062 -4.6133,22.1396 -7.1721,33.1483 -0.7987,3.4169 0.285,4.8043 3.3762,6.0853 8.5783,3.5547 17.0596,7.3632 25.4562,11.325 7.4509,3.5109 7.7453,6.9873 1.4345,12.4588 -9.449,8.2025 -18.8793,16.4301 -28.5193,24.8268 3.8241,13.6144 7.8423,27.445 11.5787,41.3507 2.5713,9.568 -0.3289,11.9608 -10.0347,9.6181 -12.3585,-2.9847 -24.8612,-5.3837 -37.4671,-8.0741 -0.2005,0.2381 -0.6609,0.5951 -0.8833,1.0618 -8.0365,16.9468 -15.9789,33.9375 -24.1595,50.8122 -0.8206,1.6913 -2.9189,3.5329 -4.6258,3.7584 -1.3186,0.1753 -3.4796,-1.7821 -4.3346,-3.3136 -1.5848,-2.8375 -2.3427,-6.1261 -3.7082,-9.1014 -3.1946,-6.9403 -6.6021,-13.7836 -9.8155,-20.7145 -1.425,-3.0693 -3.1789,-3.6205 -6.483,-2.4523 -11.6852,4.1341 -23.4425,8.0929 -35.2905,11.7165 -10.8459,3.3199 -13.555,0.5387 -10.7268,-10.4449 0.6827,-2.6403 1.6317,-5.2178 2.4836,-7.8173 2.7153,-8.3059 5.4401,-16.6055 8.5783,-26.186 z m 64.1762,128.2428 c 12.1518,-1.8855 23.0978,-3.5767 34.0376,-5.2836 11.1684,-1.7413 22.2774,-3.9493 33.5022,-5.0956 7.7734,-0.7924 10.5358,-6.2325 13.7836,-11.7416 8.2338,-13.9652 16.0323,-28.2217 24.9989,-41.6984 4.914,-7.3819 7.5386,-14.5133 6.8339,-23.3892 -2.4773,-31.0686 -4.6916,-62.153 -6.79,-93.2467 -1.8729,-27.6642 -3.6644,-55.341 -5.127,-83.0272 -2.2894,-43.3614 -4.2625,-86.7417 -6.3891,-130.1125 -0.05,-1.0774 -0.285,-2.1485 -0.5669,-4.1717 -5.6155,1.2653 -11.0368,2.4554 -16.4457,3.7113 -29.6342,6.8777 -59.4125,13.2198 -88.8681,20.8053 -35.1339,9.0544 -69.9797,19.2488 -105.004,28.7793 -5.9224,1.6129 -8.359,4.3345 -8.1962,10.9805 1.0649,44.3167 1.0868,88.6615 2.5557,132.9594 1.3561,40.8309 4.3533,81.6085 6.1229,122.4268 0.8205,18.8604 6.7712,34.9742 19.7874,48.9519 9.0482,9.7153 16.7683,20.6832 24.9145,31.219 2.5462,3.2948 5.5466,4.2031 9.5179,3.7615 16.6681,-1.8541 33.3455,-3.6425 50.0387,-5.2272 3.1601,-0.3007 4.0308,-1.5221 3.8836,-4.4379 -0.1786,-3.4577 0.2286,-6.956 -0.1003,-10.3918 -0.2223,-2.3458 -1.5597,-4.5788 -1.8447,-6.9309 -0.2818,-2.3051 -0.6608,-5.2679 0.4918,-6.8714 0.9458,-1.3154 4.8168,-2.1141 6.054,-1.2403 1.6254,1.1463 2.5869,4.1279 2.6903,6.3672 0.3194,7.2692 0.119,14.5635 0.119,22.9038"
           style="fill:#698da4;fill-opacity:1;fill-rule:evenodd;stroke:none;stroke-width:0.313192"
           id="path43031" />
        <path
           d="m 9814.8352,4840.2169 c -0.6702,-11.5506 -0.8644,-21.9266 -1.9292,-32.215 -4.2219,-40.7338 -3.1194,-81.6335 -4.1154,-122.4644 -1.5597,-63.6375 -2.8939,-127.2812 -4.3815,-190.925 -0.6327,-27.1632 -1.7476,-54.3232 -1.9982,-81.4926 -0.1253,-13.4672 1.187,-26.9533 1.9418,-40.4206 0.166,-2.9909 -0.213,-4.9515 -3.6174,-6.2137 -24.2692,-8.9949 -48.4445,-18.2434 -72.6511,-27.4074 -0.8331,-0.3101 -1.6819,-0.5732 -3.2604,-1.1025 -0.1879,2.1078 -0.357,3.8178 -0.4854,5.531 -3.9525,52.3125 -2.9597,104.6156 -0.2474,156.9406 2.1892,42.4406 3.7238,84.9157 6.0289,127.3501 2.8876,52.9984 6.4267,105.9623 9.3018,158.9576 0.5011,9.2172 -0.5011,18.5754 -1.5753,27.7801 -0.4667,3.9775 1.2934,4.7104 4.0934,5.5122 18.9293,5.4182 37.8367,10.8991 56.7786,16.2578 4.8732,1.378 9.8467,2.4022 16.1168,3.9118"
           style="fill:#bc4749;fill-opacity:1;fill-rule:evenodd;stroke:none;stroke-width:0.313192"
           id="path43033" />
        <path
           d="m 9199.8983,4985.6852 c -0.044,0.8769 -0.094,1.7539 -0.1409,2.6308 -1.8228,0.6734 -3.6049,1.5033 -5.4778,1.9982 -10.5608,2.803 -21.0997,5.7345 -31.7326,8.2275 -20.915,4.9015 -41.8331,9.8405 -62.8608,14.2033 -16.4144,3.4044 -32.976,6.1166 -49.5344,8.7255 -2.2863,0.3571 -4.9453,-1.6411 -7.4321,-2.5462 2.0044,-1.6944 3.7521,-4.2062 6.0571,-4.9172 5.1959,-1.6035 10.6486,-2.4585 16.0355,-3.3699 34.3258,-5.7941 68.8647,-10.4199 102.3762,-20.345 8.0209,-2.3802 16.2891,-4.0057 24.5324,-5.5153 2.5807,-0.476 5.4464,0.5638 8.1774,0.9083 z m 28.015,81.1856 c -3.3167,-34.7236 7.2254,-60.2017 46.008,-67.0638 -0.3352,-0.5074 -0.6734,-1.0179 -1.0085,-1.5284 -7.3256,-1.8259 -14.6261,-3.7583 -21.983,-5.4526 -10.8176,-2.493 -21.6729,-4.8451 -32.5281,-7.1784 -2.8281,-0.6076 -4.2719,-1.757 -4.225,-5.0299 0.072,-5.6092 -0.5011,-11.2216 -0.6608,-16.834 -0.7673,-27.3354 -1.5785,-54.674 -2.1767,-82.0125 -0.2568,-11.6351 -0.044,-23.2796 -0.044,-35.3156 -0.7611,0.081 -1.9825,0.028 -3.0818,0.3602 -53.1675,15.9979 -107.7256,25.7695 -162.102,36.3272 -5.7252,1.1118 -11.4566,2.3019 -17.0377,3.9493 -1.5127,0.4479 -3.4858,2.6559 -3.5641,4.1467 -2.0733,37.8555 -3.9086,75.7267 -5.8128,113.5947 -0.2099,4.1498 -0.5826,8.2965 -0.996,14.0686 7.2379,2.8376 15.0458,6.9686 23.3641,8.9667 28.1591,6.7587 56.4498,13.0163 84.7905,18.9951 33.3393,7.0312 66.7757,13.5738 100.1808,20.3011 0.2881,0.06 0.642,-0.2098 0.8769,-0.2944"
           style="fill:#f8c33b;fill-opacity:1;fill-rule:evenodd;stroke:none;stroke-width:0.313192"
           id="path43035" />
        <path
           d="m 9224.7908,4834.7704 c 10.6329,-2.233 20.9212,-4.4536 31.2378,-6.5206 3.5328,-0.7047 2.7937,-3.1445 2.6559,-5.4652 -1.8134,-30.411 -4.3628,-60.8031 -5.2679,-91.2391 -1.519,-51.2383 -2.0076,-102.5016 -2.8971,-153.7586 -0.1096,-6.0164 -0.084,-12.0391 0.056,-18.0555 0.1065,-4.7261 2.4899,-7.8079 7.1126,-9.2204 13.9402,-4.2625 27.8083,-8.76 41.8143,-12.8221 3.9305,-1.14 5.6437,-2.6809 5.5685,-7.0343 -0.3539,-21.701 -0.7297,-43.4146 -0.4572,-65.1157 0.3038,-24.238 1.6536,-48.4696 1.8885,-72.7138 0.2193,-23.1606 -0.404,-46.3305 -0.6827,-69.5005 -0.019,-1.5785 -0.2537,-3.157 -0.4448,-5.3211 -17.2193,4.5538 -33.9531,8.9385 -50.6682,13.414 -8.6316,2.3051 -17.1848,4.9359 -25.854,7.0907 -3.6455,0.9114 -4.3753,2.9314 -4.3502,6.2763 0.1628,22.055 0.2568,44.11 0.2192,66.1619 -0.044,27.185 -0.6514,54.3795 -0.2756,81.5583 0.8018,58.0157 2.161,116.022 3.1037,174.0346 0.1754,11.1058 -0.595,22.2272 -0.8049,33.3424 -0.8143,43.3991 -1.591,86.7981 -2.3552,130.1971 -0.025,1.2434 0.2036,2.4868 0.4009,4.6916"
           style="fill:#bc4749;fill-opacity:1;fill-rule:evenodd;stroke:none;stroke-width:0.313192"
           id="path43037" />
        <path
           d="m 9990.2228,5034.587 c 0.2631,-3.4013 0.7705,-6.7775 0.7391,-10.1474 -0.2912,-29.368 -0.8017,-58.7361 -0.974,-88.0978 -0.059,-10.0253 0.4635,-20.0631 1.1494,-30.0665 0.2537,-3.7019 -0.7297,-5.2084 -4.1873,-6.8213 -21.5226,-10.0378 -44.6957,-14.3692 -67.4084,-20.4264 -29.4119,-7.8454 -58.6327,-16.4175 -87.9381,-24.6764 -1.5503,-0.4353 -3.1006,-0.8863 -5.4996,-1.5753 0,2.6276 -0.1472,4.7166 0.019,6.7806 2.0169,25.3372 1.3404,50.5272 -1.0304,75.9115 -1.6318,17.4479 0.8331,35.3061 1.8854,52.9545 0.097,1.6286 3.0035,3.9337 4.9954,4.4786 26.2079,7.169 52.4847,14.0749 78.7396,21.0465 25.7162,6.8339 51.4356,13.674 77.1549,20.4922 0.5074,0.1347 1.068,0.075 2.3552,0.1472"
           style="fill:#f8c33b;fill-opacity:1;fill-rule:evenodd;stroke:none;stroke-width:0.313192"
           id="path43039" />
        <path
           d="m 9463.6467,4983.3081 c 15.0708,38.2846 19.0702,74.8529 0.191,112.1822 19.7217,5.5561 38.1813,17.9459 60.8846,12.393 18.2465,-4.4629 32.1366,-12.6435 39.4778,-31.4444 7.1345,-18.2779 10.0253,-37.0162 10.0441,-56.1429 0.016,-15.4904 -5.4276,-29.9944 -13.8337,-43.1735 -2.9158,-4.5695 -7.05,-7.0531 -12.3867,-8.1367 -16.0981,-3.2697 -32.5939,-3.7552 -48.2974,-0.523 -12.8377,2.6402 -24.7077,9.9845 -36.0797,14.8453"
           style="fill:#bc4749;fill-opacity:1;fill-rule:evenodd;stroke:none;stroke-width:0.313192"
           id="path43041" />
        <path
           d="m 9222.1851,4980.6898 c 5.5528,0.9709 10.7769,1.7507 15.9414,2.8187 14.6292,3.0286 29.2083,6.3484 43.8782,9.1546 3.4107,0.6514 7.3005,0.3508 10.6642,-0.5982 30.4235,-8.5564 60.443,-8.7381 90.1148,3.3136 4.1748,1.6975 8.7694,2.3552 13.1697,3.4858 10.5514,2.7091 21.0965,5.4088 32.4278,8.3153 0.2725,-0.451 1.1745,-1.9262 2.2801,-3.7364 -10.113,-3.2102 -19.7687,-6.3108 -29.4495,-9.33 -21.9077,-6.8339 -43.8405,-13.5988 -65.7483,-20.4483 -8.5032,-2.659 -16.9594,-5.4527 -25.4343,-8.2057 -4.0402,-1.3091 -5.6218,-4.1748 -5.5623,-8.3434 0.213,-14.576 0.4197,-29.1613 0.3508,-43.7404 -0.01,-2.2863 -0.9208,-4.9798 -2.3145,-6.79 -9.1296,-11.8418 -18.5066,-23.4957 -27.8052,-35.2091 -8.3215,-10.4794 -14.1031,-22.0581 -14.7169,-35.5911 -12.9223,2.4366 -25.212,4.82 -37.5267,7.0405 -3.3512,0.6045 -4.1999,2.0828 -4.0684,5.5592 1.4,36.2676 2.6058,72.5416 3.7615,108.8186 0.238,7.6231 0.038,15.2587 0.038,23.4863"
           style="fill:#bc4749;fill-opacity:1;fill-rule:evenodd;stroke:none;stroke-width:0.313192"
           id="path43043" />
        <path
           d="m 9818.2271,4988.5603 c -0.689,-9.1546 -1.8948,-17.4981 -1.804,-25.8258 0.1535,-14.3787 1.4971,-28.7417 1.6411,-43.1141 0.1942,-18.9324 -0.094,-37.8711 -0.5512,-56.8005 -0.3069,-12.6999 -0.6796,-12.4024 -12.9849,-15.7034 -20.774,-5.578 -41.4322,-11.5631 -62.1467,-17.3697 -1.1996,-0.3413 -2.4179,-0.6357 -3.9744,-1.0429 -0.4761,16.2797 -1.0774,32.2149 -1.3718,48.1627 -0.5356,28.8168 -0.7705,57.6367 -1.4344,86.4473 -0.097,4.2469 2.5494,4.3126 5.0142,4.939 19.6246,4.9892 39.2868,9.828 58.9083,14.8359 5.9788,1.5315 11.8543,3.4545 18.7038,5.4715"
           style="fill:#bc4749;fill-opacity:1;fill-rule:evenodd;stroke:none;stroke-width:0.313192"
           id="path43045" />
        <path
           d="m 9465.1594,5166.61 c -9.8875,14.8265 -21.936,26.8969 -38.5728,33.6869 -3.1663,1.2904 -4.6039,2.7185 -3.4733,6.4581 8.0585,26.6495 15.9478,53.3491 23.8684,79.9892 38.7857,-5.7909 76.1276,-11.3689 114.0176,-17.0282 -10.1161,-14.9706 -12.8377,-32.3496 -18.2842,-48.7296 -1.4406,-4.3252 -3.9242,-6.79 -7.9456,-8.8696 -24.1847,-12.4932 -47.4173,-26.5023 -68.0661,-44.4419 -0.5355,-0.4636 -1.1713,-0.8081 -1.544,-1.0649"
           style="fill:#bc4749;fill-opacity:1;fill-rule:evenodd;stroke:none;stroke-width:0.313192"
           id="path43047" />
        <path
           d="m 9978.7005,5039.5981 c -13.9402,-3.893 -27.8334,-7.9582 -41.83,-11.6508 -35.4251,-9.3519 -70.891,-18.5472 -106.3537,-27.7394 -1.472,-0.3821 -3.5172,-0.736 -4.6134,-0.038 -11.9075,7.5918 -25.7537,8.7882 -38.9704,12.0172 -9.543,2.3301 -19.0797,4.7793 -28.7417,6.53 -6.2262,1.1275 -12.6717,1.0586 -19.0139,1.5911 -1.0179,0.085 -1.9981,0.523 -2.1422,0.5606 3.1601,5.9788 6.7869,11.5881 9.2078,17.6765 4.8044,12.0799 3.1507,24.3601 -0.2161,36.537 -1.5033,5.4527 -0.3821,6.6616 5.2022,5.5905 37.06,-7.1063 74.0511,-14.5791 111.1831,-21.2971 32.9948,-5.9694 66.1306,-11.1559 99.2224,-16.5772 5.6344,-0.9239 11.3533,-1.2904 17.0377,-1.9167 0.01,-0.4291 0.022,-0.8582 0.028,-1.2841"
           style="fill:#f8c33b;fill-opacity:1;fill-rule:evenodd;stroke:none;stroke-width:0.313192"
           id="path43049" />
        <path
           d="m 9610.8939,5096.4268 c 5.1239,23.5176 -0.7673,43.9346 -9.8405,63.4903 -4.2719,9.2141 -7.7139,19.2519 -16.7839,25.7099 -6.9999,4.9829 -14.7984,7.3569 -22.9695,7.6889 -23.0478,0.9458 -44.4514,-3.9776 -63.0143,-18.7884 -6.0853,-4.8639 -13.129,-8.547 -19.8407,-12.5966 -1.6004,-0.9709 -3.6142,-1.259 -6.3703,-2.1642 0.6044,1.6036 0.6483,2.3834 1.0586,2.7092 32.6878,25.9041 67.0575,48.908 108.9407,56.8475 14.3974,2.731 29.2741,4.109 44.0943,1.4876 12.8346,-2.2675 23.7619,-7.479 32.1304,-17.9678 12.2364,-15.3433 19.9409,-32.5156 22.6219,-51.9273 1.6223,-11.7447 -2.2049,-22.3525 -7.2536,-32.6158 -0.6201,-1.259 -2.2142,-2.4053 -3.5985,-2.8594 -19.1956,-6.2513 -38.4412,-12.3774 -59.1746,-19.0139"
           style="fill:#bc4749;fill-opacity:1;fill-rule:evenodd;stroke:none;stroke-width:0.313192"
           id="path43051" />
        <path
           d="m 9454.1789,5167.0516 c -12.5027,2.3583 -23.9905,-0.379 -34.6641,-6.7336 -15.3684,-9.139 -22.3839,-23.2389 -22.5217,-40.6242 -0.1221,-14.7545 2.4523,-29.1644 10.8772,-41.7454 2.9878,-4.4661 7.0405,-8.2181 10.517,-12.3679 0.6733,-0.808 0.9427,-1.9606 1.3999,-2.9534 -1.0899,-0.2005 -2.2769,-0.783 -3.2665,-0.5418 -12.0204,2.944 -24.0155,6.0007 -36.017,9.045 -11.2718,2.8594 -19.6309,9.2266 -22.3776,20.8585 -2.634,11.134 -5.4903,22.4403 -6.0572,33.7841 -0.6044,12.2521 0.2882,24.8142 2.3928,36.9159 3.5485,20.4327 17.1066,31.2222 36.6842,34.2163 19.0639,2.9127 34.7329,-4.1154 49.1554,-15.2306 5.1426,-3.9618 9.5649,-8.8602 14.316,-13.3294 -0.1472,-0.4322 -0.2975,-0.8644 -0.4384,-1.2935"
           style="fill:#bc4749;fill-opacity:1;fill-rule:evenodd;stroke:none;stroke-width:0.313192"
           id="path43053" />
        <path
           d="m 9618.9586,5092.6747 c 4.0089,0.6609 8.1368,0.9365 12.0109,2.0671 11.1967,3.2603 22.5749,6.1668 33.3613,10.5076 14.9862,6.0258 29.9881,4.0903 44.6549,0.7642 16.4896,-3.7395 24.3444,-17.116 29.0674,-32.0552 3.5108,-11.0964 3.8992,-22.5279 0.1064,-33.9031 -2.1422,-6.4204 -5.6437,-11.4972 -11.942,-14.1281 -20.3355,-8.5063 -40.3391,-17.9396 -62.1467,-22.4089 -6.7681,-1.3905 -13.4046,-3.4294 -20.1695,-4.8482 -14.8673,-3.1068 -28.9672,-0.523 -42.4188,6.2294 -5.0486,2.5337 -10.1537,4.9704 -15.0864,7.7171 -1.4721,0.8143 -2.4336,2.5368 -3.1476,4.3158 14.2565,-5.8943 28.5537,-10.8459 43.8061,-9.709 18.4533,1.3781 35.9169,6.3985 46.5623,23.3015 9.1515,14.5258 9.6651,37.8211 -6.4768,51.4575 -6.9904,5.9036 -15.2806,8.5188 -24.1033,9.1201 -7.9394,0.5356 -15.9477,0.1128 -23.9278,0.1128 -0.053,0.4854 -0.1003,0.9709 -0.1504,1.4594"
           style="fill:#bc4749;fill-opacity:1;fill-rule:evenodd;stroke:none;stroke-width:0.313192"
           id="path43055" />
        <path
           d="m 9423.0006,5068.656 c -2.4586,3.229 -4.7167,5.7816 -6.5144,8.6285 -8.4656,13.4234 -11.4534,28.3282 -10.9085,43.9314 0.6765,19.3209 13.3326,33.5429 32.381,37.3357 10.6297,2.1171 20.9807,1.6912 30.7617,-3.2103 4.7574,-2.3802 8.9166,-1.3592 12.9129,1.1275 8.1962,5.0957 16.4739,10.113 24.2849,15.7599 15.3245,11.0713 38.6448,16.596 58.5982,12.9317 -1.7037,-0.5356 -2.6276,-1.0555 -3.5703,-1.0931 -21.9016,-0.927 -39.7128,-12.3303 -57.9625,-22.5843 -3.0129,-1.6943 -6.1762,-3.229 -8.8633,-5.3461 -1.804,-1.4188 -4.0997,-3.8147 -3.9838,-5.6312 0.1158,-1.8009 2.6746,-4.2782 4.6822,-4.9955 12.6811,-4.5412 23.0634,-11.6225 28.9139,-24.216 0.6013,-1.2935 1.093,-2.6402 1.7883,-4.3283 -1.7789,0 -3.1758,-0.1754 -4.5225,0.028 -11.4221,1.7194 -22.459,0.6264 -33.2767,-3.6487 -9.308,-3.6831 -18.7977,-6.9027 -28.2467,-10.2288 -14.9487,-5.2648 -24.5762,-16.4677 -32.8664,-29.2052 -0.9772,-1.5002 -2.0232,-2.9534 -3.608,-5.2554"
           style="fill:#bc4749;fill-opacity:1;fill-rule:evenodd;stroke:none;stroke-width:0.313192"
           id="path43057" />
        <path
           d="m 9570.6707,5080.7766 c -5.2053,16.9499 -17.1598,26.1766 -31.6951,32.954 -1.71,0.7987 -3.2885,2.9159 -3.9525,4.77 -5.3054,14.792 -14.7544,25.7819 -29.0736,32.3245 0.031,0.498 -0.066,1.021 0.088,1.1181 14.648,8.8571 29.271,17.9772 46.4621,20.9244 8.0114,1.3718 16.3047,1.3123 24.4759,1.4563 2.0859,0.038 5.1301,-1.0335 6.1605,-2.6151 14.1751,-21.8859 23.7431,-45.1467 19.3428,-71.9935 -0.4009,-2.4836 -2.468,-5.6343 -4.6415,-6.7305 -8.5815,-4.3221 -17.52,-7.9488 -27.1663,-12.2082"
           style="fill:#9b3b3c;fill-opacity:1;fill-rule:evenodd;stroke:none;stroke-width:0.313192"
           id="path43059" />
        <path
           d="m 9316.1521,5074.6819 c -19.4305,-23.953 -18.9983,-48.3788 1.5691,-79.0466 -11.7823,3.4107 -23.6116,6.6553 -35.325,10.2915 -6.4235,1.9982 -12.4869,5.2835 -18.9825,6.8996 -13.2731,3.3073 -19.9253,12.6342 -24.0626,24.5668 -6.0603,17.4855 -2.5024,32.3747 11.4065,45.0809 7.3318,6.7054 14.4788,13.4171 24.0406,16.6399 1.9606,0.6608 4.9797,0.4979 6.6397,-0.6045 11.6319,-7.7014 23.0352,-15.7504 34.7142,-23.8276"
           style="fill:#bc4749;fill-opacity:1;fill-rule:evenodd;stroke:none;stroke-width:0.313192"
           id="path43061" />
        <path
           d="m 9348.7241,5176.0903 c -5.9883,-17.1817 -6.9122,-32.8131 -5.9758,-48.5354 0.924,-15.4435 2.5776,-30.8306 9.7842,-45.8168 -15.5563,-0.4228 -30.0226,-0.1692 -42.2904,7.9613 -11.1621,7.4007 -21.1843,16.5303 -31.5447,25.0898 -1.3624,1.1213 -2.4617,3.3825 -2.5024,5.1395 -0.4259,19.4273 3.8084,37.2761 18.0336,51.6485 2.9754,3.0098 6.1229,4.676 10.5703,4.6008 14.1876,-0.2317 28.3783,-0.088 43.9252,-0.088"
           style="fill:#bc4749;fill-opacity:1;fill-rule:evenodd;stroke:none;stroke-width:0.313192"
           id="path43063" />
        <path
           d="m 9413.4263,5205.7997 c -14.5133,1.2653 -28.6006,1.0931 -41.8267,-5.6155 -7.3068,-3.7082 -13.3827,-8.6566 -18.0743,-15.4811 -1.1588,-1.6881 -4.0183,-3.182 -6.0477,-3.1288 -8.7381,0.2318 -17.4605,1.0398 -26.1798,1.7351 -0.9646,0.078 -2.2017,0.5199 -2.7811,1.2308 -3.3293,4.0621 -6.4925,8.2558 -10.3635,13.2512 8.8288,9.0951 16.9687,18.7727 26.4177,26.9251 15.5876,13.4328 31.836,26.1265 48.1909,38.6354 7.8924,6.0383 8.2682,5.5122 15.8975,-0.5512 7.5542,-6.0164 15.218,-11.9044 22.6344,-18.0837 1.1807,-0.9834 2.183,-3.442 1.8134,-4.8357 -2.9847,-11.2593 -6.3234,-22.4277 -9.6808,-34.0816"
           style="fill:#bc4749;fill-opacity:1;fill-rule:evenodd;stroke:none;stroke-width:0.313192"
           id="path43065" />
        <path
           d="m 9424.9017,5015.2662 c -5.9601,-1.8134 -11.2561,-3.6487 -16.6681,-5.0362 -14.7794,-3.7958 -29.5277,-7.7796 -44.445,-10.9398 -8.8289,-1.8728 -18.0461,-3.586 -26.9126,-2.944 -5.2554,0.3821 -10.9617,4.6635 -15.052,8.6473 -6.671,6.4893 -9.7998,15.171 -10.9774,24.501 -0.4604,3.6424 0.545,6.1824 4.0464,7.2379 7.3068,2.1923 14.6261,4.3753 22.03,6.22 20.2666,5.0392 40.4863,10.3698 60.9377,14.5383 5.6406,1.1495 12.0391,-1.3248 18.0649,-2.2988 0.5449,-0.088 1.2903,-1.3812 1.2747,-2.1015 -0.2976,-12.9067 2.2675,-25.2715 7.7014,-37.8242"
           style="fill:#9b3b3c;fill-opacity:1;fill-rule:evenodd;stroke:none;stroke-width:0.313192"
           id="path43067" />
        <path
           d="m 9672.9717,4996.0738 c 8.9824,3.2227 18.0149,5.5028 26.1453,9.5836 14.9549,7.501 30.0477,10.7175 46.556,6.4267 9.1014,-2.3677 18.447,-3.8021 27.6455,-5.7877 12.2865,-2.6465 24.548,-5.3901 36.8032,-8.1681 1.6818,-0.3821 3.2697,-1.1901 4.9077,-1.804 0.016,-0.476 0.031,-0.949 0.05,-1.4281 -11.3626,-3.0161 -22.7064,-6.0948 -34.0878,-9.0294 -13.0507,-3.3605 -26.1296,-6.624 -39.2242,-9.8248 -1.6881,-0.4165 -3.6612,-0.6671 -5.2773,-0.2067 -14.1469,4.0308 -28.2906,8.0866 -42.331,12.4619 -7.0343,2.1924 -13.8588,5.0612 -21.1875,7.7766"
           style="fill:#bc4749;fill-opacity:1;fill-rule:evenodd;stroke:none;stroke-width:0.313192"
           id="path43069" />
        <path
           d="m 9455.7699,4987.5362 c -5.5874,5.8566 -10.5546,9.9626 -14.1438,15.0394 -8.8821,12.5528 -14.0435,26.6558 -15.7379,42.0367 -0.8393,7.6105 0.4322,14.5791 5.1113,20.6613 5.5247,7.1846 10.7112,14.767 17.1128,21.0934 5.5341,5.4653 7.9238,4.3409 11.5161,-2.4115 4.8983,-9.2047 7.075,-19.0421 7.5918,-29.3837 0.9803,-19.6403 -0.2318,-39.0081 -6.8464,-57.7213 -0.927,-2.6277 -2.4679,-5.0424 -4.6039,-9.3143"
           style="fill:#9b3b3c;fill-opacity:1;fill-rule:evenodd;stroke:none;stroke-width:0.313192"
           id="path43071" />
        <path
           d="m 9668.5244,5041.8531 c -1.8572,-6.8088 -5.5341,-12.2521 -11.5536,-15.9415 -15.3057,-9.3739 -31.7922,-12.5371 -49.3341,-8.4531 -7.1877,1.6756 -14.2471,4.0903 -21.1467,6.7243 -1.6818,0.6389 -3.2478,3.3386 -3.6236,5.3242 -2.2581,11.9734 -4.2156,24.0062 -6.0791,36.0516 -0.1848,1.2371 0.5262,3.3135 1.4908,3.8961 3.0912,1.8823 6.4017,3.5297 9.8342,4.6321 1.1338,0.3664 3.3449,-0.8206 4.3002,-1.9449 14.8421,-17.5137 33.6713,-27.6392 56.4153,-30.1824 6.2481,-0.6984 12.6435,-0.1064 19.6966,-0.1064"
           style="fill:#9b3b3c;fill-opacity:1;fill-rule:evenodd;stroke:none;stroke-width:0.313192"
           id="path43073" />
        <path
           d="m 9598.8423,5078.0424 c 19.3302,6.267 37.7303,6.6491 56.146,0.498 5.3148,-1.7758 9.9407,-6.9028 12.3554,-13.2888 -11.7573,-3.3542 -23.4268,-6.7399 -35.1496,-9.9626 -1.2935,-0.3539 -2.9784,-0.119 -4.2437,0.4103 -11.3094,4.7417 -20.536,12.227 -29.1081,22.3431"
           style="fill:#9b3b3c;fill-opacity:1;fill-rule:evenodd;stroke:none;stroke-width:0.313192"
           id="path43075" />
        <path
           d="m 9315.723,5058.8688 c 4.8357,10.9899 10.8552,14.4789 21.4443,13.8744 6.1448,-0.3539 12.3429,0.2224 18.5253,0.2756 1.1619,0.01 2.6433,-0.1159 3.4576,-0.8049 7.1377,-6.0759 15.4717,-9.3644 24.786,-11.7478 -3.6706,-0.6859 -7.3443,-1.3562 -11.0118,-2.0514 -6.7963,-1.2967 -13.8807,-1.7915 -20.3356,-4.0778 -13.1885,-4.676 -24.62,0.8112 -36.8658,4.5319"
           style="fill:#9b3b3c;fill-opacity:1;fill-rule:evenodd;stroke:none;stroke-width:0.313192"
           id="path43077" />
        <path
           d="m 9608.5638,5255.5378 c 5.3775,-8.9542 10.3009,-17.1567 15.4466,-25.7162 -20.9369,0.5731 -40.9154,-0.6922 -61.0536,-4.8545 14.9549,10.0221 29.9129,20.0474 45.607,30.5707"
           style="fill:#bc4749;fill-opacity:1;fill-rule:evenodd;stroke:none;stroke-width:0.313192"
           id="path43079" />
        <path
           d="m 9550.3288,5226.0726 c 4.8577,12.9693 9.7153,25.9355 14.5666,38.9048 0.6765,-0.072 1.3499,-0.1504 2.0295,-0.2224 0.3163,-1.1431 0.7798,-2.2675 0.9208,-3.4326 0.8362,-6.815 1.6975,-13.6364 2.2894,-20.4765 0.097,-1.0836 -0.8738,-2.6433 -1.8165,-3.3668 -5.4683,-4.178 -11.0745,-8.168 -16.6274,-12.2239 -0.4572,0.2725 -0.9051,0.545 -1.3624,0.8174"
           style="fill:#a7333e;fill-opacity:1;fill-rule:evenodd;stroke:none;stroke-width:0.313192"
           id="path43081" />
        <path
           d="m 9669.2729,5058.4303 c 1.9199,-7.7202 1.4846,-8.5063 -5.5059,-8.7882 -5.1708,-0.2067 -10.3572,-0.041 -15.5374,-0.041 -0.078,0.6296 -0.1566,1.2622 -0.2318,1.8949 7.0781,2.3082 14.1594,4.6164 21.2751,6.934"
           style="fill:#ebcce4;fill-opacity:1;fill-rule:evenodd;stroke:none;stroke-width:0.313192"
           id="path43083" />
        <path
           d="m 9311.2475,5045.3232 c 0.6608,2.7624 1.1275,4.723 1.7069,7.1659 3.2728,-1.3499 5.9851,-2.468 9.7465,-4.0183 -4.3283,-1.1901 -7.4727,-2.0545 -11.4534,-3.1476"
           style="fill:#ebcce4;fill-opacity:1;fill-rule:evenodd;stroke:none;stroke-width:0.313192"
           id="path43085" />
        <path
           d="m 9530.0246,4741.1417 c 0,-6.6084 -0.066,-13.2167 0.01,-19.8251 0.3007,-26.0607 -0.3351,-52.1809 1.2622,-78.1634 1.6035,-26.1014 1.2621,-52.1214 0.8518,-78.204 -0.5386,-34.661 -0.5731,-69.3345 -0.8111,-104.008 -0.3539,-51.0722 -0.7611,-102.1507 -0.9647,-153.2198 -0.038,-8.3779 1.0398,-16.7527 1.1902,-25.1337 0.059,-3.5735 -0.9396,-7.169 -1.4564,-10.7519 -0.761,-0.094 -1.5189,-0.191 -2.28,-0.285 -1.378,2.966 -3.5046,5.816 -3.9869,8.9197 -1.162,7.5448 -2.1078,15.2086 -2.1767,22.8317 -0.2694,28.6383 -0.4886,57.2891 -0.119,85.9274 0.902,70.4087 2.4429,140.8143 3.0849,211.2262 0.2255,24.9645 -1.4814,49.9447 -2.1767,74.9218 -0.5355,18.9857 -0.2505,37.9463 3.1131,56.7159 0.5669,3.1445 1.6568,6.1856 2.5056,9.2737 0.6514,-0.075 1.2997,-0.1504 1.9543,-0.2255"
           style="fill:#231f20;fill-opacity:1;fill-rule:evenodd;stroke:none;stroke-width:0.313192"
           id="path43087" />
        <path
           d="m 9528.2237,4776.5574 c -0.3382,3.8867 -1.0993,7.7891 -0.9458,11.6539 0.7955,20.3857 1.9763,40.7588 2.7248,61.1476 0.5637,15.2807 0.6608,30.5832 1.0022,45.8764 0.038,1.6255 0.038,3.3543 0.5982,4.8326 0.3821,1.0116 1.8666,2.4429 2.5807,2.3019 1.1494,-0.2349 2.5369,-1.4219 2.9785,-2.5431 0.5668,-1.4407 0.4478,-3.2196 0.3664,-4.8388 -1.6255,-32.5563 -3.3136,-65.1095 -4.9234,-97.6658 -0.2412,-4.9109 -0.072,-9.8405 -0.2944,-14.7545 -0.088,-1.9982 -0.7297,-3.9713 -1.1181,-5.9601 -0.9897,-0.016 -1.9794,-0.034 -2.9691,-0.05"
           style="fill:#231f20;fill-opacity:1;fill-rule:evenodd;stroke:none;stroke-width:0.313192"
           id="path43089" />
        <path
           d="m 9297.7865,4756.6854 c 8.9134,-7.5104 16.6462,-14.4037 24.7829,-20.7772 8.096,-6.339 8.6691,-7.194 4.9829,-16.9092 -2.9848,-7.8862 -6.1699,-15.6941 -9.7059,-24.6576 9.6965,-0.4823 18.7383,-1.0962 27.7864,-1.3248 6.148,-0.1566 10.2727,-2.5995 12.7689,-8.3811 3.6863,-8.5313 7.7358,-16.9092 11.7228,-25.3121 1.6599,-3.5015 3.561,-6.8903 5.7157,-11.0369 5.437,6.3609 10.2696,11.8136 14.8422,17.4698 1.8196,2.2487 3.1726,4.8952 4.5663,7.4509 4.4504,8.1524 6.5363,8.2087 14.341,2.8093 9.9063,-6.8526 20.345,-12.9348 31.598,-20.0036 -2.493,11.4879 -4.7261,21.4098 -6.7963,31.3631 -2.042,9.8154 -0.57,12.1581 8.6003,15.6001 7.8924,2.969 15.6721,6.2513 24.6795,9.8687 -10.3228,8.3215 -19.4524,15.7473 -28.6665,23.0666 -2.7811,2.2111 -3.5923,4.5945 -2.4805,8.1085 3.7928,11.9921 7.3444,24.0625 10.9461,36.1173 0.5356,1.7946 0.855,3.6518 1.5816,6.837 -13.0601,-3.3981 -24.8455,-6.3735 -36.5808,-9.5586 -5.5936,-1.5159 -8.5408,-0.4823 -11.0369,4.8325 -1.2309,2.6308 -1.8729,5.5467 -3.1351,8.1587 -6.0789,12.5527 -12.277,25.046 -18.8227,38.3504 -2.2894,-5.2805 -4.0371,-9.6558 -6.0603,-13.9026 -2.8688,-6.0353 -5.6625,-12.1425 -9.1045,-17.8457 -0.8957,-1.4752 -4.463,-2.6496 -6.1855,-2.0859 -9.4991,3.1257 -18.7947,6.8902 -28.2061,10.304 -3.3198,1.2058 -6.7775,2.0452 -10.7143,3.2165 3.5297,-11.4346 6.9215,-21.7982 9.9094,-32.2776 2.1109,-7.3976 0.3288,-9.8436 -6.9059,-11.8919 -7.6763,-2.1861 -15.2556,-4.7229 -24.4227,-7.5886 z m 22.412,16.8372 c -3.1382,9.5805 -5.8629,17.8801 -8.5814,26.186 -0.8488,2.5995 -1.7978,5.177 -2.4805,7.8173 -2.8282,10.9836 -0.119,13.7648 10.7268,10.4449 11.8449,-3.6236 23.6053,-7.5824 35.2905,-11.7165 3.2979,-1.1682 5.0549,-0.617 6.4831,2.4523 3.2102,6.9309 6.6177,13.7742 9.8154,20.7145 1.3655,2.9753 2.1203,6.2639 3.7051,9.1014 0.8581,1.5315 3.016,3.4889 4.3377,3.3136 1.7069,-0.2255 3.8053,-2.0671 4.6258,-3.7584 8.1806,-16.8747 16.1231,-33.8654 24.1596,-50.8122 0.2223,-0.4667 0.6796,-0.8237 0.88,-1.0618 12.6092,2.6904 25.1087,5.0894 37.4703,8.0741 9.7027,2.3427 12.6029,-0.05 10.0347,-9.6181 -3.7395,-13.9057 -7.7546,-27.7363 -11.5818,-41.3507 9.6432,-8.3967 19.0702,-16.6243 28.5224,-24.8268 6.3108,-5.4715 6.0133,-8.9479 -1.4344,-12.4588 -8.403,-3.9618 -16.8811,-7.7703 -25.4563,-11.325 -3.0912,-1.281 -4.1748,-2.6684 -3.3793,-6.0853 2.5619,-11.0087 4.8419,-22.0863 7.1752,-33.1483 0.3382,-1.5972 0.5669,-3.2478 0.6013,-4.8795 0.1284,-5.7533 -3.7301,-8.5032 -8.9573,-6.054 -3.4451,1.6098 -6.505,4.0182 -9.7872,5.9788 -9.3801,5.5905 -18.7884,11.1309 -28.0902,16.6337 -6.9153,-8.3372 -13.962,-16.8216 -20.9869,-25.3216 -1.043,-1.2622 -1.8792,-2.7091 -3.0004,-3.893 -4.7919,-5.0956 -8.7193,-4.4348 -11.7071,1.8666 -6.1041,12.8503 -12.3367,25.6442 -18.2654,38.5759 -1.5158,3.3073 -3.5704,4.6165 -7.0844,4.6979 -10.5295,0.2411 -21.0496,0.7329 -31.576,1.0523 -4.7699,0.1441 -7.2724,2.6527 -6.2232,7.3538 0.7799,3.5014 2.5526,6.7868 3.9463,10.138 2.803,6.7211 5.5936,13.4453 8.5031,20.1163 1.209,2.7592 0.6358,4.3941 -1.7946,6.433 -9.3487,7.8517 -18.5816,15.8694 -27.4231,24.2818 -2.1829,2.0764 -4.3032,6.3672 -3.561,8.738 0.6953,2.2425 5.0236,3.8366 8.0491,4.7793 8.6441,2.6966 17.4354,4.914 27.0441,7.5605"
           style="fill:#231f20;fill-opacity:1;fill-rule:evenodd;stroke:none;stroke-width:0.313192"
           id="path43091" />
        <path
           d="m 9446.9222,4545.2588 c 0.081,7.4915 -5.2554,12.6843 -13.2856,12.9254 -3.9306,0.1159 -6.3766,-3.0849 -6.4424,-8.4311 -0.091,-7.3412 5.3306,-13.555 11.9671,-13.7115 4.6916,-0.1128 7.692,3.4482 7.7609,9.2172 z m 8.1837,0.5512 c -0.088,-8.7882 -4.9735,-15.6001 -12.3366,-17.1786 -6.8652,-1.4751 -16.8748,4.3221 -20.5298,10.6987 -3.3918,5.9224 -5.6092,11.8418 -2.471,18.0931 1.638,3.2697 4.6728,6.8745 7.9206,8.1085 12.6874,4.8263 27.5452,-6.1949 27.4168,-19.7217"
           style="fill:#231f20;fill-opacity:1;fill-rule:evenodd;stroke:none;stroke-width:0.313192"
           id="path43093" />
        <path
           d="m 9311.3822,4618.9873 c 5.2334,-0.2912 9.712,3.8366 9.853,8.6285 0.094,3.1444 -5.6625,8.4092 -9.3864,8.5908 -4.0746,0.2005 -8.2275,-5.0329 -8.4499,-11.8136 -0.1911,-5.7627 5.2679,-4.1372 7.9833,-5.4057 z m 1.5095,-8.6002 c -10.8959,-0.025 -18.2371,5.7659 -18.2841,14.435 -0.069,11.347 7.4759,20.7897 16.6086,20.7928 8.1962,0 18.6881,-9.4145 18.7758,-16.8497 0.1159,-9.8248 -7.8235,-18.3531 -17.1003,-18.3781"
           style="fill:#231f20;fill-opacity:1;fill-rule:evenodd;stroke:none;stroke-width:0.313192"
           id="path43095" />
        <path
           d="m 9427.0032,4848.5853 c -0.063,-4.4535 4.8701,-9.142 9.6087,-9.1452 4.5977,0 8.7318,4.4662 8.7099,9.4177 -0.025,5.8129 -4.0245,10.3761 -9.0575,10.326 -5.6312,-0.053 -9.1703,-4.106 -9.2611,-10.5985 z m 26.3363,0.2067 c -0.1159,-9.7308 -7.7139,-17.5857 -16.7244,-17.285 -9.4992,0.3163 -18.4846,10.019 -18.2748,19.7342 0.2004,9.3613 7.8392,16.6556 17.4573,16.665 10.066,0.01 17.6703,-8.2777 17.5419,-19.1142"
           style="fill:#231f20;fill-opacity:1;fill-rule:evenodd;stroke:none;stroke-width:0.313192"
           id="path43097" />
        <path
           d="m 9370.0493,4567.4735 c -0.1033,-6.0289 2.6214,-9.1984 8.024,-9.3456 4.8482,-0.1316 9.6087,4.8012 9.6275,9.9689 0.016,3.5453 -5.2741,8.9604 -8.8759,9.0951 -4.4629,0.1722 -8.6879,-4.51 -8.7756,-9.7184 z m -7.1408,-2.0858 c 0.2694,13.8086 5.9381,20.9431 16.3487,20.5704 7.789,-0.2756 16.8998,-9.615 16.8904,-17.3164 -0.012,-10.0597 -8.3998,-18.9481 -17.5983,-18.6443 -9.236,0.3038 -15.8068,6.7712 -15.6408,15.3903"
           style="fill:#231f20;fill-opacity:1;fill-rule:evenodd;stroke:none;stroke-width:0.313192"
           id="path43099" />
        <path
           d="m 9434.6326,4601.0133 c -0.056,7.2222 -4.0747,11.4315 -9.9846,11.2373 -4.344,-0.1378 -8.1649,-3.7708 -8.262,-7.8455 -0.1347,-5.5717 6.339,-11.372 12.7187,-11.0431 5.4057,0.2787 4.9829,4.7668 5.5279,7.6513 z m 8.0897,1.4782 c -0.1065,-9.9689 -5.2178,-17 -12.3867,-17.0408 -12.3962,-0.069 -21.7794,9.3332 -21.6823,21.7262 0.063,7.4915 7.6168,13.9495 16.0886,13.7522 10.7707,-0.2505 18.0932,-7.7577 17.9804,-18.4376"
           style="fill:#231f20;fill-opacity:1;fill-rule:evenodd;stroke:none;stroke-width:0.313192"
           id="path43101" />
        <path
           d="m 9316.6093,4856.6125 c -0.075,-3.1695 3.0443,-6.3391 6.195,-6.2889 3.4983,0.056 9.6995,6.007 8.4937,9.236 -1.0711,2.8751 -4.1497,6.0383 -7.0217,6.9435 -3.7865,1.1964 -7.5292,-4.2344 -7.667,-9.8906 z m -7.6857,3.6267 c 0.056,7.5166 7.7171,14.8766 15.3308,14.72 7.2911,-0.1472 15.1992,-8.1837 15.077,-15.3182 -0.144,-7.8955 -9.117,-16.9938 -16.549,-16.7745 -7.6451,0.2286 -13.9246,8.1085 -13.8588,17.3727"
           style="fill:#231f20;fill-opacity:1;fill-rule:evenodd;stroke:none;stroke-width:0.313192"
           id="path43103" />
        <path
           d="m 9308.6887,4576.2304 c -1.0022,4.4692 -6.0603,10.6297 -8.1117,9.2986 -3.0661,-1.9887 -5.9068,-5.1833 -7.3756,-8.5125 -1.1808,-2.6935 4.867,-7.3381 9.1232,-6.4048 2.4148,0.5293 4.2657,3.6581 6.3641,5.6187 z m -21.7888,2.1422 c -0.01,8.9166 6.5144,16.2296 14.3254,16.0667 6.5583,-0.1378 14.5353,-8.9103 14.5854,-16.0416 0.069,-9.1108 -5.2366,-16.1983 -12.0673,-16.1294 -10.0096,0.094 -16.8403,6.624 -16.8435,16.1043"
           style="fill:#231f20;fill-opacity:1;fill-rule:evenodd;stroke:none;stroke-width:0.313192"
           id="path43105" />
        <path
           d="m 9199.8983,4985.6852 c -2.731,-0.3445 -5.5967,-1.3843 -8.1774,-0.9083 -8.2433,1.5096 -16.5115,3.1351 -24.5324,5.5153 -33.5115,9.9251 -68.0504,14.5509 -102.3762,20.345 -5.3869,0.9114 -10.8396,1.7664 -16.0355,3.3699 -2.305,0.711 -4.0527,3.2228 -6.0571,4.9172 2.4868,0.9051 5.1458,2.9033 7.4321,2.5462 16.5584,-2.6089 33.12,-5.3211 49.5344,-8.7255 21.0277,-4.3628 41.9458,-9.3018 62.8608,-14.2033 10.6329,-2.493 21.1718,-5.4245 31.7326,-8.2275 1.8729,-0.4949 3.655,-1.3248 5.4778,-1.9982 0.047,-0.8769 0.097,-1.7539 0.1409,-2.6308"
           style="fill:#f8c33b;fill-opacity:1;fill-rule:evenodd;stroke:none;stroke-width:0.313192"
           id="path43107" />
        <path
           d="m 9296.5682,4756.3534 c 9.164,2.8657 16.7432,5.4026 24.4227,7.5886 7.2316,2.0483 9.0105,4.4944 6.9059,11.892 -2.9879,10.4794 -6.3829,20.8429 -9.9094,32.2775 3.9337,-1.1713 7.3913,-2.0107 10.7112,-3.2165 9.4082,-3.4137 18.7038,-7.1814 28.2029,-10.304 1.7257,-0.5637 5.2961,0.6107 6.1887,2.0859 3.4451,5.7032 6.2356,11.8105 9.1045,17.8457 2.0263,4.2469 3.7708,8.6221 6.0634,13.9026 6.5457,-13.3044 12.7406,-25.7977 18.8165,-38.3504 1.2684,-2.612 1.9042,-5.5278 3.1381,-8.1618 2.4962,-5.3117 5.4465,-6.3453 11.0401,-4.8294 11.729,3.1852 23.5207,6.1605 36.5808,9.5555 -0.7329,-3.1821 -1.0461,-5.0393 -1.5816,-6.8307 -3.6049,-12.0579 -7.1596,-24.1284 -10.9461,-36.1205 -1.1181,-3.514 -0.3006,-5.8974 2.4805,-8.1085 9.2078,-7.3193 18.3405,-14.7451 28.6633,-23.0666 -9.0105,-3.6174 -16.7871,-6.8997 -24.6795,-9.8687 -9.1734,-3.442 -10.6391,-5.7847 -8.6003,-15.6001 2.0702,-9.9533 4.3033,-19.8752 6.7994,-31.3631 -11.2561,7.0719 -21.6948,13.151 -31.601,20.0036 -7.8017,5.3994 -9.8875,5.3431 -14.3379,-2.8093 -1.3937,-2.5525 -2.7498,-5.2021 -4.5663,-7.4509 -4.5789,-5.6562 -9.4083,-11.1089 -14.8422,-17.4698 -2.1579,4.1466 -4.0558,7.5354 -5.7189,11.0369 -3.9869,8.4029 -8.0396,16.7808 -11.7228,25.3122 -2.4961,5.7815 -6.6208,8.2244 -12.7719,8.381 -9.045,0.2286 -18.0837,0.8425 -27.7864,1.3248 3.539,8.9604 6.7242,16.7714 9.7121,24.6545 3.6831,9.7183 3.1131,10.5765 -4.9829,16.9123 -8.1399,6.3735 -15.8726,13.2669 -24.7829,20.7772"
           style="fill:#b2cbd5;fill-opacity:1;fill-rule:evenodd;stroke:none;stroke-width:0.313192"
           id="path43109" />
        <path
           d="m 9446.9222,4545.2588 c -0.069,-5.769 -3.0693,-9.33 -7.7609,-9.2172 -6.6365,0.1565 -12.0579,6.3703 -11.9671,13.7115 0.066,5.3462 2.5118,8.547 6.4424,8.4311 8.0302,-0.2411 13.367,-5.4339 13.2856,-12.9254"
           style="fill:#ffffff;fill-opacity:1;fill-rule:evenodd;stroke:none;stroke-width:0.313192"
           id="path43111" />
        <path
           d="m 9311.3822,4618.9873 c -2.7154,1.2685 -8.1744,-0.357 -7.9833,5.4057 0.2224,6.7807 4.3753,12.0141 8.4499,11.8136 3.7239,-0.1816 9.4803,-5.4464 9.3864,-8.5908 -0.141,-4.7919 -4.6196,-8.9197 -9.853,-8.6285"
           style="fill:#ffffff;fill-opacity:1;fill-rule:evenodd;stroke:none;stroke-width:0.313192"
           id="path43113" />
        <path
           d="m 9427.0032,4848.5853 c 0.091,6.4925 3.6299,10.5452 9.2611,10.5985 5.033,0.05 9.0324,-4.5131 9.0575,-10.326 0.022,-4.9515 -4.1122,-9.4208 -8.7099,-9.4177 -4.7386,0 -9.6713,4.6917 -9.6087,9.1452"
           style="fill:#ffffff;fill-opacity:1;fill-rule:evenodd;stroke:none;stroke-width:0.313192"
           id="path43115" />
        <path
           d="m 9370.0493,4567.4735 c 0.088,5.2084 4.3127,9.8906 8.7756,9.7184 3.6018,-0.1347 8.8916,-5.5498 8.8759,-9.0951 -0.019,-5.1677 -4.7793,-10.1005 -9.6275,-9.9689 -5.4026,0.1472 -8.1273,3.3167 -8.024,9.3456"
           style="fill:#ffffff;fill-opacity:1;fill-rule:evenodd;stroke:none;stroke-width:0.313192"
           id="path43117" />
        <path
           d="m 9434.6326,4601.0133 c -0.545,-2.8845 -0.1222,-7.3726 -5.5279,-7.6513 -6.3797,-0.3289 -12.8534,5.4714 -12.7187,11.0431 0.097,4.0747 3.918,7.7077 8.262,7.8455 5.9099,0.1942 9.9282,-4.0151 9.9846,-11.2373"
           style="fill:#ffffff;fill-opacity:1;fill-rule:evenodd;stroke:none;stroke-width:0.313192"
           id="path43119" />
        <path
           d="m 9316.6093,4856.6125 c 0.1378,5.6562 3.8805,11.087 7.667,9.8906 2.872,-0.9052 5.9506,-4.0684 7.0217,-6.9435 1.2058,-3.229 -4.9954,-9.1797 -8.4937,-9.236 -3.1507,-0.05 -6.2701,3.1194 -6.195,6.2889"
           style="fill:#ffffff;fill-opacity:1;fill-rule:evenodd;stroke:none;stroke-width:0.313192"
           id="path43121" />
        <path
           d="m 9308.6887,4576.2304 c -2.0984,-1.9606 -3.9493,-5.0894 -6.3641,-5.6187 -4.2562,-0.9333 -10.304,3.7113 -9.1232,6.4048 1.4688,3.3292 4.3095,6.5238 7.3756,8.5125 2.0514,1.3311 7.1095,-4.8294 8.1117,-9.2986"
           style="fill:#ffffff;fill-opacity:1;fill-rule:evenodd;stroke:none;stroke-width:0.313192"
           id="path43123" />
      </g>
    </g>
  </g>
</svg>
