<?xml version="1.0" encoding="UTF-8" standalone="no"?>
<!-- Created with Inkscape (http://www.inkscape.org/) -->

<svg
   version="1.1"
   id="svg38956"
   width="383.25122"
   height="400.31332"
   viewBox="0 0 383.25122 400.31333"
   sodipodi:docname="5857401_3049941.eps"
   xmlns:inkscape="http://www.inkscape.org/namespaces/inkscape"
   xmlns:sodipodi="http://sodipodi.sourceforge.net/DTD/sodipodi-0.dtd"
   xmlns="http://www.w3.org/2000/svg"
   xmlns:svg="http://www.w3.org/2000/svg">
  <defs
     id="defs38960">
    <clipPath
       clipPathUnits="userSpaceOnUse"
       id="clipPath39030">
      <path
         d="m 5889.48,2679.68 c 0,0 245.66,221.66 621,111.35 352.49,-103.59 498,-612.32 205.41,-929.28 -344.36,-373.04 -925.3,-110.67 -999.65,117.19 -74.34,227.86 173.24,700.74 173.24,700.74 z"
         id="path39028" />
    </clipPath>
    <linearGradient
       x1="0"
       y1="0"
       x2="1"
       y2="0"
       gradientUnits="userSpaceOnUse"
       gradientTransform="matrix(0,1048.14,1048.14,0,6287.38,1566.64)"
       spreadMethod="pad"
       id="linearGradient39036">
      <stop
         style="stop-opacity:1;stop-color:#c56d1b"
         offset="0"
         id="stop39032" />
      <stop
         style="stop-opacity:1;stop-color:#f68c1a"
         offset="1"
         id="stop39034" />
    </linearGradient>
    <clipPath
       clipPathUnits="userSpaceOnUse"
       id="clipPath39048">
      <path
         d="m 4984.81,1916.52 c 0,0 36.93,-71.8 82.19,-124.86 45.26,-53.06 57.33,-60.03 57.33,-60.03 l -40.16,-64.82 266.87,-138.9 53.07,115.49 112.52,-12.49 40.42,-118.61 326.18,43.7 -17.16,110.81 c 0,0 176.35,99.42 191.96,160.52 15.61,61.09 -1073.22,89.19 -1073.22,89.19 z"
         id="path39046" />
    </clipPath>
    <linearGradient
       x1="0"
       y1="0"
       x2="1"
       y2="0"
       gradientUnits="userSpaceOnUse"
       gradientTransform="matrix(0,446.939,446.939,0,5521.5,1367.44)"
       spreadMethod="pad"
       id="linearGradient39054">
      <stop
         style="stop-opacity:1;stop-color:#a62423"
         offset="0"
         id="stop39050" />
      <stop
         style="stop-opacity:1;stop-color:#e5322e"
         offset="1"
         id="stop39052" />
    </linearGradient>
    <clipPath
       clipPathUnits="userSpaceOnUse"
       id="clipPath39064">
      <path
         d="m 5317.75,2813.38 c 0,0 -132.14,68.63 -188.32,126.65 -56.18,58.03 -171.67,-188.56 -171.67,-188.56 l 198.2,-209.15 c 0,0 -51.5,-95.18 -73.35,-173.21 -21.85,-78.03 -21.85,-109.25 -21.85,-109.25 l -28.09,-138.9 c 0,0 -7.8,-22.03 -26.53,-41.45 -18.73,-19.41 -57.75,-55.31 -57.75,-55.31 0,0 169.59,-168.03 598.26,-193 428.66,-24.97 541.03,79.07 541.03,79.07 0,0 24.97,63.99 26.53,85.84 1.56,21.85 1.56,42.14 1.56,42.14 l 7.81,93.64 c 0,0 18.73,45.26 9.36,129.53 -9.36,84.28 -12.48,304.33 -88.96,363.64 -76.47,59.31 -172.56,114.78 -172.56,114.78 z"
         id="path39062" />
    </clipPath>
    <linearGradient
       x1="0"
       y1="0"
       x2="1"
       y2="0"
       gradientUnits="userSpaceOnUse"
       gradientTransform="matrix(0,790.76,790.76,0,5541.98,1640.77)"
       spreadMethod="pad"
       id="linearGradient39070">
      <stop
         style="stop-opacity:1;stop-color:#a62423"
         offset="0"
         id="stop39066" />
      <stop
         style="stop-opacity:1;stop-color:#e5322e"
         offset="1"
         id="stop39068" />
    </linearGradient>
    <clipPath
       clipPathUnits="userSpaceOnUse"
       id="clipPath39084">
      <path
         d="m 5564.65,3314.88 c 0,0 185.93,147.74 425.23,85.31 185.55,-48.4 308.55,-260.7 354.44,-353.62 12.47,-25.25 5.94,-55.71 -15.63,-73.81 v 0 c -15.72,-13.19 -37.06,-17.79 -56.69,-11.79 -46.06,14.08 -135.06,32.51 -194.72,-10.59 -83.58,-60.38 -512.63,364.5 -512.63,364.5 z"
         id="path39082" />
    </clipPath>
    <linearGradient
       x1="0"
       y1="0"
       x2="1"
       y2="0"
       gradientUnits="userSpaceOnUse"
       gradientTransform="matrix(483.333,266.667,266.667,-483.333,5691.94,3004.89)"
       spreadMethod="pad"
       id="linearGradient39090">
      <stop
         style="stop-opacity:1;stop-color:#a62423"
         offset="0"
         id="stop39086" />
      <stop
         style="stop-opacity:1;stop-color:#e5322e"
         offset="1"
         id="stop39088" />
    </linearGradient>
  </defs>
  <sodipodi:namedview
     id="namedview38958"
     pagecolor="#ffffff"
     bordercolor="#000000"
     borderopacity="0.25"
     inkscape:showpageshadow="2"
     inkscape:pageopacity="0.0"
     inkscape:pagecheckerboard="0"
     inkscape:deskcolor="#d1d1d1"
     showgrid="false" />
  <g
     id="g38964"
     inkscape:groupmode="layer"
     inkscape:label="Page 1"
     transform="matrix(1.3333333,0,0,-1.3333333,-546.22168,544.41598)">
    <path
       d="m 643.226,123.739 c 0,-8.65 -43.279,-15.662 -96.667,-15.662 -53.387,0 -96.666,7.012 -96.666,15.662 0,8.65 43.279,15.662 96.666,15.662 53.388,0 96.667,-7.012 96.667,-15.662"
       style="fill:#d5c6e7;fill-opacity:1;fill-rule:nonzero;stroke:none;stroke-width:0.1"
       id="path39020"
       inkscape:export-filename="santa.svg"
       inkscape:export-xdpi="96"
       inkscape:export-ydpi="96" />
    <path
       d="m 646.089,295.772 c 0,-6.091 -4.937,-11.028 -11.028,-11.028 -6.091,0 -11.029,4.937 -11.029,11.028 0,6.091 4.938,11.029 11.029,11.029 6.091,0 11.028,-4.938 11.028,-11.029"
       style="fill:#ffffff;fill-opacity:1;fill-rule:nonzero;stroke:none;stroke-width:0.1"
       id="path39022" />
    <g
       id="g39024"
       transform="scale(0.1)">
      <g
         id="g39026"
         clip-path="url(#clipPath39030)">
        <path
           d="m 5889.48,2679.68 c 0,0 245.66,221.66 621,111.35 352.49,-103.59 498,-612.32 205.41,-929.28 -344.36,-373.04 -925.3,-110.67 -999.65,117.19 -74.34,227.86 173.24,700.74 173.24,700.74"
           style="fill:url(#linearGradient39036);fill-opacity:1;fill-rule:nonzero;stroke:none"
           id="path39038" />
      </g>
    </g>
    <path
       d="m 508.105,298.922 c 0,0 -1.462,18.603 -7.52,21.527 -6.058,2.923 -6.682,-4.048 -6.682,-6.441 0,-2.393 0,-3.992 0,-3.992 0,0 -10.925,12.872 -18.624,11.137 -7.7,-1.735 -11.445,-17.341 -5.827,-27.226 5.619,-9.884 21.012,-14.824 21.012,-14.824 l 17.641,19.819"
       style="fill:#321c13;fill-opacity:1;fill-rule:nonzero;stroke:none;stroke-width:0.1"
       id="path39040" />
    <g
       id="g39042"
       transform="scale(0.1)">
      <g
         id="g39044"
         clip-path="url(#clipPath39048)">
        <path
           d="m 4984.81,1916.52 c 0,0 36.93,-71.8 82.19,-124.86 45.26,-53.06 57.33,-60.03 57.33,-60.03 l -40.16,-64.82 266.87,-138.9 53.07,115.49 112.52,-12.49 40.42,-118.61 326.18,43.7 -17.16,110.81 c 0,0 176.35,99.42 191.96,160.52 15.61,61.09 -1073.22,89.19 -1073.22,89.19"
           style="fill:url(#linearGradient39054);fill-opacity:1;fill-rule:nonzero;stroke:none"
           id="path39056" />
      </g>
    </g>
    <g
       id="g39058"
       transform="scale(0.1)">
      <g
         id="g39060"
         clip-path="url(#clipPath39064)">
        <path
           d="m 5317.75,2813.38 c 0,0 -132.14,68.63 -188.32,126.65 -56.18,58.03 -171.67,-188.56 -171.67,-188.56 l 198.2,-209.15 c 0,0 -51.5,-95.18 -73.35,-173.21 -21.85,-78.03 -21.85,-109.25 -21.85,-109.25 l -28.09,-138.9 c 0,0 -7.8,-22.03 -26.53,-41.45 -18.73,-19.41 -57.75,-55.31 -57.75,-55.31 0,0 169.59,-168.03 598.26,-193 428.66,-24.97 541.03,79.07 541.03,79.07 0,0 24.97,63.99 26.53,85.84 1.56,21.85 1.56,42.14 1.56,42.14 l 7.81,93.64 c 0,0 18.73,45.26 9.36,129.53 -9.36,84.28 -12.48,304.33 -88.96,363.64 -76.47,59.31 -172.56,114.78 -172.56,114.78 l -553.67,73.54"
           style="fill:url(#linearGradient39070);fill-opacity:1;fill-rule:nonzero;stroke:none"
           id="path39072" />
      </g>
    </g>
    <path
       d="m 579.584,236.755 c 0,0 -3.434,-27.156 15.294,-26.063 18.728,1.092 19.113,22.473 17.984,31.213 -1.129,8.74 -6.279,21.381 -8.62,21.537 -2.341,0.156 -24.658,-26.687 -24.658,-26.687"
       style="fill:#f04044;fill-opacity:1;fill-rule:nonzero;stroke:none;stroke-width:0.1"
       id="path39074" />
    <path
       d="m 535.313,264.483 c 0,0 -7.06,-11.653 -12.478,-27.468 -5.418,-15.815 -11.037,-36.208 -11.037,-36.208 0,0 -12.485,5.34 -16.23,4.543 -3.746,-0.797 -8.948,-7.664 -0.729,-15.363 8.22,-7.699 32.774,-18.936 66.485,-18.728 33.71,0.208 48.068,8.74 50.566,12.901 2.496,4.162 0.016,9.866 -5.506,8.783 -5.523,-1.083 -20.082,-6.494 -43.808,-5.661 -23.726,0.832 -35.283,7.504 -35.283,7.504 0,0 8.129,57.628 24.201,69.697 16.072,12.069 -16.181,0 -16.181,0"
       style="fill:#ffffff;fill-opacity:1;fill-rule:nonzero;stroke:none;stroke-width:0.1"
       id="path39076" />
    <g
       id="g39078"
       transform="scale(0.1)">
      <g
         id="g39080"
         clip-path="url(#clipPath39084)">
        <path
           d="m 5564.65,3314.88 c 0,0 185.93,147.74 425.23,85.31 185.55,-48.4 308.55,-260.7 354.44,-353.62 12.47,-25.25 5.94,-55.71 -15.63,-73.81 v 0 c -15.72,-13.19 -37.06,-17.79 -56.69,-11.79 -46.06,14.08 -135.06,32.51 -194.72,-10.59 -83.58,-60.38 -512.63,364.5 -512.63,364.5"
           style="fill:url(#linearGradient39090);fill-opacity:1;fill-rule:nonzero;stroke:none"
           id="path39092" />
      </g>
    </g>
    <path
       d="m 546.81,309.17 c 0,0 -4.682,5.234 -2.966,11.279 1.717,6.044 12.642,18.686 32.462,15.252 19.821,-3.433 34.179,-23.774 35.427,-36.779 1.249,-13.006 -6.554,-15.75 -12.953,-15.081 -6.399,0.67 -51.97,25.329 -51.97,25.329"
       style="fill:#ffffff;fill-opacity:1;fill-rule:nonzero;stroke:none;stroke-width:0.1"
       id="path39094" />
    <path
       d="m 588.948,267.968 11.444,9.571 v 0 c 0.624,6.853 1.925,13.163 1.925,13.163 l -4.369,6.243 c 0,0 -48.329,12.069 -55.768,4.578 -7.44,-7.492 -18.625,-4.37 -18.625,-11.861 0,-7.492 5.931,-7.96 5.931,-7.96 0,0 -12.017,-9.052 -3.746,-16.075 8.272,-7.023 19.821,-0.936 19.821,-0.936 0,0 1.093,-8.584 7.179,-8.74 6.087,-0.156 11.549,4.682 11.549,4.682 0,0 0.624,-6.555 4.838,-6.399 4.214,0.156 6.347,2.758 6.347,2.758 0,0 3.745,-1.873 9.572,-1.249 3.275,0.351 7.8,1.557 11.042,4.135 -3.803,3.569 -7.14,8.09 -7.14,8.09"
       style="fill:#ffffff;fill-opacity:1;fill-rule:nonzero;stroke:none;stroke-width:0.1"
       id="path39096" />
    <path
       d="m 542.18,301.523 7.699,17.479 c 0,0 12.069,4.37 24.762,-2.081 12.694,-6.45 23.307,-19.976 23.307,-19.976 0,0 -6.659,-10.405 -12.278,-11.445 -5.618,-1.041 -43.49,16.023 -43.49,16.023"
       style="fill:#fab897;fill-opacity:1;fill-rule:nonzero;stroke:none;stroke-width:0.1"
       id="path39098" />
    <path
       d="m 553,296.841 c 0,0 -4.162,-8.74 1.353,-12.278 5.514,-3.537 9.78,7.075 9.78,7.075 l -5.826,7.284 -5.307,-2.081"
       style="fill:#e5322d;fill-opacity:1;fill-rule:nonzero;stroke:none;stroke-width:0.1"
       id="path39100" />
    <path
       d="m 560.595,300.586 c 0,0 -2.341,6.555 -8.635,5.411 -6.295,-1.145 -8.532,-1.613 -11.757,-1.145 -3.226,0.468 -3.885,0.849 -3.885,0.849 0,0 0.139,-7.872 8.255,-9.901 8.115,-2.029 12.537,0 12.537,0 0,0 3.902,-8.479 10.847,-10.976 6.945,-2.498 13.994,1.123 13.994,1.123 0,0 -5.879,1.842 -7.049,6.212 -1.171,4.37 -7.31,11.939 -14.307,8.427"
       style="fill:#e8def1;fill-opacity:1;fill-rule:nonzero;stroke:none;stroke-width:0.1"
       id="path39102" />
    <path
       d="m 568.342,303.305 c -1.115,-2.687 -4.6,-3.794 -7.784,-2.473 -3.185,1.322 -4.863,4.571 -3.748,7.258 1.115,2.687 4.6,3.794 7.785,2.473 3.184,-1.322 4.862,-4.571 3.747,-7.258"
       style="fill:#f68c1a;fill-opacity:1;fill-rule:nonzero;stroke:none;stroke-width:0.1"
       id="path39104" />
    <path
       d="m 493.07,271.974 c 0,0 23.306,21.433 23.723,24.763 0.416,3.329 -5.411,7.815 -8.324,7.237 -2.913,-0.578 -22.682,-21.696 -23.93,-24.871 -1.249,-3.175 4.182,-8.567 8.531,-7.129"
       style="fill:#ffffff;fill-opacity:1;fill-rule:nonzero;stroke:none;stroke-width:0.1"
       id="path39106" />
    <path
       d="m 607.051,254.232 c 0,0 4.682,-8.841 0,-15.422 -4.682,-6.581 -21.069,-10.483 -26.843,-5.333 -5.775,5.151 -0.763,10.457 2.74,10.067 3.503,-0.39 8.497,-0.876 15,1.482 4.965,1.801 9.103,9.206 9.103,9.206"
       style="fill:#ffffff;fill-opacity:1;fill-rule:nonzero;stroke:none;stroke-width:0.1"
       id="path39108" />
    <path
       d="m 554.534,129.451 c 0,0 -9.604,-3.846 -9.802,-6.398 -0.198,-2.552 19.625,-3.218 29.504,-1.801 9.88,1.417 18.453,5.708 19.117,7.26 0.665,1.552 -2.234,28.548 -2.7,29.548 -0.467,1 -38.455,-1.618 -38.864,-3.562 -0.408,-1.944 2.745,-25.047 2.745,-25.047"
       style="fill:#321c13;fill-opacity:1;fill-rule:nonzero;stroke:none;stroke-width:0.1"
       id="path39110" />
    <path
       d="m 508.417,166.681 26.687,-13.89 5.307,11.549 c -13.422,1.404 -27.978,8.823 -27.978,8.823 l -4.016,-6.482"
       style="fill:#a62323;fill-opacity:1;fill-rule:nonzero;stroke:none;stroke-width:0.1"
       id="path39112" />
    <path
       d="m 493.747,148.109 c 0,0 -10.145,2.029 -11.705,0 -1.561,-2.029 14.675,-13.422 23.722,-17.636 9.047,-4.214 18.572,-5.306 19.976,-4.37 1.405,0.937 13.734,25.127 13.89,26.22 0.156,1.092 -33.086,19.664 -34.49,18.259 -1.405,-1.404 -11.393,-22.473 -11.393,-22.473"
       style="fill:#321c13;fill-opacity:1;fill-rule:nonzero;stroke:none;stroke-width:0.1"
       id="path39114" />
    <path
       d="m 569.751,248.668 c 0,0 -4.578,-5.514 -5.93,-12.173 -1.353,-6.659 -1.353,-10.717 -1.353,-10.717 0,0 4.474,-1.665 11.029,-2.289 6.555,-0.624 8.219,0.624 8.219,0.624 0,0 -1.768,15.711 1.457,20.497 3.225,4.786 -8.115,13.857 -13.422,4.058"
       style="fill:#f68c1a;fill-opacity:1;fill-rule:nonzero;stroke:none;stroke-width:0.1"
       id="path39116" />
    <path
       d="m 607.051,254.232 c 0,0 0.989,9.002 -4.734,14.1 -5.722,5.099 -14.358,6.139 -17.063,3.85 -2.705,-2.289 -2.809,-4.266 -4.682,-5.618 -1.873,-1.353 -9.572,-8.324 -11.341,-11.445 -1.769,-3.122 0.52,-6.451 0.52,-6.451 0,0 3.538,2.705 7.387,0.728 2.396,-1.23 4.308,-4.676 5.411,-7.104 0.766,-1.687 2.529,-2.668 4.368,-2.442 4.809,0.591 13.817,3.242 20.134,14.382"
       style="fill:#321c13;fill-opacity:1;fill-rule:nonzero;stroke:none;stroke-width:0.1"
       id="path39118" />
    <path
       d="m 552.116,312.682 c 0,0 3.137,4.637 5.398,3.421 2.26,-1.216 0.716,-4.452 0.716,-4.452"
       style="fill:none;stroke:#321c13;stroke-width:2.49707;stroke-linecap:round;stroke-linejoin:miter;stroke-miterlimit:10;stroke-dasharray:none;stroke-opacity:1"
       id="path39120" />
    <path
       d="m 571.001,305.698 c 0,0 3.655,6.501 7.726,3.55 3.435,-2.491 -1.171,-8.193 -1.171,-8.193"
       style="fill:none;stroke:#321c13;stroke-width:2.49707;stroke-linecap:round;stroke-linejoin:miter;stroke-miterlimit:10;stroke-dasharray:none;stroke-opacity:1"
       id="path39122" />
    <path
       d="m 503.711,225.424 c 0.259,1.035 1.359,1.613 2.355,1.231 6.847,-2.629 31.752,-11.544 61.084,-14.195 34.543,-3.121 45.208,0.729 45.208,0.729 0,0 0.618,-3.746 0.504,-5.619 -0.114,-1.872 -1.285,-6.008 -1.285,-6.008 0,0 -31.213,-6.467 -65.987,-0.794 -23.703,3.866 -37.275,8.832 -42.498,11.031 -1.458,0.614 -2.239,2.202 -1.855,3.737 l 2.474,9.888"
       style="fill:#321c13;fill-opacity:1;fill-rule:nonzero;stroke:none;stroke-width:0.1"
       id="path39124" />
    <path
       d="m 534.826,200.878 -23.806,7.131 c -1.371,0.411 -2.15,1.856 -1.739,3.228 l 4.257,14.211 c 0.411,1.372 1.856,2.15 3.228,1.739 l 23.805,-7.131 c 1.372,-0.411 2.151,-1.856 1.74,-3.228 l -4.257,-14.211 c -0.411,-1.371 -1.856,-2.15 -3.228,-1.739"
       style="fill:#fbbe09;fill-opacity:1;fill-rule:nonzero;stroke:none;stroke-width:0.1"
       id="path39126" />
    <path
       d="m 660.589,367.945 h -13 c -2.117,0 -3.833,1.716 -3.833,3.833 v 0 c 0,2.117 1.716,3.834 3.833,3.834 h 13 c 2.117,0 3.834,-1.717 3.834,-3.834 v 0 c 0,-2.117 -1.717,-3.833 -3.834,-3.833"
       style="fill:#f04044;fill-opacity:1;fill-rule:nonzero;stroke:none;stroke-width:0.1"
       id="path39128" />
    <path
       d="m 425.402,169.35 -9.192,-9.192 c -1.497,-1.497 -3.924,-1.497 -5.421,0 v 0 c -1.497,1.497 -1.497,3.924 0,5.421 l 9.192,9.193 c 1.497,1.497 3.924,1.497 5.421,0 v 0 c 1.497,-1.497 1.497,-3.924 0,-5.422"
       style="fill:#fbbe09;fill-opacity:1;fill-rule:nonzero;stroke:none;stroke-width:0.1"
       id="path39130" />
    <path
       d="m 472.395,210.199 h -13 c -2.117,0 -3.833,1.716 -3.833,3.834 v 0 c 0,2.117 1.716,3.833 3.833,3.833 h 13 c 2.117,0 3.833,-1.716 3.833,-3.833 v 0 c 0,-2.118 -1.716,-3.834 -3.833,-3.834"
       style="fill:#0fac68;fill-opacity:1;fill-rule:nonzero;stroke:none;stroke-width:0.1"
       id="path39132" />
    <path
       d="m 447.423,299.494 -9.193,9.193 c -1.496,1.497 -1.496,3.924 0,5.421 v 0 c 1.498,1.497 3.925,1.497 5.422,0 l 9.192,-9.193 c 1.497,-1.497 1.497,-3.924 0,-5.421 v 0 c -1.497,-1.497 -3.924,-1.497 -5.421,0"
       style="fill:#f04044;fill-opacity:1;fill-rule:nonzero;stroke:none;stroke-width:0.1"
       id="path39134" />
    <path
       d="m 691.833,302.978 -12.052,4.874 c -1.963,0.794 -2.91,3.029 -2.116,4.991 v 0 c 0.794,1.963 3.028,2.91 4.991,2.117 l 12.051,-4.875 c 1.963,-0.793 2.911,-3.028 2.117,-4.991 v 0 c -0.794,-1.962 -3.029,-2.91 -4.991,-2.116"
       style="fill:#fbbe09;fill-opacity:1;fill-rule:nonzero;stroke:none;stroke-width:0.1"
       id="path39136" />
    <path
       d="m 506.833,374.62 -11.968,-5.075 c -1.949,-0.827 -4.199,0.084 -5.026,2.033 v 0 c -0.826,1.949 0.084,4.199 2.033,5.025 l 11.968,5.075 c 1.949,0.827 4.199,-0.083 5.026,-2.032 v 0 c 0.826,-1.949 -0.084,-4.199 -2.033,-5.026"
       style="fill:#fbbe09;fill-opacity:1;fill-rule:nonzero;stroke:none;stroke-width:0.1"
       id="path39138" />
    <path
       d="m 666.761,192.643 11.968,5.075 c 1.949,0.827 4.199,-0.083 5.026,-2.032 v 0 c 0.826,-1.949 -0.084,-4.2 -2.033,-5.026 l -11.968,-5.075 c -1.949,-0.827 -4.2,0.083 -5.026,2.032 v 0 c -0.827,1.949 0.084,4.2 2.033,5.026"
       style="fill:#f04044;fill-opacity:1;fill-rule:nonzero;stroke:none;stroke-width:0.1"
       id="path39140" />
    <path
       d="m 582.493,396.816 5.783,-11.643 c 0.941,-1.897 0.167,-4.197 -1.729,-5.139 v 0 c -1.896,-0.941 -4.196,-0.168 -5.138,1.729 l -5.782,11.643 c -0.942,1.896 -0.168,4.197 1.728,5.138 v 0 c 1.896,0.942 4.197,0.168 5.138,-1.728"
       style="fill:#0fac68;fill-opacity:1;fill-rule:nonzero;stroke:none;stroke-width:0.1"
       id="path39142" />
    <path
       d="m 473.622,260.01 c 0,-1.897 -1.538,-3.434 -3.434,-3.434 -1.896,0 -3.433,1.537 -3.433,3.434 0,1.896 1.537,3.433 3.433,3.433 1.896,0 3.434,-1.537 3.434,-3.433"
       style="fill:#ffffff;fill-opacity:1;fill-rule:nonzero;stroke:none;stroke-width:0.1"
       id="path39144" />
    <path
       d="m 664.423,305.535 c 0,-1.896 -1.537,-3.433 -3.434,-3.433 -1.896,0 -3.433,1.537 -3.433,3.433 0,1.897 1.537,3.434 3.433,3.434 1.897,0 3.434,-1.537 3.434,-3.434"
       style="fill:#ffffff;fill-opacity:1;fill-rule:nonzero;stroke:none;stroke-width:0.1"
       id="path39146" />
    <path
       d="m 667.856,398.945 c 0,-1.896 -1.537,-3.433 -3.433,-3.433 -1.896,0 -3.434,1.537 -3.434,3.433 0,1.896 1.538,3.434 3.434,3.434 1.896,0 3.433,-1.538 3.433,-3.434"
       style="fill:#ffffff;fill-opacity:1;fill-rule:nonzero;stroke:none;stroke-width:0.1"
       id="path39148" />
    <path
       d="m 550.333,378.55 c 0,-1.896 -1.537,-3.433 -3.434,-3.433 -1.896,0 -3.433,1.537 -3.433,3.433 0,1.896 1.537,3.434 3.433,3.434 1.897,0 3.434,-1.538 3.434,-3.434"
       style="fill:#ffffff;fill-opacity:1;fill-rule:nonzero;stroke:none;stroke-width:0.1"
       id="path39150" />
    <path
       d="m 693.929,354.512 c 0,-1.897 -1.537,-3.434 -3.434,-3.434 -1.896,0 -3.433,1.537 -3.433,3.434 0,1.896 1.537,3.433 3.433,3.433 1.897,0 3.434,-1.537 3.434,-3.433"
       style="fill:#ffffff;fill-opacity:1;fill-rule:nonzero;stroke:none;stroke-width:0.1"
       id="path39152" />
    <path
       d="m 487.79,341.558 c 0,-1.897 -1.537,-3.434 -3.433,-3.434 -1.896,0 -3.434,1.537 -3.434,3.434 0,1.896 1.538,3.433 3.434,3.433 1.896,0 3.433,-1.537 3.433,-3.433"
       style="fill:#ffffff;fill-opacity:1;fill-rule:nonzero;stroke:none;stroke-width:0.1"
       id="path39154" />
    <path
       d="m 499.414,247.817 c 0,-1.206 -0.977,-2.184 -2.183,-2.184 -1.206,0 -2.184,0.978 -2.184,2.184 0,1.206 0.978,2.183 2.184,2.183 1.206,0 2.183,-0.977 2.183,-2.183"
       style="fill:#ffffff;fill-opacity:1;fill-rule:nonzero;stroke:none;stroke-width:0.1"
       id="path39156" />
    <path
       d="m 687.062,295.772 c 0,-1.206 -0.978,-2.183 -2.183,-2.183 -1.206,0 -2.184,0.977 -2.184,2.183 0,1.206 0.978,2.184 2.184,2.184 1.205,0 2.183,-0.978 2.183,-2.184"
       style="fill:#ffffff;fill-opacity:1;fill-rule:nonzero;stroke:none;stroke-width:0.1"
       id="path39158" />
    <path
       d="m 624.032,360.128 c 0,-1.205 -0.977,-2.183 -2.183,-2.183 -1.206,0 -2.184,0.978 -2.184,2.183 0,1.206 0.978,2.184 2.184,2.184 1.206,0 2.183,-0.978 2.183,-2.184"
       style="fill:#ffffff;fill-opacity:1;fill-rule:nonzero;stroke:none;stroke-width:0.1"
       id="path39160" />
    <path
       d="m 534.318,330.262 c 0,-1.206 -0.977,-2.184 -2.183,-2.184 -1.206,0 -2.183,0.978 -2.183,2.184 0,1.205 0.977,2.183 2.183,2.183 1.206,0 2.183,-0.978 2.183,-2.183"
       style="fill:#ffffff;fill-opacity:1;fill-rule:nonzero;stroke:none;stroke-width:0.1"
       id="path39162" />
    <path
       d="m 595.536,406.129 c 0,-1.206 -0.977,-2.184 -2.183,-2.184 -1.206,0 -2.184,0.978 -2.184,2.184 0,1.205 0.978,2.183 2.184,2.183 1.206,0 2.183,-0.978 2.183,-2.183"
       style="fill:#ffffff;fill-opacity:1;fill-rule:nonzero;stroke:none;stroke-width:0.1"
       id="path39164" />
    <path
       d="m 452.076,283.749 c 0,-1.206 -0.978,-2.184 -2.183,-2.184 -1.206,0 -2.184,0.978 -2.184,2.184 0,1.205 0.978,2.183 2.184,2.183 1.205,0 2.183,-0.978 2.183,-2.183"
       style="fill:#ffffff;fill-opacity:1;fill-rule:nonzero;stroke:none;stroke-width:0.1"
       id="path39166" />
  </g>
</svg>
