<?xml version="1.0" encoding="UTF-8" standalone="no"?>
<!-- Created with Inkscape (http://www.inkscape.org/) -->

<svg
   version="1.1"
   id="svg41"
   width="128.45428"
   height="130.06909"
   viewBox="0 0 128.45428 130.06909"
   sodipodi:docname="16311468_rm318-sasi-02-a.eps"
   xmlns:inkscape="http://www.inkscape.org/namespaces/inkscape"
   xmlns:sodipodi="http://sodipodi.sourceforge.net/DTD/sodipodi-0.dtd"
   xmlns="http://www.w3.org/2000/svg"
   xmlns:svg="http://www.w3.org/2000/svg">
  <defs
     id="defs45" />
  <sodipodi:namedview
     id="namedview43"
     pagecolor="#ffffff"
     bordercolor="#000000"
     borderopacity="0.25"
     inkscape:showpageshadow="2"
     inkscape:pageopacity="0.0"
     inkscape:pagecheckerboard="0"
     inkscape:deskcolor="#d1d1d1"
     showgrid="false" />
  <g
     id="g49"
     inkscape:groupmode="layer"
     inkscape:label="Page 1"
     transform="matrix(1.3333333,0,0,-1.3333333,-968.91888,1432.4571)">
    <path
       d="m 774.38245,1002.3164 c -0.1,-0.15 -0.043,-0.33 0.059,-0.46 2.849,-3.49997 6.488,-6.24997 9.148,-9.90997 2.073,-2.86 3.973,-5.88 6.591,-8.26 -4.679,0.69 -9.101,2.5 -13.33,4.58 -2.215,1.09 -4.388,2.26 -6.563,3.43 -1.021,0.54 -2.471,1.67 -3.726,1.53 -1.04,-0.12 -1.808,-1.19 -2.48,-1.88 -1.572,-1.6 -3.036,-3.34 -4.708,-4.84 -3.417,-3.07 -7.347,-5.49 -10.72,-8.62 -0.289,1.79 0.463,3.77 1.003,5.41 0.582,1.78 1.231,3.51 1.598,5.34 0.563,2.82 1.413,5.56 2.012,8.37 0.255,1.2 0.342,2.38 0.438,3.59997 0.043,0.55 0.267,1.33 0.107,1.88 -0.249,0.84 -0.991,0.96 -1.786,1.14 -2.397,0.53 -4.86,0.8 -7.305,0.99 -5.784,0.46 -11.314,0.69 -16.824,2.58 3.611,2.31 8.073,3.03 12.056,4.47 4.56,1.65 9.193,3.13 13.629,5.09 0.085,-0.3 0.609,-0.38 0.734,0 2.421,7.55 5.516,14.92 6.969,22.74 1.875,-4.43 3.12,-9.04 4.346,-13.68 0.669,-2.54 1.504,-6.85 4.141,-8.16 2.78,-1.38 6.906,-0.09 9.74,0.46 5.035,0.99 10.292,0.98 15.42,0.86 -5.306,-7.32 -15.494,-9.06 -20.549,-16.66 z m 21.265,17.41 c -4.714,0.11 -9.709,0.27 -14.376,-0.51 -1.806,-0.3 -3.589,-0.72 -5.4,-1 -1.659,-0.25 -3.878,-0.67 -5.495,0.01 -2.922,1.21 -3.652,6.37 -4.346,9.08 -1.191,4.67 -2.58,9.29 -4.57,13.69 -0.13,0.28 -0.643,0.22 -0.693,-0.09 -1.322,-8.14 -4.531,-15.76 -7.058,-23.56 -0.108,0.11 -0.274,0.17 -0.451,0.09 -4.784,-2.12 -9.818,-3.8 -14.77,-5.49 -3.919,-1.34 -8.191,-2.07 -11.62,-4.53 -0.274,-0.19 -0.226,-0.57 0.09,-0.69 4.818,-1.79 9.6,-2.35 14.689,-2.66 2.797,-0.17 5.604,-0.36 8.369,-0.83 0.717,-0.12 1.912,-0.14 2.553,-0.53 0.779,-0.46 0.437,-1.31 0.376,-2.1 -0.216,-2.77997 -0.926,-5.36997 -1.602,-8.05997 -0.499,-2 -0.783,-4.05 -1.399,-6 -0.888,-2.83 -2.842,-6.46 -1.879,-9.48 0.086,-0.27 0.423,-0.37 0.634,-0.17 3.243,3.14 7.024,5.58 10.483,8.44 1.57,1.31 2.896,2.85 4.3,4.32 0.669,0.7 1.337,1.42 2.044,2.08 0.886,0.83 1.415,0.81 2.497,0.3 7.664,-3.64 14.702,-8.36 23.361,-9.26 0.314,-0.04 0.519,0.44 0.268,0.64 -3.788,3.02 -5.918,7.37 -9.025,10.98 -1.696,1.98 -3.663,3.69 -5.473,5.55 -0.683,0.70997 -1.959,1.60997 -1.705,2.58997 0.197,0.77 1.616,1.92 2.202,2.47 5.705,5.29 13.87,7.44 18.325,14.14 0.164,0.25 -0.056,0.57 -0.329,0.58"
       style="fill:#030403;fill-opacity:1;fill-rule:nonzero;stroke:none;stroke-width:0.1"
       id="path12347" />
    <path
       d="m 811.94245,1047.1164 c 1.27,3.65 0.837,7.81 1.177,11.65 2.681,0.15 7.067,0.59 9.683,1.48 0.366,0.12 0.248,0.66 -0.055,0.74 -2.481,0.67 -6.662,1.27 -9.09,2.17 0.469,3.61 0.926,7.22 0.949,10.85 10e-4,0.31 -0.343,0.42 -0.548,0.27 -2.926,-2.11 -4.887,-4.12 -7.479,-6.7 -3.606,1.74 -5.413,2.36 -9.37,3.98 -0.421,0.17 -0.832,-0.34 -0.459,-0.6 l 0.067,-0.05 0.118,-0.24 c 2.618,-2.36 3.878,-4.68 5.934,-7.7 -2.574,-1.92 -5.229,-3.71 -7.592,-5.96 -0.259,-0.25 -0.142,-0.75 0.228,-0.7 3.545,0.44 7.164,0.1 10.691,0.63 1.14,-1.76 1.604,-2.27 2.284,-4.34 0.65,-1.98 1.597,-3.95 2.858,-5.56 0.154,-0.19 0.5,-0.22 0.604,0.08"
       style="fill:#030403;fill-opacity:1;fill-rule:nonzero;stroke:none;stroke-width:0.1"
       id="path12349" />
  </g>
</svg>
