<?xml version="1.0" encoding="UTF-8" standalone="no"?>
<!-- Created with Inkscape (http://www.inkscape.org/) -->

<svg
   version="1.1"
   id="svg41"
   width="262.13782"
   height="184.95581"
   viewBox="0 0 262.13782 184.95581"
   sodipodi:docname="16311468_rm318-sasi-02-a.eps"
   xmlns:inkscape="http://www.inkscape.org/namespaces/inkscape"
   xmlns:sodipodi="http://sodipodi.sourceforge.net/DTD/sodipodi-0.dtd"
   xmlns="http://www.w3.org/2000/svg"
   xmlns:svg="http://www.w3.org/2000/svg">
  <defs
     id="defs45" />
  <sodipodi:namedview
     id="namedview43"
     pagecolor="#ffffff"
     bordercolor="#000000"
     borderopacity="0.25"
     inkscape:showpageshadow="2"
     inkscape:pageopacity="0.0"
     inkscape:pagecheckerboard="0"
     inkscape:deskcolor="#d1d1d1"
     showgrid="false" />
  <g
     id="g49"
     inkscape:groupmode="layer"
     inkscape:label="Page 1"
     transform="matrix(1.3333333,0,0,-1.3333333,-1112.6736,269.83606)">
    <path
       d="m 1028.2451,117.88978 c -3.68,-18.62 -22.839,-26.06 -40.18197,-25.16 -0.589,0.03 -1.404,0.17 -2.354,0.41 -0.176,0.04 -0.406,0.08 -0.657,0.12 -0.099,0.01 -0.237,0.04 -0.379,0.06 1.18,1.97 2.233,4 3.176,6.12 0.865,-0.23 1.779,-0.3 2.561,-0.3 h 0.113 c 7.593,0.06 18.08197,2.64 24.75197,9.69 3.94,4.15 5.8,9.12 5.54,14.77 -0.22,4.83 -2.09,17.59 -14.64,31.85 -3.183,3.62 -7.19097,6.18 -11.58997,7.42 -0.854,0.24 -1.365,0.11 -1.816,0 h -0.025 c -0.277,1.58 -0.576,3.16 -0.876,4.71 -0.391,2.05 -0.793,4.14 -1.13,6.21 12.22097,-0.04 20.75697,-7.21 25.79697,-13.26 9.74,-11.67 14.45,-28.81 11.71,-42.64 z m -35.83897,9.68 c 0.119,1.39 0.242,2.77 0.366,4.16 0.579,6.49 1.178,13.2 1.158,19.86 -0.01,3.06 -0.36,6.15 -0.841,9.21 l 0.186,0.04 c 0.35,0.09 0.424,0.1 0.743,0.02 4.008,-1.13 7.66997,-3.48 10.58897,-6.8 8.398,-9.54 13.678,-20.96 14.118,-30.55 0.23,-5.06 -1.44,-9.52 -4.97,-13.24 -5.12,-5.41 -14.24897,-8.96 -23.24997,-9.04 -0.677,0 -1.295,0.06 -1.824,0.17 0.2,0.49 0.395,0.99 0.584,1.5 2.214,5.92 2.494,12.17 2.765,18.22 0.095,2.12 0.194,4.32 0.376,6.45 z m -15.111,-40.57 c -4.163,-3.82 -10.563,-6.2 -16.762,-8.31 -0.578,-0.2 -1.165,-0.37 -1.752,-0.54 -0.722,-0.21 -1.469,-0.42 -2.205,-0.69 -0.715,-0.26 -1.411,-0.53 -2.1,-0.8 -1.777,-0.7 -3.455,-1.35 -5.319,-1.7301 -1.118,-0.2297 -2.184,-0.5597 -3.215,-0.8699 -0.698,-0.2199 -1.419,-0.4398 -2.133,-0.6199 -17.598,-4.4699 -35.484,-2.0199 -52.781,0.3398 -4.542,0.6301 -9.24,1.2703 -13.861,1.7801 -8.598,0.94 -17.487,5.93 -22.643,12.7 -0.648,0.86 -1.303,1.61 -2.063,2.39 -17.131,17.45 -16.289,44.23 -15.546,67.85 0.12,3.83 0.235,7.45 0.277,11.03 0.008,0.82 0.003,1.65 0.002,2.48 2.007,-2.61 6.126,-4.72 9.29,-6.34 0.699,-0.36 1.332,-0.69 1.847,-0.97 4.7,-2.59 9.951,-4.74 15.607,-6.37 11.094,-3.22 23.098,-4.28 32.743,-5.14 8.597,-0.76 16.497,-1.4 24.648,-1.4 1.312,0 2.63,0.02 3.958,0.05 16.339,0.43 32.167,1.36 46.208,7.82 5.49,2.52 10.791,5.07 15.324,8.48 1.042,0.78 1.813,1.58 2.366,2.38 0.205,-1.12 0.416,-2.23 0.627,-3.33 0.987,-5.14 2.007,-10.45 2.023,-15.61 0.02,-6.56 -0.575,-13.22 -1.149,-19.67 -0.124,-1.38 -0.248,-2.77 -0.367,-4.16 -0.185,-2.18 -0.285,-4.4 -0.38,-6.54 -0.265,-5.88 -0.537,-11.97 -2.636,-17.58 -0.348,-0.93 -0.717,-1.84 -1.103,-2.73 l -0.39,-0.42 0.155,-0.12 c -1.311,-2.96 -2.841,-5.73 -4.64,-8.42 -1.067,-1.59 -2.38,-3.42 -4.03,-4.94 z m -127.226,101.869 v 0 c 2.008,0.939 3.947,1.726 5.503,2.358 l 0.604,0.246 c 14.535,5.922 28.249,8.809 41.87,8.809 0.511,0 1.022,-0.004 1.532,-0.011 23.956,-0.381 42.973,-2.781 59.848,-7.554 6.924,-1.959 21.331,-6.034 26.776,-13.686 2.918,-4.101 2.738,-6.681 -0.641,-9.221 -4.367,-3.28 -9.559,-5.77 -14.94,-8.25 -13.682,-6.29 -29.277,-7.2 -45.388,-7.62 -9.474,-0.25 -18.453,0.46 -28.367,1.34 -9.554,0.84 -21.447,1.9 -32.345,5.06 -5.507,1.59 -10.614,3.68 -15.179,6.19 -0.531,0.3 -1.183,0.63 -1.904,1 -3.124,1.6 -8.351,4.28 -9.235,6.9 -1.74,5.169 2.142,9.892 11.866,14.439 z m 168.07597,-26.999 c -7.65,9.18 -17.622,14.151 -28.02897,14.017 -0.413,1.612 -1.316,3.106 -2.208,4.359 -5.872,8.252 -20.758,12.463 -27.912,14.487 -17.054,4.823 -36.242,7.249 -60.385,7.632 -14.407,0.227 -28.877,-2.7 -44.225,-8.953 l -0.601,-0.244 c -1.58,-0.641 -3.546,-1.439 -5.602,-2.402 -3.648,-1.705 -14.093,-6.594 -13.455,-14.631 h -0.63 v -0.233 c 0,-0.645 0.003,-1.292 0.005,-1.932 0.006,-1.47 0.011,-2.95 -0.006,-4.42 -0.041,-3.55 -0.155,-7.16 -0.276,-10.99 -0.755,-24.04 -1.612,-51.29 16.145,-69.38 0.697,-0.71 1.298,-1.4 1.891,-2.18 5.487,-7.21 14.939,-12.5201 24.082,-13.5201 4.592,-0.5097 9.276,-1.15 13.805,-1.7699 10.343,-1.4199 20.894,-2.8598 31.51,-2.8598 7.342,0 14.715,0.6899 22.07,2.5598 0.764,0.1902 1.511,0.4199 2.234,0.65 1.027,0.3102 1.998,0.6102 3.015,0.8199 2.042,0.4102 3.885,1.1301 5.666,1.8301 0.674,0.2602 1.353,0.53 2.052,0.78 0.668,0.25 1.349,0.44 2.069,0.65 0.605,0.17 1.231,0.35 1.848,0.56 6.41,2.19 13.042,4.66 17.504,8.76 1.813,1.67 3.217,3.62 4.353,5.32 0.15,0.22 0.294,0.45 0.441,0.67 0.401,-0.13 0.837,-0.2 1.225,-0.26 0.179,-0.03 0.343,-0.05 0.469,-0.08 1.097,-0.28 2.024,-0.44 2.755,-0.47 0.958,-0.05 1.921,-0.08 2.887,-0.08 17.43297,0 35.74297,8.12 39.46297,26.93 2.85,14.41 -2.04,32.25 -12.16,44.38"
       style="fill:#030403;fill-opacity:1;fill-rule:nonzero;stroke:none;stroke-width:0.1"
       id="path12355" />
    <path
       d="m 855.64013,123.37978 c -0.192,0.11 -0.331,0.35 -0.548,0.39 h -1.115 c -1.1,-0.75 -2.071,-1.51 -2.748,-2.71 -0.335,-0.59 -0.262,-1.48 -0.228,-2.14 0.044,-0.83 0.682,-1.27 1.305,-1.7 0.786,-0.55 1.669,-0.83 2.599,-0.54 1.481,0.46 2.407,2.6 2.414,4.09 0.005,0.75 -0.185,1.63 -0.757,2.14 -0.281,0.25 -0.616,0.31 -0.922,0.47"
       style="fill:#030403;fill-opacity:1;fill-rule:nonzero;stroke:none;stroke-width:0.1"
       id="path12357" />
    <path
       d="m 879.38713,144.75978 c -0.178,0.1 -0.307,0.32 -0.508,0.36 h -1.032 c -1.02,-0.7 -1.919,-1.41 -2.547,-2.51 -0.311,-0.55 -0.243,-1.38 -0.211,-1.99 0.041,-0.77 0.632,-1.17 1.209,-1.57 0.728,-0.51 1.546,-0.77 2.408,-0.5 1.372,0.43 2.23,2.41 2.238,3.78 0.003,0.7 -0.173,1.51 -0.704,1.99 -0.258,0.23 -0.57,0.28 -0.853,0.44"
       style="fill:#030403;fill-opacity:1;fill-rule:nonzero;stroke:none;stroke-width:0.1"
       id="path12359" />
    <path
       d="m 915.60313,99.81978 c -0.177,0.1 -0.307,0.32 -0.508,0.36 h -1.032 c -1.02,-0.7 -1.919,-1.4 -2.546,-2.51 -0.311,-0.55 -0.244,-1.38 -0.212,-1.98 0.041,-0.78 0.632,-1.18 1.21,-1.58 0.727,-0.5 1.545,-0.77 2.408,-0.5 1.371,0.43 2.229,2.41 2.236,3.79 0.004,0.69 -0.173,1.51 -0.703,1.98 -0.259,0.23 -0.57,0.29 -0.853,0.44"
       style="fill:#030403;fill-opacity:1;fill-rule:nonzero;stroke:none;stroke-width:0.1"
       id="path12361" />
    <path
       d="m 928.47413,119.53978 c -0.177,0.1 -0.306,0.32 -0.508,0.36 h -1.032 c -1.019,-0.7 -1.919,-1.4 -2.546,-2.51 -0.311,-0.54 -0.243,-1.38 -0.211,-1.98 0.04,-0.78 0.632,-1.18 1.209,-1.58 0.727,-0.5 1.546,-0.77 2.408,-0.5 1.371,0.43 2.229,2.41 2.236,3.79 0.004,0.69 -0.171,1.51 -0.702,1.98 -0.259,0.23 -0.57,0.29 -0.854,0.44"
       style="fill:#030403;fill-opacity:1;fill-rule:nonzero;stroke:none;stroke-width:0.1"
       id="path12363" />
    <path
       d="m 894.49713,81.62978 c -0.178,0.09 -0.307,0.32 -0.509,0.36 h -1.032 c -1.018,-0.71 -1.919,-1.41 -2.546,-2.52 -0.31,-0.54 -0.243,-1.37 -0.211,-1.98 0.04,-0.77 0.631,-1.18 1.209,-1.58 0.728,-0.5 1.546,-0.76 2.409,-0.49 1.371,0.42 2.229,2.4 2.236,3.78 0.004,0.69 -0.172,1.51 -0.703,1.99 -0.259,0.23 -0.57,0.28 -0.853,0.44"
       style="fill:#030403;fill-opacity:1;fill-rule:nonzero;stroke:none;stroke-width:0.1"
       id="path12365" />
    <path
       d="m 948.95813,137.33978 c 1.37,0.43 2.229,2.41 2.236,3.79 0.004,0.69 -0.172,1.51 -0.703,1.98 -0.258,0.24 -0.57,0.29 -0.853,0.45 -0.178,0.09 -0.307,0.31 -0.508,0.36 h -1.032 c -1.02,-0.71 -1.919,-1.41 -2.547,-2.52 -0.311,-0.54 -0.242,-1.37 -0.211,-1.98 0.041,-0.77 0.632,-1.18 1.209,-1.58 0.728,-0.5 1.546,-0.77 2.409,-0.5"
       style="fill:#030403;fill-opacity:1;fill-rule:nonzero;stroke:none;stroke-width:0.1"
       id="path12367" />
    <path
       d="m 844.70213,151.43978 c -0.177,0.1 -0.306,0.32 -0.508,0.36 h -1.033 c -1.018,-0.7 -1.918,-1.41 -2.546,-2.51 -0.31,-0.55 -0.243,-1.38 -0.211,-1.99 0.041,-0.77 0.632,-1.17 1.209,-1.57 0.728,-0.51 1.546,-0.77 2.409,-0.5 1.371,0.43 2.229,2.41 2.237,3.78 0.004,0.7 -0.173,1.51 -0.703,1.99 -0.259,0.23 -0.57,0.28 -0.854,0.44"
       style="fill:#030403;fill-opacity:1;fill-rule:nonzero;stroke:none;stroke-width:0.1"
       id="path12369" />
    <path
       d="m 880.29813,100.81978 c -0.11,0.19 -0.11,0.46 -0.276,0.61 l -0.961,0.57 c -1.333,-0.1 -2.555,-0.26 -3.744,-0.95 -0.588,-0.34 -0.979,-1.15 -1.283,-1.73 -0.383,-0.74 -0.052,-1.44 0.266,-2.13 0.401,-0.87 1.019,-1.56 1.97,-1.78 1.511,-0.35 3.392,1.02 4.151,2.3 0.384,0.64 0.666,1.5 0.431,2.23 -0.115,0.36 -0.375,0.58 -0.554,0.88"
       style="fill:#030403;fill-opacity:1;fill-rule:nonzero;stroke:none;stroke-width:0.1"
       id="path12371" />
    <path
       d="m 982.69913,108.96978 c -0.111,0.19 -0.111,0.46 -0.276,0.61 l -0.961,0.57 c -1.333,-0.1 -2.556,-0.26 -3.744,-0.95 -0.588,-0.34 -0.979,-1.15 -1.282,-1.73 -0.383,-0.74 -0.053,-1.44 0.266,-2.13 0.401,-0.87 1.019,-1.56 1.969,-1.78 1.513,-0.35 3.393,1.02 4.152,2.3 0.383,0.64 0.665,1.5 0.43,2.23 -0.114,0.36 -0.376,0.58 -0.554,0.88"
       style="fill:#030403;fill-opacity:1;fill-rule:nonzero;stroke:none;stroke-width:0.1"
       id="path12373" />
    <path
       d="m 954.09313,105.64978 c -0.111,0.19 -0.111,0.46 -0.276,0.61 l -0.962,0.56 c -1.332,-0.09 -2.555,-0.25 -3.744,-0.94 -0.587,-0.34 -0.979,-1.15 -1.282,-1.73 -0.384,-0.74 -0.052,-1.44 0.266,-2.13 0.401,-0.87 1.018,-1.56 1.97,-1.78 1.51,-0.35 3.392,1.02 4.151,2.3 0.384,0.64 0.666,1.5 0.431,2.23 -0.115,0.36 -0.376,0.58 -0.554,0.88"
       style="fill:#030403;fill-opacity:1;fill-rule:nonzero;stroke:none;stroke-width:0.1"
       id="path12375" />
    <path
       d="m 966.93013,126.81978 c -0.433,0.35 -1.11,0.3 -1.606,0.29 -0.629,-0.02 -0.976,-0.65 -1.323,-1.26 -0.436,-0.77 -0.682,-1.65 -0.495,-2.59 0.298,-1.49 1.874,-2.47 2.992,-2.52 0.565,-0.02 1.234,0.15 1.639,0.7 0.197,0.28 0.251,0.61 0.39,0.91 0.086,0.19 0.27,0.33 0.31,0.54 l 0.039,1.12 c -0.532,1.12 -1.071,2.11 -1.946,2.81"
       style="fill:#030403;fill-opacity:1;fill-rule:nonzero;stroke:none;stroke-width:0.1"
       id="path12377" />
    <path
       d="m 939.29613,81.53978 c -0.433,0.35 -1.109,0.3 -1.605,0.28 -0.628,-0.02 -0.977,-0.64 -1.324,-1.26 -0.436,-0.77 -0.682,-1.64 -0.495,-2.58 0.298,-1.49 1.875,-2.47 2.992,-2.52 0.565,-0.03 1.234,0.14 1.639,0.7 0.197,0.27 0.251,0.61 0.39,0.91 0.087,0.19 0.27,0.32 0.311,0.54 l 0.038,1.11 c -0.532,1.12 -1.071,2.11 -1.946,2.82"
       style="fill:#030403;fill-opacity:1;fill-rule:nonzero;stroke:none;stroke-width:0.1"
       id="path12379" />
    <path
       d="m 896.01013,122.30978 c -0.111,0.19 -0.111,0.47 -0.276,0.62 l -0.962,0.56 c -1.332,-0.1 -2.555,-0.26 -3.744,-0.95 -0.587,-0.33 -0.978,-1.14 -1.282,-1.73 -0.384,-0.74 -0.052,-1.44 0.266,-2.13 0.402,-0.86 1.019,-1.56 1.97,-1.78 1.511,-0.35 3.392,1.03 4.151,2.3 0.384,0.65 0.666,1.5 0.431,2.24 -0.116,0.35 -0.376,0.57 -0.554,0.87"
       style="fill:#030403;fill-opacity:1;fill-rule:nonzero;stroke:none;stroke-width:0.1"
       id="path12381" />
    <path
       d="m 982.69913,151.65978 c -0.111,0.19 -0.111,0.47 -0.276,0.61 l -0.961,0.57 c -1.333,-0.1 -2.556,-0.26 -3.744,-0.95 -0.588,-0.34 -0.979,-1.15 -1.282,-1.73 -0.383,-0.74 -0.053,-1.44 0.266,-2.13 0.401,-0.86 1.019,-1.56 1.969,-1.78 1.513,-0.35 3.393,1.03 4.152,2.3 0.383,0.65 0.665,1.5 0.43,2.23 -0.114,0.36 -0.376,0.58 -0.554,0.88"
       style="fill:#030403;fill-opacity:1;fill-rule:nonzero;stroke:none;stroke-width:0.1"
       id="path12383" />
    <path
       d="m 915.19813,143.45978 c -0.578,0.36 -1.475,0.32 -2.134,0.31 -0.834,-0.02 -1.29,-0.64 -1.745,-1.24 -0.574,-0.77 -0.892,-1.64 -0.635,-2.58 0.409,-1.5 2.51,-2.51 3.994,-2.57 0.749,-0.03 1.637,0.13 2.169,0.68 0.26,0.27 0.329,0.61 0.51,0.91 0.114,0.18 0.356,0.31 0.408,0.53 l 0.041,1.11 c -0.716,1.13 -1.441,2.13 -2.608,2.85"
       style="fill:#030403;fill-opacity:1;fill-rule:nonzero;stroke:none;stroke-width:0.1"
       id="path12385" />
    <path
       d="m 971.57613,163.32978 c -1.872,0.54 -3.492,1.95 -5.318,2.68 -2.028,0.81 -4.298,1.21 -6.393,1.84 -5.4,1.62 -10.836,2.94 -16.397,3.89 -9.826,1.68 -19.826,2.68 -29.782,3.14 -9.966,0.451 -19.857,-0.01 -29.738,-1.37 -4.888,-0.68 -9.803,-1.44 -14.552,-2.82 -5.225,-1.52 -9.88,-4.24 -14.941,-6.17 -1.459,-0.56 -0.85,-2.94 0.628,-2.38 4.384,1.68 8.473,4.06 12.923,5.57 4.667,1.58 9.616,2.41 14.473,3.13 10.364,1.53 20.718,2.07 31.181,1.58 10.472,-0.48 21.035,-1.52 31.345,-3.43 5.2,-0.97 10.189,-2.37 15.259,-3.84 3.747,-1.09 6.99,-3.13 10.637,-4.18 1.52,-0.44 2.195,1.92 0.675,2.36"
       style="fill:#030403;fill-opacity:1;fill-rule:nonzero;stroke:none;stroke-width:0.1"
       id="path12387" />
    <path
       d="m 955.82713,161.63978 c -5.109,3.54 -12.915,5.04 -18.972,5.86 -8.522,1.16 -16.788,-0.14 -25.279,-0.15 -1.308,0 -1.311,-2.04 0,-2.03 7.253,0 14.379,1.07 21.682,0.52 6.568,-0.49 15.981,-2.11 21.543,-5.96 1.08,-0.74 2.098,1.02 1.026,1.76"
       style="fill:#030403;fill-opacity:1;fill-rule:nonzero;stroke:none;stroke-width:0.1"
       id="path12389" />
    <path
       d="m 1004.4901,71.10978 c -0.567,0.3602 -1.181,0.6398 -1.808,0.8 l -0.242,0.0102 c 0.232,0.7199 0.197,1.4898 -0.231,2.1199 l 0.117,0.1097 c 1.046,1.6102 3.759,3.2902 4.809,0.7602 0.7,-1.6898 -0.92,-3.8199 -2.645,-3.8 z m 0.381,-3.9699 c -0.842,-2.9 -5.74097,-1.0602 -5.52997,0.9601 0.374,0.4098 0.66797,0.9098 0.75797,1.5899 0.019,0.1398 -0.01,0.2601 -0.053,0.3699 0.589,0 1.105,0.2102 1.523,0.5699 0.046,-0.1 0.113,-0.1898 0.209,-0.2797 0.597,-0.5203 1.324,-0.8 2.085,-0.8902 0.804,-0.4898 1.324,-1.2301 1.008,-2.3199 z m -6.35997,3.2 c -0.401,-0.3899 -0.698,-0.8403 -0.9,-1.3102 -0.939,-0.3699 -2.651,-0.1301 -3.167,0.1801 -0.775,0.4801 -1.265,2.2699 -0.68,3.1898 0.348,0.5504 2.189,0.7403 2.866,0.7801 0.271,-0.1398 0.566,-0.2398 0.877,-0.3199 -0.072,-0.95 0.378,-1.8898 1.149,-2.4199 z m 1.54097,1.5398 c -0.90597,-0.0797 -0.96397,1.7403 0.029,1.3403 0.153,-0.0602 0.29,-0.0704 0.416,-0.05 l 0.012,-0.0102 c 0.574,-0.3398 0.132,-1.2301 -0.457,-1.2801 z m -3.41397,6.6201 c 2.11,2.83 6.30697,-0.51 4.08197,-3.41 l -0.053,-0.13 -0.091,0.0602 c -0.82997,0.3298 -1.62897,0.0998 -2.20997,-0.4102 -1.826,0.2102 -2.93,2.28 -1.728,3.89 z m 12.69697,-4.2599 c -0.26,1.8199 -2,4.0299 -3.884,4.3499 -0.96,0.17 -1.737,-0.12 -2.402,-0.62 -0.767,2.75 -3.98097,4.85 -6.83497,2.83 -0.602,-0.43 -1.017,-0.95 -1.328,-1.52 l -0.163,0.11 c -1.832,0.72 -3.718,1.74 -5.695,2.03 -1.231,0.17 -2.467,-0.08 -3.686,0.17 -3.085,0.63 -3.9,2.9 -4.307,5.51 -0.418,2.7 -1.276,4.48 -3.854,5.65 -4.505,2.04 -9.224,1.01 -12.452,5.71 -2.345,3.41 -2.713,7.9 -3.015,11.9 -0.758,10.05 -0.469,20.32 -2.576,30.22 -0.751,3.52 -1.364,7.46 -3.735,10.32 -2.675,3.23 -7.04,5.06 -11.084,5.72 -1.17,0.19 -1.675,-1.61 -0.494,-1.8 6.636,-1.08 11.119,-4.75 12.743,-11.3 1.487,-5.99 2.129,-12.04 2.437,-18.19 0.393,-7.89 -0.279,-17.3 2.62,-24.83 0.966,-2.51 2.493,-4.75 4.722,-6.3 3.483,-2.42 7.927,-1.62 10.959,-4.5 2.4,-2.28 1.38,-3.9 2.653,-6.52 0.519,-1.06 1.276,-1.91 2.275,-2.53 1.09,-0.68 2.26,-0.86 3.512,-1 3.138,-0.35 5.535,-0.9 8.482,-2.06 l 0.15,-0.02 c -0.088,-1 0.103,-2 0.615,-2.8401 -3.141,-0.9398 -6.286,-3.8097 -2.573,-6.5597 1.234,-0.9204 3.265,-1.4 4.94,-1.1 0.113,-0.7301 0.453,-1.45 1.047,-2.0704 1.571,-1.6496 4.53997,-1.6199 6.48597,-0.75 2.902,1.3004 2.662,3.6704 1.202,5.4504 1.94,0.6598 3.55,2.3899 3.24,4.5399"
       style="fill:#030403;fill-opacity:1;fill-rule:nonzero;stroke:none;stroke-width:0.1"
       id="path12391" />
  </g>
</svg>
