<?xml version="1.0" encoding="UTF-8" standalone="no"?>
<!-- Created with Inkscape (http://www.inkscape.org/) -->

<svg
   version="1.1"
   id="svg41"
   width="218.9866"
   height="138.66333"
   viewBox="0 0 218.9866 138.66333"
   sodipodi:docname="16311468_rm318-sasi-02-a.eps"
   xmlns:inkscape="http://www.inkscape.org/namespaces/inkscape"
   xmlns:sodipodi="http://sodipodi.sourceforge.net/DTD/sodipodi-0.dtd"
   xmlns="http://www.w3.org/2000/svg"
   xmlns:svg="http://www.w3.org/2000/svg">
  <defs
     id="defs45" />
  <sodipodi:namedview
     id="namedview43"
     pagecolor="#ffffff"
     bordercolor="#000000"
     borderopacity="0.25"
     inkscape:showpageshadow="2"
     inkscape:pageopacity="0.0"
     inkscape:pagecheckerboard="0"
     inkscape:deskcolor="#d1d1d1"
     showgrid="false" />
  <g
     id="g49"
     inkscape:groupmode="layer"
     inkscape:label="Page 1"
     transform="matrix(1.3333333,0,0,-1.3333333,-98.733101,524.26892)">
    <path
       d="m 235.86613,306.47978 c -0.659,-3.117 -4.126,-2.499 -6.63,-2.645 -8.7,-0.507 -17.396,-1.122 -26.095,-1.65 -16.796,-1.019 -33.513,-3.27 -50.218,-5.346 -16.547,-2.057 -32.94,-4.374 -49.6439,-4.419 -4.328198,-0.012 -8.613298,-0.102 -12.919198,-0.497 -1.5625,-0.143 -4.7988,-1.237 -6.0664,-0.114 -0.9051,0.802 -0.5566,1.448 -0.8828,2.613 -2.5488,9.104 -3.3797,20.349 -3.9812,29.751 -0.5618,8.788 -0.6262,17.59 -0.9817,26.386 -0.3437,8.474 -1.664,16.868 -1.6973,25.346 6.9504,-3.206 12.6477,-8.975 19.2422,-12.876 8.113298,-4.799 16.157298,-10.076 24.497298,-14.449 4.448,-2.333 9.117,-4.136 13.844,-5.792 0.953,-3.737 3.759,-7.288 6.789,-10.627 2.378,-2.621 5.259,-4.599 8.019,-6.346 0.826,-0.523 1.656,-1.107 2.457,-1.673 1.571,-1.107 3.194,-2.25 4.959,-3.063 0.145,-0.242 0.366,-0.429 0.619,-0.517 0.138,-0.048 0.282,-0.065 0.426,-0.052 0.16,0.014 0.321,0.065 0.471,0.152 2.902,1.674 5.108,4.171 7.054,6.375 0.784,0.888 1.596,1.754 2.407,2.621 1.501,1.603 3.054,3.262 4.414,5.046 2.183,2.863 4.392,6.95 4.226,11.589 5.391,4.351 11.01,8.301 16.795,12.194 6.651,4.476 13.106,9.1 18.877,14.687 4.977,4.821 11.443,9.166 15.691,14.71 1.48,-2.475 1.412,-6.192 1.511,-9.588 0.156,-5.42 -0.021,-10.757 0.379,-16.172 1.2,-16.212 3.278,-32.117 5.475,-48.202 0.224,-1.648 1.33,-5.709 0.963,-7.442 z m -61.942,38.322 c -0.291,-4.877 -3.627,-8.839 -7.02,-12.479 -0.773,-0.829 -1.529,-1.699 -2.291,-2.575 -2.12,-2.439 -4.31,-4.959 -6.979,-6.688 -1.322,0.574 -2.466,1.409 -3.674,2.289 -0.594,0.433 -1.188,0.866 -1.804,1.267 -0.575,0.375 -1.156,0.739 -1.736,1.104 -1.261,0.792 -2.565,1.611 -3.776,2.517 -3.608,2.7 -6.738,6.308 -8.812,10.16 -2.733,5.078 -1.221,9.782 4.149,12.905 0.979,0.57 1.942,0.896 2.881,0.978 0.764,0.067 1.511,-0.028 2.239,-0.286 3.755,-1.327 6.097,-6.551 6.928,-8.735 0.187,-0.49 0.733,-0.823 1.273,-0.775 h 0.008 c 0.473,0.045 0.819,0.372 0.905,0.852 0.073,0.414 0.137,0.825 0.201,1.232 0.394,2.507 0.735,4.673 2.893,6.262 1.78,1.31 4.547,2.06 7.22,1.961 2.011,-0.076 3.695,-0.846 5.001,-2.286 1.676,-1.849 2.572,-4.728 2.394,-7.703 z m 2.562,42.654 c 7.998,0.446 15.996,0.894 23.99,1.402 6.971,0.442 14.411,1.937 21.38,1.852 1.765,-0.022 3.079,-0.427 4.072,-1.097 -3.888,-5.156 -9.837,-8.997 -14.455,-13.525 -5.617,-5.509 -11.679,-10.154 -18.18,-14.562 -5.926,-4.019 -11.944,-7.91 -17.515,-12.413 -0.115,0.458 -0.247,0.919 -0.416,1.385 -1.658,4.588 -5.65,7.017 -10.75,6.47 -2.973,-0.316 -5.385,-1.211 -7.168,-2.663 -1.694,-1.379 -2.397,-3.155 -2.798,-4.869 -2.586,5.004 -5.866,7.418 -9.766,7.18 -4.84,-0.292 -10.214,-5.238 -10.815,-9.977 -0.053,-0.421 -0.068,-0.839 -0.066,-1.256 -5.864,2.132 -11.579,4.563 -16.932,7.867 -7.245,4.472 -14.7098,8.567 -21.961798,13.023 -6.1027,3.749 -11.2422,9.029 -17.8293,11.937 32.810098,5.509 66.030098,7.398 99.210098,9.246 z m 61.415,-78.81 c -0.476,3.708 -0.978,7.393 -1.6,11.082 -1.557,9.22 -2.575,18.514 -3.383,27.827 -0.659,7.611 -1.577,15.317 -1.54,22.962 0.025,5.312 0.387,10.852 -0.818,16.072 -0.821,3.551 -2.32,5.881 -6.058,6.401 -6.094,0.848 -13.528,-1.096 -19.63,-1.502 -43.345,-2.883 -86.899,-3.873 -129.801098,-11.278 -1.1231,-0.194 -1.2899,-1.595 -0.6473,-2.136 -0.2356,-8.916 1.2461,-17.699 1.6434,-26.59 0.4113,-9.16 0.4406,-18.329 1.0285,-27.484 0.6238,-9.703 2.5254,-20.172 3.9812,-29.751 0.552,-3.629 0.709,-4.716 4.7246,-5.004 3.2239,-0.231 6.5364,0.594 9.7707,0.726 4.873898,0.199 9.752798,0.052 14.627998,0.137 9.436,0.164 18.859,1.35 28.216,2.511 19.361,2.402 38.559,5.592 58.034,6.811 9.539,0.597 19.083,1.132 28.619,1.784 3.097,0.212 10.738,-0.666 12.757,2.575 0.882,1.416 0.27,3.34 0.075,4.857"
       style="fill:#030403;fill-opacity:1;fill-rule:nonzero;stroke:none;stroke-width:0.1"
       id="path12353"
       inkscape:export-filename="../Documentos/INGENIERÃA INFORMATICA/3er CURSO/1er CUATRI/interfaces/ep01_gr12/ej/imagesAlba/sobre1.svg"
       inkscape:export-xdpi="96"
       inkscape:export-ydpi="96" />
  </g>
</svg>
