<?xml version="1.0" encoding="UTF-8" standalone="no"?>
<!-- Created with Inkscape (http://www.inkscape.org/) -->

<svg
   version="1.1"
   id="svg94610"
   width="172.70135"
   height="172.70135"
   viewBox="0 0 172.70136 172.70136"
   sodipodi:docname="1265960_154901-OV13M6-918.eps"
   xmlns:inkscape="http://www.inkscape.org/namespaces/inkscape"
   xmlns:sodipodi="http://sodipodi.sourceforge.net/DTD/sodipodi-0.dtd"
   xmlns="http://www.w3.org/2000/svg"
   xmlns:svg="http://www.w3.org/2000/svg">
  <defs
     id="defs94614" />
  <sodipodi:namedview
     id="namedview94612"
     pagecolor="#ffffff"
     bordercolor="#000000"
     borderopacity="0.25"
     inkscape:showpageshadow="2"
     inkscape:pageopacity="0.0"
     inkscape:pagecheckerboard="0"
     inkscape:deskcolor="#d1d1d1"
     showgrid="false" />
  <g
     id="g94618"
     inkscape:groupmode="layer"
     inkscape:label="Page 1"
     transform="matrix(1.3333333,0,0,-1.3333333,-432.16131,232.632)">
    <path
       d="m 453.647,109.711 c 0,-35.768 -28.995,-64.763 -64.763,-64.763 -35.768,0 -64.763,28.995 -64.763,64.763 0,35.768 28.995,64.763 64.763,64.763 35.768,0 64.763,-28.995 64.763,-64.763"
       style="fill:#99a88e;fill-opacity:1;fill-rule:nonzero;stroke:none;stroke-width:0.1"
       id="path94624" />
    <path
       d="m 388.884,83.098 c -23.203,0 -42.722,-6.905 -48.497,-16.2878 11.865,-13.4032 29.189,-21.8622 48.497,-21.8622 19.308,0 36.631,8.459 48.497,21.8622 -5.775,9.3828 -25.294,16.2878 -48.497,16.2878"
       style="fill:#ffffff;fill-opacity:1;fill-rule:nonzero;stroke:none;stroke-width:0.1"
       id="path94628" />
    <path
       d="m 420.341,107.589 c -0.573,8.404 -0.14,17.024 -2.712,25.045 -2.804,8.746 -9.377,16.082 -17.527,20.266 -10.15,4.746 -19.704,1.205 -21.88,0.272 -8.405,-4.132 -15.215,-11.595 -18.083,-20.538 -2.572,-8.021 -2.139,-16.641 -2.712,-25.045 -0.573,-8.4038 -2.475,-17.3109 -8.521,-23.1761 1.644,-0.8418 3.855,-0.3508 4.989,1.107 0.015,-0.7898 0.031,-1.5801 0.046,-2.3699 1.538,-0.3109 3.224,0.768 3.586,2.2941 0.264,-1.3293 1.595,-2.357 2.947,-2.2781 1.353,0.0789 2.555,1.2559 2.662,2.6059 -0.178,-1.3188 1.547,-2.2258 2.81,-1.8071 1.263,0.4192 2.082,1.6102 2.806,2.7262 -0.034,-1.8238 2.425,-3.125 3.913,-2.0711 -0.179,-0.9808 1.024,-1.682 2.02,-1.6301 0.996,0.0524 1.955,0.5172 2.949,0.4372 1.929,-0.1551 3.663,-2.3059 5.429,-1.5149 0.772,0.3469 1.476,1.2359 2.26,0.9168 0.472,-0.1918 0.667,-0.741 0.991,-1.1359 0.609,-0.745 1.651,-0.8348 2.57,-0.4981 0.919,-0.3367 1.961,-0.2469 2.57,0.4981 0.323,0.3949 0.518,0.9441 0.991,1.1359 0.784,0.3191 1.488,-0.5699 2.26,-0.9168 1.766,-0.791 3.5,1.3598 5.429,1.5149 0.994,0.08 1.953,-0.3848 2.949,-0.4372 0.996,-0.0519 2.199,0.6493 2.02,1.6301 1.488,-1.0539 3.947,0.2473 3.913,2.0711 0.724,-1.116 1.543,-2.307 2.806,-2.7262 1.263,-0.4187 2.988,0.4883 2.81,1.8071 0.107,-1.35 1.309,-2.527 2.662,-2.6059 1.352,-0.0789 2.683,0.9488 2.947,2.2781 0.362,-1.5261 2.048,-2.605 3.586,-2.2941 0.015,0.7898 0.031,1.5801 0.046,2.3699 1.134,-1.4578 3.345,-1.9488 4.989,-1.107 -6.046,5.8652 -7.948,14.7723 -8.521,23.1761"
       style="fill:#ffffff;fill-opacity:1;fill-rule:nonzero;stroke:none;stroke-width:0.1"
       id="path94636" />
  </g>
</svg>
