<?xml version="1.0" encoding="UTF-8" standalone="no"?>
<!-- Created with Inkscape (http://www.inkscape.org/) -->

<svg
   width="160.51453mm"
   height="53.887024mm"
   viewBox="0 0 160.51453 53.887024"
   version="1.1"
   id="svg5"
   xml:space="preserve"
   xmlns:inkscape="http://www.inkscape.org/namespaces/inkscape"
   xmlns:sodipodi="http://sodipodi.sourceforge.net/DTD/sodipodi-0.dtd"
   xmlns="http://www.w3.org/2000/svg"
   xmlns:svg="http://www.w3.org/2000/svg"><sodipodi:namedview
     id="namedview7"
     pagecolor="#ffffff"
     bordercolor="#000000"
     borderopacity="0.25"
     inkscape:showpageshadow="2"
     inkscape:pageopacity="0.0"
     inkscape:pagecheckerboard="0"
     inkscape:deskcolor="#d1d1d1"
     inkscape:document-units="mm"
     showgrid="false"
     inkscape:zoom="0.72248176"
     inkscape:cx="397.93392"
     inkscape:cy="562.64396"
     inkscape:window-width="1854"
     inkscape:window-height="1011"
     inkscape:window-x="0"
     inkscape:window-y="0"
     inkscape:window-maximized="1"
     inkscape:current-layer="layer1"
     showguides="false" /><defs
     id="defs2"><style
       id="style1277">
      .cls-1, .cls-2 {
        stroke-width: 12px;
      }

      .cls-1, .cls-2, .cls-3, .cls-4, .cls-5, .cls-6, .cls-7 {
        stroke-miterlimit: 10;
      }

      .cls-1, .cls-2, .cls-5, .cls-7 {
        stroke: #ad8c76;
      }

      .cls-1, .cls-5 {
        fill: none;
      }

      .cls-2 {
        fill: #eaeadd;
      }

      .cls-8 {
        fill: url(#linear-gradient);
      }

      .cls-8, .cls-9, .cls-10, .cls-11, .cls-12, .cls-13, .cls-14, .cls-15, .cls-16, .cls-17, .cls-18, .cls-19, .cls-20, .cls-21, .cls-22, .cls-23, .cls-24 {
        stroke-width: 0px;
      }

      .cls-9, .cls-18 {
        opacity: .11;
      }

      .cls-9, .cls-23 {
        fill: #fff;
      }

      .cls-3 {
        fill: url(#linear-gradient-4);
        opacity: .76;
        stroke: url(#linear-gradient-5);
      }

      .cls-4 {
        fill: #877b68;
        stroke: #5b4f3c;
        stroke-width: .25px;
      }

      .cls-10 {
        fill: #d3675a;
      }

      .cls-11, .cls-7 {
        fill: #eacebf;
      }

      .cls-12 {
        fill: url(#linear-gradient-7);
        opacity: .54;
      }

      .cls-13 {
        fill: #998274;
      }

      .cls-14 {
        fill: #d6cbb7;
      }

      .cls-15 {
        fill: #231f20;
      }

      .cls-16 {
        fill: #efebe0;
      }

      .cls-25 {
        opacity: .43;
      }

      .cls-26 {
        opacity: .64;
      }

      .cls-27 {
        opacity: .59;
      }

      .cls-28 {
        opacity: .62;
      }

      .cls-17 {
        fill: #d8c7b9;
      }

      .cls-29, .cls-6 {
        opacity: .72;
      }

      .cls-5, .cls-7 {
        stroke-width: 11px;
      }

      .cls-18 {
        fill: #eaece7;
      }

      .cls-19 {
        fill: url(#linear-gradient-8);
      }

      .cls-20 {
        fill: url(#linear-gradient-6);
      }

      .cls-6 {
        fill: url(#linear-gradient-2);
        stroke: url(#linear-gradient-3);
      }

      .cls-21 {
        fill: #e2ad9d;
      }

      .cls-22 {
        fill: #b8a28a;
      }

      .cls-24 {
        fill: #c29f90;
      }
    </style><style
       id="style1277-4">
      .cls-1, .cls-2 {
        stroke-width: 12px;
      }

      .cls-1, .cls-2, .cls-3, .cls-4, .cls-5, .cls-6, .cls-7 {
        stroke-miterlimit: 10;
      }

      .cls-1, .cls-2, .cls-5, .cls-7 {
        stroke: #ad8c76;
      }

      .cls-1, .cls-5 {
        fill: none;
      }

      .cls-2 {
        fill: #eaeadd;
      }

      .cls-8 {
        fill: url(#linear-gradient);
      }

      .cls-8, .cls-9, .cls-10, .cls-11, .cls-12, .cls-13, .cls-14, .cls-15, .cls-16, .cls-17, .cls-18, .cls-19, .cls-20, .cls-21, .cls-22, .cls-23, .cls-24 {
        stroke-width: 0px;
      }

      .cls-9, .cls-18 {
        opacity: .11;
      }

      .cls-9, .cls-23 {
        fill: #fff;
      }

      .cls-3 {
        fill: url(#linear-gradient-4);
        opacity: .76;
        stroke: url(#linear-gradient-5);
      }

      .cls-4 {
        fill: #877b68;
        stroke: #5b4f3c;
        stroke-width: .25px;
      }

      .cls-10 {
        fill: #d3675a;
      }

      .cls-11, .cls-7 {
        fill: #eacebf;
      }

      .cls-12 {
        fill: url(#linear-gradient-7);
        opacity: .54;
      }

      .cls-13 {
        fill: #998274;
      }

      .cls-14 {
        fill: #d6cbb7;
      }

      .cls-15 {
        fill: #231f20;
      }

      .cls-16 {
        fill: #efebe0;
      }

      .cls-25 {
        opacity: .43;
      }

      .cls-26 {
        opacity: .64;
      }

      .cls-27 {
        opacity: .59;
      }

      .cls-28 {
        opacity: .62;
      }

      .cls-17 {
        fill: #d8c7b9;
      }

      .cls-29, .cls-6 {
        opacity: .72;
      }

      .cls-5, .cls-7 {
        stroke-width: 11px;
      }

      .cls-18 {
        fill: #eaece7;
      }

      .cls-19 {
        fill: url(#linear-gradient-8);
      }

      .cls-20 {
        fill: url(#linear-gradient-6);
      }

      .cls-6 {
        fill: url(#linear-gradient-2);
        stroke: url(#linear-gradient-3);
      }

      .cls-21 {
        fill: #e2ad9d;
      }

      .cls-22 {
        fill: #b8a28a;
      }

      .cls-24 {
        fill: #c29f90;
      }
    </style></defs><g
     inkscape:label="Capa 1"
     inkscape:groupmode="layer"
     id="layer1"
     transform="translate(-1217.5045,-715.99919)"><g
       id="g64012"
       transform="translate(188.90821,-19.721187)"><ellipse
         style="fill:#434343;fill-opacity:1;stroke:#434343;stroke-width:2.37332;stroke-dasharray:none;stroke-opacity:1;paint-order:stroke fill markers"
         id="path64082"
         cx="1073.1832"
         cy="761.91931"
         rx="22.786911"
         ry="24.179249"
         transform="translate(1.1041666e-6)" /><ellipse
         style="fill:#434343;fill-opacity:1;stroke:#434343;stroke-width:2.36912;stroke-dasharray:none;stroke-opacity:1;paint-order:stroke fill markers"
         id="path64082-8"
         cx="1146.3392"
         cy="763.44727"
         rx="22.987919"
         ry="23.882992"
         transform="translate(1.1041666e-6)" /><path
         style="fill:#adaeb0;stroke-width:0.264583"
         d="m 1138.9235,789.40078 c -2.6618,-0.20137 -2.7693,-0.2349 -4.2333,-1.32004 -1.9051,-1.41207 -3.2219,-2.64623 -3.2219,-3.01958 0,-0.35119 -2.082,-2.36316 -2.4893,-2.40552 -0.7189,-0.0748 -0.7944,-0.13368 -0.4507,-0.35134 0.2804,-0.17759 0.113,-0.4008 -0.7078,-0.944 -0.5913,-0.39128 -1.1446,-0.89274 -1.2296,-1.11434 -0.1052,-0.27404 -0.3558,-0.35245 -0.7834,-0.24513 -0.7256,0.18214 -1.4716,-0.44309 -0.9289,-0.77853 0.2106,-0.13017 0.075,-0.32045 -0.4075,-0.57347 -0.5977,-0.31316 -0.6944,-0.50094 -0.5589,-1.08552 0.1224,-0.52822 0.096,-0.60656 -0.1048,-0.30998 -0.1716,0.2537 -0.27,0.28056 -0.2726,0.0744 0,-0.18179 -0.1827,-0.25387 -0.4136,-0.16525 -0.6321,0.24256 -1.1602,-0.69495 -1.1695,-2.07639 0,-0.68264 -0.1119,-1.30508 -0.2383,-1.3832 -0.1264,-0.0781 -0.3106,-0.64759 -0.4094,-1.26548 -0.099,-0.61788 -0.3497,-1.31128 -0.5575,-1.54088 -0.2078,-0.2296 -0.5019,-1.29272 -0.6536,-2.36249 -0.1843,-1.29913 -0.428,-2.05622 -0.7341,-2.27984 -0.367,-0.26813 -0.4766,-0.84324 -0.5505,-2.88814 -0.084,-2.32119 -0.1441,-2.57423 -0.6615,-2.78296 -0.5146,-0.20761 -0.5205,-0.23122 -0.061,-0.24638 0.2796,-0.009 0.7236,0.17803 0.9866,0.41612 0.4434,0.40126 0.491,0.40003 0.651,-0.0169 0.095,-0.24737 0.045,-0.72934 -0.1105,-1.07105 -0.2499,-0.5484 -0.4945,-0.63179 -2.0853,-0.71074 -1.451,-0.072 -1.8796,-5.2e-4 -2.1991,0.36619 -0.4305,0.4942 -2.4051,0.68999 -3.2846,0.32568 -0.3839,-0.15905 -0.454,-0.12504 -0.2898,0.14065 0.1497,0.2423 0.1149,0.28758 -0.113,0.14677 -0.1812,-0.11202 -1.1223,-0.25073 -2.0914,-0.30825 -2.6338,-0.15634 -3.5986,-0.3184 -4.4139,-0.74137 -0.4057,-0.21049 -1.7984,-0.46568 -3.0948,-0.5671 -2.0137,-0.15753 -2.4121,-0.26822 -2.7341,-0.75962 -0.5379,-0.82086 -1.9371,-5.11559 -1.739,-5.33767 0.091,-0.10225 -0.041,-0.11169 -0.2941,-0.021 -0.2529,0.0907 -0.4315,0.0606 -0.3968,-0.0669 0.035,-0.12749 -0.084,-0.45063 -0.2629,-0.71809 -1.373,-2.04888 -1.659,-2.53277 -1.6628,-2.81315 0,-0.17543 -0.3297,-0.70524 -0.7276,-1.17735 -1.5397,-1.82711 -2.0465,-2.48459 -2.0514,-2.66181 -0.012,-0.42064 -1.0588,-1.90376 -1.344,-1.90376 -0.1699,0 -0.3712,-0.23813 -0.4473,-0.52917 -0.1008,-0.38531 -0.3609,-0.52917 -0.9569,-0.52917 -0.5325,0 -0.8185,-0.1319 -0.8185,-0.37747 0,-0.20761 -0.2084,-0.43684 -0.4631,-0.5094 -0.2546,-0.0726 -0.046,-0.11106 0.4631,-0.0856 0.5815,0.0291 0.9014,0.16942 0.8599,0.37711 -0.038,0.18874 0.198,0.33073 0.5492,0.33073 0.5683,0 1.7659,0.96512 1.7659,1.4232 0,0.10915 0.368,0.50816 0.8178,0.88667 0.9061,0.76237 3.8841,4.65721 4.2116,5.50802 0.1146,0.29802 0.5955,1.36958 1.0686,2.38125 0.473,1.01168 0.8775,1.95847 0.8989,2.10399 0.2882,1.96214 0.8242,3.63256 1.2364,3.85319 0.5455,0.29196 17.337,0.30758 19.2833,0.0179 1.1054,-0.16449 1.1852,-0.22923 1.1138,-0.90389 -0.049,-0.46407 0.071,-0.78322 0.3308,-0.88309 0.2977,-0.11425 0.4075,-0.54325 0.4075,-1.5918 0,-1.71241 0.4828,-2.98747 1.4062,-3.71381 0.3721,-0.2927 1.0838,-1.20825 1.5816,-2.03456 2.3666,-3.92867 4.5935,-6.06541 8.2237,-7.89062 3.7185,-1.86961 4.8163,-2.12621 9.6906,-2.26501 2.4011,-0.0684 6.4492,0.007 8.9958,0.16796 3.8692,0.24424 4.8351,0.39033 5.8767,0.88881 0.6856,0.3281 1.2511,0.73212 1.2568,0.89782 0.01,0.16571 0.4155,0.37731 0.9108,0.47022 0.4953,0.0929 0.9635,0.33306 1.0404,0.53366 0.077,0.2006 0.5052,0.44495 0.9516,0.543 0.4464,0.098 0.8116,0.34739 0.8116,0.55411 0,0.20672 0.1243,0.37585 0.2762,0.37585 0.2501,0 1.4434,0.99424 3.0961,2.57969 0.3413,0.32742 0.7342,0.59532 0.8731,0.59532 0.1389,0 0.2526,0.10051 0.2526,0.22336 0,0.12285 0.4699,0.68863 1.0442,1.2573 1.1623,1.15074 3.4443,4.79568 4.1353,6.60509 0.2467,0.64606 0.5442,1.17466 0.661,1.17466 0.2932,0 0.6718,2.58875 0.745,5.09323 0.022,0.73805 0.142,0.99219 0.47,0.99219 0.2426,0 0.3706,0.0704 0.2845,0.15645 -0.265,0.26501 -1.2546,-0.1706 -1.2546,-0.55226 0,-0.19808 -0.1702,-0.5303 -0.3781,-0.73827 -0.2346,-0.23458 -0.3604,-0.83658 -0.3314,-1.58579 0.035,-0.9125 -0.092,-1.35819 -0.5226,-1.82358 -0.4831,-0.52267 -1.4477,-2.44244 -1.4394,-2.86488 0.01,-0.43423 -0.3283,-1.32292 -0.5013,-1.32292 -0.1128,0 -0.2804,-0.20836 -0.3725,-0.46302 -0.3281,-0.90772 -1.1038,-2.00158 -2.0636,-2.91009 -0.2472,-0.234 -0.4102,-0.49351 -0.3622,-0.57669 0.048,-0.0832 -0.3648,-0.50843 -0.9173,-0.94499 -0.5524,-0.43657 -1.0629,-1.00211 -1.1343,-1.25677 -0.071,-0.25467 -0.3323,-0.46302 -0.5798,-0.46302 -0.2913,0 -0.3963,-0.13998 -0.2977,-0.39688 0.084,-0.21828 0.048,-0.39687 -0.08,-0.39687 -0.1278,0 -0.7329,-0.52514 -1.3446,-1.16697 -1.0066,-1.05613 -4.402,-3.33095 -4.9719,-3.33095 -0.1274,0 -0.4362,-0.22606 -0.6863,-0.50237 -0.747,-0.8255 -3.3066,-1.10234 -10.7398,-1.16156 -5.9913,-0.0477 -7.2149,0.01 -8.4097,0.3956 -1.3154,0.42475 -3.7211,1.58117 -4.5155,2.17056 -0.1965,0.14586 -0.5222,0.28939 -0.7237,0.31896 -1.1299,0.16584 -2.8278,1.67186 -5.4748,4.85616 -0.3555,0.4277 -1.2557,2.04634 -1.8753,3.37209 -0.2414,0.51667 -0.6639,0.91736 -1.0763,1.02087 -0.3734,0.0937 -0.6789,0.32933 -0.6789,0.52358 0,0.19425 -0.2218,0.50877 -0.4928,0.69892 -0.3481,0.2442 -0.5397,0.81195 -0.6522,1.93323 -0.2481,2.47332 -0.473,3.33775 -1.0069,3.87166 -0.2716,0.27168 -0.5006,0.6428 -0.5088,0.8247 -0.017,0.3757 0.01,4.25832 0.036,5.95312 0.011,0.61847 0.1294,1.12448 0.2639,1.12448 0.1344,0 0.248,-0.14883 0.2524,-0.33073 0,-0.18442 0.1268,-0.12676 0.2766,0.13033 0.1477,0.25358 0.2438,0.61077 0.2134,0.79375 -0.055,0.32975 0.085,1.02956 0.5726,2.87784 0.139,0.52671 0.3165,1.95546 0.3943,3.175 0.1584,2.48195 0.6859,3.93715 1.427,3.93715 0.2733,0 0.5504,0.24661 0.6333,0.56353 0.095,0.36404 0.2871,0.50988 0.5423,0.41197 0.2791,-0.1071 0.4469,0.085 0.5721,0.65488 0.1293,0.58894 0.5266,1.02371 1.4729,1.61195 0.7127,0.44303 1.2958,0.90372 1.2958,1.02375 0,0.12004 0.3274,0.38853 0.7276,0.59667 0.8613,0.44797 1.9182,1.33635 1.9182,1.61238 0,0.72704 2.5919,2.78528 3.5075,2.78528 0.1839,0 0.6317,0.26789 0.9952,0.59531 0.9961,0.89734 3.3881,1.98016 5.0161,2.27067 1.9991,0.35673 11.8533,0.20941 12.2458,-0.18308 0.1659,-0.16591 0.6053,-0.30183 0.9763,-0.30206 0.6756,-5.3e-4 1.7742,-0.51241 2.9987,-1.3975 0.3591,-0.25953 0.9083,-0.52105 1.2204,-0.58117 0.7563,-0.14566 2.1442,-1.15045 2.1442,-1.5524 0,-0.17625 0.2539,-0.49556 0.5643,-0.70959 0.8608,-0.59361 1.8169,-1.66719 1.8169,-2.04008 0,-0.18339 0.1786,-0.33343 0.3969,-0.33343 0.2183,0 0.3969,-0.17859 0.3969,-0.39688 0,-0.21828 0.1029,-0.39687 0.2286,-0.39687 0.6362,0 3.6665,-3.52006 5.1953,-6.03487 0.1455,-0.23938 0.4016,-0.55704 0.569,-0.70591 0.1675,-0.14887 0.5654,-1.10412 0.8842,-2.12276 0.3189,-1.01865 0.6879,-2.12558 0.8201,-2.45985 0.1321,-0.33427 0.2403,-0.82199 0.2403,-1.08383 0,-0.26183 0.202,-0.88098 0.4488,-1.37587 0.2469,-0.49489 0.472,-1.37639 0.5003,-1.95888 0.028,-0.58249 0.1537,-1.0609 0.2787,-1.06312 0.1251,-0.002 0.3464,-0.0804 0.492,-0.1738 0.1746,-0.11207 0.2069,1.05808 0.095,3.44363 -0.2196,4.67546 -0.1967,4.53437 -0.5863,3.62089 l -0.3353,-0.78625 -0.4722,1.44771 c -0.6252,1.91706 -2.1575,4.63348 -3.3538,5.94562 -0.5307,0.58208 -1.151,1.41552 -1.3784,1.85208 -0.4954,0.95124 -1.905,2.51354 -2.2678,2.51354 -0.1424,0 -0.3923,0.40402 -0.5553,0.89783 -0.179,0.54236 -0.7004,1.17786 -1.317,1.60515 -0.5613,0.38904 -1.3745,1.09615 -1.8069,1.57136 -1.1771,1.29361 -5.0848,3.10763 -7.1939,3.33958 -2.2761,0.25032 -11.3226,0.23258 -14.78,-0.029 z m -24.0133,-30.29971 c 1.1954,-0.45875 -0.052,-0.63316 -4.5292,-0.63316 -5.8506,0 -6.43,0.46914 -0.7355,0.59557 2.0343,0.0452 3.957,0.10823 4.2725,0.14015 0.3155,0.0319 0.762,-0.0142 0.9922,-0.10256 z m -44.367,29.62279 c -0.3248,-0.1743 -0.918,-0.25175 -1.3182,-0.17211 -0.4052,0.0806 -0.7276,0.0276 -0.7276,-0.11977 0,-0.14552 -0.2844,-0.26459 -0.6321,-0.26459 -0.6727,0 -3.035,-0.7986 -3.4557,-1.1682 -0.1382,-0.12147 -0.4529,-0.22086 -0.6993,-0.22086 -0.2463,0 -0.5169,-0.17969 -0.6012,-0.39933 -0.084,-0.21963 -0.2689,-0.36846 -0.4104,-0.33073 -0.2778,0.0741 -1.762,-1.06082 -2.9684,-2.26996 -0.4122,-0.41308 -0.8991,-0.70117 -1.082,-0.64019 -0.4832,0.16105 -1.025,-0.48161 -0.8314,-0.98612 0.1145,-0.29842 -0.01,-0.47796 -0.3976,-0.57969 -0.3099,-0.0811 -0.5635,-0.30335 -0.5635,-0.494 0,-0.51914 -1.4732,-1.18761 -1.8303,-0.8305 -0.2055,0.20542 -0.2864,0.20166 -0.2864,-0.0133 0,-0.16482 -0.2431,-0.37683 -0.5402,-0.47113 -0.3603,-0.11434 -0.4921,-0.32304 -0.3958,-0.62643 0.1733,-0.54625 -1.342,-2.30332 -2.1143,-2.45148 -0.3815,-0.0732 -0.5333,-0.33437 -0.5653,-0.9724 -0.026,-0.5125 -0.2713,-1.06967 -0.5953,-1.35071 -0.3034,-0.26311 -0.5516,-0.61324 -0.5516,-0.77807 0,-0.16483 -0.1042,-0.2997 -0.2315,-0.2997 -0.1273,0 -0.3226,-0.38695 -0.4339,-0.85989 -0.1112,-0.47295 -0.223,-0.91943 -0.2483,-0.99219 -0.6733,-1.93389 -1.2566,-4.32947 -1.3825,-5.67782 l -0.1607,-1.72128 -6.3783,-0.0781 -6.3783,-0.0781 6.4715,0.007 6.4716,0.007 0.2149,0.92604 c 0.1181,0.50933 0.2722,1.16417 0.3423,1.45521 0.07,0.29104 0.1939,1.00542 0.2752,1.5875 0.081,0.58209 0.2476,1.29646 0.3694,1.5875 0.1218,0.29105 0.367,0.91612 0.5448,1.38907 0.1779,0.47294 0.4136,0.85989 0.5238,0.85989 0.1102,0 0.3483,0.35719 0.5292,0.79375 0.1808,0.43656 0.4248,0.79375 0.5423,0.79375 0.1174,0 0.3627,0.66689 0.5451,1.48197 0.1939,0.86655 0.504,1.54771 0.7466,1.64028 0.8665,0.33061 2.2814,2.24718 1.9978,2.70606 -0.087,0.14141 -0.063,0.26622 0.055,0.27735 0.7827,0.074 1.2755,0.25378 1.3557,0.49452 0.051,0.15344 0.2915,0.28382 0.534,0.28973 0.2425,0.006 0.8577,0.49523 1.367,1.08738 0.5093,0.59215 1.0834,1.2124 1.2758,1.37832 0.1923,0.16593 0.5792,0.51004 0.8598,0.7647 0.2807,0.25467 0.571,0.46303 0.6453,0.46303 0.074,0 0.7221,0.41271 1.4398,0.91714 0.7176,0.50442 1.6392,0.99062 2.0478,1.08043 0.4086,0.0898 0.9216,0.22923 1.1398,0.30981 0.2183,0.0806 0.8666,0.19792 1.4406,0.26073 0.574,0.0628 1.2288,0.19957 1.4552,0.30391 0.5408,0.24932 10.9617,0.20898 12.2871,-0.0476 2.8249,-0.54679 6.0153,-2.26377 8.7619,-4.71547 0.7276,-0.64948 1.8885,-1.50674 2.5797,-1.90504 0.6913,-0.3983 1.2568,-0.81781 1.2568,-0.93225 0,-0.11443 0.3457,-0.73449 0.7683,-1.37791 0.4226,-0.64341 0.8918,-1.64609 1.0427,-2.22817 0.1509,-0.58208 0.4147,-1.61916 0.5861,-2.30462 0.1714,-0.68546 0.4419,-1.22124 0.6012,-1.19063 0.1593,0.0306 0.412,-0.21331 0.5615,-0.54206 0.1496,-0.32875 0.4731,-0.66157 0.7189,-0.7396 0.2459,-0.078 0.5243,-0.49366 0.6187,-0.92363 0.094,-0.42996 0.2642,-0.78175 0.3773,-0.78175 0.1131,0 0.2149,-0.32742 0.2263,-0.72761 0.046,-1.62217 0.6497,-6.58763 0.8682,-7.14375 0.2168,-0.55146 0.3855,-0.59238 2.2902,-0.55557 1.6985,0.0328 1.8507,0.0674 0.8751,0.19844 -1.0928,0.14684 -1.195,0.22751 -1.3681,1.07974 -0.1062,0.52261 -0.4955,1.16695 -0.9,1.48947 -0.6606,0.52677 -0.739,0.80831 -1.0697,3.84146 -0.4033,3.69904 -0.5546,4.37407 -1.0203,4.55281 -0.1803,0.0692 -0.7165,0.94061 -1.1916,1.93653 -0.4751,0.99592 -1.1107,2.28702 -1.4123,2.8691 -0.8413,1.62347 -2.7723,3.7621 -3.6837,4.07983 -0.4499,0.15684 -1.4853,0.94551 -2.3008,1.7526 -0.8155,0.80708 -1.7423,1.61089 -2.0595,1.78625 -0.3171,0.17535 -1.4035,0.87707 -2.4142,1.55938 -1.0107,0.6823 -2.4776,1.44373 -3.2598,1.69207 -0.7822,0.24833 -1.932,0.67704 -2.555,0.95268 -0.7152,0.3164 -1.4468,0.44848 -1.9844,0.35827 -0.4684,-0.0786 -2.0146,-0.0505 -3.436,0.0625 -1.8527,0.14721 -2.7517,0.11562 -3.175,-0.11156 z m 100.7829,-24.90265 c -0.078,-0.12699 0.022,-0.75835 0.2227,-1.40303 0.4151,-1.33189 0.4219,-1.32825 0.4859,0.2602 0.044,1.0816 -0.352,1.71972 -0.7086,1.14283 z m -142.7292,-0.72309 c 0.01,-0.43656 0.065,-0.58312 0.1318,-0.32569 0.067,0.25743 0.063,0.61462 -0.01,0.79375 -0.072,0.17913 -0.1274,-0.0315 -0.122,-0.46806 z m 156.1224,0.4716 c 0.4022,-0.0608 0.9975,-0.0592 1.3229,0.004 0.3254,0.0628 0,0.11256 -0.7312,0.11057 -0.7276,-0.002 -0.9939,-0.0534 -0.5917,-0.11418 z m 2.9225,-0.25583 c 0.7765,-0.1271 0.8569,-0.7732 0.088,-0.70819 -0.239,0.0202 -0.4346,-0.11869 -0.4346,-0.30868 0,-0.18998 -0.1488,-0.40548 -0.3307,-0.47888 -0.1819,-0.0734 -0.071,-0.14285 0.2457,-0.15434 0.317,-0.0115 0.755,0.15771 0.9733,0.37599 0.2183,0.21828 0.5332,0.39687 0.6997,0.39687 0.1666,0 0.2634,0.20836 0.2152,0.46303 -0.065,0.34109 -0.3659,0.47261 -1.1439,0.49943 -0.6769,0.0233 -0.7892,-0.007 -0.3128,-0.0852 z m -158.3523,-1.58713 c 0.191,-0.0764 0.4192,-0.067 0.5071,0.0209 0.088,0.0879 -0.068,0.15046 -0.3473,0.13897 -0.3082,-0.0127 -0.3709,-0.0754 -0.1598,-0.15985 z m 12.7496,-0.34013 5.424,-0.14059 0.063,-0.92604 c 0.5081,-7.39944 1.2755,-9.55849 5.3135,-14.94896 1.823,-2.43364 2.6561,-3.24824 4.8094,-4.70256 1.0914,-0.73712 2.0439,-1.42531 2.1167,-1.52931 0.2243,-0.32067 2.1114,-1.30876 2.4995,-1.30876 0.2018,0 0.4065,-0.0893 0.455,-0.19843 0.1591,-0.35796 2.4444,-1.38767 3.6601,-1.64918 1.7416,-0.37465 12.9865,-0.33844 14.501,0.0467 1.1004,0.27981 1.1664,0.33516 0.5802,0.48643 -0.5542,0.14301 -0.3547,0.26396 1.2297,0.74573 1.0401,0.31627 1.9591,0.75222 2.0422,0.96878 0.083,0.21656 0.3752,0.39374 0.6491,0.39374 0.2739,0 0.8877,0.13585 1.364,0.30189 0.7122,0.24828 0.7897,0.34457 0.4363,0.54231 -0.5393,0.30179 -0.5587,0.7433 -0.033,0.7433 0.2182,0 0.3968,0.11907 0.3968,0.26459 0,0.33746 -0.171,0.33329 -0.8316,-0.0203 -0.2936,-0.15711 -0.4692,-0.44939 -0.3916,-0.65172 0.097,-0.25186 -0.125,-0.41003 -0.707,-0.50457 -0.4664,-0.0757 -1.5043,-0.24946 -2.3066,-0.38604 -0.8023,-0.13658 -2.618,-0.33343 -4.0349,-0.43744 -1.4169,-0.104 -2.5762,-0.26466 -2.5762,-0.35701 0,-0.20736 -8.8122,-0.21439 -8.9958,-0.007 -0.073,0.0821 -1.1443,0.29876 -2.3813,0.48144 -3.0078,0.44423 -4.5225,0.83515 -4.3455,1.12151 0.08,0.12973 -0.07,0.31563 -0.3341,0.41311 -0.2638,0.0975 -0.9239,0.45383 -1.4667,0.79188 -0.5428,0.33805 -1.1222,0.61464 -1.2875,0.61464 -0.3651,0 -3.2414,3.0693 -4.3401,4.63128 -2.2095,3.14106 -2.9975,4.38921 -3.8409,6.08435 -0.5069,1.01864 -1.0262,1.92807 -1.154,2.02094 -0.1277,0.0929 -0.152,0.29877 -0.054,0.45755 0.098,0.15878 0.069,0.49952 -0.065,0.75718 -0.1339,0.25767 -0.3143,1.58296 -0.4009,2.94509 -0.087,1.36212 -0.2949,2.64204 -0.4627,2.84427 -0.245,0.29524 -1.3543,0.35628 -5.6305,0.30983 l -5.3255,-0.0578 z m 35.851,-23.55622 c 0.09,-0.14552 0.044,-0.26458 -0.101,-0.26458 -0.1455,0 -0.3382,0.11906 -0.4281,0.26458 -0.09,0.14552 -0.045,0.26459 0.101,0.26459 0.1456,0 0.3382,-0.11907 0.4281,-0.26459 z m -8.5989,-1.10243 c 0,-0.12126 -0.1786,-0.22048 -0.3969,-0.22048 -0.2183,0 -0.3969,0.0992 -0.3969,0.22048 0,0.12127 0.1786,0.22049 0.3969,0.22049 0.2183,0 0.3969,-0.0992 0.3969,-0.22049 z m 3.4396,0.20725 c 0,-0.23488 -1.0705,-0.35764 -1.206,-0.13831 -0.082,0.13186 0.1565,0.23974 0.5289,0.23974 0.3724,0 0.6771,-0.0456 0.6771,-0.10143 z m 2.3812,-0.0152 c 0,-0.0642 -0.119,-0.19026 -0.2646,-0.2802 -0.1455,-0.0899 -0.2646,-0.0374 -0.2646,0.11668 0,0.1541 0.1191,0.28019 0.2646,0.28019 0.1456,0 0.2646,-0.0525 0.2646,-0.11667 z m 32.7422,23.46695 c 1.7826,-0.0458 4.6997,-0.0458 6.4823,0 1.7826,0.0458 0.3241,0.0832 -3.2412,0.0832 -3.5652,0 -5.0237,-0.0375 -3.2411,-0.0832 z m -24.1119,-6.10167 c -0.073,-0.11765 0.3965,-0.17415 1.0427,-0.12555 1.0326,0.0776 1.1749,0.0234 1.1749,-0.44756 0,-0.69453 0.4296,-0.68718 0.8048,0.0138 0.1618,0.30233 0.4535,0.48852 0.6483,0.41377 0.1949,-0.0748 0.6917,-0.0383 1.1042,0.0809 0.6758,0.19538 0.6375,0.21679 -0.3869,0.21633 -0.6253,-2.7e-4 -1.2984,-0.16194 -1.4957,-0.35923 -0.3019,-0.3019 -0.3824,-0.29693 -0.5084,0.0314 -0.1605,0.4183 -2.1437,0.56485 -2.3839,0.17617 z m 71.2019,-0.17384 c -0.8997,-0.37413 -1.7648,-1.46434 -1.162,-1.46434 0.211,0 0.4521,-0.17859 0.5359,-0.39687 0.2124,-0.5536 1.5707,-0.49982 2.3004,0.0911 0.6683,0.54115 0.5719,1.26164 -0.2073,1.54926 -0.2579,0.0952 -0.5285,0.2525 -0.6013,0.34951 -0.073,0.097 -0.4623,0.0391 -0.8657,-0.12864 z m 1.3658,-0.76778 c 0.3719,-0.44815 -0.058,-0.86644 -1.0292,-1.00148 -0.513,-0.0713 -0.6799,0.0371 -0.7434,0.48289 -0.06,0.42341 0.079,0.60561 0.5292,0.69158 0.3361,0.0642 0.6858,0.13293 0.7771,0.15275 0.091,0.0198 0.3011,-0.12676 0.4663,-0.32574 z m -67.1083,-0.29968 c 0,-0.58209 0.057,-0.78906 0.1204,-0.45994 0.063,0.32912 0.061,0.80537 -0.01,1.05833 -0.066,0.25297 -0.118,-0.0163 -0.1151,-0.59839 z m -5.8215,-0.19844 c 0.053,-0.68517 0.188,-0.86705 0.6656,-0.8951 0.4674,-0.0275 0.4854,-0.009 0.082,0.0825 -0.3201,0.0728 -0.574,0.41437 -0.6655,0.8951 -0.1405,0.73909 -0.1445,0.73502 -0.082,-0.0825 z m 69.2547,0.31511 c 0,-0.15411 0.1191,-0.20661 0.2646,-0.11667 0.1455,0.0899 0.2646,0.21602 0.2646,0.2802 0,0.0642 -0.1191,0.11667 -0.2646,0.11667 -0.1455,0 -0.2646,-0.12609 -0.2646,-0.2802 z m -66.675,-0.57587 c 0,-0.23542 -0.2083,-0.4825 -0.463,-0.54904 -0.2547,-0.0666 0.43,-0.11402 1.5214,-0.10547 1.1605,0.009 1.49,0.0564 0.7937,0.11401 -0.6984,0.0578 -1.3273,0.27833 -1.5213,0.53351 -0.3018,0.39699 -0.3308,0.3976 -0.3308,0.007 z"
         id="path64026"
         sodipodi:nodetypes="sssssssssssscscsssssssssscssssssssssssccscsssssssssssscssssssssscscssssssssssscsssscccssssscsssssssssssssssssscscsssssssssssssssssssssssssssssssssssscssssssssssssssscssssssssssssssssscsssscscccccsscssssssscsssssssssssssssssssssscsssssssssssssssssssccccccsscssccsccssssssscsssssssscccsssssssssssssssscssssssssssssssscssccssssssssssscsssssssssssssssssssssssssssssssscssscccccssssssssssssssssss" /><path
         style="fill:#8e8e8f;stroke-width:0.264583"
         d="m 1140.1669,788.78387 c -1.6575,-0.34416 -3.7015,-1.29908 -4.7175,-2.20398 -0.3676,-0.32742 -0.8189,-0.59531 -1.0028,-0.59531 -0.9156,0 -3.5075,-2.05824 -3.5075,-2.78528 0,-0.27603 -1.0569,-1.16441 -1.9182,-1.61238 -0.4002,-0.20814 -0.7276,-0.47663 -0.7276,-0.59667 0,-0.12003 -0.5831,-0.58072 -1.2958,-1.02375 -0.9463,-0.58824 -1.3436,-1.02301 -1.4729,-1.61195 -0.1252,-0.56988 -0.293,-0.76198 -0.5721,-0.65488 -0.2552,0.0979 -0.4471,-0.0479 -0.5423,-0.41197 -0.083,-0.31692 -0.36,-0.56353 -0.6333,-0.56353 -0.7411,0 -1.2686,-1.4552 -1.427,-3.93715 -0.078,-1.21954 -0.2553,-2.64829 -0.3943,-3.175 -0.488,-1.84828 -0.6272,-2.54809 -0.5726,-2.87784 0.03,-0.18298 -0.066,-0.54017 -0.2134,-0.79375 -0.1498,-0.25709 -0.2721,-0.31475 -0.2766,-0.13033 0,0.1819 -0.118,0.33073 -0.2524,0.33073 -0.1345,0 -0.2532,-0.50601 -0.2639,-1.12448 -0.029,-1.6948 -0.053,-5.57742 -0.036,-5.95312 0.01,-0.1819 0.2372,-0.55302 0.5088,-0.8247 0.5339,-0.53391 0.7588,-1.39834 1.0069,-3.87166 0.1125,-1.12128 0.3041,-1.68903 0.6522,-1.93323 0.271,-0.19015 0.4928,-0.50467 0.4928,-0.69892 0,-0.19425 0.3055,-0.42986 0.6789,-0.52358 0.4124,-0.10351 0.8349,-0.5042 1.0763,-1.02087 0.6196,-1.32575 1.5198,-2.94439 1.8753,-3.37209 2.647,-3.1843 4.3449,-4.69032 5.4748,-4.85616 0.2015,-0.0296 0.5272,-0.1731 0.7237,-0.31896 0.7731,-0.57361 3.1691,-1.7325 4.3765,-2.11681 1.5182,-0.48322 7.6298,-0.73258 10.1362,-0.41356 1.3192,0.16791 0.4687,0.22382 -3.6509,0.24004 -4.4901,0.0177 -5.4784,0.0917 -6.0277,0.45166 -0.3614,0.23679 -0.5867,0.54435 -0.5007,0.68348 0.086,0.13913 -0.059,0.25561 -0.3223,0.25885 -0.2633,0.003 -0.7763,0.23871 -1.1401,0.52328 -0.3638,0.28457 -0.8628,0.52004 -1.1089,0.52328 -0.246,0.003 -0.5128,0.11176 -0.5928,0.24116 -0.08,0.1294 -0.446,0.31072 -0.8134,0.40293 -0.6475,0.16253 -1.2723,0.58442 -2.2872,1.54461 -0.2691,0.25466 -0.5568,0.46302 -0.6393,0.46302 -0.4415,0 -1.9381,1.43749 -2.0783,1.99615 -0.09,0.35733 -0.2799,0.64968 -0.4226,0.64968 -0.1428,0 -0.2596,0.16147 -0.2596,0.35883 0,0.19735 -0.3988,0.88196 -0.8862,1.52135 -0.4874,0.63939 -1.0884,1.5546 -1.3356,2.03379 -0.2471,0.4792 -0.7687,0.99266 -1.1589,1.14103 -0.9036,0.34356 -1.1078,0.67767 -1.1146,1.82417 -0.01,1.1856 -0.4812,2.89766 -0.9255,3.34194 -0.2641,0.26408 -0.3244,1.41711 -0.2573,4.91765 0.048,2.51499 0.1516,4.98942 0.2298,5.49874 0.078,0.50932 0.2125,1.44773 0.2984,2.08533 0.086,0.63762 0.3408,1.44101 0.5664,1.78532 0.2913,0.4445 0.3696,1.00407 0.2701,1.92976 -0.1082,1.0066 -0.05,1.3384 0.2562,1.45583 0.5671,0.21763 0.6176,0.19761 0.6176,-0.24478 0,-0.21828 -0.1261,-0.39687 -0.2802,-0.39687 -0.1541,0 -0.1987,-0.13178 -0.099,-0.29284 0.1262,-0.20413 0.2499,-0.18409 0.4085,0.0661 0.1251,0.19744 0.2292,0.24692 0.2315,0.10997 0,-0.13695 0.1645,-0.0295 0.3608,0.23886 0.1962,0.26832 0.4938,0.40312 0.6614,0.29954 0.5681,-0.35111 0.3087,0.3393 -0.2833,0.75394 -0.3234,0.22653 -0.4298,0.41188 -0.2363,0.41188 0.204,0 0.2878,0.16674 0.1995,0.39687 -0.084,0.21828 -0.037,0.39688 0.104,0.39688 0.1409,0 0.2562,-0.11907 0.2562,-0.26459 0,-0.43159 0.9879,-0.30077 1.1624,0.15393 0.2293,0.59755 0.2074,0.64118 -0.2363,0.47092 -0.2183,-0.0838 -0.3969,-0.0205 -0.3969,0.14059 0,0.1611 0.134,0.2929 0.2977,0.2929 0.1877,0 0.2406,0.28499 0.1433,0.77171 -0.1353,0.67651 -0.058,0.80536 0.6284,1.04457 0.4305,0.15007 0.7827,0.38229 0.7827,0.51604 0,0.13376 0.4806,0.56123 1.068,0.94995 1.412,0.9344 2.3716,1.78108 2.3716,2.09247 0,0.48055 1.444,1.50163 1.9131,1.35276 0.4444,-0.14104 1.7026,0.41631 2.6343,1.16684 0.2455,0.19777 0.5604,0.28906 0.6999,0.20288 0.1394,-0.0862 0.3218,0.0212 0.4052,0.23867 0.083,0.21744 0.4233,0.39718 0.7553,0.39941 0.8343,0.006 1.378,0.393 1.1253,0.80179 -0.1525,0.24681 -0.051,0.29482 0.3842,0.1811 0.3255,-0.0851 1.0882,0.0264 1.695,0.24782 0.6611,0.24122 2.3758,0.44836 4.2783,0.51682 1.7463,0.0628 3.32,0.16548 3.4973,0.22811 0.1772,0.0626 0.3905,0.003 0.4739,-0.1315 0.083,-0.13494 0.7499,-0.32472 1.4811,-0.42173 0.7313,-0.097 1.4912,-0.33793 1.6886,-0.53539 0.1975,-0.19746 0.5766,-0.40706 0.8424,-0.46578 1.06,-0.23412 1.674,-0.49848 1.674,-0.72074 0,-0.12854 0.2906,-0.23372 0.6458,-0.23372 0.3553,0 0.7121,-0.1071 0.793,-0.238 0.081,-0.1309 0.7487,-0.38233 1.4841,-0.55874 0.948,-0.22743 1.4661,-0.52383 1.7806,-1.01877 0.244,-0.38392 0.5205,-0.75756 0.6144,-0.83032 0.2784,-0.21573 3.9921,-3.52679 4.5997,-4.10105 0.4599,-0.43462 2.4617,-2.88596 3.2475,-3.97668 1.6693,-2.31698 2.4347,-6.13482 2.4387,-12.1629 0,-4.02515 -0.2344,-5.41344 -1.3778,-8.06979 -0.2192,-0.50932 -0.5162,-1.29554 -0.6601,-1.74715 -0.3124,-0.98096 -1.6046,-2.83813 -3.2707,-4.70068 -0.6679,-0.74656 -1.2892,-1.56574 -1.3808,-1.8204 -0.092,-0.25466 -0.2893,-0.46302 -0.4394,-0.46302 -0.1501,0 -0.2729,-0.1786 -0.2729,-0.39688 0,-0.21828 -0.109,-0.39687 -0.2421,-0.39687 -0.2383,0 -1.1177,-0.67249 -2.2596,-1.72794 -0.3198,-0.29553 -1.4057,-0.90197 -2.4133,-1.34765 -1.1841,-0.52377 -1.8086,-0.94689 -1.7661,-1.19649 0.1007,-0.59112 -2.3829,-1.3741 -4.9606,-1.56391 l -2.2489,-0.16559 2.0375,-0.0419 c 2.4745,-0.0509 4.6521,0.3716 5.3878,1.04535 0.3005,0.27513 0.6315,0.50023 0.7357,0.50023 0.5353,0 3.9615,2.3151 4.9297,3.33095 0.6117,0.64183 1.2168,1.16697 1.3446,1.16697 0.1278,0 0.1639,0.17859 0.08,0.39687 -0.099,0.2569 0.01,0.39688 0.2977,0.39688 0.2475,0 0.5084,0.20836 0.5798,0.46302 0.071,0.25466 0.5819,0.82021 1.1343,1.25677 0.5525,0.43656 0.9652,0.86181 0.9173,0.94499 -0.048,0.0832 0.115,0.3427 0.3622,0.57669 0.9598,0.90851 1.7355,2.00237 2.0636,2.91009 0.092,0.25466 0.2597,0.46302 0.3725,0.46302 0.173,0 0.5097,0.88869 0.5013,1.32292 -0.01,0.42244 0.9563,2.34221 1.4394,2.86488 0.4302,0.46539 0.5579,0.91108 0.5226,1.82359 -0.029,0.74921 0.097,1.3512 0.3314,1.58578 0.2079,0.20797 0.3781,0.54822 0.3781,0.75611 0,0.20788 0.089,0.37789 0.1984,0.3778 0.1092,-1e-4 0.1985,0.44639 0.1985,0.99218 v 0.99237 l 5.6885,0.14025 5.6885,0.14026 -5.5783,0.0582 c -3.068,0.032 -5.6676,0.14748 -5.7767,0.25662 -0.1091,0.10914 -0.3206,0.19844 -0.4699,0.19844 -0.1493,0 -0.2946,0.47658 -0.3228,1.05907 -0.028,0.58249 -0.2534,1.46399 -0.5003,1.95888 -0.2468,0.49489 -0.4488,1.11404 -0.4488,1.37587 0,0.26184 -0.1082,0.74956 -0.2403,1.08383 -0.1322,0.33427 -0.5012,1.4412 -0.8201,2.45985 -0.3188,1.01864 -0.7167,1.97389 -0.8842,2.12276 -0.1674,0.14887 -0.4235,0.46653 -0.569,0.70591 -1.5288,2.51481 -4.5591,6.03487 -5.1953,6.03487 -0.1257,0 -0.2286,0.17859 -0.2286,0.39687 0,0.21829 -0.1786,0.39688 -0.3969,0.39688 -0.2183,0 -0.3969,0.15004 -0.3969,0.33343 0,0.37289 -0.9561,1.44647 -1.8169,2.04008 -0.3104,0.21403 -0.5643,0.53334 -0.5643,0.70959 0,0.40195 -1.3879,1.40674 -2.1442,1.5524 -0.3121,0.0601 -0.8613,0.32164 -1.2204,0.58117 -1.2245,0.88509 -2.3231,1.39709 -2.9987,1.3975 -0.371,2.3e-4 -0.81,0.13579 -0.9755,0.30124 -0.4266,0.42661 -10.5899,0.52162 -12.5376,0.11721 z m 31.8678,-26.10549 c -0.064,-1.58845 -0.071,-1.59209 -0.4859,-0.2602 -0.3777,1.21174 -0.3041,1.70922 0.2265,1.53094 0.1806,-0.0607 0.2872,-0.5826 0.2594,-1.27074 z m -104.16,24.05256 c -0.1769,-0.0988 -0.7937,-0.2313 -1.3708,-0.2944 -0.577,-0.0631 -1.2278,-0.18065 -1.4461,-0.26124 -0.2182,-0.0806 -0.7312,-0.22 -1.1398,-0.30981 -0.4086,-0.0898 -1.3302,-0.57601 -2.0478,-1.08043 -0.7177,-0.50443 -1.3656,-0.91714 -1.4398,-0.91714 -0.1173,0 -0.4828,-0.30171 -1.4903,-1.23032 -0.8717,-0.80337 -2.5862,-2.73653 -2.4189,-2.72742 0.3467,0.0189 2.09,1.67851 2.4202,2.30409 0.1728,0.32742 0.4362,0.59531 0.5854,0.59531 0.1491,0 0.8076,0.40961 1.4632,0.91025 2.5527,1.9491 5.9054,2.53548 13.7251,2.40049 6.4896,-0.11203 6.9794,-0.18137 9.135,-1.29345 1.6176,-0.83447 2.248,-1.25025 3.2638,-2.15254 0.1657,-0.14715 1.0082,-0.86153 1.8722,-1.5875 2.0661,-1.73586 3.5884,-3.17887 3.5884,-3.40133 0,-0.0984 0.2866,-0.62286 0.6369,-1.16544 0.3503,-0.54259 0.8321,-1.86796 1.0707,-2.94528 0.498,-2.24838 0.7034,-2.69599 1.8624,-4.05809 0.8315,-0.97717 1.2128,-2.16783 1.6317,-5.09565 0.1041,-0.7276 0.1635,-1.56104 0.1321,-1.85208 -0.032,-0.29105 -0.1284,-1.42214 -0.2153,-2.51355 -0.087,-1.0914 -0.2612,-2.18313 -0.3872,-2.42605 -0.1479,-0.28498 -0.1195,-0.47823 0.08,-0.54472 0.2061,-0.0687 0.04,-0.6711 -0.4985,-1.80729 -0.6936,-1.46345 -1.0793,-2.34269 -1.2701,-2.89485 -0.6674,-1.93201 -1.5771,-3.89937 -2.1509,-4.65165 -0.345,-0.45224 -0.6291,-0.93008 -0.6314,-1.06187 0,-0.13178 -0.6528,-0.94963 -1.4456,-1.81744 -1.3622,-1.49116 -1.4901,-1.97571 -0.5255,-1.98999 0.2585,-0.004 1.2976,1.50455 1.3087,1.89972 0.01,0.17722 0.5117,0.8347 2.0514,2.66181 0.3979,0.47211 0.7253,1.00192 0.7276,1.17736 0,0.28037 0.2898,0.76427 1.6628,2.81314 0.1792,0.26747 0.2975,0.5906 0.2629,0.71809 -0.035,0.12748 0.1439,0.15757 0.3968,0.0669 0.253,-0.0907 0.3853,-0.0813 0.2941,0.021 -0.1981,0.22208 1.2011,4.51681 1.739,5.33767 0.322,0.4914 0.7204,0.60209 2.7341,0.75962 1.2964,0.10142 2.6891,0.35661 3.0948,0.5671 0.8153,0.42297 1.7801,0.58503 4.4139,0.74137 0.9691,0.0575 1.9102,0.19623 2.0914,0.30825 0.2279,0.14081 0.2627,0.0955 0.113,-0.14677 -0.1642,-0.26569 -0.094,-0.2997 0.2898,-0.14065 0.8795,0.36431 2.8541,0.16852 3.2846,-0.32568 0.3195,-0.36684 0.7481,-0.4382 2.1991,-0.36619 1.5908,0.0789 1.8354,0.16234 2.0853,0.71074 0.1557,0.34171 0.2054,0.82368 0.1105,1.07105 -0.157,0.40894 -0.2141,0.41223 -0.6301,0.0362 -0.3804,-0.3438 -1.3499,-0.41828 -5.7492,-0.44167 -2.9104,-0.0155 -7.2374,0.0537 -9.6154,0.15379 -4.0589,0.17077 -4.337,0.21589 -4.5392,0.73638 -0.2044,0.52628 -0.8054,5.55091 -0.8496,7.10289 -0.011,0.40019 -0.1132,0.72761 -0.2263,0.72761 -0.1131,0 -0.2828,0.35179 -0.3773,0.78175 -0.094,0.42997 -0.3728,0.84561 -0.6187,0.92363 -0.2458,0.078 -0.5693,0.41085 -0.7189,0.7396 -0.1495,0.32875 -0.4022,0.57268 -0.5615,0.54206 -0.1593,-0.0306 -0.4298,0.50517 -0.6012,1.19063 -0.1714,0.68546 -0.4352,1.72254 -0.5861,2.30462 -0.1509,0.58208 -0.6201,1.58476 -1.0427,2.22817 -0.4226,0.64342 -0.7683,1.26348 -0.7683,1.37791 0,0.11444 -0.5655,0.53395 -1.2568,0.93225 -0.6912,0.3983 -1.8521,1.25556 -2.5797,1.90504 -2.7481,2.453 -5.9443,4.17262 -8.7619,4.71402 -1.2921,0.24829 -11.9315,0.28271 -12.366,0.04 z m 31.557,-26.72167 c 0.1775,0.27493 3.7883,0.41065 4.544,0.17079 0.2778,-0.0882 0.5051,-0.32714 0.5051,-0.53105 0,-0.20893 -0.1616,-0.30875 -0.3701,-0.22871 -0.2036,0.0781 -0.4361,0.0353 -0.5167,-0.0952 -0.081,-0.13045 -1.0047,-0.19931 -2.0535,-0.15301 -1.0487,0.0463 -2.0513,-0.0357 -2.2278,-0.18229 -0.3402,-0.28231 -1.1819,-0.084 -1.1819,0.27849 0,0.11805 -0.073,0.40519 -0.1625,0.63809 -0.1395,0.36335 -0.058,0.38374 0.5733,0.14367 0.4294,-0.16323 0.8001,-0.18024 0.8901,-0.0408 z m -44.8927,19.44953 c -0.1828,-0.0737 -0.2652,-0.24268 -0.1831,-0.37552 0.082,-0.13284 -0.036,-0.50635 -0.2629,-0.83002 -0.2267,-0.32368 -0.4122,-0.70757 -0.4122,-0.85309 0,-0.36698 0.7305,0.71078 1.0483,1.54655 0.1438,0.37833 0.2347,0.67846 0.2019,0.66697 -0.033,-0.0115 -0.2092,-0.0812 -0.392,-0.15489 z m -2.5681,-3.24779 c -0.084,-0.13671 0.087,-0.23044 0.3812,-0.20828 0.2942,0.0222 0.5349,0.13402 0.5349,0.24857 0,0.29257 -0.7303,0.26045 -0.9161,-0.0403 z m -0.3965,-1.66966 c -0.1857,-0.69122 -0.4282,-1.25677 -0.5388,-1.25677 -0.1106,0 -0.349,-0.35719 -0.5298,-0.79375 -0.1809,-0.43656 -0.419,-0.79375 -0.5292,-0.79375 -0.1102,0 -0.3459,-0.38695 -0.5238,-0.85989 -0.1778,-0.47295 -0.423,-1.09802 -0.5448,-1.38907 -0.1218,-0.29104 -0.288,-1.00541 -0.3694,-1.5875 -0.081,-0.58208 -0.2089,-1.29646 -0.2836,-1.5875 -0.075,-0.29104 -0.209,-0.92546 -0.2985,-1.40982 -0.1,-0.53919 -0.3807,-0.97809 -0.725,-1.13194 l -0.5622,-0.25129 0.5699,0.10834 c 0.4623,0.0879 0.5917,-0.04 0.6852,-0.67747 0.064,-0.43455 -0.036,-0.93668 -0.2221,-1.12331 -0.2162,-0.21621 -0.246,-0.42899 -0.083,-0.59213 0.1401,-0.14005 0.326,-1.3766 0.4133,-2.74788 0.087,-1.37129 0.2681,-2.70407 0.402,-2.96174 0.1339,-0.25766 0.1632,-0.5984 0.065,-0.75718 -0.098,-0.15879 -0.074,-0.36468 0.054,-0.45755 0.1278,-0.0929 0.6471,-1.0023 1.154,-2.02094 0.8434,-1.69514 1.6314,-2.94329 3.8409,-6.08435 1.0987,-1.56198 3.975,-4.63128 4.3401,-4.63128 0.1653,0 0.7447,-0.27659 1.2875,-0.61464 0.5428,-0.33805 1.2029,-0.6944 1.4667,-0.79188 0.2639,-0.0975 0.4142,-0.28338 0.3341,-0.41311 -0.1511,-0.24441 1.8355,-0.84207 2.6768,-0.80531 0.3612,0.0158 0.3811,0.0533 0.081,0.15336 -0.8447,0.28195 -4.8994,2.34494 -4.983,2.53529 -0.048,0.11048 -0.2282,0.20087 -0.3993,0.20087 -0.1712,0 -0.4599,0.23813 -0.6417,0.52917 -0.1817,0.29104 -0.508,0.52917 -0.7251,0.52917 -0.217,0 -0.3946,0.10054 -0.3946,0.22343 0,0.12288 -0.2975,0.56937 -0.6612,0.99219 -0.3636,0.42281 -0.6612,0.86835 -0.6614,0.99008 -2e-4,0.12173 -0.3387,0.71705 -0.7523,1.32292 -1.4272,2.09084 -2.28,3.48691 -2.871,4.70002 -0.3262,0.66945 -0.7755,1.36864 -0.9986,1.55375 -0.223,0.18511 -0.4055,0.50058 -0.4055,0.70105 0,0.20046 -0.1786,0.36447 -0.3969,0.36447 -0.2183,0 -0.406,0.14883 -0.4171,0.33073 -0.011,0.1819 -0.056,0.50933 -0.1,0.72761 -0.5308,2.65861 -0.624,3.94903 -0.5635,7.80521 0.075,4.7933 0.2212,5.76326 0.9913,6.58987 0.3725,0.39984 0.4089,0.57238 0.1553,0.73647 -0.2382,0.15415 -0.2483,0.26996 -0.036,0.41272 0.1623,0.10914 0.3847,0.49609 0.4943,0.8599 0.1096,0.3638 0.3414,0.84005 0.5152,1.05833 0.5736,0.7205 1.2623,2.57251 1.1441,3.07656 -0.075,0.32147 -0.2347,0.0542 -0.454,-0.76146 z m -21.5077,-10.97683 c 0.764,-0.0534 2.0141,-0.0534 2.7781,0 0.764,0.0534 0.1389,0.0972 -1.389,0.0972 -1.528,0 -2.1531,-0.0437 -1.3891,-0.0972 z m 18.9952,-0.31582 c -0.1808,-0.29243 0.2366,-0.60819 0.4809,-0.36387 0.2516,0.25156 0.2047,0.61017 -0.08,0.61017 -0.1369,0 -0.3174,-0.11084 -0.4011,-0.2463 z m 137.4397,-10e-4 c 0.3638,-0.1259 0.498,-0.24077 0.2983,-0.25527 -0.2734,-0.0199 -0.2903,-0.11413 -0.068,-0.38145 0.1621,-0.19529 0.2163,-0.43342 0.1206,-0.52917 -0.096,-0.0957 -2.2081,-0.20061 -4.6941,-0.23302 l -4.5199,-0.0589 4.2333,-0.0829 c 4.5749,-0.0895 5.4239,0.003 5.4239,0.59432 0,0.21989 0.158,0.32293 0.3702,0.2415 0.3306,-0.12688 0.8793,0.33245 0.6485,0.54289 -0.051,0.0465 -0.6284,0.15341 -1.2832,0.23766 -0.8455,0.1088 -0.9989,0.0869 -0.5292,-0.0757 z m -155.901,-1.53173 c 0.4756,-0.0589 1.1899,-0.0577 1.5875,0.003 0.3976,0.0604 0.01,0.10855 -0.8646,0.10706 -0.8732,-0.002 -1.1984,-0.0509 -0.7229,-0.10976 z m 52.9728,-7.35523 c -0.1841,-0.2218 -0.2582,-0.47977 -0.1647,-0.57326 0.093,-0.0935 0.17,-0.0273 0.17,0.14721 0,0.17446 0.2679,0.42488 0.5953,0.55649 0.4029,0.16193 0.4561,0.24471 0.1647,0.25606 -0.2369,0.009 -0.5812,-0.1647 -0.7653,-0.3865 z m 4.3862,0.16336 c -0.082,-0.13195 0.09,-0.17759 0.3812,-0.10143 0.6178,0.16155 0.6959,0.34134 0.1483,0.34134 -0.2097,0 -0.448,-0.10796 -0.5295,-0.23991 z m 66.9399,-0.16538 c -0.5925,-0.44809 -0.3531,-0.51689 0.3987,-0.11457 0.2885,0.15442 0.5117,0.16788 0.5117,0.0309 0,-0.13367 0.2376,-0.30515 0.5279,-0.38107 0.8356,-0.21853 0.9752,-0.99005 0.2807,-1.55239 -0.7297,-0.5909 -2.088,-0.64468 -2.3004,-0.0911 -0.084,0.21828 -0.2857,0.39687 -0.4487,0.39687 -0.163,0 0.019,-0.31579 0.4054,-0.70177 0.6498,-0.6498 0.7626,-0.67654 1.5243,-0.36106 0.4524,0.18739 1.059,0.64135 1.348,1.00879 l 0.5255,0.66809 -0.8652,0.74055 c -0.9945,0.85122 -1.2027,0.89016 -1.9079,0.35678 z m -68.7622,-0.27836 c 0.088,-0.23048 0.235,-0.31977 0.3256,-0.19843 0.091,0.12134 0.2724,0.30992 0.4041,0.41906 0.1317,0.10914 -0.015,0.19843 -0.3255,0.19843 -0.4068,0 -0.5199,-0.11733 -0.4042,-0.41906 z m 65.4191,-0.30854 c -0.011,-0.10914 -0.06,-0.40632 -0.1088,-0.66041 -0.1516,-0.79156 0.4198,-0.82729 1.1218,-0.0701 0.6311,0.68062 0.6375,0.71365 0.1041,0.54437 -0.3385,-0.10745 -0.5677,-0.0662 -0.5677,0.10221 0,0.31607 -0.5177,0.39519 -0.5494,0.084 z m 1.8292,-0.29821 c -0.2339,-0.27316 -0.3441,-0.62792 -0.2449,-0.78836 0.1096,-0.17745 0.3627,0.0171 0.646,0.49665 0.5177,0.8764 0.26,1.06381 -0.4011,0.29171 z m -68.7982,-1.80076 c 0.191,-0.0764 0.4192,-0.067 0.5071,0.0209 0.088,0.0879 -0.068,0.15045 -0.3472,0.13896 -0.3083,-0.0127 -0.371,-0.0754 -0.1599,-0.15985 z m 5.0714,-9.21836 c -0.1841,-0.2218 -0.2633,-0.47463 -0.1761,-0.56185 0.2709,-0.27095 0.9751,0.13341 0.9751,0.55994 0,0.51822 -0.3698,0.5191 -0.799,0.002 z m -2.4421,-1.20225 c -0.5457,-0.28808 -0.9922,-0.63151 -0.9922,-0.76315 0,-0.47239 -0.8449,-1.07131 -1.5402,-1.0918 -0.3898,-0.0115 -0.5535,-0.0831 -0.3638,-0.15908 0.682,-0.27322 2.1095,0.17005 2.072,0.64341 -0.024,0.30598 0.3257,0.5777 1.0888,0.84546 0.6184,0.21701 1.1245,0.54707 1.1245,0.73346 0,0.44718 -0.206,0.41629 -1.3891,-0.2083 z m -5.7767,-2.19584 c -0.3614,-0.3186 -12.5942,-0.56024 -15.853,-0.31316 -1.4459,0.10964 -1.4443,0.1085 0.2646,-0.17798 0.9459,-0.15858 1.7793,-0.35896 1.8521,-0.44531 0.1801,-0.21372 8.9958,-0.21211 8.9958,0.002 0,0.0936 1.1609,0.25559 2.5797,0.36009 1.4188,0.1045 3.0559,0.28474 3.638,0.40053 l 1.0584,0.21053 -1.2127,0.0304 c -0.667,0.0167 -1.2623,-0.0133 -1.3229,-0.0668 z m -4.079,-1.22573 c 0.09,-0.14552 0.2826,-0.26458 0.4281,-0.26458 0.1455,0 0.191,0.11906 0.101,0.26458 -0.09,0.14552 -0.2825,0.26459 -0.4281,0.26459 -0.1455,0 -0.191,-0.11907 -0.101,-0.26459 z m -8.8636,-1.10243 c 0,-0.12126 0.1786,-0.22048 0.3969,-0.22048 0.2183,0 0.3969,0.0992 0.3969,0.22048 0,0.12127 -0.1786,0.22049 -0.3969,0.22049 -0.2183,0 -0.3969,-0.0992 -0.3969,-0.22049 z m 3.0274,0.0689 c 0.082,-0.13186 0.3862,-0.1775 0.6771,-0.10143 0.728,0.19038 0.6625,0.34117 -0.1482,0.34117 -0.3724,0 -0.6104,-0.10788 -0.5289,-0.23974 z m 3.058,-0.0404 c 0,-0.15411 0.1191,-0.20662 0.2646,-0.11668 0.1456,0.0899 0.2646,0.21603 0.2646,0.2802 0,0.0642 -0.119,0.11667 -0.2646,0.11667 -0.1455,0 -0.2646,-0.12609 -0.2646,-0.28019 z"
         id="path64024"
         sodipodi:nodetypes="ssssssssssssssccsccssssssssssssssssssssscssssscssssssssssscsssssssssssssssssssccssssscssssssssssscssscssssssscssssssscssssscsssssscccsssssssssssssssssssssssssssssssssssssssssssssscsssssscsscscscssssssssssssssssscscsssssssssssssssscssssssssssssssssssscssssscccscsscscssssssssssccsssssssssssscsssssscccssssssssscsssscssssscccccccscsssscsscssssssscsscsssccsscscsssssssssssssssssssssssssssssssssscssssssssssssscsscsssss" /><path
         style="fill:#6f6f6f;stroke-width:0.264583"
         d="m 1148.6372,788.24861 c -0.062,-0.062 -1.5988,-0.16849 -3.4153,-0.23677 -1.9977,-0.0751 -3.7385,-0.28344 -4.4059,-0.52731 -0.6068,-0.22175 -1.3695,-0.33353 -1.695,-0.24842 -0.4349,0.11372 -0.5367,0.0657 -0.3842,-0.1811 0.2527,-0.40879 -0.291,-0.79619 -1.1253,-0.80179 -0.332,-0.002 -0.6719,-0.18197 -0.7553,-0.39941 -0.083,-0.21745 -0.2658,-0.32484 -0.4052,-0.23867 -0.1395,0.0862 -0.4544,-0.005 -0.6999,-0.20288 -0.9317,-0.75053 -2.1899,-1.30788 -2.6343,-1.16684 -0.4691,0.14887 -1.9131,-0.87221 -1.9131,-1.35276 0,-0.31139 -0.9596,-1.15807 -2.3716,-2.09247 -0.5874,-0.38872 -1.068,-0.81619 -1.068,-0.94995 0,-0.13375 -0.3522,-0.36597 -0.7827,-0.51604 -0.6862,-0.23921 -0.7637,-0.36806 -0.6284,-1.04457 0.097,-0.48672 0.044,-0.77171 -0.1433,-0.77171 -0.1637,0 -0.2977,-0.1318 -0.2977,-0.2929 0,-0.16108 0.1919,-0.21927 0.4263,-0.12929 0.3121,0.11975 0.383,0.0506 0.2646,-0.25791 -0.089,-0.23184 -0.1617,-0.47131 -0.1617,-0.53217 0,-0.0609 -0.2381,-0.11065 -0.5292,-0.11065 -0.291,0 -0.5292,0.11906 -0.5292,0.26458 0,0.14552 -0.1153,0.26459 -0.2562,0.26459 -0.141,0 -0.1878,-0.1786 -0.104,-0.39688 0.088,-0.23013 0,-0.39687 -0.1995,-0.39687 -0.1935,0 -0.087,-0.18535 0.2363,-0.41188 0.592,-0.41464 0.8514,-1.10505 0.2833,-0.75394 -0.1676,0.10358 -0.4652,-0.0312 -0.6614,-0.29954 -0.1963,-0.26833 -0.3586,-0.37581 -0.3608,-0.23886 0,0.13695 -0.1064,0.0875 -0.2315,-0.10997 -0.1586,-0.25024 -0.2823,-0.27028 -0.4085,-0.0661 -0.1,0.16106 -0.055,0.29284 0.099,0.29284 0.1541,0 0.2802,0.19133 0.2802,0.42518 0,0.27901 -0.1438,0.36997 -0.4185,0.26458 -0.2302,-0.0883 -0.4593,-0.1606 -0.5091,-0.1606 -0.05,0 -0.027,-0.59559 0.052,-1.32353 0.1017,-0.94557 0.025,-1.50232 -0.2679,-1.94957 -0.2256,-0.34431 -0.4804,-1.1477 -0.5664,-1.78532 -0.086,-0.6376 -0.2202,-1.57601 -0.2984,-2.08533 -0.078,-0.50932 -0.1816,-2.98375 -0.2298,-5.49874 -0.067,-3.50054 -0.01,-4.65357 0.2573,-4.91765 0.4443,-0.44428 0.9184,-2.15634 0.9255,-3.34194 0.01,-1.1465 0.211,-1.48061 1.1146,-1.82417 0.3902,-0.14837 0.9118,-0.66183 1.1589,-1.14103 0.2472,-0.47919 0.8482,-1.3944 1.3356,-2.03379 0.4874,-0.63939 0.8862,-1.324 0.8862,-1.52135 0,-0.19736 0.1168,-0.35883 0.2596,-0.35883 0.1427,0 0.3329,-0.29235 0.4226,-0.64968 0.1402,-0.55866 1.6368,-1.99615 2.0783,-1.99615 0.082,0 0.3702,-0.20836 0.6393,-0.46302 1.0149,-0.96019 1.6397,-1.38208 2.2872,-1.54461 0.3674,-0.0922 0.7334,-0.27353 0.8134,-0.40293 0.08,-0.1294 0.3468,-0.23792 0.5928,-0.24116 0.2461,-0.003 0.7451,-0.23871 1.1089,-0.52328 0.3638,-0.28457 0.8768,-0.52005 1.1401,-0.52328 0.2632,-0.003 0.4083,-0.11972 0.3223,-0.25885 -0.086,-0.13913 0.1422,-0.44854 0.507,-0.68759 0.5758,-0.37728 1.6184,-0.43281 7.9027,-0.42084 6.7148,0.0128 7.3675,0.0558 9.0053,0.59345 1.2376,0.4063 1.7451,0.69934 1.6968,0.9798 -0.046,0.2675 0.5382,0.66874 1.7629,1.21047 1.0076,0.44568 2.0935,1.05212 2.4133,1.34765 1.1419,1.05545 2.0213,1.72794 2.2596,1.72794 0.1331,0 0.2421,0.17859 0.2421,0.39687 0,0.21828 0.1228,0.39688 0.2729,0.39688 0.1501,0 0.3478,0.20836 0.4394,0.46302 0.092,0.25466 0.7129,1.07384 1.3808,1.8204 1.6661,1.86255 2.9583,3.71972 3.2707,4.70068 0.1439,0.45161 0.4409,1.23783 0.6601,1.74715 1.1434,2.65635 1.3804,4.04464 1.3778,8.06979 0,6.02808 -0.7694,9.84592 -2.4387,12.1629 -0.7858,1.09072 -2.7876,3.54206 -3.2475,3.97668 -0.6076,0.57426 -4.3213,3.88532 -4.5997,4.10105 -0.094,0.0728 -0.3704,0.4464 -0.6144,0.83032 -0.3145,0.49494 -0.8326,0.79134 -1.7806,1.01877 -0.7354,0.17641 -1.4032,0.42784 -1.4841,0.55874 -0.081,0.1309 -0.4377,0.238 -0.793,0.238 -0.3552,0 -0.6458,0.10518 -0.6458,0.23372 0,0.22226 -0.614,0.48662 -1.674,0.72074 -0.2658,0.0587 -0.6439,0.2673 -0.8401,0.46352 -0.1962,0.19622 -0.9192,0.43385 -1.6066,0.52807 -0.6874,0.0942 -1.3919,0.28918 -1.5655,0.43325 -0.1736,0.14407 -0.3663,0.21126 -0.4282,0.14931 z m 1.9991,-2.12763 c 1.3251,-0.39478 2.7197,-1.01162 5.7654,-2.55015 0.2526,-0.12764 0.7884,-0.23139 1.1906,-0.23054 0.5228,10e-4 1.0328,-0.32339 1.7895,-1.13849 1.1434,-1.23172 2.8455,-2.56722 3.2718,-2.56722 0.1454,0 0.34,-0.23812 0.4324,-0.52916 0.092,-0.29105 0.2701,-0.52917 0.395,-0.52917 0.4541,0 2.808,-2.57376 3.9243,-4.2908 1.7989,-2.76695 2.5545,-6.59597 2.3381,-11.84879 -0.1665,-4.04344 -1.3866,-7.7188 -3.5893,-10.8122 -0.305,-0.42837 -0.5546,-0.89192 -0.5546,-1.03011 0,-0.35651 -1.1153,-1.51514 -1.6595,-1.72397 -0.2514,-0.0965 -0.4572,-0.4173 -0.4572,-0.71291 0,-0.29561 -0.1674,-0.53747 -0.3721,-0.53747 -0.2355,0 -0.3237,-0.18482 -0.2404,-0.50366 0.091,-0.34826 -0.04,-0.55823 -0.4254,-0.68051 -0.3065,-0.0973 -0.497,-0.27431 -0.4234,-0.39344 0.074,-0.11913 -0.133,-0.39176 -0.4592,-0.60586 -0.3261,-0.21409 -0.9726,-0.74426 -1.4365,-1.17815 -1.0952,-1.02419 -3.423,-1.85965 -6.0527,-2.17232 -1.1548,-0.1373 -5.5524,-0.22499 -9.7725,-0.19486 l -7.673,0.0548 -1.7198,0.72455 c -0.9458,0.3985 -2.7223,1.40727 -3.9477,2.2417 -1.9299,1.31413 -2.2697,1.66211 -2.5397,2.60044 -0.3622,1.25919 -1.4491,3.28233 -1.7634,3.28233 -0.1187,0 -0.2158,0.22354 -0.2158,0.49677 0,0.27322 -0.1761,0.64294 -0.3914,0.82159 -0.7194,0.59707 -1.2239,1.96932 -1.5669,4.2626 -0.2524,1.68739 -0.4905,2.4241 -0.9235,2.85703 -0.5246,0.52469 -0.5812,0.84147 -0.5627,3.15028 0.011,1.41182 -0.025,2.88877 -0.082,3.28212 -0.095,0.6647 0.2757,2.43091 0.7165,3.41253 0.1047,0.23295 0.1651,0.5306 0.1344,0.66146 -0.031,0.13085 0.082,0.57308 0.2514,0.98274 0.169,0.40965 0.3073,0.91567 0.3073,1.12448 0,0.2088 0.1261,0.37965 0.2802,0.37965 0.1541,0 0.2117,0.11084 0.128,0.2463 -0.084,0.13547 -0.042,0.31418 0.092,0.39714 0.1343,0.083 0.1818,0.38884 0.1058,0.67974 -0.077,0.29562 -0.01,0.5289 0.1571,0.5289 0.1625,0 0.5336,0.23813 0.8246,0.52917 0.2911,0.29104 0.5292,0.46545 0.5292,0.38757 0,-0.0779 0.2493,-0.008 0.5541,0.15494 0.3438,0.18402 0.5076,0.47449 0.4315,0.76548 -0.067,0.25791 -0.01,0.67862 0.1381,0.93489 0.1868,0.33389 0.1583,0.53774 -0.1008,0.71919 -0.2665,0.18671 -0.2785,0.28716 -0.046,0.38246 0.1737,0.0711 0.2599,0.27516 0.1914,0.45352 -0.1243,0.32389 1.2132,2.02278 1.5924,2.02278 0.1103,0 0.966,0.70149 1.9017,1.55887 1.5391,1.41028 1.8708,1.59042 3.4801,1.88997 0.9784,0.1821 2.0138,0.49264 2.3008,0.69009 0.2871,0.19744 0.6858,0.35899 0.8861,0.35899 0.2003,0 0.7393,0.16683 1.1979,0.37073 1.4494,0.6445 2.6484,1.01959 3.8764,1.21267 2.0192,0.31748 6.1048,0.11366 7.791,-0.38867 z m 4.1153,-30.2989 c 0,-0.62496 -1.0888,-1.32292 -2.0638,-1.32292 -0.5529,0 -1.1482,-0.14287 -1.3229,-0.3175 -0.9411,-0.94115 0.3125,-3.05165 1.6597,-2.79411 0.3747,0.0716 0.7404,0.0347 0.8125,-0.0821 0.072,-0.11679 0.4881,-0.39035 0.9242,-0.60791 0.4361,-0.21757 0.7322,-0.29734 0.658,-0.17727 -0.074,0.12006 0.1322,0.28616 0.4586,0.36909 0.3264,0.0829 0.971,0.49702 1.4324,0.92019 0.5608,0.51436 1.0651,0.74456 1.5214,0.69448 1.2659,-0.13896 0.7587,0.61487 -0.9694,1.4408 -0.6902,0.32987 -1.502,0.94674 -1.804,1.37081 -0.5312,0.74609 -1.3067,1.04665 -1.3067,0.50646 z m 2.0558,-1.8204 0.8652,-0.74055 -0.5255,-0.66809 c -0.289,-0.36744 -0.8924,-0.82007 -1.3409,-1.00583 -0.7569,-0.31352 -0.8714,-0.28407 -1.5965,0.41056 -0.4295,0.41157 -0.7828,0.63674 -0.7851,0.50037 0,-0.13636 -0.1176,-0.0693 -0.2565,0.14894 -0.2107,0.33118 -0.3432,0.34065 -0.8004,0.0572 -0.6849,-0.42455 -1.056,-0.21647 -0.9154,0.51335 0.1435,0.74528 0.3723,0.94268 0.6229,0.53733 0.1128,-0.18262 0.404,-0.25573 0.647,-0.16247 0.2784,0.10681 0.4434,0.0367 0.4459,-0.18948 0,-0.28948 0.046,-0.29257 0.2217,-0.016 0.2287,0.36039 1.8345,1.29639 2.2878,1.33352 0.1456,0.0119 0.654,-0.31158 1.1298,-0.71888 z m -89.2797,31.97912 c -2.5394,-0.27155 -5.0853,-1.15204 -6.5377,-2.26097 -0.6556,-0.50064 -1.3145,-0.91025 -1.4641,-0.91025 -0.1496,0 -0.4246,-0.27961 -0.6112,-0.62137 -0.4793,-0.87814 -2.2541,-2.36315 -2.5821,-2.16047 -0.1509,0.0933 -0.3457,-0.0166 -0.4331,-0.2441 -0.087,-0.2275 -0.3712,-0.41364 -0.6309,-0.41364 -0.2784,0 -0.5379,-0.26192 -0.6323,-0.6383 -0.088,-0.35107 -0.5178,-0.97576 -0.9548,-1.38821 -0.4369,-0.41244 -0.7945,-0.89911 -0.7945,-1.08149 0,-0.18237 -0.089,-0.31749 -0.1984,-0.30025 -0.5907,0.0933 -0.7967,-0.0835 -0.6686,-0.57359 0.1406,-0.53748 -0.5278,-2.39827 -1.1357,-3.16191 -0.1738,-0.21828 -0.4056,-0.69453 -0.5152,-1.05833 -0.1096,-0.36381 -0.332,-0.75076 -0.4943,-0.8599 -0.2123,-0.14276 -0.2022,-0.25857 0.036,-0.41272 0.2536,-0.16409 0.2172,-0.33663 -0.1553,-0.73647 -0.7701,-0.82661 -0.916,-1.79657 -0.9913,-6.58987 -0.061,-3.85618 0.033,-5.1466 0.5635,-7.80521 0.044,-0.21828 0.088,-0.54571 0.1,-0.72761 0.011,-0.1819 0.1988,-0.33073 0.4171,-0.33073 0.2183,0 0.3969,-0.16401 0.3969,-0.36447 0,-0.20047 0.1825,-0.51594 0.4055,-0.70105 0.2231,-0.18511 0.6724,-0.8843 0.9986,-1.55375 0.591,-1.21311 1.4438,-2.60918 2.871,-4.70002 0.4136,-0.60587 0.7521,-1.20119 0.7523,-1.32292 2e-4,-0.12173 0.2978,-0.56727 0.6614,-0.99008 0.3637,-0.42282 0.6612,-0.86931 0.6612,-0.99219 0,-0.12289 0.1776,-0.22343 0.3946,-0.22343 0.2171,0 0.5434,-0.23813 0.7251,-0.52917 0.1818,-0.29104 0.4705,-0.52917 0.6417,-0.52917 0.1711,0 0.3508,-0.0904 0.3993,-0.20087 0.2096,-0.47723 4.7178,-2.47416 6.087,-2.69626 2.8783,-0.46687 11.9949,-0.3312 17.8537,0.26569 2.8526,0.29063 3.1947,0.39829 3.4088,1.07282 0.1655,0.52162 1.9048,1.55862 2.6141,1.55862 0.4684,0 1.7991,1.25982 1.4529,1.37554 -0.1311,0.0438 0.4143,0.79405 1.212,1.66717 0.7977,0.87313 1.4522,1.69533 1.4545,1.82711 0,0.13179 0.2864,0.60963 0.6314,1.06187 0.5738,0.75228 1.4835,2.71964 2.1509,4.65165 0.1908,0.55216 0.5765,1.4314 1.2701,2.89485 0.5385,1.13619 0.7046,1.73858 0.4985,1.80729 -0.1995,0.0665 -0.2279,0.25974 -0.08,0.54472 0.126,0.24292 0.3002,1.33465 0.3872,2.42605 0.087,1.09141 0.1838,2.2225 0.2153,2.51355 0.031,0.29104 -0.028,1.12448 -0.1321,1.85208 -0.4189,2.92782 -0.8002,4.11848 -1.6317,5.09565 -1.159,1.3621 -1.3644,1.80971 -1.8624,4.05809 -0.2386,1.07732 -0.7204,2.40269 -1.0707,2.94528 -0.3503,0.54258 -0.6369,1.06703 -0.6369,1.16544 0,0.28256 -2.9566,2.96416 -5.6496,5.12408 -0.2722,0.21828 -0.6459,0.53992 -0.8304,0.71474 -0.7406,0.70143 -4.1238,2.24428 -5.203,2.37271 -1.9888,0.2367 -11.3831,0.29559 -13.3638,0.0838 z m 11.5531,-1.20295 c 0.9459,-0.0938 1.9579,-0.19925 2.2489,-0.23423 0.2911,-0.035 1.3493,-0.43944 2.3517,-0.89882 1.0024,-0.45937 1.9299,-0.83522 2.0611,-0.83522 0.2421,0 2.6663,-2.19677 4.4929,-4.0714 1.0593,-1.08714 2.2173,-3.3016 2.9903,-5.71818 0.256,-0.80037 0.7404,-2.05052 1.0763,-2.77813 1.2803,-2.77319 1.4674,-3.93814 1.4658,-9.12812 0,-4.0341 -0.095,-5.25833 -0.5326,-6.96223 -0.7168,-2.79051 -2.854,-6.80348 -4.689,-8.80426 -0.4124,-0.44963 -1.0475,-1.31217 -1.4113,-1.91673 -0.5306,-0.88176 -0.8545,-1.13185 -1.6373,-1.2642 -0.5367,-0.0907 -1.039,-0.32954 -1.1162,-0.53066 -0.077,-0.20112 -0.3147,-0.36567 -0.5279,-0.36567 -0.2246,0 -0.4228,-0.30192 -0.4713,-0.7182 -0.067,-0.57427 -0.2693,-0.76367 -1.0098,-0.94516 -1.4889,-0.36492 -17.8789,-0.51872 -19.7114,-0.18497 -2.0588,0.37497 -3.871,1.10314 -3.7223,1.4957 0.064,0.16986 -0.075,0.3825 -0.3096,0.47253 -1.1106,0.42619 -2.7174,1.67263 -2.9959,2.32413 -0.1703,0.39833 -0.4352,0.64669 -0.5885,0.55191 -0.1692,-0.10458 -0.217,-0.0112 -0.1216,0.23757 0.097,0.2533 -0.1466,0.69947 -0.6384,1.16788 -0.905,0.86211 -3.2934,4.61835 -4.4346,6.9741 -1.0376,2.14203 -1.3235,4.24038 -1.4063,10.32034 -0.075,5.51235 0.1256,7.67169 0.7452,8.01846 0.2124,0.11888 0.3208,0.322 0.2408,0.45138 -0.08,0.12938 0.096,0.68585 0.3914,1.23659 0.2951,0.55075 0.5366,1.20174 0.5366,1.44666 0,0.73416 0.2977,1.28233 0.6964,1.28233 0.2064,0 0.4424,0.33575 0.5244,0.74611 0.1792,0.89592 2.3905,3.33811 3.2775,3.61961 0.3474,0.11026 1.2715,0.84031 2.0535,1.62233 1.3529,1.35295 3.7108,2.7432 4.6524,2.7432 0.2406,0 0.4375,0.12609 0.4375,0.2802 0,0.15411 0.1109,0.2117 0.2463,0.12797 0.1355,-0.0837 0.3116,-0.0466 0.3914,0.0825 0.08,0.12908 2.6665,0.24895 5.7484,0.26637 3.0818,0.0174 5.6618,0.0902 5.7333,0.16168 0.072,0.0715 0.3802,0.0776 0.686,0.0137 0.3059,-0.064 1.33,-0.19315 2.2759,-0.287 z m -26.4375,-10.85386 c 0.013,-0.30822 0.075,-0.37092 0.1599,-0.15985 0.076,0.19099 0.067,0.4192 -0.021,0.50712 -0.088,0.0879 -0.1505,-0.0684 -0.139,-0.34727 z m 31.1801,-19.07048 c -0.3529,-0.38734 -0.472,-0.60568 -0.2648,-0.4852 0.4619,0.26849 5.1003,0.29276 5.5272,0.0289 0.2064,-0.12758 0.2517,-0.0442 0.1374,0.25342 -0.1432,0.37327 -0.4441,0.42157 -1.8987,0.3048 -1.2336,-0.099 -1.8905,-0.0326 -2.2941,0.23178 -0.5123,0.33569 -0.6258,0.30432 -1.207,-0.33372 z m -0.7072,-1.80955 c 0,-0.58209 0.057,-0.78906 0.1204,-0.45994 0.063,0.32912 0.061,0.80537 -0.01,1.05833 -0.066,0.25297 -0.118,-0.0163 -0.1151,-0.59839 z m 6.3447,0.13229 c 0,-0.50933 0.054,-0.71768 0.121,-0.46302 0.067,0.25466 0.067,0.67138 0,0.92604 -0.067,0.25466 -0.121,0.0463 -0.121,-0.46302 z m -4.0797,-1.50366 c 0.191,-0.0764 0.4192,-0.067 0.5071,0.0209 0.088,0.0879 -0.068,0.15045 -0.3473,0.13896 -0.3082,-0.0127 -0.3709,-0.0754 -0.1598,-0.15985 z m 1.5709,-0.006 c 0.3274,-0.0631 0.8632,-0.0631 1.1906,0 0.3275,0.0631 0.06,0.11466 -0.5953,0.11466 -0.6548,0 -0.9227,-0.0516 -0.5953,-0.11466 z m -37.2401,11.6079 c 0,-0.34451 -0.3145,-0.57362 -0.5704,-0.4155 -0.2736,0.16912 -0.038,0.63599 0.3214,0.63599 0.137,0 0.249,-0.0992 0.249,-0.22049 z m -18.1614,0.29496 -2.6832,-0.0924 -0.1152,-0.78481 -0.1152,-0.78481 h 1.4567 c 1.3586,0 3.2142,0.45077 3.2141,0.78075 -10e-5,0.11372 5.6571,0.12777 10.5613,0.0262 0.9978,-0.0207 0.3809,-0.38499 -0.7171,-0.42353 -4.681,-0.16431 -10.2616,-0.45683 -10.3513,-0.54257 -0.061,-0.058 3.293,-0.10546 7.4525,-0.10546 5.5019,0 7.5905,0.0836 7.6649,0.30692 0.056,0.1688 0.055,0.63073 0,1.02651 l -0.1056,0.71959 -6.7876,-0.0171 c -3.7333,-0.009 -7.9952,-0.0586 -9.471,-0.10941 z m 13.9281,-0.86822 c 0,-0.14552 -0.1261,-0.26459 -0.2802,-0.26459 -0.1541,0 -0.2066,0.11907 -0.1167,0.26459 0.09,0.14552 0.216,0.26458 0.2802,0.26458 0.064,0 0.1167,-0.11906 0.1167,-0.26458 z m 1.2512,-0.15986 c -0.088,-0.0879 -0.3161,-0.0973 -0.5071,-0.0209 -0.211,0.0845 -0.1483,0.14716 0.1599,0.15985 0.2789,0.0115 0.4352,-0.0511 0.3472,-0.13896 z m 126.1898,0.77722 c -0.097,-0.097 -0.1764,-0.50678 -0.1764,-0.91059 v -0.7342 l 2.537,0.005 c 3.0317,0.006 3.1626,0.18685 0.223,0.30777 -1.5642,0.0643 -2.1162,0.183 -2.1702,0.46652 -0.088,0.4633 1.6067,0.61573 6.8185,0.6132 3.777,-0.002 6.0854,-0.24232 6.0854,-0.63397 0,-0.12995 -0.8037,-0.27793 -1.7859,-0.32884 l -1.786,-0.0926 2.0065,-0.0518 c 2.1236,-0.0548 2.5374,0.076 2.0599,0.65144 -0.2219,0.26732 -0.205,0.36159 0.068,0.38145 0.1997,0.0145 0.065,0.1217 -0.2983,0.23821 -0.8008,0.25646 -13.3323,0.33783 -13.5819,0.0882 z m -74.9514,-3.41219 c 0.089,-0.2329 0.1625,-0.52004 0.1625,-0.63809 0,-0.36246 0.8417,-0.5608 1.1819,-0.27849 0.1765,0.14655 1.1791,0.22858 2.2278,0.18229 1.0488,-0.0463 1.9728,0.0226 2.0535,0.15301 0.081,0.13045 0.3131,0.17327 0.5167,0.0952 0.2085,-0.08 0.3701,0.0198 0.3701,0.22871 0,0.20391 -0.2273,0.44288 -0.5051,0.53105 -0.7557,0.23986 -4.3665,0.10414 -4.544,-0.17079 -0.09,-0.13942 -0.4607,-0.12241 -0.8901,0.0408 -0.6314,0.24007 -0.7128,0.21968 -0.5733,-0.14367 z"
         id="path64022" /></g></g></svg>
