<?xml version="1.0" encoding="UTF-8" standalone="no"?>
<!-- Created with Inkscape (http://www.inkscape.org/) -->

<svg
   width="32.203728mm"
   height="20.519806mm"
   viewBox="0 0 32.203728 20.519806"
   version="1.1"
   id="svg5"
   xml:space="preserve"
   xmlns:inkscape="http://www.inkscape.org/namespaces/inkscape"
   xmlns:sodipodi="http://sodipodi.sourceforge.net/DTD/sodipodi-0.dtd"
   xmlns="http://www.w3.org/2000/svg"
   xmlns:svg="http://www.w3.org/2000/svg"><sodipodi:namedview
     id="namedview7"
     pagecolor="#ffffff"
     bordercolor="#000000"
     borderopacity="0.25"
     inkscape:showpageshadow="2"
     inkscape:pageopacity="0.0"
     inkscape:pagecheckerboard="0"
     inkscape:deskcolor="#d1d1d1"
     inkscape:document-units="mm"
     showgrid="false"
     inkscape:zoom="0.72248176"
     inkscape:cx="397.93392"
     inkscape:cy="562.64396"
     inkscape:window-width="1854"
     inkscape:window-height="1011"
     inkscape:window-x="0"
     inkscape:window-y="0"
     inkscape:window-maximized="1"
     inkscape:current-layer="layer1"
     showguides="false" /><defs
     id="defs2"><style
       id="style1277">
      .cls-1, .cls-2 {
        stroke-width: 12px;
      }

      .cls-1, .cls-2, .cls-3, .cls-4, .cls-5, .cls-6, .cls-7 {
        stroke-miterlimit: 10;
      }

      .cls-1, .cls-2, .cls-5, .cls-7 {
        stroke: #ad8c76;
      }

      .cls-1, .cls-5 {
        fill: none;
      }

      .cls-2 {
        fill: #eaeadd;
      }

      .cls-8 {
        fill: url(#linear-gradient);
      }

      .cls-8, .cls-9, .cls-10, .cls-11, .cls-12, .cls-13, .cls-14, .cls-15, .cls-16, .cls-17, .cls-18, .cls-19, .cls-20, .cls-21, .cls-22, .cls-23, .cls-24 {
        stroke-width: 0px;
      }

      .cls-9, .cls-18 {
        opacity: .11;
      }

      .cls-9, .cls-23 {
        fill: #fff;
      }

      .cls-3 {
        fill: url(#linear-gradient-4);
        opacity: .76;
        stroke: url(#linear-gradient-5);
      }

      .cls-4 {
        fill: #877b68;
        stroke: #5b4f3c;
        stroke-width: .25px;
      }

      .cls-10 {
        fill: #d3675a;
      }

      .cls-11, .cls-7 {
        fill: #eacebf;
      }

      .cls-12 {
        fill: url(#linear-gradient-7);
        opacity: .54;
      }

      .cls-13 {
        fill: #998274;
      }

      .cls-14 {
        fill: #d6cbb7;
      }

      .cls-15 {
        fill: #231f20;
      }

      .cls-16 {
        fill: #efebe0;
      }

      .cls-25 {
        opacity: .43;
      }

      .cls-26 {
        opacity: .64;
      }

      .cls-27 {
        opacity: .59;
      }

      .cls-28 {
        opacity: .62;
      }

      .cls-17 {
        fill: #d8c7b9;
      }

      .cls-29, .cls-6 {
        opacity: .72;
      }

      .cls-5, .cls-7 {
        stroke-width: 11px;
      }

      .cls-18 {
        fill: #eaece7;
      }

      .cls-19 {
        fill: url(#linear-gradient-8);
      }

      .cls-20 {
        fill: url(#linear-gradient-6);
      }

      .cls-6 {
        fill: url(#linear-gradient-2);
        stroke: url(#linear-gradient-3);
      }

      .cls-21 {
        fill: #e2ad9d;
      }

      .cls-22 {
        fill: #b8a28a;
      }

      .cls-24 {
        fill: #c29f90;
      }
    </style></defs><g
     inkscape:label="Capa 1"
     inkscape:groupmode="layer"
     id="layer1"
     transform="translate(-76.559847,-189.9914)"><path
       style="fill:#fbfcfb;stroke-width:0.264583"
       d="m 81.9765,195.1882 c -0.35452,-1.32289 -0.177699,-3.09791 0.362404,-3.63802 0.481871,-0.48187 0.881944,-0.52917 4.476277,-0.52917 2.170912,0 4.135442,0.0723 4.365632,0.1606 0.32795,0.12585 0.41851,0.5724 0.41851,2.06375 0,1.12745 -0.12941,2.03256 -0.3175,2.22065 -0.22157,0.22157 -1.6512,0.3175 -4.731644,0.3175 -4.353969,0 -4.416316,-0.008 -4.573679,-0.59531 z m 11.635503,0.1768 c -0.0883,-0.23019 -0.16059,-1.23995 -0.16059,-2.24392 0,-1.69833 0.0435,-1.83633 0.62534,-1.98236 3.768733,0.0879 10.933387,-2.00132 8.929417,3.91719 l -0.28125,0.7276 h -4.476154 c -3.837593,0 -4.499073,-0.0597 -4.636763,-0.41851 z"
       id="path10954"
       sodipodi:nodetypes="csscssscsscccss" /><path
       style="fill:#d0b3a9;stroke-width:0.264583"
       d="m 90.607133,210.40744 c 0.54571,-0.0571 1.43868,-0.0571 1.98438,0 0.5457,0.0571 0.0992,0.10378 -0.99219,0.10378 -1.0914,0 -1.53789,-0.0467 -0.99219,-0.10378 z m -6.425184,-3.44528 -1.44617,-1.52136 1.521354,1.44617 c 1.413386,1.34354 1.642558,1.59654 1.44617,1.59654 -0.04135,0 -0.725961,-0.6846 -1.521354,-1.52135 z m 15.354874,0.0985 c 0,-0.0549 0.20836,-0.26329 0.46302,-0.46302 0.419647,-0.32911 0.429007,-0.31975 0.0999,0.0999 -0.345625,0.44073 -0.562905,0.58089 -0.562905,0.36313 z m 1.852087,-1.85209 c 0,-0.0549 0.20836,-0.2633 0.46302,-0.46302 0.41964,-0.3291 0.429,-0.31975 0.0999,0.0999 -0.34564,0.44073 -0.56291,0.58089 -0.56291,0.36312 z m -19.612922,-0.89229 c -0.329108,-0.41964 -0.319749,-0.429 0.0999,-0.0999 0.254661,0.19973 0.463021,0.40809 0.463021,0.46302 0,0.21776 -0.217273,0.0776 -0.562916,-0.36313 z m 21.200422,-0.95979 c 0,-0.0549 0.20836,-0.2633 0.46302,-0.46302 0.41964,-0.32911 0.429,-0.31975 0.0999,0.0999 -0.34564,0.44073 -0.56291,0.58088 -0.56291,0.36312 z m 1.5875,-1.85208 c 0,-0.0549 0.20836,-0.2633 0.46302,-0.46302 0.41964,-0.32911 0.429,-0.31975 0.0999,0.0999 -0.34564,0.44073 -0.56291,0.58089 -0.56291,0.36313 z m -28.004064,-6.77927 c 0,-0.36381 0.06005,-0.51263 0.133453,-0.33073 0.0734,0.18191 0.0734,0.47956 0,0.66147 -0.0734,0.1819 -0.133453,0.0331 -0.133453,-0.33074 z m 16.647867,-0.15434 c 0.0127,-0.30823 0.0754,-0.37092 0.15985,-0.15986 0.0764,0.191 0.067,0.4192 -0.0209,0.50712 -0.0879,0.0879 -0.15045,-0.0683 -0.13896,-0.34726 z m 10.117957,-1.43315 c 0,-0.94589 0.048,-1.33284 0.10672,-0.85991 0.0587,0.47294 0.0587,1.24685 0,1.71979 -0.0587,0.47295 -0.10672,0.086 -0.10672,-0.85988 z m -21.713793,0.39687 c 0.0029,-0.58208 0.05712,-0.78905 0.120406,-0.45993 0.06329,0.32911 0.06088,0.80536 -0.0053,1.05833 -0.06622,0.25296 -0.118004,-0.0163 -0.115067,-0.5984 z m 26.972363,0 c 0.005,-0.43656 0.0647,-0.58312 0.13177,-0.32569 0.0671,0.25743 0.0627,0.61462 -0.01,0.79374 -0.0725,0.17913 -0.12735,-0.0315 -0.12195,-0.46806 z m -15.355637,-1.71979 c 0,-0.3638 0.0601,-0.51263 0.13345,-0.33073 0.0734,0.1819 0.0734,0.47956 0,0.66146 -0.0734,0.1819 -0.13345,0.0331 -0.13345,-0.33073 z m -8.165627,-0.99063 c 1.134437,-0.0497 2.920377,-0.0494 3.968757,6.6e-4 1.04837,0.0501 0.1202,0.0908 -2.062621,0.0904 -2.182813,-3.7e-4 -3.040574,-0.0414 -1.906136,-0.0911 z m 10.306657,0.001 c 0.83675,-0.0525 2.205973,-0.0525 3.042713,0 0.836747,0.0525 0.15214,0.0955 -1.521353,0.0955 -1.67349,0 -2.3581,-0.043 -1.52136,-0.0955 z m 6.085417,0.0131 c 0.25466,-0.0666 0.67138,-0.0666 0.92604,0 0.25466,0.0665 0.0463,0.121 -0.46302,0.121 -0.50932,0 -0.71768,-0.0545 -0.46302,-0.121 z m -20.240626,-0.80277 c 0.472943,-0.0587 1.246849,-0.0587 1.719792,0 0.472943,0.0587 0.08599,0.10671 -0.859896,0.10671 -0.945885,0 -1.332838,-0.048 -0.859896,-0.10671 z m 10.196129,-0.004 c 0.84205,-0.0527 2.15174,-0.0522 2.91041,0.001 0.75867,0.0533 0.0697,0.0964 -1.53101,0.0958 -1.60073,-6e-4 -2.22146,-0.0442 -1.3794,-0.0968 z m 10.573667,0.006 c 0.40018,-0.0606 1.05502,-0.0606 1.45521,0 0.40018,0.0606 0.0728,0.11022 -0.72761,0.11022 -0.80036,0 -1.12778,-0.0496 -0.7276,-0.11022 z"
       id="path10950" /><path
       style="fill:#ab928a;stroke-width:0.264583"
       d="m 102.18266,204.15028 c 0,-0.0549 0.20836,-0.2633 0.46302,-0.46302 0.41964,-0.32911 0.429,-0.31975 0.0999,0.0999 -0.34564,0.44073 -0.56291,0.58088 -0.56291,0.36312 z m -19.099616,-8.01834 c 0.190996,-0.0764 0.419199,-0.067 0.507118,0.0209 0.08792,0.0879 -0.06835,0.15045 -0.347265,0.13895 -0.308225,-0.0127 -0.37092,-0.0754 -0.159853,-0.15985 z m 1.438672,-0.009 c 0.400182,-0.0606 1.055026,-0.0606 1.455208,0 0.400183,0.0606 0.07276,0.11022 -0.727604,0.11022 -0.800364,0 -1.127786,-0.0496 -0.727604,-0.11022 z m 3.036807,-0.001 c 0.4697,-0.0584 1.30314,-0.0594 1.85209,-0.002 0.54895,0.0573 0.16465,0.10511 -0.854,0.10629 -1.01865,0.001 -1.46779,-0.0457 -0.99809,-0.10414 z m 7.67882,0.004 c 0.32743,-0.0631 0.86321,-0.0631 1.19063,0 0.32742,0.0631 0.0595,0.11466 -0.59531,0.11466 -0.65485,0 -0.92274,-0.0516 -0.59532,-0.11466 z m -18.677497,-2.4591 c 0,-0.3638 0.06005,-0.51263 0.133453,-0.33073 0.0734,0.18191 0.0734,0.47956 0,0.66146 -0.0734,0.18191 -0.133453,0.0331 -0.133453,-0.33073 z m 0.487391,-1.68739 c 0,-0.0549 0.208359,-0.26329 0.463021,-0.46302 0.419644,-0.32911 0.429002,-0.31975 0.09989,0.0999 -0.345643,0.44073 -0.562915,0.58089 -0.562915,0.36313 z m 30.393333,-0.36313 c -0.3291,-0.41964 -0.31975,-0.429 0.0999,-0.0999 0.25466,0.19972 0.46302,0.40808 0.46302,0.46302 0,0.21776 -0.21727,0.0776 -0.56292,-0.36313 z m -16.420017,-0.77605 c 0.19099,-0.0764 0.4192,-0.067 0.50711,0.0209 0.0879,0.0879 -0.0683,0.15045 -0.34726,0.13896 -0.30823,-0.0127 -0.37092,-0.0754 -0.15985,-0.15985 z"
       id="path10948" /><path
       style="fill:#a4857a;stroke-width:0.264583"
       d="m 99.933703,206.36684 c 0.263387,-0.29104 0.538417,-0.52915 0.611177,-0.52915 0.0728,0 -0.0832,0.23812 -0.3466,0.52915 -0.263387,0.29106 -0.538417,0.52917 -0.611177,0.52917 -0.0728,0 0.0832,-0.23812 0.3466,-0.52917 z M 81.957278,196.07277 c -0.08155,-0.13194 0.09002,-0.1776 0.38126,-0.10142 0.617799,0.16155 0.695893,0.34134 0.148272,0.34134 -0.209693,0 -0.447982,-0.10796 -0.529532,-0.23992 z m 12.238275,0.0592 c 0.19099,-0.0764 0.4192,-0.067 0.50711,0.0209 0.0879,0.0879 -0.0683,0.15045 -0.34726,0.13896 -0.30823,-0.0127 -0.37092,-0.0754 -0.15985,-0.15985 z m 3.290753,-0.009 c 0.40018,-0.0606 1.05503,-0.0606 1.45521,0 0.400177,0.0606 0.0728,0.11022 -0.7276,0.11022 -0.80037,0 -1.127793,-0.0496 -0.72761,-0.11022 z m 3.178634,-3.5e-4 c 0.40218,-0.0608 0.99749,-0.0592 1.32292,0.004 0.32542,0.0628 -0.004,0.11256 -0.73125,0.11057 -0.7276,-0.002 -0.99385,-0.0534 -0.59167,-0.1142 z m 7.62402,-1.81656 c 0.0127,-0.30823 0.0754,-0.37093 0.15985,-0.15986 0.0764,0.19099 0.067,0.4192 -0.0209,0.50712 -0.0879,0.0879 -0.15046,-0.0684 -0.13897,-0.34727 z m -15.443527,-1.10244 c -0.0801,-0.69122 -0.0361,-1.36988 0.0979,-1.50812 0.14921,-0.15402 0.24351,0.33268 0.24351,1.25677 0,0.82946 -0.044,1.50811 -0.0979,1.50811 -0.0538,0 -0.16341,-0.56554 -0.24351,-1.25676 z m -0.9148,0.0661 c 0.003,-0.58208 0.0571,-0.78906 0.12041,-0.45994 0.0633,0.32912 0.0609,0.80537 -0.005,1.05834 -0.0662,0.25296 -0.11801,-0.0163 -0.11507,-0.5984 z m -12.287172,-2.69428 c 0.190996,-0.0764 0.419199,-0.067 0.507118,0.0209 0.08792,0.0879 -0.06835,0.15045 -0.347266,0.13896 -0.308224,-0.0127 -0.370919,-0.0754 -0.159852,-0.15985 z m 4.613672,-0.26623 c 0.254661,-0.0665 0.67138,-0.0665 0.926041,0 0.254662,0.0666 0.0463,0.121 -0.46302,0.121 -0.509323,0 -0.717683,-0.0545 -0.463021,-0.121 z m 2.253696,-0.009 c 0.475549,-0.0589 1.189924,-0.0577 1.587504,0.003 0.39758,0.0604 0.008,0.10855 -0.86464,0.10707 -0.873123,-0.001 -1.198412,-0.0509 -0.722864,-0.10977 z"
       id="path10946" /><path
       style="fill:#906350;stroke-width:0.264583"
       d="m 89.775423,210.21922 c 0.19306,-0.19306 3.66733,-0.24506 3.8547,-0.0577 0.0957,0.0957 -0.75859,0.17406 -1.89851,0.17406 -1.13991,0 -2.0202,-0.0524 -1.95619,-0.11637 z m 4.55793,-0.55789 c 0,-0.25937 0.41883,-0.52171 1.14162,-0.71503 0.72565,-0.19408 1.0229,-0.38074 0.8158,-0.5123 -0.21622,-0.13735 -0.13762,-0.20833 0.23364,-0.21102 0.3077,-0.002 0.962543,-0.35934 1.455203,-0.79358 0.90234,-0.79532 1.292627,-0.97343 1.292627,-0.58985 0,0.41733 -4.21505,3.23147 -4.84015,3.23147 -0.0543,0 -0.0987,-0.18436 -0.0987,-0.40969 z m -6.78468,-0.50376 c -0.21135,-0.21135 -0.47707,-0.30064 -0.590483,-0.19844 -0.113415,0.10222 -0.120562,0.037 -0.01588,-0.14489 0.231493,-0.40227 0.952843,-0.44053 0.952843,-0.0505 0,0.15411 0.1177,0.20745 0.26156,0.11855 0.14998,-0.0927 0.19433,0.0135 0.10398,0.24898 -0.19358,0.50444 -0.23246,0.50588 -0.71202,0.0264 z m -1.956578,-1.08362 c -0.520704,-0.41041 -0.790087,-0.8188 -0.698146,-1.0584 0.100984,-0.26316 0.02476,-0.34218 -0.234211,-0.24279 -0.24585,0.0943 -0.847284,-0.40413 -1.672389,-1.38606 -0.70866,-0.84337 -1.045508,-1.32477 -0.748551,-1.06979 0.296958,0.25497 0.638647,0.37404 0.759309,0.26458 0.120662,-0.10947 0.121234,-0.03 0.0013,0.17668 -0.158225,0.27253 -0.107193,0.33313 0.185858,0.22067 0.289828,-0.11121 0.395541,0.007 0.374133,0.41806 -0.01806,0.34687 0.12682,0.57248 0.367035,0.57157 0.218281,-8e-4 0.65227,0.25971 0.96442,0.57898 0.31215,0.31927 0.65866,0.49855 0.770023,0.39839 0.111364,-0.10016 0.121355,-0.0406 0.0222,0.13236 -0.09915,0.17295 -0.0076,0.41108 0.20337,0.52916 0.211005,0.11809 0.421869,0.33376 0.468586,0.47929 0.04672,0.14552 0.183086,0.23186 0.303043,0.19188 0.119958,-0.04 0.142696,0.0493 0.05053,0.19843 -0.213145,0.34488 -0.12919,0.37519 -1.116485,-0.403 z m 1.244725,-0.66438 c 0,-0.15412 0.119063,-0.20662 0.264583,-0.11667 0.14552,0.0899 0.26458,0.21601 0.26458,0.28019 0,0.0642 -0.11906,0.11668 -0.26458,0.11668 -0.14552,0 -0.264583,-0.12609 -0.264583,-0.2802 z m 12.700003,-0.98161 c 0,-0.46345 1.605807,-2.19769 1.878737,-2.02901 0.13086,0.0809 0.23793,-0.0121 0.23793,-0.20664 0,-0.19453 0.20836,-0.53641 0.46302,-0.75973 0.25466,-0.22332 0.74061,-0.77499 1.07989,-1.22592 0.33927,-0.45093 0.96435,-1.20908 1.38906,-1.68478 0.42471,-0.47571 0.7722,-1.00361 0.7722,-1.17313 0,-0.16952 0.23508,-0.52096 0.52241,-0.78099 0.28732,-0.26003 0.60069,-0.71941 0.69636,-1.02086 0.0957,-0.30144 0.34095,-0.71507 0.54506,-0.91918 0.3039,-0.3039 0.30955,-0.44708 0.0312,-0.79073 -0.25255,-0.31182 -0.25583,-0.36916 -0.0128,-0.22317 0.23751,0.14265 0.3017,-0.0219 0.23432,-0.60058 -0.051,-0.43837 0.0312,-0.83838 0.18275,-0.88889 0.17137,-0.0571 0.1859,-0.23599 0.0384,-0.47311 -0.13042,-0.20969 -0.20076,-0.66253 -0.15631,-1.0063 0.0463,-0.3584 -0.03,-0.55657 -0.17888,-0.46454 -0.14282,0.0883 -0.32649,-0.0136 -0.40815,-0.22638 -0.28567,-0.74446 0.31537,-0.6627 0.98583,0.1341 0.57083,0.6784 0.6522,0.97806 0.52102,1.91893 -0.0855,0.61325 -0.24572,1.35313 -0.35606,1.64417 -0.11034,0.29105 -0.21668,0.61746 -0.23631,0.72537 -0.16806,0.92384 -3.25357,5.42693 -3.88437,5.66901 -0.20717,0.0795 -0.37964,0.28063 -0.38328,0.44695 -0.0115,0.52666 -3.962137,4.45062 -3.962137,3.9354 z M 81.249238,203.258 c -0.01723,-0.10914 -0.01723,-0.28774 0,-0.39689 0.01723,-0.10913 -0.07862,-0.19843 -0.213003,-0.19843 -0.296096,0 -2.825753,-3.95695 -2.732227,-4.27382 0.03638,-0.12325 -0.04918,-0.22409 -0.190134,-0.22409 -0.140954,0 -0.180252,-0.19812 -0.08733,-0.44028 0.09797,-0.25529 0.06066,-0.37335 -0.08878,-0.281 -0.141753,0.0876 -0.386368,-0.1815 -0.543589,-0.59802 -0.243576,-0.64531 -0.225253,-0.73406 0.123882,-0.60009 0.242204,0.0929 0.341365,0.0466 0.242518,-0.11333 -0.09197,-0.14882 -5.29e-4,-0.49647 0.203188,-0.77257 0.343782,-0.46592 0.368807,-0.44019 0.348135,0.35789 -0.01225,0.47295 -0.130243,0.8599 -0.262206,0.8599 -0.131964,0 -0.165149,0.121 -0.07374,0.2689 0.0914,0.14789 0.29247,0.19085 0.446815,0.0955 0.159344,-0.0985 0.229209,-0.0192 0.161657,0.18347 -0.06543,0.1963 0.229118,0.69718 0.654558,1.11306 0.553468,0.54103 0.738962,0.93695 0.652031,1.39169 -0.07979,0.41741 -0.02109,0.57547 0.171013,0.46049 0.16088,-0.0963 0.113915,0.0492 -0.104367,0.32338 -0.218281,0.27415 -0.256273,0.41412 -0.08443,0.31106 0.171846,-0.10307 0.388433,-0.0644 0.481303,0.0858 0.09287,0.15027 0.276089,0.20695 0.40715,0.12595 0.131062,-0.081 0.414416,0.27424 0.629676,0.78943 0.21526,0.51519 0.525024,0.93671 0.688364,0.93671 0.175192,0 0.134227,0.16275 -0.09989,0.39687 -0.436304,0.43631 -0.682473,0.50317 -0.730588,0.19844 z m 0.560499,-1.12448 c 0,-0.14553 0.126089,-0.26458 0.280198,-0.26458 0.154109,0 0.206614,0.11905 0.116677,0.26458 -0.08994,0.14552 -0.216026,0.26457 -0.280198,0.26457 -0.06417,0 -0.116677,-0.11905 -0.116677,-0.26457 z m -1.231615,-2.26037 c -0.08617,-0.22456 -0.09756,-0.4674 -0.0253,-0.53966 0.07226,-0.0723 0.194881,0.11147 0.2725,0.40829 0.164875,0.63048 -0.01832,0.72783 -0.2472,0.13137 z m 9.747111,-2.73654 c -0.188,-0.11619 -1.75674,-0.15574 -3.486093,-0.0879 -3.176062,0.12461 -4.500236,-0.012 -4.500236,-0.46416 0,-0.18112 5.571579,-0.43367 8.908039,-0.40378 0.0245,2.2e-4 -0.096,0.2629 -0.26769,0.58374 -0.20332,0.3799 -0.43141,0.50966 -0.65402,0.37208 z m 6.03659,-0.28383 c -0.21828,-0.14489 -0.59521,-0.20177 -0.83763,-0.12642 -0.24241,0.0754 -0.51733,0.0131 -0.61092,-0.13833 -0.11479,-0.18572 1.03354,-0.27534 3.527973,-0.27534 2.033964,0 3.916224,-0.0826 4.182794,-0.18364 0.46033,-0.17441 0.46159,-0.16036 0.0251,0.28005 -0.35941,0.36261 -1.05146,0.49021 -3.174997,0.5854 -1.579557,0.0708 -2.88144,0.0115 -3.1123,-0.14172 z m -14.81667,-1.06926 c 0,-0.29105 0.04565,-0.52917 0.101434,-0.52917 0.05579,0 0.163704,0.23813 0.239813,0.52917 0.07611,0.29104 0.03046,0.52917 -0.101433,0.52917 -0.131898,0 -0.239814,-0.23814 -0.239814,-0.52917 z m 10.21638,-0.0484 c 0.0764,-0.12364 0.24978,-0.1563 0.38524,-0.0726 0.34618,0.21395 0.3072,0.29738 -0.13893,0.29738 -0.21188,0 -0.32272,-0.10116 -0.24631,-0.2248 z m 11.696817,-2.10808 c 0.0883,-1.84766 0.0308,-2.45392 -0.24972,-2.63161 -0.2882,-0.18255 -0.26758,-0.23173 0.0985,-0.23493 0.25467,-0.002 0.46592,0.0852 0.46946,0.19438 0.004,0.10915 0.0411,1.18438 0.0834,2.38942 0.0487,1.38654 -0.032,2.28139 -0.21972,2.43722 -0.21685,0.17998 -0.26581,-0.39987 -0.18193,-2.15448 z m -26.63257,0.38688 c -0.05904,-1.87917 0.765277,-2.77733 3.087097,-3.36365 1.914425,-0.48345 2.471854,-0.53 1.89686,-0.15841 -0.315912,0.20416 -0.265113,0.2573 0.249007,0.26053 0.60085,0.004 0.612494,0.0285 0.16701,0.35421 -0.335034,0.24498 -0.846925,0.29353 -1.704215,0.16162 -1.316477,-0.20256 -2.151386,0.0645 -2.151386,0.68815 0,0.21316 -0.119062,0.40245 -0.264583,0.42064 -0.145521,0.0182 -0.413411,0.048 -0.595312,0.0661 -0.199079,0.0199 -0.392553,0.61234 -0.486041,1.48828 l -0.155311,1.45521 z m 15.079903,0.71128 c 0,-0.36382 0.0601,-0.51264 0.13345,-0.33073 0.0734,0.1819 0.0734,0.47956 0,0.66146 -0.0734,0.1819 -0.13345,0.0331 -0.13345,-0.33073 z m 0.60079,-1.18872 c 0,-1.6042 0.26614,-1.42481 0.48784,0.32882 0.0977,0.77286 0.0437,1.12448 -0.17284,1.12448 -0.20538,0 -0.315,-0.50575 -0.315,-1.4533 z m 11.926437,0.92623 c -0.0892,-0.14437 -0.031,-0.47179 0.12931,-0.72761 0.24761,-0.39503 0.26543,-0.37042 0.11827,0.16333 -0.1287,0.4668 -0.0874,0.57538 0.16053,0.42215 0.21694,-0.13409 0.26771,-0.0994 0.14503,0.0992 -0.2311,0.37392 -0.34322,0.38263 -0.55314,0.043 z M 80.585726,194.1891 c -0.367789,-0.36779 0.16271,-2.10974 0.642506,-2.10974 0.24424,0 0.323197,0.32769 0.265989,1.10392 -0.08335,1.13096 -0.41556,1.49876 -0.908495,1.00582 z m -2.723851,-0.94116 c 0.0127,-0.30822 0.07539,-0.37092 0.159852,-0.15985 0.07643,0.19099 0.06703,0.4192 -0.02089,0.50712 -0.08792,0.0879 -0.150452,-0.0684 -0.138964,-0.34728 z m 0.51233,-0.0285 c 0.0022,-0.11773 0.119468,-0.39265 0.260532,-0.61093 0.221032,-0.34202 0.25704,-0.33504 0.260532,0.0505 0.0022,0.24607 -0.115011,0.52099 -0.260532,0.61093 -0.145521,0.0899 -0.26276,0.0672 -0.260532,-0.0505 z M 91.884793,191.925 c 0.0127,-0.30822 0.0754,-0.37093 0.15986,-0.15985 0.0764,0.191 0.067,0.41919 -0.0209,0.50711 -0.0879,0.0879 -0.15046,-0.0684 -0.13897,-0.34727 z m 0.77287,-0.4915 c 0,-0.22687 0.11906,-0.41249 0.26458,-0.41249 0.14552,0 0.26458,0.11204 0.26458,0.24897 0,0.13693 -0.11906,0.32255 -0.26458,0.41249 -0.14552,0.0899 -0.26458,-0.0221 -0.26458,-0.24897 z m 13.215047,-0.0326 c -0.20426,-0.24612 -0.5717,-0.35661 -0.90649,-0.2726 -0.37218,0.0934 -0.72603,-0.0491 -1.04406,-0.42053 -0.38097,-0.44494 -0.39569,-0.52908 -0.0707,-0.40439 0.22568,0.0866 0.8355,0.23722 1.35516,0.33471 0.51965,0.0975 0.94483,0.29008 0.94483,0.428 0,0.13791 0.1177,0.17801 0.26155,0.0891 0.14998,-0.0927 0.19434,0.0135 0.10398,0.24897 -0.19487,0.50784 -0.22016,0.50771 -0.64423,-0.003 z m -22.343181,-0.88985 c -0.351735,-0.13839 -0.06395,-0.19869 0.858264,-0.17985 0.763088,0.0156 1.388166,0.11766 1.389063,0.2268 0.0021,0.2561 -1.560035,0.22346 -2.247327,-0.047 z m 12.038544,-0.017 c -0.27118,-0.17673 0.55075,-0.25993 2.595313,-0.2627 1.645687,-0.002 2.929494,0.0974 2.852894,0.2213 -0.19663,0.31815 -4.967917,0.35441 -5.448207,0.0414 z m -5.87044,-0.18291 c 0.191,-0.0764 0.4192,-0.067 0.50712,0.0209 0.0879,0.0879 -0.0684,0.15045 -0.34727,0.13897 -0.30822,-0.0127 -0.37092,-0.0754 -0.15985,-0.15986 z"
       id="path10944" /><path
       style="fill:#8e5b46;stroke-width:0.264583"
       d="m 88.576683,209.65609 c -0.27425,-0.20053 -0.38679,-0.47815 -0.27027,-0.66669 0.12759,-0.20643 0.0894,-0.25492 -0.1058,-0.13427 -0.168,0.10382 -0.30546,0.0627 -0.30546,-0.0914 0,-0.15411 -0.18562,-0.2802 -0.41249,-0.2802 -0.26175,0 -0.33839,0.12085 -0.20971,0.33072 0.11152,0.18191 -0.0898,0.13194 -0.447411,-0.11101 -0.357599,-0.24296 -0.615546,-0.58499 -0.573214,-0.76007 0.04452,-0.18415 -0.08724,-0.25531 -0.312599,-0.16883 -0.280557,0.10766 -0.360601,-7.9e-4 -0.286059,-0.38797 0.07779,-0.40394 0.02179,-0.46964 -0.225442,-0.26445 -0.182616,0.15156 -0.484689,0.17674 -0.67905,0.0566 -0.245257,-0.15157 -0.262408,-0.27057 -0.05727,-0.39735 0.161057,-0.0995 0.292831,-0.035 0.292831,0.14331 0,0.17837 0.08063,0.24367 0.179183,0.14512 0.237661,-0.23767 -0.732394,-1.09964 -1.237516,-1.09964 -0.239807,0 -0.385066,-0.2268 -0.367036,-0.57308 0.01729,-0.33213 -0.0982,-0.52394 -0.274704,-0.45621 -0.1675,0.0643 -0.634627,-0.22767 -1.038061,-0.64876 -0.678389,-0.70809 -0.701064,-0.79808 -0.301709,-1.19744 0.2392,-0.2392 0.299338,-0.4318 0.134824,-0.4318 -0.16334,0 -0.473104,-0.42152 -0.688364,-0.93671 -0.21526,-0.51519 -0.498614,-0.87044 -0.629676,-0.78943 -0.131061,0.081 -0.314279,0.0243 -0.40715,-0.12595 -0.09287,-0.15026 -0.266449,-0.2129 -0.385729,-0.13918 -0.11928,0.0737 -0.161524,-0.27668 -0.09387,-0.77867 0.100815,-0.74809 -0.0152,-1.04779 -0.643239,-1.66172 -0.42143,-0.41196 -0.7127,-0.90963 -0.647267,-1.10593 0.06755,-0.20266 -0.0023,-0.28195 -0.161657,-0.18347 -0.154345,0.0954 -0.355411,0.0524 -0.446815,-0.0955 -0.0914,-0.1479 -0.05822,-0.2689 0.07374,-0.2689 0.131963,0 0.249957,-0.38695 0.262206,-0.8599 0.02067,-0.79808 -0.0044,-0.82381 -0.348135,-0.35789 -0.203724,0.2761 -0.298118,0.61897 -0.209763,0.76193 0.08835,0.14296 -0.0048,0.20484 -0.206912,0.13751 -0.494634,-0.16475 -0.529368,-3.76171 -0.03683,-3.81384 0.181901,-0.0192 0.449791,-0.0499 0.595312,-0.0681 0.145521,-0.0182 0.264583,-0.20575 0.264583,-0.4168 0,-0.59602 0.777148,-0.89007 1.962123,-0.74241 1.284988,0.16013 1.840925,0.55146 1.06987,0.7531 -0.699767,0.18299 -1.254373,1.83394 -0.755237,2.24819 0.190244,0.15789 0.453705,0.22044 0.58547,0.13901 0.131765,-0.0814 0.241656,0.11667 0.244202,0.44024 0.0096,1.22508 0.07689,1.51435 0.352055,1.51435 0.155915,0 0.472409,0.18892 0.703321,0.41984 0.351568,0.35156 1.004618,0.40561 4.015997,0.33234 1.977888,-0.0481 3.744988,0.008 3.926888,0.12495 0.473433,0.13987 0.584689,-0.55943 0.89793,-0.85582 0.42226,-0.3934 0.68826,-0.46364 1.04094,-0.27489 0.61717,0.3303 1.02308,0.32148 0.50853,-0.0111 -0.23847,-0.15411 -0.2711,-0.25809 -0.0818,-0.26053 0.17331,-0.002 0.3887,0.11501 0.47863,0.26053 0.0899,0.14552 0.43431,0.26459 0.76527,0.26459 0.33096,0 0.691,0.0893 0.80009,0.19843 0.30133,0.30147 1.33283,0.39202 4.48455,0.39364 1.581187,8.3e-4 2.950407,-0.10505 3.042697,-0.23526 0.0923,-0.13021 0.47384,-0.43108 0.84788,-0.66861 0.65698,-0.4172 0.67745,-0.51063 0.60285,-2.75174 -0.0498,-1.49596 -0.19464,-2.39244 -0.40783,-2.5242 -0.18183,-0.11238 -0.25672,-0.2782 -0.16643,-0.3685 0.0903,-0.0903 0.3963,0.085 0.68001,0.38952 0.32332,0.34704 0.68253,0.48971 0.9625,0.38227 0.26475,-0.10159 0.67643,0.0302 1.01084,0.32371 0.49503,0.43443 0.54412,0.44001 0.4005,0.0456 -0.11533,-0.31676 -0.0529,-0.40704 0.21135,-0.30564 0.20627,0.0792 0.3647,0.22192 0.35207,0.31726 -0.0709,0.53544 0.0756,0.84384 0.32711,0.6884 0.18262,-0.11287 0.25795,0.0503 0.2066,0.4474 -0.0444,0.34377 0.0259,0.79661 0.15631,1.0063 0.14747,0.23712 0.13294,0.41598 -0.0384,0.47311 -0.15155,0.0505 -0.23379,0.45052 -0.18275,0.88889 0.0671,0.5766 0.002,0.74418 -0.23432,0.60589 -0.17991,-0.10513 -0.0903,0.0972 0.19923,0.44964 0.28949,0.35244 0.42415,0.55716 0.29923,0.45495 -0.28304,-0.2316 -0.83145,0.29676 -1.06201,1.02318 -0.0957,0.30145 -0.40904,0.76083 -0.69636,1.02086 -0.28733,0.26003 -0.52241,0.61129 -0.52241,0.78058 0,0.16929 -0.41742,0.77592 -0.9276,1.34806 -0.51018,0.57213 -0.87343,1.18301 -0.80723,1.3575 0.072,0.18977 -0.0337,0.25813 -0.26302,0.17013 -0.21087,-0.0809 -0.3834,-0.0278 -0.3834,0.118 0,0.14581 -0.2956,0.5455 -0.65689,0.8882 -0.36129,0.3427 -0.65895,0.76488 -0.66146,0.9382 -0.003,0.17331 -0.14203,0.40006 -0.31003,0.5039 -0.20517,0.1268 -0.23517,0.0668 -0.0914,-0.18282 0.11776,-0.20439 -0.16588,-0.0177 -0.63029,0.4148 -0.46442,0.43253 -0.910467,1.04969 -0.991227,1.37145 -0.0808,0.32177 -0.28474,0.5347 -0.453297,0.47319 -0.16855,-0.0615 -0.70955,0.24406 -1.20222,0.67907 -0.49266,0.435 -1.147503,0.79274 -1.455203,0.79497 -0.37126,0.003 -0.44986,0.0737 -0.23364,0.21102 0.20634,0.13107 -0.1091,0.32329 -0.86021,0.52418 -0.68869,0.1842 -1.15816,0.45629 -1.11957,0.64888 0.096,0.47908 -5.0856,0.52338 -5.73431,0.049 z m -1.2107,-2.08301 c 0,-0.0642 -0.11906,-0.19026 -0.26458,-0.28019 -0.14552,-0.0899 -0.264583,-0.0374 -0.264583,0.11667 0,0.15411 0.119063,0.2802 0.264583,0.2802 0.14552,0 0.26458,-0.0525 0.26458,-0.11668 z m -5.159371,-5.43957 c 0.08994,-0.14552 0.03743,-0.26458 -0.116677,-0.26458 -0.154109,0 -0.280198,0.11906 -0.280198,0.26458 0,0.14552 0.0525,0.26458 0.116677,0.26458 0.06417,0 0.190261,-0.11906 0.280198,-0.26458 z m -1.38129,-2.39174 c -0.07762,-0.29682 -0.200243,-0.48055 -0.272499,-0.40829 -0.143138,0.14314 0.109693,0.94795 0.297798,0.94795 0.0637,0 0.05232,-0.24285 -0.0253,-0.53966 z m 24.160728,-5.32206 c 0.12268,-0.19851 0.0719,-0.23323 -0.14503,-0.0992 -0.24794,0.15323 -0.28923,0.0447 -0.16053,-0.42215 0.14716,-0.53374 0.12934,-0.55835 -0.11827,-0.16333 -0.16034,0.25582 -0.21853,0.58324 -0.12931,0.72761 0.20992,0.33966 0.32204,0.33094 0.55314,-0.043 z m -26.964323,-1.33164 c -0.08446,-0.21107 -0.147156,-0.14837 -0.159852,0.15985 -0.01149,0.27891 0.05105,0.43518 0.138964,0.34728 0.08792,-0.0879 0.09732,-0.31613 0.02089,-0.50712 z m 0.873542,-0.42903 c -0.0035,-0.38557 -0.0395,-0.39255 -0.260532,-0.0505 -0.334856,0.51815 -0.334856,0.86841 0,0.66146 0.145521,-0.0899 0.26276,-0.36486 0.260532,-0.61093 z m 13.149654,2.92603 c -0.0631,-0.10914 -0.019,-0.43656 0.0981,-0.7276 0.11708,-0.29104 0.22125,-0.38034 0.23148,-0.19844 0.0102,0.1819 0.21176,0.33073 0.44786,0.33073 0.35158,0 0.36966,0.0718 0.0999,0.39688 -0.35917,0.43276 -0.69749,0.50929 -0.87732,0.19843 z m 0.39973,-2.05052 c 0.005,-0.43656 0.0647,-0.58312 0.13178,-0.32569 0.0671,0.25743 0.0627,0.61462 -0.01,0.79375 -0.0725,0.17913 -0.12736,-0.0315 -0.12197,-0.46806 z m -0.23524,-1.79305 c 0.0453,-0.86703 0.12923,-0.97923 0.71283,-0.95319 0.44744,0.0199 0.51164,0.0686 0.19844,0.1505 -0.25466,0.0666 -0.46485,0.32063 -0.46708,0.56462 -0.002,0.24399 -0.11464,0.61848 -0.2498,0.8322 -0.17339,0.27416 -0.23063,0.0992 -0.19439,-0.59413 z m -10.66426,-1.08906 c 0,-0.0572 0.184778,-0.17489 0.410617,-0.26155 0.23546,-0.0904 0.341663,-0.046 0.248969,0.10398 -0.155379,0.25141 -0.659586,0.37186 -0.659586,0.15757 z m 4.960938,-0.0874 c 0.472943,-0.0587 1.246852,-0.0587 1.719792,0 0.47295,0.0587 0.086,0.10671 -0.8599,0.10671 -0.945882,0 -1.332835,-0.048 -0.859892,-0.10671 z m 14.752399,-0.0702 c -0.0927,-0.14998 0.0135,-0.19433 0.24897,-0.10398 0.45836,0.17589 0.54223,0.36554 0.16164,0.36554 -0.13693,0 -0.32171,-0.1177 -0.41061,-0.26156 z m -9.460727,-0.17825 c 0.1819,-0.0734 0.47956,-0.0734 0.66146,0 0.1819,0.0734 0.0331,0.13346 -0.33073,0.13346 -0.3638,0 -0.51263,-0.0601 -0.33073,-0.13346 z"
       id="path10942"
       sodipodi:nodetypes="csssssssssssssssssssssssssssssssssscssssssssssccsscssssssssssssscsscssscsssssssssscsssssscsssccsssssssssssssscssssccssssssssssssssssscscccscscssscssssssssssssss" /><path
       style="fill:#784c3e;stroke-width:0.264583"
       d="m 92.543893,196.07807 c -0.0797,-0.12903 0.0184,-0.37019 0.21807,-0.53592 0.2771,-0.22997 0.39739,-0.21187 0.50803,0.0764 0.22617,0.58939 -0.40066,0.98605 -0.7261,0.45947 z m -0.34868,-2.54352 c 0.003,-0.58207 0.0571,-0.78905 0.12041,-0.45993 0.0633,0.32911 0.0609,0.80536 -0.005,1.05833 -0.0662,0.25296 -0.118,-0.0163 -0.11507,-0.5984 z m -0.25464,-2.24896 c -0.1128,-0.43135 -0.3609,-0.52916 -1.34225,-0.52916 -0.66212,0 -1.12138,-0.0825 -1.02056,-0.1833 0.28431,-0.28431 5.69578,-0.34379 5.86839,-0.0645 0.0892,0.14426 -0.56166,0.24781 -1.55748,0.24781 -1.58038,0 -1.7001,0.0403 -1.57226,0.52916 0.0761,0.29105 0.0538,0.52917 -0.0495,0.52917 -0.10336,0 -0.25019,-0.23812 -0.3263,-0.52917 z m -9.699437,-0.80181 c 0.18054,-0.18054 0.488915,-0.1862 0.912812,-0.0168 0.601515,0.24043 0.585054,0.25689 -0.272649,0.27264 -0.626543,0.0115 -0.827306,-0.0687 -0.640163,-0.25587 z m 18.959934,-0.045 c 0.46332,-0.29446 2.03992,-0.25789 2.03992,0.0473 0,0.14237 -0.53101,0.23575 -1.18003,0.2075 -0.66887,-0.0291 -1.04135,-0.13948 -0.85989,-0.25481 z"
       id="path10940" /></g></svg>
