<?xml version="1.0" encoding="UTF-8" standalone="no"?>
<!-- Created with Inkscape (http://www.inkscape.org/) -->

<svg
   width="126.03635mm"
   height="91.360382mm"
   viewBox="0 0 126.03635 91.360382"
   version="1.1"
   id="svg5"
   xml:space="preserve"
   xmlns:inkscape="http://www.inkscape.org/namespaces/inkscape"
   xmlns:sodipodi="http://sodipodi.sourceforge.net/DTD/sodipodi-0.dtd"
   xmlns:xlink="http://www.w3.org/1999/xlink"
   xmlns="http://www.w3.org/2000/svg"
   xmlns:svg="http://www.w3.org/2000/svg"><sodipodi:namedview
     id="namedview7"
     pagecolor="#ffffff"
     bordercolor="#000000"
     borderopacity="0.25"
     inkscape:showpageshadow="2"
     inkscape:pageopacity="0.0"
     inkscape:pagecheckerboard="0"
     inkscape:deskcolor="#d1d1d1"
     inkscape:document-units="mm"
     showgrid="false"
     inkscape:zoom="0.72248176"
     inkscape:cx="397.93392"
     inkscape:cy="562.64396"
     inkscape:window-width="1854"
     inkscape:window-height="1011"
     inkscape:window-x="0"
     inkscape:window-y="0"
     inkscape:window-maximized="1"
     inkscape:current-layer="layer1"
     showguides="false" /><defs
     id="defs2"><style
       id="style1277">
      .cls-1, .cls-2 {
        stroke-width: 12px;
      }

      .cls-1, .cls-2, .cls-3, .cls-4, .cls-5, .cls-6, .cls-7 {
        stroke-miterlimit: 10;
      }

      .cls-1, .cls-2, .cls-5, .cls-7 {
        stroke: #ad8c76;
      }

      .cls-1, .cls-5 {
        fill: none;
      }

      .cls-2 {
        fill: #eaeadd;
      }

      .cls-8 {
        fill: url(#linear-gradient);
      }

      .cls-8, .cls-9, .cls-10, .cls-11, .cls-12, .cls-13, .cls-14, .cls-15, .cls-16, .cls-17, .cls-18, .cls-19, .cls-20, .cls-21, .cls-22, .cls-23, .cls-24 {
        stroke-width: 0px;
      }

      .cls-9, .cls-18 {
        opacity: .11;
      }

      .cls-9, .cls-23 {
        fill: #fff;
      }

      .cls-3 {
        fill: url(#linear-gradient-4);
        opacity: .76;
        stroke: url(#linear-gradient-5);
      }

      .cls-4 {
        fill: #877b68;
        stroke: #5b4f3c;
        stroke-width: .25px;
      }

      .cls-10 {
        fill: #d3675a;
      }

      .cls-11, .cls-7 {
        fill: #eacebf;
      }

      .cls-12 {
        fill: url(#linear-gradient-7);
        opacity: .54;
      }

      .cls-13 {
        fill: #998274;
      }

      .cls-14 {
        fill: #d6cbb7;
      }

      .cls-15 {
        fill: #231f20;
      }

      .cls-16 {
        fill: #efebe0;
      }

      .cls-25 {
        opacity: .43;
      }

      .cls-26 {
        opacity: .64;
      }

      .cls-27 {
        opacity: .59;
      }

      .cls-28 {
        opacity: .62;
      }

      .cls-17 {
        fill: #d8c7b9;
      }

      .cls-29, .cls-6 {
        opacity: .72;
      }

      .cls-5, .cls-7 {
        stroke-width: 11px;
      }

      .cls-18 {
        fill: #eaece7;
      }

      .cls-19 {
        fill: url(#linear-gradient-8);
      }

      .cls-20 {
        fill: url(#linear-gradient-6);
      }

      .cls-6 {
        fill: url(#linear-gradient-2);
        stroke: url(#linear-gradient-3);
      }

      .cls-21 {
        fill: #e2ad9d;
      }

      .cls-22 {
        fill: #b8a28a;
      }

      .cls-24 {
        fill: #c29f90;
      }
    </style><linearGradient
       id="linear-gradient-6"
       x1="464.95999"
       y1="317.06"
       x2="490.67001"
       y2="317.06"
       gradientUnits="userSpaceOnUse"><stop
         offset=".52"
         stop-color="#fff"
         id="stop1306" /><stop
         offset=".58"
         stop-color="#fbf1f0"
         id="stop1308" /><stop
         offset=".71"
         stop-color="#f0cdc9"
         id="stop1310" /><stop
         offset=".87"
         stop-color="#e0948a"
         id="stop1312" /><stop
         offset=".99"
         stop-color="#d3675a"
         id="stop1314" /></linearGradient><linearGradient
       id="linear-gradient-8"
       x1="91.870003"
       y1="323.51999"
       x2="117.85"
       y2="323.51999"
       xlink:href="#linear-gradient-6" /><linearGradient
       inkscape:collect="always"
       xlink:href="#linear-gradient-6"
       id="linearGradient1731"
       gradientUnits="userSpaceOnUse"
       x1="464.95999"
       y1="317.06"
       x2="490.67001"
       y2="317.06" /></defs><g
     inkscape:label="Capa 1"
     inkscape:groupmode="layer"
     id="layer1"
     transform="translate(-27.824788,-124.76222)"><g
       id="g1389"
       transform="matrix(0.26458333,0,0,0.26458333,13.481442,93.152333)"><path
         class="cls-7"
         d="m 126.39,350.83 c -4.08,0.93 -10.68,1.88 -18.44,0.39 -11.06,-2.12 -18.1,-7.98 -23.93,-12.83 -4.43,-3.68 -13.86,-11.7 -20.01,-25.65 -2.19,-4.96 -3.29,-14.58 -5.49,-33.82 -0.74,-6.42 -1.19,-11.7 1.96,-16.71 3.22,-5.12 8.45,-7.18 10.2,-7.77 5.86,-2 11.02,-0.65 16.48,0.78 3.99,1.04 6.85,2.38 11.77,4.66 3.02,1.4 4.43,2.23 10.59,5.44 4.16,2.17 7.57,3.92 9.81,5.05"
         id="path1383"
         style="stroke-width:7.55906;stroke-dasharray:none" /><path
         class="cls-7"
         d="m 458.39,350.48 c 4.08,0.93 10.68,1.88 18.44,0.39 11.06,-2.12 18.1,-7.98 23.93,-12.83 4.43,-3.68 13.86,-11.7 20.01,-25.65 2.19,-4.96 3.29,-14.58 5.49,-33.82 0.74,-6.42 1.19,-11.7 -1.96,-16.71 -3.22,-5.12 -8.45,-7.18 -10.2,-7.77 -5.86,-2 -11.02,-0.65 -16.48,0.78 -3.99,1.04 -6.85,2.38 -11.77,4.66 -3.02,1.4 -4.43,2.23 -10.59,5.44 -4.16,2.17 -7.57,3.92 -9.81,5.05"
         id="path1385"
         style="stroke-width:7.55906;stroke-dasharray:none" /><path
         class="cls-7"
         d="m 465.53,292.12 c 0,93.27 -77.5,168.87 -173.1,168.87 -95.6,0 -173.1,-75.61 -173.1,-168.87 0,-3.7 -0.08,-9.82 0.94,-17.72 8.7,-67.18 75.82,-151.22 172.16,-151.15 89.91,0.06 173.1,73.35 173.1,168.87 z"
         id="path1387"
         style="stroke-width:7.55906;stroke-dasharray:none" /></g><ellipse
       class="cls-15"
       cx="91.816635"
       cy="184.67171"
       rx="2.5479374"
       ry="1.6774584"
       id="ellipse1407" /><ellipse
       class="cls-21"
       cx="61.770542"
       cy="183.17416"
       rx="6.4002709"
       ry="6.228292"
       id="ellipse1409" /><ellipse
       class="cls-21"
       cx="122.0638"
       cy="182.99425"
       rx="6.4002709"
       ry="6.228292"
       id="ellipse1411" /><ellipse
       class="cls-15"
       cx="69.893257"
       cy="174.35031"
       rx="5.4054375"
       ry="5.2308125"
       id="ellipse1473" /><ellipse
       class="cls-15"
       cx="113.3008"
       cy="174.35031"
       rx="5.4054375"
       ry="5.2308125"
       id="ellipse1475" /><g
       id="g1545"
       transform="matrix(0.26458333,0,0,0.26458333,13.481442,93.152333)"><path
         class="cls-10"
         d="m 497.11,284.65 c 0.69,2.3 0.46,4.73 -0.75,6.82 -0.71,1.23 2.13,4.34 3.41,3.66 0.89,-0.47 1.4,-1.24 1.57,-2.23 0.17,-0.99 -2.82,-4.51 -3.53,-3.42 -5.01,7.67 -9.94,15.4 -15.03,23.02 -2.3,3.44 -4.78,6.77 -8,9.41 -3.22,2.64 -6.56,4.37 -10.34,5.51 l 3.29,3.53 c 1.48,-6.87 2.09,-13.92 3.77,-20.75 0.23,-0.95 0.54,-2.16 0.94,-2.94 0.83,-1.64 2.48,-3.11 3.93,-4.36 3.69,-3.16 7.35,-6.42 11.26,-9.31 3.91,-2.89 8.56,-5.47 13.71,-5.39 l -3.16,-3.77 c -2.03,2.64 -4.54,4.83 -7.45,6.45 -2.91,1.62 -6.27,2.8 -9.13,4.73 -5.38,3.63 -9.13,9.1 -12.74,14.38 -0.78,1.14 2.46,4.61 3.41,3.66 5.27,-5.29 10.54,-10.58 15.8,-15.88 0.97,-0.97 -2.09,-4.04 -3.16,-3.77 -6.85,1.77 -12.81,6.16 -16.41,12.26 -0.73,1.24 2.12,4.3 3.41,3.66 10,-5.02 16.22,-15.42 26.61,-19.78 l -3.29,-3.53 c -0.82,3.65 -2.77,6.82 -5.63,9.22 l 3.41,3.66 c 2.17,-2.07 4.33,-4.13 6.5,-6.2 l -3.41,-3.66 c -5.2,5.17 -9.87,10.83 -13.98,16.9 l 3.41,3.66 c 1.95,-3.57 3.9,-7.14 5.85,-10.71 0.4,-0.74 -0.34,-1.68 -0.8,-2.22 -0.42,-0.49 -1.59,-1.81 -2.37,-1.54 -6.74,2.26 -8.89,9.98 -14.62,13.62 L 477,313 c 2.91,-3.21 6.17,-6.06 9.75,-8.5 1.01,-0.69 -2.13,-4.35 -3.41,-3.66 -5.54,3 -10.38,7.09 -14.26,12.05 -0.89,1.13 2.03,3.94 3.16,3.77 8.76,-1.37 13.49,-9.66 19.81,-14.89 l -3.53,-3.42 c -4.12,8.32 -8.56,16.98 -16.35,22.44 l 3.41,3.66 c 4.76,-4.09 8.4,-9.29 10.7,-15.13 0.41,-1.03 -2.67,-4.38 -3.53,-3.42 -3.53,3.94 -7.05,7.89 -10.58,11.83 l 3.41,3.66 c 1.42,-2.06 2.84,-4.12 4.25,-6.18 0.76,-1.1 -1.99,-4.12 -3.16,-3.77 -2.59,0.78 -4.81,2.26 -6.44,4.43 l 3.41,3.66 c 0.39,-0.62 0.77,-1.23 1.16,-1.85 l -3.53,-3.42 c -1.33,3.89 -2.8,7.74 -4.42,11.52 -0.32,0.75 0.94,2.06 1.37,2.47 0.53,0.51 1.38,1.29 2.16,0.95 3.93,-1.73 7.29,-4.44 9.83,-7.9 0.76,-1.03 -2.05,-4.25 -3.16,-3.77 -2.92,1.27 -5.66,2.81 -8.23,4.68 l 3.53,3.08 c -0.52,-5.69 3.32,-9.39 7.56,-12.43 3.48,-2.49 7.36,-4.97 8.53,-9.36 0.29,-1.09 -2.13,-3.93 -3.29,-3.53 -9.24,3.2 -14.22,12.43 -17.01,21.23 -0.38,1.2 2.94,4.56 3.66,3.18 4.14,-8.04 8.79,-16.64 17.1,-21.01 0.67,-0.35 -0.6,-2 -0.8,-2.22 -0.55,-0.65 -1.43,-1.58 -2.37,-1.54 -3.05,0.13 -5.93,1.35 -8.16,3.44 -0.97,0.91 2.33,4.53 3.41,3.66 1.29,-1.05 2.58,-2.11 3.88,-3.16 l -3.41,-3.66 c -2.84,4.15 -5.67,8.3 -8.51,12.45 -0.86,1.26 2.78,4.58 3.41,3.66 2.84,-4.15 5.67,-8.3 8.51,-12.45 0.77,-1.13 -2.32,-4.54 -3.41,-3.66 -1.29,1.05 -2.58,2.11 -3.88,3.16 l 3.41,3.66 c 2.12,-2 4.75,-3.1 7.67,-3.23 l -3.16,-3.77 c -8.49,4.46 -13.14,13.3 -17.35,21.49 l 3.66,3.18 c 2.66,-8.36 7.45,-17.49 16.28,-20.54 l -3.29,-3.53 c -1.19,4.47 -5.58,6.89 -9.06,9.45 -1.81,1.33 -3.59,2.77 -4.89,4.62 -1.73,2.48 -2.4,5.4 -2.13,8.39 0.09,0.97 2.38,3.92 3.53,3.08 2.41,-1.76 5,-3.28 7.74,-4.47 l -3.16,-3.77 c -2.53,3.47 -5.9,6.17 -9.83,7.9 l 3.53,3.42 c 1.62,-3.78 3.09,-7.63 4.42,-11.52 0.37,-1.1 -2.93,-4.39 -3.53,-3.42 -0.39,0.62 -0.77,1.23 -1.16,1.85 -0.77,1.24 2.69,4.62 3.41,3.66 1.51,-2.01 3.53,-3.49 5.95,-4.21 l -3.16,-3.77 c -1.42,2.06 -2.84,4.12 -4.25,6.18 -0.8,1.16 2.55,4.62 3.41,3.66 3.53,-3.94 7.05,-7.89 10.58,-11.83 l -3.53,-3.42 c -2.23,5.68 -5.83,10.68 -10.45,14.65 -0.99,0.85 2.25,4.47 3.41,3.66 7.94,-5.57 12.41,-14.45 16.6,-22.92 0.51,-1.03 -2.53,-4.25 -3.53,-3.42 -6.14,5.08 -10.82,13.35 -19.32,14.67 l 3.16,3.77 c 3.88,-4.96 8.72,-9.05 14.26,-12.05 l -3.41,-3.66 c -3.58,2.45 -6.84,5.29 -9.75,8.5 -0.93,1.03 2.24,4.4 3.41,3.66 5.51,-3.5 7.71,-11.25 14.13,-13.41 l -3.16,-3.77 c -1.95,3.57 -3.9,7.14 -5.85,10.71 -0.7,1.29 2.76,4.62 3.41,3.66 4.1,-6.07 8.78,-11.73 13.98,-16.9 0.97,-0.96 -2.44,-4.59 -3.41,-3.66 -2.17,2.07 -4.33,4.13 -6.5,6.2 -0.97,0.92 2.35,4.55 3.41,3.66 2.98,-2.5 5.03,-5.9 5.88,-9.69 0.17,-0.75 -0.68,-1.75 -1.13,-2.24 -0.38,-0.41 -1.5,-1.56 -2.15,-1.29 -10.6,4.45 -16.92,14.89 -27.1,20 l 3.41,3.66 c 3.51,-5.93 9.24,-10.32 15.92,-12.05 l -3.16,-3.77 c -5.27,5.29 -10.54,10.58 -15.8,15.88 l 3.41,3.66 c 3.61,-5.28 7.36,-10.75 12.74,-14.38 2.86,-1.93 6.13,-3.07 9.13,-4.73 3,-1.66 5.42,-3.81 7.45,-6.45 0.5,-0.65 -0.41,-1.77 -0.8,-2.22 -0.58,-0.68 -1.41,-1.53 -2.37,-1.54 -9.41,-0.13 -17.03,7.75 -23.68,13.41 -2.58,2.2 -5.42,4.33 -6.46,7.69 -0.98,3.14 -1.54,6.48 -1.98,9.74 -0.57,4.23 -1.32,8.43 -2.22,12.6 -0.24,1.12 2.07,3.89 3.29,3.53 3.81,-1.14 7.4,-2.97 10.51,-5.46 3.11,-2.49 5.76,-5.87 8.07,-9.3 5.2,-7.72 10.2,-15.59 15.29,-23.39 l -3.53,-3.42 c -0.15,0.84 -0.57,1.35 -1.32,1.75 l 3.41,3.66 c 1.42,-2.45 1.8,-5.24 0.99,-7.97 -0.33,-1.11 -1.12,-2.09 -2.08,-2.73 -0.38,-0.26 -1.9,-0.89 -1.56,0.23 v 0 z"
         id="path1539" /><g
         class="cls-28"
         id="g1543"><path
           class="cls-20"
           d="m 489.37,303.34 -4.88,8.4 c -1.61,2.77 -3.09,5.45 -5.43,7.68 -4.22,4.02 -9.12,7.26 -14.42,9.68 l 1.84,1.41 c 0.47,-3.04 0.78,-6.15 1.45,-9.16 0.27,-1.2 0.66,-2.47 1.62,-3.31 1.01,-0.89 2.45,-1.14 3.75,-1.22 2.82,-0.18 5.42,-0.04 8.04,-1.27 2.46,-1.15 4.51,-3.05 6.47,-4.88 l -1.96,-1.51 c -2.2,4 -4.57,8.24 -8.79,10.39 l 1.71,1.71 c 1.04,-1.87 2.33,-3.47 3.93,-4.89 1.1,-0.97 -0.3,-2.61 -1.51,-1.96 -1.83,0.97 -4,0.84 -6,1.11 -2,0.27 -4.12,0.59 -5.8,1.59 -1.68,1 -2.17,2.73 -2.51,4.49 -0.41,2.12 -0.68,4.26 -0.83,6.41 -0.08,1.12 1.4,1.6 2.13,0.88 2.05,-2 4.8,-2.95 7.28,-4.31 1.12,-0.62 2.44,-1.34 3.22,-2.38 0.35,-0.47 0.58,-0.99 0.62,-1.58 0.05,-0.78 -0.38,-1.59 -0.28,-2.36 0.18,-1.29 -1.54,-2.32 -2.28,-0.96 -1.01,1.85 -1.8,3.78 -2.36,5.81 l 2.46,0.33 c 0.14,-1.95 0.28,-3.89 0.43,-5.84 0.09,-1.2 -1.82,-1.75 -2.33,-0.63 -0.82,1.8 -1.65,3.6 -2.47,5.39 l 2.28,0.96 c 0.54,-1.71 0.83,-3.47 0.9,-5.26 0.03,-0.74 -0.6,-1.17 -1.25,-1.25 -1.36,-0.17 -2.56,0.74 -3.13,1.93 -0.57,1.19 -0.12,3.61 -1.36,4.32 l 1.84,1.41 c 0.55,-1.79 0.99,-3.6 1.31,-5.44 0.15,-0.87 -0.55,-1.87 -1.54,-1.54 -1.44,0.49 -2.25,1.66 -2.56,3.11 -0.31,1.45 0.28,3.57 -0.83,4.67 -1.11,1.1 0.62,2.9 1.77,1.77 1.04,-1.03 1.32,-2.35 1.38,-3.77 0.04,-0.89 -0.23,-2.99 0.9,-3.37 l -1.54,-1.54 c -0.32,1.84 -0.76,3.65 -1.31,5.44 -0.33,1.06 0.91,1.94 1.84,1.41 0.98,-0.56 1.58,-1.5 1.85,-2.59 0.22,-0.89 0,-3.5 1.38,-3.33 l -1.25,-1.25 c -0.06,1.58 -0.34,3.09 -0.82,4.6 -0.42,1.32 1.69,2.27 2.28,0.96 0.82,-1.8 1.65,-3.6 2.47,-5.39 l -2.33,-0.63 c -0.14,1.95 -0.28,3.89 -0.43,5.84 -0.1,1.43 2.09,1.66 2.46,0.33 0.51,-1.83 1.2,-3.55 2.1,-5.22 l -2.28,-0.96 c -0.09,0.64 -0.08,1.17 0.03,1.82 0.15,0.88 0.24,1.2 -0.49,1.78 -1,0.79 -2.18,1.37 -3.31,1.94 -2.28,1.13 -4.57,2.19 -6.41,3.99 l 2.13,0.88 c 0.14,-1.93 0.38,-3.85 0.75,-5.75 0.15,-0.78 0.26,-1.7 0.71,-2.37 0.51,-0.76 1.44,-0.99 2.28,-1.23 3.32,-0.95 7.09,-0.46 10.18,-2.1 l -1.51,-1.96 c -1.74,1.55 -3.19,3.37 -4.32,5.4 -0.63,1.13 0.61,2.27 1.71,1.71 4.6,-2.34 7.29,-6.92 9.69,-11.29 0.69,-1.25 -0.92,-2.49 -1.96,-1.51 -2.05,1.91 -4.22,3.99 -6.94,4.87 -2.72,0.88 -5.94,0.1 -8.79,1.06 -2.51,0.84 -3.99,2.81 -4.65,5.31 -0.83,3.14 -1.09,6.49 -1.59,9.7 -0.17,1.11 0.8,1.89 1.84,1.41 5.48,-2.51 10.56,-5.91 14.92,-10.07 2.32,-2.21 3.85,-4.81 5.45,-7.56 l 5.25,-9.03 c 0.81,-1.39 -1.35,-2.65 -2.16,-1.26 v 0 z"
           id="path1541"
           style="fill:url(#linearGradient1731)" /></g></g><g
       id="g1567"
       transform="matrix(0.26458333,0,0,0.26458333,13.481442,93.152333)"><path
         class="cls-10"
         d="m 80.06,289.18 c -1.01,3.39 -0.12,6.86 1.61,9.85 l 1.49,-2.77 0.29,0.14 1.91,1.67 1.42,2.21 -6.57,-3.23 c 5.43,8.32 10.74,16.75 16.34,24.96 5.6,8.21 12.91,14.76 22.44,17.62 0.96,0.29 1.61,-0.34 1.4,-1.31 -0.88,-4.08 -1.64,-8.17 -2.18,-12.31 -0.43,-3.26 -1.02,-6.55 -1.92,-9.71 -1.34,-4.68 -4.53,-8.15 -8.19,-11.27 -4.06,-3.46 -8.08,-7.03 -12.41,-10.16 -4.65,-3.36 -9.98,-6.12 -15.84,-6.03 -2,0.03 0.4,3.8 0.67,4.15 2.53,3.29 5.57,6.26 9.1,8.48 1.61,1.01 3.28,1.88 5,2.68 1.45,0.68 3.4,1.56 4.49,2.21 0.22,0.13 1.1,0.74 1.59,1.08 0.9,0.62 -0.43,-0.41 0.32,0.25 0.3,0.26 0.62,0.52 0.92,0.79 0.16,0.14 1.2,0.95 0.22,0.18 0.3,0.24 0.59,0.59 0.85,0.87 0.56,0.58 1.14,1.17 1.63,1.82 -0.76,-1.01 0.07,0.1 0.18,0.24 0.26,0.32 0.51,0.64 0.76,0.97 0.5,0.65 0.99,1.31 1.47,1.98 0.96,1.33 1.88,2.68 2.81,4.03 L 113.5,317 c -5.27,-5.29 -10.54,-10.58 -15.8,-15.88 l 0.85,5.11 c 1.54,0.4 2.58,0.75 3.88,1.37 0.35,0.16 0.69,0.34 1.03,0.52 0.04,0.02 1.12,0.62 0.43,0.22 0.66,0.39 1.29,0.84 1.92,1.28 0.82,0.57 -0.56,-0.51 0.26,0.2 0.29,0.25 0.59,0.49 0.88,0.75 0.26,0.23 1.18,0.79 0.16,0.13 0.3,0.19 0.56,0.58 0.79,0.84 0.23,0.26 1.09,0.89 0.14,0.15 0.23,0.18 0.41,0.53 0.59,0.76 0.08,0.11 0.77,1.11 0.44,0.6 -0.33,-0.51 0.41,0.69 0.48,0.8 l 1.49,-2.77 c -0.33,-0.17 -0.66,-0.34 -0.99,-0.51 -0.06,-0.03 -1.1,-0.64 -0.38,-0.2 -0.58,-0.35 -1.15,-0.72 -1.71,-1.11 -0.56,-0.39 -1.11,-0.79 -1.66,-1.2 -0.8,-0.6 0.62,0.52 -0.22,-0.18 -0.24,-0.2 -0.48,-0.39 -0.72,-0.59 -2.17,-1.8 -4.23,-3.74 -6.31,-5.64 -4.46,-4.08 -9.22,-8.09 -14.85,-10.46 -0.97,-0.41 -2.58,-0.62 -2.22,1 1.25,5.58 4.61,10.54 8.97,14.18 0.67,0.56 3.6,2.85 4.09,0.96 0.49,-1.89 -2.09,-4.33 -3.22,-5.4 -2.17,-2.07 -4.33,-4.13 -6.5,-6.2 -0.65,-0.62 -3.21,-2.59 -3.97,-1.2 -0.76,1.39 1.31,3.89 2.14,4.72 1.3,1.29 2.57,2.61 3.8,3.96 0.57,0.62 1.12,1.25 1.68,1.88 0.3,0.34 0.6,0.69 0.9,1.04 0.24,0.28 0.2,0.23 -0.12,-0.14 0.15,0.18 0.29,0.35 0.44,0.53 2.28,2.77 4.42,5.65 6.42,8.62 0.91,1.35 3.04,3.57 4.83,3.57 1.79,0 0.86,-2.17 0.34,-3.11 -1.95,-3.57 -3.9,-7.14 -5.85,-10.71 l -0.68,3.08 c 0.38,0.13 0.41,0.14 0.08,0.02 0.19,0.08 0.38,0.17 0.57,0.27 0.4,0.22 0.37,0.19 -0.1,-0.08 0.18,0.11 0.35,0.22 0.52,0.34 0.78,0.49 -0.74,-0.67 0.15,0.12 0.96,0.86 -0.63,-0.71 0.07,0.05 0.29,0.31 0.58,0.63 0.87,0.94 0.36,0.42 0.28,0.32 -0.23,-0.28 0.14,0.17 0.28,0.34 0.41,0.51 0.48,0.6 0.95,1.21 1.42,1.82 2.56,3.33 5.3,6.67 8.89,8.95 0.7,0.44 2.76,1.69 3.14,0.22 0.38,-1.47 -1.38,-3.5 -2.27,-4.48 -3.47,-3.83 -7.39,-7.25 -11.66,-10.17 l 1.95,6.47 c 0.31,0.17 0.61,0.33 0.91,0.5 0.16,0.09 0.81,0.49 0.35,0.2 0.59,0.36 1.18,0.74 1.76,1.13 0.58,0.39 1.14,0.8 1.7,1.21 1.11,0.81 -0.7,-0.59 0.37,0.28 0.27,0.22 0.54,0.44 0.81,0.67 0.53,0.45 1.05,0.91 1.56,1.39 0.18,0.16 0.88,0.89 0.1,0.09 0.24,0.25 0.49,0.49 0.73,0.74 0.48,0.5 0.95,1.01 1.41,1.54 0.34,0.39 0.53,0.65 0.09,0.1 0.26,0.33 0.52,0.65 0.78,0.98 v -4.09 c -0.91,-0.14 -1.83,-0.34 -2.7,-0.67 0,0 -0.78,-0.36 -1.02,-0.48 -0.12,-0.06 -1.11,-0.6 -0.5,-0.24 -0.46,-0.27 -0.91,-0.58 -1.35,-0.89 -0.18,-0.13 -1.11,-0.88 -0.34,-0.24 -0.73,-0.6 -1.44,-1.22 -2.13,-1.88 0.8,0.77 -0.15,-0.16 -0.31,-0.33 -0.42,-0.42 -0.83,-0.85 -1.24,-1.29 -0.72,-0.76 -1.43,-1.52 -2.15,-2.27 -1.64,-1.71 -3.33,-3.39 -5.16,-4.91 -0.79,-0.66 -2.18,-1.88 -3.35,-1.65 -1.05,0.2 -0.82,1.5 -0.48,2.2 5.11,10.32 10.74,20.55 20.39,27.32 0.85,0.59 3.06,1.72 3.13,-0.12 0.07,-1.84 -1.96,-3.99 -3.22,-5.07 -0.51,-0.44 -1.06,-0.88 -1.52,-1.37 0.86,0.92 -0.08,-0.1 -0.21,-0.23 -0.19,-0.2 -0.38,-0.4 -0.56,-0.6 -0.25,-0.27 -0.63,-0.61 -0.82,-0.92 0.21,0.35 0.43,0.54 0.07,0.07 -0.47,-0.59 -0.92,-1.18 -1.36,-1.8 -0.11,-0.15 -0.63,-0.96 -0.13,-0.18 -0.18,-0.29 -0.37,-0.57 -0.55,-0.87 -0.36,-0.58 -0.7,-1.17 -1.03,-1.77 -0.05,-0.09 -0.46,-0.88 -0.19,-0.33 -0.15,-0.3 -0.3,-0.62 -0.44,-0.93 -0.31,-0.68 -0.6,-1.38 -0.88,-2.08 L 96.8,315.5 c 3.53,3.94 7.05,7.89 10.58,11.83 0.77,0.86 3.18,3.24 4.55,2.47 1.37,-0.77 -0.39,-3.27 -0.92,-4.04 -1.42,-2.06 -2.84,-4.12 -4.25,-6.18 v 4.09 c 0.54,0.16 0.61,0.19 0.98,0.37 0.23,0.11 0.46,0.23 0.68,0.35 -0.3,-0.18 -0.33,-0.19 -0.09,-0.03 0.16,0.11 0.32,0.22 0.47,0.33 -0.45,-0.35 -0.47,-0.35 -0.07,0 -0.49,-0.49 -0.54,-0.52 -0.15,-0.11 -0.44,-0.53 -0.48,-0.57 -0.13,-0.12 1,1.33 2.98,3.57 4.83,3.57 1.85,0 0.92,-2.18 0.34,-3.11 -0.39,-0.62 -0.77,-1.23 -1.16,-1.85 -1.08,-1.73 -2.75,-3.72 -4.75,-4.39 -1.66,-0.55 -2.09,0.44 -1.56,1.99 1.33,3.89 2.8,7.74 4.42,11.52 l 1.97,-1.83 c -0.85,-0.38 -1.69,-0.78 -2.49,-1.26 0.61,0.37 -0.49,-0.34 -0.61,-0.42 -0.18,-0.12 -1.31,-0.99 -0.49,-0.33 -0.31,-0.25 -0.62,-0.51 -0.91,-0.77 -0.2,-0.18 -0.39,-0.36 -0.59,-0.54 0.48,0.46 0.52,0.49 0.11,0.08 -0.26,-0.3 -0.55,-0.57 -0.8,-0.89 0.84,1.06 -0.23,-0.35 -0.37,-0.55 l -0.82,3.78 c 2.86,1.24 4.68,2.29 7.08,4.04 0.51,0.37 3,1.73 3.14,0.22 0.65,-7.18 -4.08,-13.17 -9.45,-17.35 -1,-0.78 -2.03,-1.53 -3.06,-2.27 -0.48,-0.34 -0.96,-0.68 -1.43,-1.02 -0.21,-0.15 -0.43,-0.31 -0.64,-0.47 -0.13,-0.09 -0.25,-0.19 -0.38,-0.28 -0.28,-0.21 -0.17,-0.13 0.34,0.26 -0.33,-0.04 -0.92,-0.78 -1.17,-0.99 -0.79,-0.68 0.73,0.8 0.09,0.09 -0.1,-0.11 -0.2,-0.22 -0.3,-0.33 -0.26,-0.3 -0.14,-0.14 0.38,0.46 -0.05,-0.13 -0.54,-0.91 -0.18,-0.21 0.36,0.7 -0.02,-0.1 -0.13,-0.24 0.53,0.73 0.09,0.19 -0.04,-0.12 -0.06,-0.14 -0.29,-0.97 -0.12,-0.32 l -1.4,1.31 c 0.47,0.16 1.49,0.66 2.31,1.07 0.57,0.28 -0.76,-0.51 0.16,0.1 0.2,0.13 0.4,0.26 0.59,0.39 0.19,0.13 0.38,0.28 0.58,0.41 -0.29,-0.2 -0.54,-0.45 -0.12,-0.08 0.22,0.19 0.45,0.38 0.67,0.58 0.11,0.1 0.7,0.67 0.17,0.15 -0.53,-0.52 0.05,0.07 0.15,0.17 0.17,0.17 0.33,0.35 0.49,0.53 0.51,0.56 0.19,0.41 -0.03,-0.06 0.09,0.2 0.32,0.39 0.45,0.57 0.34,0.43 0.65,0.88 0.98,1.32 0.4,0.54 -0.41,-0.67 -0.06,-0.09 0.13,0.21 0.27,0.41 0.4,0.62 0.29,0.47 0.58,0.95 0.85,1.44 0.24,0.43 0.48,0.87 0.7,1.31 -0.19,-0.37 -0.11,-0.23 0.02,0.06 0.13,0.29 0.27,0.56 0.39,0.85 0.9,1.97 1.65,4 2.3,6.06 l 6.31,2.4 c -5.15,-10 -11.29,-20.08 -21.58,-25.48 l 4.34,7.37 c 0.9,0.04 2.16,0.32 2.78,0.56 0.25,0.1 0.49,0.22 0.73,0.33 0.22,0.1 0.51,0.28 0.13,0.05 0.1,0.06 0.97,0.72 0.5,0.33 -0.47,-0.39 0.43,0.42 0.43,0.41 l 0.87,-4.44 c -1.29,-1.05 -2.58,-2.11 -3.88,-3.16 -0.69,-0.57 -2.82,-2.39 -3.84,-1.44 -1.02,0.95 0.65,3.18 1.16,3.93 2.84,4.15 5.67,8.3 8.51,12.45 0.68,1 1.77,2.01 2.77,2.69 0.56,0.38 1.64,1.05 2.4,0.91 1.94,-0.36 -0.25,-3.53 -0.67,-4.15 -2.84,-4.15 -5.67,-8.3 -8.51,-12.45 l -2.68,2.5 c 1.29,1.05 2.58,2.11 3.88,3.16 0.68,0.55 3.6,2.86 4.09,0.96 0.49,-1.9 -2.09,-4.34 -3.22,-5.4 -3.1,-2.92 -6.99,-4.8 -11.26,-4.98 -1.57,-0.07 -0.25,2.73 0,3.14 1.05,1.73 2.55,3.29 4.35,4.23 0.21,0.11 1.33,0.77 0.74,0.4 0.48,0.3 0.94,0.61 1.4,0.94 0.09,0.06 0.74,0.56 0.27,0.19 -0.47,-0.37 0.17,0.15 0.25,0.21 0.21,0.18 1.02,1.14 1.26,1.12 -0.15,0.01 -0.71,-0.72 -0.15,-0.14 0.17,0.18 0.35,0.36 0.52,0.54 0.17,0.18 0.34,0.37 0.51,0.55 0.03,0.03 0.83,0.95 0.31,0.35 -0.46,-0.54 0.09,0.12 0.17,0.22 0.16,0.2 0.32,0.4 0.47,0.6 0.35,0.45 0.69,0.91 1.02,1.38 0.19,0.26 0.94,1.4 0.41,0.58 0.28,0.43 0.56,0.86 0.83,1.3 0.58,0.93 1.14,1.88 1.68,2.83 1.11,1.96 2.15,3.95 3.18,5.95 0.9,1.74 2.87,3.76 4.75,4.39 0.47,0.15 1.14,0.41 1.57,0 0.54,-0.5 0.16,-1.45 -0.02,-1.99 -3.53,-11.11 -10.79,-22.39 -22.28,-26.37 -0.92,-0.32 -1.65,0.37 -1.4,1.31 1.6,6.01 6.37,10.19 11.26,13.66 0.92,0.65 1.83,1.3 2.73,1.97 0.7,0.52 -0.51,-0.44 -0.07,-0.06 0.2,0.18 0.41,0.33 0.61,0.51 0.13,0.11 0.54,0.58 0.7,0.63 -0.28,-0.08 -0.84,-0.8 -0.18,-0.16 0.62,0.61 -0.02,0.15 -0.14,-0.21 0.06,0.2 0.44,0.57 0.56,0.74 -0.27,-0.38 -0.27,-0.51 -0.06,-0.04 -0.26,-0.6 0.24,0.58 0.23,0.57 0.42,1.12 0.55,2.53 0.43,3.82 l 3.14,0.22 c -2.76,-2.02 -5.75,-3.75 -8.89,-5.11 -0.71,-0.31 -1.94,-0.78 -2.23,0.32 -0.29,1.1 0.81,2.63 1.41,3.46 3.46,4.73 8.12,8.76 13.5,11.13 0.49,0.22 1.46,0.64 1.98,0.16 0.52,-0.48 0.2,-1.48 -0.02,-1.99 -1.62,-3.78 -3.09,-7.63 -4.42,-11.52 l -6.31,-2.4 c 0.39,0.62 0.77,1.23 1.16,1.85 l 5.17,0.45 c -2.7,-3.6 -6.33,-6.55 -10.68,-7.86 -0.88,-0.26 -1.34,0.16 -1.41,0.97 -0.09,1.11 0.82,2.27 1.4,3.12 1.42,2.06 2.84,4.12 4.25,6.18 l 3.64,-1.57 c -3.53,-3.94 -7.05,-7.89 -10.58,-11.83 -0.88,-0.99 -2.54,-2.55 -3.97,-2.55 -1.3,0 -1.2,1.18 -0.81,2.17 2.85,7.26 7.63,13.71 13.53,18.78 l -0.09,-5.19 c -0.25,-0.18 -1.37,-1.03 -0.64,-0.44 -0.41,-0.33 -0.82,-0.67 -1.21,-1.02 -0.2,-0.17 -0.39,-0.35 -0.58,-0.53 -0.95,-0.86 0.47,0.51 -0.03,-0.03 -0.36,-0.39 -0.73,-0.76 -1.08,-1.15 -0.18,-0.19 -0.35,-0.4 -0.52,-0.59 -0.5,-0.54 0.55,0.69 0.09,0.11 -0.33,-0.42 -0.66,-0.82 -0.98,-1.24 -0.32,-0.42 -0.63,-0.85 -0.94,-1.28 -0.15,-0.22 -0.3,-0.44 -0.46,-0.65 -0.43,-0.6 0.59,0.92 -0.1,-0.16 -1.16,-1.81 -2.25,-3.66 -3.27,-5.55 -0.54,-1.01 -1.07,-2.02 -1.59,-3.04 -0.12,-0.24 -0.24,-0.48 -0.36,-0.72 -0.31,-0.61 0.23,0.47 -0.07,-0.14 -0.27,-0.54 -0.54,-1.08 -0.8,-1.61 l -3.83,0.55 c 0.46,0.38 0.91,0.76 1.35,1.16 0.22,0.2 0.44,0.4 0.65,0.61 -0.42,-0.41 -0.42,-0.41 0,0 0.83,0.85 1.66,1.71 2.47,2.57 1.7,1.81 3.42,3.61 5.27,5.26 3.51,3.14 7.76,6.02 12.5,6.76 2.76,0.43 0.72,-3.18 0,-4.09 -4.9,-6.27 -10.93,-11.49 -17.93,-15.28 -0.46,-0.25 -1.49,-0.62 -1.98,-0.16 -0.43,0.4 -0.24,1.09 -0.11,1.57 0.55,2.01 2.37,3.91 4.04,5.05 0.86,0.59 1.71,1.19 2.54,1.83 -0.7,-0.54 0.42,0.35 0.45,0.37 0.4,0.33 0.8,0.67 1.19,1.01 0.39,0.34 0.78,0.69 1.16,1.05 0.17,0.16 1.12,1.09 0.34,0.31 0.74,0.74 1.46,1.49 2.16,2.27 l 0.87,-4.26 c -0.18,-0.11 -0.36,-0.23 -0.54,-0.35 -0.41,-0.3 -0.35,-0.24 0.18,0.17 -0.31,-0.14 -0.65,-0.8 -0.97,-0.85 0.57,0.55 0.65,0.63 0.26,0.24 -0.15,-0.16 -0.3,-0.32 -0.45,-0.48 -0.15,-0.16 -0.29,-0.32 -0.43,-0.49 -0.36,-0.42 -0.29,-0.33 0.22,0.26 0.07,-0.2 -1.45,-1.84 -1.64,-2.08 -0.54,-0.7 -1.07,-1.39 -1.62,-2.08 -3.02,-3.72 -6.48,-7.15 -11.11,-8.71 -2.21,-0.74 -1.11,2.3 -0.68,3.08 1.95,3.57 3.9,7.14 5.85,10.71 l 5.17,0.45 c -4.34,-6.43 -9.33,-12.44 -14.83,-17.92 l -1.82,3.52 c 2.17,2.07 4.33,4.13 6.5,6.2 l 0.87,-4.44 c -0.29,-0.25 -0.62,-0.49 -0.88,-0.77 1.03,1.14 -0.12,-0.19 -0.12,-0.19 0.39,0.48 0.47,0.57 0.24,0.27 -0.12,-0.15 -0.24,-0.31 -0.35,-0.47 -0.74,-1 0.42,0.8 -0.18,-0.3 -0.07,-0.13 -0.59,-1.12 -0.26,-0.43 -0.17,-0.35 -0.32,-0.71 -0.46,-1.07 -0.27,-0.68 -0.35,-0.97 -0.53,-1.77 l -2.22,1 c 0.68,0.29 1.36,0.6 2.02,0.93 0.27,0.14 0.54,0.29 0.81,0.43 0.16,0.09 0.32,0.18 0.48,0.27 -0.32,-0.19 -0.36,-0.22 -0.12,-0.06 0.57,0.37 1.14,0.73 1.7,1.11 0.3,0.21 0.6,0.43 0.9,0.65 0.1,0.08 0.94,0.7 0.41,0.3 -0.53,-0.4 0.3,0.24 0.4,0.32 0.29,0.23 0.58,0.47 0.86,0.71 0.57,0.48 1.14,0.97 1.7,1.47 1.03,0.91 2.05,1.85 3.07,2.78 4.5,4.13 9.11,8.22 14.62,10.98 0.67,0.34 1.63,0.67 2.11,-0.08 0.48,-0.75 -0.23,-2.04 -0.61,-2.69 -4.68,-7.91 -12.35,-14.38 -21.33,-16.69 -1.02,-0.26 -1.54,0.32 -1.4,1.31 0.19,1.38 1.31,2.85 2.25,3.8 5.27,5.29 10.54,10.58 15.8,15.88 0.82,0.83 3.15,3.26 4.55,2.47 1.4,-0.79 -0.39,-3.27 -0.92,-4.04 -4.15,-6.07 -8.57,-11.94 -14.52,-16.37 -2.91,-2.17 -6.22,-3.56 -9.45,-5.15 -0.4,-0.2 -0.79,-0.4 -1.18,-0.61 -0.1,-0.06 -1.13,-0.66 -0.6,-0.33 -0.35,-0.22 -0.69,-0.44 -1.03,-0.68 -0.18,-0.12 -1.12,-0.87 -0.36,-0.24 -0.32,-0.26 -0.62,-0.54 -0.94,-0.8 -0.75,-0.63 0.33,0.39 -0.08,-0.07 -0.28,-0.3 -0.56,-0.61 -0.84,-0.9 -0.25,-0.28 -0.18,-0.2 0.19,0.24 -0.17,-0.21 -0.34,-0.43 -0.51,-0.65 l 0.67,4.15 c 1.77,-0.03 3.78,0.36 5.27,0.92 0.96,0.37 1.89,0.84 2.79,1.33 0.07,0.04 0.81,0.47 0.45,0.25 -0.32,-0.19 0.27,0.17 0.26,0.17 0.53,0.34 1.06,0.69 1.58,1.05 0.41,0.28 0.81,0.57 1.2,0.87 0.23,0.17 0.45,0.34 0.68,0.51 0.13,0.1 0.7,0.56 0.05,0.04 0.84,0.68 1.67,1.35 2.5,2.04 1.9,1.58 3.78,3.18 5.66,4.78 0.79,0.67 1.57,1.35 2.36,2.03 0.73,0.62 0.09,0.07 -0.04,-0.06 0.19,0.2 0.38,0.41 0.58,0.6 -0.04,-0.04 -0.53,-0.69 -0.19,-0.22 0.31,0.43 -0.29,-0.56 0.12,0.21 0.31,0.57 -0.31,-0.76 -0.26,-0.53 0.03,0.14 0.13,0.3 0.18,0.43 0.09,0.23 0.16,0.45 0.24,0.68 -0.27,-0.78 0.01,0.09 0.09,0.39 0.74,2.88 1.29,5.84 1.69,8.79 0.56,4.17 1.31,8.31 2.2,12.43 l 1.4,-1.31 c -1.77,-0.53 -3.29,-1.16 -4.95,-2.06 -0.11,-0.06 -1.1,-0.64 -0.53,-0.29 -0.36,-0.22 -0.7,-0.44 -1.05,-0.67 -0.4,-0.27 -0.79,-0.57 -1.19,-0.84 -0.27,-0.2 -0.22,-0.16 0.13,0.11 -0.22,-0.17 -0.43,-0.35 -0.64,-0.53 -0.32,-0.27 -0.63,-0.55 -0.93,-0.83 -0.42,-0.4 -0.41,-0.38 0.06,0.06 -0.16,-0.16 -0.32,-0.32 -0.47,-0.49 -0.36,-0.38 -0.71,-0.78 -1.06,-1.17 0.75,0.83 -0.22,-0.28 -0.29,-0.37 -0.65,-0.83 -1.28,-1.68 -1.88,-2.54 -0.26,-0.37 -0.52,-0.74 -0.77,-1.12 0.48,0.7 -0.36,-0.55 -0.46,-0.69 -4.83,-7.34 -9.61,-14.71 -14.41,-22.07 -1.08,-1.66 -2.52,-3.36 -4.35,-4.23 -1.01,-0.48 -2.5,-0.58 -2.22,1 0.62,3.43 3.56,6.42 6.52,8 0.66,0.35 1.64,0.66 2.11,-0.08 0.47,-0.74 -0.23,-2.04 -0.61,-2.69 -0.24,-0.42 -0.27,-0.47 -0.08,-0.13 -0.11,-0.25 -0.2,-0.5 -0.29,-0.76 -0.02,-0.06 -0.14,-0.86 -0.16,-1.14 -0.08,-0.99 0.11,-1.97 0.4,-2.91 0.8,-2.68 -6.54,-8.95 -7.31,-6.37 v 0 z"
         id="path1561" /><g
         class="cls-28"
         id="g1565"><path
           class="cls-19"
           d="m 90.57,311.37 5.13,8.82 c 1.66,2.86 3.26,5.59 5.67,7.9 4.4,4.2 9.52,7.64 15.05,10.17 1.57,0.72 3.01,-0.45 2.75,-2.12 -0.48,-3.15 -0.76,-6.43 -1.54,-9.52 -0.7,-2.8 -2.35,-4.98 -5.13,-5.93 -2.78,-0.95 -5.81,-0.16 -8.6,-1 -2.79,-0.84 -4.84,-2.89 -6.86,-4.77 -1.55,-1.45 -3.99,0.38 -2.94,2.27 2.45,4.46 5.22,9.12 9.92,11.51 1.65,0.84 3.51,-0.87 2.57,-2.57 -1.16,-2.08 -2.64,-3.95 -4.42,-5.53 l -2.27,2.94 c 3.16,1.67 6.94,1.2 10.33,2.16 0.67,0.19 1.47,0.35 1.9,0.94 0.43,0.59 0.51,1.53 0.64,2.22 0.36,1.85 0.59,3.71 0.72,5.58 l 3.2,-1.33 c -1.88,-1.84 -4.21,-2.93 -6.54,-4.09 -1.08,-0.54 -2.19,-1.1 -3.16,-1.82 -0.51,-0.38 -0.52,-0.4 -0.4,-0.99 0.16,-0.84 0.19,-1.49 0.07,-2.34 l -3.43,1.44 c 0.88,1.62 1.55,3.29 2.04,5.07 0.55,1.98 3.84,1.67 3.68,-0.5 -0.14,-1.95 -0.28,-3.89 -0.43,-5.84 l -3.49,0.95 c 0.82,1.8 1.65,3.6 2.47,5.39 0.89,1.93 4.06,0.56 3.43,-1.44 -0.46,-1.46 -0.73,-2.9 -0.79,-4.43 l -1.88,1.88 c 0.63,-0.08 0.12,-0.12 0.22,0 0.17,0.22 0.21,0.51 0.26,0.77 0.14,0.69 0.13,1.4 0.3,2.09 0.31,1.25 1.01,2.32 2.13,2.96 1.38,0.79 3.25,-0.53 2.75,-2.12 -0.55,-1.79 -0.99,-3.6 -1.31,-5.44 l -2.31,2.31 c 0.66,0.22 0.43,2.29 0.45,2.77 0.06,1.58 0.4,3.06 1.56,4.21 1.72,1.7 4.37,-0.95 2.65,-2.65 -0.93,-0.92 -0.41,-3.16 -0.67,-4.39 -0.36,-1.68 -1.35,-2.99 -2.99,-3.55 -1.47,-0.5 -2.53,1.01 -2.31,2.31 0.32,1.84 0.76,3.65 1.31,5.44 l 2.75,-2.12 c -0.46,-0.26 -0.46,-0.96 -0.52,-1.43 -0.12,-0.92 -0.2,-1.83 -0.61,-2.67 -0.67,-1.36 -2.1,-2.43 -3.67,-2.24 -0.97,0.12 -1.92,0.76 -1.88,1.88 0.07,1.85 0.37,3.66 0.93,5.43 l 3.43,-1.44 c -0.82,-1.8 -1.65,-3.6 -2.47,-5.39 -0.77,-1.68 -3.63,-0.86 -3.49,0.95 0.14,1.95 0.28,3.89 0.43,5.84 l 3.68,-0.5 c -0.58,-2.08 -1.39,-4.07 -2.42,-5.96 -0.45,-0.82 -1.51,-1.12 -2.34,-0.77 -0.93,0.39 -1.22,1.27 -1.09,2.21 0.08,0.6 -0.3,1.37 -0.3,2 0,0.78 0.26,1.47 0.71,2.09 0.84,1.14 2.22,1.93 3.44,2.6 2.42,1.33 5.14,2.25 7.15,4.21 1.09,1.07 3.32,0.35 3.2,-1.33 -0.16,-2.21 -0.44,-4.41 -0.86,-6.58 -0.37,-1.92 -1.01,-3.81 -2.79,-4.86 -1.78,-1.05 -4.1,-1.41 -6.12,-1.67 -1.88,-0.25 -3.97,-0.12 -5.69,-1.03 -1.8,-0.96 -3.93,1.47 -2.27,2.94 1.56,1.39 2.82,2.94 3.83,4.77 l 2.57,-2.57 c -4.13,-2.1 -6.42,-6.26 -8.57,-10.16 l -2.94,2.27 c 1.95,1.82 3.99,3.72 6.42,4.9 2.79,1.35 5.53,1.24 8.53,1.44 1.14,0.07 2.41,0.28 3.31,1.04 0.84,0.71 1.17,1.83 1.41,2.85 0.72,3.05 1.02,6.24 1.5,9.34 l 2.75,-2.12 c -5.25,-2.4 -10.11,-5.59 -14.29,-9.58 -2.25,-2.14 -3.66,-4.69 -5.21,-7.35 l -5,-8.61 c -1.21,-2.09 -4.45,-0.2 -3.24,1.89 z"
           id="path1563"
           style="fill:url(#linear-gradient-8)" /></g></g><path
       style="fill:#fa706e;stroke-width:0.264583"
       d="m 89.51859,210.29988 c -2.092101,-0.63639 -4.355488,-2.79474 -5.506897,-5.25134 -0.663921,-1.41652 -0.714674,-1.79158 -0.796617,-5.88691 l -0.08752,-4.374 2.336476,0.22073 c 1.285062,0.1214 2.961555,0.28257 3.725539,0.35814 l 1.418569,-0.0986 -0.02951,3.47373 c -0.02964,3.48938 0.155828,3.98196 1.351027,4.26952 1.192872,0.28701 1.465209,-0.30484 1.669917,-3.62906 0.101585,-1.64963 -0.0046,-3.6867 -0.09173,-3.91375 -0.134193,-0.3497 0.456797,-0.17045 3.211561,-0.46244 5.168305,-0.54782 4.560755,-0.63295 4.661305,2.44435 0.1625,4.97317 -0.78191,8.02782 -3.243166,10.48988 -2.008439,2.00911 -3.384049,2.61199 -5.896468,2.58425 -1.132624,-0.0125 -2.357744,-0.11352 -2.722487,-0.22447 z"
       id="path10435"
       sodipodi:nodetypes="ssscsscssssssssss" /><path
       style="fill:#b07158;stroke-width:0.264583"
       d="m 86.742178,195.19644 c -2.608585,-0.16588 -5.199219,-0.86904 -7.667858,-1.4499 -1.015864,-0.23868 -1.99813,-0.55937 -2.182813,-0.71265 -0.480714,-0.39895 -0.422578,-2.19373 0.0847,-2.61473 0.350889,-0.29121 0.953019,-0.24957 3.638021,0.25157 9.45006,2.01456 16.195106,1.34789 24.801182,-0.3666 1.41046,-0.1637 1.66833,-0.12139 2.10281,0.34496 1.11882,1.20092 -0.0951,3.0272 -2.21863,3.33782 -0.45668,0.0668 -2.43767,0.3824 -4.4022,0.70132 -4.021394,0.65284 -10.000213,0.8675 -14.155208,0.50821 z"
       id="path10431"
       sodipodi:nodetypes="ccssccssssc" /><path
       style="fill:#f9403b;stroke-width:0.264583"
       d="m 91.63697,202.95514 c -0.902031,-0.32238 -1.058333,-0.94747 -1.058333,-4.23258 v -3.43375 l 1.690419,0.0529 c 0.942447,0.0295 1.153684,-0.30193 1.290467,0.0545 0.09676,0.25215 0.141647,2.3362 0.04004,3.98583 -0.216036,3.50817 -0.53244,4.08421 -1.962611,3.57308 z"
       id="path10429"
       sodipodi:nodetypes="sscsscss" /></g></svg>
