<?xml version="1.0" encoding="UTF-8" standalone="no"?>
<!-- Created with Inkscape (http://www.inkscape.org/) -->

<svg
   width="193.23389mm"
   height="64.167175mm"
   viewBox="0 0 193.23389 64.167175"
   version="1.1"
   id="svg5"
   xml:space="preserve"
   xmlns:inkscape="http://www.inkscape.org/namespaces/inkscape"
   xmlns:sodipodi="http://sodipodi.sourceforge.net/DTD/sodipodi-0.dtd"
   xmlns="http://www.w3.org/2000/svg"
   xmlns:svg="http://www.w3.org/2000/svg"><sodipodi:namedview
     id="namedview7"
     pagecolor="#ffffff"
     bordercolor="#000000"
     borderopacity="0.25"
     inkscape:showpageshadow="2"
     inkscape:pageopacity="0.0"
     inkscape:pagecheckerboard="0"
     inkscape:deskcolor="#d1d1d1"
     inkscape:document-units="mm"
     showgrid="false"
     inkscape:zoom="0.72248176"
     inkscape:cx="397.93392"
     inkscape:cy="562.64396"
     inkscape:window-width="1854"
     inkscape:window-height="1011"
     inkscape:window-x="0"
     inkscape:window-y="0"
     inkscape:window-maximized="1"
     inkscape:current-layer="layer1"
     showguides="false" /><defs
     id="defs2"><style
       id="style1277">
      .cls-1, .cls-2 {
        stroke-width: 12px;
      }

      .cls-1, .cls-2, .cls-3, .cls-4, .cls-5, .cls-6, .cls-7 {
        stroke-miterlimit: 10;
      }

      .cls-1, .cls-2, .cls-5, .cls-7 {
        stroke: #ad8c76;
      }

      .cls-1, .cls-5 {
        fill: none;
      }

      .cls-2 {
        fill: #eaeadd;
      }

      .cls-8 {
        fill: url(#linear-gradient);
      }

      .cls-8, .cls-9, .cls-10, .cls-11, .cls-12, .cls-13, .cls-14, .cls-15, .cls-16, .cls-17, .cls-18, .cls-19, .cls-20, .cls-21, .cls-22, .cls-23, .cls-24 {
        stroke-width: 0px;
      }

      .cls-9, .cls-18 {
        opacity: .11;
      }

      .cls-9, .cls-23 {
        fill: #fff;
      }

      .cls-3 {
        fill: url(#linear-gradient-4);
        opacity: .76;
        stroke: url(#linear-gradient-5);
      }

      .cls-4 {
        fill: #877b68;
        stroke: #5b4f3c;
        stroke-width: .25px;
      }

      .cls-10 {
        fill: #d3675a;
      }

      .cls-11, .cls-7 {
        fill: #eacebf;
      }

      .cls-12 {
        fill: url(#linear-gradient-7);
        opacity: .54;
      }

      .cls-13 {
        fill: #998274;
      }

      .cls-14 {
        fill: #d6cbb7;
      }

      .cls-15 {
        fill: #231f20;
      }

      .cls-16 {
        fill: #efebe0;
      }

      .cls-25 {
        opacity: .43;
      }

      .cls-26 {
        opacity: .64;
      }

      .cls-27 {
        opacity: .59;
      }

      .cls-28 {
        opacity: .62;
      }

      .cls-17 {
        fill: #d8c7b9;
      }

      .cls-29, .cls-6 {
        opacity: .72;
      }

      .cls-5, .cls-7 {
        stroke-width: 11px;
      }

      .cls-18 {
        fill: #eaece7;
      }

      .cls-19 {
        fill: url(#linear-gradient-8);
      }

      .cls-20 {
        fill: url(#linear-gradient-6);
      }

      .cls-6 {
        fill: url(#linear-gradient-2);
        stroke: url(#linear-gradient-3);
      }

      .cls-21 {
        fill: #e2ad9d;
      }

      .cls-22 {
        fill: #b8a28a;
      }

      .cls-24 {
        fill: #c29f90;
      }
    </style><style
       id="style1277-4">
      .cls-1, .cls-2 {
        stroke-width: 12px;
      }

      .cls-1, .cls-2, .cls-3, .cls-4, .cls-5, .cls-6, .cls-7 {
        stroke-miterlimit: 10;
      }

      .cls-1, .cls-2, .cls-5, .cls-7 {
        stroke: #ad8c76;
      }

      .cls-1, .cls-5 {
        fill: none;
      }

      .cls-2 {
        fill: #eaeadd;
      }

      .cls-8 {
        fill: url(#linear-gradient);
      }

      .cls-8, .cls-9, .cls-10, .cls-11, .cls-12, .cls-13, .cls-14, .cls-15, .cls-16, .cls-17, .cls-18, .cls-19, .cls-20, .cls-21, .cls-22, .cls-23, .cls-24 {
        stroke-width: 0px;
      }

      .cls-9, .cls-18 {
        opacity: .11;
      }

      .cls-9, .cls-23 {
        fill: #fff;
      }

      .cls-3 {
        fill: url(#linear-gradient-4);
        opacity: .76;
        stroke: url(#linear-gradient-5);
      }

      .cls-4 {
        fill: #877b68;
        stroke: #5b4f3c;
        stroke-width: .25px;
      }

      .cls-10 {
        fill: #d3675a;
      }

      .cls-11, .cls-7 {
        fill: #eacebf;
      }

      .cls-12 {
        fill: url(#linear-gradient-7);
        opacity: .54;
      }

      .cls-13 {
        fill: #998274;
      }

      .cls-14 {
        fill: #d6cbb7;
      }

      .cls-15 {
        fill: #231f20;
      }

      .cls-16 {
        fill: #efebe0;
      }

      .cls-25 {
        opacity: .43;
      }

      .cls-26 {
        opacity: .64;
      }

      .cls-27 {
        opacity: .59;
      }

      .cls-28 {
        opacity: .62;
      }

      .cls-17 {
        fill: #d8c7b9;
      }

      .cls-29, .cls-6 {
        opacity: .72;
      }

      .cls-5, .cls-7 {
        stroke-width: 11px;
      }

      .cls-18 {
        fill: #eaece7;
      }

      .cls-19 {
        fill: url(#linear-gradient-8);
      }

      .cls-20 {
        fill: url(#linear-gradient-6);
      }

      .cls-6 {
        fill: url(#linear-gradient-2);
        stroke: url(#linear-gradient-3);
      }

      .cls-21 {
        fill: #e2ad9d;
      }

      .cls-22 {
        fill: #b8a28a;
      }

      .cls-24 {
        fill: #c29f90;
      }
    </style></defs><path
     style="fill:#292929;stroke:none;stroke-width:0.264583"
     d="m 22.31348,0.40255748 0.2646,2.91042002 h 1.0583 v 0.26458 L 3.7926798,4.1067275 V 19.187977 h 3.7041 l 0.2646,5.02708 h 0.2646 l 0.5292,-0.52917 v -1.05833 l 0.5291,1.32292 h 0.2646 c 0.2796,-0.92393 0.6397,-1.17264 1.5875002,-1.32292 l 0.7938,22.75417 h 0.2645 v -3.70417 h 0.2646 l 0.2646,2.91042 1.8521,-0.52917 0.2646,1.85208 h 0.2646 l 0.5291,-30.42708 h 0.5292 l 0.2646,1.85208 1.8521,-1.85208 v 3.43958 h 0.5291 l 0.2646,-7.67291 4.0362,-0.67813 0.7263,-1.7031195 v -0.26459 l -3.9687,-0.26458 v -0.26458 l 55.0333,-0.26459 v 0.26459 h -1.0583 v 0.26458 c 0.9009,0.0685 1.3451,0.15743 1.5875,1.05833 h -3.175 v 0.26459 l 2.3812,0.5291595 v 0.26459 l -4.2333,0.26458 v 0.26458 l 9.2604,0.52917 0.2646,7.67292 h 0.2646 v -2.64584 l 0.5291,0.26459 -0.2646,-1.85209 2.9105,1.05834 -0.7938,-0.26459 0.5292,0.52917 c 1.2059,5.06518 0,10.97703 0,16.13958 h -0.2646 l -0.2646,-4.7625 h -0.2646 v 6.35 c -1.6579,-1.60469 -0.082,-5.97058 -2.1166,-7.14375 l -0.5292,16.66875 h -0.2646 l -0.2646,-2.11666 -1.0583,-0.52917 -0.2646,2.38125 h -0.2646 l -1.0583,-2.38125 h -0.2646 l 0.5292,2.91042 h -0.2646 v -0.79375 h -0.2646 v 2.91041 l -0.7937,-0.52916 0.2645,1.85208 -0.7937,-0.26458 v 2.11666 l -2.6458,-0.26458 0.5291,1.5875 -1.5875,-0.52917 0.7938,1.5875 -0.2646,1.05834 1.3229,0.26458 v 0.52917 l -2.1167,-0.79375 -3.7041,0.79375 0.5291,1.05833 -3.9687,-0.52917 v 0.26459 l 1.8521,0.79375 -1.3229,-0.26459 c 1.0821,2.26431 5.4038,3.28957 7.5514,1.85738 1.0332,-0.68898 1.9638,-2.64689 3.2965,-2.38654 v -1.32292 l 1.0583,-0.26458 -0.5292,-1.5875 0.7938,-1.05834 2.3812,-0.79375 0.2646,1.05834 h 0.2646 l 0.2646,-3.70417 2.6458,-1.32292 0.2646,1.05834 h 0.2646 l 0.7937,-7.14375 1.0584,1.05833 -0.7938,-0.26458 0.5292,1.85208 h 0.2646 l 0.7937,-3.70417 h 0.2646 l 1.3229,4.23334 c -1.1298,-4.74531 0.7938,-10.69817 0.7938,-15.61042 h 0.2646 v 0.52917 h 0.2645 l -0.2645,-0.79375 c 1.2401,1.32371 0.7937,3.58537 0.7937,5.29166 h 0.2646 l 0.2646,-4.7625 h 0.2646 l 0.5291,7.14375 h 0.2646 l 0.5292,-11.64166 h 2.3812 l -0.2646,-0.79375 2.1167,1.05833 v -0.26458 l -0.7937,-3.175 h 4.4979 l 0.7937,3.43958 -0.2646,-3.43958 2.9105,0.26458 v 0.52917 l -0.7938,0.26458 0.2646,2.11667 0.7937,-0.26459 -0.2645,0.79375 1.0583,3.70417 0.5292,-3.175 0.7937,0.26458 1.0583,-0.79375 0.4842,6.87917 0.045,8.46667 h 0.2646 l 1.8521,-5.02709 0.5291,5.02709 h 0.2646 l 0.2646,-4.23334 h 0.2646 c 0,1.76689 -0.6181,5.91027 0.7937,7.14375 l -0.5291,1.5875 c 1.1652,0 0.2333,2.18414 0,2.91042 l 1.5875,-3.96875 h 0.2646 l 0.2645,1.5875 0.5292,-0.26458 -0.2646,2.11666 1.3229,-1.05833 v 3.96875 l 0.5292,0.52917 -0.5292,1.05833 2.1167,-1.5875 -0.5292,1.32292 1.5875,-0.26459 0.2646,1.32292 0.7938,-0.52917 v 2.11667 l -0.7938,1.05833 1.3229,-0.52916 -0.2645,0.79375 h 2.9104 l -0.2646,-0.79375 0.7937,1.32291 -0.7937,0.26459 v 0.52916 l 1.0583,0.26459 -1.0583,1.85208 7.9375,0.79375 -1.5875,1.32292 v 0.26458 l 1.0583,-0.26458 0.2646,0.26458 -0.2646,0.79375 7.6729,1.05833 v 0.26459 h -3.175 v 0.26458 l 3.9688,1.05833 -0.7938,-0.26458 v 0.26458 l 1.0584,0.52917 v 0.26458 l -4.7625,0.52917 v 0.26458 h 36.5125 v -0.26458 l -2.9104,-0.26458 v -0.26459 l 1.852,-0.79375 v -0.26458 l -3.9687,-0.26458 v -0.26459 l 10.0542,-1.32291 -0.5292,-1.05834 -0.7938,0.79375 v -0.79375 l 2.1167,-1.32291 -2.1167,-0.26459 c 1.0388,-1.03558 1.8849,-2.14339 3.4396,-2.11666 l -0.2646,1.32291 1.0584,-0.52916 0.2646,-1.5875 c -0.9258,-0.66913 -0.1956,-1.29567 0.5291,-1.85209 l -0.2646,2.91042 h 0.5292 l -0.5292,-12.96458 -0.7937,0.79375 0.5292,-0.26459 v 0.26459 l -2.3813,6.61458 0.5292,-7.9375 h -0.2646 c -0.8853,2.99455 0.3069,6.56325 -0.4998,9.50013 -0.7591,2.76437 -5.0416,0.32173 -3.469,4.52279 l -12.4354,0.79375 v 0.26458 h 3.175 v 0.26458 c -1.4816,0.11404 -2.1698,0.93451 -2.3812,2.38125 h 4.4979 v 0.26459 h -27.2521 v -0.26459 c 2.444,0 7.1049,1.16338 7.1438,-2.11666 h -3.4396 v -0.26459 l 3.7041,-0.26458 v -0.52917 l -15.3458,-0.52916 c 1.5724,-1.77668 1.9915,-1.71847 4.2333,-2.38125 v -0.26459 l -4.4979,-0.26458 0.7938,-0.26458 v -0.26459 l -4.4979,-0.26458 v -0.26458 l 1.0583,0.26458 -0.7938,-2.11667 -1.0583,-0.26458 v -0.26458 l 1.8521,-0.52917 h -3.9688 l 0.2646,-0.79375 -0.2646,-0.26458 -1.0583,0.26458 0.5292,-0.79375 -0.5292,-0.79375 v -0.26458 l 0.5292,-2.11667 -1.3229,1.32292 h -0.2646 c -1.1272,-1.52374 -1.8915,-2.27727 -1.3229,-4.23334 l -1.0584,0.26459 -0.5291,-1.05834 v -0.26458 c 0.8956,-1.19618 0.7022,-4.29683 0,-5.55625 l -1.0584,2.91042 -1.5875,1.32291 0.7938,-1.5875 h -0.7938 l 0.5292,-1.85208 v -0.26458 l -0.8041,-6.61459 0.01,-15.08125 1.0584,0.79375 0.2646,-0.79375 v -0.26458 h -1.323 v -0.52917 l 2.9105,0.79375 v -0.26458 l -2.9105,-2.11667 1.0584,0.52917 c 2.363,-1.44727 5.5231,-1.32292 8.2021,-1.32292 v -0.26458 l -1.323,-0.26458 2.3813,-0.7937495 v -0.26459 l -5.8208,-0.79375 v -0.26458 l 5.8208,-0.52917 v -0.26458 l -48.9479,-0.26458 v -0.26459 c 3.1189,0 3.8065,0.2294 5.0271,-2.64583 l -29.898,-0.79375 v -0.26458 l 2.6459,-0.26459 0.5291,-2.64583002 -9.2604,-0.26458 -21.6958,0.26458 m 112.9771,0.79375002 v 0.26458 l 0.7937,0.26459 -0.2646,0.79375 -3.4395,0.26458 0.7937,0.26458 v 0.26459 h -1.0583 l 0.5291,0.79375 -6.35,-0.48022 -11.1125,1.53855 v 0.26458 l 3.175,1.5875 5.8209,0.79375 c 4.7151,-1.12262 10.5018,-0.26458 15.3458,-0.26458 11.6475,0 23.3175,0.52917 34.925,0.52917 l -2.6458,1.05833 -0.2646,1.3229195 -0.7938,-0.26459 -2.3812,0.52917 v 0.26458 l 6.35,0.26459 -0.2646,3.96875 c 4.9705,-2.45719 3.7042,4.74292 3.7042,7.67291 0,9.6356 0.2646,19.23521 0.2646,28.83959 h 0.2645 l 2.1167,-6.87917 h 0.2646 v 5.02708 h 0.2646 l 0.5291,-16.40416 h 0.5292 l 0.2646,4.23333 h 0.2646 l 1.0583,-4.7625 h 0.2646 l 0.5292,4.7625 h 0.2645 l 1.0584,-16.13958 2.9104,1.32291 c 0,-2.99217 0.5315,-4.77811 3.9687,-3.96875 l 0.2646,-0.26458 c -0.7882,-3.311 -0.4238,-7.49512 0,-10.8479195 l -3.9687,-0.26458 0.2646,-2.91042 3.7041,-0.52916 c -4.4553,0 -9.0474,0.0161 -13.4937,-0.2884 -3.6306,-0.24844 -8.3794,-1.01867 -11.9063,0.0238 0.7141,-0.54133 1.4912,-0.36962 2.2548,-0.77734 2.0235,-1.07993 2.8895,-2.11214002 5.4181,-2.13307002 v -0.26459 c -3.6316,-1.07346 -8.3859,-0.52916 -12.1708,-0.52916 h -22.7542 v 0.26458 l 0.5292,0.26458 h -2.6458 v -0.26458 h 0.5291 l -3.7041,0.79375002 m -119.9445,-0.70556002 0.1764,0.0882 -0.1764,-0.0882 m 44.4501,0 0.1762,0.0882 -0.1762,-0.0882 m 82.3735,0 c 0.2046,0 0.042,0.13171 -0.088,0.0882 l 0.088,-0.0882 m 28.0459,2.02848002 -0.7938,0.52916 v -0.26458 l 0.7938,-0.26458 m -36.5125,0.35277 c 0.2045,0 0.042,0.13171 -0.088,0.0882 l 0.088,-0.0882 m 33.3375,0.44098 v 0.26458 l -1.0584,0.26458 v -0.26458 l 1.0584,-0.26458 m -125.6771,0.52916 -0.2646,0.26459 0.2646,-0.26459 m 1.5875,0 -0.2646,0.26459 0.2646,-0.26459 m 0.5292,0 -0.2646,0.26459 0.2646,-0.26459 m 70.1145,0.79375 1.0584,0.79375 -1.0584,-0.79375 m 78.5813,2.11667 0.2646,0.26458 -0.2646,-0.26458 M -2.0178336e-5,8.4281575 0.17637982,8.5165575 -2.0178336e-5,8.4281575 M 1.9402798,9.1337975 l -0.2646,0.79375 0.2646,-0.79375 m 122.2375002,0 c -0.1085,0.9199595 -0.1776,1.5668595 0.7937,1.8520795 v -0.26458 l -0.7937,-1.5874995 m -30.9563,1.6756095 c 0.2045,0 0.042,0.13176 -0.088,0.0884 l 0.088,-0.0884 m 8.2021,-0.0881 v 0.26458 h -6.6146 l 6.6146,-0.26458 m 0.5292,0.0881 c 0.2045,0 0.042,0.13176 -0.088,0.0884 l 0.088,-0.0884 m 1.3229,-0.0881 v 0.26458 h -0.7938 l 0.7938,-0.26458 m 74.6125,0.79375 0.2646,2.91042 -1.5875,-0.52917 0.2646,-2.38125 h 1.0583 m -169.8625002,0.26458 -0.2646,0.26459 0.2646,-0.26459 m 167.7458002,0.26459 -0.2646,1.85208 0.2646,-1.85208 m -167.8340002,0.44106 -0.088,0.17621 0.088,-0.17621 m 175.7715002,0.35269 1.5875,1.32291 -3.7041,0.26459 v -0.26459 l 2.1166,-1.32291 m -174.6250002,1.5875 v 0.26458 h -1.5875 l 1.5875,-0.26458 m 1.0584002,0 -0.2646002,0.26458 0.2646002,-0.26458 m 1.3229,0.0881 0.088,0.0884 c -0.1306,0.0434 -0.2929,-0.0884 -0.088,-0.0884 m 2.3812,-0.0881 v 0.26458 h -1.8521 l 1.8521,-0.26458 m 102.1292,0 v 0.26458 l 1.8521,0.79375 v -0.26458 l -1.8521,-0.79375 m -35.7188,1.5875 -0.2645,0.26458 0.2645,-0.26458 m 2.1167,2.11666 0.2646,0.26459 -0.2646,-0.26459 m 29.8979,0 -0.2646,0.26459 0.2646,-0.26459 m 79.9042,0 -0.2646,0.26459 0.2646,-0.26459 m -176.2125,0.52917 v 0.26458 h 0.7937 l -0.7937,-0.26458 m 165.3646,0.26458 -0.2646,0.26459 0.2646,-0.26459 m -89.9584,0.26459 -0.2645,0.26458 0.2645,-0.26458 m 20.9021,0 v 7.40833 h -0.7937 l 0.2646,-7.40833 h 0.5291 m -20.3729,0.35269 c 0.2045,0 0.042,0.13176 -0.088,0.0884 l 0.088,-0.0884 m 1.5875,-0.0881 v 0.52917 h -0.5292 v -0.52917 h 0.5292 m 17.1979,0 v 7.14375 h -0.2646 c -0.044,-2.13572 -1.0191,-5.26441 0.2646,-7.14375 m 75.6709,0 0.5291,0.79375 -0.5291,-0.79375 m -85.4605,0.79375 0.2646,0.26458 -0.2646,-0.26458 m 87.3125,0 v 0.79375 h -0.2645 l 0.2645,-0.79375 m -94.4562,0.79375 -0.7938,-0.52917 0.7938,0.52917 m 93.1333,-0.52917 v 0.52917 h -0.7937 v -0.52917 h 0.7937 m -95.6027,0.70565 -0.088,0.17621 0.088,-0.17621 m 6.4381,0.88185 0.2646,0.26459 -0.2646,-0.26459 m 0.5292,0 v 0.52917 h 0.5292 l -0.5292,-0.52917 m 2.1167,0.52917 0.7937,-0.52917 -0.7937,0.52917 m 11.3771,0 0.2645,0.26458 -0.2645,-0.26458 M 7.7610798,25.008817 v 1.32292 h 0.2646 l -0.2646,-1.32292 m 1.0583,0 v 4.49792 h 0.2646 l -0.2646,-4.49792 m -1.0583,1.85208 v 1.5875 h 0.2646 l -0.2646,-1.5875 m 10.3188002,0 0.2645,7.40834 h -2.3812 c -1.6892,5.715 -0.5292,13.13021 -0.5292,19.05 l 2.9104,-0.26459 v -2.64583 h 0.2646 l 0.2646,6.87917 c 1.7185,-0.43366 6.6815,-0.16934 7.6729,-1.5875 -1.1184,0 -0.076,-1.12977 0,-1.85209 l -1.5875,-0.26458 h -0.2646 l -1.852,0.26458 0.2645,-0.79375 h -1.3229 v -0.26458 h 0.7938 l -0.7938,-2.64583 0.7938,-0.79375 -2.6459,0.52916 v -0.26458 h 0.5292 v -0.26458 l -1.0583,0.26458 0.5291,0.79375 h -0.7937 l 0.2646,0.52917 c -1.0322,-1.31578 -0.5292,-3.68697 -0.5292,-5.29167 0,-4.24868 -0.2646,-8.45635 -0.2646,-12.7 0,-1.5031 0.6485,-5.05645 -0.5291,-6.08542 m 92.3395,0 -0.2645,0.26459 0.2645,-0.26459 m -0.3527,1.23481 -0.088,0.17622 0.088,-0.17622 m 0.088,0.61728 v 0.79375 h -0.2646 l 0.2646,-0.79375 m 71.4375,0.52916 -0.2646,0.26459 0.2646,-0.26459 m -173.8313002,0.52917 0.2646,0.26458 -0.2646,-0.26458 m 73.0250002,0 -0.2646,5.02708 h -0.2646 l 0.5292,-5.02708 m 101.0708,0.26458 v 2.38125 h -0.2645 l 0.2645,-2.38125 m -72.0547,1.23481 -0.088,0.17622 0.088,-0.17622 m -21.0786,0.61728 0.2646,0.26458 -0.2646,-0.26458 m -5.5562,0.79375 -0.2646,0.26458 0.2646,-0.26458 m 5.5562,0 0.2646,0.26458 -0.2646,-0.26458 m 18.5208,0 -0.2645,0.26458 0.2645,-0.26458 m 74.8771,0.26458 -0.2646,0.26458 0.2646,-0.26458 m -98.9541,1.05833 v 1.05834 h -0.2646 l 0.2646,-1.05834 m 24.077,0 -0.2645,0.26459 0.2645,-0.26459 m -25.1354,0.79375 -0.7937,-0.52916 0.7937,0.52916 m 34.3959,-0.52916 -0.2646,0.79375 0.2646,-0.79375 m -9.8777,0.97022 -0.088,0.17622 0.088,-0.17622 m 8.8193,-0.17647 0.5292,0.52916 v -0.52916 h -0.5292 m -34.925,0.26458 -0.2646,0.26458 0.2646,-0.26458 m 2.6459,0.26458 -0.2646,0.26459 0.2646,-0.26459 m 23.5479,0.52917 -0.2646,0.26458 0.2646,-0.26458 m 9.7896,1.05833 v 1.32292 l -1.0584,-0.26458 1.0584,-1.05834 m -33.3375,0.26459 -0.2646,0.26458 0.2646,-0.26458 m 2.6458,0.26458 -0.2646,0.26458 0.2646,-0.26458 m 99.3068,0.44106 0.088,0.17621 -0.088,-0.17621 m -100.6297,0.0881 -0.2646,0.26458 0.2646,-0.26458 m -67.2042,0.52916 -0.2646,0.26459 0.2646,-0.26459 m 99.2188,0 -0.2646,2.11667 h -0.2646 l 0.5292,-2.11667 m -1.8521,1.05834 -1.0584,3.175 c -0.8998,-0.82259 0.049,-2.27251 0.5292,-3.175 h 0.5292 m -96.5729,2.38125 0.2645,0.79375 -0.2645,-0.79375 m 57.6791,0 0.2646,0.26458 -0.2646,-0.26458 m 3.9688,1.5875 v 2.38125 -2.38125 m -3.175,0.26458 0.5291,1.05833 -0.5291,-1.05833 m 1.8521,0.35269 c 0.2045,0 0.042,0.13176 -0.088,0.0884 l 0.088,-0.0884 m 39.4229,0.44106 v 0.52917 h -0.5292 v -0.52917 h 0.5292 m 58.9139,0.17648 -0.088,0.17621 0.088,-0.17621 m -163.9535,0.0881 v 0.26459 h 1.3229 l -1.3229,-0.26459 m 59.5312,0.52917 0.2646,0.26458 -0.2646,-0.26458 m 45.773,0 -0.5292,1.05833 -0.2646,-0.26458 0.7938,-0.79375 m 2.6458,0 -0.2646,0.26458 0.2646,-0.26458 m 55.8271,0.26458 -0.2646,0.26459 0.2646,-0.26459 m -161.925,0.26459 0.2646,0.26458 -0.2646,-0.26458 m 57.6791,0 0.2646,0.26458 -0.2646,-0.26458 m 44.45,0 -0.2645,0.26458 0.2645,-0.26458 m -1.5875,0.26458 -0.7937,1.32292 0.7937,-1.32292 m 2.6459,0.79375 v 0.52917 h -0.5292 v -0.52917 h 0.5292 m -0.6173,0.97023 -0.088,0.17621 0.088,-0.17621 m -40.9223,0.61727 v 0.52917 h -1.0583 v -0.52917 h 1.0583 m 41.9806,0.17648 -0.088,0.17621 0.088,-0.17621 m 2.9986,0.35269 v 0.52916 h -0.5292 v -0.52916 h 0.5292 m -45.2438,0.79375 -0.7937,-0.52917 0.7937,0.52917 m -6.35,-0.26459 v 0.26459 h 0.7938 l -0.7938,-0.26459 m -48.1542,0.26459 v 1.85208 h -0.2645 l 0.2645,-1.85208 m -4.4979,1.05833 -0.5291,0.52917 v -0.52917 h 0.5291 m 51.8584,0.26458 0.7937,0.79375 -0.7937,-0.79375 m -48.948,0.26459 -0.2645,1.05833 h -0.2646 v -1.05833 h 0.5291 m 101.8646,0 -0.2646,0.26458 0.2646,-0.26458 m 2.3813,0 -0.7938,0.79375 0.7938,-0.79375 m -45.5084,0.79375 0.5292,0.52916 -0.5292,-0.52916 m -2.5577,0.44106 0.088,0.17621 -0.088,-0.17621 m 47.0077,-0.17648 -0.7937,0.52917 0.7937,-0.52917 m -97.6312,1.05833 1.0583,-0.52916 -1.0583,0.52916 m 99.2187,-0.79375 -0.7937,1.05834 -0.2646,-0.26459 1.0583,-0.79375 m 49.7417,0 -0.5292,0.52917 v -0.52917 h 0.5292 m -101.0708,1.85209 -1.3229,-1.05834 1.3229,1.05834 m 48.6833,-1.05834 v 0.52917 h -0.5292 l 0.5292,-0.52917 m 53.4458,0.52917 -0.7937,0.52917 v -0.26459 l 0.7937,-0.26458 m -101.0708,0.52917 v 0.26458 l 1.3229,0.52917 v -0.26459 l -1.3229,-0.52916 m 101.5119,0.17647 -0.088,0.17622 0.088,-0.17622 m -102.8348,0.61728 -0.5292,0.79375 0.2646,0.26458 0.7938,-0.79375 -0.5292,-0.26458 m 49.1244,0.17647 -0.088,0.17622 0.088,-0.17622 m -54.4161,0.0881 -0.2646,0.26458 0.2646,-0.26458 m 6.35,0 0.2646,0.79375 1.0583,-0.52917 -1.3229,-0.26458 m 100.2771,1.32292 0.7938,-0.79375 c -0.7483,-0.24739 -1.2452,0.0476 -0.7938,0.79375 m 2.3813,-1.05834 v 0.52917 h 0.5291 v -0.52917 h -0.5291 m -155.3105,1.05834 v 0.52916 h 1.0584 c -1.007,2.87946 6.4037,3.33296 8.4666,3.70417 v 0.26458 l -3.4395,-0.26458 v 0.26458 c 1.8478,0.35825 5.0265,0.49927 6.35,1.85209 l -6.8792,0.26458 v 0.26458 h 34.3958 v -0.26458 l -4.7625,-0.26458 v -0.79375 c 1.3449,0 3.3361,0.3847 4.2334,-0.79375 h -4.498 v -0.26459 c 3.8235,-0.70987 8.0352,-1.54754 11.9063,-1.05833 v -0.26458 l -1.3229,-1.05834 1.3229,0.26459 v -0.26459 l -1.0583,-0.52916 1.3229,-0.79375 c -4.9067,-2.11111 -10.6731,-1.05834 -15.875,-1.05834 -10.3855,0 -20.932,-0.57573 -31.2209,0.26459 m 149.7542,-0.52917 v 0.26458 h -0.7937 l 0.7937,-0.26458 m -136.525,0.52917 v 0.26458 h -2.3812 l 2.3812,-0.26458 m 1.5875,0 v 0.26458 h -1.0583 l 1.0583,-0.26458 m 23.5479,0 -0.5291,0.52916 0.5291,-0.52916 m 113.2417,0 0.2646,0.26458 -0.2646,-0.26458 m -36.2479,0.35269 c 0.2045,0 0.042,0.13176 -0.088,0.0884 l 0.088,-0.0884 m 35.1896,0.44106 v 0.52916 h -0.5292 l 0.5292,-0.52916 m -12.9646,0.26458 0.2646,0.26458 -0.2646,-0.26458 m -33.0729,1.05833 -1.0584,1.05834 1.0584,-1.05834 m -107.4209,0.26459 0.2646,0.26458 -0.2646,-0.26458 m 48.1542,0 v 0.26458 h -1.0583 l 1.0583,-0.26458 m 107.2443,0.17647 0.088,0.17622 -0.088,-0.17622 m -154.6047,0.0881 v 0.26458 l 5.0271,0.52917 v -0.26458 l -5.0271,-0.52917 m 107.1562,0.52917 1.0584,-0.26459 -1.0584,0.26459 m -66.4104,0 v 0.26458 l -1.0583,0.26458 1.0583,-0.52916 m -35.2777,0.35269 0.1762,0.0884 -0.1762,-0.0884 m 33.9548,0.17647 v 0.26459 l -2.1167,0.26458 2.1167,-0.52917 m -32.8083,0 0.2645,0.26459 -0.2645,-0.26459 m 0.9702,0.35269 0.1762,0.0884 -0.1762,-0.0884 m 30.7798,1.76398 v 0.26458 h 0.7937 z"
     id="path67031"
     inkscape:export-filename="accesorio3.png"
     inkscape:export-xdpi="96"
     inkscape:export-ydpi="96" /></svg>
