<?xml version="1.0" encoding="UTF-8" standalone="no"?>
<!-- Created with Inkscape (http://www.inkscape.org/) -->

<svg
   width="123.02478mm"
   height="63.041782mm"
   viewBox="0 0 123.02478 63.041782"
   version="1.1"
   id="svg5"
   xml:space="preserve"
   sodipodi:docname="gorro.svg"
   inkscape:version="1.2.2 (b0a8486541, 2022-12-01)"
   xmlns:inkscape="http://www.inkscape.org/namespaces/inkscape"
   xmlns:sodipodi="http://sodipodi.sourceforge.net/DTD/sodipodi-0.dtd"
   xmlns="http://www.w3.org/2000/svg"
   xmlns:svg="http://www.w3.org/2000/svg"><sodipodi:namedview
     id="namedview7"
     pagecolor="#ffffff"
     bordercolor="#000000"
     borderopacity="0.25"
     inkscape:showpageshadow="2"
     inkscape:pageopacity="0.0"
     inkscape:pagecheckerboard="0"
     inkscape:deskcolor="#d1d1d1"
     inkscape:document-units="mm"
     showgrid="false"
     inkscape:zoom="1.5064771"
     inkscape:cx="139.39807"
     inkscape:cy="52.772126"
     inkscape:window-width="1854"
     inkscape:window-height="1011"
     inkscape:window-x="0"
     inkscape:window-y="0"
     inkscape:window-maximized="1"
     inkscape:current-layer="layer1"
     showguides="false" /><defs
     id="defs2"><style
       id="style1277">
      .cls-1, .cls-2 {
        stroke-width: 12px;
      }

      .cls-1, .cls-2, .cls-3, .cls-4, .cls-5, .cls-6, .cls-7 {
        stroke-miterlimit: 10;
      }

      .cls-1, .cls-2, .cls-5, .cls-7 {
        stroke: #ad8c76;
      }

      .cls-1, .cls-5 {
        fill: none;
      }

      .cls-2 {
        fill: #eaeadd;
      }

      .cls-8 {
        fill: url(#linear-gradient);
      }

      .cls-8, .cls-9, .cls-10, .cls-11, .cls-12, .cls-13, .cls-14, .cls-15, .cls-16, .cls-17, .cls-18, .cls-19, .cls-20, .cls-21, .cls-22, .cls-23, .cls-24 {
        stroke-width: 0px;
      }

      .cls-9, .cls-18 {
        opacity: .11;
      }

      .cls-9, .cls-23 {
        fill: #fff;
      }

      .cls-3 {
        fill: url(#linear-gradient-4);
        opacity: .76;
        stroke: url(#linear-gradient-5);
      }

      .cls-4 {
        fill: #877b68;
        stroke: #5b4f3c;
        stroke-width: .25px;
      }

      .cls-10 {
        fill: #d3675a;
      }

      .cls-11, .cls-7 {
        fill: #eacebf;
      }

      .cls-12 {
        fill: url(#linear-gradient-7);
        opacity: .54;
      }

      .cls-13 {
        fill: #998274;
      }

      .cls-14 {
        fill: #d6cbb7;
      }

      .cls-15 {
        fill: #231f20;
      }

      .cls-16 {
        fill: #efebe0;
      }

      .cls-25 {
        opacity: .43;
      }

      .cls-26 {
        opacity: .64;
      }

      .cls-27 {
        opacity: .59;
      }

      .cls-28 {
        opacity: .62;
      }

      .cls-17 {
        fill: #d8c7b9;
      }

      .cls-29, .cls-6 {
        opacity: .72;
      }

      .cls-5, .cls-7 {
        stroke-width: 11px;
      }

      .cls-18 {
        fill: #eaece7;
      }

      .cls-19 {
        fill: url(#linear-gradient-8);
      }

      .cls-20 {
        fill: url(#linear-gradient-6);
      }

      .cls-6 {
        fill: url(#linear-gradient-2);
        stroke: url(#linear-gradient-3);
      }

      .cls-21 {
        fill: #e2ad9d;
      }

      .cls-22 {
        fill: #b8a28a;
      }

      .cls-24 {
        fill: #c29f90;
      }
    </style></defs><g
     inkscape:label="Capa 1"
     inkscape:groupmode="layer"
     id="layer1"
     transform="translate(-26.431355,-34.959651)"><path
       class="cls-2"
       d="m 128.09101,73.288212 c -0.19579,0.04233 -0.87312,-3.087687 -2.37596,-6.611937 -0.84931,-1.994959 -1.66158,-3.407834 -2.30716,-4.524375 -0.0714,-0.121709 -0.64029,-1.082146 -1.3335,-2.129896 -2.14577,-3.235854 -4.79425,-6.233583 -4.99004,-6.453187 -1.42875,-1.608667 -3.39196,-3.865563 -5.85523,-5.799667 -4.85775,-3.817937 -9.70492,-5.273146 -13.112753,-6.262687 -8.6995,-2.526771 -14.708187,-1.862667 -14.753166,-2.783417 -0.03704,-0.799042 4.468812,-1.807104 8.196791,-2.087563 4.802188,-0.362479 8.572498,0.455084 11.707808,1.158875 5.06678,1.140355 8.78682,2.690813 10.07005,3.249084 9.95362,4.312708 17.89641,11.247437 18.0287,11.3665 v 0 c 0.8943,0.783166 0.92605,1.886479 0.93663,2.783416 0.0476,3.772959 0.0714,5.659438 -0.46831,6.495521 -1.03717,1.608667 -2.10609,1.119187 -3.27819,2.510896 -2.61673,3.108854 -0.11062,8.807524 -0.38314,8.865732 z"
       id="path1341"
       style="stroke-width:2;stroke-dasharray:none"
       sodipodi:nodetypes="cccccccccccssccccc"
       inkscape:export-filename="gorro.svg"
       inkscape:export-xdpi="96"
       inkscape:export-ydpi="96" /><path
       class="cls-2"
       d="m 147.86862,56.222587 c 0,4.249209 -3.47663,7.694084 -7.76817,7.694084 -2.92629,0 -5.588,-1.754188 -6.87387,-4.108979 -0.24871,-0.455084 -0.96309,-1.804459 -0.8943,-3.58775 0.1323,-3.336396 2.99509,-7.694084 7.76817,-7.694084 4.2889,0 7.76817,3.444875 7.76817,7.694084 z"
       id="path1375"
       style="stroke-width:2;stroke-dasharray:none" /><path
       class="cls-2"
       d="m 36.013276,89.286288 c 0.330729,0.23548 0.701238,-0.123074 3.230654,-1.895784 2.770188,-1.939396 4.564063,-3.484563 6.027209,-4.654021 1.177395,-0.941917 3.201458,-2.492375 5.715,-4.071938 1.595437,-1.00277 3.836458,-2.397125 7.000874,-3.704166 2.307167,-0.9525 4.111625,-1.447271 5.701771,-1.875896 1.981729,-0.534458 5.249333,-1.309687 9.392708,-1.751542 4.765146,-0.510645 8.374063,-0.33602 11.422063,-0.17727 3.854979,0.201083 9.159875,0.505354 15.912045,2.174875 7.6835,1.899708 12.98839,4.500562 14.81402,5.434541 3.84439,1.965854 6.11716,3.130021 8.59631,5.617104 3.29671,3.307292 4.27831,6.270625 5.3049,5.979583 1.55839,-0.441854 0.74347,-7.699374 0.54768,-9.421812 -0.18256,-1.621896 -0.64029,-5.189771 -2.01083,-9.661229 -1.98438,-6.469063 -4.5376,-10.714333 -5.11969,-11.717104 -2.8575,-4.929187 -5.78644,-8.183562 -6.76804,-9.23925 -1.60602,-1.733021 -3.39725,-3.640666 -6.21771,-5.617104 -3.71475,-2.600854 -7.02733,-3.780896 -9.691685,-4.709583 -5.241396,-1.828271 -9.440334,-2.262188 -10.424584,-2.354792 -4.058708,-0.386292 -7.133166,-0.07673 -9.691687,0.179917 -4.103687,0.41275 -7.135812,1.140354 -9.144,1.629833 -4.675187,1.140354 -7.014104,1.711854 -9.876896,3.262313 -2.823104,1.529291 -4.619625,3.169708 -7.498291,5.79702 -1.447271,1.320271 -3.450167,3.167063 -5.670021,5.979584 -2.032,2.574395 -3.302,4.767791 -4.206875,6.342062 -1.050396,1.828271 -1.735666,3.272896 -3.108854,6.1595 -1.574271,3.312583 -2.360083,4.966229 -2.926292,6.704542 -0.1905,0.582083 -0.992187,3.103562 -1.463145,6.704541 -0.693209,5.30225 -1.037167,8.476658 0,9.220137 z"
       id="path1391"
       style="stroke-width:2;stroke-dasharray:none"
       sodipodi:nodetypes="cccccccccccccccccccccccccccccc" /><path
       class="cls-2"
       d="m 36.127139,90.562858 c 2.420937,1.402291 6.46377,-6.0325 16.626416,-11.832167 11.308292,-6.450541 22.772687,-6.638395 28.101396,-6.728354 8.81327,-0.145521 15.300854,1.521354 22.013329,3.249083 7.26546,1.867959 10.95905,2.817813 15.22148,5.799667 6.78921,4.749271 9.11754,10.522479 11.00667,9.744604 2.032,-0.838729 0.78581,-8.117416 0.46831,-9.974791 -0.36512,-2.14048 -0.82013,-4.969369 -2.75688,-7.92741 -1.25942,-1.923521 -2.7491,-3.224778 -4.50328,-4.600611 -3.02155,-2.370667 -7.36336,-5.138208 -15.6898,-8.35025 -5.51391,-2.12725 -8.625413,-3.328458 -13.348225,-4.175125 -6.130396,-1.100667 -10.948459,-0.881062 -14.517688,-0.695854 -2.524125,0.129646 -7.675562,0.526521 -14.049374,2.087562 -5.574771,1.36525 -9.625542,3.021542 -11.2395,3.712104 -6.31825,2.696105 -9.966854,4.251855 -12.879917,8.120063 -1.883833,2.500312 -2.579687,4.796896 -3.513666,7.887229 -0.478896,1.579562 -3.900765,12.009313 -1.175556,13.58623 z"
       id="path1571"
       inkscape:export-filename="gorro.svg"
       inkscape:export-xdpi="96"
       inkscape:export-ydpi="96"
       style="stroke-width:2;stroke-dasharray:none"
       sodipodi:nodetypes="cccccccscccccccccc" /></g></svg>
