<?xml version="1.0" encoding="UTF-8" standalone="no"?>
<!-- Created with Inkscape (http://www.inkscape.org/) -->

<svg
   width="31.381409mm"
   height="20.308105mm"
   viewBox="0 0 31.381409 20.308105"
   version="1.1"
   id="svg5"
   xml:space="preserve"
   xmlns:inkscape="http://www.inkscape.org/namespaces/inkscape"
   xmlns:sodipodi="http://sodipodi.sourceforge.net/DTD/sodipodi-0.dtd"
   xmlns="http://www.w3.org/2000/svg"
   xmlns:svg="http://www.w3.org/2000/svg"><sodipodi:namedview
     id="namedview7"
     pagecolor="#ffffff"
     bordercolor="#000000"
     borderopacity="0.25"
     inkscape:showpageshadow="2"
     inkscape:pageopacity="0.0"
     inkscape:pagecheckerboard="0"
     inkscape:deskcolor="#d1d1d1"
     inkscape:document-units="mm"
     showgrid="false"
     inkscape:zoom="0.72248176"
     inkscape:cx="397.93392"
     inkscape:cy="562.64396"
     inkscape:window-width="1854"
     inkscape:window-height="1011"
     inkscape:window-x="0"
     inkscape:window-y="0"
     inkscape:window-maximized="1"
     inkscape:current-layer="layer1"
     showguides="false" /><defs
     id="defs2"><style
       id="style1277">
      .cls-1, .cls-2 {
        stroke-width: 12px;
      }

      .cls-1, .cls-2, .cls-3, .cls-4, .cls-5, .cls-6, .cls-7 {
        stroke-miterlimit: 10;
      }

      .cls-1, .cls-2, .cls-5, .cls-7 {
        stroke: #ad8c76;
      }

      .cls-1, .cls-5 {
        fill: none;
      }

      .cls-2 {
        fill: #eaeadd;
      }

      .cls-8 {
        fill: url(#linear-gradient);
      }

      .cls-8, .cls-9, .cls-10, .cls-11, .cls-12, .cls-13, .cls-14, .cls-15, .cls-16, .cls-17, .cls-18, .cls-19, .cls-20, .cls-21, .cls-22, .cls-23, .cls-24 {
        stroke-width: 0px;
      }

      .cls-9, .cls-18 {
        opacity: .11;
      }

      .cls-9, .cls-23 {
        fill: #fff;
      }

      .cls-3 {
        fill: url(#linear-gradient-4);
        opacity: .76;
        stroke: url(#linear-gradient-5);
      }

      .cls-4 {
        fill: #877b68;
        stroke: #5b4f3c;
        stroke-width: .25px;
      }

      .cls-10 {
        fill: #d3675a;
      }

      .cls-11, .cls-7 {
        fill: #eacebf;
      }

      .cls-12 {
        fill: url(#linear-gradient-7);
        opacity: .54;
      }

      .cls-13 {
        fill: #998274;
      }

      .cls-14 {
        fill: #d6cbb7;
      }

      .cls-15 {
        fill: #231f20;
      }

      .cls-16 {
        fill: #efebe0;
      }

      .cls-25 {
        opacity: .43;
      }

      .cls-26 {
        opacity: .64;
      }

      .cls-27 {
        opacity: .59;
      }

      .cls-28 {
        opacity: .62;
      }

      .cls-17 {
        fill: #d8c7b9;
      }

      .cls-29, .cls-6 {
        opacity: .72;
      }

      .cls-5, .cls-7 {
        stroke-width: 11px;
      }

      .cls-18 {
        fill: #eaece7;
      }

      .cls-19 {
        fill: url(#linear-gradient-8);
      }

      .cls-20 {
        fill: url(#linear-gradient-6);
      }

      .cls-6 {
        fill: url(#linear-gradient-2);
        stroke: url(#linear-gradient-3);
      }

      .cls-21 {
        fill: #e2ad9d;
      }

      .cls-22 {
        fill: #b8a28a;
      }

      .cls-24 {
        fill: #c29f90;
      }
    </style></defs><g
     inkscape:label="Capa 1"
     inkscape:groupmode="layer"
     id="layer1"
     transform="translate(-76.561426,-190.21716)"><path
       style="fill:#fa706e;stroke-width:0.264583"
       d="m 89.51859,210.29988 c -2.092101,-0.63639 -4.355488,-2.79474 -5.506897,-5.25134 -0.663921,-1.41652 -0.714674,-1.79158 -0.796617,-5.88691 l -0.08752,-4.374 2.336476,0.22073 c 1.285062,0.1214 2.961555,0.28257 3.725539,0.35814 l 1.418569,-0.0986 -0.02951,3.47373 c -0.02964,3.48938 0.155828,3.98196 1.351027,4.26952 1.192872,0.28701 1.465209,-0.30484 1.669917,-3.62906 0.101585,-1.64963 -0.0046,-3.6867 -0.09173,-3.91375 -0.134193,-0.3497 0.456797,-0.17045 3.211561,-0.46244 5.168305,-0.54782 4.560755,-0.63295 4.661305,2.44435 0.1625,4.97317 -0.78191,8.02782 -3.243166,10.48988 -2.008439,2.00911 -3.384049,2.61199 -5.896468,2.58425 -1.132624,-0.0125 -2.357744,-0.11352 -2.722487,-0.22447 z"
       id="path10435"
       sodipodi:nodetypes="ssscsscssssssssss" /><path
       style="fill:#b07158;stroke-width:0.264583"
       d="m 86.742178,195.19644 c -2.608585,-0.16588 -5.199219,-0.86904 -7.667858,-1.4499 -1.015864,-0.23868 -1.99813,-0.55937 -2.182813,-0.71265 -0.480714,-0.39895 -0.422578,-2.19373 0.0847,-2.61473 0.350889,-0.29121 0.953019,-0.24957 3.638021,0.25157 9.45006,2.01456 16.195106,1.34789 24.801182,-0.3666 1.41046,-0.1637 1.66833,-0.12139 2.10281,0.34496 1.11882,1.20092 -0.0951,3.0272 -2.21863,3.33782 -0.45668,0.0668 -2.43767,0.3824 -4.4022,0.70132 -4.021394,0.65284 -10.000213,0.8675 -14.155208,0.50821 z"
       id="path10431"
       sodipodi:nodetypes="ccssccssssc" /><path
       style="fill:#f9403b;stroke-width:0.264583"
       d="m 91.63697,202.95514 c -0.902031,-0.32238 -1.058333,-0.94747 -1.058333,-4.23258 v -3.43375 l 1.690419,0.0529 c 0.942447,0.0295 1.153684,-0.30193 1.290467,0.0545 0.09676,0.25215 0.141647,2.3362 0.04004,3.98583 -0.216036,3.50817 -0.53244,4.08421 -1.962611,3.57308 z"
       id="path10429"
       sodipodi:nodetypes="sscsscss" /></g></svg>
