<?xml version="1.0" encoding="UTF-8" standalone="no"?>
<!-- Created with Inkscape (http://www.inkscape.org/) -->

<svg
   width="54.548653mm"
   height="14.427979mm"
   viewBox="0 0 54.548653 14.427979"
   version="1.1"
   id="svg5"
   xml:space="preserve"
   xmlns:inkscape="http://www.inkscape.org/namespaces/inkscape"
   xmlns:sodipodi="http://sodipodi.sourceforge.net/DTD/sodipodi-0.dtd"
   xmlns="http://www.w3.org/2000/svg"
   xmlns:svg="http://www.w3.org/2000/svg"><sodipodi:namedview
     id="namedview7"
     pagecolor="#ffffff"
     bordercolor="#000000"
     borderopacity="0.25"
     inkscape:showpageshadow="2"
     inkscape:pageopacity="0.0"
     inkscape:pagecheckerboard="0"
     inkscape:deskcolor="#d1d1d1"
     inkscape:document-units="mm"
     showgrid="false"
     inkscape:zoom="0.72248176"
     inkscape:cx="397.93392"
     inkscape:cy="562.64396"
     inkscape:window-width="1854"
     inkscape:window-height="1011"
     inkscape:window-x="0"
     inkscape:window-y="0"
     inkscape:window-maximized="1"
     inkscape:current-layer="layer1"
     showguides="false" /><defs
     id="defs2"><style
       id="style1277">
      .cls-1, .cls-2 {
        stroke-width: 12px;
      }

      .cls-1, .cls-2, .cls-3, .cls-4, .cls-5, .cls-6, .cls-7 {
        stroke-miterlimit: 10;
      }

      .cls-1, .cls-2, .cls-5, .cls-7 {
        stroke: #ad8c76;
      }

      .cls-1, .cls-5 {
        fill: none;
      }

      .cls-2 {
        fill: #eaeadd;
      }

      .cls-8 {
        fill: url(#linear-gradient);
      }

      .cls-8, .cls-9, .cls-10, .cls-11, .cls-12, .cls-13, .cls-14, .cls-15, .cls-16, .cls-17, .cls-18, .cls-19, .cls-20, .cls-21, .cls-22, .cls-23, .cls-24 {
        stroke-width: 0px;
      }

      .cls-9, .cls-18 {
        opacity: .11;
      }

      .cls-9, .cls-23 {
        fill: #fff;
      }

      .cls-3 {
        fill: url(#linear-gradient-4);
        opacity: .76;
        stroke: url(#linear-gradient-5);
      }

      .cls-4 {
        fill: #877b68;
        stroke: #5b4f3c;
        stroke-width: .25px;
      }

      .cls-10 {
        fill: #d3675a;
      }

      .cls-11, .cls-7 {
        fill: #eacebf;
      }

      .cls-12 {
        fill: url(#linear-gradient-7);
        opacity: .54;
      }

      .cls-13 {
        fill: #998274;
      }

      .cls-14 {
        fill: #d6cbb7;
      }

      .cls-15 {
        fill: #231f20;
      }

      .cls-16 {
        fill: #efebe0;
      }

      .cls-25 {
        opacity: .43;
      }

      .cls-26 {
        opacity: .64;
      }

      .cls-27 {
        opacity: .59;
      }

      .cls-28 {
        opacity: .62;
      }

      .cls-17 {
        fill: #d8c7b9;
      }

      .cls-29, .cls-6 {
        opacity: .72;
      }

      .cls-5, .cls-7 {
        stroke-width: 11px;
      }

      .cls-18 {
        fill: #eaece7;
      }

      .cls-19 {
        fill: url(#linear-gradient-8);
      }

      .cls-20 {
        fill: url(#linear-gradient-6);
      }

      .cls-6 {
        fill: url(#linear-gradient-2);
        stroke: url(#linear-gradient-3);
      }

      .cls-21 {
        fill: #e2ad9d;
      }

      .cls-22 {
        fill: #b8a28a;
      }

      .cls-24 {
        fill: #c29f90;
      }
    </style></defs><g
     inkscape:label="Capa 1"
     inkscape:groupmode="layer"
     id="layer1"
     transform="translate(56.229474,-171.88766)"><g
       id="g12095"
       inkscape:export-filename="ojos1.png"
       inkscape:export-xdpi="96"
       inkscape:export-ydpi="96"><path
         style="fill:#ffffff;fill-opacity:1;stroke:#fffff6;stroke-width:1.45004;stroke-dasharray:none;paint-order:stroke fill markers"
         d="m -9.3915651,173.60868 2.4229688,-0.12823 -0.065846,2.76373 -2.3834647,-0.0855 z"
         id="path12060-7" /><path
         style="fill:#ffffff;fill-opacity:1;stroke:#fffff6;stroke-width:1.39521;stroke-dasharray:none;paint-order:stroke fill markers"
         d="m -50.922364,173.82342 2.47903,-0.11602 -0.06737,2.5008 -2.438612,-0.0774 z"
         id="path12060" /><path
         style="fill:#040404;stroke-width:0.0934719"
         d="m -9.9656043,186.25834 c -0.06447,-0.0421 -0.1347297,-0.52913 -0.1758057,-1.21882 0.0307,-0.20117 0.02531,-0.0774 -0.599817,-0.14885 -0.235592,-0.0274 -0.2809,0.003 -0.313148,0.21214 -0.02074,0.13431 -0.044,-2.50037 -0.05171,-5.85484 l -0.01399,-6.09905 h 0.221994 c 0.122097,0 0.353442,-0.0263 0.514097,-0.0584 0.282832,-0.0566 0.292099,-0.074 0.292099,-0.55125 v -0.49284 l 1.2385047,-0.0587 c 1.84875,-0.0877 7.020793,-0.0248 7.102446,0.0863 0.03777,0.0514 0.06932,0.27075 0.0701,0.48743 0.0018,0.46223 -0.155878,0.5875 -0.738946,0.5875 -0.346596,0 -0.390731,0.0286 -0.519488,0.33676 -0.07739,0.18522 -0.14985,0.4567 -0.161018,0.60329 -0.01893,0.24843 -0.05418,0.27075 -0.519505,0.32888 l -0.499199,0.0624 0.02801,0.4318 c 0.01936,0.29859 0.07128,0.43743 0.168232,0.45007 1.064776,0.13873 1.028194,0.12581 1.028194,0.36302 0,0.12538 0.04454,0.22796 0.09899,0.22796 0.05576,0 0.06715,0.051 0.02607,0.11684 -0.0401,0.0643 -0.08536,0.19684 -0.100572,0.29463 -0.04234,0.27219 -0.314992,0.43251 -0.698181,0.41053 -0.190594,-0.0109 -0.371894,0.005 -0.402884,0.0365 -0.03098,0.031 -0.08536,2.0363 -0.120818,4.45625 -0.05882,4.01411 -0.0758,4.00531 -0.228057,4.56337 -0.1412209,0.43658 -0.2979575,0.3474 -0.724407,0.40483 -0.693188,0.0919 -4.78619,0.11046 -4.921199,0.0224 z m 2.607769,-9.52533 0.91135,-0.0603 v -1.15431 c 0.014185,-1.94824 -0.021994,1.12131 -0.01285,-1.7671 -0.1363983,-0.4948 0.047912,-0.56616 -1.552804,-0.60456 -0.244194,-0.001 -0.805719,-0.0276 -1.247828,-0.0588 -0.735695,-0.0519 -0.8071527,-0.0418 -0.8429677,0.11893 -0.04018,0.18025 -0.0434,1.19668 -0.0087,2.7227 l 0.01968,0.86462 0.9113527,-3.5e-4 c 0.501245,-2.8e-4 1.321462,-0.0276 1.822707,-0.0608 z"
         id="path11935"
         sodipodi:nodetypes="cccsscscsccscsssccscssssscscccccccccsssccsc" /><path
         d="m -47.944686,186.19959 c 0.06447,-0.0421 0.13473,-0.52913 0.175806,-1.21882 -0.0307,-0.20117 -0.02531,-0.0774 0.599817,-0.14885 0.235592,-0.0274 0.2809,0.003 0.313148,0.21214 0.02074,0.13431 0.044,-2.50037 0.05171,-5.85484 l 0.01399,-6.09906 h -0.221994 c -0.122097,0 -0.353442,-0.0263 -0.514097,-0.0584 -0.282832,-0.0566 -0.292099,-0.074 -0.292099,-0.55125 v -0.49284 l -1.238505,-0.0587 c -1.84875,-0.0877 -7.020793,-0.0248 -7.102446,0.0863 -0.03777,0.0514 -0.06932,0.27075 -0.0701,0.48743 -0.0018,0.46223 0.155878,0.5875 0.738946,0.5875 0.346596,0 0.390731,0.0286 0.519488,0.33676 0.07739,0.18522 0.14985,0.4567 0.161018,0.60329 0.01893,0.24843 0.05418,0.27075 0.519505,0.32888 l 0.499199,0.0624 -0.02801,0.4318 c -0.01936,0.29859 -0.07128,0.43743 -0.168232,0.45007 -1.064776,0.13873 -1.028194,0.12581 -1.028194,0.36302 0,0.12538 -0.04454,0.22796 -0.09899,0.22796 -0.05576,0 -0.06715,0.051 -0.02607,0.11684 0.0401,0.0643 0.08536,0.19684 0.100572,0.29463 0.04234,0.27219 0.314992,0.43251 0.698181,0.41053 0.190594,-0.0109 0.371894,0.005 0.402884,0.0365 0.03098,0.031 0.08536,2.03631 0.120818,4.45626 0.05882,4.01411 0.0758,4.00531 0.228057,4.56337 0.141221,0.43658 0.297958,0.3474 0.724407,0.40483 0.693188,0.0919 4.78619,0.11046 4.921199,0.0224 z m -2.607769,-9.52534 -0.91135,-0.0603 v -1.15431 c -0.01419,-1.94824 0.02199,1.12131 0.01285,-1.7671 0.136398,-0.4948 -0.04791,-0.56616 1.552804,-0.60456 0.244194,-10e-4 0.805719,-0.0276 1.247828,-0.0588 0.735695,-0.0519 0.807153,-0.0418 0.842968,0.11893 0.04018,0.18025 0.0434,1.19668 0.0087,2.7227 l -0.01968,0.86462 -0.911353,-3.5e-4 c -0.501245,-2.8e-4 -1.321462,-0.0276 -1.822707,-0.0608 z"
         style="fill:#040404;stroke-width:0.0934719"
         id="path11985" /></g></g></svg>
