<?xml version="1.0" encoding="UTF-8" standalone="no"?>
<!-- Created with Inkscape (http://www.inkscape.org/) -->

<svg
   width="49.913906mm"
   height="56.616699mm"
   viewBox="0 0 49.913906 56.616699"
   version="1.1"
   id="svg5"
   xml:space="preserve"
   sodipodi:docname="pantalon.svg"
   inkscape:version="1.2.2 (b0a8486541, 2022-12-01)"
   xmlns:inkscape="http://www.inkscape.org/namespaces/inkscape"
   xmlns:sodipodi="http://sodipodi.sourceforge.net/DTD/sodipodi-0.dtd"
   xmlns="http://www.w3.org/2000/svg"
   xmlns:svg="http://www.w3.org/2000/svg"><sodipodi:namedview
     id="namedview7"
     pagecolor="#ffffff"
     bordercolor="#000000"
     borderopacity="0.25"
     inkscape:showpageshadow="2"
     inkscape:pageopacity="0.0"
     inkscape:pagecheckerboard="0"
     inkscape:deskcolor="#d1d1d1"
     inkscape:document-units="mm"
     showgrid="false"
     inkscape:zoom="0.72248176"
     inkscape:cx="399.31804"
     inkscape:cy="32.526773"
     inkscape:window-width="1854"
     inkscape:window-height="1011"
     inkscape:window-x="0"
     inkscape:window-y="0"
     inkscape:window-maximized="1"
     inkscape:current-layer="layer1"
     showguides="false" /><defs
     id="defs2"><style
       id="style1277">
      .cls-1, .cls-2 {
        stroke-width: 12px;
      }

      .cls-1, .cls-2, .cls-3, .cls-4, .cls-5, .cls-6, .cls-7 {
        stroke-miterlimit: 10;
      }

      .cls-1, .cls-2, .cls-5, .cls-7 {
        stroke: #ad8c76;
      }

      .cls-1, .cls-5 {
        fill: none;
      }

      .cls-2 {
        fill: #eaeadd;
      }

      .cls-8 {
        fill: url(#linear-gradient);
      }

      .cls-8, .cls-9, .cls-10, .cls-11, .cls-12, .cls-13, .cls-14, .cls-15, .cls-16, .cls-17, .cls-18, .cls-19, .cls-20, .cls-21, .cls-22, .cls-23, .cls-24 {
        stroke-width: 0px;
      }

      .cls-9, .cls-18 {
        opacity: .11;
      }

      .cls-9, .cls-23 {
        fill: #fff;
      }

      .cls-3 {
        fill: url(#linear-gradient-4);
        opacity: .76;
        stroke: url(#linear-gradient-5);
      }

      .cls-4 {
        fill: #877b68;
        stroke: #5b4f3c;
        stroke-width: .25px;
      }

      .cls-10 {
        fill: #d3675a;
      }

      .cls-11, .cls-7 {
        fill: #eacebf;
      }

      .cls-12 {
        fill: url(#linear-gradient-7);
        opacity: .54;
      }

      .cls-13 {
        fill: #998274;
      }

      .cls-14 {
        fill: #d6cbb7;
      }

      .cls-15 {
        fill: #231f20;
      }

      .cls-16 {
        fill: #efebe0;
      }

      .cls-25 {
        opacity: .43;
      }

      .cls-26 {
        opacity: .64;
      }

      .cls-27 {
        opacity: .59;
      }

      .cls-28 {
        opacity: .62;
      }

      .cls-17 {
        fill: #d8c7b9;
      }

      .cls-29, .cls-6 {
        opacity: .72;
      }

      .cls-5, .cls-7 {
        stroke-width: 11px;
      }

      .cls-18 {
        fill: #eaece7;
      }

      .cls-19 {
        fill: url(#linear-gradient-8);
      }

      .cls-20 {
        fill: url(#linear-gradient-6);
      }

      .cls-6 {
        fill: url(#linear-gradient-2);
        stroke: url(#linear-gradient-3);
      }

      .cls-21 {
        fill: #e2ad9d;
      }

      .cls-22 {
        fill: #b8a28a;
      }

      .cls-24 {
        fill: #c29f90;
      }
    </style></defs><g
     inkscape:label="Capa 1"
     inkscape:groupmode="layer"
     id="layer1"
     transform="translate(-58.084913,-178.54914)"><g
       id="g1373"
       transform="matrix(0.26458333,0,0,0.26458333,5.2714308,21.104442)"><g
         id="g1363"><path
           class="cls-16"
           d="m 265.24,797.12 c 8.87,-13.1 11.47,-28.63 11.47,-28.63 1.98,-11.81 2.23,-20.89 2.55,-32.84 0.27,-9.99 1.53,-19.92 2.12,-29.89 0.39,-6.5 0.65,-11.79 4.67,-15.16 3.4,-2.84 9.05,-3.97 12.75,-1.68 2.99,1.85 3.78,5.36 4.67,12.21 1.63,12.38 1.73,21.28 2.12,29.89 0.52,11.3 1.42,19.14 1.7,21.47 0.63,5.31 1.27,9.15 2.55,16.84 1.66,9.99 2.38,12.72 3.4,15.58 1.99,5.58 3.23,9.04 6.37,11.79 2.74,2.4 5.41,2.93 17,4.21 18.02,1.99 22.81,1.92 26.77,1.68 8.57,-0.51 14.38,-0.93 15.72,-4.21 1.3,-3.18 -2.23,-7.46 -5.1,-10.95 -7.06,-8.58 -12.51,-8.33 -14.45,-13.47 -1.75,-4.62 1.82,-7.02 5.95,-18.1 2.39,-6.42 3.72,-14.94 6.37,-32 0.66,-4.22 1.63,-10.52 2.55,-18.95 1.87,-17.16 0.81,-18.33 2.55,-29.47 1.98,-12.68 3.55,-12.47 4.25,-22.31 0.69,-9.75 -0.86,-9.85 0,-20.21 0.86,-10.27 2.76,-14.74 0,-17.26 -1.89,-1.72 -4.16,-0.87 -11.47,-0.42 -4.21,0.26 -0.62,-0.2 -20.82,-0.42 -10.43,-0.12 -15.65,-0.17 -18.7,0 -8.91,0.51 -10.07,1.35 -17,1.26 -6.32,-0.08 -6.31,-0.79 -14.87,-1.26 -7.77,-0.43 -13.85,-0.19 -18.27,0 -10.35,0.44 -9.85,1.16 -17.42,1.26 -7.83,0.11 -7.86,-0.66 -19.12,-0.84 -9.77,-0.16 -8.98,0.43 -14.87,0 -3.19,-0.23 -8,-0.74 -14.87,-0.84 -5.47,-0.08 -6.01,0.19 -6.37,0.42 -3.74,2.38 -2.09,9.41 -0.42,26.95 1.02,10.71 0.46,8.7 1.7,21.47 0.61,6.33 1.3,13.39 2.55,22.31 1.27,9.09 2.48,15.41 4.67,26.95 2.96,15.56 3.46,16.29 5.52,28.21 2.76,15.91 1.73,13.81 2.97,18.1 2.46,8.48 5.54,13.52 2.97,18.1 -1.05,1.88 -2.69,3.04 -5.52,5.05 -4.28,3.03 -6.35,2.86 -9.35,5.89 -1.44,1.45 -3.2,3.23 -3.4,5.89 -0.28,3.71 2.66,6.45 2.97,6.74 2.71,2.45 5.91,2.22 14.02,2.11 11.4,-0.17 17.1,-0.25 19.55,0 6.58,0.67 9.61,1.87 13.6,0 3.07,-1.44 4.82,-3.8 5.95,-5.47 z"
           id="path1345" /><g
           id="g1361"><polyline
             class="cls-17"
             points="208.85 654.2 208.85 647.14 381.43 647.14 378.26 667.92 209.18 667.92"
             id="polyline1347" /><polygon
             class="cls-17"
             points="281.18,708.99 215.28,708.99 214,689.09 286.07,690.6 "
             id="polygon1349" /><polygon
             class="cls-17"
             points="309.39,711.44 371.53,711.44 377.47,690.66 307.01,690.66 "
             id="polygon1351" /><polygon
             class="cls-17"
             points="276.54,753.79 223.48,753.79 221.12,733.4 279.27,735.65 "
             id="polygon1353" /><polyline
             class="cls-17"
             points="310.58 743.59 310.58 733.4 367.97 733.4 365.54 755.86 310.58 755.86"
             id="polyline1355" /><polygon
             class="cls-17"
             points="212.54,787.86 221.89,781.96 227.42,776.91 274.61,776.91 269.81,794.96 251.02,800.45 229.44,800.45 208.85,800.45 "
             id="polygon1357" /><polygon
             class="cls-17"
             points="374.72,789.8 376.79,794.98 374.48,799.44 356.12,800.28 337.27,799.07 322.8,798.59 317.58,790.52 314.66,782.45 314.66,777.12 360.98,776.79 370.1,784.5 "
             id="polygon1359" /></g></g><g
         id="g1371"><polyline
           class="cls-22"
           points="207.44 604.33 381.26 604.33 381.26 624.45 207.44 622.48"
           id="polyline1365"
           inkscape:export-filename="camiseta.svg"
           inkscape:export-xdpi="96"
           inkscape:export-ydpi="96" /><path
           class="cls-13"
           d="m 285.94,596.42 c 8.96,-2.77 15.36,-0.43 15.36,-0.43 0.78,0.28 3.27,1.26 5.79,3.43 1.54,1.33 3.33,2.88 4.01,5.36 0.37,1.36 0.03,1.62 0,4.71 -0.03,3.22 0.33,3.24 0.45,7.07 0.12,4.28 -0.26,6.41 -0.45,7.29 -0.37,1.77 -0.62,2.96 -1.56,4.29 -1.27,1.79 -2.96,2.67 -4.01,3.21 -1.65,0.86 -3.04,1.16 -4.67,1.5 -1.55,0.32 -3.13,0.44 -6.23,0.64 -3.32,0.22 -4.99,0.23 -6.23,0.21 -3.05,-0.05 -3.85,-0.3 -4.23,-0.43 -1.77,-0.62 -2.86,-1.68 -4.01,-2.79 -0.87,-0.85 -2.07,-2.03 -2.89,-3.86 -0.62,-1.39 -0.7,-2.43 -0.89,-4.07 -0.75,-6.64 -1.32,-6.37 -1.34,-9.86 0,-1.88 0,-3.69 0.67,-6 0.78,-2.68 1.96,-4.35 2.23,-4.71 0.4,-0.55 1.27,-1.66 2.67,-2.79 0.41,-0.33 1.5,-1.17 3.12,-1.93 0,0 1.04,-0.49 2.23,-0.86 z"
           id="path1367" /><path
           class="cls-22"
           d="m 286.32,606.48 c 2.25,-1.61 4.65,-1.67 6.46,-1.71 1.53,-0.04 3.58,-0.09 5.79,1.07 0.39,0.21 2.41,1.3 3.78,3.64 1.02,1.73 1.14,3.25 1.34,6.21 0.25,3.68 0.37,5.51 -0.67,6.64 -1.01,1.1 -2.97,1.23 -6.9,1.5 -3.41,0.23 -3.08,-0.23 -6.9,0 -2.51,0.15 -3.35,0.39 -4.23,-0.21 -0.76,-0.52 -1.07,-1.32 -1.56,-4.71 -0.6,-4.18 -0.9,-6.3 -0.45,-7.71 0.23,-0.73 1.01,-3.05 3.34,-4.71 z"
           id="path1369" /></g></g><path
       class="cls-5"
       d="m 59.540118,182.0399 c 0.0053,5.76262 0.373062,10.50131 0.738187,13.9065 0.246063,2.30716 0.780521,5.74675 1.846792,12.62591 0.870479,5.60653 1.312333,8.43228 1.661583,9.51442 1.418167,4.37092 3.092979,6.42144 2.032,8.05127 -1.121833,1.71979 -3.886729,0.80434 -5.357812,3.1115 -0.563563,0.88371 -0.936625,2.24631 -0.370417,3.1115 0.60325,0.91546 2.016125,0.89429 3.693583,0.91546 8.090958,0.10054 8.874125,1.05569 10.712979,-0.18256 1.436688,-0.96838 2.058459,-2.29394 2.955396,-4.20952 0.500063,-1.06627 1.037167,-2.52148 1.661583,-7.31838 0.48948,-3.75444 0.71173,-7.09877 0.738188,-7.50358 0.02646,-0.38629 0.235479,-3.65125 1.108604,-7.68615 0.309563,-1.43404 0.661458,-2.76754 1.661583,-3.1115 0.669396,-0.23018 1.561042,0.008 2.032,0.54769 0.587375,0.67469 0.418042,1.69333 0.370417,2.01348 -0.0926,0.62706 0.306917,4.62492 1.108604,12.62592 0.492125,4.91595 0.661458,2.4712 1.479021,8.41639 0.246062,1.79917 0.478896,3.83911 2.032,4.93977 0.674687,0.4789 1.330854,0.59002 2.402417,0.7329 3.484562,0.46302 6.982354,0.67733 11.821584,0 0.97102,-0.13494 2.032,-0.31221 2.21721,-0.91546 0.2196,-0.71702 -0.90488,-1.70921 -1.66159,-2.3786 -0.91545,-0.80963 -1.30175,-0.84402 -2.40241,-1.83092 -0.72761,-0.65088 -1.09538,-0.9869 -1.29382,-1.46315 -0.48418,-1.16681 0.14288,-2.43681 0.37042,-2.92893 1.35467,-2.93688 1.21444,-6.34736 1.84679,-9.51442 0.24871,-1.24354 0.59532,-3.45281 1.29382,-7.86871 0.74347,-4.72281 1.11918,-7.12523 1.29381,-9.14929 0.35983,-4.23069 -0.037,-3.79413 0.37041,-6.58813 0.34661,-2.38389 0.84403,-4.1275 0.55298,-6.77068 -0.12964,-1.18269 -0.37306,-2.13254 -0.55298,-2.74373"
       id="path1381"
       style="stroke-width:2;stroke-dasharray:none" /></g></svg>
