<?xml version="1.0" encoding="UTF-8" standalone="no"?>
<!-- Created with Inkscape (http://www.inkscape.org/) -->

<svg
   width="147.06773mm"
   height="107.81637mm"
   viewBox="0 0 147.06773 107.81637"
   version="1.1"
   id="svg5"
   xml:space="preserve"
   xmlns:inkscape="http://www.inkscape.org/namespaces/inkscape"
   xmlns:sodipodi="http://sodipodi.sourceforge.net/DTD/sodipodi-0.dtd"
   xmlns="http://www.w3.org/2000/svg"
   xmlns:svg="http://www.w3.org/2000/svg"><sodipodi:namedview
     id="namedview7"
     pagecolor="#ffffff"
     bordercolor="#000000"
     borderopacity="0.25"
     inkscape:showpageshadow="2"
     inkscape:pageopacity="0.0"
     inkscape:pagecheckerboard="0"
     inkscape:deskcolor="#d1d1d1"
     inkscape:document-units="mm"
     showgrid="false"
     inkscape:zoom="0.72248176"
     inkscape:cx="397.93392"
     inkscape:cy="562.64396"
     inkscape:window-width="1854"
     inkscape:window-height="1011"
     inkscape:window-x="0"
     inkscape:window-y="0"
     inkscape:window-maximized="1"
     inkscape:current-layer="layer1"
     showguides="false" /><defs
     id="defs2"><style
       id="style1277">
      .cls-1, .cls-2 {
        stroke-width: 12px;
      }

      .cls-1, .cls-2, .cls-3, .cls-4, .cls-5, .cls-6, .cls-7 {
        stroke-miterlimit: 10;
      }

      .cls-1, .cls-2, .cls-5, .cls-7 {
        stroke: #ad8c76;
      }

      .cls-1, .cls-5 {
        fill: none;
      }

      .cls-2 {
        fill: #eaeadd;
      }

      .cls-8 {
        fill: url(#linear-gradient);
      }

      .cls-8, .cls-9, .cls-10, .cls-11, .cls-12, .cls-13, .cls-14, .cls-15, .cls-16, .cls-17, .cls-18, .cls-19, .cls-20, .cls-21, .cls-22, .cls-23, .cls-24 {
        stroke-width: 0px;
      }

      .cls-9, .cls-18 {
        opacity: .11;
      }

      .cls-9, .cls-23 {
        fill: #fff;
      }

      .cls-3 {
        fill: url(#linear-gradient-4);
        opacity: .76;
        stroke: url(#linear-gradient-5);
      }

      .cls-4 {
        fill: #877b68;
        stroke: #5b4f3c;
        stroke-width: .25px;
      }

      .cls-10 {
        fill: #d3675a;
      }

      .cls-11, .cls-7 {
        fill: #eacebf;
      }

      .cls-12 {
        fill: url(#linear-gradient-7);
        opacity: .54;
      }

      .cls-13 {
        fill: #998274;
      }

      .cls-14 {
        fill: #d6cbb7;
      }

      .cls-15 {
        fill: #231f20;
      }

      .cls-16 {
        fill: #efebe0;
      }

      .cls-25 {
        opacity: .43;
      }

      .cls-26 {
        opacity: .64;
      }

      .cls-27 {
        opacity: .59;
      }

      .cls-28 {
        opacity: .62;
      }

      .cls-17 {
        fill: #d8c7b9;
      }

      .cls-29, .cls-6 {
        opacity: .72;
      }

      .cls-5, .cls-7 {
        stroke-width: 11px;
      }

      .cls-18 {
        fill: #eaece7;
      }

      .cls-19 {
        fill: url(#linear-gradient-8);
      }

      .cls-20 {
        fill: url(#linear-gradient-6);
      }

      .cls-6 {
        fill: url(#linear-gradient-2);
        stroke: url(#linear-gradient-3);
      }

      .cls-21 {
        fill: #e2ad9d;
      }

      .cls-22 {
        fill: #b8a28a;
      }

      .cls-24 {
        fill: #c29f90;
      }
    </style></defs><g
     inkscape:label="Capa 1"
     inkscape:groupmode="layer"
     id="layer1"
     transform="translate(170.13903,-105.28801)"><path
       style="fill:#dba036;fill-opacity:1;stroke-width:0.264583"
       d="m -163.27939,212.48051 c 0,-0.37177 -0.10255,-0.67595 -0.22789,-0.67595 -0.12534,0 -0.17099,-0.29766 -0.10145,-0.66146 0.11747,-0.61449 0.0529,-0.66146 -0.90981,-0.66146 -1.2192,0 -1.67126,-0.3663 -1.67126,-1.35419 0,-1.30814 -0.23522,-1.55623 -1.47551,-1.55623 h -1.15431 l -0.0126,-15.67656 c -0.0141,-17.55784 0.21699,-28.72175 0.5835,-28.19168 0.14849,0.21475 0.18354,-0.10368 0.0932,-0.84634 l -0.14491,-1.19062 0.36613,1.05833 0.36612,1.05833 0.0486,-1.32291 0.0486,-1.32292 0.44214,1.19063 0.44213,1.19062 0.0782,-2.10413 c 0.043,-1.15727 0.17824,-2.22883 0.30045,-2.38125 0.12222,-0.15242 0.23126,-0.87243 0.24231,-1.60004 0.0335,-2.20645 0.30374,-3.3644 0.74555,-3.19486 0.27259,0.1046 0.34926,0.0117 0.258,-0.31253 -0.44505,-1.58141 -0.34299,-2.06744 0.13739,-0.65418 0.31019,0.91259 0.62882,1.59442 0.70806,1.51518 0.0793,-0.0792 0.12555,-0.76638 0.1029,-1.52697 l -0.0412,-1.38289 0.39691,0.79375 0.39691,0.79375 -0.16015,-0.92604 c -0.23785,-1.37539 -0.12308,-4.35193 0.17188,-4.4575 0.15381,-0.055 0.13324,-0.24064 -0.0513,-0.46302 -0.24551,-0.29581 -0.20747,-0.37278 0.18739,-0.37919 0.46322,-0.008 0.46533,-0.0256 0.0324,-0.27773 -0.25466,-0.14833 -0.46302,-0.39741 -0.46302,-0.55352 0,-0.17992 0.14752,-0.1614 0.40293,0.0506 0.34156,0.28347 0.37644,0.25818 0.22899,-0.16604 -0.16073,-0.46244 -0.14174,-0.46026 0.25011,0.0287 0.42023,0.5244 0.42413,0.5238 0.43247,-0.0661 0.007,-0.52404 0.52842,-0.90452 0.54347,-0.39688 0.003,0.10914 0.22962,0.48955 0.50307,0.84534 l 0.49719,0.64691 -0.204,-1.11563 c -0.11892,-0.65032 -0.10026,-1.17974 0.0448,-1.26936 0.13893,-0.0859 0.16888,-0.6266 0.0678,-1.22474 -0.15073,-0.89215 -0.11413,-1.04536 0.21914,-0.91747 0.33967,0.13034 0.37779,-0.0934 0.25243,-1.48154 -0.13367,-1.48011 -0.10737,-1.60175 0.27743,-1.2835 0.2338,0.19336 0.62963,0.90774 0.87962,1.5875 0.83674,2.2752 1.14045,1.95562 0.45985,-0.48386 -0.16585,-0.59444 -0.13968,-0.62467 0.25821,-0.29833 0.51854,0.42527 0.60341,0.0345 0.16887,-0.7774 -0.15064,-0.28147 -0.17955,-0.51177 -0.0642,-0.51177 0.11531,0 0.17985,-0.56555 0.14343,-1.25677 -0.0364,-0.69123 0.0223,-1.07818 0.13039,-0.8599 0.29263,0.59072 1.12264,0.56899 1.12264,-0.0294 0,-0.60869 0.46037,-0.64404 1.08037,-0.083 0.43433,0.39306 0.45196,0.32147 0.30942,-1.25677 -0.14363,-1.59032 -0.12741,-1.65394 0.32603,-1.27878 0.43529,0.36014 0.46345,0.34852 0.32083,-0.1323 -0.39003,-1.31486 -0.49595,-2.51146 -0.22231,-2.51146 0.15715,0 0.21192,0.19233 0.12171,0.4274 -0.13058,0.3403 -0.0474,0.3904 0.40805,0.24585 0.48264,-0.15319 0.59703,-0.0567 0.73185,0.6174 0.0879,0.43943 0.38425,1.0021 0.65859,1.25037 0.47325,0.42828 0.4988,0.42365 0.4988,-0.0905 0,-0.29803 -0.1786,-0.6104 -0.39688,-0.69416 -0.21828,-0.0838 -0.39687,-0.46072 -0.39687,-0.83767 0,-0.45592 0.10363,-0.62133 0.30954,-0.49407 0.21605,0.13352 0.25127,0.0383 0.11662,-0.31512 -0.14802,-0.38853 -0.12018,-0.43424 0.11957,-0.19636 0.52895,0.52481 1.05942,0.11699 0.86345,-0.66381 -0.17229,-0.68646 -0.16628,-0.6898 0.46491,-0.25827 0.35169,0.24045 0.61792,0.54109 0.59161,0.66811 -0.0263,0.12701 0.18205,0.24825 0.46302,0.26942 0.57651,0.0434 0.64148,-0.24852 0.22747,-1.0221 -0.39828,-0.74421 0.36072,-1.91204 1.09186,-1.67999 0.3054,0.0969 0.51445,0.04 0.51445,-0.14015 0,-0.1994 0.27172,-0.24376 0.7925,-0.12937 0.74112,0.16277 0.78951,0.12553 0.74636,-0.5743 -0.0254,-0.41159 -0.22387,-0.95893 -0.4411,-1.21631 -0.36188,-0.42875 -0.34128,-0.462 0.24582,-0.39687 0.51409,0.057 0.63664,-0.0466 0.61978,-0.52423 -0.0246,-0.69703 0.13101,-0.73579 0.83034,-0.20685 0.31676,0.23958 0.38086,0.39168 0.16724,0.39687 -0.3974,0.01 -0.15652,0.53758 0.24529,0.53758 0.14552,0 0.19933,-0.10557 0.11959,-0.2346 -0.0798,-0.12903 0.0189,-0.37067 0.21934,-0.53698 0.36729,-0.30482 0.23066,-1.64532 -0.24637,-2.41717 -0.15049,-0.24349 -0.0849,-0.29253 0.22968,-0.17181 0.56047,0.21508 0.56139,-0.0358 0.002,-0.6535 -0.26201,-0.28949 -0.31515,-0.48385 -0.13231,-0.48385 0.16808,0 0.30559,-0.16868 0.30559,-0.37483 0,-0.20615 0.14883,-0.44428 0.33073,-0.52917 0.26367,-0.12304 0.26305,-0.18584 -0.003,-0.30969 -0.18357,-0.0854 -0.44897,-0.37062 -0.58978,-0.63372 -0.22299,-0.41667 -0.14944,-0.47342 0.57015,-0.43996 0.4544,0.0211 0.87855,-0.11042 0.94256,-0.29232 0.064,-0.1819 -0.0662,-0.33073 -0.28939,-0.33073 -0.22318,0 -0.50457,-0.17653 -0.62531,-0.39228 -0.14827,-0.26495 -0.7384,-0.41525 -1.81795,-0.46303 -1.35284,-0.0599 -1.54277,-0.12638 -1.23622,-0.43296 0.47633,-0.47638 0.24981,-0.67737 -0.38221,-0.33913 -0.72145,0.38611 -1.35007,-0.0411 -0.88503,-0.60139 0.2317,-0.27918 0.24794,-0.41704 0.0491,-0.41704 -0.16334,0 -0.29698,0.11906 -0.29698,0.26458 0,0.62815 -0.66625,0.19424 -0.71176,-0.46355 -0.0402,-0.58082 0.0662,-0.73192 0.52916,-0.75117 0.31871,-0.0132 0.87713,-0.091 1.24093,-0.1728 0.88911,-0.19989 1.97459,-0.43507 2.77813,-0.6019 0.54604,-0.11337 0.66146,-0.29145 0.66146,-1.02064 v -0.88331 l 1.62631,-0.16998 c 0.89447,-0.0935 3.90532,-0.16998 6.69078,-0.16998 2.8646,0 6.43058,-0.16947 8.20946,-0.39014 4.4688,-0.55436 4.82181,-1.12561 1.06824,-1.72866 -1.16417,-0.18703 -2.26764,-0.45802 -2.45217,-0.60219 -0.18452,-0.14418 -0.59926,-0.27554 -0.92163,-0.29193 -0.46412,-0.0236 -0.61962,-0.2359 -0.74699,-1.01987 -0.0885,-0.54455 -0.10038,-1.05057 -0.0265,-1.12449 0.21414,-0.21413 10.46413,-0.14735 10.80645,0.0704 0.17006,0.1082 0.34865,0.61239 0.39687,1.12044 l 0.0877,0.92373 h 2.38125 2.38125 l 0.0814,-1.12448 0.0814,-1.12449 17.24884,0.008 c 18.44665,0.009 18.02536,-0.0216 18.21533,1.32487 0.0906,0.64248 0.13126,0.65208 3.06842,0.72591 2.03394,0.0511 2.97656,-0.0174 2.97656,-0.21627 0,-0.17295 0.21991,-0.22128 0.54187,-0.1191 0.75906,0.24092 1.37462,-0.31536 1.04027,-0.94009 -0.31324,-0.58529 -0.12318,-0.66091 2.63532,-1.04859 2.02548,-0.28466 2.73823,-0.52889 1.54349,-0.52889 -0.5928,0 -0.99845,-0.41781 -0.99845,-1.02838 0,-0.10524 0.87694,-0.3387 1.94874,-0.5188 1.6678,-0.28023 2.2209,-0.26554 3.83646,0.10191 1.25262,0.2849 1.88772,0.55574 1.88772,0.80502 0,0.25859 -0.31333,0.37567 -1.00542,0.37567 -0.55298,0 -1.14227,0.13685 -1.30953,0.30411 -0.16727,0.16727 -1.02243,0.31996 -1.90036,0.33932 -0.87793,0.0194 -1.7412,0.18016 -1.91838,0.35734 -0.17718,0.17718 -0.66425,0.32214 -1.08238,0.32214 -0.58126,0 -0.73946,0.10901 -0.67198,0.46302 0.0485,0.25467 0.3601,0.50175 0.69237,0.54908 0.44665,0.0636 0.56457,0.21066 0.45239,0.56412 -0.25355,0.79885 1.04284,0.90101 10.35467,0.81604 8.12524,-0.0742 8.85011,-0.0434 9.8489,0.4175 1.09839,0.50688 1.40309,0.89441 0.70323,0.89441 -0.21371,0 -0.32858,0.15634 -0.25525,0.34742 0.23183,0.60416 -0.89068,1.36367 -1.88839,1.27771 -0.75632,-0.0652 -0.90737,0.01 -0.90737,0.44963 0,0.84264 0.28708,1.36416 0.75591,1.37324 0.38964,0.008 0.38671,0.0449 -0.0283,0.3599 -0.25466,0.19331 -0.46302,0.50107 -0.46302,0.6839 0,0.32052 0.12433,0.30741 1.65365,-0.17433 0.56748,-0.17876 0.60408,0.26617 0.0661,0.80411 -0.53507,0.53507 -0.50003,0.76765 0.0875,0.58116 0.37536,-0.11913 0.47961,-0.0189 0.46303,0.4452 -0.0178,0.49904 0.11644,0.59884 0.80502,0.59838 0.55333,-3.7e-4 0.78442,0.10892 0.6993,0.33073 -0.0807,0.21018 0.11161,0.33128 0.52595,0.33128 0.55394,0 0.63388,0.10041 0.52663,0.66146 -0.0695,0.3638 -0.007,0.66146 0.13958,0.66146 0.14632,0 0.2495,0.20836 0.22928,0.46302 -0.0283,0.35666 0.17598,0.46728 0.8893,0.48157 1.51631,0.0304 1.8422,0.28274 1.50809,1.16789 -0.38944,1.03174 0.0992,1.62742 1.16082,1.41509 0.52012,-0.10402 0.77067,-0.0473 0.77067,0.17437 0,0.20344 0.24006,0.28261 0.63057,0.20796 0.59196,-0.11316 0.62233,-0.0591 0.49602,0.88259 -0.074,0.55172 -0.0576,1.2036 0.0364,1.44862 0.15732,0.40996 0.21636,0.40569 0.74009,-0.0535 0.31302,-0.27447 0.4696,-0.32998 0.34796,-0.12335 -0.16299,0.27685 -0.11044,0.3332 0.19975,0.21417 0.23152,-0.0888 0.55107,-0.005 0.71012,0.18691 0.35394,0.42647 0.19545,2.71958 -0.21643,3.13146 -0.46242,0.46242 -0.35316,0.77494 0.20859,0.59665 0.3878,-0.12309 0.48521,-0.0494 0.41365,0.3129 -0.40418,2.04656 -0.39235,2.19368 0.17646,2.19368 0.42575,0 0.48839,0.0802 0.26908,0.34446 -0.32467,0.39119 -0.30837,4.94721 0.0177,4.94721 0.11432,0 0.0625,0.2327 -0.11509,0.51713 -0.43185,0.6915 -0.0432,1.03787 0.43713,0.38959 0.36404,-0.4913 0.39078,-0.49233 0.73498,-0.0282 0.19646,0.26494 0.51871,0.44353 0.71612,0.39688 0.26769,-0.0633 0.38095,0.35233 0.44556,1.63496 0.0477,0.94589 0.16648,2.25558 0.26404,2.91042 0.0976,0.65484 0.15243,1.68016 0.12191,2.27848 -0.0525,1.03026 -0.009,1.09877 0.82214,1.29374 0.48269,0.11323 0.93716,0.22486 1.00992,0.24806 1.16535,0.37163 1.32292,0.50386 1.32292,1.11017 0,0.53179 0.0995,0.62986 0.50782,0.50028 0.36942,-0.11725 0.55759,-0.004 0.69039,0.414 0.14298,0.45051 0.23276,0.49592 0.41416,0.2095 0.13729,-0.21677 0.23326,1.64448 0.23566,4.57048 0.004,4.79357 -0.0111,4.9322 -0.52087,4.7989 -0.88836,-0.23232 -1.85633,0.14365 -1.85633,0.72101 0,0.4237 0.19011,0.53013 0.99219,0.55546 0.5457,0.0172 1.0695,0.0212 1.16399,0.009 0.0945,-0.0124 0.245,1.61066 0.33446,3.60669 0.39442,8.80052 0.4866,10.11142 0.711,10.11142 0.13087,0 0.23794,-0.29765 0.23794,-0.66146 0,-0.74114 0.51153,-0.92225 0.56047,-0.19843 0.0172,0.25466 0.12219,0.10583 0.23328,-0.33073 l 0.20198,-0.79375 0.0313,0.80698 c 0.0172,0.44383 0.18013,0.95565 0.36203,1.13736 0.24649,0.24623 0.35278,2.42362 0.41729,8.54857 l 0.0865,8.21819 0.795,-0.159 c 0.43725,-0.0875 1.02338,-0.0368 1.30251,0.11261 0.46904,0.25103 0.50552,0.58673 0.48134,4.42949 -0.0218,3.45973 -0.33406,7.96256 -0.46575,6.71552 -0.0205,-0.19403 -0.18608,-0.29886 -0.36798,-0.23296 -0.1819,0.0659 -0.54636,-0.0683 -0.8099,-0.29816 -0.73726,-0.6431 -0.96424,-0.0168 -0.9916,2.73598 -0.0204,2.05397 -0.3855,5.40953 -0.48049,4.41615 -0.044,-0.46026 -0.56228,-0.12663 -0.56228,0.36196 0,0.2097 0.20836,0.40116 0.46302,0.42548 0.25466,0.0243 -1.02526,0.12175 -2.84427,0.21653 -2.69449,0.14038 -3.47109,0.0965 -4.19133,-0.23702 -0.82787,-0.38333 -0.8739,-0.47273 -0.72447,-1.40716 0.15705,-0.98214 0.146,-0.99788 -0.70347,-1.00187 -1.60574,-0.008 -1.57807,0.0952 -1.86137,-6.91436 -0.24903,-6.16186 -0.47673,-7.77476 -0.87408,-6.19159 -0.13422,0.53478 -0.24214,0.63155 -0.41152,0.369 -0.1901,-0.29465 -0.27198,-0.28998 -0.476,0.0272 -0.43819,0.68124 -0.58146,-0.70712 -0.76662,-7.42945 l -0.1776,-6.44738 -1.11044,-0.0807 c -1.09011,-0.0792 -1.11291,-0.101 -1.24493,-1.19063 -0.074,-0.61047 -0.20473,-2.41511 -0.29059,-4.01029 -0.0859,-1.59519 -0.19866,-2.9429 -0.25066,-2.9949 -0.14107,-0.14106 -1.17246,0.54668 -1.29062,0.86058 -0.0563,0.14969 -0.0711,0.0638 -0.0329,-0.19086 0.0383,-0.25466 -0.0899,-0.46302 -0.28472,-0.46302 -0.49969,0 -0.59751,-0.50794 -0.78975,-4.10104 -0.22586,-4.2212 -0.21043,-4.17856 -1.43662,-3.9714 l -0.99482,0.16808 -0.22027,-3.39001 c -0.12115,-1.8645 -0.22826,-4.25321 -0.23802,-5.30825 -0.01,-1.05503 -0.0897,-1.91823 -0.17764,-1.91823 -0.088,10e-6 -0.34849,0.56556 -0.57899,1.25679 -0.33969,1.01867 -0.42219,1.11892 -0.43542,0.52916 -0.009,-0.40018 -0.13539,-0.7276 -0.28091,-0.7276 -0.14552,0 -0.26641,-0.26789 -0.26863,-0.59531 -0.003,-0.44432 -0.063,-0.50232 -0.23624,-0.22869 -0.14519,0.22925 -0.29518,-0.81176 -0.40028,-2.77812 -0.2675,-5.00476 -0.94349,-7.59376 -1.39425,-5.33995 -0.1449,0.72449 -0.19884,0.7725 -0.37166,0.33073 -0.19845,-0.5073 -0.20292,-0.50707 -0.24326,0.0124 -0.0813,1.04615 -0.75112,-2.43311 -0.93394,-4.85084 -0.16619,-2.1978 -0.23902,-2.45592 -0.66176,-2.34537 -0.35278,0.0923 -0.4503,-0.004 -0.37894,-0.37469 0.13447,-0.69827 -0.36924,-0.62458 -0.65904,0.0964 -0.20029,0.49828 -0.24202,0.41202 -0.25606,-0.52917 -0.011,-0.73822 -0.19097,-1.29867 -0.52389,-1.6316 -0.27891,-0.27891 -0.43137,-0.58286 -0.3388,-0.67544 0.0926,-0.0926 -0.0364,-0.0898 -0.28663,0.006 -0.26136,0.10029 -0.45495,0.05 -0.45495,-0.11831 0,-0.16109 0.11906,-0.29289 0.26458,-0.29289 0.14552,0 0.26458,-0.16586 0.26458,-0.36857 0,-0.40831 -0.55723,-0.68977 -1.36557,-0.68977 -0.45051,0 -0.50262,0.11808 -0.35291,0.79973 0.15687,0.71419 0.0923,0.8288 -0.60396,1.0715 -0.42879,0.14948 -0.90783,0.55318 -1.06454,0.89712 -0.15671,0.34394 -0.53031,0.70322 -0.83022,0.79841 -0.29991,0.0952 -0.5453,0.33073 -0.5453,0.52343 0,0.38404 -1.1958,0.7821 -1.59966,0.5325 -0.13883,-0.0858 -0.25242,0.035 -0.25242,0.26848 0,0.34182 -0.18033,0.39065 -0.92604,0.25075 -1.06691,-0.20015 -1.15473,0.005 -0.36339,0.84685 l 0.56266,0.59892 -0.76109,0.16126 c -0.4186,0.0887 -1.49165,0.38711 -2.38455,0.66316 -1.05453,0.32603 -1.98174,0.44626 -2.64583,0.34308 l -1.02238,-0.15885 0.7688,0.7253 0.7688,0.72529 -0.9011,0.42628 c -0.49559,0.23446 -0.97772,0.53692 -1.07138,0.67214 -0.0937,0.13522 -0.48346,0.18599 -0.86621,0.11282 -0.38276,-0.0732 -0.75963,-0.0299 -0.83751,0.0961 -0.0779,0.126 -0.72988,0.2291 -1.44889,0.2291 -1.46338,0 -1.66631,0.3175 -0.5797,0.907 0.58542,0.31759 0.62827,0.3968 0.21927,0.40532 -0.27958,0.006 -0.70913,0.19231 -0.95455,0.41441 -0.50799,0.45972 -5.44147,0.98908 -6.94463,0.74515 -0.54484,-0.0884 -0.99171,-0.0296 -1.09947,0.14479 -0.10876,0.17598 0.0204,0.29374 0.32224,0.29374 0.27707,0 0.71215,0.23026 0.96685,0.5117 0.44954,0.49674 0.43334,0.51413 -0.55431,0.59531 -0.55956,0.046 -0.97745,0.18937 -0.92864,0.31862 0.16626,0.44025 -0.59676,0.66001 -2.92368,0.84204 -1.27844,0.10001 -2.32444,0.28554 -2.32444,0.41229 0,0.12675 0.22539,0.23046 0.50086,0.23046 0.27548,0 0.56939,0.17859 0.65316,0.39687 0.10359,0.26996 -0.0143,0.39688 -0.36857,0.39688 -0.2866,0 -0.52086,0.1785 -0.52086,0.39687 0,0.24695 -0.24988,0.39688 -0.66146,0.39688 -0.3638,0 -0.66146,0.12047 -0.66146,0.26771 0,0.16414 -0.40942,0.20224 -1.05833,0.0985 -0.58209,-0.0931 -1.05834,-0.0616 -1.05834,0.07 0,0.13158 -0.50601,0.20578 -1.12447,0.16489 -0.99539,-0.0658 -1.04928,-0.0423 -0.46939,0.20503 0.37532,0.16007 0.53937,0.35833 0.38412,0.46424 -0.14903,0.10166 -0.54122,0.5718 -0.87154,1.04474 -0.56739,0.81238 -0.69082,0.8599 -2.23351,0.8599 h -1.63292 l 0.77621,0.71974 0.77621,0.71974 -1.44038,0.29132 c -0.7922,0.16023 -1.67849,0.42005 -1.96953,0.57739 -0.29104,0.15734 -1.03519,0.43579 -1.65365,0.61879 -1.21938,0.3608 -1.33905,0.53431 -0.72183,1.04656 0.35547,0.29501 0.33926,0.37857 -0.13831,0.71307 -0.67276,0.47122 -7.50861,0.8506 -15.52841,0.86181 -3.44375,0.005 -5.66987,0.1099 -5.7703,0.27241 -0.0899,0.14552 -0.0374,0.26459 0.11667,0.26459 0.15411,0 0.2802,0.35718 0.2802,0.79375 0,0.62494 -0.11586,0.79375 -0.54478,0.79375 -0.29963,0 -0.48016,0.10456 -0.40117,0.23237 0.18337,0.29669 -1.13268,0.56138 -2.79129,0.56138 -0.70941,0 -1.28984,0.11906 -1.28984,0.26458 0,0.14552 0.27384,0.26458 0.60854,0.26458 0.62015,0 1.24354,0.43991 1.24354,0.87753 0,0.13339 -0.2384,0.18018 -0.52979,0.10398 -0.30405,-0.0795 -0.61821,0.0194 -0.7373,0.23226 -0.14739,0.26336 -1.19831,0.45126 -3.62697,0.64847 -1.8807,0.15272 -3.46243,0.32064 -3.51495,0.37316 -0.13159,0.1316 1.39756,0.45453 1.69027,0.35696 0.13005,-0.0434 0.25741,0.0356 0.28302,0.17544 0.0256,0.13984 0.26373,0.34595 0.52916,0.45804 0.34469,0.14555 0.21797,0.19755 -0.44344,0.18196 -2.0026,-0.0472 -2.20792,-1e-4 -1.85468,0.42553 0.26567,0.32011 0.242,0.42628 -0.1266,0.56772 -0.26298,0.10092 -0.56173,0.0189 -0.7114,-0.19531 -0.19869,-0.28436 -0.28888,-0.29323 -0.39222,-0.0386 -0.0738,0.1819 -0.33263,0.32891 -0.57517,0.32668 -0.38383,-0.004 -0.38954,-0.0403 -0.0441,-0.28333 0.29774,-0.20952 0.16556,-0.24203 -0.52917,-0.13014 -0.50932,0.082 -2.53308,0.2086 -4.49723,0.28128 -1.96416,0.0727 -3.60596,0.23641 -3.64844,0.36387 -0.0428,0.12838 -2.47855,0.17173 -5.46117,0.0972 -6.05854,-0.15139 -5.67952,-0.28141 -5.6092,1.92414 0.0225,0.70531 0.14652,1.03545 0.37184,0.98973 0.51592,-0.10468 0.69901,0.68963 0.32153,1.39495 -0.26698,0.49885 -0.63357,0.66628 -1.76965,0.80822 -1.2571,0.15707 -1.42542,0.24811 -1.37187,0.74202 0.10769,0.99321 -0.33994,3.8745 -0.57898,3.72676 -0.127,-0.0785 -0.30813,0.16501 -0.40252,0.5411 -0.22365,0.89108 -0.65103,0.72471 -1.06231,-0.41355 -0.18085,-0.50054 -0.34859,-0.85054 -0.37275,-0.77778 -0.0941,0.28354 -0.19236,2.19521 -0.3806,7.40834 -0.10772,2.98317 -0.25535,5.52038 -0.32807,5.63823 -0.0727,0.11784 -0.27628,0.0173 -0.45237,-0.22357 -0.18941,-0.25904 -0.58421,-0.40056 -0.96678,-0.34656 l -0.64664,0.0913 v 3.96875 3.96875 l 1.08967,-0.0203 1.08968,-0.0203 0.16721,3.59214 c 0.092,1.97568 0.18213,5.02089 0.20036,6.76714 l 0.0331,3.175 -1.22389,0.0806 c -1.15713,0.0763 -1.22389,0.0438 -1.22389,-0.59531 z m 25.4125,-43.83043 c 1.36589,-0.29293 1.50711,-0.74969 0.2404,-0.77757 -1.68671,-0.0371 -4.47989,0.18127 -4.66321,0.36459 -0.66662,0.66661 2.05512,0.92076 4.42281,0.41298 z m 39.93959,-11.87885 c 0,-0.14553 -0.12609,-0.26459 -0.2802,-0.26459 -0.15411,0 -0.20662,0.11906 -0.11668,0.26459 0.0899,0.14552 0.21603,0.26458 0.2802,0.26458 0.0642,0 0.11668,-0.11906 0.11668,-0.26458 z m 37.86408,-19.06542 c -0.34804,-0.28984 -0.70504,-0.45474 -0.79334,-0.36644 -0.1879,0.1879 0.73577,0.91511 1.14597,0.90222 0.15409,-0.005 -0.005,-0.24594 -0.35263,-0.53578 z m -94.22033,-3.95333 c 0,-0.14552 -0.12609,-0.26459 -0.2802,-0.26459 -0.15411,0 -0.20662,0.11907 -0.11668,0.26459 0.0899,0.14552 0.21603,0.26458 0.2802,0.26458 0.0642,0 0.11668,-0.11906 0.11668,-0.26458 z m 116.40728,-3.50573 c 0.005,-0.25466 -0.10628,-0.46302 -0.24764,-0.46302 -0.29886,0 -0.78636,1.60777 -0.59247,1.95397 0.16664,0.29754 0.82765,-0.87557 0.84011,-1.49095 z m -104.50103,-10.2433 c 0,-0.30506 -0.98101,-0.87478 -1.71562,-0.99635 -0.37228,-0.0616 -0.26112,0.1078 0.38213,0.58237 0.96584,0.71257 1.33349,0.82671 1.33349,0.41398 z m 88.7677,-5.58761 c 0,-0.75336 -0.60331,-0.85232 -1.02949,-0.16885 -0.22723,0.3644 -0.20389,0.52757 0.10345,0.7233 0.58507,0.3726 0.92604,0.16845 0.92604,-0.55445 z m -59.31305,-2.26871 c 0.23927,-0.23927 -0.35371,-0.91348 -0.64505,-0.73342 -0.36479,0.22546 -0.27598,0.90752 0.11817,0.90752 0.19403,0 0.43112,-0.0784 0.52688,-0.1741 z m 89.36415,75.16142 c 0.0127,-0.30822 0.0754,-0.37092 0.15985,-0.15985 0.0764,0.19099 0.067,0.4192 -0.0209,0.50712 -0.0879,0.0879 -0.15045,-0.0684 -0.13896,-0.34727 z m -146.57917,-6.08541 c 0.0127,-0.30823 0.0754,-0.37092 0.15986,-0.15986 0.0764,0.191 0.067,0.4192 -0.0209,0.50712 -0.0879,0.0879 -0.15045,-0.0684 -0.13897,-0.34726 z m 0.0638,-2.4915 c 0,-0.94588 0.048,-1.33284 0.10672,-0.85989 0.0587,0.47294 0.0587,1.24684 0,1.71979 -0.0587,0.47294 -0.10672,0.086 -0.10672,-0.8599 z m -0.0233,-2.91042 c 0,-0.50932 0.0545,-0.71768 0.121,-0.46302 0.0666,0.25467 0.0666,0.67138 0,0.92605 -0.0666,0.25466 -0.121,0.0463 -0.121,-0.46303 z m 17.96714,-0.76537 c -0.19801,-0.12545 -0.57355,-0.17226 -0.83454,-0.10401 -0.33377,0.0873 -0.46242,-0.0159 -0.43373,-0.34768 0.0224,-0.25948 -0.23396,-0.6122 -0.56976,-0.78383 -0.52035,-0.26595 -0.54584,-0.33688 -0.17252,-0.48013 1.35025,-0.51815 9.77971,-0.73887 9.28394,-0.24311 -0.10246,0.10246 -0.50925,0.19175 -0.90399,0.19844 -0.96772,0.0164 -0.9137,0.50031 0.076,0.68117 0.79162,0.14465 0.79198,0.14553 0.1323,0.32971 -0.36381,0.10157 -0.92935,0.1863 -1.25677,0.18829 -0.35118,0.002 -0.59532,0.16637 -0.59532,0.40048 0,0.32104 -0.41712,0.3961 -2.18281,0.39283 -1.20055,-0.002 -2.34482,-0.1067 -2.54283,-0.23216 z m 10.97818,-2.85987 c -0.10211,-0.10211 -1.46141,-0.2617 -3.02066,-0.35464 l -2.835,-0.16899 2.4757,-0.0422 c 2.07526,-0.0354 2.4512,-0.10609 2.32421,-0.43702 -0.23163,-0.60362 1.25475,-1.27249 2.297,-1.03364 0.46233,0.10595 1.17661,0.17048 1.58731,0.14341 0.4454,-0.0293 0.68007,0.0586 0.58157,0.218 -0.0934,0.1511 -0.002,0.20444 0.21132,0.12274 0.20706,-0.0794 0.45126,0.0504 0.54265,0.28858 0.13831,0.36043 0.0368,0.40464 -0.60513,0.26364 -0.52608,-0.11554 -0.84145,-0.0516 -0.99193,0.20104 -0.12134,0.20375 -0.62534,0.50867 -1.12,0.67761 -1.04923,0.35834 -1.19773,0.37081 -1.44704,0.1215 z m 112.30168,-22.72284 c 0.0127,-0.30823 0.0754,-0.37092 0.15985,-0.15986 0.0764,0.191 0.067,0.4192 -0.0209,0.50712 -0.0879,0.0879 -0.15046,-0.0684 -0.13897,-0.34726 z m -1.18943,-1.07416 c -0.25208,-0.6569 0.0258,-0.74659 0.36267,-0.11708 0.16253,0.3037 0.1849,0.55183 0.0497,0.55183 -0.13507,0 -0.32066,-0.19564 -0.41241,-0.43475 z m -4.96648,-9.80016 c 0.19099,-0.0764 0.4192,-0.067 0.50712,0.0209 0.0879,0.0879 -0.0684,0.15045 -0.34727,0.13896 -0.30823,-0.0127 -0.37092,-0.0754 -0.15985,-0.15985 z m -122.78817,-2.70847 c -0.11509,-0.44009 -0.0807,-0.54339 0.11568,-0.34705 0.15375,0.15374 0.22749,0.43572 0.16386,0.6266 -0.066,0.19816 -0.18598,0.0782 -0.27954,-0.27955 z m 5.80375,-5.75385 c -0.25286,-0.25286 -0.2175,-0.61736 0.0599,-0.61736 0.12995,0 0.30481,0.1786 0.38857,0.39688 0.15476,0.4033 -0.12708,0.54186 -0.44846,0.22048 z m 5.22826,-6.82938 c -0.44764,-0.33866 -0.45526,-0.38676 -0.0625,-0.39415 0.24607,-0.005 0.52589,0.11857 0.62181,0.27378 0.28822,0.46635 -0.0156,0.53173 -0.55936,0.12037 z m 0.1516,-0.93173 c 0,-0.14552 0.18562,-0.26458 0.41249,-0.26458 0.22687,0 0.33891,0.11906 0.24897,0.26458 -0.0899,0.14552 -0.27556,0.26459 -0.41249,0.26459 -0.13693,0 -0.24897,-0.11907 -0.24897,-0.26459 z m -0.13229,-1.05833 c -0.0899,-0.14552 -0.0445,-0.26458 0.10106,-0.26458 0.14552,0 0.33817,0.11906 0.42811,0.26458 0.0899,0.14552 0.0445,0.26458 -0.10106,0.26458 -0.14552,0 -0.33817,-0.11906 -0.42811,-0.26458 z m -5.86245,-0.59651 c -0.101,-0.16342 -0.0459,-0.20079 0.13303,-0.0902 0.40762,0.25192 0.3903,-0.17438 -0.0253,-0.6221 -0.19408,-0.2091 -0.20647,-0.28682 -0.03,-0.18812 0.43914,0.24559 0.92893,-0.47086 0.71728,-1.04921 -0.1692,-0.46233 -0.14671,-0.46742 0.32616,-0.0737 0.27934,0.23254 0.71895,0.49773 0.97691,0.58931 0.69524,0.24681 0.8858,0.99159 0.35333,1.38093 -0.55188,0.40355 -2.21266,0.43956 -2.45147,0.0532 z m 2.15828,-0.46182 c 0.0899,-0.14552 0.0445,-0.26459 -0.10106,-0.26459 -0.14552,0 -0.33817,0.11907 -0.4281,0.26459 -0.0899,0.14552 -0.0445,0.26458 0.10106,0.26458 0.14552,0 0.33817,-0.11906 0.4281,-0.26458 z m 2.11667,0.26458 c 0.0899,-0.14552 0.21603,-0.26458 0.2802,-0.26458 0.0642,0 0.11668,0.11906 0.11668,0.26458 0,0.14552 -0.12609,0.26458 -0.2802,0.26458 -0.15411,0 -0.20662,-0.11906 -0.11668,-0.26458 z m -1.71979,-1.85208 c 0,-0.14552 0.11204,-0.26459 0.24897,-0.26459 0.13693,0 0.32255,0.11907 0.41249,0.26459 0.0899,0.14552 -0.0221,0.26458 -0.24897,0.26458 -0.22687,0 -0.41249,-0.11906 -0.41249,-0.26458 z m -1.05833,-0.27289 c 0,-0.14095 0.17859,-0.25628 0.39687,-0.25628 0.21828,0 0.39688,0.0468 0.39688,0.10398 0,0.0572 -0.1786,0.17252 -0.39688,0.25628 -0.21828,0.0838 -0.39687,0.037 -0.39687,-0.10398 z"
       id="path16193"
       inkscape:export-filename="pelo4.png"
       inkscape:export-xdpi="96"
       inkscape:export-ydpi="96" /></g></svg>
