<?xml version="1.0" encoding="UTF-8" standalone="no"?>
<!-- Created with Inkscape (http://www.inkscape.org/) -->

<svg
   width="124.76384mm"
   height="69.557739mm"
   viewBox="0 0 124.76384 69.557739"
   version="1.1"
   id="svg5"
   xml:space="preserve"
   xmlns:inkscape="http://www.inkscape.org/namespaces/inkscape"
   xmlns:sodipodi="http://sodipodi.sourceforge.net/DTD/sodipodi-0.dtd"
   xmlns="http://www.w3.org/2000/svg"
   xmlns:svg="http://www.w3.org/2000/svg"><sodipodi:namedview
     id="namedview7"
     pagecolor="#ffffff"
     bordercolor="#000000"
     borderopacity="0.25"
     inkscape:showpageshadow="2"
     inkscape:pageopacity="0.0"
     inkscape:pagecheckerboard="0"
     inkscape:deskcolor="#d1d1d1"
     inkscape:document-units="mm"
     showgrid="false"
     inkscape:zoom="0.72248176"
     inkscape:cx="397.93392"
     inkscape:cy="562.64396"
     inkscape:window-width="1854"
     inkscape:window-height="1011"
     inkscape:window-x="0"
     inkscape:window-y="0"
     inkscape:window-maximized="1"
     inkscape:current-layer="layer1"
     showguides="false" /><defs
     id="defs2"><style
       id="style1277">
      .cls-1, .cls-2 {
        stroke-width: 12px;
      }

      .cls-1, .cls-2, .cls-3, .cls-4, .cls-5, .cls-6, .cls-7 {
        stroke-miterlimit: 10;
      }

      .cls-1, .cls-2, .cls-5, .cls-7 {
        stroke: #ad8c76;
      }

      .cls-1, .cls-5 {
        fill: none;
      }

      .cls-2 {
        fill: #eaeadd;
      }

      .cls-8 {
        fill: url(#linear-gradient);
      }

      .cls-8, .cls-9, .cls-10, .cls-11, .cls-12, .cls-13, .cls-14, .cls-15, .cls-16, .cls-17, .cls-18, .cls-19, .cls-20, .cls-21, .cls-22, .cls-23, .cls-24 {
        stroke-width: 0px;
      }

      .cls-9, .cls-18 {
        opacity: .11;
      }

      .cls-9, .cls-23 {
        fill: #fff;
      }

      .cls-3 {
        fill: url(#linear-gradient-4);
        opacity: .76;
        stroke: url(#linear-gradient-5);
      }

      .cls-4 {
        fill: #877b68;
        stroke: #5b4f3c;
        stroke-width: .25px;
      }

      .cls-10 {
        fill: #d3675a;
      }

      .cls-11, .cls-7 {
        fill: #eacebf;
      }

      .cls-12 {
        fill: url(#linear-gradient-7);
        opacity: .54;
      }

      .cls-13 {
        fill: #998274;
      }

      .cls-14 {
        fill: #d6cbb7;
      }

      .cls-15 {
        fill: #231f20;
      }

      .cls-16 {
        fill: #efebe0;
      }

      .cls-25 {
        opacity: .43;
      }

      .cls-26 {
        opacity: .64;
      }

      .cls-27 {
        opacity: .59;
      }

      .cls-28 {
        opacity: .62;
      }

      .cls-17 {
        fill: #d8c7b9;
      }

      .cls-29, .cls-6 {
        opacity: .72;
      }

      .cls-5, .cls-7 {
        stroke-width: 11px;
      }

      .cls-18 {
        fill: #eaece7;
      }

      .cls-19 {
        fill: url(#linear-gradient-8);
      }

      .cls-20 {
        fill: url(#linear-gradient-6);
      }

      .cls-6 {
        fill: url(#linear-gradient-2);
        stroke: url(#linear-gradient-3);
      }

      .cls-21 {
        fill: #e2ad9d;
      }

      .cls-22 {
        fill: #b8a28a;
      }

      .cls-24 {
        fill: #c29f90;
      }
    </style></defs><g
     inkscape:label="Capa 1"
     inkscape:groupmode="layer"
     id="layer1"
     transform="translate(-29.662934,-163.30958)"><g
       id="g15788"
       transform="matrix(1.6697541,0,0,1.3722533,12.3247,-283.13537)"><path
         style="fill:#584736;stroke-width:0.264583"
         d="m 20.325074,375.57018 c -0.0963,-0.26389 -0.51216,-0.87089 -0.92417,-1.34889 -0.41201,-0.47801 -0.73971,-1.01379 -0.72822,-1.19063 0.0157,-0.24251 0.0537,-0.24024 0.15434,0.009 0.0734,0.1819 0.28301,0.33073 0.46581,0.33073 0.18279,0 0.46798,0.29765 0.63373,0.66146 0.50945,1.1181 0.81352,0.74247 0.91028,-1.12448 0.0882,-1.70257 0.095,-1.6786 0.14438,0.51355 0.0494,2.18992 -0.26526,3.22035 -0.65615,2.14905 z m 50.18505,0.21613 c 0,-0.12656 0.25842,-0.98976 0.57426,-1.91822 0.81626,-2.39951 0.99737,-8.4352 0.33723,-11.23842 -0.35174,-1.49361 -0.42516,-2.57768 -0.30747,-4.54027 0.12061,-2.01115 0.0712,-2.69113 -0.2247,-3.09177 -0.23123,-0.31307 -0.3607,-1.03616 -0.33163,-1.85208 l 0.0477,-1.33849 0.10059,1.29345 c 0.0689,0.88634 0.26659,1.42788 0.62797,1.7205 0.50741,0.41087 0.52934,0.79013 0.57932,10.01673 0.0405,7.4672 0.12514,9.58986 0.38267,9.59044 0.21498,5.3e-4 0.33073,-0.40992 0.33073,-1.17265 0,-1.32628 0.36884,-2.48249 0.92706,-2.90608 0.2385,-0.18098 0.41043,-0.91822 0.46779,-2.00594 l 0.0907,-1.71979 0.0492,1.85209 c 0.0387,1.45542 -0.0623,2.02121 -0.47129,2.64177 -0.28628,0.43432 -0.59817,1.32729 -0.69309,1.98437 -0.19885,1.37667 -0.50334,1.85615 -1.17872,1.85615 -0.26341,0 -0.55451,0.23812 -0.64689,0.52916 -0.16567,0.522 -0.66146,0.74614 -0.66146,0.29905 z m -52.12291,-5.18566 c 0,-0.50483 -0.29766,-1.82971 -0.66146,-2.94419 -0.3638,-1.11448 -0.64358,-2.51714 -0.62172,-3.11703 l 0.0397,-1.09071 0.1587,1.05834 c 0.0873,0.58208 0.38018,1.38488 0.65087,1.78399 0.34476,0.50831 0.53424,1.39986 0.63261,2.97656 0.0772,1.238 0.0641,2.2509 -0.0292,2.2509 -0.0933,0 -0.16958,-0.41304 -0.16958,-0.91786 z m 2.51861,-7.62814 c 0.0811,-4.45814 0.14731,-5.07038 0.63803,-5.9021 0.30114,-0.51039 0.54752,-1.23867 0.54752,-1.61841 0,-0.37974 0.0788,-0.61163 0.17513,-0.51531 0.20955,0.20956 -0.37614,4.47473 -0.76921,5.60162 -0.15228,0.43656 -0.36803,2.28203 -0.47943,4.10104 -0.18033,2.94434 -0.19262,2.76142 -0.11204,-1.66684 z m 53.3637,-0.979 c -0.0422,-3.31323 0.31414,-6.26405 0.82449,-6.82797 0.22492,-0.24854 0.45473,-1.04635 0.51068,-1.7729 l 0.10172,-1.321 0.0414,1.32292 c 0.0228,0.7276 -0.0848,1.79916 -0.23896,2.38125 -0.51206,1.93317 -0.79301,3.67788 -1.00124,6.2177 l -0.20607,2.51355 z m -57.54184,-0.35803 c -0.0932,-0.90275 -0.35093,-1.75968 -0.61785,-2.05462 -0.29128,-0.32185 -0.47704,-1.00992 -0.5105,-1.89093 -0.0289,-0.76172 -4.5e-4,-0.96824 0.0633,-0.45892 0.0637,0.50933 0.36794,1.19557 0.67602,1.52498 0.39978,0.42748 0.59243,1.04548 0.67296,2.15878 0.15105,2.08834 -0.0816,2.67905 -0.28391,0.72071 z m -1.471,-6.33481 c -0.0245,-0.40685 -0.34213,-1.29887 -0.70593,-1.98227 -0.3638,-0.6834 -0.66212,-1.54115 -0.66294,-1.90611 -0.002,-0.99098 -0.49512,-2.57758 -0.93856,-3.02102 -0.21501,-0.21501 -0.50956,-1.0227 -0.65456,-1.79486 -0.14499,-0.77217 -0.52249,-1.75646 -0.83888,-2.18732 -0.32473,-0.44221 -0.7182,-1.59451 -0.90346,-2.64583 -0.41028,-2.32816 -0.22864,-2.52391 2.34195,-2.52391 1.79383,0 1.8185,-0.01 2.18803,-0.8599 0.37105,-0.85369 0.37382,-0.85475 0.3841,-0.14729 0.0154,1.05684 -0.85803,1.53636 -2.79833,1.53636 -1.91477,0 -2.03396,0.15109 -1.78568,2.26362 0.12376,1.053 0.2937,1.46749 0.64775,1.57986 0.52325,0.16607 0.63938,0.44962 0.91815,2.24193 0.10186,0.65485 0.45506,1.51211 0.7849,1.90504 0.43943,0.52348 0.6503,1.21812 0.78898,2.59905 0.11574,1.15247 0.32285,1.93588 0.53312,2.01657 0.54411,0.20879 0.96711,1.51984 0.85166,2.63958 -0.0753,0.73024 -0.11865,0.81287 -0.1503,0.2865 z m 7.13531,-1.56336 c -0.022,-0.43739 0.20928,-0.96089 0.595,-1.3466 0.35456,-0.35457 0.71409,-1.12269 0.82062,-1.75322 0.11074,-0.65546 0.50854,-1.48546 0.95647,-1.99561 0.42178,-0.48039 0.76688,-1.00298 0.76688,-1.16131 0,-0.15833 0.34723,-0.5446 0.77162,-0.85837 0.4244,-0.31376 0.82627,-0.77945 0.89306,-1.03485 0.0668,-0.2554 0.58276,-0.6148 1.1466,-0.79868 0.56385,-0.18387 1.36173,-0.61472 1.77308,-0.95744 0.5409,-0.45066 1.05352,-0.61578 1.85208,-0.59655 l 1.10418,0.0266 -1.01822,0.23928 c -0.56002,0.13161 -1.32022,0.47684 -1.68933,0.76718 -0.3691,0.29034 -0.89544,0.52789 -1.16964,0.52789 -0.55809,0 -3.57057,3.01421 -3.83424,3.83646 -0.0933,0.29104 -0.38083,0.6778 -0.63889,0.85948 -0.25805,0.18167 -0.60136,0.94661 -0.76291,1.69987 -0.169,0.78804 -0.50769,1.51942 -0.79767,1.72253 -0.27717,0.19414 -0.55541,0.61982 -0.6183,0.94597 -0.0991,0.51396 -0.11916,0.49762 -0.15039,-0.1226 z m 53.4098,-2.19766 c 0,-0.48298 1.54174,-2.24613 1.96407,-2.24613 0.17697,0 0.56664,-0.28165 0.86595,-0.62588 0.29931,-0.34424 0.96228,-0.70432 1.47327,-0.80018 0.51099,-0.0959 1.2103,-0.45299 1.55404,-0.79361 0.34373,-0.34063 0.89285,-0.70295 1.22027,-0.80516 0.32743,-0.10221 0.59532,-0.39212 0.59532,-0.64425 0,-0.25213 0.12943,-0.58786 0.28763,-0.74606 0.20713,-0.20713 0.20713,-0.3374 0,-0.46541 -0.1582,-0.0978 -0.28839,-0.43863 -0.2893,-0.75747 -0.001,-0.36603 -0.29362,-0.74581 -0.79375,-1.03041 -0.43565,-0.24789 -0.79208,-0.63258 -0.79208,-0.85485 0,-0.22228 -0.3008,-0.47964 -0.66844,-0.57191 -0.36764,-0.0923 -0.78834,-0.39181 -0.93489,-0.66563 -0.14655,-0.27383 -0.70895,-0.72672 -1.24979,-1.00642 -0.54084,-0.2797 -1.19054,-0.75634 -1.44377,-1.05919 -0.25324,-0.30286 -0.72502,-0.55066 -1.0484,-0.55066 -0.32338,0 -0.83056,-0.29857 -1.12707,-0.66349 -0.48433,-0.59609 -0.8348,-0.69179 -3.44952,-0.94191 -3.20513,-0.30661 -4.10104,-0.56156 -4.10104,-1.16705 0,-0.2214 0.26789,-0.64631 0.59531,-0.94424 0.32742,-0.29793 0.84569,-0.78277 1.15169,-1.07741 0.68975,-0.66415 2.16912,-1.02252 4.07383,-0.98687 l 1.45521,0.0272 -1.63785,0.21327 c -1.94174,0.25284 -2.42747,0.48711 -3.82804,1.84632 -1.22228,1.18618 -1.5787,0.97395 2.93986,1.75057 1.94145,0.33369 2.88762,0.62091 3.175,0.96381 0.22515,0.26866 0.80696,0.65692 1.29291,0.86279 0.48595,0.20588 1.23923,0.6736 1.67395,1.0394 0.43472,0.36579 0.91209,0.66507 1.06082,0.66507 0.14873,0 0.60285,0.32742 1.00915,0.72761 0.4063,0.40018 1.22248,1.14432 1.81375,1.65364 0.59126,0.50933 1.08051,1.06623 1.08722,1.23757 0.007,0.17134 0.31916,0.55298 0.69434,0.8481 l 0.68215,0.53658 -0.7483,0.93783 c -0.41156,0.5158 -0.82122,0.93783 -0.91035,0.93783 -0.0891,10e-6 -0.59475,0.34387 -1.1236,0.76415 -0.52885,0.42027 -1.35861,0.83863 -1.8439,0.92967 -0.48531,0.091 -1.13976,0.46156 -1.45434,0.82336 -0.31459,0.3618 -0.74717,0.65783 -0.96129,0.65783 -0.21413,0 -0.51535,0.23549 -0.66939,0.52332 -0.45338,0.84714 -1.59063,1.88973 -1.59063,1.45823 z m -5.55625,-0.65863 c 0,-0.29105 -0.23538,-0.76455 -0.52307,-1.05224 -0.28768,-0.28769 -0.68897,-0.92014 -0.89175,-1.40546 -0.3476,-0.83192 -2.74749,-3.11614 -3.61226,-3.43816 -0.22732,-0.0847 -0.086,-0.15671 0.33073,-0.16867 0.68862,-0.0198 1.78593,0.7626 1.78593,1.27334 0,0.12975 0.28841,0.30829 0.6409,0.39676 0.44056,0.11057 0.74146,0.46556 0.9626,1.13559 0.17693,0.53611 0.6029,1.25595 0.9466,1.59965 0.54072,0.54072 0.91161,2.18835 0.49261,2.18835 -0.0728,0 -0.13229,-0.23812 -0.13229,-0.52916 z m -14.94896,-1.51322 c -0.29104,-0.0709 -0.70776,-0.27836 -0.92604,-0.46101 -0.62075,-0.51943 -2.09011,-0.93619 -3.30065,-0.93619 -0.83169,0 -1.25622,-0.16094 -1.71627,-0.65064 -0.38576,-0.41062 -1.0441,-0.71555 -1.78465,-0.8266 -0.64538,-0.0968 -1.4924,-0.43626 -1.88228,-0.75439 -0.38987,-0.31813 -1.21487,-0.72484 -1.83334,-0.90381 -0.61846,-0.17896 -1.12448,-0.42693 -1.12448,-0.55104 0,-0.38496 -0.85222,-0.63739 -2.77812,-0.82289 -1.81368,-0.17468 -1.80054,-0.17778 0.63343,-0.14961 2.19485,0.0254 2.51975,0.0907 2.77813,0.55794 0.40919,0.74 0.71053,0.91733 1.56677,0.92199 0.93281,0.005 1.76854,0.438 1.76854,0.91614 0,0.22478 0.43068,0.43129 1.12448,0.53919 1.71951,0.26741 1.98318,0.37928 2.1191,0.89905 0.10222,0.39088 0.51173,0.51571 2.19099,0.66788 2.11109,0.1913 3.00127,0.487 3.37598,1.12145 0.1513,0.25619 0.84666,0.35826 2.44078,0.35826 h 2.22919 l -0.16377,-0.8599 c -0.0901,-0.47294 -0.38475,-1.07289 -0.65484,-1.33323 -0.27009,-0.26032 -0.49107,-0.64264 -0.49107,-0.84958 0,-0.49452 1.04544,-1.4574 1.57124,-1.44717 0.34349,0.007 0.33508,0.0535 -0.0499,0.27774 -0.62218,0.36238 -0.60711,1.96553 0.0302,3.21563 0.41685,0.81762 0.43398,0.9902 0.11065,1.11428 -0.4548,0.17452 -4.47635,0.14111 -5.2341,-0.0435 z m 6.54844,-4.76494 c 0.5457,-0.0571 1.43867,-0.0571 1.98437,0 0.54571,0.0571 0.0992,0.10378 -0.99218,0.10378 -1.09141,0 -1.53789,-0.0467 -0.99219,-0.10378 z m -46.30685,-8.00934 c 0,-0.50933 0.0545,-0.71769 0.121,-0.46303 0.0666,0.25467 0.0666,0.67139 0,0.92605 -0.0666,0.25466 -0.121,0.0463 -0.121,-0.46302 z m -0.28993,-1.53348 c -0.0198,-0.33409 -0.33369,-1.16658 -0.69749,-1.84998 -0.63454,-1.19197 -0.83208,-2.47863 -0.50958,-3.31905 0.13422,-0.34978 0.29566,-0.34749 1.38906,0.0197 0.68045,0.22853 1.57374,0.69455 1.98509,1.0356 0.64642,0.53594 1.034,0.62008 2.8563,0.62008 1.89617,0 2.17497,-0.0666 2.76985,-0.66146 0.3638,-0.3638 0.83189,-0.66145 1.04021,-0.66145 0.20831,0 0.57642,-0.30169 0.81801,-0.67041 0.2416,-0.36873 0.90851,-0.88553 1.48203,-1.14845 0.57352,-0.26292 1.18226,-0.75155 1.35277,-1.08584 0.4406,-0.86385 0.84894,-0.66489 0.78355,0.38177 -0.0341,0.54597 -0.31553,1.15023 -0.7276,1.56231 -0.36959,0.36959 -0.67198,0.79645 -0.67198,0.94859 0,0.49215 1.08739,1.38041 1.4973,1.22311 0.21893,-0.084 0.56078,-0.15275 0.75966,-0.15275 0.19888,0 0.6619,-0.26789 1.02894,-0.59531 0.36703,-0.32743 1.10902,-0.9525 1.64887,-1.38907 0.53985,-0.43656 1.31725,-1.11201 1.72755,-1.501 0.68029,-0.64495 0.74601,-0.66124 0.74601,-0.18493 0,0.34684 -0.3111,0.6523 -0.92604,0.90924 -0.50932,0.2128 -0.92604,0.57011 -0.92604,0.79401 0,0.2239 -0.35719,0.5316 -0.79375,0.68379 -0.43657,0.15219 -0.79375,0.42907 -0.79375,0.6153 0,0.54535 -0.57693,0.87045 -1.89211,1.06621 -1.05862,0.15757 -1.31234,0.10148 -1.81509,-0.40127 -0.47879,-0.47879 -0.55469,-0.7705 -0.41987,-1.61362 0.0905,-0.56605 0.0919,-1.02918 0.003,-1.02918 -0.0888,0 -0.49242,0.32742 -0.89682,0.7276 -0.73047,0.72287 -2.04624,1.80329 -2.70486,2.22106 -0.18923,0.12003 -1.65702,0.22006 -3.26175,0.22228 -3.01125,0.004 -4.09376,-0.31355 -4.09376,-1.20157 0,-0.26004 -0.29546,-0.38187 -0.92604,-0.38187 -0.86893,0 -0.92605,0.0532 -0.92605,0.86239 0,0.56856 0.17584,0.97221 0.51607,1.18469 0.55678,0.34772 0.92594,1.73009 0.73353,2.7469 l -0.1192,0.62997 z m 59.7598,-3.89048 c -0.5607,-0.77264 -0.82267,-0.91281 -1.71979,-0.92024 -1.39752,-0.0116 -2.91869,-0.44875 -3.46609,-0.99615 -0.68408,-0.68408 0.0469,-0.75746 1.18331,-0.11879 0.53071,0.29828 1.77105,0.6827 2.7563,0.85428 1.55228,0.27032 1.84328,0.41233 2.18028,1.06402 0.47408,0.91677 0.48128,1.04495 0.0582,1.03564 -0.1819,-0.004 -0.62839,-0.41745 -0.99219,-0.91876 z m -10.45104,-2.76318 c -0.43656,-0.1075 -1.26824,-0.4525 -1.84817,-0.76666 l -1.05441,-0.5712 h 0.84085 c 0.46247,0 1.26525,0.25039 1.78395,0.55643 0.57084,0.33681 1.69947,0.63593 2.85939,0.75783 l 1.91631,0.20139 -1.85209,0.009 c -1.01864,0.005 -2.20927,-0.0791 -2.64583,-0.18663 z m -28.37997,-0.57766 c -1.37781,-0.52951 -1.63104,-1.03354 -0.51014,-1.01541 0.31883,0.005 0.87735,0.17953 1.24115,0.3875 0.76176,0.43546 2.80055,0.5241 3.04271,0.13229 0.0899,-0.14552 0.47728,-0.26458 0.86077,-0.26458 h 0.69724 l -0.89655,0.66145 c -1.1076,0.81717 -2.48596,0.84785 -4.43518,0.0987 z m 12.32319,-0.95825 c 2.37388,-0.0439 6.18388,-0.0438 8.46667,2e-4 2.28279,0.044 0.34053,0.0799 -4.31614,0.0798 -4.65667,-10e-5 -6.5244,-0.0361 -4.15053,-0.08 z m -18.96448,-0.94916 c -0.24711,-0.29775 -0.22982,-0.41085 0.081,-0.53013 0.48078,-0.18449 0.71633,0.12675 0.43744,0.57801 -0.1598,0.25856 -0.27281,0.24812 -0.51847,-0.0479 z"
         id="path15765" /><path
         style="fill:#45321e;stroke-width:0.264583"
         d="m 19.926564,374.03206 c -0.16575,-0.36381 -0.45859,-0.66146 -0.65074,-0.66146 -0.45316,0 -0.57136,-0.63441 -0.70597,-3.78907 -0.0907,-2.12667 -0.21346,-2.73722 -0.67592,-3.36273 -0.71068,-0.96123 -0.70784,-1.10775 0.0194,-1.00254 0.7911,0.11444 0.94528,0.8229 0.97666,4.48763 0.0259,3.03053 0.0367,3.08277 0.66847,3.24133 0.35315,0.0886 0.69652,0.36943 0.76305,0.62399 0.0665,0.25457 0.13609,-3.10903 0.15457,-7.47465 0.0373,-8.80505 0.12415,-9.81324 0.88045,-10.21799 0.81513,-0.43624 0.88011,-0.0533 0.19669,1.15897 -0.62177,1.1029 -0.63406,1.25878 -0.74051,9.38975 -0.0608,4.64666 -0.21261,8.26822 -0.34651,8.26822 -0.13105,0 -0.37389,-0.29765 -0.53965,-0.66145 z m 51.98683,-9.19432 c -0.0505,-9.32195 -0.0671,-9.60197 -0.59532,-10.02968 -0.73698,-0.59678 -0.68291,-0.80325 0.18424,-0.70347 l 0.72761,0.0837 0.13797,8.33437 c 0.0759,4.58391 0.16517,8.1399 0.19843,7.90221 0.0333,-0.23768 0.32316,-0.50085 0.64423,-0.58482 0.76537,-0.20014 0.98864,0.0479 0.41841,0.46487 -0.62692,0.45841 -1.00217,1.56323 -1.00217,2.95059 0,0.76273 -0.11575,1.17314 -0.33073,1.17265 -0.25753,-5.3e-4 -0.34222,-2.12324 -0.38267,-9.59044 z m 2.07803,-4.10667 -0.0417,-6.15723 0.66257,-0.30189 c 0.79685,-0.36307 1.16066,-0.0968 0.7165,0.52436 -0.75234,1.05217 -0.90843,2.03862 -1.09692,6.93262 l -0.19872,5.15938 z m -56.92817,0.81963 c -0.11053,-1.79267 -0.23909,-2.27518 -0.75155,-2.82067 -0.77168,-0.82141 -0.69104,-1.52885 0.13876,-1.21722 0.6966,0.26161 0.95213,1.60182 0.82909,4.34841 l -0.083,1.85209 z m -1.58646,-6.58604 c 0,-1.26287 -0.35727,-2.21671 -0.96467,-2.57544 -0.46859,-0.27675 -0.46375,-1.24362 0.006,-1.24362 0.70992,0 1.04912,0.84852 1.16933,2.92513 0.0669,1.15607 0.0468,2.10195 -0.0446,2.10195 -0.0915,0 -0.16629,-0.54361 -0.16629,-1.20802 z m 6.67407,-1.17323 c -0.009,-1.67102 0.25385,-2.42202 0.93793,-2.67508 0.79703,-0.29484 0.80455,0.44263 0.0115,1.13041 -0.33373,0.28944 -0.6556,0.97435 -0.76063,1.61854 l -0.18208,1.11676 z m 49.92701,-0.42068 c -0.17767,-0.21407 -0.53119,-1.24879 -0.78559,-2.29938 l -0.46257,-1.91015 -0.0629,1.45521 -0.0629,1.45521 -0.17381,-1.24382 c -0.10599,-0.75848 -0.38621,-1.42954 -0.71816,-1.71979 -0.2994,-0.26178 -0.69078,-0.92251 -0.86973,-1.46828 -0.21834,-0.66587 -0.52529,-1.04248 -0.93308,-1.14483 -0.33424,-0.0839 -0.73765,-0.43774 -0.89648,-0.78633 -0.15884,-0.3486 -0.56073,-0.69199 -0.8931,-0.7631 -0.33237,-0.0711 -0.84243,-0.17964 -1.13347,-0.24119 -0.29105,-0.0616 0.0661,-0.13535 0.79375,-0.16401 l 1.32291,-0.0521 -0.92604,-0.44515 c -0.50932,-0.24484 -1.26055,-0.67025 -1.66939,-0.94537 -0.51849,-0.34891 -1.35887,-0.53234 -2.77813,-0.60639 -1.11912,-0.0584 -2.77285,-0.29421 -3.67495,-0.52404 -1.40545,-0.35808 -1.67838,-0.52744 -1.90707,-1.18346 -0.60684,-1.74078 0.23725,-2.07359 5.25919,-2.07359 3.74365,0 3.97255,0.0304 4.6839,0.62215 0.41135,0.34218 1.04557,0.77872 1.40937,0.97008 0.3638,0.19136 1.07817,0.8221 1.5875,1.40164 0.50932,0.57954 1.2981,1.42292 1.75284,1.87419 0.45473,0.45127 0.96224,1.22947 1.12778,1.72935 0.16554,0.49987 0.48166,1.10849 0.70248,1.3525 0.68941,0.76179 1.23442,5.72671 0.71233,6.48918 -0.34722,0.50708 -1.07281,0.62148 -1.40477,0.22148 z m -2.36555,-5.86317 c -0.002,-0.10914 -0.11946,-0.37703 -0.26053,-0.59531 -0.2074,-0.32093 -0.25725,-0.28296 -0.26053,0.19843 -0.002,0.32742 0.11501,0.59532 0.26053,0.59532 0.14552,0 0.26276,-0.0893 0.26053,-0.19844 z m -1.112,-1.67012 c -0.25002,-0.14574 -0.57382,-0.46954 -0.71955,-0.71956 -0.22339,-0.38325 -0.26623,-0.3404 -0.27302,0.27301 -0.007,0.62122 0.0983,0.72643 0.71956,0.71956 0.61342,-0.007 0.65626,-0.0496 0.27301,-0.27301 z m 6.96324,5.70501 c -0.0332,-1.37977 0.24423,-1.94364 1.04278,-2.11903 0.50444,-0.1108 0.77771,-0.35445 0.83299,-0.74272 0.0669,-0.4699 0.33757,-0.62323 1.44918,-0.82089 1.02509,-0.18228 1.43488,-0.39222 1.63869,-0.83953 0.14948,-0.32806 0.54639,-0.63541 0.88204,-0.68298 0.93714,-0.13285 0.98321,-1.5762 0.0844,-2.64437 -0.38102,-0.45283 -0.75949,-1.15694 -0.84105,-1.5647 -0.10239,-0.51193 -0.38464,-0.82378 -0.91204,-1.00762 -0.50733,-0.17686 -0.76376,-0.44854 -0.76376,-0.80918 0,-0.39015 -0.17125,-0.54293 -0.60854,-0.54293 -0.71053,0 -1.24354,-0.45562 -1.24354,-1.06297 0,-0.30856 -0.38757,-0.49681 -1.38907,-0.67469 -1.14821,-0.20394 -1.40372,-0.34994 -1.47361,-0.84203 -0.11649,-0.82022 0.61355,-0.77885 1.16722,0.0661 0.26259,0.40077 0.68312,0.66146 1.06702,0.66146 0.34849,0 0.84081,0.2478 1.09405,0.55066 0.25323,0.30285 0.90293,0.77949 1.44377,1.05919 0.54084,0.2797 1.10324,0.73259 1.24979,1.00642 0.14655,0.27382 0.56725,0.57336 0.93489,0.66563 0.36764,0.0923 0.66844,0.34963 0.66844,0.57191 0,0.22227 0.35643,0.60696 0.79208,0.85485 0.47398,0.26972 0.79274,0.66854 0.79375,0.99311 7.9e-4,0.29832 0.1311,0.67184 0.2893,0.83004 0.20713,0.20712 0.20713,0.33739 0,0.4654 -0.1582,0.0978 -0.28763,0.40085 -0.28763,0.67349 0,0.28263 -0.25591,0.57561 -0.59532,0.68156 -0.32742,0.10221 -0.87654,0.46453 -1.22027,0.80516 -0.34374,0.34062 -1.04305,0.69774 -1.55404,0.79361 -0.51099,0.0959 -1.17396,0.45594 -1.47327,0.80018 -0.29931,0.34423 -0.67904,0.62588 -0.84386,0.62588 -0.47691,0 -1.72505,1.43799 -1.97599,2.27655 l -0.22927,0.76615 z m -51.85721,-1.5875 c -0.033,-1.29264 0.24722,-1.92954 0.92356,-2.0993 0.37418,-0.0939 0.63646,-0.35392 0.63646,-0.63095 0,-0.60501 0.50348,-1.1062 1.11125,-1.1062 0.33287,0 0.47625,-0.20114 0.47625,-0.66808 0,-0.53441 0.16295,-0.70066 0.81445,-0.83096 0.52356,-0.10471 0.89922,-0.38585 1.05178,-0.78713 0.13054,-0.34334 0.27006,-0.64222 0.31004,-0.66418 0.04,-0.022 2.33488,-0.11125 5.09978,-0.19843 4.89221,-0.15426 4.98681,-0.16778 3.52606,-0.50378 -2.34332,-0.53901 -2.69349,-1.37981 -0.78832,-1.89282 1.16301,-0.31317 2.3575,-0.0433 3.38482,0.76483 0.44649,0.35121 1.08566,0.54761 1.78447,0.54832 0.6349,5.3e-4 1.63142,0.2764 2.39041,0.66146 0.71589,0.36319 1.66839,0.66326 2.11667,0.66682 1.21499,0.01 3.13243,0.5026 3.59969,0.92546 0.22616,0.20467 1.58497,0.56101 3.01957,0.79186 1.43461,0.23086 2.94206,0.59228 3.34989,0.80318 1.07947,0.55822 1.82611,0.49596 1.82611,-0.15227 0,-0.6011 0.94005,-1.06728 2.06775,-1.02541 0.65668,0.0244 0.66583,0.0394 0.12096,0.19844 -0.79476,0.232 -1.65954,1.00432 -1.65954,1.48208 0,0.21404 0.22098,0.60216 0.49107,0.86248 0.27009,0.26034 0.55969,0.89005 0.64356,1.39938 0.0839,0.50932 0.0911,0.77721 0.016,0.59531 -0.16633,-0.4032 -3.53191,-0.46624 -3.53191,-0.0661 0,0.39137 -0.73406,0.32114 -0.97904,-0.0937 -0.32709,-0.55381 -1.27817,-0.96425 -2.24472,-0.96871 -0.58952,-0.003 -0.76005,-0.0784 -0.51988,-0.23054 0.2412,-0.15285 -0.0504,-0.28765 -0.89697,-0.4146 -0.91252,-0.13684 -1.3125,-0.0941 -1.46765,0.15698 -0.16109,0.26065 -0.26059,0.21743 -0.40665,-0.17667 -0.25627,-0.69145 -0.6115,-0.90969 -1.48874,-0.91457 -0.40018,-0.002 -0.7276,-0.13114 -0.7276,-0.28646 0,-0.16201 -0.22561,-0.21081 -0.52917,-0.11447 -0.372,0.11807 -0.52917,0.0476 -0.52917,-0.23744 0,-0.51505 -0.80729,-0.95201 -1.76854,-0.95723 -0.85608,-0.005 -1.15723,-0.18181 -1.56739,-0.92199 -0.27818,-0.50201 -0.60614,-0.53281 -6.39013,-0.60013 -6.07709,-0.0707 -6.09935,-0.0689 -6.85052,0.55698 -0.41449,0.34537 -1.21495,0.77839 -1.7788,0.96226 -0.56384,0.18388 -1.07981,0.54328 -1.1466,0.79868 -0.0668,0.2554 -0.46866,0.72109 -0.89306,1.03485 -0.42439,0.31377 -0.77162,0.72477 -0.77162,0.91332 0,0.18856 -0.30027,0.62492 -0.66726,0.96969 -0.36699,0.34477 -0.77297,0.9906 -0.90218,1.43518 l -0.23492,0.80833 -0.0203,-0.79375 z m -9.76937,-0.44272 c -0.0293,-0.5972 -0.3027,-1.27494 -0.70915,-1.75798 -0.77222,-0.91774 -0.85249,-1.44676 -0.20045,-1.32119 0.69639,0.13411 1.16782,1.38117 1.05638,2.7944 -0.0838,1.06329 -0.10643,1.10711 -0.14678,0.28477 z m -1.63519,-4.43317 c 0,-0.75998 -0.45455,-1.4415 -1.11975,-1.67884 -0.1845,-0.0658 -0.24666,-0.21487 -0.13814,-0.33119 0.10853,-0.11632 0.49548,-0.0756 0.8599,0.0904 0.56484,0.25735 0.66257,0.47835 0.66257,1.49818 0,0.65797 -0.0595,1.1963 -0.13229,1.1963 -0.0728,0 -0.13229,-0.34868 -0.13229,-0.77485 z m -1.58345,-3.89986 c -0.009,-1.23832 0.22951,-1.4107 1.94976,-1.4107 1.9547,0 2.73169,-0.44673 2.88213,-1.65709 0.0976,-0.78486 0.10989,-0.76799 0.14749,0.20188 0.0665,1.71477 -0.74751,2.47807 -2.86676,2.68829 -0.94589,0.0938 -1.80727,0.30125 -1.91418,0.46094 -0.1126,0.16819 -0.19609,0.049 -0.19844,-0.28332 z m 56.68293,-4.98016 c -1.20602,-0.52419 -1.11101,-1.24829 0.35634,-2.71564 1.12319,-1.12319 1.33068,-1.22221 2.71198,-1.2943 1.27081,-0.0663 1.36126,-0.0434 0.60149,0.1524 -0.49184,0.12676 -1.18127,0.54 -1.53206,0.91831 -0.3508,0.37832 -0.75461,0.68785 -0.89736,0.68785 -0.14275,0 -0.39664,0.30089 -0.5642,0.66864 -0.46555,1.02177 0.008,1.27271 3.03792,1.60961 l 2.70204,0.30045 -2.77813,0.0232 c -1.85728,0.0155 -3.06315,-0.10067 -3.63802,-0.35053 z m -51.94989,-1.83231 c -0.11676,-1.15885 -0.30569,-1.68514 -0.72761,-2.02679 -0.36093,-0.29227 -0.5699,-0.76122 -0.5699,-1.27896 0,-0.75788 0.0675,-0.81748 0.92605,-0.81748 0.63058,0 0.92604,0.12183 0.92604,0.38187 0,0.88802 1.08251,1.20576 4.09376,1.20157 1.60473,-0.002 3.07252,-0.10225 3.26175,-0.22228 0.67372,-0.42735 1.98136,-1.50514 2.73878,-2.25737 0.91631,-0.91003 1.18939,-0.76928 0.78091,0.4025 -0.34539,0.99079 -1.02414,1.81662 -1.49307,1.81662 -0.17899,0 -0.50733,0.2776 -0.72964,0.61689 -0.24344,0.37153 -1.0711,0.85316 -2.08095,1.21094 -2.55064,0.90365 -3.24046,0.95032 -4.70901,0.31856 -1.94234,-0.83557 -2.0867,-0.78058 -2.17944,0.83017 l -0.08,1.38907 z m 58.34713,-2.50515 c 0.0795,-0.1287 -0.41944,-0.37459 -1.10886,-0.54641 -0.68942,-0.17183 -1.49161,-0.46541 -1.78265,-0.65242 -0.29104,-0.187 -1.18401,-0.49237 -1.98438,-0.67861 -0.80036,-0.18623 -2.16958,-0.55717 -3.0427,-0.82431 -1.82655,-0.55885 -7.69095,-0.98293 -16.84562,-1.21818 -5.24284,-0.13472 -6.13783,-0.0981 -7.11109,0.29137 -0.87742,0.35107 -1.87054,0.43539 -4.68616,0.39785 -2.31489,-0.0309 -3.42095,-0.13261 -3.14153,-0.28899 0.2372,-0.13274 0.43127,-0.46026 0.43127,-0.72783 0,-0.45612 0.095,-0.44743 1.52135,0.13916 2.02165,0.83138 3.4153,0.82428 4.56407,-0.0233 l 0.89655,-0.66145 h 10.07102 10.07101 l 1.31803,0.70164 c 1.07991,0.57488 1.77264,0.72436 3.83436,0.82741 1.97864,0.0989 2.61489,0.22889 2.97762,0.60836 0.55272,0.57824 2.07233,1.03408 3.454,1.03611 0.76348,10e-4 1.15871,0.17626 1.64528,0.72908 0.85872,0.97565 0.82106,1.12448 -0.28453,1.12448 -0.51791,0 -0.87658,-0.1053 -0.79704,-0.234 z m -46.94058,-0.6259 c 0.003,-0.43855 0.0644,-0.5 0.23335,-0.23335 0.12611,0.19908 0.39218,0.46514 0.59126,0.59126 0.26665,0.16892 0.2052,0.23037 -0.23335,0.23335 -0.44336,0.003 -0.59428,-0.1479 -0.59126,-0.59126 z m 3.03152,0.37424 c 0.45031,-0.1022 0.93505,-0.46074 1.1338,-0.83862 l 0.3472,-0.6601 -0.0755,0.79375 c -0.0692,0.72827 -0.16279,0.79746 -1.1338,0.83863 -0.91858,0.0389 -0.95447,0.0213 -0.27172,-0.13366 z m 2.10406,-1.58916 c 0.28018,-0.11749 0.60555,-0.44286 0.72304,-0.72305 0.1806,-0.43068 0.2041,-0.40718 0.15204,0.15204 -0.0459,0.49294 -0.2301,0.67714 -0.72305,0.72304 -0.55922,0.0521 -0.58272,0.0286 -0.15203,-0.15203 z"
         id="path15763" /><path
         style="fill:#3f2c1a;stroke-width:0.264583"
         d="m 20.293844,373.57408 c -0.03,-0.25189 -0.35221,-0.53269 -0.71601,-0.624 -0.65617,-0.16469 -0.66167,-0.19062 -0.68783,-3.24619 -0.0314,-3.66473 -0.18556,-4.37319 -0.97666,-4.48763 -0.56162,-0.0812 -0.58447,-0.19629 -0.58447,-2.94349 0,-3.65947 -0.16666,-4.48846 -0.96325,-4.79132 -0.58326,-0.22175 -0.62598,-0.38109 -0.65062,-2.4267 -0.0325,-2.70158 -0.22295,-3.43889 -0.97446,-3.77345 -0.50663,-0.22555 -0.58667,-0.46684 -0.58667,-1.76872 0,-1.8335 -0.36042,-2.87031 -1.06152,-3.05365 -0.44405,-0.11612 -0.52598,-0.36299 -0.52598,-1.58488 0,-1.36518 -0.045,-1.46434 -0.79375,-1.74694 -0.64952,-0.24517 -0.79375,-0.45038 -0.79375,-1.12938 v -0.82978 l 1.78594,-0.16371 c 1.53092,-0.14034 1.87076,-0.26859 2.37994,-0.89816 0.54003,-0.66771 0.59411,-1.0169 0.59531,-3.84329 10e-4,-3.53597 -0.0421,-3.48371 2.12843,-2.54997 1.46855,0.63176 2.15837,0.58509 4.70901,-0.31856 1.00985,-0.35778 1.83751,-0.83941 2.08095,-1.21094 0.22231,-0.33929 0.56046,-0.61689 0.75144,-0.61689 0.19098,0 0.59401,-0.31371 0.89561,-0.69714 l 0.54837,-0.69714 v 0.84014 0.84013 l 2.18282,-0.0768 c 2.15043,-0.0757 2.18403,-0.0874 2.26498,-0.78842 0.0635,-0.54994 0.24382,-0.73025 0.79375,-0.79375 0.55442,-0.064 0.73007,-0.24287 0.7953,-0.80978 0.0955,-0.82981 -0.132,-0.79536 4.82621,-0.73085 2.33991,0.0304 3.32336,-0.0665 4.18875,-0.41272 0.99493,-0.39809 1.85208,-0.43397 7.12862,-0.29838 9.15467,0.23525 15.01907,0.65933 16.84562,1.21818 0.87312,0.26714 2.24234,0.63808 3.0427,0.82431 0.80037,0.18624 1.69334,0.49161 1.98438,0.67861 0.29104,0.18701 1.10244,0.48291 1.80312,0.65757 0.70067,0.17466 1.17692,0.4096 1.05833,0.5221 -0.11859,0.11249 -1.23715,0.24524 -2.48569,0.29499 l -2.27008,0.0905 -1.23565,1.23588 c -2.29916,2.29959 -1.37081,3.12975 3.49994,3.12975 2.8065,0 2.90326,0.0193 2.98506,0.59531 0.0699,0.49209 0.3254,0.63809 1.47361,0.84203 1.0015,0.17788 1.38907,0.36613 1.38907,0.67469 0,0.60735 0.53301,1.06297 1.24354,1.06297 0.43729,0 0.60854,0.15278 0.60854,0.54293 0,0.36064 0.25643,0.63232 0.76376,0.80918 0.5274,0.18384 0.80965,0.49569 0.91204,1.00762 0.0816,0.40776 0.46003,1.11187 0.84105,1.5647 0.89881,1.06817 0.85274,2.51152 -0.0844,2.64437 -0.33565,0.0476 -0.73256,0.35492 -0.88204,0.68298 -0.20381,0.44731 -0.6136,0.65725 -1.63869,0.83953 -1.11161,0.19766 -1.38229,0.35099 -1.44918,0.82089 -0.0553,0.38827 -0.32855,0.63192 -0.83299,0.74272 -0.88212,0.19374 -1.06045,0.68261 -1.06552,2.92092 -0.003,1.52865 -0.0369,1.60822 -0.79736,1.89525 l -0.79375,0.29961 v 7.55856 7.55857 l -0.66146,0.16602 c -0.3638,0.0913 -0.68867,0.36146 -0.72193,0.60035 -0.0333,0.23888 -0.12255,-3.31613 -0.19843,-7.90004 l -0.13797,-8.33437 -0.72761,-0.0837 -0.7276,-0.0837 0.0275,-2.42982 0.0275,-2.42983 0.46257,1.91015 c 0.2544,1.05059 0.60792,2.08531 0.78559,2.29938 0.33196,0.4 1.05755,0.2856 1.40477,-0.22148 0.52209,-0.76247 -0.0229,-5.72739 -0.71233,-6.48918 -0.22082,-0.24401 -0.53694,-0.85263 -0.70248,-1.3525 -0.16554,-0.49988 -0.67305,-1.27808 -1.12778,-1.72935 -0.45474,-0.45127 -1.24352,-1.29465 -1.75284,-1.87419 -0.50933,-0.57954 -1.2237,-1.21028 -1.5875,-1.40164 -0.3638,-0.19136 -0.99802,-0.6279 -1.40937,-0.97008 -0.71135,-0.59174 -0.94025,-0.62215 -4.6839,-0.62215 -5.02194,0 -5.86603,0.33281 -5.25919,2.07359 0.22869,0.65602 0.50162,0.82538 1.90707,1.18346 0.9021,0.22983 2.55583,0.46565 3.67495,0.52404 1.41926,0.074 2.25964,0.25748 2.77813,0.60639 0.40884,0.27512 1.16007,0.70053 1.66939,0.94537 0.91649,0.44056 0.88731,0.44537 -2.82705,0.46657 -4.09057,0.0233 -5.11045,0.23752 -5.11045,1.0732 0,0.64823 -0.74664,0.71049 -1.82611,0.15227 -0.40783,-0.2109 -1.91528,-0.57232 -3.34989,-0.80318 -1.4346,-0.23085 -2.79341,-0.58719 -3.01957,-0.79186 -0.46726,-0.42286 -2.3847,-0.91582 -3.59969,-0.92546 -0.44828,-0.004 -1.40078,-0.30363 -2.11667,-0.66682 -0.75899,-0.38506 -1.75551,-0.66081 -2.39041,-0.66146 -0.69881,-7.9e-4 -1.33798,-0.19711 -1.78447,-0.54832 -1.02732,-0.80809 -2.22181,-1.078 -3.38482,-0.76483 -1.90517,0.51301 -1.555,1.35381 0.78832,1.89282 1.46075,0.336 1.36615,0.34952 -3.52606,0.50378 -2.7649,0.0872 -5.0598,0.17648 -5.09978,0.19843 -0.04,0.022 -0.1795,0.32084 -0.31004,0.66418 -0.15256,0.40128 -0.52822,0.68242 -1.05178,0.78713 -0.6515,0.1303 -0.81445,0.29655 -0.81445,0.83096 0,0.46694 -0.14338,0.66808 -0.47625,0.66808 -0.60777,0 -1.11125,0.50119 -1.11125,1.1062 0,0.27703 -0.26228,0.53704 -0.63646,0.63095 -0.67836,0.17026 -0.94159,0.77372 -0.94742,2.172 -0.003,0.66518 -0.14862,0.92157 -0.62786,1.10378 -0.6979,0.26534 -0.96326,1.15301 -0.96326,3.22222 0,0.70942 -0.0963,1.28984 -0.21401,1.28984 -0.11771,0 -0.44513,0.16887 -0.7276,0.37525 -0.48537,0.35463 -0.5215,0.85991 -0.65748,9.19427 -0.0791,4.85047 -0.16844,8.61293 -0.19844,8.36105 z m 36.19337,-24.54515 c 0,-0.14925 0.74965,-0.26458 1.71979,-0.26458 0.97014,0 1.71979,0.11533 1.71979,0.26458 0,0.14925 -0.74965,0.26459 -1.71979,0.26459 -0.97014,0 -1.71979,-0.11534 -1.71979,-0.26459 z m -6.08542,-1.5875 c 0,-0.29917 0.80865,-0.29917 1.98438,0 0.67847,0.17265 0.59201,0.20652 -0.59532,0.23328 -0.77052,0.0174 -1.38906,-0.0865 -1.38906,-0.23328 z m 18.78947,-0.33073 c 0.003,-0.48139 0.0531,-0.51936 0.26053,-0.19843 0.3315,0.51296 0.3315,0.79375 0,0.79375 -0.14552,0 -0.26276,-0.2679 -0.26053,-0.59532 z m -1.58351,-1.71979 c 0.007,-0.61341 0.0496,-0.65626 0.27302,-0.27301 0.14573,0.25002 0.46953,0.57382 0.71955,0.71956 0.38325,0.22338 0.34041,0.26623 -0.27301,0.27301 -0.62122,0.007 -0.72643,-0.0983 -0.71956,-0.71956 z"
         id="path15761" /></g></g></svg>
