<?xml version="1.0" encoding="UTF-8" standalone="no"?>
<!-- Created with Inkscape (http://www.inkscape.org/) -->

<svg
   width="162.53462mm"
   height="147.09949mm"
   viewBox="0 0 162.53462 147.09949"
   version="1.1"
   id="svg5"
   xml:space="preserve"
   xmlns:inkscape="http://www.inkscape.org/namespaces/inkscape"
   xmlns:sodipodi="http://sodipodi.sourceforge.net/DTD/sodipodi-0.dtd"
   xmlns="http://www.w3.org/2000/svg"
   xmlns:svg="http://www.w3.org/2000/svg"><sodipodi:namedview
     id="namedview7"
     pagecolor="#ffffff"
     bordercolor="#000000"
     borderopacity="0.25"
     inkscape:showpageshadow="2"
     inkscape:pageopacity="0.0"
     inkscape:pagecheckerboard="0"
     inkscape:deskcolor="#d1d1d1"
     inkscape:document-units="mm"
     showgrid="false"
     inkscape:zoom="0.72248176"
     inkscape:cx="397.93392"
     inkscape:cy="562.64396"
     inkscape:window-width="1854"
     inkscape:window-height="1011"
     inkscape:window-x="0"
     inkscape:window-y="0"
     inkscape:window-maximized="1"
     inkscape:current-layer="layer1"
     showguides="false" /><defs
     id="defs2"><style
       id="style1277">
      .cls-1, .cls-2 {
        stroke-width: 12px;
      }

      .cls-1, .cls-2, .cls-3, .cls-4, .cls-5, .cls-6, .cls-7 {
        stroke-miterlimit: 10;
      }

      .cls-1, .cls-2, .cls-5, .cls-7 {
        stroke: #ad8c76;
      }

      .cls-1, .cls-5 {
        fill: none;
      }

      .cls-2 {
        fill: #eaeadd;
      }

      .cls-8 {
        fill: url(#linear-gradient);
      }

      .cls-8, .cls-9, .cls-10, .cls-11, .cls-12, .cls-13, .cls-14, .cls-15, .cls-16, .cls-17, .cls-18, .cls-19, .cls-20, .cls-21, .cls-22, .cls-23, .cls-24 {
        stroke-width: 0px;
      }

      .cls-9, .cls-18 {
        opacity: .11;
      }

      .cls-9, .cls-23 {
        fill: #fff;
      }

      .cls-3 {
        fill: url(#linear-gradient-4);
        opacity: .76;
        stroke: url(#linear-gradient-5);
      }

      .cls-4 {
        fill: #877b68;
        stroke: #5b4f3c;
        stroke-width: .25px;
      }

      .cls-10 {
        fill: #d3675a;
      }

      .cls-11, .cls-7 {
        fill: #eacebf;
      }

      .cls-12 {
        fill: url(#linear-gradient-7);
        opacity: .54;
      }

      .cls-13 {
        fill: #998274;
      }

      .cls-14 {
        fill: #d6cbb7;
      }

      .cls-15 {
        fill: #231f20;
      }

      .cls-16 {
        fill: #efebe0;
      }

      .cls-25 {
        opacity: .43;
      }

      .cls-26 {
        opacity: .64;
      }

      .cls-27 {
        opacity: .59;
      }

      .cls-28 {
        opacity: .62;
      }

      .cls-17 {
        fill: #d8c7b9;
      }

      .cls-29, .cls-6 {
        opacity: .72;
      }

      .cls-5, .cls-7 {
        stroke-width: 11px;
      }

      .cls-18 {
        fill: #eaece7;
      }

      .cls-19 {
        fill: url(#linear-gradient-8);
      }

      .cls-20 {
        fill: url(#linear-gradient-6);
      }

      .cls-6 {
        fill: url(#linear-gradient-2);
        stroke: url(#linear-gradient-3);
      }

      .cls-21 {
        fill: #e2ad9d;
      }

      .cls-22 {
        fill: #b8a28a;
      }

      .cls-24 {
        fill: #c29f90;
      }
    </style></defs><g
     inkscape:label="Capa 1"
     inkscape:groupmode="layer"
     id="layer1"
     transform="translate(-169.92595,-82.893125)"><g
       id="g11621"
       transform="matrix(1.6701938,0,0,1.6701938,-15.155312,-75.677536)"><path
         style="fill:#eee8d0;stroke-width:0.264583"
         d="m 126.28941,182.49281 c -0.58208,-0.28117 -1.59411,-0.51816 -2.24895,-0.52665 -2.48106,-0.0322 -3.40829,-0.43588 -5.20122,-2.26446 -0.92287,-0.94122 -1.69682,-1.74006 -1.71988,-1.7752 -0.023,-0.0351 -0.11235,-2.45049 -0.19843,-5.36745 l -0.15651,-5.30354 -0.99913,-1.02804 c -0.54952,-0.56542 -1.06125,-1.27555 -1.13718,-1.57807 -0.0759,-0.30252 -0.4773,-0.74474 -0.89195,-0.98272 -0.4761,-0.27324 -0.82241,-0.74457 -0.93981,-1.27907 -0.10224,-0.46552 -0.47208,-1.09523 -0.82187,-1.39936 -0.81761,-0.71091 -1.16024,-1.97846 -1.16024,-4.29231 0,-2.25968 0.35334,-3.62266 1.16663,-4.50021 0.33863,-0.3654 0.69449,-1.15706 0.79078,-1.75924 0.13021,-0.81431 0.44388,-1.3406 1.22403,-2.05372 0.68081,-0.62233 1.04929,-1.18894 1.04993,-1.6145 5.6e-4,-0.36062 0.26844,-1.06281 0.59531,-1.56043 0.32688,-0.49762 0.7414,-1.15246 0.92116,-1.45521 0.2347,-0.39529 0.32793,-2.34083 0.33073,-6.90219 0.002,-3.49346 0.12071,-6.75906 0.26348,-7.25688 0.14278,-0.49782 0.6156,-1.27094 1.05073,-1.71804 0.43512,-0.44711 1.25355,-1.28917 1.81872,-1.87125 0.56517,-0.58208 1.17115,-1.33192 1.34661,-1.66631 0.17547,-0.33439 0.60945,-0.7184 0.9644,-0.85335 0.39041,-0.14843 0.64537,-0.45671 0.64537,-0.78032 0,-0.29423 0.40258,-0.98178 0.89461,-1.5279 0.49203,-0.54612 1.09429,-1.58827 1.33835,-2.31587 0.24406,-0.7276 0.72544,-1.58727 1.06975,-1.91037 0.45402,-0.42606 0.67663,-1.00758 0.81027,-2.11667 0.22062,-1.83097 0.74024,-3.19889 1.29616,-3.41222 0.22327,-0.0857 0.53014,-0.61697 0.68192,-1.18065 0.15178,-0.56368 0.75876,-1.59323 1.34884,-2.2879 1.82133,-2.14413 4.97334,-5.08383 5.62688,-5.24786 0.34179,-0.0858 0.87891,-0.50421 1.19359,-0.92984 0.31468,-0.42563 0.82041,-0.77386 1.12385,-0.77386 0.30344,0 0.94003,-0.42396 1.41465,-0.94212 0.53599,-0.585168 1.33316,-1.083626 2.10404,-1.315626 0.6826,-0.205434 1.44143,-0.605195 1.68628,-0.888359 0.43865,-0.507284 4.07024,-2.145566 4.75609,-2.145566 0.19369,0 0.91908,-0.185428 1.61197,-0.412062 1.04889,-0.343073 2.54117,-0.398444 8.91326,-0.330729 l 7.65345,0.08133 1.32292,0.71991 c 0.91501,0.497933 2.05088,0.814295 3.68383,1.026019 2.02213,0.262183 2.45876,0.410437 3.04271,1.033125 0.42903,0.45749 1.18655,0.844636 2.04332,1.044286 0.8131,0.189472 1.61241,0.586229 1.98437,0.984984 0.34257,0.367248 1.07042,0.847958 1.61745,1.068248 0.65371,0.26325 1.04976,0.62028 1.15553,1.04171 0.10021,0.39926 0.49926,0.78255 1.0576,1.01584 0.49772,0.20797 1.0071,0.66509 1.14486,1.02742 0.1365,0.35902 0.57874,0.81127 0.98276,1.00499 0.40402,0.19372 0.87364,0.63121 1.0436,0.97219 0.16996,0.34098 0.67626,0.84331 1.12512,1.11627 0.44886,0.27297 0.88455,0.76899 0.96819,1.10228 0.0837,0.33328 0.4738,0.79146 0.867,1.01818 0.41678,0.24031 0.86588,0.84613 1.07693,1.45275 0.19911,0.5723 0.69269,1.54821 1.09685,2.16868 0.41463,0.63655 0.85795,1.8271 1.01738,2.73219 0.2021,1.14732 0.51074,1.86396 1.08394,2.5168 0.47062,0.53601 0.87155,1.35151 0.97138,1.97581 0.12974,0.81136 0.34859,1.15545 0.92423,1.45312 0.41483,0.21452 0.82945,0.68968 0.92137,1.05592 0.0919,0.36623 0.50683,0.84155 0.92203,1.05626 0.4152,0.2147 0.89359,0.65703 1.06309,0.98295 0.1695,0.32591 0.7021,0.95967 1.18355,1.40834 0.56864,0.52993 0.98629,1.2563 1.19195,2.07305 0.17412,0.69151 0.48289,1.32111 0.68616,1.39911 0.95847,0.3678 1.17197,1.57335 1.29355,7.3043 0.13348,6.29228 0.19815,6.81488 0.92465,7.47235 0.46912,0.42455 0.67966,0.9885 1.1486,3.07664 0.0893,0.39779 0.40257,0.78714 0.71237,0.88547 0.58367,0.18524 1.54686,1.99353 1.55669,2.9225 0.003,0.30206 0.29834,0.82401 0.65586,1.15988 1.66252,1.56186 1.48038,8.17242 -0.24338,8.8339 -0.22367,0.0858 -0.40667,0.33278 -0.40667,0.54878 0,0.69826 -0.59644,1.72624 -1.09304,1.88385 -0.26596,0.0844 -0.6873,0.49837 -0.93631,0.91991 -0.24901,0.42154 -0.77416,0.89957 -1.16701,1.0623 -0.94255,0.39042 -1.03665,0.96203 -1.03845,6.30808 -7.9e-4,2.41928 -0.12068,4.82784 -0.26638,5.35235 -0.15636,0.5629 -0.89393,1.61471 -1.80007,2.567 -1.64738,1.73126 -2.62646,2.14812 -5.07666,2.16142 -0.65531,0.004 -2.02415,0.24459 -3.04187,0.53563 -2.16771,0.61991 -3.25473,0.66639 -3.97602,0.17002 -0.28704,-0.19754 -1.12409,-0.50158 -1.86012,-0.67566 -0.83798,-0.19818 -1.72135,-0.65735 -2.36316,-1.22834 l -1.02495,-0.91185 -3.06079,-0.002 c -3.72295,-0.002 -4.90568,-0.28423 -5.42914,-1.29649 -0.21165,-0.40929 -0.73199,-0.88797 -1.15631,-1.06373 -1.17764,-0.48779 -2.34673,-1.85913 -2.83621,-3.32684 -0.24266,-0.72761 -0.61481,-1.51911 -0.82701,-1.7589 -0.2464,-0.27844 -0.35594,-0.85136 -0.30313,-1.58552 0.10701,-1.48789 0.73896,-1.8055 4.15225,-2.08689 3.90447,-0.32188 4.75512,-0.51176 4.94287,-1.10334 0.0901,-0.28395 0.67733,-0.73637 1.30491,-1.00538 1.44314,-0.6186 1.61671,-1.28597 1.17504,-4.51794 -0.25907,-1.89583 -0.47401,-2.57396 -1.04261,-3.28945 -0.39395,-0.49572 -0.92428,-1.65065 -1.17852,-2.56652 -0.25424,-0.91588 -0.65834,-1.886 -0.89801,-2.15584 -0.30926,-0.34819 -0.46111,-1.11626 -0.52309,-2.64584 -0.0765,-1.88839 -0.0193,-2.22741 0.462,-2.73837 0.32381,-0.34374 0.73289,-1.41851 0.99643,-2.61786 0.25824,-1.17526 0.6936,-2.32765 1.03068,-2.72826 0.32098,-0.38146 0.7758,-1.34077 1.01071,-2.1318 0.23491,-0.79104 0.74622,-1.77133 1.13624,-2.17842 0.55954,-0.58403 0.7324,-1.06179 0.81941,-2.26471 0.14269,-1.9727 -0.30812,-3.67957 -1.03256,-3.9095 -0.30109,-0.0956 -0.70456,-0.54923 -0.89662,-1.00815 -0.19206,-0.45892 -0.71697,-1.10585 -1.16647,-1.43763 -0.4495,-0.33167 -0.81728,-0.77666 -0.81728,-0.98876 0,-0.2121 -0.46681,-0.68032 -1.03735,-1.04048 -0.57055,-0.36017 -1.11027,-0.88459 -1.19939,-1.16538 -0.17122,-0.53949 -0.87039,-0.82266 -2.04593,-0.82863 -0.50522,-0.003 -1.17479,-0.45204 -2.3151,-1.55406 -0.88237,-0.85274 -1.60431,-1.69015 -1.60431,-1.8609 0,-0.17075 -0.40884,-0.7193 -0.90853,-1.21898 -0.64644,-0.64646 -0.95851,-1.24187 -1.08181,-2.06408 -0.26754,-1.78412 -0.48756,-2.0002 -1.37037,-1.34582 -0.40718,0.30182 -1.12287,1.07348 -1.59043,1.71481 -0.46755,0.64132 -1.00333,1.32148 -1.19062,1.51146 -1.70737,1.73187 -2.91772,2.67662 -3.79619,2.96316 -0.57324,0.18697 -1.36683,0.61028 -1.76353,0.94067 -0.78328,0.65237 -1.29784,0.79021 -3.90894,1.04716 -1.53999,0.15154 -1.84635,0.28462 -2.93033,1.27287 -0.76179,0.69451 -1.38386,1.572 -1.67807,2.36706 -0.3708,1.00203 -0.66076,1.34416 -1.40146,1.65365 -1.43579,0.59991 -1.85356,0.48791 -2.73879,-0.73426 -0.44796,-0.61846 -0.97218,-1.21281 -1.16493,-1.32076 -0.19276,-0.10795 -0.56489,-0.79256 -0.82696,-1.52135 -0.26207,-0.72879 -0.60764,-1.32508 -0.76795,-1.32508 -0.1603,0 -0.44677,0.42952 -0.6366,0.95449 -0.18983,0.52497 -0.74953,1.38322 -1.24378,1.90721 -0.49424,0.52399 -0.89863,1.11566 -0.89863,1.31482 0,0.19916 -0.3779,0.7399 -0.83979,1.20165 -0.87022,0.86996 -1.30113,2.28937 -1.66054,5.46975 -0.19843,1.75594 0.5139,4.3443 1.52689,5.54816 0.40541,0.48181 0.83356,1.53661 1.10099,2.7124 0.24068,1.0582 0.63787,2.14561 0.88264,2.41647 0.66459,0.73545 0.63959,4.92797 -0.0338,5.67177 -0.26337,0.29089 -0.70362,1.27124 -0.97833,2.17856 -0.27471,0.90731 -0.75378,1.92035 -1.0646,2.2512 -0.69896,0.74401 -0.98612,1.94159 -1.21293,5.05842 l -0.17619,2.42135 0.89712,0.4545 c 0.49341,0.24997 1.13524,0.73953 1.42628,1.0879 0.43599,0.52187 0.92497,0.68225 2.77707,0.91087 2.16776,0.26757 4.51438,1.04544 4.48455,1.48654 -0.008,0.11733 -0.30816,1.523 -0.66718,3.12373 -0.35901,1.60073 -0.76951,3.43712 -0.91221,4.08087 -0.50545,2.2801 -1.42288,2.66235 -6.39511,2.66453 l -3.35871,0.001 -1.00691,0.92953 c -0.5538,0.51124 -1.48317,1.05046 -2.06525,1.19827 -0.58208,0.1478 -1.37436,0.44389 -1.76061,0.65797 -1.02329,0.56714 -3.8126,0.49088 -5.11856,-0.13994 z m 7.14404,-1.58739 c 0.26272,-0.21823 0.62465,-0.74634 0.80429,-1.17358 l 0.32662,-0.7768 4.07397,0.0693 c 5.01567,0.0853 5.51046,-0.0695 5.51046,-1.72406 0,-0.91068 0.11927,-1.20238 0.59531,-1.45596 0.86537,-0.46096 1.19506,-0.99568 1.5145,-2.4563 0.57223,-2.61652 -0.51397,-3.81321 -3.96571,-4.36909 -1.27792,-0.20581 -2.08431,-0.55509 -3.53768,-1.53233 -1.73835,-1.16887 -1.88893,-1.34474 -1.96694,-2.2974 -0.0465,-0.5674 0.15451,-1.9366 0.44659,-3.04266 0.29208,-1.10606 0.66065,-2.51162 0.81904,-3.12347 0.15838,-0.61184 0.56642,-1.44528 0.90675,-1.85208 0.70325,-0.84061 1.38479,-2.97781 1.63879,-5.13893 0.22815,-1.94116 -0.73467,-6.34899 -1.65462,-7.57498 -0.35566,-0.47397 -0.8734,-1.52081 -1.15053,-2.32629 -0.27713,-0.80549 -0.74533,-1.77151 -1.04046,-2.1467 -0.60751,-0.77231 -0.6044,-0.79813 0.56794,-4.7194 0.55406,-1.85323 1.02141,-2.88739 1.56007,-3.45218 0.42297,-0.44349 0.76903,-0.94039 0.76903,-1.10422 0,-0.16382 0.39076,-0.813 0.86835,-1.44261 0.47759,-0.62961 1.13564,-1.5807 1.46233,-2.11353 0.34701,-0.56598 0.93842,-1.08886 1.42241,-1.25758 0.45564,-0.15883 0.99932,-0.53277 1.20819,-0.83097 0.6568,-0.93771 0.92818,-0.44444 0.96065,1.74607 0.028,1.8873 0.11254,2.21796 0.81761,3.19706 0.7615,1.05743 0.80639,1.07896 1.41646,0.67923 0.34652,-0.22705 1.08509,-1.0288 1.64125,-1.78165 1.42521,-1.92923 3.01047,-2.9129 5.03545,-3.12455 1.90049,-0.19864 6.3278,-2.18638 7.3923,-3.31894 0.36381,-0.38706 0.92331,-0.8862 1.24335,-1.1092 0.32004,-0.223 0.85767,-0.89096 1.19473,-1.48437 0.33706,-0.59339 1.24124,-1.6439 2.00929,-2.33444 1.32836,-1.19432 1.41483,-1.23126 1.77329,-0.75766 0.20726,0.27383 0.57425,1.09318 0.81552,1.82079 0.24127,0.7276 0.70372,1.6801 1.02766,2.11666 0.32394,0.43657 0.77904,1.16284 1.01134,1.61395 0.23229,0.45111 0.99408,1.38415 1.69286,2.07342 1.17899,1.16295 1.34306,1.24164 2.27778,1.09249 0.86015,-0.13725 1.09202,-0.0621 1.5875,0.51453 0.31912,0.37139 1.26346,1.39205 2.09852,2.26814 0.83506,0.87608 1.84671,2.03323 2.24811,2.57143 0.40139,0.5382 1.06791,1.30382 1.48115,1.70139 l 0.75134,0.72284 -0.089,3.03084 c -0.0848,2.8875 -0.12337,3.06665 -0.81507,3.78791 -0.39932,0.41639 -0.91832,1.40614 -1.15335,2.19945 -0.23502,0.7933 -0.7007,1.91861 -1.03485,2.5007 -0.76805,1.33795 -1.71661,4.81737 -1.71391,6.2868 0.003,1.73341 0.90556,5.10109 1.68068,6.27238 0.84339,1.27444 2.09339,5.52254 2.08936,7.10062 -0.003,1.17298 -0.81527,2.43291 -1.5685,2.43291 -0.1925,0 -0.79682,0.39558 -1.34294,0.87908 -0.73646,0.65201 -1.57389,1.02883 -3.24191,1.45878 -1.23693,0.31884 -2.6888,0.57809 -3.22639,0.57613 -1.17542,-0.004 -2.31525,0.88085 -2.38039,1.84851 -0.0576,0.8563 0.52865,2.6433 1.07041,3.26255 0.23309,0.26644 1.06208,0.79697 1.8422,1.17896 1.02503,0.5019 1.54026,0.95046 1.85784,1.61742 0.57217,1.20163 1.48155,1.43325 5.06966,1.29121 2.4042,-0.0952 2.95528,-0.20691 4.09428,-0.83026 1.45093,-0.79405 2.18347,-0.81694 2.62558,-0.082 0.2377,0.39512 0.17983,0.56631 -0.31302,0.92604 -0.33255,0.24272 -0.86235,0.6343 -1.17735,0.87019 l -0.57271,0.42889 0.91276,0.47925 c 1.2154,0.63815 4.89508,0.81318 8.02176,0.38157 3.14965,-0.43478 4.77188,-1.31467 6.24042,-3.38477 l 1.07037,-1.50881 v -4.02188 c 0,-5.75734 0.15504,-6.29783 2.40378,-8.37982 1.20573,-1.11633 1.95948,-2.05526 2.20223,-2.74329 0.203,-0.57534 0.6189,-1.53576 0.92424,-2.13428 0.75004,-1.4702 0.71519,-3.13903 -0.10179,-4.87374 -0.36132,-0.76721 -0.77967,-1.88995 -0.92966,-2.49498 -0.14999,-0.60502 -0.71992,-1.64124 -1.26652,-2.30269 -0.54659,-0.66145 -1.38564,-2.11387 -1.86455,-3.22759 -0.94664,-2.20145 -1.36639,-5.43894 -1.34308,-10.35897 0.0119,-2.51563 -0.35007,-4.42262 -0.972,-5.12058 -0.20293,-0.22773 -0.50663,-0.82305 -0.6749,-1.32292 -0.29107,-0.86469 -2.9165,-4.56426 -3.51755,-4.95667 -0.52221,-0.34094 -2.7977,-3.28453 -2.7977,-3.61912 0,-0.18155 -0.35137,-0.77224 -0.78083,-1.31264 -0.42945,-0.54039 -0.97455,-1.65809 -1.21133,-2.48378 -0.23678,-0.82568 -0.58303,-1.73937 -0.76945,-2.03043 -0.18642,-0.29105 -0.63769,-1.26882 -1.00283,-2.17281 -0.83523,-2.0678 -1.36063,-2.72282 -5.79789,-7.22822 -2.19937,-2.23315 -3.99142,-3.82433 -4.58771,-4.07348 -0.53818,-0.22486 -1.33424,-0.70817 -1.76901,-1.074 -0.43477,-0.365836 -1.10873,-0.738647 -1.4977,-0.82847 -0.38897,-0.08982 -1.60018,-0.556649 -2.69159,-1.037392 -3.47468,-1.530527 -7.37063,-2.008379 -15.50893,-1.902224 -7.24602,0.09452 -10.29644,0.427498 -11.61086,1.267436 -0.43656,0.278972 -1.54771,0.865075 -2.46922,1.302452 -0.9215,0.437377 -2.10949,1.152988 -2.63997,1.590258 -0.53047,0.43726 -1.1047,0.79502 -1.27606,0.79502 -0.17136,0 -0.81034,0.41672 -1.41996,0.92604 -0.60962,0.50933 -1.19782,0.92605 -1.30711,0.92605 -0.2759,0 -5.38487,5.07754 -6.17997,6.14195 -0.35723,0.47823 -0.79788,1.33218 -0.97923,1.89768 -0.18135,0.5655 -0.60664,1.43623 -0.94509,1.93496 -0.33845,0.49873 -0.692,1.4648 -0.78568,2.14682 -0.0937,0.68202 -0.56146,1.89489 -1.03952,2.69525 -0.47805,0.80037 -0.95053,1.72042 -1.04994,2.04457 -0.0994,0.32415 -0.5903,1.07955 -1.09085,1.67868 -0.50056,0.59912 -0.91011,1.20466 -0.91011,1.34562 0,0.14097 -0.86581,1.1715 -1.92402,2.29007 -1.05821,1.11857 -2.39766,2.68572 -2.97656,3.48256 l -1.05254,1.44879 -0.0299,5.95954 c -0.0164,3.27775 -0.16115,6.57912 -0.32156,7.33637 -0.32777,1.54734 -1.57771,3.9422 -2.84264,5.44645 -0.4925,0.58568 -1.0323,1.68568 -1.29839,2.64583 -0.25049,0.90387 -0.68161,2.01464 -0.95803,2.46838 -0.80043,1.31386 -0.6815,3.47998 0.29115,5.30268 0.43657,0.8181 0.79375,1.65805 0.79375,1.86655 0,0.2085 0.41397,0.81682 0.91993,1.35181 1.93049,2.04128 2.8191,3.21193 3.08307,4.06161 0.15035,0.48392 0.33933,2.8624 0.41997,5.28549 0.14552,4.37264 0.15229,4.41226 0.90391,5.29167 0.41652,0.48732 0.75758,0.95555 0.75792,1.0405 3.4e-4,0.0849 0.66023,0.60875 1.46642,1.16399 1.8869,1.29957 3.91807,1.69103 8.48197,1.63472 2.6429,-0.0326 3.57885,-0.13693 3.94314,-0.43952 z"
         id="path11633"
         sodipodi:nodetypes="csssscsssssssssssscsssssssssssssssssssssscsssssssssssscssssssssssssssssscssssssssscssssccssssssssssssssssssssscssscssssssssssssssssssssssssssssscssscssccssscccscsssssssssssssssssssssssssssssssssssssssscsssscssssscssssssssscssscsssssssssssssssssssssssssssssssssssssssccssssssssssssscc" /><path
         style="fill:#e6d594;stroke-width:0.264583"
         d="m 124.24948,181.05372 c -1.26507,-0.23798 -2.19665,-0.62413 -3.24114,-1.3435 -0.80619,-0.55524 -1.46608,-1.07904 -1.46642,-1.16399 -3.4e-4,-0.085 -0.3414,-0.55318 -0.75792,-1.0405 -0.75162,-0.87941 -0.75839,-0.91903 -0.90391,-5.29167 -0.0806,-2.42309 -0.26962,-4.80157 -0.41997,-5.28549 -0.26397,-0.84968 -1.15258,-2.02033 -3.08307,-4.06161 -0.50596,-0.53499 -0.91993,-1.14331 -0.91993,-1.35181 0,-0.2085 -0.35718,-1.04845 -0.79375,-1.86655 -0.97265,-1.8227 -1.09158,-3.98882 -0.29115,-5.30268 0.27642,-0.45374 0.70754,-1.56451 0.95803,-2.46838 0.26609,-0.96015 0.80589,-2.06015 1.29839,-2.64583 1.26493,-1.50425 2.51487,-3.89911 2.84264,-5.44645 0.16041,-0.75725 0.30512,-4.05862 0.32156,-7.33637 l 0.0299,-5.95954 1.05254,-1.44879 c 0.5789,-0.79684 1.91835,-2.36399 2.97656,-3.48256 1.05821,-1.11857 1.92402,-2.1491 1.92402,-2.29007 0,-0.14096 0.40955,-0.7465 0.91011,-1.34562 0.50055,-0.59913 0.99144,-1.35453 1.09085,-1.67868 0.0994,-0.32415 0.57189,-1.2442 1.04994,-2.04457 0.47806,-0.80036 0.94584,-2.01323 1.03952,-2.69525 0.0937,-0.68202 0.44723,-1.64809 0.78568,-2.14682 0.33845,-0.49873 0.76374,-1.36946 0.94509,-1.93496 0.18135,-0.5655 0.622,-1.41945 0.97923,-1.89768 0.7951,-1.06441 5.90407,-6.14195 6.17997,-6.14195 0.10929,0 0.69749,-0.41672 1.30711,-0.92605 0.60962,-0.50932 1.2486,-0.92604 1.41996,-0.92604 0.17136,0 0.74559,-0.35776 1.27606,-0.79502 0.53048,-0.43727 1.71847,-1.152881 2.63997,-1.590258 0.92151,-0.437377 2.03266,-1.02348 2.46922,-1.302452 1.31442,-0.839938 4.36484,-1.17292 11.61086,-1.267436 8.1383,-0.106155 12.03425,0.371697 15.50893,1.902224 1.09141,0.480743 2.30262,0.947569 2.69159,1.037392 0.38897,0.08982 1.06293,0.462634 1.4977,0.82847 0.43477,0.36583 1.23083,0.84914 1.76901,1.074 0.59629,0.24915 2.38834,1.84033 4.58771,4.07348 4.43726,4.5054 4.96266,5.16042 5.79789,7.22822 0.36514,0.90399 0.81641,1.88176 1.00283,2.17281 0.18642,0.29106 0.53267,1.20475 0.76945,2.03043 0.23678,0.82569 0.78188,1.94339 1.21133,2.48378 0.42946,0.5404 0.78083,1.13109 0.78083,1.31264 0,0.33459 2.27549,3.27818 2.7977,3.61912 0.60105,0.39241 3.22648,4.09198 3.51755,4.95667 0.16827,0.49987 0.47197,1.09519 0.6749,1.32292 0.62193,0.69796 0.98393,2.60495 0.972,5.12058 -0.0233,4.92003 0.39644,8.15752 1.34308,10.35897 0.47891,1.11372 1.31796,2.56614 1.86455,3.22759 0.5466,0.66145 1.11653,1.69767 1.26652,2.30269 0.14999,0.60503 0.56834,1.72777 0.92966,2.49498 0.81698,1.73471 0.85183,3.40354 0.10179,4.87374 -0.30534,0.59852 -0.72124,1.55894 -0.92424,2.13428 -0.24275,0.68803 -0.9965,1.62696 -2.20223,2.74329 -2.24874,2.08199 -2.40378,2.62248 -2.40378,8.37982 v 4.02188 l -1.07037,1.50881 c -1.46854,2.0701 -3.09077,2.94999 -6.24042,3.38477 -3.12668,0.43161 -6.80636,0.25658 -8.02176,-0.38157 l -0.91276,-0.47925 0.57271,-0.42889 c 0.315,-0.23589 0.8448,-0.62747 1.17735,-0.87019 0.49285,-0.35973 0.55072,-0.53092 0.31302,-0.92604 -0.44211,-0.73492 -1.17465,-0.71203 -2.62558,0.082 -1.139,0.62335 -1.69008,0.7351 -4.09428,0.83026 -3.58811,0.14204 -4.49749,-0.0896 -5.06966,-1.29121 -0.31758,-0.66696 -0.83281,-1.11552 -1.85784,-1.61742 -0.78012,-0.38199 -1.60911,-0.91252 -1.8422,-1.17896 -0.54176,-0.61925 -1.12805,-2.40625 -1.07041,-3.26255 0.0651,-0.96766 1.20497,-1.85281 2.38039,-1.84851 0.53759,0.002 1.98946,-0.25729 3.22639,-0.57613 1.66802,-0.42995 2.50545,-0.80677 3.24191,-1.45878 0.54612,-0.4835 1.15044,-0.87908 1.34294,-0.87908 0.75323,0 1.56551,-1.25993 1.5685,-2.43291 0.004,-1.57808 -1.24597,-5.82618 -2.08936,-7.10062 -0.77512,-1.17129 -1.67749,-4.53897 -1.68068,-6.27238 -0.003,-1.46943 0.94586,-4.94885 1.71391,-6.2868 0.33415,-0.58209 0.79983,-1.7074 1.03485,-2.5007 0.23503,-0.79331 0.75403,-1.78306 1.15335,-2.19945 0.6917,-0.72126 0.73025,-0.90041 0.81507,-3.78791 l 0.089,-3.03084 -0.75134,-0.72284 c -0.41324,-0.39757 -1.07976,-1.16319 -1.48115,-1.70139 -0.4014,-0.5382 -1.41305,-1.69535 -2.24811,-2.57143 -0.83506,-0.87609 -1.7794,-1.89675 -2.09852,-2.26814 -0.49548,-0.57663 -0.72735,-0.65178 -1.5875,-0.51453 -0.93472,0.14915 -1.09879,0.0705 -2.27778,-1.09249 -0.69878,-0.68927 -1.46057,-1.62231 -1.69286,-2.07342 -0.2323,-0.45111 -0.6874,-1.17738 -1.01134,-1.61395 -0.32394,-0.43656 -0.78639,-1.38906 -1.02766,-2.11666 -0.24127,-0.72761 -0.60826,-1.54696 -0.81552,-1.82079 -0.35846,-0.4736 -0.44493,-0.43666 -1.77329,0.75766 -0.76805,0.69054 -1.67223,1.74105 -2.00929,2.33444 -0.33706,0.59341 -0.87469,1.26137 -1.19473,1.48437 -0.32004,0.223 -0.87954,0.72214 -1.24335,1.1092 -1.0645,1.13256 -5.49181,3.1203 -7.3923,3.31894 -2.02498,0.21165 -3.61024,1.19532 -5.03545,3.12455 -0.55616,0.75285 -1.29473,1.5546 -1.64125,1.78165 -0.61007,0.39973 -0.65496,0.3782 -1.41646,-0.67923 -0.70507,-0.9791 -0.78964,-1.30976 -0.81761,-3.19706 -0.0325,-2.19051 -0.30385,-2.68378 -0.96065,-1.74607 -0.20887,0.2982 -0.75255,0.67214 -1.20819,0.83097 -0.48399,0.16872 -1.0754,0.6916 -1.42241,1.25758 -0.32669,0.53283 -0.98474,1.48392 -1.46233,2.11353 -0.47759,0.62961 -0.86835,1.27879 -0.86835,1.44261 0,0.16383 -0.34606,0.66073 -0.76903,1.10422 -0.53866,0.56479 -1.00601,1.59895 -1.56007,3.45218 -1.17234,3.92127 -1.17545,3.94709 -0.56794,4.7194 0.29513,0.37519 0.76333,1.34121 1.04046,2.1467 0.27713,0.80548 0.79487,1.85232 1.15053,2.32629 0.91995,1.22599 1.88277,5.63382 1.65462,7.57498 -0.254,2.16112 -0.93554,4.29832 -1.63879,5.13893 -0.34033,0.4068 -0.74837,1.24024 -0.90675,1.85208 -0.15839,0.61185 -0.52696,2.01741 -0.81904,3.12347 -0.29208,1.10606 -0.49304,2.47526 -0.44659,3.04266 0.078,0.95266 0.22859,1.12853 1.96694,2.2974 1.45337,0.97724 2.25976,1.32652 3.53768,1.53233 3.45174,0.55588 4.53794,1.75257 3.96571,4.36909 -0.31944,1.46062 -0.64913,1.99534 -1.5145,2.4563 -0.47604,0.25358 -0.59531,0.54528 -0.59531,1.45596 0,1.65456 -0.49479,1.80937 -5.51046,1.72406 l -4.07397,-0.0693 -0.32662,0.7768 c -0.60598,1.44122 -0.97486,1.56656 -4.74743,1.6131 -1.90601,0.0235 -4.26439,-0.10753 -5.24083,-0.29122 z m 8.67001,-0.73716 c 0.10418,-0.10419 -0.1841,-0.53836 -0.64064,-0.96483 -0.45653,-0.42646 -0.83006,-0.88241 -0.83006,-1.0132 0,-0.99335 2.8044,-1.2076 4.49792,-0.34363 1.08831,0.55521 3.44434,0.69971 5.90639,0.36225 l 1.21774,-0.16691 -0.15058,-1.09866 c -0.15025,-1.09612 -0.14748,-1.10036 1.19939,-1.83341 0.84907,-0.46213 1.39329,-0.94973 1.46671,-1.31412 0.0642,-0.31865 0.1805,-0.8849 0.25845,-1.25833 0.0822,-0.39373 -0.0271,-0.92001 -0.26018,-1.25276 -0.61047,-0.87157 -2.47107,-1.8265 -3.94938,-2.02697 -1.60017,-0.217 -5.56811,-2.06877 -5.94603,-2.77491 -0.34428,-0.6433 -0.35224,-3.30773 -0.0134,-4.48915 0.14204,-0.49529 0.50243,-1.16043 0.80086,-1.47809 0.31952,-0.34012 0.64519,-1.20794 0.79215,-2.11086 0.24753,-1.5209 0.83217,-2.5185 1.47596,-2.5185 0.46663,0 0.7213,-2.72532 0.60297,-6.45278 -0.0956,-3.01082 -0.1064,-3.0559 -0.94048,-3.91894 -0.52628,-0.54453 -0.9476,-1.33846 -1.11965,-2.10983 -0.15998,-0.71725 -0.61069,-1.60336 -1.07296,-2.10949 -0.82059,-0.89842 -0.86387,-1.10211 -0.80692,-3.7975 0.0425,-2.00948 0.42859,-3.2366 1.08387,-3.44458 0.28171,-0.0894 0.57201,-0.45229 0.64511,-0.80639 0.0731,-0.3541 0.19122,-0.92759 0.26249,-1.2744 0.0713,-0.34682 0.48013,-1.00585 0.90859,-1.46451 0.42845,-0.45867 0.91957,-1.25984 1.09137,-1.78038 0.1856,-0.5624 0.62146,-1.12228 1.07411,-1.37977 0.41896,-0.23832 0.7625,-0.63302 0.76342,-0.87712 0.002,-0.45956 1.17207,-1.53283 1.691,-1.55075 0.16228,-0.006 0.53563,-0.39256 0.82968,-0.8599 0.47223,-0.75052 0.67299,-0.8497 1.7198,-0.8497 h 1.18515 l 0.0701,2.77812 c 0.0386,1.52797 0.12809,2.93729 0.19894,3.13181 0.1325,0.36378 3.03823,-2.38323 3.03823,-2.87226 0,-0.47962 1.4815,-0.99431 3.41261,-1.18558 1.59714,-0.15819 2.05976,-0.31125 2.51354,-0.83159 0.38509,-0.44156 1.07482,-0.7423 2.24246,-0.97777 1.38594,-0.27949 1.7527,-0.46676 2.05898,-1.0513 0.20495,-0.39117 0.49046,-0.71122 0.63446,-0.71122 0.4324,0 3.06872,-2.73076 3.28009,-3.3976 0.11205,-0.3535 0.583,-0.78101 1.0969,-0.99573 0.4953,-0.20695 0.90055,-0.54477 0.90055,-0.7507 0,-0.61728 0.78118,-1.20597 1.6003,-1.20597 0.91731,0 1.52459,0.79013 1.75783,2.28711 0.0975,0.62605 0.43621,1.27572 0.87663,1.68164 0.39472,0.3638 0.87317,1.16922 1.06321,1.78981 0.2353,0.76839 0.70542,1.42326 1.47363,2.05275 l 1.1281,0.92439 0.98268,-0.5798 0.98269,-0.5798 0.49142,0.60689 c 0.27028,0.33378 0.49142,0.74778 0.49142,0.92 0,0.17222 0.44649,0.79852 0.99219,1.39179 2.39958,2.60872 3.64749,4.20891 3.77201,4.83683 0.0868,0.43756 0.33642,0.70459 0.70839,0.75771 1.13529,0.16213 1.27429,0.6885 1.27429,4.82565 0,3.46416 -0.0564,3.96258 -0.50403,4.45725 -0.27721,0.30632 -0.64881,0.55694 -0.82576,0.55694 -0.19546,0 -0.48704,0.90028 -0.74293,2.29385 -0.35565,1.9369 -0.54623,2.40806 -1.22476,3.02779 l -0.80356,0.73395 v 3.55372 c 0,3.97563 0.16283,5.20736 0.68843,5.20736 0.59839,0 1.14495,1.1322 1.38147,2.86174 0.146,1.06756 0.41869,1.84922 0.7795,2.23439 0.72774,0.77689 1.1202,1.85218 1.11574,3.05703 -0.007,1.7746 -0.24473,2.16533 -1.73535,2.84715 -0.77117,0.35275 -1.49339,0.64136 -1.60493,0.64136 -0.11154,0 -0.56565,0.33992 -1.00914,0.75538 -0.44349,0.41547 -1.40166,0.91043 -2.12927,1.09993 -0.7276,0.18949 -1.76465,0.56394 -2.30456,0.83211 -0.5399,0.26817 -1.44419,0.48758 -2.00951,0.48758 -0.68819,0 -1.18445,0.17302 -1.5017,0.52357 -0.42198,0.46629 -0.43734,0.65393 -0.14032,1.71477 0.18343,0.65515 0.48036,1.31306 0.65984,1.46202 0.17949,0.14896 1.14691,0.4678 2.14984,0.70854 2.17026,0.52094 2.48368,0.7278 2.48901,1.64276 0.008,1.35237 0.29472,1.49121 3.02116,1.46236 1.3826,-0.0146 2.66652,-0.14659 2.85316,-0.29324 0.59796,-0.46983 2.9147,-1.13537 3.95224,-1.13537 1.31563,0 1.97154,0.85727 1.54159,2.01481 -0.15594,0.41982 -0.46737,0.90326 -0.69206,1.0743 -0.3373,0.25676 -0.19197,0.34346 0.83346,0.49723 1.58204,0.23724 6.31478,-0.0977 6.44251,-0.45589 0.0532,-0.14922 0.42319,-0.64672 0.82217,-1.10557 0.39899,-0.45884 0.82041,-1.3105 0.9365,-1.89259 l 0.21108,-1.05833 0.2391,1.12448 c 0.20211,0.95053 0.33901,1.12448 0.88498,1.12448 0.35524,0 0.73317,0.0298 0.83984,0.0661 0.3103,0.10583 0.62422,-1.80798 0.85715,-5.22552 0.26077,-3.82613 0.47445,-5.04316 0.95554,-5.44243 0.20008,-0.16606 0.44184,-0.8903 0.53723,-1.60943 0.14204,-1.07068 0.38565,-1.52584 1.34504,-2.51298 0.64438,-0.66302 1.48919,-1.29042 1.87735,-1.39423 0.6344,-0.16967 0.74423,-0.3876 1.08628,-2.15546 0.46948,-2.42645 0.47639,-4.03544 0.0283,-6.58649 -0.28191,-1.60498 -0.49993,-2.12473 -1.16639,-2.78069 -0.45081,-0.44372 -1.0236,-1.16279 -1.27287,-1.59794 -0.24927,-0.43515 -0.7118,-1.10895 -1.02785,-1.49735 -0.49835,-0.61244 -0.605,-1.2021 -0.80346,-4.44236 -0.19442,-3.17423 -0.31349,-3.85069 -0.79165,-4.49744 -0.43394,-0.58694 -0.52324,-0.97222 -0.38997,-1.68261 0.0951,-0.50676 0.33983,-1.05995 0.54391,-1.22932 0.31505,-0.26147 0.29359,-0.43923 -0.14223,-1.17789 -0.2823,-0.47846 -0.74096,-1.91183 -1.01924,-3.18525 -0.36417,-1.66647 -0.66036,-2.42347 -1.05691,-2.70122 -0.30302,-0.21225 -0.73255,-0.73708 -0.95451,-1.1663 -0.22196,-0.42922 -1.23466,-1.62479 -2.25045,-2.65684 -1.40173,-1.42415 -1.917,-2.15484 -2.13773,-3.03145 -0.19101,-0.75855 -0.47073,-1.21212 -0.8149,-1.32135 -0.60702,-0.19266 -1.26951,-1.60796 -1.26951,-2.71209 0,-0.51246 -0.30298,-1.07363 -0.92604,-1.71517 -0.78088,-0.80405 -0.92604,-1.14083 -0.92604,-2.14844 0,-1.01691 -0.14046,-1.33538 -0.9429,-2.13782 -0.5186,-0.5186 -1.1123,-1.34832 -1.31934,-1.84383 -0.20703,-0.49551 -0.72508,-1.10688 -1.15121,-1.3586 -0.42614,-0.25173 -0.89884,-0.72993 -1.05045,-1.06268 -0.15161,-0.33276 -0.62957,-0.78802 -1.06213,-1.01171 -0.43256,-0.22368 -0.86507,-0.65434 -0.96114,-0.95702 -0.0961,-0.30268 -0.53313,-0.76832 -0.97126,-1.03477 -0.43813,-0.26644 -1.02106,-0.85353 -1.2954,-1.30466 -0.27435,-0.45112 -0.67674,-0.82022 -0.89422,-0.82022 -0.86724,0 -2.46608,-0.85571 -2.74576,-1.46956 -0.16217,-0.35591 -0.496,-0.6471 -0.74187,-0.6471 -1.61257,0 -3.79174,-0.631483 -4.54111,-1.315929 -0.78266,-0.714846 -0.96171,-0.752835 -4.42189,-0.93816 -1.98342,-0.106231 -7.11217,-0.142366 -11.39723,-0.0803 l -7.79102,0.112846 -0.76246,0.83479 c -0.7446,0.815232 -1.02621,0.934477 -2.92978,1.240603 -0.6421,0.10326 -1.05318,0.37158 -1.3407,0.87514 -0.24397,0.42727 -0.843,0.87735 -1.45521,1.09335 -0.5723,0.20193 -1.48737,0.76748 -2.03349,1.25678 -0.54613,0.48929 -1.22424,0.88963 -1.50692,0.88963 -0.29839,0 -0.65875,0.30194 -0.85913,0.71986 -0.18985,0.39592 -0.64283,0.86633 -1.00663,1.04536 -0.3638,0.17902 -0.8485,0.65875 -1.0771,1.06607 -0.2286,0.40732 -0.72335,0.89051 -1.09944,1.07375 -0.3761,0.18324 -0.80818,0.68994 -0.96019,1.12599 -0.15284,0.43842 -0.56389,0.90214 -0.91954,1.03736 -0.53384,0.20297 -0.69273,0.52596 -0.93483,1.90036 -0.2277,1.29269 -0.46672,1.81571 -1.08987,2.38487 -0.57544,0.52559 -0.79996,0.97318 -0.80451,1.60386 -0.0116,1.61079 -0.47591,2.94598 -1.28848,3.7054 -0.45375,0.42406 -0.87386,1.1462 -0.9724,1.67149 -0.10005,0.5333 -0.48355,1.18574 -0.90581,1.54105 -0.40276,0.33891 -0.81432,0.87462 -0.91457,1.19048 -0.10025,0.31586 -1.12656,1.53392 -2.28068,2.70681 -1.15413,1.1729 -2.09841,2.31515 -2.09841,2.53834 0,0.22319 -0.38188,0.76253 -0.84862,1.19853 -0.79925,0.74661 -0.84682,0.89518 -0.81765,2.55355 0.0216,1.22834 0.19822,2.07779 0.58403,2.80895 0.73942,1.40129 0.74137,3.28018 0.004,4.0714 -0.44941,0.48239 -0.587,1.10489 -0.75954,3.43646 -0.20559,2.77827 -0.6484,4.25427 -1.41788,4.72618 -0.18975,0.11637 -0.55562,0.66457 -0.81303,1.21823 -0.2574,0.55365 -0.75224,1.13614 -1.09963,1.29442 -0.49132,0.22386 -0.66499,0.55859 -0.78183,1.5069 -0.0826,0.67051 -0.28257,1.83418 -0.44436,2.58592 -0.29931,1.39077 -0.23241,2.33138 0.38132,5.36138 0.29678,1.46521 0.44199,1.73358 1.04721,1.93532 0.46305,0.15435 0.80205,0.53541 0.99416,1.11751 0.18822,0.5703 0.50976,0.93807 0.90743,1.03788 0.71892,0.18044 1.10464,1.05247 1.33411,3.01609 0.0949,0.81211 0.36376,1.59978 0.64054,1.87656 0.26234,0.26234 0.55526,1.06128 0.65093,1.77543 0.31726,2.36828 0.78312,4.07657 1.1117,4.07657 0.80736,0 1.59786,-2.56546 1.6965,-5.50572 0.006,-0.19049 0.13068,-0.27276 0.2762,-0.18282 0.15859,0.098 0.26458,1.86286 0.26458,4.40532 v 4.24181 l 0.93862,1.10039 c 0.67345,0.78952 1.21537,1.1496 1.91823,1.27456 1.26753,0.22536 6.83346,0.1456 7.08052,-0.10146 z m -2.52903,-6.42271 c 0,-0.21828 0.11906,-0.39687 0.26458,-0.39687 0.14552,0 0.26458,0.17859 0.26458,0.39687 0,0.21828 -0.11906,0.39688 -0.26458,0.39688 -0.14552,0 -0.26458,-0.1786 -0.26458,-0.39688 z m -1.67799,-1.36931 c -0.0958,-0.0958 -0.17227,-1.55323 -0.17005,-3.23885 0.003,-2.07649 0.0868,-2.93678 0.26054,-2.66788 0.14106,0.21828 0.2583,1.17157 0.26053,2.11841 0.002,0.94685 0.11302,2.10151 0.24621,2.5659 0.17413,0.60717 0.14871,0.92192 -0.0905,1.12044 -0.18296,0.15184 -0.41099,0.19774 -0.50674,0.10198 z m 60.97453,-1.87183 c 0.10453,-0.83675 0.2001,-2.94415 0.21238,-4.68313 0.0166,-2.35419 0.0988,-3.08525 0.32192,-2.86217 0.19207,0.19207 0.30294,1.56429 0.3089,3.82323 0.01,3.76624 -0.18997,5.24342 -0.7096,5.24342 -0.23966,0 -0.27433,-0.39483 -0.1336,-1.52135 z m -65.17279,-6.33488 c -0.17092,-0.65361 0.16709,-1.39509 0.37885,-0.83106 0.0729,0.19411 0.0499,0.58467 -0.051,0.86792 -0.17746,0.498 -0.18828,0.49678 -0.32783,-0.0369 z m 69.53685,-2.35187 c -0.24624,-0.64167 -0.18323,-2.31206 0.10398,-2.75648 0.17962,-0.27794 0.25769,0.13831 0.26053,1.38906 0.004,1.81507 -0.0766,2.11778 -0.36451,1.36742 z m -0.008,-7.5252 c -0.0992,-0.36722 -0.0719,-0.96058 0.0605,-1.31857 0.22446,-0.60678 0.252,-0.61532 0.40633,-0.12608 0.091,0.28866 0.0638,0.88201 -0.0605,1.31858 l -0.22606,0.79375 z m -71.5696,-2.49409 c -0.0153,-0.7672 0.0574,-0.96684 0.27347,-0.75076 0.20888,0.20888 0.21494,0.51234 0.0209,1.04511 -0.27042,0.74241 -0.27369,0.73915 -0.29434,-0.29435 z m 4.03784,-12.46351 c -0.0869,-0.22646 -0.0358,-0.79201 0.11359,-1.25677 0.26866,-0.83595 0.27187,-0.83153 0.29859,0.41173 0.0274,1.27608 -0.12604,1.5907 -0.41218,0.84504 z"
         id="path11631"
         sodipodi:nodetypes="cssssssssssssscssssssssssssssssssssssssssssssssssssssscssscssssssssssssssscsssscsssssssssssssssssssssssssssssssssssssssscsscccsssscssssssssssssssssssssssccssccssssssssssssssscccsssssssssscsssscsssssssssscssssssssscsscsssssssssssssssssssssssssssssssssssssscsssssssssssssssssssssssscsssssssssssssscsscssccsssssscscssssssscsscscccsscscsscccsssssssss" /><path
         style="fill:#e3cd7c;stroke-width:0.264583"
         d="m 125.83897,180.40474 c -0.71344,-0.11717 -1.23463,-0.45987 -1.91823,-1.26128 l -0.93862,-1.10039 v -4.24181 c 0,-2.54246 -0.10599,-4.30731 -0.26458,-4.40532 -0.14552,-0.0899 -0.26981,-0.008 -0.2762,0.18282 -0.0986,2.94026 -0.88914,5.50572 -1.6965,5.50572 -0.32858,0 -0.79444,-1.70829 -1.11171,-4.07657 -0.0957,-0.71415 -0.38858,-1.51309 -0.65093,-1.77543 -0.27677,-0.27678 -0.54563,-1.06445 -0.64053,-1.87656 -0.22947,-1.96362 -0.61519,-2.83565 -1.33411,-3.01609 -0.39689,-0.0996 -0.7191,-0.46724 -0.90609,-1.0338 -0.19142,-0.58001 -0.53538,-0.9647 -1.01072,-1.13041 -0.63125,-0.22005 -0.76622,-0.47681 -1.08901,-2.07168 -0.43,-2.12454 -0.45917,-4.35527 -0.0861,-6.583 0.23861,-1.42483 0.26941,-1.16258 0.30054,2.55932 l 0.0347,4.14682 1.05834,1.03743 c 0.58208,0.57058 1.05833,1.27031 1.05833,1.55495 0,0.64927 0.48808,1.15252 1.1178,1.15252 0.58636,0 0.99887,0.98495 0.99887,2.38501 0,0.86352 0.14789,1.14045 0.92604,1.73397 0.50932,0.38848 0.92604,0.89063 0.92604,1.1159 0,0.9565 0.27191,0.014 0.52254,-1.81117 0.23808,-1.73384 0.37286,-2.05621 1.13065,-2.70423 l 0.86035,-0.73573 v -3.4976 -3.49761 l -0.99219,-1.0149 c -0.68182,-0.69743 -0.99218,-1.25321 -0.99218,-1.77673 0,-0.46684 -0.30314,-1.10708 -0.78286,-1.65345 -1.07321,-1.22232 -1.38642,-2.88601 -1.2889,-6.8462 0.0454,-1.84458 0.01,-3.42653 -0.0791,-3.51544 -0.0889,-0.0889 -0.21532,1.14072 -0.28091,2.73252 -0.12724,3.0883 -0.54588,4.26899 -1.51368,4.26899 -0.3537,0 -0.54237,0.25985 -0.6656,0.91676 -0.18956,1.01042 -0.22873,1.05034 -1.27597,1.30066 -0.89942,0.21498 -0.95764,-0.17559 -0.0854,-0.573 0.3532,-0.16093 0.85279,-0.74558 1.1102,-1.29923 0.25741,-0.55366 0.62328,-1.10186 0.81303,-1.21823 0.76948,-0.47191 1.21228,-1.94791 1.41788,-4.72618 0.17254,-2.33157 0.31013,-2.95407 0.75954,-3.43646 0.73713,-0.79122 0.73518,-2.67011 -0.004,-4.0714 -0.38582,-0.73116 -0.56243,-1.58061 -0.58404,-2.80895 -0.0292,-1.65837 0.0184,-1.80694 0.81766,-2.55355 0.46674,-0.436 0.84862,-0.97534 0.84862,-1.19853 0,-0.22319 0.94428,-1.36544 2.09841,-2.53834 1.15412,-1.17289 2.18043,-2.39095 2.28068,-2.70681 0.10025,-0.31586 0.51181,-0.85157 0.91457,-1.19048 0.42226,-0.35531 0.80576,-1.00775 0.90581,-1.54105 0.0985,-0.52529 0.51865,-1.24743 0.9724,-1.67149 0.81257,-0.75942 1.27686,-2.09461 1.28848,-3.7054 0.005,-0.63068 0.22907,-1.07827 0.80451,-1.60386 0.62315,-0.56916 0.86217,-1.09218 1.08987,-2.38487 0.2421,-1.3744 0.40099,-1.69739 0.93483,-1.90036 0.35565,-0.13522 0.7667,-0.59894 0.91954,-1.03736 0.15201,-0.43605 0.58409,-0.94275 0.96019,-1.12599 0.37609,-0.18324 0.87084,-0.66643 1.09944,-1.07375 0.2286,-0.40732 0.7133,-0.88705 1.0771,-1.06607 0.3638,-0.17903 0.81678,-0.64944 1.00663,-1.04536 0.20038,-0.41792 0.56074,-0.71986 0.85913,-0.71986 0.28268,0 0.96079,-0.40034 1.50692,-0.88963 0.54612,-0.4893 1.46119,-1.05485 2.03349,-1.25678 0.61191,-0.2159 1.21136,-0.66617 1.45521,-1.09307 0.52993,-0.92773 0.77271,-0.92839 0.61189,-0.002 -0.14702,0.84719 -0.73248,1.38836 -1.50457,1.39073 -0.31815,9.8e-4 -0.71909,0.30826 -0.96387,0.73872 -0.41556,0.73076 -1.87766,1.37627 -3.1173,1.37627 -0.41277,0 -0.56461,0.16365 -0.56461,0.60854 0,0.76624 -0.4663,1.24354 -1.21486,1.24354 -0.41163,0 -0.63273,0.21067 -0.76211,0.72613 -0.25295,1.00786 -0.62798,1.39054 -1.36272,1.39054 -0.45935,0 -0.62906,0.14746 -0.62906,0.54656 0,0.75995 -0.47489,1.57011 -0.92035,1.57011 -0.62352,0 -1.19632,1.11128 -1.19632,2.32097 0,1.28412 -0.52363,2.4869 -1.32794,3.05026 -0.41294,0.28924 -0.57561,0.78751 -0.70322,2.15409 -0.17244,1.84656 -0.55753,2.52884 -1.42732,2.52884 -0.33861,0 -0.51027,0.18311 -0.51027,0.5443 0,0.29936 -0.13756,1.09059 -0.30569,1.75829 -0.23757,0.9435 -0.46797,1.27525 -1.03407,1.48892 -0.47419,0.17899 -0.808,0.55797 -0.95653,1.08599 -0.14714,0.52303 -0.50809,0.9365 -1.01645,1.16432 -0.43357,0.1943 -0.9669,0.7276 -1.18518,1.1851 -0.23875,0.50041 -0.66041,0.8909 -1.05833,0.9801 -0.49742,0.11151 -0.68054,0.34254 -0.73839,0.93157 -0.10461,1.06506 -0.86819,2.47347 -1.43927,2.65473 -0.56602,0.17965 -0.63067,1.31688 -0.0867,1.52561 0.85099,0.32656 1.26614,1.49598 1.44732,4.07688 l 0.18113,2.58023 0.34383,-1.19062 c 0.45549,-1.5773 0.71863,-1.85208 1.7736,-1.85208 0.65993,0 1.00118,0.17342 1.33065,0.67627 0.38244,0.58368 0.42052,1.17233 0.27812,4.29947 -0.19914,4.37329 0.17428,8.52654 0.80154,8.91488 0.8968,0.5552 1.39985,1.214 1.39985,1.83325 0,0.36978 0.38927,1.05537 0.91687,1.61478 0.50428,0.5347 0.99815,1.22778 1.09748,1.5402 0.17707,0.55689 0.18466,0.55765 0.38745,0.0388 0.24971,-0.63886 0.3113,-7.13811 0.0787,-8.3013 -0.091,-0.45475 -0.31063,-0.82682 -0.48816,-0.82682 -0.49711,0 -1.11911,-0.82708 -1.39982,-1.86136 -0.13962,-0.51442 -0.62162,-1.33796 -1.07111,-1.8301 -1.01726,-1.11376 -1.23883,-2.58628 -1.03966,-6.90929 0.14688,-3.18791 0.38456,-4.00463 1.39721,-4.80118 0.38403,-0.30208 0.65281,-0.89089 0.77323,-1.69393 0.13183,-0.87913 0.43373,-1.48743 1.05641,-2.12859 0.56635,-0.58314 0.93145,-1.27051 1.04197,-1.96167 0.10251,-0.64103 0.48256,-1.40081 0.95606,-1.91132 0.43226,-0.46605 1.05887,-1.26407 1.39248,-1.77339 1.23721,-1.88889 3.103,-1.10379 3.103,1.30569 0,1.68148 -0.35838,2.59658 -1.1599,2.96178 -0.49326,0.22475 -0.68381,0.57531 -0.82518,1.51811 -0.23303,1.5541 -0.53797,2.11833 -1.30181,2.40874 -0.51587,0.19613 -0.63637,0.48726 -0.78879,1.90557 -0.1859,1.7299 -0.84154,4.13044 -1.24851,4.57125 -0.30666,0.33216 -0.29835,2.08791 0.0114,2.40771 0.30652,0.31647 1.34405,3.26698 1.34405,3.8222 0,0.2278 0.33869,0.54202 0.75265,0.69827 0.59307,0.22387 0.81745,0.54147 1.05833,1.49809 0.16813,0.6677 0.30569,1.45893 0.30569,1.75829 0,0.30365 0.17277,0.5443 0.39077,0.5443 1.60546,0 1.90895,5.25133 0.40311,6.97506 -0.64895,0.74285 -0.74472,1.10835 -0.91082,3.47598 -0.22855,3.25783 -0.54332,4.52746 -1.36434,5.50318 -0.55567,0.66039 -0.63539,1.02242 -0.63539,2.88557 0,2.06316 0.0292,2.16281 0.92604,3.15546 0.8379,0.92746 0.92604,1.17362 0.92604,2.58625 0,1.37914 -0.0983,1.67223 -0.84243,2.51278 -0.73657,0.83198 -0.99516,0.95155 -2.0578,0.95155 -1.53538,0 -2.21174,-0.47356 -2.61932,-1.83395 -0.30661,-1.02337 -0.3742,-1.07647 -1.37023,-1.07647 h -1.04772 v 1.19063 c 0,0.65484 0.12082,1.19062 0.26848,1.19062 0.37441,0 1.31684,1.60815 1.31803,2.24908 5.6e-4,0.2911 0.45837,1.02965 1.01739,1.64121 0.99587,1.08946 1.05599,1.11378 2.97656,1.20408 1.61047,0.0757 1.48815,0.0948 -0.68567,0.10718 -1.4552,0.008 -3.08665,-0.0574 -3.62544,-0.14587 z m 5.08065,-6.51089 c 0,-0.21828 -0.11906,-0.39687 -0.26458,-0.39687 -0.14552,0 -0.26458,0.17859 -0.26458,0.39687 0,0.21828 0.11906,0.39688 0.26458,0.39688 0.14552,0 0.26458,-0.1786 0.26458,-0.39688 z m -1.60992,-2.59173 c -0.13319,-0.46439 -0.24398,-1.61905 -0.24621,-2.5659 -0.002,-0.94684 -0.11947,-1.90013 -0.26053,-2.11841 -0.17378,-0.2689 -0.25779,0.59139 -0.26054,2.66788 -0.002,1.68562 0.0743,3.1431 0.17005,3.23885 0.0958,0.0958 0.32378,0.0499 0.50674,-0.10198 0.2392,-0.19852 0.26462,-0.51327 0.0905,-1.12044 z m -2.35883,-3.26033 c 0,-1.60832 -0.0953,-2.45465 -0.26458,-2.35002 -0.14552,0.0899 -0.26458,0.72283 -0.26458,1.40642 0,0.6836 -0.11663,1.64957 -0.25918,2.14661 -0.17887,0.62369 -0.16959,1.01165 0.03,1.25211 0.56011,0.67488 0.75836,0.033 0.75836,-2.45512 z m -2.05781,-4.55502 c -0.21176,-0.56403 -0.54977,0.17745 -0.37885,0.83106 0.13955,0.53364 0.15037,0.53486 0.32783,0.0369 0.10094,-0.28325 0.1239,-0.67381 0.051,-0.86792 z m -2.14575,-12.29086 c -0.21608,-0.21608 -0.2888,-0.0164 -0.27347,0.75076 0.0207,1.0335 0.0239,1.03676 0.29435,0.29435 0.19406,-0.53277 0.188,-0.83623 -0.0209,-1.04511 z m 4.17655,-12.55779 c -0.0267,-1.24326 -0.0299,-1.24768 -0.29859,-0.41173 -0.14937,0.46476 -0.20049,1.03031 -0.11359,1.25677 0.28614,0.74566 0.43961,0.43104 0.41218,-0.84504 z m 60.35201,41.75701 c -0.3638,-0.12695 -0.50655,-0.24269 -0.31722,-0.25719 0.57401,-0.044 1.17394,-1.7956 0.8331,-2.43246 -0.28278,-0.52839 -0.27303,-0.53078 0.3908,-0.0958 0.74982,0.4913 0.87745,1.03783 0.31861,1.36428 -0.19922,0.11637 -0.44537,0.47947 -0.547,0.80689 -0.17615,0.56751 -0.11694,0.59532 1.26783,0.59532 1.44081,0 1.46786,-0.0149 3.33227,-1.83909 l 1.87966,-1.83909 -0.0733,-3.9156 -0.0733,-3.9156 -0.8567,1.32292 c -0.47118,0.7276 -0.97011,1.50151 -1.10872,1.71979 -0.13861,0.21828 -0.31892,0.71636 -0.40068,1.10684 -0.0898,0.42877 -0.38421,0.78175 -0.74337,0.89119 -0.32708,0.0997 -0.77329,0.33248 -0.99157,0.51736 -0.21828,0.18487 -0.77231,0.41585 -1.23117,0.51327 -0.77702,0.16498 -0.85543,0.1131 -1.14214,-0.75564 -0.16931,-0.51303 -0.64855,-1.21947 -1.06497,-1.56987 l -0.75713,-0.63708 0.52141,-2.34814 c 0.55557,-2.50196 0.55402,-2.90519 -0.038,-9.88876 -0.31242,-3.68535 -0.40902,-4.1591 -0.95295,-4.67381 -0.80273,-0.75959 -1.02357,-1.65553 -1.02357,-4.15259 0,-2.02248 0.0236,-2.09921 0.85989,-2.79739 0.47295,-0.39483 0.86056,-0.94733 0.86138,-1.22778 0.004,-1.23829 0.57242,-2.50381 1.29291,-2.87639 0.69948,-0.36172 0.75957,-0.53692 1.08286,-3.15732 0.32034,-2.59654 0.29531,-3.89049 -0.15567,-8.04889 -0.16006,-1.4758 -0.26609,-1.71059 -0.92685,-2.05229 -0.52651,-0.27227 -0.83442,-0.71374 -1.04611,-1.49991 -0.16499,-0.61274 -0.69303,-1.51872 -1.17341,-2.01331 -0.48039,-0.49458 -0.94021,-1.21284 -1.02184,-1.59613 -0.0969,-0.45516 -0.45045,-0.83457 -1.01912,-1.09378 -0.55794,-0.25431 -0.90207,-0.61831 -0.95803,-1.01333 -0.0566,-0.39967 -0.35425,-0.70951 -0.84636,-0.88106 -0.5062,-0.17646 -0.85221,-0.54691 -1.03873,-1.11207 -0.18447,-0.55896 -0.54316,-0.94691 -1.05363,-1.13959 -0.59732,-0.22546 -0.84332,-0.5498 -1.07797,-1.42124 -0.16723,-0.62102 -0.56239,-1.34158 -0.87814,-1.60125 l -0.5741,-0.47214 0.56654,-0.5753 c 0.52041,-0.52847 0.64964,-0.54801 1.5875,-0.24008 0.56153,0.18437 1.43768,0.60027 1.947,0.92422 1.39264,0.88577 4.70445,4.4303 4.91197,5.25712 0.10589,0.42191 0.45008,0.82767 0.82203,0.96909 0.35192,0.1338 0.79713,0.61732 0.98935,1.07448 0.20398,0.48511 0.67993,0.97015 1.14305,1.16488 0.51651,0.21718 0.85961,0.59685 0.98275,1.08751 0.10407,0.41462 0.53891,1.05219 0.96632,1.41683 0.53705,0.45817 0.87676,1.09208 1.09969,2.05204 0.17741,0.76398 0.40535,1.38906 0.50652,1.38906 0.10118,0 0.4383,-0.35719 0.74916,-0.79375 0.77495,-1.08831 1.72779,-1.07042 2.32741,0.0437 0.24789,0.4606 0.84977,1.2921 1.3375,1.84777 0.99762,1.13658 1.34663,2.30128 1.35586,4.52466 0.003,0.83675 0.10907,1.52136 0.23467,1.52136 0.37737,0 0.53389,-3.41104 0.27282,-5.94601 -0.22722,-2.20642 -0.30963,-2.44085 -1.16659,-3.31845 -0.58001,-0.59399 -0.92209,-1.20249 -0.92209,-1.64024 0,-0.55815 -0.17982,-0.75527 -0.90824,-0.99567 -0.66705,-0.22015 -0.95118,-0.49528 -1.06996,-1.03611 -0.10775,-0.49057 -0.44223,-0.86102 -1.0021,-1.10983 -0.66881,-0.29724 -0.89691,-0.60972 -1.11738,-1.53075 -0.18223,-0.7613 -0.56377,-1.39666 -1.11513,-1.85695 -0.67036,-0.55964 -0.87453,-0.97415 -1.02001,-2.07082 -0.14544,-1.0964 -0.36094,-1.53405 -1.07557,-2.18435 -0.84032,-0.76467 -0.89369,-0.91605 -0.89369,-2.53492 0,-1.4088 -0.0842,-1.74768 -0.46302,-1.86475 -0.95253,-0.29434 -1.25911,-0.57896 -1.4897,-1.383 -0.1303,-0.45434 -0.46684,-0.89904 -0.74785,-0.98823 -0.28102,-0.0892 -0.72976,-0.52198 -0.9972,-0.96175 -0.26744,-0.43977 -0.76289,-0.9375 -1.10101,-1.10607 -0.33811,-0.16857 -0.76009,-0.6018 -0.93772,-0.96273 -0.17764,-0.36094 -0.65623,-0.84398 -1.06355,-1.07344 -0.40732,-0.22946 -0.87615,-0.68704 -1.04185,-1.01685 -0.1657,-0.3298 -0.66109,-0.81846 -1.10086,-1.0859 -0.43977,-0.26744 -0.87776,-0.73259 -0.97332,-1.03368 -0.1146,-0.36107 -0.39877,-0.54742 -0.83477,-0.54742 -0.94308,0 -1.68457,-0.46446 -1.68457,-1.0552 0,-0.62017 -1.36855,-1.05783 -3.31457,-1.05999 -1.45989,-0.002 -2.50626,-0.543692 -2.50626,-1.298376 0,-0.422917 -0.38363,-0.491543 -3.61371,-0.646455 -4.33399,-0.207854 -14.57218,-0.173234 -17.14964,0.05799 -1.59624,0.1432 -1.88797,0.250847 -2.15888,0.796629 -0.45479,0.916202 -0.85217,1.084382 -2.47777,1.048652 -0.80037,-0.0176 -1.15756,-0.0789 -0.79375,-0.13616 1.55903,-0.245567 1.94324,-0.420068 2.66519,-1.210505 l 0.76246,-0.83479 7.79102,-0.112846 c 4.28506,-0.06206 9.41381,-0.02593 11.39723,0.0803 3.46018,0.185325 3.63923,0.223314 4.42189,0.93816 0.74937,0.684446 2.92854,1.315931 4.54111,1.315931 0.24587,0 0.5797,0.29119 0.74187,0.6471 0.27968,0.61385 1.87852,1.46956 2.74576,1.46956 0.21748,0 0.61987,0.3691 0.89422,0.82022 0.27434,0.45113 0.85727,1.03822 1.2954,1.30466 0.43813,0.26645 0.8752,0.73209 0.97126,1.03477 0.0961,0.30268 0.52858,0.73334 0.96114,0.95702 0.43256,0.22369 0.91052,0.67895 1.06213,1.01171 0.15161,0.33275 0.62431,0.81095 1.05045,1.06268 0.42613,0.25172 0.94418,0.86309 1.15121,1.3586 0.20704,0.49551 0.80074,1.32523 1.31934,1.84383 0.80244,0.80244 0.9429,1.12091 0.9429,2.13782 0,1.00761 0.14516,1.34439 0.92604,2.14844 0.62306,0.64154 0.92604,1.20271 0.92604,1.71517 0,1.10413 0.66249,2.51943 1.26951,2.71209 0.34417,0.10923 0.62389,0.5628 0.8149,1.32135 0.22073,0.87661 0.736,1.6073 2.13773,3.03145 1.01579,1.03205 2.02849,2.22762 2.25045,2.65684 0.22196,0.42922 0.65149,0.95405 0.95451,1.1663 0.39655,0.27775 0.69274,1.03475 1.05691,2.70122 0.27828,1.27342 0.73694,2.70679 1.01924,3.18525 0.43582,0.73866 0.45728,0.91642 0.14223,1.17789 -0.20408,0.16937 -0.44884,0.72256 -0.54391,1.22932 -0.13326,0.71036 -0.044,1.09567 0.38988,1.68249 0.66042,0.89327 0.72064,1.72076 0.16561,2.27579 -0.26756,0.26756 -0.33795,0.62826 -0.21577,1.10558 0.0998,0.38966 0.18915,2.32095 0.19868,4.29177 0.0145,3.00434 -0.0585,3.69901 -0.45179,4.29948 -0.25802,0.3939 -0.64271,0.71618 -0.85486,0.71618 -0.21215,0 -0.45295,0.32742 -0.5351,0.7276 -0.45547,2.2188 -0.69436,2.71902 -1.49661,3.13388 l -0.82183,0.42499 0.15379,2.91512 c 0.1299,2.46244 0.23954,3.0064 0.70601,3.50294 0.81328,0.8657 1.08041,2.03689 1.25475,5.5012 0.0861,1.70987 0.258,3.10885 0.3821,3.10885 0.12411,0 0.22566,-0.52803 0.22566,-1.1734 0,-1.56735 0.37792,-2.4732 1.18531,-2.84107 0.53223,-0.2425 0.66685,-0.49544 0.66718,-1.25352 5.3e-4,-1.51283 0.75591,-2.68559 2.04848,-3.18091 1.97028,-0.75502 2.04244,-0.91956 2.12942,-4.85556 0.0991,-4.48291 -0.12245,-5.80258 -1.00882,-6.01026 -0.44836,-0.10505 -0.74864,-0.43707 -0.94885,-1.04913 -0.16109,-0.49249 -0.52241,-0.98034 -0.80293,-1.08411 -1.10993,-0.41059 -1.26569,-0.95187 -1.31719,-4.57741 l -0.0494,-3.47567 0.18598,2.84243 c 0.15574,2.38022 0.28225,2.96105 0.77799,3.57188 0.3256,0.40119 0.79595,1.08547 1.04522,1.52062 0.24927,0.43515 0.82206,1.15422 1.27287,1.59794 1.37834,1.35662 1.88352,5.51452 1.13809,9.36718 -0.34205,1.76786 -0.45188,1.98579 -1.08628,2.15546 -0.38816,0.10381 -1.23297,0.73121 -1.87735,1.39423 -0.95939,0.98714 -1.203,1.4423 -1.34504,2.51298 -0.0954,0.71913 -0.33715,1.44337 -0.53723,1.60943 -0.48109,0.39927 -0.69477,1.6163 -0.95554,5.44243 -0.23031,3.37915 -0.52884,5.18956 -0.85266,5.17085 -0.10914,-0.006 -0.48909,-0.0115 -0.84433,-0.0115 -0.54597,0 -0.68287,-0.17395 -0.88498,-1.12448 l -0.2391,-1.12448 -0.21108,1.05833 c -0.11609,0.58209 -0.53751,1.43375 -0.9365,1.8926 -0.39898,0.45884 -0.76896,0.96431 -0.82217,1.12327 -0.12258,0.36623 -6.18908,0.63115 -7.1082,0.31042 z m 3.066,-9.08096 c 0.31785,-1.38302 0.22265,-7.86355 -0.12057,-8.20676 -0.22307,-0.22308 -0.3053,0.50798 -0.32192,2.86217 -0.0123,1.73898 -0.10785,3.84638 -0.21238,4.68313 -0.14073,1.12652 -0.10606,1.52135 0.1336,1.52135 0.178,0 0.41258,-0.38695 0.52127,-0.85989 z m 1.87889,-9.92188 c -0.0666,-0.25466 -0.121,-0.0463 -0.121,0.46302 0,0.50932 0.0545,0.71768 0.121,0.46302 0.0665,-0.25466 0.0665,-0.67138 0,-0.92604 z m 2.19481,-0.79375 c -0.003,-1.25075 -0.0809,-1.667 -0.26053,-1.38906 -0.41104,0.63603 -0.28261,3.175 0.1606,3.175 0.0572,0 0.10216,-0.80367 0.0999,-1.78594 z m -3.85177,-5.90179 c 0.17235,-1.52336 0.78885,-2.63102 1.46438,-2.63102 0.13991,0 0.38373,-0.48037 0.54182,-1.06748 0.23099,-0.85783 0.4326,-1.09651 1.02653,-1.2153 0.69614,-0.13923 0.75703,-0.26554 1.04783,-2.17366 0.32174,-2.11124 0.13459,-12.38711 -0.2297,-12.61226 -0.10175,-0.0629 -0.26685,1.10271 -0.36689,2.59021 -0.22609,3.3617 -0.4992,4.42072 -1.34496,5.21528 -0.37456,0.35188 -0.66508,0.92151 -0.66591,1.30568 -0.003,1.24829 -0.54029,2.65408 -1.13458,2.96694 -0.32106,0.16902 -0.67121,0.43831 -0.77813,0.59843 -0.27667,0.41436 -0.2501,8.62549 0.0279,8.62549 0.12673,0 0.31199,-0.72104 0.41169,-1.60231 z m 3.94648,-1.70064 c -0.15432,-0.48924 -0.18187,-0.4807 -0.40633,0.12608 -0.13243,0.35799 -0.15966,0.95135 -0.0605,1.31857 l 0.18026,0.66768 0.22607,-0.79375 c 0.12433,-0.43657 0.15157,-1.02992 0.0605,-1.31858 z m -62.79691,26.85087 c -0.55659,-0.55659 -0.712,-1.70786 -0.26761,-1.9825 0.14995,-0.0927 0.19436,0.0135 0.10407,0.24874 -0.0983,0.2561 0.15155,0.69907 0.66449,1.17823 0.45208,0.42231 0.82197,0.83913 0.82197,0.92627 0,0.3558 -0.82858,0.12359 -1.32292,-0.37074 z m 3.75709,-12.75292 c -0.33557,-0.33557 -0.46153,-5.61389 -0.15315,-6.41752 0.0904,-0.23556 0.49248,-0.59798 0.89352,-0.80536 0.64871,-0.33546 0.7419,-0.55317 0.8446,-1.97306 0.1019,-1.40877 0.21993,-1.68927 1.00622,-2.39127 0.48993,-0.43741 0.92887,-0.79529 0.97542,-0.79529 0.0465,0 0.0846,0.29766 0.0846,0.66146 0,0.3777 -0.15267,0.66146 -0.35587,0.66146 -0.66408,0 -1.24664,0.98006 -1.49702,2.5185 -0.14696,0.90292 -0.47263,1.77074 -0.79215,2.11086 -0.29843,0.31766 -0.65882,0.9828 -0.80087,1.47809 -0.4044,1.41006 -0.3192,4.00655 0.15362,4.68159 0.43436,0.62015 0.18134,0.81084 -0.35896,0.27054 z m 47.83456,-1.13218 c 0.59183,-1.55662 0.21505,-3.69145 -0.85266,-4.83127 -0.36081,-0.38517 -0.6335,-1.16683 -0.7795,-2.23439 -0.23652,-1.72954 -0.78308,-2.86174 -1.38147,-2.86174 -0.5256,0 -0.68843,-1.23173 -0.68843,-5.20736 v -3.55372 l 0.80356,-0.73395 c 0.67853,-0.61973 0.86911,-1.09089 1.22476,-3.02779 0.25589,-1.39357 0.54747,-2.29385 0.74293,-2.29385 0.42135,0 1.10894,-0.78675 1.27178,-1.45521 0.0964,-0.39548 0.13667,-0.34202 0.15961,0.21158 0.0367,0.88609 -0.56553,2.13361 -1.2673,2.62514 -0.37042,0.25946 -0.56711,0.85264 -0.72912,2.19888 -0.2085,1.73267 -0.27323,1.86744 -1.07602,2.24045 l -0.85417,0.39687 -0.006,3.6145 -0.006,3.6145 0.82339,0.69283 c 0.85015,0.71536 1.27405,1.89548 1.28864,3.58755 0.006,0.74327 0.16115,1.01318 0.78404,1.36756 0.92884,0.52844 1.13676,1.37672 1.02148,4.16752 -0.0529,1.28123 -0.19671,2.00144 -0.41392,2.07327 -0.25465,0.0842 -0.27019,-0.0547 -0.0662,-0.59137 z M 139.2261,150.8751 c 5.3e-4,-2.03729 0.0419,-2.83575 0.0923,-1.77436 0.0504,1.06139 0.05,2.72827 -8e-4,3.70417 -0.0507,0.9759 -0.0919,0.10749 -0.0915,-1.92981 z m -1.53768,-4.43177 c -0.21294,-0.32742 -0.46611,-1.19745 -0.5626,-1.9334 -0.13303,-1.01472 -0.3124,-1.39836 -0.74224,-1.5875 -1.03231,-0.45424 -1.30227,-1.5339 -1.26711,-5.06767 0.0179,-1.8035 0.14941,-3.49732 0.29216,-3.76404 0.14274,-0.26673 0.56033,-0.56045 0.92797,-0.65272 0.51018,-0.12805 0.66879,-0.33885 0.66992,-0.89033 0.003,-1.54146 0.53588,-2.756 1.3424,-3.06043 0.59065,-0.22294 0.77279,-0.45974 0.77279,-1.00469 0,-0.55461 0.64417,-1.35684 2.89981,-3.61129 2.35962,-2.35836 3.11096,-2.95188 4.03318,-3.18596 1.20139,-0.30495 2.17584,0.0442 2.50303,0.89685 0.18921,0.49308 -0.59767,1.70233 -1.10775,1.70233 -0.31894,0 -0.38803,0.47417 -0.37584,2.57969 0.0136,2.3497 0.0431,2.49713 0.33073,1.65364 0.23795,-0.69776 0.52777,-0.98844 1.17569,-1.17919 0.60445,-0.17795 0.8611,-0.41375 0.86395,-0.79375 0.008,-1.06434 0.4098,-1.30425 2.29294,-1.36897 1.54081,-0.0529 1.63032,-0.0339 0.61342,0.13074 -1.29698,0.20996 -2.38125,0.70718 -2.38125,1.09198 0,0.48734 -2.90616,3.23235 -3.03823,2.86975 -0.0709,-0.19452 -0.16038,-1.60384 -0.19894,-3.13181 l -0.0701,-2.77812 h -1.18515 c -1.04682,0 -1.24757,0.0992 -1.7198,0.8497 -0.29405,0.46734 -0.6674,0.85429 -0.82968,0.8599 -0.51893,0.0179 -1.68927,1.09119 -1.691,1.55075 -7.9e-4,0.2441 -0.34446,0.6388 -0.76342,0.87712 -0.45265,0.25749 -0.88851,0.81737 -1.07412,1.37977 -0.17179,0.52054 -0.66291,1.32171 -1.09136,1.78038 -0.42846,0.45866 -0.83733,1.11769 -0.90859,1.46451 -0.0713,0.34681 -0.1894,0.9203 -0.26249,1.2744 -0.0731,0.3541 -0.3634,0.71698 -0.64511,0.80639 -0.71629,0.22734 -1.06434,1.49685 -1.10003,4.01236 -0.0264,1.86097 0.0523,2.26744 0.57661,2.97656 0.33396,0.45171 0.69543,0.82128 0.80327,0.82128 0.10783,0 0.32833,0.63713 0.48999,1.41585 0.20262,0.97598 0.53724,1.64896 1.0771,2.16617 0.43073,0.41267 0.78316,0.90664 0.78316,1.09769 0,0.56954 -1.01595,0.39379 -1.43329,-0.24794 z m 46.22716,-10.2526 c 0,-0.80037 0.0496,-1.12779 0.11022,-0.72761 0.0606,0.40019 0.0606,1.05503 0,1.45521 -0.0606,0.40019 -0.11022,0.0728 -0.11022,-0.7276 z m -0.34387,-3.67177 c 0,-0.5753 -0.43799,-0.99231 -1.18859,-1.13164 -0.31281,-0.0581 -0.58174,-0.37124 -0.66146,-0.77029 -0.12487,-0.62512 -1.3769,-2.22937 -3.77235,-4.8336 -0.5457,-0.59327 -0.99219,-1.21957 -0.99219,-1.39179 0,-0.17222 -0.22114,-0.58622 -0.49142,-0.92 l -0.49142,-0.60689 -0.98269,0.5798 -0.98268,0.5798 -1.1281,-0.92439 c -0.76821,-0.62949 -1.23833,-1.28436 -1.47363,-2.05275 -0.19004,-0.62059 -0.66849,-1.42601 -1.06321,-1.78981 -0.44042,-0.40592 -0.77909,-1.05559 -0.87663,-1.68164 -0.23324,-1.49698 -0.84052,-2.28711 -1.75783,-2.28711 -0.81912,0 -1.6003,0.58869 -1.6003,1.20597 0,0.20593 -0.40525,0.54375 -0.90055,0.7507 -0.5139,0.21472 -0.98485,0.64223 -1.0969,0.99573 -0.21137,0.66684 -2.84769,3.3976 -3.28009,3.3976 -0.144,0 -0.42951,0.32005 -0.63446,0.71122 -0.30628,0.58454 -0.67304,0.77181 -2.05898,1.0513 -1.19923,0.24183 -1.8546,0.53316 -2.26894,1.00856 -0.34168,0.39205 -0.86525,0.6685 -1.26608,0.6685 -0.60028,0 -0.64917,-0.0641 -0.40172,-0.52643 0.42426,-0.79273 1.59127,-1.28405 3.51916,-1.48156 1.58419,-0.16231 1.74888,-0.23727 1.90721,-0.86812 0.19893,-0.79256 0.55886,-1.08284 1.34984,-1.08859 0.4007,-0.003 0.62523,-0.2454 0.8,-0.86395 0.18314,-0.64819 0.45312,-0.92222 1.0966,-1.11305 0.67728,-0.20084 0.85366,-0.39491 0.85366,-0.93927 0,-0.8354 0.44312,-1.32111 1.20526,-1.32111 0.41394,0 0.63648,-0.23087 0.8118,-0.84215 0.27496,-0.95875 1.28532,-1.38781 2.61314,-1.1097 0.93464,0.19575 1.18108,0.5037 1.18658,1.48273 0.003,0.46795 0.22862,0.86864 0.64307,1.1402 0.66109,0.43317 1.47765,2.11584 1.47765,3.04499 0,0.3195 0.25794,0.62842 0.64878,0.77702 0.35683,0.13567 0.84273,0.62171 1.07977,1.08009 l 0.43098,0.83343 0.86173,-0.94079 c 1.38109,-1.5078 2.47687,-0.81444 2.91886,1.84695 0.15559,0.93687 0.29247,1.11718 0.94754,1.2482 0.59023,0.11804 0.81698,0.35213 0.98954,1.0216 0.15223,0.59056 0.40321,0.89472 0.78433,0.9505 0.68608,0.10041 0.96838,0.43869 1.36674,1.63776 0.35627,1.07235 1.01793,1.93408 1.67954,2.18737 0.30016,0.11492 0.46302,0.45938 0.46302,0.97933 0,0.44113 -0.0595,0.80205 -0.13229,0.80205 -0.0728,0 -0.13229,-0.22355 -0.13229,-0.49677 z"
         id="path11629" /><path
         style="fill:#dec97a;stroke-width:0.264583"
         d="m 127.1508,179.2423 c -0.54489,-0.61331 -0.99182,-1.35324 -0.99318,-1.64428 -0.003,-0.64191 -0.9459,-2.24896 -1.31952,-2.24896 -0.14766,0 -0.26848,-0.53578 -0.26848,-1.19062 v -1.19063 h 1.04772 c 0.99603,0 1.06362,0.0531 1.37023,1.07647 0.40758,1.36039 1.08394,1.83395 2.61932,1.83395 1.06264,0 1.32123,-0.11957 2.0578,-0.95155 0.74417,-0.84055 0.84243,-1.13364 0.84243,-2.51278 0,-1.41263 -0.0881,-1.65879 -0.92604,-2.58625 -0.89679,-0.99265 -0.92604,-1.0923 -0.92604,-3.15546 0,-1.86315 0.0797,-2.22518 0.63539,-2.88557 0.82102,-0.97572 1.13579,-2.24535 1.36434,-5.50318 0.1661,-2.36763 0.26187,-2.73313 0.91082,-3.47598 1.50584,-1.72373 1.20235,-6.97506 -0.40311,-6.97506 -0.218,0 -0.39077,-0.24065 -0.39077,-0.5443 0,-0.29936 -0.13756,-1.09059 -0.30569,-1.75829 -0.24088,-0.95662 -0.46526,-1.27422 -1.05833,-1.49809 -0.41396,-0.15625 -0.75265,-0.47047 -0.75265,-0.69827 0,-0.55522 -1.03753,-3.50573 -1.34405,-3.8222 -0.30974,-0.3198 -0.31805,-2.07555 -0.0114,-2.40771 0.40697,-0.44081 1.06261,-2.84135 1.24851,-4.57125 0.15242,-1.41831 0.27292,-1.70944 0.78879,-1.90557 0.76384,-0.29041 1.06878,-0.85464 1.30181,-2.40874 0.14137,-0.9428 0.33192,-1.29336 0.82518,-1.51811 0.80152,-0.3652 1.1599,-1.2803 1.1599,-2.96178 0,-2.40948 -1.86579,-3.19458 -3.103,-1.30569 -0.33361,0.50932 -0.96022,1.30734 -1.39248,1.77339 -0.4735,0.51051 -0.85355,1.27029 -0.95606,1.91132 -0.11052,0.69116 -0.47562,1.37853 -1.04197,1.96167 -0.62268,0.64116 -0.92458,1.24946 -1.05641,2.12859 -0.12042,0.80304 -0.3892,1.39185 -0.77323,1.69393 -1.01265,0.79655 -1.25033,1.61327 -1.39721,4.80118 -0.19917,4.32301 0.0224,5.79553 1.03966,6.90929 0.44949,0.49214 0.93149,1.31568 1.07111,1.8301 0.28071,1.03428 0.90271,1.86136 1.39982,1.86136 0.17753,0 0.3972,0.37207 0.48816,0.82682 0.23263,1.16319 0.17104,7.66244 -0.0787,8.3013 -0.20279,0.5188 -0.21038,0.51804 -0.38745,-0.0388 -0.0993,-0.31242 -0.5932,-1.0055 -1.09748,-1.5402 -0.5276,-0.55941 -0.91687,-1.245 -0.91687,-1.61478 0,-0.61925 -0.50305,-1.27805 -1.39985,-1.83325 -0.62726,-0.38834 -1.00068,-4.54159 -0.80154,-8.91488 0.1424,-3.12714 0.10432,-3.71579 -0.27812,-4.29947 -0.32947,-0.50285 -0.67072,-0.67627 -1.33065,-0.67627 -1.05497,0 -1.31811,0.27478 -1.7736,1.85208 l -0.34383,1.19062 -0.18113,-2.58023 c -0.18118,-2.5809 -0.59633,-3.75032 -1.44732,-4.07688 -0.54396,-0.20873 -0.47931,-1.34596 0.0867,-1.52561 0.57108,-0.18126 1.33466,-1.58967 1.43927,-2.65473 0.0579,-0.58903 0.24097,-0.82006 0.73839,-0.93157 0.39792,-0.0892 0.81958,-0.47969 1.05833,-0.9801 0.21828,-0.4575 0.75161,-0.9908 1.18518,-1.1851 0.50836,-0.22782 0.86931,-0.64129 1.01645,-1.16432 0.14853,-0.52802 0.48234,-0.907 0.95653,-1.08599 0.5661,-0.21367 0.7965,-0.54542 1.03407,-1.48892 0.16813,-0.6677 0.30569,-1.45893 0.30569,-1.75829 0,-0.36119 0.17166,-0.5443 0.51027,-0.5443 0.86979,0 1.25488,-0.68228 1.42732,-2.52884 0.12761,-1.36658 0.29028,-1.86485 0.70322,-2.15409 0.80431,-0.56336 1.32794,-1.76614 1.32794,-3.05026 0,-1.20969 0.5728,-2.32097 1.19632,-2.32097 0.44546,0 0.92035,-0.81016 0.92035,-1.57011 0,-0.3991 0.16971,-0.54656 0.62906,-0.54656 0.73474,0 1.10977,-0.38268 1.36272,-1.39054 0.12938,-0.51546 0.35048,-0.72613 0.76211,-0.72613 0.74856,0 1.21486,-0.4773 1.21486,-1.24354 0,-0.44489 0.15184,-0.60854 0.56461,-0.60854 1.23964,0 2.70174,-0.64551 3.1173,-1.37627 0.24478,-0.43047 0.64572,-0.73775 0.96387,-0.73873 0.77111,-0.002 1.38792,-0.55178 1.48706,-1.32458 0.0763,-0.59491 0.21798,-0.66842 1.40778,-0.7306 2.01897,-0.10552 2.45652,-0.26877 2.83285,-1.056953 0.3153,-0.66039 0.51378,-0.740955 2.19647,-0.891567 2.5834,-0.231231 12.82002,-0.265837 17.15385,-0.05799 3.23008,0.154912 3.61371,0.223538 3.61371,0.646455 0,0.754684 1.04637,1.296755 2.50626,1.298375 1.94602,0.002 3.31457,0.43982 3.31457,1.05999 0,0.59074 0.74149,1.0552 1.68457,1.0552 0.436,0 0.72017,0.18635 0.83477,0.54742 0.0956,0.30109 0.53355,0.76624 0.97332,1.03368 0.43977,0.26744 0.93516,0.7561 1.10086,1.0859 0.1657,0.32981 0.63453,0.78739 1.04185,1.01685 0.40732,0.22946 0.88591,0.7125 1.06355,1.07344 0.17763,0.36093 0.59961,0.79416 0.93772,0.96273 0.33812,0.16857 0.83357,0.6663 1.10101,1.10607 0.26744,0.43977 0.71618,0.87256 0.9972,0.96175 0.28101,0.0892 0.61755,0.53389 0.74785,0.98823 0.23059,0.80404 0.53717,1.08866 1.4897,1.383 0.37887,0.11707 0.46302,0.45595 0.46302,1.86475 0,1.61887 0.0534,1.77025 0.89369,2.53492 0.71463,0.6503 0.93013,1.08795 1.07557,2.18435 0.14548,1.09667 0.34965,1.51118 1.02001,2.07082 0.55136,0.46029 0.9329,1.09565 1.11513,1.85695 0.22047,0.92103 0.44857,1.23351 1.11738,1.53075 0.55987,0.24881 0.89435,0.61926 1.0021,1.10983 0.11878,0.54083 0.40291,0.81596 1.06996,1.03611 0.72842,0.2404 0.90824,0.43752 0.90824,0.99567 0,0.43775 0.34208,1.04625 0.92209,1.64024 0.85696,0.8776 0.93937,1.11203 1.16659,3.31845 0.26107,2.53497 0.10455,5.94601 -0.27282,5.94601 -0.1256,0 -0.2312,-0.68461 -0.23467,-1.52136 -0.009,-2.22338 -0.35824,-3.38808 -1.35586,-4.52466 -0.48773,-0.55567 -1.08961,-1.38717 -1.3375,-1.84777 -0.59962,-1.11413 -1.55246,-1.13202 -2.32741,-0.0437 -0.31086,0.43656 -0.64798,0.79375 -0.74916,0.79375 -0.10117,0 -0.32911,-0.62508 -0.50652,-1.38906 -0.22293,-0.95996 -0.56264,-1.59387 -1.09969,-2.05204 -0.42741,-0.36464 -0.86225,-1.00221 -0.96632,-1.41683 -0.12314,-0.49066 -0.46624,-0.87033 -0.98275,-1.08751 -0.46312,-0.19473 -0.93907,-0.67977 -1.14305,-1.16488 -0.19222,-0.45716 -0.63743,-0.94068 -0.98935,-1.07448 -0.37195,-0.14142 -0.71614,-0.54718 -0.82203,-0.96909 -0.20752,-0.82682 -3.51933,-4.37135 -4.91197,-5.25712 -0.50932,-0.32395 -1.38547,-0.73985 -1.947,-0.92422 -0.93786,-0.30793 -1.06709,-0.28839 -1.5875,0.24008 l -0.56654,0.5753 0.5741,0.47214 c 0.31575,0.25967 0.71091,0.98023 0.87814,1.60125 0.23465,0.87144 0.48065,1.19578 1.07797,1.42124 0.51047,0.19268 0.86916,0.58063 1.05363,1.13959 0.18652,0.56516 0.53253,0.93561 1.03873,1.11207 0.49211,0.17155 0.78975,0.48139 0.84636,0.88106 0.056,0.39502 0.40009,0.75902 0.95803,1.01333 0.56867,0.25921 0.92219,0.63862 1.01912,1.09378 0.0816,0.38329 0.54145,1.10155 1.02184,1.59613 0.48038,0.49459 1.00842,1.40057 1.17341,2.01331 0.21169,0.78617 0.5196,1.22764 1.04611,1.49991 0.66076,0.3417 0.76679,0.57649 0.92685,2.05229 0.45098,4.1584 0.47601,5.45235 0.15567,8.04889 -0.32329,2.6204 -0.38338,2.7956 -1.08286,3.15732 -0.72049,0.37258 -1.28933,1.6381 -1.29291,2.87639 -8e-4,0.28045 -0.38843,0.83295 -0.86138,1.22778 -0.83631,0.69818 -0.85989,0.77491 -0.85989,2.79739 0,2.49706 0.22084,3.393 1.02357,4.15259 0.54393,0.51471 0.64053,0.98846 0.95295,4.67381 0.59204,6.98357 0.59359,7.3868 0.038,9.88876 l -0.52141,2.34814 0.75713,0.63708 c 0.41642,0.3504 0.89566,1.05684 1.06497,1.56987 0.28671,0.86874 0.36512,0.92062 1.14214,0.75564 0.45886,-0.0974 1.01289,-0.3284 1.23117,-0.51327 0.21828,-0.18488 0.66449,-0.41768 0.99157,-0.51736 0.35916,-0.10944 0.65358,-0.46242 0.74337,-0.89119 0.0818,-0.39048 0.26207,-0.88856 0.40068,-1.10684 0.13861,-0.21828 0.63754,-0.99219 1.10872,-1.71979 l 0.8567,-1.32292 0.0733,3.9156 0.0733,3.9156 -1.87966,1.83909 c -1.86441,1.82416 -1.89146,1.83909 -3.33227,1.83909 -1.38477,0 -1.44398,-0.0278 -1.26783,-0.59532 0.10163,-0.32742 0.34778,-0.69052 0.547,-0.80689 0.19922,-0.11638 0.36221,-0.37456 0.36221,-0.57374 0,-0.55568 -1.67249,-1.46364 -2.69607,-1.46364 -0.96255,0 -3.28527,0.68303 -3.86097,1.13537 -0.18664,0.14665 -1.47056,0.2786 -2.85316,0.29324 -2.72644,0.0289 -3.01328,-0.10999 -3.02116,-1.46236 -0.005,-0.91496 -0.31875,-1.12182 -2.48901,-1.64276 -1.00293,-0.24074 -1.97035,-0.55958 -2.14984,-0.70854 -0.17948,-0.14896 -0.47641,-0.80687 -0.65984,-1.46202 -0.29702,-1.06084 -0.28166,-1.24848 0.14032,-1.71477 0.31725,-0.35055 0.81351,-0.52357 1.5017,-0.52357 0.56532,0 1.46961,-0.21941 2.00951,-0.48758 0.53991,-0.26817 1.57696,-0.64262 2.30456,-0.83211 0.72761,-0.1895 1.68578,-0.68446 2.12927,-1.09993 0.44349,-0.41546 0.90174,-0.75538 1.01835,-0.75538 0.11659,0 0.58718,-0.16793 1.04573,-0.37317 0.45856,-0.20523 1.19093,-0.48265 1.62749,-0.61647 0.77793,-0.23847 0.79536,-0.28244 0.87484,-2.20653 0.11528,-2.7908 -0.0926,-3.63908 -1.02148,-4.16752 -0.62289,-0.35438 -0.77763,-0.62429 -0.78404,-1.36756 -0.0146,-1.69207 -0.43849,-2.87219 -1.28864,-3.58755 l -0.82339,-0.69283 0.006,-3.6145 0.006,-3.6145 0.85417,-0.39687 c 0.80279,-0.37301 0.86752,-0.50778 1.07602,-2.24045 0.16201,-1.34624 0.35869,-1.93942 0.72912,-2.19888 0.27899,-0.19541 0.66869,-0.67549 0.86598,-1.06684 0.82003,-1.62659 0.76184,-9.99469 -0.0717,-10.31375 -0.62333,-0.23859 -1.29014,-1.12224 -1.63882,-2.17175 -0.39836,-1.19907 -0.68066,-1.53735 -1.36674,-1.63776 -0.38112,-0.0558 -0.6321,-0.35994 -0.78433,-0.9505 -0.17256,-0.66947 -0.39931,-0.90356 -0.98954,-1.0216 -0.65507,-0.13102 -0.79195,-0.31133 -0.94754,-1.2482 -0.44199,-2.66139 -1.53777,-3.35475 -2.91886,-1.84695 l -0.86173,0.94079 -0.43098,-0.83343 c -0.23704,-0.45838 -0.72294,-0.94442 -1.07977,-1.08009 -0.39084,-0.1486 -0.64878,-0.45752 -0.64878,-0.77702 0,-0.92915 -0.81656,-2.61182 -1.47765,-3.04499 -0.41445,-0.27156 -0.64044,-0.67225 -0.64307,-1.1402 -0.006,-0.97903 -0.25194,-1.28698 -1.18658,-1.48273 -1.32782,-0.27811 -2.33818,0.15095 -2.61315,1.1097 -0.17529,0.61128 -0.39783,0.84215 -0.81177,0.84215 -0.76214,0 -1.20526,0.48571 -1.20526,1.32111 0,0.54436 -0.17638,0.73843 -0.85366,0.93927 -0.64348,0.19083 -0.91346,0.46486 -1.0966,1.11305 -0.17477,0.61855 -0.3993,0.86104 -0.8,0.86395 -0.79098,0.006 -1.15091,0.29603 -1.34984,1.08859 -0.15833,0.63085 -0.32302,0.70581 -1.90721,0.86812 -1.9055,0.19522 -3.09452,0.68811 -3.50351,1.45232 -0.21591,0.40343 -0.64401,0.51627 -2.27004,0.59839 -2.08974,0.10552 -2.49444,0.33578 -2.50259,1.42392 -0.003,0.38 -0.2595,0.6158 -0.86395,0.79375 -0.64792,0.19075 -0.93774,0.48143 -1.17569,1.17919 -0.28764,0.84349 -0.31713,0.69606 -0.33073,-1.65364 -0.0122,-2.10552 0.0569,-2.57969 0.37584,-2.57969 0.51008,0 1.29696,-1.20925 1.10775,-1.70233 -0.32719,-0.85265 -1.30164,-1.2018 -2.50303,-0.89685 -0.92222,0.23408 -1.67356,0.8276 -4.03318,3.18596 -2.25564,2.25445 -2.89981,3.05668 -2.89981,3.61129 0,0.54495 -0.18214,0.78175 -0.77279,1.00469 -0.80652,0.30443 -1.33926,1.51897 -1.3424,3.06043 -0.001,0.55148 -0.15974,0.76228 -0.66992,0.89033 -0.36764,0.0923 -0.78523,0.38599 -0.92797,0.65272 -0.14275,0.26672 -0.27422,1.96054 -0.29216,3.76404 -0.0352,3.53377 0.2348,4.61343 1.26711,5.06767 0.42984,0.18914 0.60921,0.57278 0.74224,1.5875 0.2088,1.59251 0.75408,2.52872 1.47282,2.52872 0.49652,0 0.52307,0.19101 0.52307,3.76359 v 3.76359 l -0.97539,0.86776 c -0.8807,0.78351 -0.9866,1.02273 -1.09086,2.46414 -0.10274,1.42031 -0.1959,1.63797 -0.84463,1.97345 -0.98397,0.50882 -1.05787,0.79314 -1.05787,4.06952 0,2.84691 0.18203,3.47086 1.01259,3.47086 0.20767,0 1.22566,0.4088 2.26218,0.90843 1.03653,0.49964 2.47991,0.98875 3.20752,1.08692 2.31984,0.31297 4.48631,1.91968 4.24277,3.14652 -0.37998,1.91409 -0.42066,1.97666 -1.75837,2.70474 -1.34687,0.73305 -1.34964,0.73729 -1.19939,1.83341 l 0.15058,1.09866 -1.21774,0.16691 c -2.46205,0.33746 -4.81808,0.19296 -5.90639,-0.36225 -1.13242,-0.57772 -3.39442,-0.71356 -4.25073,-0.25528 -0.66758,0.35728 -0.65872,1.43125 0.0174,2.10736 l 0.52917,0.52917 -2.05052,-0.009 -2.05052,-0.009 -0.9907,-1.11511 z m 13.50166,-1.50969 c 0.77244,-0.002 0.92402,-0.12995 1.36041,-1.14802 0.40967,-0.9557 0.71467,-1.24188 1.8391,-1.7256 1.34702,-0.57947 1.49008,-0.78404 1.67768,-2.39892 0.1029,-0.88582 -2.27629,-2.54783 -3.99165,-2.7884 -0.67412,-0.0945 -1.58286,-0.27965 -2.01942,-0.41136 -0.43656,-0.13171 -1.21047,-0.15038 -1.71979,-0.0415 -0.77698,0.16612 -1.02641,0.40925 -1.54957,1.51047 -0.34293,0.72186 -1.05731,1.8143 -1.5875,2.42765 -2.297,2.65726 -2.53184,3.01698 -2.13404,3.26892 0.20698,0.13108 0.79304,0.30507 1.30236,0.38663 0.50932,0.0816 1.46182,0.37602 2.11667,0.65434 0.83647,0.35551 1.58413,0.47065 2.51354,0.38706 0.7276,-0.0654 1.7141,-0.12001 2.19221,-0.12128 z m 41.48216,-0.38471 c 0.71764,-0.21033 2.12137,-0.52245 3.11941,-0.69361 l 1.81461,-0.3112 -0.16749,-1.0474 c -0.13224,-0.82699 -0.52626,-1.40617 -1.87238,-2.7523 -1.32228,-1.32228 -1.79606,-2.01185 -2.11106,-3.07258 -0.22339,-0.75223 -0.54193,-1.4516 -0.70787,-1.55415 -0.4017,-0.24827 -1.808,0.23793 -2.50336,0.86548 -0.30687,0.27693 -1.01125,0.62869 -1.5653,0.78167 -0.55405,0.15298 -1.3256,0.51343 -1.71456,0.80099 -0.79904,0.59076 -2.31369,0.99984 -3.73658,1.0092 -1.30893,0.009 -1.58492,0.40784 -1.22198,1.76762 0.31668,1.18643 0.79231,1.44526 3.3724,1.83517 1.46534,0.22145 1.78824,0.46659 2.3003,1.74635 l 0.40299,1.00717 h 1.64304 c 0.90367,0 2.23019,-0.17208 2.94783,-0.38241 z m -55.94211,-6.85099 c -0.19957,-0.24046 -0.20885,-0.62842 -0.03,-1.25211 0.14255,-0.49704 0.25918,-1.46301 0.25918,-2.14661 0,-0.68359 0.11906,-1.31648 0.26458,-1.40642 0.1693,-0.10463 0.26458,0.7417 0.26458,2.35002 0,2.48817 -0.19825,3.13 -0.75836,2.45512 z m 71.85269,-3.0192 c -0.17434,-3.46431 -0.44147,-4.6355 -1.25475,-5.5012 -0.46647,-0.49654 -0.57611,-1.0405 -0.70601,-3.50294 l -0.15379,-2.91512 0.82183,-0.42499 c 0.80225,-0.41486 1.04114,-0.91508 1.49661,-3.13388 0.0822,-0.40018 0.32295,-0.7276 0.5351,-0.7276 1.115,0 1.68986,-3.53397 1.24812,-7.67292 -0.2382,-2.23193 -0.19008,-2.91041 0.20643,-2.91041 0.11344,0 0.25159,1.65106 0.30701,3.66903 0.10487,3.81849 0.26342,4.36898 1.377,4.78092 0.28052,0.10377 0.64184,0.59162 0.80293,1.08411 0.20021,0.61206 0.50049,0.94408 0.94885,1.04913 0.88637,0.20768 1.10788,1.52735 1.00882,6.01026 -0.087,3.936 -0.15914,4.10054 -2.12942,4.85556 -1.29257,0.49532 -2.04782,1.66808 -2.04848,3.18091 -2.6e-4,0.75808 -0.13495,1.01102 -0.66718,1.25352 -0.80739,0.36787 -1.18531,1.27372 -1.18531,2.84107 0,0.64537 -0.10155,1.1734 -0.22566,1.1734 -0.1241,0 -0.29605,-1.39898 -0.3821,-3.10885 z m -77.70891,1.72915 c 0,-0.22527 -0.41672,-0.72742 -0.92604,-1.1159 -0.77815,-0.59352 -0.92604,-0.87045 -0.92604,-1.73397 0,-1.40006 -0.41251,-2.38501 -0.99887,-2.38501 -0.62972,0 -1.1178,-0.50325 -1.1178,-1.15252 0,-0.28464 -0.47625,-0.98437 -1.05833,-1.55495 l -1.05834,-1.03743 v -4.3377 -4.33769 l 0.8599,-0.22124 c 0.70199,-0.18061 0.9049,-0.40063 1.105,-1.19819 0.16903,-0.67374 0.39295,-0.97695 0.7215,-0.97695 0.95041,0 1.36988,-1.19662 1.49646,-4.26899 0.0656,-1.5918 0.192,-2.82143 0.28091,-2.73252 0.0889,0.0889 0.12449,1.67086 0.0791,3.51544 -0.0975,3.96019 0.21569,5.62388 1.2889,6.8462 0.47972,0.54637 0.78286,1.18661 0.78286,1.65345 0,0.52352 0.31036,1.0793 0.99218,1.77673 l 0.99219,1.0149 v 3.49761 3.4976 l -0.86035,0.73573 c -0.75779,0.64802 -0.89257,0.97039 -1.13065,2.70423 -0.25063,1.8252 -0.52254,2.76767 -0.52254,1.81117 z m 71.76347,-7.35155 c 0,-0.50932 0.0545,-0.71768 0.121,-0.46302 0.0665,0.25466 0.0665,0.67138 0,0.92604 -0.0666,0.25466 -0.121,0.0463 -0.121,-0.46302 z m -2.174,-9.72344 c 0.002,-2.29195 0.0915,-4.29819 0.19843,-4.4583 0.10692,-0.16012 0.45707,-0.42941 0.77813,-0.59843 0.59429,-0.31286 1.13188,-1.71865 1.13458,-2.96694 7.9e-4,-0.38417 0.29135,-0.9538 0.66591,-1.30568 0.84576,-0.79456 1.11887,-1.85358 1.34496,-5.21528 0.10004,-1.4875 0.26514,-2.65309 0.36689,-2.59021 0.36429,0.22515 0.55144,10.50102 0.2297,12.61226 -0.2908,1.90812 -0.35169,2.03443 -1.04783,2.17366 -0.59393,0.11879 -0.79554,0.35747 -1.02653,1.2153 -0.15809,0.58711 -0.40191,1.06748 -0.54182,1.06748 -0.67553,0 -1.29203,1.10766 -1.46438,2.63102 -0.33012,2.9179 -0.64215,1.66357 -0.63804,-2.56488 z"
         id="path11627"
         sodipodi:nodetypes="cssscsssssssssssssssssssssssssssssssssssssssssscssssssssssssssssssssssscsssssscsssssssssssssssssssssssscsssssssssssssscsssssssssssssssssssscsssssssscccsssssssscssssssssssssssscccssssssssssscsssscsssssscsssscssssssssscsscsssscsssssssssscsssscccccssssssssssssssssscssssssscssscsssssssssssscssssssssssscsssssssssscccssssscssscccsssssscscsssssssssssc" /></g></g></svg>
