<?xml version="1.0" encoding="UTF-8" standalone="no"?>
<!-- Created with Inkscape (http://www.inkscape.org/) -->

<svg
   version="1.1"
   id="svg3776"
   width="90.279984"
   height="88.604645"
   viewBox="0 0 90.279984 88.604645"
   sodipodi:docname="1342608_179886-OWY32G-746.eps"
   xmlns:inkscape="http://www.inkscape.org/namespaces/inkscape"
   xmlns:sodipodi="http://sodipodi.sourceforge.net/DTD/sodipodi-0.dtd"
   xmlns="http://www.w3.org/2000/svg"
   xmlns:svg="http://www.w3.org/2000/svg">
  <defs
     id="defs3780" />
  <sodipodi:namedview
     id="namedview3778"
     pagecolor="#ffffff"
     bordercolor="#000000"
     borderopacity="0.25"
     inkscape:showpageshadow="2"
     inkscape:pageopacity="0.0"
     inkscape:pagecheckerboard="0"
     inkscape:deskcolor="#d1d1d1"
     showgrid="false" />
  <g
     id="g3784"
     inkscape:groupmode="layer"
     inkscape:label="Page 1"
     transform="matrix(1.3333333,0,0,-1.3333333,-212.29066,187.09267)">
    <path
       d="m 199.08,91.2172 c -0.275,-0.1 -0.539,-0.2152 -0.793,-0.3442 -1.349,-0.6851 -2.85,-0.9488 -4.351,-0.7679 -0.283,0.0351 -0.571,0.0519 -0.863,0.0519 -0.292,0 -0.58,-0.0168 -0.863,-0.0519 -1.501,-0.1809 -3.002,0.0828 -4.351,0.7679 -0.254,0.129 -0.518,0.2442 -0.793,0.3442 -0.274,0.0988 -0.551,0.1808 -0.828,0.2457 -1.473,0.343 -2.793,1.1051 -3.827,2.209 -0.194,0.2082 -0.403,0.4062 -0.627,0.5941 -0.224,0.1879 -0.456,0.359 -0.694,0.5149 -1.267,0.8261 -2.247,1.9929 -2.84,3.3851 -0.112,0.2621 -0.241,0.5199 -0.387,0.7731 -0.146,0.2531 -0.305,0.4929 -0.476,0.7211 -0.908,1.2098 -1.429,2.6418 -1.511,4.1518 -0.016,0.284 -0.048,0.571 -0.099,0.858 -0.051,0.288 -0.118,0.568 -0.201,0.841 -0.44,1.447 -0.44,2.971 0,4.418 0.083,0.273 0.15,0.553 0.201,0.841 0.051,0.287 0.083,0.574 0.099,0.858 0.082,1.511 0.603,2.943 1.511,4.152 0.171,0.228 0.33,0.469 0.476,0.721 0.146,0.253 0.275,0.512 0.387,0.774 0.593,1.391 1.573,2.558 2.84,3.384 0.238,0.156 0.47,0.327 0.694,0.515 0.224,0.188 0.433,0.386 0.627,0.594 1.034,1.105 2.354,1.867 3.827,2.21 0.277,0.064 0.554,0.146 0.828,0.246 0.275,0.1 0.539,0.215 0.793,0.344 1.349,0.684 2.85,0.949 4.351,0.767 0.283,-0.034 0.571,-0.052 0.863,-0.052 0.292,0 0.58,0.018 0.863,0.052 1.501,0.182 3.002,-0.083 4.351,-0.767 0.254,-0.129 0.518,-0.244 0.793,-0.344 0.274,-0.1 0.551,-0.182 0.828,-0.246 1.474,-0.343 2.793,-1.105 3.827,-2.21 0.194,-0.208 0.403,-0.406 0.627,-0.594 0.224,-0.188 0.456,-0.359 0.694,-0.515 1.268,-0.826 2.247,-1.993 2.84,-3.385 0.112,-0.261 0.241,-0.52 0.387,-0.773 0.146,-0.252 0.305,-0.493 0.476,-0.721 0.908,-1.209 1.429,-2.641 1.511,-4.152 0.016,-0.284 0.048,-0.571 0.099,-0.858 0.051,-0.288 0.118,-0.568 0.201,-0.841 0.44,-1.447 0.44,-2.971 0,-4.418 -0.083,-0.273 -0.15,-0.553 -0.201,-0.841 -0.051,-0.287 -0.083,-0.574 -0.099,-0.858 -0.082,-1.511 -0.603,-2.942 -1.511,-4.1518 -0.171,-0.2282 -0.33,-0.468 -0.476,-0.7211 -0.146,-0.2532 -0.275,-0.511 -0.387,-0.7731 -0.593,-1.3922 -1.572,-2.559 -2.84,-3.3851 -0.238,-0.1559 -0.47,-0.327 -0.694,-0.5149 -0.224,-0.1871 -0.433,-0.3859 -0.627,-0.5941 -1.034,-1.1039 -2.353,-1.866 -3.827,-2.209 -0.277,-0.0649 -0.554,-0.1469 -0.828,-0.2457 z m 25.573,22.0718 c -0.2,1.132 -0.653,2.155 -1.292,3.023 -0.874,1.188 -1.511,2.556 -1.551,4.031 -0.032,1.162 -0.344,2.333 -0.966,3.411 -0.575,0.996 -1.351,1.802 -2.248,2.399 -1.303,0.868 -2.31,2.067 -2.938,3.502 -0.432,0.986 -1.091,1.891 -1.972,2.63 -0.954,0.8 -2.053,1.311 -3.192,1.543 -1.446,0.296 -2.682,1.16 -3.7,2.228 -0.744,0.78 -1.672,1.404 -2.753,1.797 -1.081,0.394 -2.194,0.513 -3.264,0.393 -1.557,-0.173 -3.099,0.099 -4.502,0.794 -0.965,0.478 -2.052,0.747 -3.202,0.747 -1.15,0 -2.237,-0.269 -3.202,-0.747 -1.403,-0.695 -2.945,-0.967 -4.502,-0.794 -1.07,0.12 -2.183,0.001 -3.264,-0.393 -1.081,-0.393 -2.009,-1.017 -2.753,-1.797 -1.018,-1.068 -2.254,-1.932 -3.7,-2.228 -1.139,-0.232 -2.238,-0.743 -3.191,-1.543 -0.882,-0.739 -1.541,-1.644 -1.973,-2.63 -0.628,-1.435 -1.635,-2.634 -2.938,-3.502 -0.896,-0.597 -1.673,-1.403 -2.248,-2.399 -0.622,-1.078 -0.934,-2.249 -0.966,-3.411 -0.04,-1.475 -0.677,-2.843 -1.551,-4.031 -0.639,-0.868 -1.092,-1.891 -1.292,-3.023 -0.2,-1.133 -0.123,-2.25 0.18,-3.283 0.441,-1.503 0.441,-3.069 0,-4.572 -0.303,-1.033 -0.38,-2.149 -0.18,-3.282 0.2,-1.133 0.653,-2.1559 1.292,-3.0239 0.874,-1.1883 1.511,-2.5562 1.551,-4.0312 0.032,-1.1617 0.344,-2.3328 0.966,-3.411 0.575,-0.9961 1.352,-1.8019 2.248,-2.3988 1.303,-0.8672 2.31,-2.0672 2.938,-3.5019 0.432,-0.986 1.091,-1.8903 1.973,-2.6301 0.953,-0.8 2.052,-1.3102 3.191,-1.543 1.446,-0.2961 2.682,-1.1601 3.7,-2.2281 0.744,-0.7789 1.672,-1.4039 2.753,-1.7969 1.081,-0.3941 2.194,-0.5121 3.264,-0.393 1.557,0.1731 3.099,-0.0992 4.502,-0.7941 0.965,-0.4781 2.052,-0.7469 3.202,-0.7469 1.15,0 2.237,0.2688 3.202,0.7469 1.403,0.6949 2.945,0.9672 4.502,0.7941 1.07,-0.1191 2.183,-0.0011 3.264,0.393 1.081,0.393 2.009,1.018 2.753,1.7969 1.018,1.068 2.254,1.932 3.7,2.2281 1.139,0.2328 2.238,0.743 3.192,1.543 0.881,0.7398 1.54,1.6441 1.972,2.6301 0.628,1.4347 1.635,2.6347 2.938,3.5019 0.897,0.5969 1.673,1.4027 2.248,2.3988 0.622,1.0782 0.934,2.2493 0.966,3.411 0.04,1.475 0.677,2.8429 1.551,4.032 0.639,0.8672 1.092,1.8901 1.292,3.0231 0.2,1.133 0.123,2.249 -0.18,3.282 -0.44,1.503 -0.44,3.069 0,4.572 0.303,1.033 0.38,2.15 0.18,3.283"
       style="fill:#83a637;fill-opacity:1;fill-rule:nonzero;stroke:none;stroke-width:0.1"
       id="path3940"
       inkscape:export-filename="../Documentos/INGENIERÃA INFORMATICA/3er CURSO/1er CUATRI/interfaces/ep01_gr12/ej/images/memoria-planta.svg"
       inkscape:export-xdpi="96"
       inkscape:export-ydpi="96" />
    <path
       d="m 193.073,90.6922 c 0.314,0 0.624,-0.018 0.927,-0.0563 1.395,-0.1687 2.793,0.0782 4.045,0.7153 0.273,0.1379 0.557,0.2609 0.851,0.3687 h 0.001 c 0.295,0.1063 0.592,0.1942 0.889,0.2641 1.369,0.318 2.599,1.0289 3.558,2.0539 0.209,0.2223 0.434,0.4359 0.673,0.6383 0.242,0.2019 0.49,0.3859 0.746,0.5527 1.177,0.7672 2.091,1.8551 2.641,3.1473 0.12,0.2816 0.258,0.559 0.416,0.8308 0.155,0.27 0.327,0.5282 0.51,0.7739 0.845,1.1231 1.33,2.4581 1.406,3.8601 0.017,0.307 0.051,0.614 0.106,0.923 0.054,0.308 0.127,0.61 0.216,0.902 0.408,1.344 0.408,2.764 0,4.107 -0.089,0.294 -0.162,0.595 -0.216,0.905 -0.055,0.308 -0.089,0.615 -0.106,0.921 -0.076,1.402 -0.561,2.737 -1.405,3.86 -0.184,0.246 -0.356,0.504 -0.512,0.776 -0.157,0.27 -0.295,0.548 -0.415,0.83 -0.55,1.291 -1.464,2.379 -2.641,3.146 -0.255,0.167 -0.504,0.35 -0.746,0.553 -0.239,0.203 -0.464,0.416 -0.673,0.639 -0.959,1.025 -2.189,1.735 -3.557,2.053 -0.298,0.07 -0.595,0.158 -0.89,0.265 -0.295,0.107 -0.579,0.231 -0.851,0.369 -1.252,0.635 -2.652,0.879 -4.047,0.714 -0.605,-0.075 -1.246,-0.075 -1.854,0 -1.397,0.166 -2.792,-0.079 -4.043,-0.714 -0.274,-0.138 -0.557,-0.262 -0.852,-0.369 -0.297,-0.107 -0.592,-0.195 -0.89,-0.265 -1.368,-0.318 -2.598,-1.028 -3.558,-2.053 -0.209,-0.224 -0.433,-0.437 -0.674,-0.639 -0.241,-0.203 -0.49,-0.386 -0.747,-0.554 -1.175,-0.766 -2.088,-1.854 -2.639,-3.145 -0.12,-0.281 -0.258,-0.56 -0.415,-0.831 -0.157,-0.272 -0.329,-0.53 -0.512,-0.775 -0.843,-1.122 -1.329,-2.456 -1.405,-3.86 -0.016,-0.305 -0.051,-0.612 -0.106,-0.922 -0.055,-0.309 -0.127,-0.61 -0.216,-0.903 -0.408,-1.344 -0.408,-2.764 0,-4.108 0.089,-0.292 0.161,-0.594 0.216,-0.903 0.055,-0.309 0.09,-0.616 0.106,-0.923 0.076,-1.402 0.562,-2.737 1.405,-3.8591 0.183,-0.245 0.355,-0.5028 0.511,-0.7739 0.158,-0.2718 0.296,-0.55 0.416,-0.8308 0.551,-1.2922 1.464,-2.3801 2.64,-3.1473 0.256,-0.1668 0.505,-0.3508 0.745,-0.5519 0.242,-0.2032 0.466,-0.4161 0.675,-0.6391 0.96,-1.025 2.19,-1.7359 3.557,-2.0539 0.299,-0.0699 0.594,-0.1578 0.889,-0.2629 0.297,-0.109 0.58,-0.232 0.853,-0.3699 1.254,-0.6383 2.653,-0.8832 4.044,-0.7153 0.304,0.0383 0.614,0.0563 0.928,0.0563 z m 1.781,-1.177 c -0.327,0 -0.655,0.0188 -0.983,0.059 -0.524,0.0629 -1.072,0.0617 -1.596,0 -1.606,-0.1953 -3.216,0.0899 -4.658,0.8219 -0.234,0.1187 -0.48,0.225 -0.735,0.318 -0.252,0.0918 -0.508,0.1679 -0.766,0.2269 -1.574,0.3672 -2.99,1.184 -4.095,2.3649 -0.181,0.1921 -0.374,0.3761 -0.581,0.5511 -0.207,0.1719 -0.422,0.3309 -0.642,0.475 -1.355,0.884 -2.406,2.1371 -3.041,3.6239 -0.103,0.2429 -0.222,0.4812 -0.357,0.716 -0.135,0.234 -0.283,0.4562 -0.441,0.6672 -0.97,1.2919 -1.53,2.8289 -1.617,4.4439 -0.014,0.263 -0.045,0.529 -0.092,0.794 -0.047,0.267 -0.109,0.527 -0.186,0.778 -0.47,1.547 -0.47,3.183 0,4.73 0.077,0.251 0.139,0.511 0.186,0.778 0.047,0.266 0.078,0.531 0.091,0.793 0.088,1.617 0.648,3.153 1.618,4.445 0.158,0.211 0.306,0.434 0.441,0.668 0.135,0.234 0.254,0.472 0.357,0.716 0.635,1.487 1.686,2.74 3.041,3.623 0.221,0.143 0.435,0.302 0.642,0.475 0.207,0.175 0.4,0.359 0.581,0.551 1.105,1.181 2.521,1.998 4.096,2.365 0.257,0.06 0.513,0.135 0.767,0.228 0.253,0.092 0.499,0.199 0.734,0.318 1.439,0.73 3.05,1.017 4.656,0.821 0.525,-0.063 1.073,-0.064 1.597,0 1.607,0.196 3.218,-0.091 4.659,-0.821 0.234,-0.119 0.479,-0.226 0.734,-0.319 0.252,-0.092 0.509,-0.167 0.766,-0.227 1.574,-0.367 2.991,-1.184 4.096,-2.365 0.18,-0.193 0.373,-0.377 0.581,-0.551 0.206,-0.173 0.42,-0.332 0.641,-0.475 1.355,-0.883 2.406,-2.136 3.041,-3.623 0.103,-0.243 0.222,-0.482 0.357,-0.716 0.136,-0.235 0.283,-0.458 0.441,-0.668 0.971,-1.293 1.53,-2.829 1.617,-4.443 0.014,-0.263 0.045,-0.528 0.092,-0.794 0.047,-0.269 0.11,-0.528 0.186,-0.78 0.47,-1.546 0.47,-3.182 0,-4.729 -0.076,-0.251 -0.139,-0.511 -0.186,-0.777 -0.047,-0.267 -0.078,-0.533 -0.092,-0.795 -0.087,-1.615 -0.646,-3.151 -1.618,-4.4439 -0.157,-0.2102 -0.304,-0.4321 -0.439,-0.6672 -0.136,-0.2348 -0.255,-0.4739 -0.358,-0.716 -0.635,-1.4868 -1.686,-2.7399 -3.04,-3.6239 -0.221,-0.1441 -0.436,-0.3031 -0.644,-0.4761 -0.206,-0.1727 -0.399,-0.3559 -0.579,-0.55 -1.105,-1.1809 -2.522,-1.9977 -4.097,-2.3649 -0.256,-0.059 -0.513,-0.1351 -0.766,-0.2269 -0.255,-0.093 -0.499,-0.1993 -0.734,-0.318 -1.148,-0.582 -2.402,-0.8809 -3.675,-0.8809 z m -8.581,-11.7363 c 1.326,0 2.637,-0.3059 3.835,-0.8988 1.856,-0.918 4.075,-0.9172 5.929,0 1.487,0.7371 3.146,1.0281 4.799,0.8449 1.026,-0.1129 2.045,0.0082 3.021,0.3641 0.976,0.355 1.834,0.9148 2.55,1.6648 1.233,1.293 2.573,2.0941 3.98,2.3832 1.084,0.2211 2.105,0.7141 2.954,1.4277 0.797,0.6672 1.411,1.4864 1.827,2.4364 0.666,1.5207 1.748,2.8109 3.131,3.732 0.861,0.5738 1.561,1.3207 2.082,2.2207 0.555,0.9609 0.864,2.0531 0.893,3.1582 0.04,1.4371 0.597,2.8949 1.657,4.334 0.612,0.8319 1.015,1.7729 1.195,2.7989 0.181,1.025 0.125,2.047 -0.166,3.039 -0.468,1.593 -0.468,3.279 0,4.873 0.291,0.991 0.347,2.014 0.166,3.039 -0.18,1.025 -0.583,1.967 -1.195,2.799 -1.06,1.439 -1.617,2.896 -1.657,4.333 -0.029,1.105 -0.338,2.197 -0.893,3.159 -0.521,0.899 -1.221,1.647 -2.082,2.22 -1.383,0.921 -2.465,2.212 -3.131,3.733 -0.416,0.949 -1.03,1.768 -1.827,2.435 -0.849,0.714 -1.87,1.207 -2.954,1.429 -1.407,0.288 -2.747,1.09 -3.98,2.384 -0.716,0.748 -1.574,1.308 -2.55,1.662 -0.977,0.356 -1.997,0.48 -3.021,0.364 -1.651,-0.185 -3.311,0.11 -4.799,0.847 -1.853,0.916 -4.071,0.917 -5.929,0 -1.488,-0.736 -3.145,-1.03 -4.797,-0.847 -1.027,0.115 -2.046,-0.008 -3.022,-0.364 -0.977,-0.355 -1.835,-0.914 -2.55,-1.663 -1.233,-1.293 -2.572,-2.095 -3.98,-2.383 -1.083,-0.222 -2.105,-0.715 -2.955,-1.429 -0.797,-0.669 -1.411,-1.488 -1.825,-2.435 -0.667,-1.521 -1.75,-2.812 -3.133,-3.733 -0.861,-0.573 -1.561,-1.321 -2.081,-2.22 -0.555,-0.963 -0.864,-2.055 -0.894,-3.159 -0.038,-1.436 -0.596,-2.893 -1.655,-4.333 -0.613,-0.833 -1.015,-1.775 -1.196,-2.799 -0.181,-1.025 -0.125,-2.048 0.166,-3.039 0.468,-1.594 0.468,-3.28 0,-4.873 -0.291,-0.992 -0.347,-2.014 -0.166,-3.039 0.181,-1.025 0.583,-1.966 1.196,-2.8001 1.059,-1.439 1.617,-2.8969 1.655,-4.3328 0.03,-1.1039 0.339,-2.1961 0.894,-3.1582 0.52,-0.9 1.22,-1.6469 2.081,-2.2207 1.383,-0.9211 2.466,-2.2113 3.133,-3.732 0.414,-0.9481 1.028,-1.7672 1.825,-2.4364 0.85,-0.7136 1.872,-1.2066 2.955,-1.4277 1.408,-0.2891 2.747,-1.0902 3.98,-2.384 0.715,-0.748 1.573,-1.3082 2.55,-1.664 0.976,-0.3551 1.993,-0.477 3.022,-0.3641 0.32,0.0359 0.642,0.0539 0.962,0.0539 z m 6.8,-2.6609 c -1.205,0 -2.363,0.2699 -3.439,0.8031 -1.305,0.6461 -2.756,0.9008 -4.205,0.7398 -1.194,-0.13 -2.374,0.011 -3.506,0.4231 -1.134,0.4121 -2.129,1.0621 -2.958,1.9301 -1.08,1.1328 -2.23,1.83 -3.421,2.073 -1.256,0.257 -2.442,0.8309 -3.427,1.659 -0.925,0.775 -1.637,1.725 -2.119,2.8258 -0.584,1.332 -1.533,2.464 -2.745,3.2711 -0.999,0.664 -1.811,1.532 -2.415,2.5761 -0.643,1.1161 -1.002,2.3829 -1.037,3.6641 -0.032,1.2129 -0.519,2.468 -1.447,3.727 -0.712,0.9679 -1.179,2.0608 -1.388,3.2488 -0.209,1.189 -0.144,2.375 0.193,3.526 0.41,1.397 0.41,2.873 0,4.271 -0.337,1.15 -0.402,2.337 -0.193,3.526 0.209,1.187 0.676,2.28 1.388,3.247 0.928,1.26 1.415,2.515 1.447,3.729 0.035,1.281 0.394,2.547 1.037,3.664 0.604,1.044 1.416,1.911 2.415,2.576 1.212,0.807 2.161,1.938 2.745,3.272 0.482,1.099 1.194,2.049 2.119,2.825 0.985,0.827 2.171,1.401 3.427,1.658 1.191,0.244 2.341,0.941 3.421,2.073 0.83,0.869 1.825,1.518 2.958,1.93 1.132,0.412 2.312,0.556 3.506,0.422 1.446,-0.162 2.9,0.096 4.205,0.742 2.154,1.067 4.728,1.065 6.878,0 1.304,-0.645 2.751,-0.905 4.206,-0.742 1.188,0.135 2.372,-0.008 3.505,-0.422 1.132,-0.411 2.127,-1.061 2.958,-1.929 1.08,-1.133 2.231,-1.831 3.421,-2.074 1.256,-0.257 2.442,-0.831 3.427,-1.658 0.923,-0.774 1.636,-1.724 2.119,-2.825 0.584,-1.334 1.533,-2.465 2.745,-3.272 0.999,-0.665 1.812,-1.532 2.414,-2.576 0.645,-1.116 1.003,-2.382 1.037,-3.664 0.034,-1.215 0.521,-2.469 1.448,-3.728 0.712,-0.967 1.179,-2.06 1.388,-3.248 0.21,-1.189 0.144,-2.376 -0.194,-3.526 -0.409,-1.398 -0.409,-2.874 0,-4.271 0.338,-1.151 0.404,-2.337 0.194,-3.526 -0.209,-1.189 -0.676,-2.282 -1.388,-3.2488 -0.927,-1.259 -1.414,-2.5133 -1.448,-3.727 -0.034,-1.282 -0.392,-2.5492 -1.037,-3.6641 -0.602,-1.0441 -1.415,-1.9121 -2.414,-2.5761 -1.212,-0.8078 -2.161,-1.9391 -2.745,-3.2711 -0.483,-1.1028 -1.196,-2.0528 -2.119,-2.8258 -0.985,-0.8281 -2.171,-1.402 -3.427,-1.659 -1.19,-0.2422 -2.341,-0.9402 -3.421,-2.0719 -0.83,-0.8703 -1.825,-1.5191 -2.958,-1.9312 -1.131,-0.4121 -2.311,-0.5539 -3.505,-0.4231 -1.444,0.161 -2.9,-0.0949 -4.206,-0.7398 -1.076,-0.5332 -2.233,-0.8031 -3.439,-0.8031"
       style="fill:#562630;fill-opacity:1;fill-rule:nonzero;stroke:none;stroke-width:0.1"
       id="path3942" />
    <path
       d="m 194.985,91.0602 h -3.824 c -0.778,0 -1.408,-0.5602 -1.408,-1.2512 V 75.6512 c 0,-0.6903 0.63,-1.25 1.408,-1.25 h 3.824 c 0.778,0 1.408,0.5597 1.408,1.25 V 89.809 c 0,0.691 -0.63,1.2512 -1.408,1.2512"
       style="fill:#bf3636;fill-opacity:1;fill-rule:nonzero;stroke:none;stroke-width:0.1"
       id="path3944" />
    <path
       d="m 191.161,90.525 c -0.481,0 -0.873,-0.3211 -0.873,-0.716 V 75.652 c 0,-0.395 0.392,-0.7161 0.873,-0.7161 h 3.824 c 0.481,0 0.873,0.3211 0.873,0.7161 v 14.157 c 0,0.3949 -0.392,0.716 -0.873,0.716 z m 3.824,-16.659 h -3.824 c -1.071,0 -1.943,0.8012 -1.943,1.786 v 14.157 c 0,0.9851 0.872,1.7859 1.943,1.7859 h 3.824 c 1.072,0 1.944,-0.8008 1.944,-1.7859 V 75.652 c 0,-0.9848 -0.872,-1.786 -1.944,-1.786"
       style="fill:#562630;fill-opacity:1;fill-rule:nonzero;stroke:none;stroke-width:0.1"
       id="path3946" />
    <path
       d="m 226.393,105.808 v 3.824 c 0,0.778 -0.56,1.408 -1.251,1.408 h -14.158 c -0.691,0 -1.251,-0.63 -1.251,-1.408 v -3.824 c 0,-0.778 0.56,-1.408 1.251,-1.408 h 14.158 c 0.691,0 1.251,0.63 1.251,1.408"
       style="fill:#bf3636;fill-opacity:1;fill-rule:nonzero;stroke:none;stroke-width:0.1"
       id="path3948" />
    <path
       d="m 210.984,110.506 c -0.395,0 -0.716,-0.392 -0.716,-0.874 v -3.824 c 0,-0.481 0.321,-0.873 0.716,-0.873 h 14.158 c 0.395,0 0.716,0.392 0.716,0.873 v 3.824 c 0,0.482 -0.321,0.874 -0.716,0.874 z m 14.158,-6.642 h -14.158 c -0.985,0 -1.786,0.872 -1.786,1.944 v 3.824 c 0,1.072 0.801,1.944 1.786,1.944 h 14.158 c 0.985,0 1.786,-0.872 1.786,-1.944 v -3.824 c 0,-1.072 -0.801,-1.944 -1.786,-1.944"
       style="fill:#562630;fill-opacity:1;fill-rule:nonzero;stroke:none;stroke-width:0.1"
       id="path3950" />
    <path
       d="m 176.413,105.808 v 3.824 c 0,0.778 -0.56,1.408 -1.251,1.408 h -14.158 c -0.691,0 -1.251,-0.63 -1.251,-1.408 v -3.824 c 0,-0.778 0.56,-1.408 1.251,-1.408 h 14.158 c 0.691,0 1.251,0.63 1.251,1.408"
       style="fill:#bf3636;fill-opacity:1;fill-rule:nonzero;stroke:none;stroke-width:0.1"
       id="path3952" />
    <path
       d="m 161.004,110.506 c -0.394,0 -0.715,-0.392 -0.715,-0.874 v -3.824 c 0,-0.481 0.321,-0.873 0.715,-0.873 h 14.158 c 0.395,0 0.716,0.392 0.716,0.873 v 3.824 c 0,0.482 -0.321,0.874 -0.716,0.874 z m 14.158,-6.642 h -14.158 c -0.985,0 -1.786,0.872 -1.786,1.944 v 3.824 c 0,1.072 0.801,1.944 1.786,1.944 h 14.158 c 0.985,0 1.787,-0.872 1.787,-1.944 v -3.824 c 0,-1.072 -0.802,-1.944 -1.787,-1.944"
       style="fill:#562630;fill-opacity:1;fill-rule:nonzero;stroke:none;stroke-width:0.1"
       id="path3954" />
    <path
       d="m 217.985,129.929 -2.703,2.704 c -0.55,0.55 -1.392,0.599 -1.881,0.111 L 203.39,122.733 c -0.488,-0.489 -0.439,-1.331 0.111,-1.881 l 2.704,-2.704 c 0.55,-0.549 1.392,-0.599 1.881,-0.111 l 10.011,10.011 c 0.488,0.489 0.439,1.331 -0.112,1.881"
       style="fill:#bf3636;fill-opacity:1;fill-rule:nonzero;stroke:none;stroke-width:0.1"
       id="path3956" />
    <path
       d="m 214.24,132.546 c -0.175,0 -0.34,-0.059 -0.461,-0.181 l -10.011,-10.01 c -0.126,-0.127 -0.19,-0.308 -0.178,-0.507 0.013,-0.225 0.117,-0.444 0.29,-0.618 l 2.704,-2.703 c 0.185,-0.185 0.426,-0.291 0.663,-0.291 v 0 c 0.129,0 0.312,0.031 0.46,0.18 l 10.011,10.011 c 0.148,0.148 0.18,0.331 0.18,0.459 0,0.238 -0.106,0.479 -0.291,0.664 l -2.703,2.705 c -0.193,0.192 -0.437,0.291 -0.664,0.291 z m -6.993,-15.38 c -0.518,0 -1.036,0.221 -1.42,0.604 l -2.703,2.704 c -0.758,0.757 -0.808,1.941 -0.112,2.637 l 10.011,10.011 c 0.696,0.697 1.879,0.646 2.637,-0.111 l 2.704,-2.704 c 0.384,-0.385 0.604,-0.902 0.604,-1.422 0,-0.467 -0.176,-0.898 -0.493,-1.215 l -10.011,-10.011 c -0.317,-0.317 -0.748,-0.493 -1.215,-0.493 h -0.002"
       style="fill:#562630;fill-opacity:1;fill-rule:nonzero;stroke:none;stroke-width:0.1"
       id="path3958" />
    <path
       d="m 182.645,94.5879 -2.704,2.7043 c -0.55,0.55 -1.392,0.6 -1.881,0.1109 L 168.049,87.3922 c -0.488,-0.4891 -0.438,-1.3313 0.112,-1.8813 l 2.703,-2.7027 c 0.55,-0.55 1.392,-0.6 1.881,-0.1121 l 10.011,10.0109 c 0.488,0.4891 0.439,1.3309 -0.111,1.8809"
       style="fill:#bf3636;fill-opacity:1;fill-rule:nonzero;stroke:none;stroke-width:0.1"
       id="path3960" />
    <path
       d="m 178.899,97.2039 c -0.182,0 -0.343,-0.0617 -0.46,-0.1789 L 168.428,87.0141 c -0.279,-0.2789 -0.229,-0.784 0.111,-1.125 l 2.703,-2.7032 c 0.174,-0.1738 0.393,-0.2757 0.617,-0.2898 0.206,-0.0121 0.38,0.0519 0.507,0.1789 l 10.012,10.0109 c 0.279,0.2789 0.228,0.7832 -0.112,1.1243 l -2.703,2.7039 c -0.174,0.173 -0.393,0.2757 -0.617,0.289 -0.016,8e-4 -0.032,8e-4 -0.047,8e-4 z m -6.99,-15.3789 c -0.037,0 -0.075,0.0012 -0.113,0.0031 -0.486,0.0301 -0.951,0.243 -1.31,0.6008 l -2.704,2.7043 c -0.757,0.7578 -0.807,1.941 -0.111,2.6367 l 10.011,10.011 c 0.345,0.3472 0.815,0.5152 1.327,0.4902 0.486,-0.0289 0.951,-0.2422 1.31,-0.6012 l 2.704,-2.7027 c 0.757,-0.7582 0.807,-1.941 0.111,-2.6383 L 173.123,82.318 c -0.32,-0.3211 -0.748,-0.493 -1.214,-0.493"
       style="fill:#562630;fill-opacity:1;fill-rule:nonzero;stroke:none;stroke-width:0.1"
       id="path3962" />
    <path
       d="m 215.282,82.8082 2.703,2.7027 c 0.55,0.55 0.6,1.393 0.112,1.8813 l -10.011,10.0109 c -0.489,0.4891 -1.331,0.4391 -1.881,-0.1109 l -2.704,-2.7043 c -0.55,-0.55 -0.599,-1.3918 -0.111,-1.8809 l 10.011,-10.0109 c 0.489,-0.4879 1.331,-0.4379 1.881,0.1121"
       style="fill:#bf3636;fill-opacity:1;fill-rule:nonzero;stroke:none;stroke-width:0.1"
       id="path3964" />
    <path
       d="m 207.247,97.2039 c -0.237,0 -0.478,-0.1051 -0.663,-0.2898 l -2.705,-2.7039 c -0.339,-0.3411 -0.389,-0.8454 -0.111,-1.1243 L 213.779,83.075 c 0.278,-0.2781 0.783,-0.2309 1.125,0.1109 l 2.703,2.7032 c 0.34,0.341 0.39,0.8461 0.111,1.125 L 207.707,97.025 c -0.148,0.148 -0.331,0.1789 -0.46,0.1789 z m 6.992,-15.3769 c -0.45,0 -0.887,0.1621 -1.216,0.491 l -10.011,10.0109 c -0.696,0.6961 -0.647,1.8793 0.111,2.6383 l 2.704,2.7027 c 0.384,0.384 0.902,0.6039 1.42,0.6039 h 0.002 c 0.467,0 0.898,-0.175 1.215,-0.4929 l 10.011,-10.011 c 0.696,-0.6957 0.647,-1.8789 -0.111,-2.6367 l -2.704,-2.7043 c -0.4,-0.3988 -0.918,-0.6019 -1.421,-0.6019"
       style="fill:#562630;fill-opacity:1;fill-rule:nonzero;stroke:none;stroke-width:0.1"
       id="path3966" />
    <path
       d="m 179.941,118.148 2.704,2.704 c 0.55,0.55 0.599,1.392 0.111,1.881 l -10.011,10.011 c -0.489,0.489 -1.331,0.439 -1.881,-0.111 l -2.703,-2.704 c -0.55,-0.55 -0.6,-1.392 -0.112,-1.881 l 10.011,-10.011 c 0.489,-0.488 1.331,-0.438 1.881,0.111"
       style="fill:#bf3636;fill-opacity:1;fill-rule:nonzero;stroke:none;stroke-width:0.1"
       id="path3968" />
    <path
       d="m 171.907,132.545 c -0.016,0 -0.032,0 -0.048,-10e-4 -0.224,-0.014 -0.443,-0.116 -0.617,-0.289 l -2.703,-2.705 c -0.185,-0.185 -0.291,-0.426 -0.291,-0.664 0,-0.127 0.031,-0.311 0.18,-0.459 l 10.011,-10.011 c 0.126,-0.128 0.304,-0.191 0.507,-0.179 0.224,0.014 0.443,0.116 0.617,0.29 l 2.703,2.703 c 0.34,0.341 0.391,0.846 0.112,1.125 l -10.012,10.01 c -0.117,0.118 -0.278,0.18 -0.459,0.18 z m 6.989,-15.379 c -0.466,0 -0.894,0.172 -1.214,0.493 l -10.011,10.011 c -0.318,0.318 -0.493,0.749 -0.493,1.216 0,0.52 0.22,1.037 0.604,1.421 l 2.704,2.704 c 0.359,0.359 0.824,0.572 1.31,0.601 0.515,0.025 0.982,-0.144 1.327,-0.49 l 10.011,-10.011 c 0.696,-0.697 0.646,-1.88 -0.111,-2.637 l -2.704,-2.704 c -0.359,-0.358 -0.824,-0.572 -1.31,-0.601 -0.038,-0.002 -0.075,-0.003 -0.113,-0.003"
       style="fill:#562630;fill-opacity:1;fill-rule:nonzero;stroke:none;stroke-width:0.1"
       id="path3970" />
    <path
       d="m 170.482,114.599 c -1.529,0 -2.769,1.239 -2.769,2.769 0,1.529 1.24,2.769 2.769,2.769 1.529,0 2.769,-1.24 2.769,-2.769 0,-1.53 -1.24,-2.769 -2.769,-2.769"
       style="fill:#778782;fill-opacity:1;fill-rule:nonzero;stroke:none;stroke-width:0.1"
       id="path3972" />
    <path
       d="m 170.482,119.601 c -1.231,0 -2.234,-1.002 -2.234,-2.233 0,-1.232 1.003,-2.235 2.234,-2.235 1.232,0 2.234,1.003 2.234,2.235 0,1.231 -1.002,2.233 -2.234,2.233 z m 0,-5.538 c -1.822,0 -3.304,1.482 -3.304,3.305 0,1.821 1.482,3.303 3.304,3.303 1.822,0 3.304,-1.482 3.304,-3.303 0,-1.823 -1.482,-3.305 -3.304,-3.305"
       style="fill:#562630;fill-opacity:1;fill-rule:nonzero;stroke:none;stroke-width:0.1"
       id="path3974" />
    <path
       d="m 170.036,95.693 c -1.529,0 -2.769,1.239 -2.769,2.7691 0,1.5289 1.24,2.7689 2.769,2.7689 1.529,0 2.769,-1.24 2.769,-2.7689 0,-1.5301 -1.24,-2.7691 -2.769,-2.7691"
       style="fill:#d69c42;fill-opacity:1;fill-rule:nonzero;stroke:none;stroke-width:0.1"
       id="path3976" />
    <path
       d="m 170.036,100.696 c -1.232,0 -2.234,-1.0019 -2.234,-2.2351 0,-1.2308 1.002,-2.2328 2.234,-2.2328 1.232,0 2.234,1.002 2.234,2.2328 0,1.2332 -1.002,2.2351 -2.234,2.2351 z m 0,-5.5382 c -1.822,0 -3.304,1.482 -3.304,3.3031 0,1.8231 1.482,3.3051 3.304,3.3051 1.822,0 3.304,-1.482 3.304,-3.3051 0,-1.8211 -1.482,-3.3031 -3.304,-3.3031"
       style="fill:#562630;fill-opacity:1;fill-rule:nonzero;stroke:none;stroke-width:0.1"
       id="path3978" />
    <path
       d="m 183.948,81.9629 c -1.529,0 -2.769,1.2391 -2.769,2.7691 0,1.5289 1.24,2.7692 2.769,2.7692 1.529,0 2.769,-1.2403 2.769,-2.7692 0,-1.53 -1.24,-2.7691 -2.769,-2.7691"
       style="fill:#eff6f4;fill-opacity:1;fill-rule:nonzero;stroke:none;stroke-width:0.1"
       id="path3980" />
    <path
       d="m 183.948,86.966 c -1.232,0 -2.234,-1.0019 -2.234,-2.2351 0,-1.2309 1.002,-2.2329 2.234,-2.2329 1.232,0 2.234,1.002 2.234,2.2329 0,1.2332 -1.002,2.2351 -2.234,2.2351 z m 0,-5.5379 c -1.822,0 -3.304,1.4821 -3.304,3.3028 0,1.823 1.482,3.305 3.304,3.305 1.822,0 3.304,-1.482 3.304,-3.305 0,-1.8207 -1.482,-3.3028 -3.304,-3.3028"
       style="fill:#562630;fill-opacity:1;fill-rule:nonzero;stroke:none;stroke-width:0.1"
       id="path3982" />
    <path
       d="m 202.384,82.7301 c -1.53,0 -2.769,1.2398 -2.769,2.7687 0,1.5301 1.239,2.7692 2.769,2.7692 1.529,0 2.769,-1.2391 2.769,-2.7692 0,-1.5289 -1.24,-2.7687 -2.769,-2.7687"
       style="fill:#778782;fill-opacity:1;fill-rule:nonzero;stroke:none;stroke-width:0.1"
       id="path3984" />
    <path
       d="m 202.384,87.7332 c -1.232,0 -2.235,-1.0023 -2.235,-2.2332 0,-1.2328 1.003,-2.2348 2.235,-2.2348 1.231,0 2.233,1.002 2.233,2.2348 0,1.2309 -1.002,2.2332 -2.233,2.2332 z m 0,-5.5383 c -1.823,0 -3.305,1.4821 -3.305,3.3051 0,1.8211 1.482,3.3031 3.305,3.3031 1.821,0 3.303,-1.482 3.303,-3.3031 0,-1.823 -1.482,-3.3051 -3.303,-3.3051"
       style="fill:#562630;fill-opacity:1;fill-rule:nonzero;stroke:none;stroke-width:0.1"
       id="path3986" />
    <path
       d="m 216.11,95.693 c -1.529,0 -2.769,1.239 -2.769,2.7691 0,1.5289 1.24,2.7689 2.769,2.7689 1.529,0 2.769,-1.24 2.769,-2.7689 0,-1.5301 -1.24,-2.7691 -2.769,-2.7691"
       style="fill:#d69c42;fill-opacity:1;fill-rule:nonzero;stroke:none;stroke-width:0.1"
       id="path3988" />
    <path
       d="m 216.11,100.696 c -1.231,0 -2.234,-1.0019 -2.234,-2.2351 0,-1.2308 1.003,-2.2328 2.234,-2.2328 1.232,0 2.234,1.002 2.234,2.2328 0,1.2332 -1.002,2.2351 -2.234,2.2351 z m 0,-5.5382 c -1.822,0 -3.304,1.482 -3.304,3.3031 0,1.8231 1.482,3.3051 3.304,3.3051 1.822,0 3.304,-1.482 3.304,-3.3051 0,-1.8211 -1.482,-3.3031 -3.304,-3.3031"
       style="fill:#562630;fill-opacity:1;fill-rule:nonzero;stroke:none;stroke-width:0.1"
       id="path3990" />
    <path
       d="m 216.467,114.932 c -1.53,0 -2.769,1.24 -2.769,2.769 0,1.529 1.239,2.769 2.769,2.769 1.529,0 2.768,-1.24 2.768,-2.769 0,-1.529 -1.239,-2.769 -2.768,-2.769"
       style="fill:#eff6f4;fill-opacity:1;fill-rule:nonzero;stroke:none;stroke-width:0.1"
       id="path3992" />
    <path
       d="m 216.467,119.935 c -1.232,0 -2.234,-1.002 -2.234,-2.234 0,-1.232 1.002,-2.234 2.234,-2.234 1.231,0 2.233,1.002 2.233,2.234 0,1.232 -1.002,2.234 -2.233,2.234 z m 0,-5.538 c -1.822,0 -3.304,1.482 -3.304,3.304 0,1.823 1.482,3.305 3.304,3.305 1.822,0 3.303,-1.482 3.303,-3.305 0,-1.822 -1.481,-3.304 -3.303,-3.304"
       style="fill:#562630;fill-opacity:1;fill-rule:nonzero;stroke:none;stroke-width:0.1"
       id="path3994" />
    <path
       d="m 196.533,112.665 c 0,-1.911 -1.549,-3.46 -3.46,-3.46 -1.911,0 -3.46,1.549 -3.46,3.46 0,1.911 1.549,3.46 3.46,3.46 1.911,0 3.46,-1.549 3.46,-3.46"
       style="fill:#d69c42;fill-opacity:1;fill-rule:nonzero;stroke:none;stroke-width:0.1"
       id="path3996" />
    <path
       d="m 193.073,115.59 c -1.612,0 -2.925,-1.313 -2.925,-2.925 0,-1.613 1.313,-2.925 2.925,-2.925 1.613,0 2.924,1.312 2.924,2.925 0,1.612 -1.311,2.925 -2.924,2.925 z m 0,-6.92 c -2.203,0 -3.995,1.792 -3.995,3.995 0,2.203 1.792,3.995 3.995,3.995 2.202,0 3.995,-1.792 3.995,-3.995 0,-2.203 -1.793,-3.995 -3.995,-3.995"
       style="fill:#562630;fill-opacity:1;fill-rule:nonzero;stroke:none;stroke-width:0.1"
       id="path3998" />
    <path
       d="m 201.59,115.88 h -17.034 c -0.451,0 -0.817,-0.366 -0.817,-0.817 v -1.661 c 0,-0.45 0.366,-0.816 0.817,-0.816 h 17.034 c 0.451,0 0.817,0.366 0.817,0.816 v 1.661 c 0,0.451 -0.366,0.817 -0.817,0.817"
       style="fill:#d69c42;fill-opacity:1;fill-rule:nonzero;stroke:none;stroke-width:0.1"
       id="path4000" />
    <path
       d="m 184.555,115.345 c -0.155,0 -0.281,-0.127 -0.281,-0.282 v -1.66 c 0,-0.155 0.126,-0.281 0.281,-0.281 h 17.036 c 0.154,0 0.281,0.126 0.281,0.281 v 1.66 c 0,0.155 -0.127,0.282 -0.281,0.282 z m 17.036,-3.293 h -17.036 c -0.745,0 -1.351,0.606 -1.351,1.351 v 1.66 c 0,0.746 0.606,1.352 1.351,1.352 h 17.036 c 0.745,0 1.351,-0.606 1.351,-1.352 v -1.66 c 0,-0.745 -0.606,-1.351 -1.351,-1.351"
       style="fill:#562630;fill-opacity:1;fill-rule:nonzero;stroke:none;stroke-width:0.1"
       id="path4002" />
    <path
       d="m 193.073,130.478 c -4.447,0 -8.053,-3.605 -8.053,-8.053 v -6.545 h 16.106 v 6.545 c 0,4.448 -3.606,8.053 -8.053,8.053"
       style="fill:#d69c42;fill-opacity:1;fill-rule:nonzero;stroke:none;stroke-width:0.1"
       id="path4004" />
    <path
       d="m 185.555,116.415 h 15.035 v 6.011 c 0,4.144 -3.372,7.517 -7.517,7.517 -4.145,0 -7.518,-3.373 -7.518,-7.517 z m 16.106,-1.07 h -17.176 v 7.081 c 0,4.735 3.853,8.587 8.588,8.587 4.736,0 8.588,-3.852 8.588,-8.587 v -7.081"
       style="fill:#562630;fill-opacity:1;fill-rule:nonzero;stroke:none;stroke-width:0.1"
       id="path4006" />
    <path
       d="m 190.587,131.736 c 0,0 9.357,-6.345 11.225,-6.345 1.868,0 3.383,1.514 3.383,3.382 0,1.276 -0.708,2.387 -1.751,2.963 1.043,0.576 1.751,1.686 1.751,2.962 0,1.869 -1.515,3.383 -3.383,3.383 -1.868,0 -11.225,-6.345 -11.225,-6.345"
       style="fill:#bf3636;fill-opacity:1;fill-rule:nonzero;stroke:none;stroke-width:0.1"
       id="path4008" />
    <path
       d="m 191.546,131.736 c 3.613,-2.415 9.098,-5.81 10.266,-5.81 1.571,0 2.848,1.277 2.848,2.847 0,1.036 -0.565,1.992 -1.476,2.495 l -0.847,0.468 0.848,0.468 c 0.91,0.502 1.475,1.458 1.475,2.494 0,1.571 -1.277,2.848 -2.848,2.848 -1.168,0 -6.653,-3.395 -10.266,-5.81 z m 10.266,-6.88 c -1.934,0 -9.941,5.363 -11.525,6.437 l -0.653,0.443 0.653,0.443 c 1.584,1.075 9.591,6.437 11.525,6.437 2.16,0 3.918,-1.758 3.918,-3.918 0,-1.15 -0.505,-2.226 -1.355,-2.962 0.85,-0.736 1.355,-1.814 1.355,-2.963 0,-2.16 -1.758,-3.917 -3.918,-3.917"
       style="fill:#562630;fill-opacity:1;fill-rule:nonzero;stroke:none;stroke-width:0.1"
       id="path4010" />
    <path
       d="m 195.559,131.736 c 0,0 -9.357,-6.345 -11.225,-6.345 -1.868,0 -3.383,1.514 -3.383,3.382 0,1.276 0.708,2.387 1.751,2.963 -1.043,0.576 -1.751,1.686 -1.751,2.962 0,1.869 1.515,3.383 3.383,3.383 1.868,0 11.225,-6.345 11.225,-6.345"
       style="fill:#bf3636;fill-opacity:1;fill-rule:nonzero;stroke:none;stroke-width:0.1"
       id="path4012" />
    <path
       d="m 184.334,137.546 c -1.57,0 -2.847,-1.277 -2.847,-2.848 0,-1.037 0.565,-1.992 1.474,-2.494 l 0.849,-0.468 -0.849,-0.468 c -0.909,-0.503 -1.474,-1.459 -1.474,-2.495 0,-1.57 1.277,-2.847 2.847,-2.847 1.168,0 6.652,3.395 10.266,5.81 -3.614,2.415 -9.099,5.81 -10.266,5.81 z m 0,-12.69 c -2.16,0 -3.917,1.757 -3.917,3.917 0,1.149 0.504,2.227 1.355,2.963 -0.851,0.736 -1.355,1.812 -1.355,2.962 0,2.16 1.757,3.918 3.917,3.918 1.934,0 9.94,-5.362 11.524,-6.437 l 0.654,-0.443 -0.654,-0.443 c -1.584,-1.074 -9.59,-6.437 -11.524,-6.437"
       style="fill:#562630;fill-opacity:1;fill-rule:nonzero;stroke:none;stroke-width:0.1"
       id="path4014" />
    <path
       d="m 203.443,131.201 h -20.74 v 1.07 h 20.74 v -1.07"
       style="fill:#562630;fill-opacity:1;fill-rule:nonzero;stroke:none;stroke-width:0.1"
       id="path4016" />
    <path
       d="m 193.073,127.656 c -2.253,0 -4.08,1.827 -4.08,4.08 0,2.253 1.827,4.079 4.08,4.079 2.253,0 4.08,-1.826 4.08,-4.079 0,-2.253 -1.827,-4.08 -4.08,-4.08"
       style="fill:#eff6f4;fill-opacity:1;fill-rule:nonzero;stroke:none;stroke-width:0.1"
       id="path4018" />
    <path
       d="m 193.073,135.28 c -1.954,0 -3.545,-1.589 -3.545,-3.544 0,-1.954 1.591,-3.545 3.545,-3.545 1.955,0 3.545,1.591 3.545,3.545 0,1.955 -1.59,3.544 -3.545,3.544 z m 0,-8.159 c -2.544,0 -4.615,2.071 -4.615,4.615 0,2.544 2.071,4.614 4.615,4.614 2.545,0 4.615,-2.07 4.615,-4.614 0,-2.544 -2.07,-4.615 -4.615,-4.615"
       style="fill:#562630;fill-opacity:1;fill-rule:nonzero;stroke:none;stroke-width:0.1"
       id="path4020" />
  </g>
</svg>
