<?xml version="1.0" encoding="UTF-8" standalone="no"?>
<!-- Created with Inkscape (http://www.inkscape.org/) -->

<svg
   version="1.1"
   id="svg3776"
   width="80.847046"
   height="58.615997"
   viewBox="0 0 80.847046 58.615998"
   sodipodi:docname="1342608_179886-OWY32G-746.eps"
   xmlns:inkscape="http://www.inkscape.org/namespaces/inkscape"
   xmlns:sodipodi="http://sodipodi.sourceforge.net/DTD/sodipodi-0.dtd"
   xmlns="http://www.w3.org/2000/svg"
   xmlns:svg="http://www.w3.org/2000/svg">
  <defs
     id="defs3780" />
  <sodipodi:namedview
     id="namedview3778"
     pagecolor="#ffffff"
     bordercolor="#000000"
     borderopacity="0.25"
     inkscape:showpageshadow="2"
     inkscape:pageopacity="0.0"
     inkscape:pagecheckerboard="0"
     inkscape:deskcolor="#d1d1d1"
     showgrid="false" />
  <g
     id="g3784"
     inkscape:groupmode="layer"
     inkscape:label="Page 1"
     transform="matrix(1.3333333,0,0,-1.3333333,-531.90313,486.82666)">
    <path
       d="m 436.145,333.209 c 0,-6.36 -3.089,-11.517 -6.9,-11.517 -3.811,0 -6.9,5.157 -6.9,11.517 0,6.361 3.089,11.517 6.9,11.517 3.811,0 6.9,-5.156 6.9,-11.517"
       style="fill:#bf3636;fill-opacity:1;fill-rule:nonzero;stroke:none;stroke-width:0.1"
       id="path3862"
       inkscape:export-filename="../Documentos/INGENIERÃA INFORMATICA/3er CURSO/1er CUATRI/interfaces/ep01_gr12/ej/images/memoria-luces.svg"
       inkscape:export-xdpi="96"
       inkscape:export-ydpi="96" />
    <path
       d="m 429.245,344.191 c -3.51,0 -6.365,-4.926 -6.365,-10.981 0,-6.056 2.855,-10.982 6.365,-10.982 3.51,0 6.365,4.926 6.365,10.982 0,6.055 -2.855,10.981 -6.365,10.981 z m 0,-23.033 c -4.1,0 -7.435,5.406 -7.435,12.052 0,6.645 3.335,12.051 7.435,12.051 4.099,0 7.435,-5.406 7.435,-12.051 0,-6.646 -3.336,-12.052 -7.435,-12.052"
       style="fill:#562630;fill-opacity:1;fill-rule:nonzero;stroke:none;stroke-width:0.1"
       id="path3864" />
    <path
       d="m 432.5,342.863 h -6.51 c -1.271,0 -2.301,1.03 -2.301,2.3 v 3.336 c 0,3.069 2.487,5.556 5.556,5.556 v 0 c 3.069,0 5.556,-2.487 5.556,-5.556 v -3.336 c 0,-1.27 -1.03,-2.3 -2.301,-2.3"
       style="fill:#778782;fill-opacity:1;fill-rule:nonzero;stroke:none;stroke-width:0.1"
       id="path3866" />
    <path
       d="m 429.245,353.52 c -2.769,0 -5.021,-2.253 -5.021,-5.021 v -3.335 c 0,-0.974 0.792,-1.766 1.765,-1.766 h 6.511 c 0.974,0 1.766,0.792 1.766,1.766 v 3.335 c 0,2.768 -2.253,5.021 -5.021,5.021 z m 3.255,-11.192 h -6.511 c -1.563,0 -2.835,1.272 -2.835,2.836 v 3.335 c 0,3.359 2.732,6.091 6.091,6.091 3.358,0 6.091,-2.732 6.091,-6.091 v -3.335 c 0,-1.564 -1.272,-2.836 -2.836,-2.836"
       style="fill:#562630;fill-opacity:1;fill-rule:nonzero;stroke:none;stroke-width:0.1"
       id="path3868" />
    <path
       d="m 458.063,339.729 c 2.03,-6.027 0.748,-11.9 -2.863,-13.117 -3.611,-1.216 -8.184,2.684 -10.215,8.712 -2.031,6.028 -0.749,11.901 2.862,13.117 3.611,1.216 8.185,-2.684 10.216,-8.712"
       style="fill:#d69c42;fill-opacity:1;fill-rule:nonzero;stroke:none;stroke-width:0.1"
       id="path3870" />
    <path
       d="m 449.24,348.132 c -0.417,0 -0.827,-0.065 -1.223,-0.198 -3.325,-1.12 -4.458,-6.7 -2.525,-12.44 1.934,-5.737 6.208,-9.492 9.537,-8.375 1.562,0.526 2.696,2.075 3.195,4.362 0.521,2.384 0.282,5.252 -0.669,8.078 -1.703,5.055 -5.226,8.573 -8.315,8.573 z m 4.615,-22.273 c -3.562,0 -7.524,3.793 -9.377,9.294 -2.121,6.298 -0.687,12.487 3.198,13.795 3.881,1.311 8.772,-2.749 10.893,-9.048 1.013,-3.006 1.261,-6.077 0.7,-8.648 -0.582,-2.668 -1.967,-4.497 -3.899,-5.147 -0.491,-0.166 -0.999,-0.246 -1.515,-0.246"
       style="fill:#562630;fill-opacity:1;fill-rule:nonzero;stroke:none;stroke-width:0.1"
       id="path3872" />
    <path
       d="m 451.527,347.714 -6.17,-2.078 c -1.204,-0.406 -2.509,0.242 -2.915,1.446 l -1.065,3.161 c -0.979,2.908 0.584,6.059 3.492,7.039 v 0 c 2.908,0.98 6.06,-0.584 7.039,-3.492 l 1.065,-3.161 c 0.406,-1.204 -0.242,-2.509 -1.446,-2.915"
       style="fill:#778782;fill-opacity:1;fill-rule:nonzero;stroke:none;stroke-width:0.1"
       id="path3874" />
    <path
       d="m 446.647,357.04 c -0.539,0 -1.081,-0.088 -1.607,-0.264 -2.623,-0.884 -4.039,-3.738 -3.156,-6.363 l 1.065,-3.161 c 0.311,-0.922 1.317,-1.419 2.238,-1.11 l 6.17,2.079 c 0.922,0.31 1.419,1.315 1.109,2.238 l -1.065,3.161 c -0.428,1.27 -1.325,2.299 -2.527,2.894 -0.704,0.351 -1.463,0.526 -2.227,0.526 z m -2.021,-12.06 c -1.184,0 -2.292,0.748 -2.691,1.93 l -1.065,3.163 c -1.072,3.182 0.646,6.644 3.828,7.716 1.544,0.52 3.194,0.407 4.652,-0.315 1.457,-0.723 2.545,-1.971 3.065,-3.514 l 1.065,-3.159 c 0.499,-1.483 -0.3,-3.095 -1.782,-3.594 l -6.17,-2.079 c -0.298,-0.1 -0.602,-0.148 -0.902,-0.148"
       style="fill:#562630;fill-opacity:1;fill-rule:nonzero;stroke:none;stroke-width:0.1"
       id="path3876" />
    <path
       d="m 400.428,339.729 c -2.031,-6.027 -0.749,-11.9 2.862,-13.117 3.611,-1.216 8.185,2.684 10.215,8.712 2.031,6.028 0.749,11.901 -2.862,13.117 -3.611,1.216 -8.185,-2.684 -10.215,-8.712"
       style="fill:#83a637;fill-opacity:1;fill-rule:nonzero;stroke:none;stroke-width:0.1"
       id="path3878" />
    <path
       d="m 409.264,348.129 c -1.262,0 -2.636,-0.592 -3.974,-1.734 -1.856,-1.583 -3.403,-4.011 -4.355,-6.836 -0.951,-2.826 -1.189,-5.694 -0.669,-8.078 0.5,-2.287 1.633,-3.836 3.195,-4.362 3.328,-1.118 7.603,2.638 9.537,8.375 0.951,2.826 1.189,5.695 0.669,8.078 -0.5,2.287 -1.634,3.837 -3.195,4.362 -0.388,0.131 -0.792,0.195 -1.208,0.195 z m -4.629,-22.27 c -0.516,0 -1.024,0.08 -1.515,0.246 -1.932,0.65 -3.317,2.479 -3.899,5.147 -0.561,2.571 -0.313,5.642 0.7,8.648 1.013,3.007 2.672,5.602 4.675,7.309 2.076,1.773 4.286,2.392 6.217,1.739 1.932,-0.65 3.317,-2.479 3.899,-5.147 0.561,-2.571 0.312,-5.642 -0.7,-8.648 -1.853,-5.501 -5.816,-9.294 -9.377,-9.294"
       style="fill:#562630;fill-opacity:1;fill-rule:nonzero;stroke:none;stroke-width:0.1"
       id="path3880" />
    <path
       d="m 406.963,347.714 6.17,-2.078 c 1.204,-0.406 2.509,0.242 2.915,1.446 l 1.065,3.161 c 0.98,2.908 -0.584,6.059 -3.492,7.039 v 0 c -2.908,0.98 -6.06,-0.584 -7.039,-3.492 l -1.065,-3.161 c -0.406,-1.204 0.242,-2.509 1.446,-2.915"
       style="fill:#778782;fill-opacity:1;fill-rule:nonzero;stroke:none;stroke-width:0.1"
       id="path3882" />
    <path
       d="m 411.852,357.038 c -2.097,0 -4.057,-1.324 -4.764,-3.42 l -1.064,-3.159 c -0.15,-0.448 -0.118,-0.927 0.091,-1.349 0.21,-0.423 0.572,-0.739 1.018,-0.889 l 6.17,-2.079 c 0.925,-0.311 1.927,0.188 2.239,1.111 l 1.064,3.16 c 0.428,1.271 0.335,2.633 -0.261,3.835 -0.595,1.202 -1.624,2.099 -2.896,2.528 -0.528,0.177 -1.067,0.262 -1.597,0.262 z m 2.012,-12.058 c -0.3,0 -0.603,0.048 -0.902,0.148 l -6.17,2.079 c -0.718,0.242 -1.299,0.748 -1.635,1.428 -0.337,0.678 -0.389,1.447 -0.146,2.166 l 1.063,3.159 c 1.073,3.185 4.541,4.899 7.717,3.829 1.543,-0.519 2.791,-1.608 3.514,-3.066 0.722,-1.458 0.835,-3.109 0.314,-4.651 l -1.064,-3.161 c -0.399,-1.183 -1.507,-1.931 -2.691,-1.931"
       style="fill:#562630;fill-opacity:1;fill-rule:nonzero;stroke:none;stroke-width:0.1"
       id="path3884" />
    <path
       d="m 429.245,353.52 c -9.875,0 -19.165,3.851 -26.157,10.844 l 0.756,0.756 c 6.79,-6.79 15.811,-10.53 25.401,-10.53 9.59,0 18.611,3.74 25.401,10.53 l 0.757,-0.756 C 448.41,357.371 439.12,353.52 429.245,353.52"
       style="fill:#562630;fill-opacity:1;fill-rule:nonzero;stroke:none;stroke-width:0.1"
       id="path3886" />
  </g>
</svg>
