<?xml version="1.0" encoding="UTF-8" standalone="no"?>
<!-- Created with Inkscape (http://www.inkscape.org/) -->

<svg
   version="1.1"
   id="svg3776"
   width="66.59198"
   height="82.042664"
   viewBox="0 0 66.59198 82.042664"
   sodipodi:docname="1342608_179886-OWY32G-746.eps"
   xmlns:inkscape="http://www.inkscape.org/namespaces/inkscape"
   xmlns:sodipodi="http://sodipodi.sourceforge.net/DTD/sodipodi-0.dtd"
   xmlns="http://www.w3.org/2000/svg"
   xmlns:svg="http://www.w3.org/2000/svg">
  <defs
     id="defs3780" />
  <sodipodi:namedview
     id="namedview3778"
     pagecolor="#ffffff"
     bordercolor="#000000"
     borderopacity="0.25"
     inkscape:showpageshadow="2"
     inkscape:pageopacity="0.0"
     inkscape:pagecheckerboard="0"
     inkscape:deskcolor="#d1d1d1"
     showgrid="false" />
  <g
     id="g3784"
     inkscape:groupmode="layer"
     inkscape:label="Page 1"
     transform="matrix(1.3333333,0,0,-1.3333333,-381.58267,183.812)">
    <path
       d="m 307.691,130.137 h 6.937 v 3.183 c 0,1.913 -1.556,3.469 -3.469,3.469 -1.912,0 -3.468,-1.556 -3.468,-3.469 z m 8.007,-1.07 h -9.078 v 4.253 c 0,2.503 2.037,4.539 4.539,4.539 2.503,0 4.539,-2.036 4.539,-4.539 v -4.253"
       style="fill:#562630;fill-opacity:1;fill-rule:nonzero;stroke:none;stroke-width:0.1"
       id="path4034"
       inkscape:export-filename="../Documentos/INGENIERÃA INFORMATICA/3er CURSO/1er CUATRI/interfaces/ep01_gr12/ej/images/memoria-bola.svg"
       inkscape:export-xdpi="96"
       inkscape:export-ydpi="96" />
    <path
       d="m 315.215,130.782 h -8.111 c -1.771,0 -3.206,-1.435 -3.206,-3.205 v -5.894 h 14.522 v 5.894 c 0,1.77 -1.435,3.205 -3.205,3.205"
       style="fill:#778782;fill-opacity:1;fill-rule:nonzero;stroke:none;stroke-width:0.1"
       id="path4036" />
    <path
       d="m 304.433,122.218 h 13.452 v 5.358 c 0,1.473 -1.198,2.672 -2.67,2.672 h -8.111 c -1.473,0 -2.671,-1.199 -2.671,-2.672 z m 14.522,-1.07 h -15.592 v 6.428 c 0,2.063 1.678,3.742 3.741,3.742 h 8.111 c 2.062,0 3.74,-1.679 3.74,-3.742 v -6.428"
       style="fill:#562630;fill-opacity:1;fill-rule:nonzero;stroke:none;stroke-width:0.1"
       id="path4038" />
    <path
       d="m 311.159,125.735 c 13.496,0 24.437,-10.941 24.437,-24.437 0,-13.496 -10.941,-24.4371 -24.437,-24.4371 -13.496,0 -24.437,10.9411 -24.437,24.4371 0,13.496 10.941,24.437 24.437,24.437"
       style="fill:#eff6f4;fill-opacity:1;fill-rule:nonzero;stroke:none;stroke-width:0.1"
       id="path4040" />
    <path
       d="m 311.159,125.2 c -13.179,0 -23.901,-10.722 -23.901,-23.902 0,-13.1789 10.722,-23.9011 23.901,-23.9011 13.18,0 23.902,10.7222 23.902,23.9011 0,13.18 -10.722,23.902 -23.902,23.902 z m 0,-48.873 c -13.769,0 -24.972,11.2019 -24.972,24.971 0,13.77 11.203,24.972 24.972,24.972 13.769,0 24.972,-11.202 24.972,-24.972 0,-13.7691 -11.203,-24.971 -24.972,-24.971"
       style="fill:#562630;fill-opacity:1;fill-rule:nonzero;stroke:none;stroke-width:0.1"
       id="path4042" />
    <path
       d="m 286.722,101.298 c 0,-4.6898 1.345,-9.055 3.635,-12.7761 h 41.604 c 2.29,3.7211 3.635,8.0863 3.635,12.7761 0,4.69 -1.345,9.056 -3.635,12.777 h -41.604 c -2.29,-3.721 -3.635,-8.087 -3.635,-12.777"
       style="fill:#778782;fill-opacity:1;fill-rule:nonzero;stroke:none;stroke-width:0.1"
       id="path4044" />
    <path
       d="m 290.658,89.057 h 41.002 c 2.226,3.718 3.401,7.9442 3.401,12.241 0,4.298 -1.175,8.524 -3.401,12.241 h -41.002 c -2.225,-3.717 -3.4,-7.943 -3.4,-12.241 0,-4.2968 1.175,-8.523 3.4,-12.241 z m 41.602,-1.0699 h -42.202 l -0.156,0.2551 c -2.43,3.9476 -3.715,8.4617 -3.715,13.0558 0,4.594 1.285,9.109 3.715,13.056 l 0.156,0.255 h 42.202 l 0.157,-0.255 c 2.43,-3.947 3.714,-8.462 3.714,-13.056 0,-4.5941 -1.284,-9.1082 -3.714,-13.0558 l -0.157,-0.2551"
       style="fill:#562630;fill-opacity:1;fill-rule:nonzero;stroke:none;stroke-width:0.1"
       id="path4046" />
    <path
       d="m 335.33,104.715 c -0.073,0.518 -0.136,1.04 -0.24,1.547 l -6.373,-3.007 -8.927,4.212 -9.02,-4.255 -8.792,4.149 -8.717,-4.113 -6.06,2.859 c -0.108,-0.54 -0.179,-1.093 -0.251,-1.645 -0.086,-1.19 -0.148,-2.763 -0.186,-3.991 0.027,-0.7858 0.086,-1.5632 0.185,-2.3288 l 6.312,-2.9774 8.717,4.1122 8.792,-4.1481 9.02,4.2551 8.927,-4.2121 6.68,3.1519 c 0.085,0.6942 0.13,1.3992 0.155,2.1112 -0.042,1.31 -0.117,3.029 -0.222,4.28"
       style="fill:#d69c42;fill-opacity:1;fill-rule:nonzero;stroke:none;stroke-width:0.1"
       id="path4048" />
    <path
       d="m 301.978,99.8691 8.792,-4.148 9.019,4.2539 8.928,-4.2109 6.182,2.916 c 0.057,0.5359 0.096,1.1211 0.119,1.7739 -0.032,0.953 -0.104,2.817 -0.22,4.203 l -0.04,0.287 c -0.025,0.179 -0.049,0.357 -0.075,0.534 l -5.966,-2.814 -8.928,4.212 -9.019,-4.255 -8.792,4.148 -8.718,-4.112 -5.652,2.666 c -0.047,-0.309 -0.087,-0.619 -0.127,-0.93 -0.092,-1.278 -0.154,-3.017 -0.182,-3.938 0.023,-0.6538 0.071,-1.3179 0.145,-1.9538 l 5.816,-2.7453 z m 8.792,-5.3312 -8.792,4.148 -8.718,-4.1129 -6.805,3.211 -0.037,0.2898 c -0.097,0.7571 -0.161,1.5571 -0.189,2.3802 0.029,0.962 0.092,2.718 0.187,4.046 0.077,0.595 0.15,1.159 0.26,1.712 l 0.135,0.67 6.449,-3.042 8.718,4.112 8.792,-4.148 9.019,4.255 8.928,-4.212 6.76,3.19 0.137,-0.667 c 0.087,-0.421 0.145,-0.851 0.204,-1.281 l 0.044,-0.328 c 0.12,-1.411 0.193,-3.305 0.225,-4.308 -0.028,-0.8421 -0.08,-1.5479 -0.159,-2.194 l -0.036,-0.2918 -7.175,-3.3863 -8.928,4.2113 -9.019,-4.2543"
       style="fill:#562630;fill-opacity:1;fill-rule:nonzero;stroke:none;stroke-width:0.1"
       id="path4050" />
  </g>
</svg>
