<?xml version="1.0" encoding="UTF-8" standalone="no"?>
<!-- Created with Inkscape (http://www.inkscape.org/) -->

<svg
   version="1.1"
   id="svg3776"
   width="82.021317"
   height="80.302643"
   viewBox="0 0 82.021317 80.302643"
   sodipodi:docname="1342608_179886-OWY32G-746.eps"
   xmlns:inkscape="http://www.inkscape.org/namespaces/inkscape"
   xmlns:sodipodi="http://sodipodi.sourceforge.net/DTD/sodipodi-0.dtd"
   xmlns="http://www.w3.org/2000/svg"
   xmlns:svg="http://www.w3.org/2000/svg">
  <defs
     id="defs3780" />
  <sodipodi:namedview
     id="namedview3778"
     pagecolor="#ffffff"
     bordercolor="#000000"
     borderopacity="0.25"
     inkscape:showpageshadow="2"
     inkscape:pageopacity="0.0"
     inkscape:pagecheckerboard="0"
     inkscape:deskcolor="#d1d1d1"
     showgrid="false" />
  <g
     id="g3784"
     inkscape:groupmode="layer"
     inkscape:label="Page 1"
     transform="matrix(1.3333333,0,0,-1.3333333,-216.42,340.30531)">
    <path
       d="m 188.322,242.564 c 0,0 17.887,-12.131 21.458,-12.131 3.572,0 6.467,2.896 6.467,6.467 0,2.44 -1.353,4.563 -3.348,5.664 1.995,1.101 3.348,3.224 3.348,5.663 0,3.572 -2.895,6.467 -6.467,6.467 -3.571,0 -21.458,-12.13 -21.458,-12.13"
       style="fill:#83a637;fill-opacity:1;fill-rule:nonzero;stroke:none;stroke-width:0.1"
       id="path4162"
       inkscape:export-filename="../Documentos/INGENIERÃA INFORMATICA/3er CURSO/1er CUATRI/interfaces/ep01_gr12/ej/images/memoria-regalo.svg"
       inkscape:export-xdpi="96"
       inkscape:export-ydpi="96" />
    <path
       d="m 189.278,242.563 c 5.376,-3.61 17.823,-11.595 20.502,-11.595 3.271,0 5.932,2.661 5.932,5.932 0,2.159 -1.177,4.15 -3.072,5.195 l -0.848,0.468 0.848,0.468 c 1.895,1.046 3.072,3.037 3.072,5.196 0,3.272 -2.661,5.932 -5.932,5.932 -2.679,0 -15.126,-7.985 -20.502,-11.596 z m 20.502,-12.665 c -3.631,0 -19.914,10.971 -21.759,12.222 l -0.652,0.443 0.652,0.443 c 1.845,1.251 18.128,12.223 21.759,12.223 3.861,0 7.002,-3.141 7.002,-7.002 0,-2.255 -1.088,-4.355 -2.888,-5.664 1.8,-1.307 2.888,-3.407 2.888,-5.663 0,-3.86 -3.141,-7.002 -7.002,-7.002"
       style="fill:#562630;fill-opacity:1;fill-rule:nonzero;stroke:none;stroke-width:0.1"
       id="path4164" />
    <path
       d="m 197.825,242.564 c 0,0 -17.887,-12.131 -21.458,-12.131 -3.571,0 -6.467,2.896 -6.467,6.467 0,2.44 1.353,4.563 3.348,5.664 -1.995,1.101 -3.348,3.224 -3.348,5.663 0,3.572 2.896,6.467 6.467,6.467 3.571,0 21.458,-12.13 21.458,-12.13"
       style="fill:#83a637;fill-opacity:1;fill-rule:nonzero;stroke:none;stroke-width:0.1"
       id="path4166" />
    <path
       d="m 176.367,254.159 c -3.271,0 -5.932,-2.66 -5.932,-5.932 0,-2.159 1.177,-4.15 3.071,-5.196 l 0.849,-0.468 -0.849,-0.468 c -1.894,-1.045 -3.071,-3.036 -3.071,-5.195 0,-3.271 2.661,-5.932 5.932,-5.932 2.679,0 15.126,7.985 20.502,11.595 -5.376,3.611 -17.823,11.596 -20.502,11.596 z m 0,-24.261 c -3.861,0 -7.002,3.142 -7.002,7.002 0,2.256 1.088,4.356 2.887,5.663 -1.799,1.309 -2.887,3.409 -2.887,5.664 0,3.861 3.141,7.002 7.002,7.002 3.631,0 19.914,-10.972 21.759,-12.223 l 0.653,-0.443 -0.653,-0.443 c -1.845,-1.251 -18.128,-12.222 -21.759,-12.222"
       style="fill:#562630;fill-opacity:1;fill-rule:nonzero;stroke:none;stroke-width:0.1"
       id="path4168" />
    <path
       d="m 212.899,242.028 h -39.651 v 1.07 h 39.651 v -1.07"
       style="fill:#562630;fill-opacity:1;fill-rule:nonzero;stroke:none;stroke-width:0.1"
       id="path4170" />
    <path
       d="m 193.074,234.764 c -4.308,0 -7.8,3.492 -7.8,7.8 0,4.307 3.492,7.799 7.8,7.799 4.307,0 7.799,-3.492 7.799,-7.799 0,-4.308 -3.492,-7.8 -7.799,-7.8"
       style="fill:#eff6f4;fill-opacity:1;fill-rule:nonzero;stroke:none;stroke-width:0.1"
       id="path4172" />
    <path
       d="m 193.074,249.827 c -4.006,0 -7.265,-3.258 -7.265,-7.264 0,-4.006 3.259,-7.264 7.265,-7.264 4.005,0 7.264,3.258 7.264,7.264 0,4.006 -3.259,7.264 -7.264,7.264 z m 0,-15.598 c -4.596,0 -8.335,3.739 -8.335,8.334 0,4.595 3.739,8.335 8.335,8.335 4.595,0 8.334,-3.74 8.334,-8.335 0,-4.595 -3.739,-8.334 -8.334,-8.334"
       style="fill:#562630;fill-opacity:1;fill-rule:nonzero;stroke:none;stroke-width:0.1"
       id="path4174" />
    <path
       d="m 167.35,230.433 v -30.229 c 0,-2.577 2.089,-4.666 4.666,-4.666 h 42.115 c 2.577,0 4.666,2.089 4.666,4.666 v 30.229 H 167.35"
       style="fill:#778782;fill-opacity:1;fill-rule:nonzero;stroke:none;stroke-width:0.1"
       id="path4176" />
    <path
       d="m 167.885,229.898 v -29.694 c 0,-2.279 1.853,-4.131 4.131,-4.131 h 42.115 c 2.278,0 4.131,1.852 4.131,4.131 v 29.694 z m 46.246,-34.896 h -42.115 c -2.868,0 -5.201,2.334 -5.201,5.202 v 30.764 h 52.517 v -30.764 c 0,-2.868 -2.333,-5.202 -5.201,-5.202"
       style="fill:#562630;fill-opacity:1;fill-rule:nonzero;stroke:none;stroke-width:0.1"
       id="path4178" />
    <path
       d="M 219.967,242.526 H 166.18 c -1.839,0 -3.33,-1.491 -3.33,-3.329 v -5.434 c 0,-1.839 1.491,-3.33 3.33,-3.33 h 53.787 c 1.839,0 3.329,1.491 3.329,3.33 v 5.434 c 0,1.838 -1.49,3.329 -3.329,3.329"
       style="fill:#bf3636;fill-opacity:1;fill-rule:nonzero;stroke:none;stroke-width:0.1"
       id="path4180" />
    <path
       d="m 166.18,241.991 c -1.541,0 -2.795,-1.254 -2.795,-2.795 v -5.433 c 0,-1.541 1.254,-2.795 2.795,-2.795 h 53.787 c 1.541,0 2.794,1.254 2.794,2.795 v 5.433 c 0,1.541 -1.253,2.795 -2.794,2.795 z m 53.787,-12.093 H 166.18 c -2.131,0 -3.865,1.734 -3.865,3.865 v 5.433 c 0,2.131 1.734,3.865 3.865,3.865 h 53.787 c 2.131,0 3.864,-1.734 3.864,-3.865 v -5.433 c 0,-2.131 -1.733,-3.865 -3.864,-3.865"
       style="fill:#562630;fill-opacity:1;fill-rule:nonzero;stroke:none;stroke-width:0.1"
       id="path4182" />
    <path
       d="m 205.392,195.538 h 8.105 v 34.895 h -8.105 v -34.895"
       style="fill:#d69c42;fill-opacity:1;fill-rule:nonzero;stroke:none;stroke-width:0.1"
       id="path4184" />
    <path
       d="m 205.927,196.073 h 7.035 v 33.825 h -7.035 z m 8.105,-1.071 h -9.175 v 35.966 h 9.175 v -35.966"
       style="fill:#562630;fill-opacity:1;fill-rule:nonzero;stroke:none;stroke-width:0.1"
       id="path4186" />
    <path
       d="m 189.021,195.538 h 8.105 v 34.895 h -8.105 v -34.895"
       style="fill:#d69c42;fill-opacity:1;fill-rule:nonzero;stroke:none;stroke-width:0.1"
       id="path4188" />
    <path
       d="m 189.556,196.073 h 7.035 v 33.825 h -7.035 z m 8.105,-1.071 h -9.175 v 35.966 h 9.175 v -35.966"
       style="fill:#562630;fill-opacity:1;fill-rule:nonzero;stroke:none;stroke-width:0.1"
       id="path4190" />
    <path
       d="m 172.65,195.538 h 8.105 v 34.895 h -8.105 v -34.895"
       style="fill:#d69c42;fill-opacity:1;fill-rule:nonzero;stroke:none;stroke-width:0.1"
       id="path4192" />
    <path
       d="m 173.185,196.073 h 7.035 v 33.825 h -7.035 z m 8.105,-1.071 h -9.175 v 35.966 h 9.175 v -35.966"
       style="fill:#562630;fill-opacity:1;fill-rule:nonzero;stroke:none;stroke-width:0.1"
       id="path4194" />
  </g>
</svg>
