<?xml version="1.0" encoding="UTF-8" standalone="no"?>
<!-- Created with Inkscape (http://www.inkscape.org/) -->

<svg
   version="1.1"
   id="svg3776"
   width="56.561325"
   height="99.105331"
   viewBox="0 0 56.561325 99.105332"
   sodipodi:docname="1342608_179886-OWY32G-746.eps"
   xmlns:inkscape="http://www.inkscape.org/namespaces/inkscape"
   xmlns:sodipodi="http://sodipodi.sourceforge.net/DTD/sodipodi-0.dtd"
   xmlns="http://www.w3.org/2000/svg"
   xmlns:svg="http://www.w3.org/2000/svg">
  <defs
     id="defs3780" />
  <sodipodi:namedview
     id="namedview3778"
     pagecolor="#ffffff"
     bordercolor="#000000"
     borderopacity="0.25"
     inkscape:showpageshadow="2"
     inkscape:pageopacity="0.0"
     inkscape:pagecheckerboard="0"
     inkscape:deskcolor="#d1d1d1"
     showgrid="false" />
  <g
     id="g3784"
     inkscape:groupmode="layer"
     inkscape:label="Page 1"
     transform="matrix(1.3333333,0,0,-1.3333333,-71.702667,507.07199)">
    <path
       d="m 70.5855,316.141 v -8.297 c 0,-0.737 1.9708,-1.334 4.402,-1.334 2.4309,0 4.402,0.597 4.402,1.334 v 8.297 h -8.804"
       style="fill:#e7a126;fill-opacity:1;fill-rule:nonzero;stroke:none;stroke-width:0.1"
       id="path3796"
       inkscape:export-filename="../Documentos/INGENIERÃA INFORMATICA/3er CURSO/1er CUATRI/interfaces/ep01_gr12/ej/images/memoria-arbol.svg"
       inkscape:export-xdpi="96"
       inkscape:export-ydpi="96" />
    <path
       d="m 71.1207,315.606 v -7.763 c 0.1117,-0.208 1.3949,-0.798 3.8668,-0.798 2.4715,0 3.7547,0.59 3.8734,0.836 l -0.0062,7.725 z m 3.8668,-9.631 c -1.8336,0 -4.9371,0.394 -4.9371,1.868 v 8.833 h 9.8738 v -8.833 c 0,-1.474 -3.1031,-1.868 -4.9367,-1.868"
       style="fill:#562630;fill-opacity:1;fill-rule:nonzero;stroke:none;stroke-width:0.1"
       id="path3798" />
    <path
       d="m 78.0691,363.4 c -1.3621,2.389 -4.8015,2.389 -6.1636,0 -5.7629,-10.11 -17.5938,-42.174 -17.5938,-42.802 0,-3.46 9.2567,-6.265 20.6758,-6.265 11.4188,0 20.6754,2.805 20.6754,6.265 0,0.628 -11.8309,32.692 -17.5938,42.802"
       style="fill:#83a637;fill-opacity:1;fill-rule:nonzero;stroke:none;stroke-width:0.1"
       id="path3800" />
    <path
       d="m 74.9875,364.657 c -1.0953,0 -2.0738,-0.57 -2.6168,-1.523 -5.7062,-10.009 -17.3242,-41.587 -17.5297,-42.607 0.0059,-2.639 8.277,-5.659 20.1465,-5.659 11.8691,0 20.1402,3.02 20.1402,5.73 -0.1996,0.949 -11.8175,32.527 -17.5234,42.536 v 0 c -0.543,0.953 -1.5219,1.523 -2.6168,1.523 z m 0,-50.859 c -10.4262,0 -21.2105,2.544 -21.2105,6.8 0,1.203 12.2468,33.563 17.6636,43.067 0.736,1.291 2.0621,2.062 3.5469,2.062 1.4844,0 2.8105,-0.771 3.5469,-2.062 v 0 c 5.4164,-9.504 17.6636,-41.864 17.6636,-43.067 0,-4.256 -10.7843,-6.8 -21.2105,-6.8"
       style="fill:#562630;fill-opacity:1;fill-rule:nonzero;stroke:none;stroke-width:0.1"
       id="path3802" />
    <path
       d="m 73.402,345.882 c -2.1336,0 -3.8633,1.73 -3.8633,3.863 0,2.134 1.7297,3.864 3.8633,3.864 2.1335,0 3.8632,-1.73 3.8632,-3.864 0,-2.133 -1.7297,-3.863 -3.8632,-3.863"
       style="fill:#dc77a8;fill-opacity:1;fill-rule:nonzero;stroke:none;stroke-width:0.1"
       id="path3804" />
    <path
       d="m 73.402,353.074 c -1.8352,0 -3.3286,-1.494 -3.3286,-3.329 0,-1.835 1.4934,-3.327 3.3286,-3.327 1.8351,0 3.3281,1.492 3.3281,3.327 0,1.835 -1.493,3.329 -3.3281,3.329 z m 0,-7.727 c -2.4254,0 -4.3985,1.973 -4.3985,4.398 0,2.426 1.9731,4.399 4.3985,4.399 2.425,0 4.3984,-1.973 4.3984,-4.399 0,-2.425 -1.9734,-4.398 -4.3984,-4.398"
       style="fill:#562630;fill-opacity:1;fill-rule:nonzero;stroke:none;stroke-width:0.1"
       id="path3806" />
    <path
       d="m 82.5555,331.667 c -2.1336,0 -3.8633,1.73 -3.8633,3.863 0,2.134 1.7297,3.864 3.8633,3.864 2.1336,0 3.8633,-1.73 3.8633,-3.864 0,-2.133 -1.7297,-3.863 -3.8633,-3.863"
       style="fill:#778782;fill-opacity:1;fill-rule:nonzero;stroke:none;stroke-width:0.1"
       id="path3808" />
    <path
       d="m 82.5555,338.859 c -1.8356,0 -3.3282,-1.494 -3.3282,-3.329 0,-1.835 1.4926,-3.328 3.3282,-3.328 1.8347,0 3.3285,1.493 3.3285,3.328 0,1.835 -1.4938,3.329 -3.3285,3.329 z m 0,-7.728 c -2.4254,0 -4.3985,1.973 -4.3985,4.399 0,2.426 1.9731,4.399 4.3985,4.399 2.4254,0 4.3984,-1.973 4.3984,-4.399 0,-2.426 -1.973,-4.399 -4.3984,-4.399"
       style="fill:#562630;fill-opacity:1;fill-rule:nonzero;stroke:none;stroke-width:0.1"
       id="path3810" />
    <path
       d="m 68.5523,320.923 c -2.1335,0 -3.8628,1.73 -3.8628,3.863 0,2.134 1.7293,3.864 3.8628,3.864 2.1336,0 3.8633,-1.73 3.8633,-3.864 0,-2.133 -1.7297,-3.863 -3.8633,-3.863"
       style="fill:#bf3636;fill-opacity:1;fill-rule:nonzero;stroke:none;stroke-width:0.1"
       id="path3812" />
    <path
       d="m 68.5523,328.114 c -1.8351,0 -3.3281,-1.492 -3.3281,-3.327 0,-1.835 1.493,-3.329 3.3281,-3.329 1.8352,0 3.3286,1.494 3.3286,3.329 0,1.835 -1.4934,3.327 -3.3286,3.327 z m 0,-7.726 c -2.425,0 -4.398,1.973 -4.398,4.399 0,2.424 1.973,4.397 4.398,4.397 2.4258,0 4.3989,-1.973 4.3989,-4.397 0,-2.426 -1.9731,-4.399 -4.3989,-4.399"
       style="fill:#562630;fill-opacity:1;fill-rule:nonzero;stroke:none;stroke-width:0.1"
       id="path3814" />
    <path
       d="m 83.3566,373.789 -5.1207,0.744 -2.2902,4.64 c -0.3922,0.794 -1.5246,0.794 -1.9168,0 l -2.2898,-4.64 -5.1207,-0.744 c -0.8766,-0.127 -1.2266,-1.205 -0.5922,-1.823 l 3.7051,-3.612 -0.8747,-5.1 c -0.1496,-0.873 0.7668,-1.539 1.5508,-1.126 l 4.5801,2.407 4.5801,-2.407 c 0.784,-0.413 1.7004,0.253 1.5508,1.126 l -0.875,5.1 3.7054,3.612 c 0.6344,0.618 0.2844,1.696 -0.5922,1.823"
       style="fill:#d69c42;fill-opacity:1;fill-rule:nonzero;stroke:none;stroke-width:0.1"
       id="path3816" />
    <path
       d="m 74.9875,379.234 c -0.2078,0 -0.3867,-0.111 -0.4785,-0.298 l -2.4149,-4.892 -5.3988,-0.785 c -0.2055,-0.029 -0.3668,-0.165 -0.4308,-0.364 -0.0641,-0.196 -0.0137,-0.401 0.1347,-0.545 l 3.9071,-3.808 -0.9223,-5.378 c -0.0352,-0.205 0.0441,-0.401 0.2125,-0.523 0.1676,-0.12 0.3765,-0.135 0.5617,-0.04 l 4.8293,2.539 4.8285,-2.539 c 0.1856,-0.096 0.3942,-0.08 0.5625,0.04 0.168,0.122 0.2477,0.318 0.2125,0.524 l -0.9222,5.377 3.9066,3.808 c 0.1488,0.144 0.1988,0.349 0.1351,0.545 -0.064,0.199 -0.225,0.335 -0.4308,0.364 l -5.3988,0.785 -2.4149,4.892 c -0.0918,0.187 -0.2707,0.298 -0.4785,0.298 z m -5.0797,-17.765 c -0.3308,0 -0.659,0.103 -0.9398,0.307 -0.4981,0.36 -0.7426,0.962 -0.6387,1.568 l 0.8273,4.823 -3.5043,3.416 c -0.4398,0.428 -0.5957,1.058 -0.4058,1.643 0.1902,0.585 0.6859,1.004 1.2953,1.093 l 4.8418,0.703 2.1656,4.388 c 0.2719,0.551 0.8231,0.894 1.4383,0.894 0.6148,0 1.166,-0.343 1.4379,-0.894 l 2.166,-4.388 4.8418,-0.703 c 0.6094,-0.089 1.1051,-0.508 1.2953,-1.093 0.1895,-0.585 0.034,-1.215 -0.4066,-1.643 l -3.5035,-3.416 0.8269,-4.821 c 0.1043,-0.608 -0.1402,-1.21 -0.6383,-1.57 -0.4984,-0.361 -1.1453,-0.406 -1.6886,-0.121 l -4.3309,2.277 -4.3312,-2.277 c -0.2368,-0.125 -0.4934,-0.186 -0.7485,-0.186"
       style="fill:#562630;fill-opacity:1;fill-rule:nonzero;stroke:none;stroke-width:0.1"
       id="path3818" />
  </g>
</svg>
