<?xml version="1.0" encoding="UTF-8" standalone="no"?>
<!-- Created with Inkscape (http://www.inkscape.org/) -->

<svg
   version="1.1"
   id="svg3776"
   width="63.194702"
   height="75.929169"
   viewBox="0 0 63.194702 75.929169"
   sodipodi:docname="1342608_179886-OWY32G-746.eps"
   xmlns:inkscape="http://www.inkscape.org/namespaces/inkscape"
   xmlns:sodipodi="http://sodipodi.sourceforge.net/DTD/sodipodi-0.dtd"
   xmlns="http://www.w3.org/2000/svg"
   xmlns:svg="http://www.w3.org/2000/svg">
  <defs
     id="defs3780" />
  <sodipodi:namedview
     id="namedview3778"
     pagecolor="#ffffff"
     bordercolor="#000000"
     borderopacity="0.25"
     inkscape:showpageshadow="2"
     inkscape:pageopacity="0.0"
     inkscape:pagecheckerboard="0"
     inkscape:deskcolor="#d1d1d1"
     showgrid="false" />
  <g
     id="g3784"
     inkscape:groupmode="layer"
     inkscape:label="Page 1"
     transform="matrix(1.3333333,0,0,-1.3333333,-540.72931,180.75465)">
    <path
       d="m 448.913,90.859 h -39.335 c -1.931,0 -3.495,-1.5649 -3.495,-3.4949 v -4.7153 c 0,-1.9297 1.564,-3.4949 3.495,-3.4949 h 39.335 c 1.93,0 3.495,1.5652 3.495,3.4949 v 4.7153 c 0,1.93 -1.565,3.4949 -3.495,3.4949"
       style="fill:#eff6f4;fill-opacity:1;fill-rule:nonzero;stroke:none;stroke-width:0.1"
       id="path4022"
       inkscape:export-filename="../Documentos/INGENIERÃA INFORMATICA/3er CURSO/1er CUATRI/interfaces/ep01_gr12/ej/images/memoria-gorro.svg"
       inkscape:export-xdpi="96"
       inkscape:export-ydpi="96" />
    <path
       d="m 409.577,90.323 c -1.632,0 -2.96,-1.3269 -2.96,-2.9589 V 82.65 c 0,-1.6328 1.328,-2.9609 2.96,-2.9609 h 39.335 c 1.633,0 2.961,1.3281 2.961,2.9609 v 4.7141 c 0,1.632 -1.328,2.9589 -2.961,2.9589 z m 39.335,-11.7039 h -39.335 c -2.222,0 -4.03,1.8079 -4.03,4.0309 v 4.7141 c 0,2.2218 1.808,4.03 4.03,4.03 h 39.335 c 2.223,0 4.031,-1.8082 4.031,-4.03 V 82.65 c 0,-2.223 -1.808,-4.0309 -4.031,-4.0309"
       style="fill:#562630;fill-opacity:1;fill-rule:nonzero;stroke:none;stroke-width:0.1"
       id="path4024" />
    <path
       d="m 429.245,123.054 c -9.808,0 -17.759,-7.951 -17.759,-17.759 V 90.859 h 35.519 v 14.436 c 0,9.808 -7.952,17.759 -17.76,17.759"
       style="fill:#bf3636;fill-opacity:1;fill-rule:nonzero;stroke:none;stroke-width:0.1"
       id="path4026" />
    <path
       d="m 412.02,91.3941 h 34.45 v 13.9009 c 0,9.498 -7.727,17.224 -17.225,17.224 -9.497,0 -17.225,-7.726 -17.225,-17.224 z m 35.52,-1.0711 h -36.59 v 14.972 c 0,10.087 8.207,18.294 18.295,18.294 10.088,0 18.295,-8.207 18.295,-18.294 V 90.323"
       style="fill:#562630;fill-opacity:1;fill-rule:nonzero;stroke:none;stroke-width:0.1"
       id="path4028" />
    <path
       d="m 436.083,128.194 c 0,-3.777 -3.062,-6.838 -6.838,-6.838 -3.776,0 -6.837,3.061 -6.837,6.838 0,3.776 3.061,6.837 6.837,6.837 3.776,0 6.838,-3.061 6.838,-6.837"
       style="fill:#eff6f4;fill-opacity:1;fill-rule:nonzero;stroke:none;stroke-width:0.1"
       id="path4030" />
    <path
       d="m 429.245,134.496 c -3.476,0 -6.303,-2.827 -6.303,-6.302 0,-3.476 2.827,-6.303 6.303,-6.303 3.476,0 6.303,2.827 6.303,6.303 0,3.475 -2.827,6.302 -6.303,6.302 z m 0,-13.675 c -4.065,0 -7.373,3.307 -7.373,7.373 0,4.065 3.308,7.372 7.373,7.372 4.065,0 7.373,-3.307 7.373,-7.372 0,-4.066 -3.308,-7.373 -7.373,-7.373"
       style="fill:#562630;fill-opacity:1;fill-rule:nonzero;stroke:none;stroke-width:0.1"
       id="path4032" />
  </g>
</svg>
