<?xml version="1.0" encoding="UTF-8" standalone="no"?>
<!-- Created with Inkscape (http://www.inkscape.org/) -->

<svg
   version="1.1"
   id="svg3776"
   width="88.831535"
   height="85.042664"
   viewBox="0 0 88.831536 85.042664"
   sodipodi:docname="1342608_179886-OWY32G-746.eps"
   xmlns:inkscape="http://www.inkscape.org/namespaces/inkscape"
   xmlns:sodipodi="http://sodipodi.sourceforge.net/DTD/sodipodi-0.dtd"
   xmlns="http://www.w3.org/2000/svg"
   xmlns:svg="http://www.w3.org/2000/svg">
  <defs
     id="defs3780" />
  <sodipodi:namedview
     id="namedview3778"
     pagecolor="#ffffff"
     bordercolor="#000000"
     borderopacity="0.25"
     inkscape:showpageshadow="2"
     inkscape:pageopacity="0.0"
     inkscape:pagecheckerboard="0"
     inkscape:deskcolor="#d1d1d1"
     showgrid="false" />
  <g
     id="g3784"
     inkscape:groupmode="layer"
     inkscape:label="Page 1"
     transform="matrix(1.3333333,0,0,-1.3333333,-55.567589,185.312)">
    <path
       d="m 104.531,117.34 -18.0763,2.626 -8.084,16.38 c -1.384,2.804 -5.3824,2.804 -6.7664,0 l -8.084,-16.38 -18.0758,-2.626 c -3.0949,-0.45 -4.3304,-4.253 -2.091,-6.435 L 56.4336,98.1551 53.3457,80.152 c -0.5285,-3.0821 2.7063,-5.4321 5.4742,-3.977 l 16.168,8.4992 16.1676,-8.4992 c 2.7675,-1.4559 6.0027,0.8949 5.4738,3.977 l -3.0875,18.0031 13.0802,12.7499 c 2.239,2.182 1.003,5.985 -2.091,6.435"
       style="fill:#d69c42;fill-opacity:1;fill-rule:nonzero;stroke:none;stroke-width:0.1"
       id="path3916"
       inkscape:export-filename="../Documentos/INGENIERÃA INFORMATICA/3er CURSO/1er CUATRI/interfaces/ep01_gr12/ej/images/memoria-estrella.svg"
       inkscape:export-xdpi="96"
       inkscape:export-ydpi="96" />
    <path
       d="M 74.9875,85.2789 91.4047,76.648 c 1.1152,-0.5871 2.3898,-0.4921 3.4094,0.2469 1.0195,0.7403 1.5011,1.9242 1.2879,3.166 l -3.1352,18.2801 13.2812,12.947 c 0.902,0.88 1.209,2.12 0.819,3.319 -0.389,1.198 -1.367,2.022 -2.613,2.203 l -18.3548,2.668 -8.2078,16.631 c -0.5582,1.131 -1.6434,1.805 -2.9039,1.805 -1.2602,0 -2.3457,-0.674 -2.9035,-1.805 L 63.8758,119.478 45.5215,116.81 c -1.2473,-0.181 -2.2246,-1.005 -2.6137,-2.203 -0.3898,-1.199 -0.0836,-2.439 0.8192,-3.319 L 57.0082,98.341 53.873,80.0609 c -0.2132,-1.2418 0.2688,-2.4257 1.2879,-3.166 1.0196,-0.739 2.2938,-0.834 3.4102,-0.2469 z M 92.9145,75.202 c -0.6844,0 -1.3727,0.1652 -2.0079,0.4992 L 74.9875,84.0711 59.0691,75.7012 C 57.607,74.9332 55.8672,75.0582 54.532,76.0289 53.1961,77 52.5391,78.6148 52.8188,80.243 L 55.8586,97.9672 42.9801,110.52 c -1.1832,1.154 -1.6008,2.846 -1.0903,4.418 0.5106,1.571 1.843,2.694 3.4782,2.931 l 17.7972,2.587 7.9594,16.127 c 0.7309,1.481 2.2113,2.401 3.8629,2.401 1.652,0 3.132,-0.92 3.8633,-2.401 l 7.959,-16.127 17.7972,-2.587 c 1.635,-0.237 2.967,-1.36 3.478,-2.931 0.511,-1.572 0.093,-3.264 -1.09,-4.418 L 94.1164,97.9672 97.1566,80.243 C 97.4359,78.6148 96.7793,77 95.443,76.0289 94.6883,75.4801 93.8047,75.202 92.9145,75.202"
       style="fill:#562630;fill-opacity:1;fill-rule:nonzero;stroke:none;stroke-width:0.1"
       id="path3918" />
    <path
       d="m 74.9875,138.449 c -1.3457,0 -2.691,-0.701 -3.3832,-2.103 l -8.084,-16.38 11.4672,-12.057 v 30.54"
       style="fill:#eff6f4;fill-opacity:1;fill-rule:nonzero;stroke:none;stroke-width:0.1"
       id="path3920" />
    <path
       d="m 64.166,120.065 10.2863,-10.817 v 28.624 c -1.0281,-0.163 -1.8914,-0.796 -2.3683,-1.763 z m 11.3567,-13.495 -12.6473,13.298 8.2492,16.715 c 0.7309,1.481 2.2113,2.401 3.8629,2.401 h 0.5352 V 106.57"
       style="fill:#562630;fill-opacity:1;fill-rule:nonzero;stroke:none;stroke-width:0.1"
       id="path3922" />
    <path
       d="m 42.5941,115.182 c -0.6269,-1.361 -0.4863,-3.063 0.759,-4.277 l 13.0805,-12.7499 18.5539,9.7539 -32.3934,7.273"
       style="fill:#eff6f4;fill-opacity:1;fill-rule:nonzero;stroke:none;stroke-width:0.1"
       id="path3924" />
    <path
       d="m 42.9262,114.56 c -0.3121,-0.983 -0.2407,-2.257 0.8004,-3.271 L 56.5285,98.8082 73.4508,107.705 Z M 56.3383,97.5 42.9793,110.522 c -1.3078,1.275 -1.65,3.193 -0.8711,4.884 l 0.1809,0.393 0.4222,-0.094 33.8129,-7.592 L 56.3383,97.5"
       style="fill:#562630;fill-opacity:1;fill-rule:nonzero;stroke:none;stroke-width:0.1"
       id="path3926" />
    <path
       d="m 54.6645,76.6352 c 1.0996,-0.9141 2.6851,-1.2332 4.1554,-0.4602 l 16.168,8.4992 -4e-4,23.2348 -20.323,-31.2738"
       style="fill:#eff6f4;fill-opacity:1;fill-rule:nonzero;stroke:none;stroke-width:0.1"
       id="path3928" />
    <path
       d="m 55.3895,76.7691 c 0.973,-0.605 2.1543,-0.6601 3.1816,-0.1211 l 15.8812,8.35 v 21.106 z m 1.6914,-1.566 c -0.9782,0 -1.9469,0.3449 -2.759,1.0211 l -0.3656,0.3039 21.5664,33.1859 V 84.352 L 59.0691,75.7012 c -0.6355,-0.3332 -1.314,-0.4981 -1.9882,-0.4981"
       style="fill:#562630;fill-opacity:1;fill-rule:nonzero;stroke:none;stroke-width:0.1"
       id="path3930" />
    <path
       d="m 95.3109,76.6352 c 0.9707,0.8058 1.5664,2.0718 1.3184,3.5168 L 93.5418,98.1551 74.9875,107.909 95.3109,76.6352"
       style="fill:#eff6f4;fill-opacity:1;fill-rule:nonzero;stroke:none;stroke-width:0.1"
       id="path3932" />
    <path
       d="M 76.5535,106.481 95.4027,77.475 c 0.6102,0.7191 0.8629,1.6352 0.6993,2.5859 L 93.059,97.8031 Z M 95.1902,75.8391 73.4215,109.336 94.0242,98.5051 97.1566,80.243 c 0.2606,-1.518 -0.3015,-3.02 -1.5039,-4.0188 l -0.4625,-0.3851"
       style="fill:#562630;fill-opacity:1;fill-rule:nonzero;stroke:none;stroke-width:0.1"
       id="path3934" />
    <path
       d="m 107.381,115.182 c -0.5,1.085 -1.478,1.958 -2.85,2.158 l -18.0763,2.626 -11.4672,-12.057 32.3935,7.273"
       style="fill:#eff6f4;fill-opacity:1;fill-rule:nonzero;stroke:none;stroke-width:0.1"
       id="path3936" />
    <path
       d="m 86.6516,119.397 -10.0621,-10.58 29.9625,6.728 c -0.503,0.69 -1.24,1.14 -2.098,1.265 z m -13.2661,-12.396 12.8719,13.535 18.3506,-2.667 c 1.447,-0.211 2.634,-1.107 3.259,-2.463 l 0.277,-0.601 -34.7585,-7.804"
       style="fill:#562630;fill-opacity:1;fill-rule:nonzero;stroke:none;stroke-width:0.1"
       id="path3938" />
  </g>
</svg>
