<?xml version="1.0" encoding="UTF-8" standalone="no"?>
<!-- Created with Inkscape (http://www.inkscape.org/) -->

<svg
   version="1.1"
   id="svg3776"
   width="58.948013"
   height="87.517334"
   viewBox="0 0 58.948014 87.517334"
   sodipodi:docname="1342608_179886-OWY32G-746.eps"
   xmlns:inkscape="http://www.inkscape.org/namespaces/inkscape"
   xmlns:sodipodi="http://sodipodi.sourceforge.net/DTD/sodipodi-0.dtd"
   xmlns="http://www.w3.org/2000/svg"
   xmlns:svg="http://www.w3.org/2000/svg">
  <defs
     id="defs3780" />
  <sodipodi:namedview
     id="namedview3778"
     pagecolor="#ffffff"
     bordercolor="#000000"
     borderopacity="0.25"
     inkscape:showpageshadow="2"
     inkscape:pageopacity="0.0"
     inkscape:pagecheckerboard="0"
     inkscape:deskcolor="#d1d1d1"
     showgrid="false" />
  <g
     id="g3784"
     inkscape:groupmode="layer"
     inkscape:label="Page 1"
     transform="matrix(1.3333333,0,0,-1.3333333,-227.95732,501.27733)">
    <path
       d="m 189.42,367.881 h 7.306 v 3.354 c 0,2.014 -1.638,3.653 -3.652,3.653 -2.015,0 -3.654,-1.639 -3.654,-3.653 z m 8.376,-1.071 h -9.446 v 4.425 c 0,2.605 2.12,4.723 4.724,4.723 2.604,0 4.722,-2.118 4.722,-4.723 v -4.425"
       style="fill:#562630;fill-opacity:1;fill-rule:nonzero;stroke:none;stroke-width:0.1"
       id="path3820"
       inkscape:export-filename="../Documentos/INGENIERÃA INFORMATICA/3er CURSO/1er CUATRI/interfaces/ep01_gr12/ej/images/memoria-campana.svg"
       inkscape:export-xdpi="96"
       inkscape:export-ydpi="96" />
    <path
       d="m 197.316,368.58 h -8.485 c -1.852,0 -3.353,-1.501 -3.353,-3.353 v -6.165 h 15.191 v 6.165 c 0,1.852 -1.501,3.353 -3.353,3.353"
       style="fill:#d69c42;fill-opacity:1;fill-rule:nonzero;stroke:none;stroke-width:0.1"
       id="path3822" />
    <path
       d="m 186.013,359.597 h 14.121 v 5.63 c 0,1.554 -1.264,2.819 -2.818,2.819 h -8.485 c -1.554,0 -2.818,-1.265 -2.818,-2.819 z m 15.191,-1.07 h -16.261 v 6.7 c 0,2.145 1.745,3.889 3.888,3.889 h 8.485 c 2.144,0 3.888,-1.744 3.888,-3.889 v -6.7"
       style="fill:#562630;fill-opacity:1;fill-rule:nonzero;stroke:none;stroke-width:0.1"
       id="path3824" />
    <path
       d="m 201.069,318.851 c 0,-4.416 -3.579,-7.996 -7.996,-7.996 -4.416,0 -7.996,3.58 -7.996,7.996 0,4.417 3.58,7.996 7.996,7.996 4.417,0 7.996,-3.579 7.996,-7.996"
       style="fill:#d69c42;fill-opacity:1;fill-rule:nonzero;stroke:none;stroke-width:0.1"
       id="path3826" />
    <path
       d="m 193.074,326.312 c -4.115,0 -7.462,-3.347 -7.462,-7.461 0,-4.113 3.347,-7.46 7.462,-7.46 4.113,0 7.461,3.347 7.461,7.46 0,4.114 -3.348,7.461 -7.461,7.461 z m 0,-15.992 c -4.705,0 -8.532,3.828 -8.532,8.531 0,4.704 3.827,8.531 8.532,8.531 4.704,0 8.531,-3.827 8.531,-8.531 0,-4.703 -3.827,-8.531 -8.531,-8.531"
       style="fill:#562630;fill-opacity:1;fill-rule:nonzero;stroke:none;stroke-width:0.1"
       id="path3828" />
    <path
       d="M 212.757,326.281 H 173.39 c -1.042,0 -1.887,-0.845 -1.887,-1.887 v -3.838 c 0,-1.042 0.845,-1.887 1.887,-1.887 h 39.367 c 1.042,0 1.887,0.845 1.887,1.887 v 3.838 c 0,1.042 -0.845,1.887 -1.887,1.887"
       style="fill:#d69c42;fill-opacity:1;fill-rule:nonzero;stroke:none;stroke-width:0.1"
       id="path3830" />
    <path
       d="m 173.39,325.746 c -0.746,0 -1.352,-0.606 -1.352,-1.352 v -3.838 c 0,-0.745 0.606,-1.351 1.352,-1.351 h 39.367 c 0.746,0 1.352,0.606 1.352,1.351 v 3.838 c 0,0.746 -0.606,1.352 -1.352,1.352 z m 39.367,-7.612 H 173.39 c -1.336,0 -2.422,1.086 -2.422,2.422 v 3.838 c 0,1.336 1.086,2.422 2.422,2.422 h 39.367 c 1.335,0 2.422,-1.086 2.422,-2.422 v -3.838 c 0,-1.336 -1.087,-2.422 -2.422,-2.422"
       style="fill:#562630;fill-opacity:1;fill-rule:nonzero;stroke:none;stroke-width:0.1"
       id="path3832" />
    <path
       d="m 193.073,360.018 c -10.278,0 -18.609,-8.332 -18.609,-18.61 v -15.127 h 37.219 v 15.127 c 0,10.278 -8.331,18.61 -18.61,18.61"
       style="fill:#d69c42;fill-opacity:1;fill-rule:nonzero;stroke:none;stroke-width:0.1"
       id="path3834" />
    <path
       d="m 174.998,326.816 h 36.15 v 14.592 c 0,9.966 -8.108,18.074 -18.074,18.074 -9.967,0 -18.076,-8.108 -18.076,-18.074 z m 37.22,-1.07 h -38.29 v 15.662 c 0,10.556 8.589,19.145 19.146,19.145 10.556,0 19.144,-8.589 19.144,-19.145 v -15.662"
       style="fill:#562630;fill-opacity:1;fill-rule:nonzero;stroke:none;stroke-width:0.1"
       id="path3836" />
    <path
       d="m 202.427,352.997 c 0.979,3.655 4.737,5.825 8.393,4.845 v 0 c 0.68,-0.182 1.379,0.222 1.562,0.902 l 1.775,6.627 c 0.182,0.68 -0.221,1.379 -0.902,1.562 l -6.626,1.775 c -0.681,0.182 -1.38,-0.221 -1.562,-0.902 v 0 c -0.98,-3.655 -4.737,-5.825 -8.393,-4.845 v 0 c -0.68,0.182 -1.38,-0.222 -1.562,-0.902 l -1.775,-6.627 c -0.183,-0.68 0.221,-1.379 0.901,-1.562 l 6.627,-1.775 c 0.68,-0.182 1.379,0.221 1.562,0.902 v 0"
       style="fill:#83a637;fill-opacity:1;fill-rule:nonzero;stroke:none;stroke-width:0.1"
       id="path3838" />
    <path
       d="m 196.344,362.469 c -0.327,0 -0.626,-0.218 -0.716,-0.549 l -1.774,-6.626 c -0.106,-0.394 0.128,-0.802 0.522,-0.906 l 6.628,-1.776 c 0.391,-0.112 0.801,0.13 0.907,0.524 1.054,3.933 5.115,6.275 9.047,5.224 0.194,-0.054 0.391,-0.027 0.562,0.073 0.172,0.098 0.294,0.258 0.344,0.449 l 1.776,6.627 c 0.052,0.191 0.026,0.39 -0.074,0.562 -0.099,0.171 -0.259,0.293 -0.45,0.345 l -6.627,1.775 c -0.394,0.11 -0.8,-0.129 -0.905,-0.523 -1.054,-3.934 -5.116,-6.275 -9.048,-5.225 -0.065,0.018 -0.128,0.026 -0.192,0.026 z m 4.85,-10.953 c -0.155,0 -0.311,0.02 -0.467,0.061 l -6.628,1.776 c -0.964,0.258 -1.537,1.253 -1.28,2.218 l 1.775,6.626 c 0.127,0.468 0.426,0.857 0.845,1.1 0.419,0.242 0.905,0.308 1.374,0.18 3.364,-0.896 6.836,1.101 7.737,4.467 0.259,0.964 1.258,1.538 2.216,1.282 l 6.628,-1.776 c 0.467,-0.126 0.857,-0.425 1.099,-0.845 0.242,-0.418 0.307,-0.907 0.18,-1.374 l -1.774,-6.626 c -0.126,-0.467 -0.425,-0.857 -0.844,-1.099 -0.419,-0.242 -0.907,-0.307 -1.374,-0.18 -3.362,0.895 -6.836,-1.102 -7.737,-4.467 l -10e-4,-10e-4 c -0.216,-0.808 -0.951,-1.342 -1.749,-1.342"
       style="fill:#562630;fill-opacity:1;fill-rule:nonzero;stroke:none;stroke-width:0.1"
       id="path3840" />
    <path
       d="m 193.731,354.002 -0.535,0.926 14.308,8.26 0.535,-0.926 -14.308,-8.26"
       style="fill:#562630;fill-opacity:1;fill-rule:nonzero;stroke:none;stroke-width:0.1"
       id="path3842" />
    <path
       d="m 183.72,352.997 c -0.98,3.655 -4.737,5.825 -8.393,4.845 v 0 c -0.68,-0.182 -1.379,0.222 -1.562,0.902 l -1.775,6.627 c -0.183,0.68 0.221,1.379 0.901,1.562 l 6.627,1.775 c 0.68,0.182 1.38,-0.221 1.562,-0.902 v 0 c 0.979,-3.655 4.737,-5.825 8.393,-4.845 v 0 c 0.68,0.182 1.379,-0.222 1.562,-0.902 l 1.775,-6.627 c 0.183,-0.68 -0.221,-1.379 -0.901,-1.562 l -6.627,-1.775 c -0.68,-0.182 -1.38,0.221 -1.562,0.902 v 0"
       style="fill:#83a637;fill-opacity:1;fill-rule:nonzero;stroke:none;stroke-width:0.1"
       id="path3844" />
    <path
       d="m 177.098,358.612 c 3.263,0 6.256,-2.18 7.14,-5.476 v -0.001 c 0.104,-0.394 0.51,-0.637 0.906,-0.523 l 6.626,1.776 c 0.395,0.104 0.629,0.512 0.523,0.907 l -1.775,6.625 c -0.106,0.394 -0.51,0.627 -0.906,0.524 -3.933,-1.057 -7.994,1.29 -9.05,5.223 -0.104,0.395 -0.511,0.635 -0.906,0.524 l -6.625,-1.776 c -0.394,-0.105 -0.63,-0.512 -0.524,-0.907 l 1.776,-6.625 c 0.05,-0.192 0.172,-0.352 0.343,-0.45 0.171,-0.099 0.372,-0.124 0.563,-0.074 0.637,0.171 1.279,0.253 1.909,0.253 z m 7.855,-7.096 c -0.8,0 -1.533,0.535 -1.75,1.343 -0.902,3.363 -4.368,5.368 -7.737,4.466 -0.466,-0.124 -0.956,-0.06 -1.375,0.181 -0.419,0.243 -0.718,0.632 -0.843,1.1 l -1.776,6.625 c -0.257,0.965 0.317,1.96 1.281,2.218 l 6.626,1.777 c 0.968,0.251 1.96,-0.317 2.218,-1.282 0.902,-3.363 4.369,-5.369 7.738,-4.466 0.464,0.125 0.953,0.061 1.373,-0.181 0.419,-0.243 0.718,-0.632 0.843,-1.1 l 1.777,-6.625 c 0.257,-0.966 -0.317,-1.961 -1.281,-2.219 l -6.626,-1.776 c -0.157,-0.04 -0.314,-0.061 -0.468,-0.061"
       style="fill:#562630;fill-opacity:1;fill-rule:nonzero;stroke:none;stroke-width:0.1"
       id="path3846" />
    <path
       d="m 192.415,354.002 -14.307,8.26 0.536,0.926 14.307,-8.26 -0.536,-0.926"
       style="fill:#562630;fill-opacity:1;fill-rule:nonzero;stroke:none;stroke-width:0.1"
       id="path3848" />
    <path
       d="m 194.294,351.389 c -1.747,1.747 -1.747,4.58 0,6.326 1.747,1.748 4.58,1.748 6.327,0 1.747,-1.746 1.747,-4.579 0,-6.326 -1.747,-1.747 -4.58,-1.747 -6.327,0"
       style="fill:#bf3636;fill-opacity:1;fill-rule:nonzero;stroke:none;stroke-width:0.1"
       id="path3850" />
    <path
       d="m 197.458,358.491 c -1.052,0 -2.041,-0.41 -2.785,-1.154 -0.744,-0.744 -1.154,-1.733 -1.154,-2.784 0,-1.053 0.41,-2.041 1.154,-2.785 v 0 c 1.488,-1.487 4.081,-1.489 5.569,0 0.744,0.744 1.154,1.732 1.154,2.785 0,1.051 -0.41,2.04 -1.154,2.784 -0.744,0.744 -1.733,1.154 -2.784,1.154 z m 0,-8.947 c -1.339,0 -2.596,0.521 -3.542,1.467 v 0 0 0 c -0.946,0.946 -1.467,2.203 -1.467,3.542 0,1.338 0.521,2.595 1.467,3.541 0.946,0.945 2.203,1.467 3.542,1.467 1.338,0 2.595,-0.522 3.541,-1.467 0.945,-0.946 1.467,-2.203 1.467,-3.541 0,-1.339 -0.522,-2.596 -1.467,-3.542 -0.946,-0.946 -2.203,-1.467 -3.541,-1.467"
       style="fill:#562630;fill-opacity:1;fill-rule:nonzero;stroke:none;stroke-width:0.1"
       id="path3852" />
    <path
       d="m 191.853,351.389 c -1.747,-1.747 -4.58,-1.747 -6.327,0 -1.747,1.747 -1.747,4.58 0,6.326 1.747,1.748 4.58,1.748 6.327,0 1.747,-1.746 1.747,-4.579 0,-6.326"
       style="fill:#bf3636;fill-opacity:1;fill-rule:nonzero;stroke:none;stroke-width:0.1"
       id="path3854" />
    <path
       d="m 188.69,358.491 c -1.053,0 -2.041,-0.41 -2.785,-1.154 -0.744,-0.744 -1.154,-1.733 -1.154,-2.784 0,-1.053 0.41,-2.041 1.154,-2.785 1.488,-1.487 4.081,-1.489 5.569,0 v 0 c 0.744,0.744 1.154,1.732 1.154,2.785 0,1.051 -0.41,2.04 -1.154,2.784 -0.744,0.744 -1.733,1.154 -2.784,1.154 z m 0,-8.947 c -1.339,0 -2.596,0.521 -3.542,1.467 -0.946,0.946 -1.467,2.203 -1.467,3.542 0,1.338 0.521,2.595 1.467,3.541 0.946,0.945 2.203,1.467 3.542,1.467 1.337,0 2.595,-0.522 3.54,-1.467 0.946,-0.946 1.468,-2.203 1.468,-3.541 0,-1.339 -0.522,-2.596 -1.468,-3.542 v 0 0 0 c -0.945,-0.946 -2.203,-1.467 -3.54,-1.467"
       style="fill:#562630;fill-opacity:1;fill-rule:nonzero;stroke:none;stroke-width:0.1"
       id="path3856" />
    <path
       d="m 193.073,356.131 c -2.47,0 -4.473,2.003 -4.473,4.474 0,2.47 2.003,4.473 4.473,4.473 2.471,0 4.474,-2.003 4.474,-4.473 0,-2.471 -2.003,-4.474 -4.474,-4.474"
       style="fill:#bf3636;fill-opacity:1;fill-rule:nonzero;stroke:none;stroke-width:0.1"
       id="path3858" />
    <path
       d="m 193.074,364.543 c -2.172,0 -3.939,-1.767 -3.939,-3.938 0,-2.172 1.767,-3.939 3.939,-3.939 2.171,0 3.938,1.767 3.938,3.939 0,2.171 -1.767,3.938 -3.938,3.938 z m 0,-8.947 c -2.762,0 -5.009,2.247 -5.009,5.009 0,2.761 2.247,5.008 5.009,5.008 2.761,0 5.008,-2.247 5.008,-5.008 0,-2.762 -2.247,-5.009 -5.008,-5.009"
       style="fill:#562630;fill-opacity:1;fill-rule:nonzero;stroke:none;stroke-width:0.1"
       id="path3860" />
  </g>
</svg>
