<?xml version="1.0" encoding="UTF-8" standalone="no"?>
<!-- Created with Inkscape (http://www.inkscape.org/) -->

<svg
   version="1.1"
   id="svg15367"
   width="666.66663"
   height="666.66669"
   viewBox="0 0 666.66663 666.66669"
   sodipodi:docname="172780529_10004174.eps"
   xmlns:inkscape="http://www.inkscape.org/namespaces/inkscape"
   xmlns:sodipodi="http://sodipodi.sourceforge.net/DTD/sodipodi-0.dtd"
   xmlns="http://www.w3.org/2000/svg"
   xmlns:svg="http://www.w3.org/2000/svg">
  <defs
     id="defs15371" />
  <sodipodi:namedview
     id="namedview15369"
     pagecolor="#ffffff"
     bordercolor="#000000"
     borderopacity="0.25"
     inkscape:showpageshadow="2"
     inkscape:pageopacity="0.0"
     inkscape:pagecheckerboard="0"
     inkscape:deskcolor="#d1d1d1"
     showgrid="true">
    <inkscape:grid
       type="xygrid"
       id="grid19220" />
  </sodipodi:namedview>
  <g
     id="g15375"
     inkscape:groupmode="layer"
     inkscape:label="Page 1"
     transform="matrix(1.3333333,0,0,-1.3333333,0,666.66665)">
    <g
       id="g15377"
       transform="scale(0.1)">
      <path
         d="M 5000,5000 V 0 H 0 v 5000 h 5000"
         style="fill:#f2f7ef;fill-opacity:1;fill-rule:evenodd;stroke:none"
         id="path15379" />
      <path
         d="m 2478.1963,1381.6375 c 696.5226,0 1261.1649,-159.7462 1261.1649,-356.7986 0,-197.03879 -564.6423,-356.78503 -1261.1649,-356.78503 -696.5226,0 -1261.1643,159.74624 -1261.1643,356.78503 0,197.0524 564.6417,356.7986 1261.1643,356.7986"
         style="fill:#a8b99c;fill-opacity:1;fill-rule:evenodd;stroke:none;stroke-width:1.12535"
         id="path1870" />
      <path
         d="m 3303.5431,1441.7486 c 89.1257,-1.5113 126.5521,-150.3401 129.2574,-222.2078 -75.8604,-99.0887 -242.4136,-120.0034 -355.5511,-161.7397 -111.7569,-32.0531 -227.5252,-43.49 -342.3045,-59.03155 -115.0966,-21.717 -231.9842,-27.5941 -348.9465,-25.5978 -134.7613,2.8733 -269.9704,27.01575 -400.4964,59.88985 -65.9161,20.1685 -134.1643,33.8256 -193.1025,71.4386 -18.508,11.4556 -38.8631,22.7059 -57.2218,35.9712 -6.642,-5.933 -16.0826,-8.4891 -26.6799,-3.8061 -54.3112,26.7172 -151.9633,68.3042 -111.7382,143.81 27.5008,62.763 53.1545,169.9676 133.7538,177.2625 45.1505,159.5941 73.8453,323.1995 120.2086,482.5137 4.5897,18.6759 23.6201,23.6947 37.6317,17.8923 6.4554,-0.1865 13.06,-2.4627 18.5453,-6.5487 38.4712,-17.5004 77.6328,-33.4897 115.6003,-52.091 100.8797,-47.3707 203.6252,-79.3119 309.8035,-109.0143 88.4167,-13.3026 178.6991,0.1306 266.6121,11.9407 119.5929,16.7915 238.3463,45.5796 347.2487,98.9207 44.3482,15.0004 165.2285,115.0219 196.1809,91.3272 18.8438,-10.6533 18.6759,-33.8442 22.6126,-52.5948 7.9666,-37.2025 22.1088,-72.6513 32.9673,-109.0516 41.2325,-127.8954 53.5463,-264.9888 105.6187,-389.2834"
         style="fill:#a86c46;fill-opacity:1;fill-rule:evenodd;stroke:none;stroke-width:1.86572"
         id="path15713" />
      <path
         d="m 3362.6493,1411.5798 c 23.2842,-62.5018 74.4424,-117.3541 76.3267,-186.1433 -30.5792,-120.9736 -305.1206,-171.4228 -414.2841,-196.5914 -36.8294,8.8995 -3.2837,53.6022 -7.6122,78.491 -2.3508,40.5795 -9.7017,92.484 -43.8631,118.4922 -33.9376,-1.6419 -26.7732,34.8704 -1.7911,36.3256 -5.4853,27.0717 -2.8733,57.1658 -7.6495,84.1069 -13.6385,100.8424 -19.2543,206.0879 -63.0802,299.4675 -18.452,32.4262 -53.2664,67.2407 -91.4018,75.7857 -127.3544,-29.4411 -259.0745,-41.1392 -389.4514,-37.8556 -133.5299,8.2465 -269.3733,31.0644 -389.0222,93.6408 -23.5081,12.5003 -50.7291,25.2059 -77.5395,39.516 -33.9935,-29.8329 -53.9381,-73.4163 -71.0841,-116.0481 -27.165,-66.0093 -43.3035,-135.5822 -58.2106,-205.1924 -9.4406,-39.3854 -19.1983,-78.6589 -28.7135,-118.0444 -0.709,-21.1013 -24.5903,-42.5571 -38.5272,-17.7057 -2.5001,6.5114 -1.9777,13.4705 -1.3807,20.3178 -38.1167,7.0337 -3.3956,94.7415 -1.6978,121.7945 12.2951,81.9239 29.1986,165.5084 57.371,243.5703 2.0337,37.2772 12.7243,74.2745 17.9483,111.3465 0.9329,14.0302 6.2129,36.5868 19.3289,40.7101 -3.0598,4.1978 -5.9143,8.545 -8.4704,13.0227 -3.0784,10.2988 1.2687,18.0416 7.8361,21.9223 2.4254,15.5601 7.2203,32.3703 25.1313,31.6986 120.6564,-60.5987 242.5815,-128.3805 377.5294,-153.6797 196.0876,-36.3256 403.3136,-25.0194 591.9384,38.6765 58.4158,17.2393 111.7009,46.9416 162.7285,79.6851 35.5234,22.7245 71.9983,43.9191 107.4098,66.7929 1.7538,1.0448 3.5075,1.7351 5.2053,2.1269 8.2092,7.7055 17.5005,16.2692 29.1053,11.2877 15.4669,-7.0338 11.0638,-26.7545 15.1124,-40.3556 15.8027,-64.5914 29.3665,-129.7425 39.6467,-195.472 8.8995,-54.3486 16.5116,-108.977 34.3853,-161.3106 15.5415,-55.7292 39.7959,-109.0889 54.8523,-164.874 4.6083,3.0038 10.4853,3.9553 15.784,1.7351 20.2991,-9.2167 45.3185,-15.8587 56.1397,-37.2399 z m -1478.139,444.8634 c 1.6045,0.3172 3.265,0.3918 4.9068,0.2612 -1.2127,0.9329 -2.4068,1.8657 -3.6008,2.8172 -0.3918,-1.0634 -0.8396,-2.0896 -1.306,-3.0784 v 0"
         style="fill:#85512f;fill-opacity:1;fill-rule:evenodd;stroke:none;stroke-width:1.86572"
         id="path15715" />
      <path
         d="m 1660.0263,1180.7151 c -0.2985,0.7649 -0.5784,1.5298 -0.8396,2.2761 -15.075,-6.0822 -27.5567,9.4219 -25.5977,23.8813 -3.8994,0.4851 -7.6308,2.1829 -10.2988,4.9628 -0.5411,-0.075 -1.1008,-0.1119 -1.6419,-0.1492 -1.7164,-0.056 -3.3583,0.1306 -4.9441,0.5224 -30.6352,-5.9517 -23.7507,28.6015 -17.6125,46.867 7.3323,28.3403 16.5863,56.1583 29.4598,82.465 21.232,40.8407 46.6431,79.6291 73.6588,116.8317 21.3812,18.1535 41.1766,-9.8697 24.1425,-29.6277 9.4406,-6.586 9.4219,-20.0752 3.6941,-29.124 8.657,-3.3396 13.0228,-13.5825 10.3548,-22.314 4.0486,-0.3732 7.6681,-1.9217 10.4854,-4.3845 35.3181,32.7621 63.2294,-16.6423 26.456,-24.9447 -41.5311,-31.0457 -57.6323,-85.4689 -75.8604,-131.9814 -6.1756,-15.6348 -2.1642,-43.8072 -24.6649,-45.4864 -6.7726,-0.1679 -14.2168,3.6569 -16.7915,10.2056"
         style="fill:#85512f;fill-opacity:1;fill-rule:evenodd;stroke:none;stroke-width:1.86572"
         id="path15717" />
      <path
         d="m 2536.7116,1214.3914 c -219.3159,11.7727 -444.3596,24.8701 -651.3244,104.35 -35.9712,16.3437 -69.9647,37.5383 -101.9805,60.5614 -17.0154,14.9817 6.1755,42.0161 23.5454,26.6052 42.3333,-29.5344 87.204,-56.5501 137.1681,-70.8789 123.5856,-40.4862 252.9922,-60.0017 382.287,-70.6363 200.6773,-22.0715 404.0413,-20.2431 602.1066,21.7544 42.837,9.2539 84.9091,21.3065 126.9626,33.4897 4.627,1.3247 9.3286,1.2314 13.6944,-0.9702 13.5825,-6.3061 12.4817,-28.5269 -2.3508,-32.7061 -31.8293,-9.0861 -63.5839,-18.3214 -95.7304,-26.3441 -142.1495,-33.2658 -288.497,-47.5013 -434.378,-45.2251"
         style="fill:#85512f;fill-opacity:1;fill-rule:evenodd;stroke:none;stroke-width:1.86572"
         id="path15719" />
      <path
         d="m 2363.8336,984.42215 c -213.5135,14.8885 -432.9787,51.51265 -623.7117,153.00805 -22.2768,15.0191 -129.0709,63.6399 -93.0437,93.4728 17.8176,11.1944 28.2284,-11.698 41.4564,-19.6647 45.2065,-32.5942 95.3385,-57.9867 146.1049,-80.6926 121.4027,-50.2813 250.2869,-76.4387 379.6563,-96.3833 192.9719,-29.7023 388.9476,-10.8026 580.2217,22.1088 104.4246,14.5527 206.2558,40.99 306.7437,72.5394 16.8848,8.657 46.0461,3.1717 36.3817,-21.7544 -16.8475,-20.7468 -47.9865,-24.6275 -71.4946,-35.542 7.5935,-10.0376 1.2314,-25.5604 -11.1197,-27.7433 -64.6847,-13.0041 -129.2574,-26.7359 -193.9048,-39.9825 -13.3959,-3.0225 -25.5044,12.0153 -19.6647,24.3477 -157.5605,-27.0717 -317.3784,-49.47905 -477.6255,-43.71395"
         style="fill:#85512f;fill-opacity:1;fill-rule:evenodd;stroke:none;stroke-width:1.86572"
         id="path15721" />
      <path
         d="m 2374.0204,1158.8114 c -111.0106,5.8211 -221.6854,22.7992 -326.8376,59.7405 -35.8779,11.8661 -71.0654,25.7657 -106.7381,38.2287 -19.1237,7.1271 -53.2664,14.4594 -46.8483,41.3258 11.7354,28.0979 65.8414,-9.8137 86.1031,-11.2503 118.1191,-34.3853 237.2456,-69.2743 361.1857,-72.0356 115.9361,-1.0261 232.1894,-6.3435 347.9576,2.3135 8.7689,0.6903 16.7169,-6.5487 18.0789,-14.9445 2.5933,-22.1461 -22.9111,-21.6797 -38.4713,-22.8178 -23.8626,-2.2948 -48.714,-4.4777 -72.1475,-6.6979 -73.7708,-8.8249 -147.7841,-19.2356 -222.2825,-13.8624"
         style="fill:#d49368;fill-opacity:1;fill-rule:evenodd;stroke:none;stroke-width:1.86572"
         id="path15723" />
      <path
         d="m 2346.9115,1156.5166 c -167.3928,8.0413 -339.991,33.5271 -484.9578,123.0259 -17.5192,15.2803 -75.1701,33.5644 -54.5352,62.3712 21.5865,17.5191 41.9042,-17.5379 61.5689,-25.0007 21.2507,-13.3213 43.0237,-25.803 65.6736,-36.6429 165.042,-78.9574 353.0697,-91.4578 533.4106,-89.2003 86.7749,2.9292 172.5049,15.5602 258.4402,26.8665 21.12,-0.9889 58.0987,20.1498 66.7183,-8.2839 1.5299,-9.4219 -5.1307,-19.0117 -14.7019,-20.3737 -34.1241,-5.0561 -68.3602,-9.198 -102.6149,-13.3026 -108.5478,-17.4632 -219.1107,-24.5529 -329.0018,-19.4595"
         style="fill:#d49368;fill-opacity:1;fill-rule:evenodd;stroke:none;stroke-width:1.86572"
         id="path15725" />
      <path
         d="m 3116.299,2045.4598 c 12.6869,-9.8697 17.3885,-30.43 0.093,-42.8557 -3.433,-2.2949 -6.8846,-4.5897 -10.3175,-6.8659 -7.4629,-8.1532 -16.7355,-15.3736 -26.3254,-17.2766 -62.0726,-40.3556 -125.7498,-78.6963 -193.3637,-108.8277 -127.5596,-50.9157 -264.3545,-79.4986 -402.045,-73.379 -90.0212,-2.2015 -178.6804,10.8026 -264.8769,36.5682 -83.3606,22.9484 -165.8816,49.6096 -243.8875,87.26 -15.0751,8.6569 -47.4267,22.5193 -69.2744,39.3294 -5.821,-2.7986 -12.6123,-3.265 -20.6535,-0.019 -34.4973,18.1535 -3.8621,61.2144 5.1867,86.9614 51.7925,112.0181 154.4447,211.0881 260.1753,272.9369 -30.9151,41.531 -66.3265,81.3082 -86.1219,129.7051 -30.206,96.5513 -30.8591,207.4873 8.0226,301.6877 34.6092,87.4465 112.6898,140.4704 188.233,190.0427 -91.0287,121.8878 -80.2262,259.1678 31.0643,362.8648 34.8518,10.7279 61.2518,-28.1351 93.6781,-35.5607 71.252,-24.7582 146.9817,-17.8737 219.7823,-5.0002 73.1178,0.093 55.3934,-110.3389 46.9416,-158.2694 -9.4219,-40.4116 -32.0718,-102.6522 -62.054,-142.616 98.3797,-40.6168 170.8631,-130.5261 193.3078,-234.8014 73.92,-10.7839 30.7471,-246.7981 6.1755,-295.2696 -3.6381,-9.2167 -7.5375,-18.3214 -11.5861,-27.3702 94.3683,-29.7023 218.4017,-163.5494 261.7238,-221.3869 14.1609,-21.7543 61.9607,-91.2899 76.1216,-137.8583 z m -1186.6382,-72.5767 c -1.3993,-1.2501 -2.9292,-2.4255 -4.5897,-3.4703 1.6419,0.9889 3.2837,2.0523 4.5897,3.4703 v 0"
         style="fill:#ffffff;fill-opacity:1;fill-rule:evenodd;stroke:none;stroke-width:1.86572"
         id="path15727" />
      <path
         d="m 2278.6446,2675.6829 c -26.0642,0.019 -78.3231,47.8745 -32.7994,59.2554 8.1345,0.1492 13.7317,-5.4666 17.2206,-11.9407 12.3511,-15.9892 39.8705,-18.9184 43.6206,5.2987 6.0077,22.2021 40.6915,12.6683 34.2734,-9.4406 -6.7166,-27.9672 -32.6875,-50.3932 -62.3152,-43.1728 z m -51.7739,-249.7832 c -24.8328,2.7239 -52.2589,42.8557 -24.8514,59.3673 11.9593,5.4479 26.4933,-5.4106 24.5156,-18.3587 8.5264,-15.952 28.9187,0.3358 35.8779,10.2615 3.4329,11.1197 11.0637,22.7432 24.5343,18.9184 42.184,-22.1461 -29.4412,-83.0807 -60.0764,-70.1885 z m 7.2764,-167.4675 c -8.5264,4.0113 -21.9223,16.5117 -35.8779,28.3031 24.1984,-16.6796 47.9491,-34.0868 73.0431,-49.3111 -12.6683,6.474 -25.2619,13.2279 -37.1652,21.008 z m 331.5019,-477.4576 c 73.5282,-7.3509 138.586,14.0863 188.3636,52.2217 1.0448,-1.474 2.3694,-2.9852 4.0113,-4.5337 10.616,-8.5451 23.5641,-0.6157 34.3107,3.6381 84.1255,34.6465 166.5345,67.6698 247.0406,111.1226 78.7335,37.7622 126.3468,75.3006 77.9126,165.3405 -28.7321,45.4864 -52.6321,94.9281 -89.7787,134.3135 -37.4824,51.4567 -90.7115,86.1032 -146.2914,115.4324 -12.4631,6.53 -26.0829,10.4667 -38.7325,16.5676 -6.4554,2.4441 -14.6459,7.5375 -23.2096,12.1832 -1.6978,2.071 -3.974,3.918 -6.9591,5.4666 -2.8173,1.0634 -5.4853,1.5112 -8.0413,1.4926 -12.1459,4.3284 -23.3402,3.9553 -29.5344,-10.3175 -0.9702,-3.5076 -0.8023,-6.9405 0.2425,-10.0376 -2.7799,-3.3396 -5.4666,-6.6047 -8.0972,-9.3286 -29.2173,-36.1391 -63.3227,-69.1251 -101.2156,-96.6446 -0.9888,0 -1.9963,0 -3.0038,-0.037 -8.3771,-2.1269 -12.9854,-6.8472 -14.6273,-12.1832 -40.8407,-27.0156 -85.6927,-47.6692 -133.3247,-59.4046 -56.4941,-4.9629 -115.7122,-1.5113 -171.2175,13.4518 116.5891,-17.4631 318.3672,38.6205 377.7533,111.3651 53.2477,49.9268 74.9648,120.0594 93.9765,188.3636 33.3218,107.0553 14.3101,227.4692 -56.6994,315.2328 -30.9337,46.1767 -76.7372,93.8646 -132.0746,105.1336 -0.4291,2.4255 -1.418,4.9069 -3.0785,7.4443 -10.0189,12.9667 -24.8514,4.7949 -34.4972,-3.9367 -1.1568,-0.7277 -2.2762,-1.4553 -3.4329,-2.1643 -2.4441,-0.3171 -4.9256,-0.7463 -7.407,-1.2313 -12.2764,-1.8284 -27.0343,-6.9592 -31.4374,-19.3103 -4.9815,-2.2202 -10.019,-4.3098 -15.0751,-6.2875 -79.8343,-25.4671 -177.2065,-22.482 -246.0144,29.3852 19.0677,-7.9667 40.113,-11.2317 60.7853,-11.1384 1.7538,-2.1456 4.0486,-3.9553 6.7166,-5.1681 17.5005,-8.0039 35.6726,-15.8213 54.7217,-19.105 9.6085,-1.5299 19.0677,-2.2575 28.359,-2.2575 123.1938,0.019 217.189,128.6044 224.6332,245.7719 0,26.3067 11.2877,70.6923 -7.0524,91.3272 -6.5114,5.2987 -15.1124,4.0113 -22.5006,1.4553 -15.3176,-2.3135 -30.9337,-1.5112 -46.3633,-0.7463 7.295,5.933 7.5375,14.534 -4.1046,26.9411 -13.9743,6.1009 -29.6277,-3.5076 -44.3856,-2.7986 -47.4267,-2.3882 -95.8422,-2.9106 -140.545,15.3176 -23.0417,8.3211 -46.7737,16.0825 -68.2482,27.9672 -8.004,13.228 -25.094,12.7242 -32.0532,2.9665 -36.4935,-12.6869 -86.2338,-69.405 -58.3598,-86.7749 22.967,-11.4742 37.8742,27.165 55.4493,37.6877 4.8136,5.0374 12.7802,9.5152 19.8886,14.4593 38.7511,-24.5156 122.4849,-46.5125 148.2132,-47.3521 7.9107,0.093 30.0008,-1.1754 53.7142,-0.8955 8.8062,-20.6536 12.9854,-43.3594 15.8587,-65.4869 3.1717,-24.5343 -0.8396,-49.2552 -8.4891,-72.6513 -3.862,-11.8474 -8.5263,-22.9671 -14.5153,-33.9189 -5.989,-10.9145 -13.6385,-21.0641 -21.3999,-30.7845 -10.9518,-13.7131 -23.5641,-26.0642 -37.8742,-36.2323 -14.7579,-10.5041 -29.9262,-20.1685 -46.4192,-27.7061 -9.4592,-4.3284 -19.1237,-7.4255 -29.2919,-9.5152 -6.642,-1.3433 -13.5825,-1.8097 -20.523,-1.8097 -5.4106,0 -10.8025,0.2799 -16.0452,0.5784 -18.4147,1.0634 -36.5682,6.0076 -53.9381,12.0339 -16.5303,5.7278 -25.2619,24.4783 -21.0827,40.8967 -1.903,0.5597 -4.0486,0.7463 -6.5487,0.4851 -26.5119,-6.2129 -12.8735,-35.7473 3.0971,-47.0909 -6.8099,-2.5001 -11.7727,-9.1234 -11.7727,-16.6983 5.2427,-29.6463 40.7288,-42.1094 64.3302,-55.2254 33.3405,-16.7356 70.6177,-22.4447 107.5777,-23.9186 45.9901,-2.2016 92.7638,2.6307 135.6381,20.1871 1.6979,1.0075 3.8248,2.0897 6.2316,3.2464 10.1495,-10.8025 23.62,-20.0379 31.9039,-31.2509 28.1351,-31.3068 51.2701,-66.9422 66.6623,-106.197 17.7244,-60.7853 25.2619,-135.974 14.4594,-206.0133 -11.7541,-54.3113 -33.5271,-105.3389 -74.0133,-145.0788 -126.4029,-111.7009 -329.9161,-85.6554 -449.4344,25.1686 -28.6016,31.8106 -53.0799,66.8863 -72.073,100.2827 -2.1269,4.4031 -4.1046,8.8249 -5.9516,13.3773 -8.9555,21.2879 -41.5311,7.3136 -32.7435,-13.8437 2.9852,-6.3621 6.1009,-12.6496 9.4033,-18.8811 0.1306,-0.9702 0.2985,-1.9964 0.541,-3.0412 4.8882,-11.3622 10.9891,-22.1834 17.0154,-32.986 15.299,-27.2022 35.7473,-50.5238 59.1248,-70.6923 8.657,-9.2353 17.6498,-18.1348 26.9038,-26.6612 -16.9968,1.418 -25.5604,-21.5864 -11.9593,-31.8106 8.9741,-7.3136 18.0415,-14.59 27.3515,-21.5118 -6.7539,2.724 -12.6683,2.9852 -17.0341,-0.7463 -9.4405,17.8363 -38.3033,20.3178 -40.0384,-3.5635 0,-7.0151 4.2165,-13.172 10.2242,-16.0452 7.9106,-9.4033 15.2056,-19.329 23.4708,-28.471 73.6215,-71.961 180.6208,-111.7569 283.1423,-111.9808 92.3907,0.4291 194.5392,21.4558 274.728,72.0916 17.2953,-8.2465 33.6204,-18.508 48.0237,-31.1949 114.0145,-98.4543 83.9203,-286.9485 -52.5761,-348.536 -17.4632,-8.8062 -35.7659,-15.896 -54.9456,-19.926 -22.1834,-4.1419 -44.8333,-5.7464 -67.2966,-7.5935 -15.2617,-1.3246 -20.7283,-22.8924 -8.4518,-31.68 z m -405.9817,46.3819 c -41.2511,10.56 -76.4947,25.5418 -105.9918,44.5349 -22.6126,10.8585 -45.3184,23.135 -63.7518,40.0384 -4.3471,-2.8918 -9.9443,-3.806 -15.9333,-1.1567 -16.493,10.2988 -27.3702,28.0978 -39.7399,42.7997 3.974,-13.9556 -10.6346,-27.3702 -24.1052,-21.4185 -17.6497,10.9705 -56.9046,95.7117 -25.7283,105.8052 0.3731,15.8027 1.9963,41.2139 22.9857,41.0273 2.9665,18.0976 -6.7912,52.3709 16.1199,57.6696 1.2873,8.5263 3.0225,16.9781 5.2054,25.3179 2.9291,5.7464 6.9964,8.9927 11.3436,10.2801 3.862,18.7319 35.2995,17.5378 35.1502,-4.0859 -12.8921,-115.0406 7.8361,-208.2336 95.9729,-265.3434 1.903,-0.8955 3.8061,-1.7911 5.7278,-2.6493 3.0411,-1.2687 5.3546,-3.0225 7.0337,-5.0935 14.7393,-8.3771 31.1576,-15.8773 49.4044,-22.426 11.8101,-4.0113 23.7507,-7.6308 35.7473,-11.0264 22.2021,-5.9143 12.631,-40.7101 -9.4406,-34.2734 z m 240.7531,1234.9791 c 5.5226,-37.4077 -112.186,-24.4223 -137.4106,-26.9037 -17.6497,1.8284 -50.5425,-7.239 -52.4455,18.5826 0,9.6831 8.0599,17.7804 17.7617,17.7804 18.2655,-1.0448 36.5682,-0.7277 54.8896,-0.9702 18.8625,-0.093 37.7623,-0.2052 56.6248,0.8396 19.5714,-1.4926 53.8075,18.9557 60.58,-9.3287 v 0"
         style="fill:#d6bcc0;fill-opacity:1;fill-rule:evenodd;stroke:none;stroke-width:1.86572"
         id="path15729" />
      <path
         d="m 2642.181,3325.2162 c 6.0263,-71.5692 -20.5229,-97.9132 -92.2414,-91.8496 -26.0268,1.6792 -51.0835,8.6197 -76.4387,14.1235 -51.1395,7.8921 -104.7978,12.9295 -148.8475,42.8744 -41.9229,35.9712 0.3545,76.9052 15.5974,115.1339 30.8218,46.102 67.5579,159.2209 124.5745,167.598 216.2748,5.5412 160.8627,-86.0845 177.3557,-247.8802"
         style="fill:#b2b4b3;fill-opacity:1;fill-rule:evenodd;stroke:none;stroke-width:1.86572"
         id="path15731" />
      <path
         d="m 2533.5026,3521.3785 c 0.2239,-0.093 0.4478,-0.1866 0.6716,-0.2985 12.9668,-5.224 10.8399,-19.161 9.7391,-30.3927 4.7576,9.254 13.6944,15.1684 23.4895,16.3625 -10.3548,5.7464 -20.3737,12.3324 -32.4076,14.1048 z m -76.4947,-278.4594 c -5.4479,8.9742 -0.7463,18.4334 3.918,26.5493 16.437,35.7473 28.6389,73.4722 37.1279,111.8502 10.2055,42.781 6.9778,87.3905 12.8362,130.3208 2.612,6.1756 8.7129,10.2802 15.1497,10.8026 -20.3178,2.9105 -40.6915,5.5412 -61.1025,7.4815 -5.5599,-0.2238 -12.1085,-0.5597 -17.9856,0.3172 -0.3545,-0.8209 -0.7649,-1.6418 -1.2687,-2.4814 -30.8217,-51.0276 -59.8711,-103.3425 -79.4798,-159.8739 -7.1644,-20.9708 -14.1795,-42.0535 -19.926,-63.4907 -2.4814,-9.3845 -12.7242,-14.9631 -21.8476,-12.407 -28.8068,10.5413 0.4851,53.5836 3.6755,74.0879 17.4072,53.2664 41.7362,104.0888 70.7109,152.0192 5.3547,9.2167 11.0824,18.2468 16.1759,27.6128 4.0486,7.239 10.7279,9.4778 17.0713,8.4517 7.5749,18.6199 38.0981,10.0563 54.815,9.2353 24.1425,-3.7501 49.2552,-4.1046 72.4088,-12.4443 14.5526,-3.2651 25.3552,-17.3886 40.3556,-17.5938 10.5787,2.2762 23.3775,2.7799 28.2284,-9.2167 4.5151,-12.6123 -2.1269,-20.0192 -11.8473,-23.6947 5.9703,-1.9777 11.157,-5.4293 14.7579,-11.8474 9.198,-25.2805 1.8843,-54.1993 3.5262,-80.7112 -0.3918,-37.8556 2.4627,-75.7298 0.4664,-113.548 2.2762,-44.9826 -34.7771,-45.561 -69.2557,-47.632 -25.3365,-2.3508 -50.5425,-6.1195 -75.6178,-10.5413 -11.3249,-2.7986 -25.9895,-5.3733 -32.8927,6.7539 v 0"
         style="fill:#908c8d;fill-opacity:1;fill-rule:evenodd;stroke:none;stroke-width:1.86572"
         id="path15733" />
      <path
         d="m 2338.4038,3291.9877 c 18.0229,66.1959 49.2924,129.7425 79.8716,191.2181 10.616,14.6832 18.3588,49.479 42.4826,37.8742 8.2838,-4.8322 11.3622,-16.0079 6.3808,-24.3104 -10.2056,-16.9781 -20.0006,-34.2547 -28.5456,-51.0276 -23.1164,-48.6581 -44.3296,-98.3983 -63.0242,-148.9221 -0.9142,-25.7657 -33.5644,-32.2397 -37.1652,-4.8322"
         style="fill:#ffffff;fill-opacity:1;fill-rule:evenodd;stroke:none;stroke-width:1.86572"
         id="path15735" />
      <path
         d="m 2258.5881,3058.4922 c -20.0193,-1.1007 -34.1241,23.2097 -23.3403,40.0572 7.3883,13.5265 23.0791,13.7317 36.6056,13.4891 27.0343,2.1083 53.8821,6.2316 80.9538,7.7055 22.9484,32.2957 86.0658,-8.8995 55.0015,-41.0833 -13.9556,-13.5824 -34.8331,-10.2801 -52.6321,-11.922 -32.333,-2.1082 -64.4234,-8.1345 -96.8684,-8.2838 0.093,0 0.1866,0.019 0.2799,0.037"
         style="fill:#f57830;fill-opacity:1;fill-rule:evenodd;stroke:none;stroke-width:1.86572"
         id="path15737" />
      <path
         d="m 2273.7191,2723.0909 c -23.4149,9.366 -15.7281,48.8074 10.8958,42.6505 50.5052,21.2133 34.0495,-60.5055 -10.8958,-42.6505"
         style="fill:#908c8d;fill-opacity:1;fill-rule:evenodd;stroke:none;stroke-width:1.86572"
         id="path15739" />
      <path
         d="m 2222.4676,2488.3641 c -5.0188,12.4817 -6.3621,31.68 5.1494,41.2512 11.7914,9.963 32.4823,9.2726 40.5982,-4.9628 6.6233,-13.881 9.0488,-39.4228 -11.269,-41.8296 -10.5786,-8.9555 -27.65,-7.0897 -34.4786,5.5412"
         style="fill:#908c8d;fill-opacity:1;fill-rule:evenodd;stroke:none;stroke-width:1.86572"
         id="path15741" />
      <path
         d="m 2043.3394,3637.7624 c 0,9.6831 8.0973,17.7804 17.7804,17.7804 9.6831,0 17.7617,-8.0973 17.7617,-17.7804 0,-9.6831 -8.0786,-17.7617 -17.7617,-17.7617 -9.6831,0 -17.7804,8.0786 -17.7804,17.7617 z m -8.9741,-454.7144 c -42.3893,19.2543 5.6531,97.7453 39.5533,59.1995 14.6087,-24.7955 -7.2949,-69.9274 -39.5533,-59.1995 z m -367.5664,-66.1026 c 0,0 0,0 -0.019,-0.019 1.7165,1.1008 3.3397,2.3509 4.5151,4.03 -1.2501,-1.5299 -2.78,-2.8919 -4.4964,-4.0113 z m -10.672,-21.3812 c -47.6319,16.2318 4.5337,89.8533 19.4222,35.8965 19.4222,-13.6198 2.0896,-42.9676 -19.4222,-35.8965 z m 379.1712,-145.4706 c -8.7875,2.4068 -14.0675,11.1757 -12.7988,19.9073 0,-0.037 -0.019,-0.075 -0.019,-0.1119 -0.5224,11.9593 10.5414,22.8924 22.8365,19.3289 22.7432,-6.1569 13.4145,-45.7662 -10.019,-39.1243 z m 146.646,467.532 c -29.9635,9.907 -14.4034,66.7183 15.0937,42.4825 33.1166,-5.8397 14.3474,-56.065 -15.0937,-42.4825 z m 709.3485,-290.4933 c -24.0119,8.1159 -24.385,54.1619 4.8136,51.494 63.8451,35.7659 58.8449,-75.9164 -4.8136,-51.494 z m -60.3749,211.5172 c 0,9.6831 8.0973,17.7803 17.7804,17.7803 9.6831,0 17.7617,-8.0972 17.7617,-17.7803 0,-9.6832 -8.0786,-17.7617 -17.7617,-17.7617 -9.6831,0 -17.7804,8.0785 -17.7804,17.7617 z m 318.8524,-225.6781 c -3.0412,1.5112 -5.5039,3.5635 -7.4256,5.989 0.075,-0.1306 0.1679,-0.2799 0.2425,-0.4105 0.3918,-0.4478 0.765,-0.8769 1.1568,-1.3246 -27.0344,36.1204 28.7508,63.5465 28.9747,19.8139 7.183,-14.0302 -8.545,-30.8963 -22.9484,-24.0678 z m -48.826,302.919 c -55.1882,3.0972 -33.9189,89.872 16.9221,71.6439 37.1839,-13.9556 25.094,-78.3045 -16.9221,-71.6439 z m -328.1437,206.1066 c -21.661,9.6085 -27.3515,54.6471 1.3993,56.8673 74.4984,45.5424 68.1363,-83.6217 -1.3993,-56.8673 z m -240.6225,109.63 c -36.0271,9.8324 -1.5299,66.6064 21.6424,35.9339 8.9368,-16.0453 -0.4664,-41.3631 -21.6424,-35.9339 z m 355.887,-4.6456 c -12.1459,27.1276 31.3815,43.0609 34.5159,11.4742 3.3583,-20.4484 -25.4858,-31.6614 -34.5159,-11.4742 z m 208.6626,-1064.8437 c -29.9262,22.1835 13.0228,71.7931 27.2023,29.7583 18.3214,-16.9034 -8.3211,-45.4117 -27.2023,-29.7583 z m -330.7743,286.2954 c -18.9184,10.7653 -5.168,40.5049 14.6459,38.0422 29.7024,-5.3733 11.1757,-52.7627 -14.6459,-38.0422 z m 422.6613,-478.2785 c -40.1691,13.1534 -17.6311,76.1776 20.3177,72.2782 58.7517,-12.6496 36.6615,-87.1107 -20.3177,-72.2782 z m 127.6715,262.2836 c -16.0452,11.2317 -11.8847,36.3257 -0.037,49.1619 14.3288,14.7205 38.6765,-4.7017 27.706,-21.9037 18.9558,-17.631 -9.5712,-42.7064 -27.6687,-27.2582 z m 69.6848,235.9209 c 0,9.6831 8.0973,17.7803 17.7804,17.7803 9.6831,0 17.7617,-8.0972 17.7617,-17.7803 0,-9.6831 -8.0786,-17.7617 -17.7617,-17.7617 -9.6831,0 -17.7804,8.0786 -17.7804,17.7617 z m -457.0092,-473.3157 c -50.3559,21.0081 -14.7393,86.0659 30.5792,77.1291 53.3411,-15.0378 18.0416,-98.5289 -30.5792,-77.1291 z m 240.6411,-212.8605 c -27.5194,2.612 -19.2542,49.5723 7.351,41.9228 35.7473,5.0748 22.7432,-48.3409 -7.351,-41.9228 z m -1292.2941,33.4151 c -48.3036,14.5154 -18.0602,87.6704 24.4037,85.4875 36.8667,-0.3358 50.0947,-63.7518 9.2913,-69.5355 -6.754,-11.2504 -20.5976,-18.6386 -33.695,-15.952 z m -55.1882,228.9804 c 0,9.6831 8.0786,17.7617 17.7617,17.7617 9.6832,0 17.7617,-8.0786 17.7617,-17.7617 0,-9.6831 -8.0785,-17.7617 -17.7617,-17.7617 -9.6831,0 -17.7617,8.0786 -17.7617,17.7617 z m -239.503,81.9426 c -23.844,4.1046 -25.6724,36.6055 -9.0488,50.4119 15.243,15.5228 40.1504,-6.7539 26.5493,-23.5828 8.1532,-11.866 -3.321,-29.4224 -17.5005,-26.8291 z m 79.2186,173.0087 c -41.4004,-3.6569 -52.3335,78.8455 -6.8098,68.6586 46.9602,15.4296 53.7142,-69.5355 6.8098,-68.6586 z m 276.4818,-116.5145 c -6.3062,11.4369 1.7164,24.1238 9.2726,32.6688 15.6721,15.7654 40.7288,-7.6308 26.0642,-24.2171 -0.5411,-17.5565 -26.8291,-23.7134 -35.3368,-8.4517 z m -248.6638,639.645 c -38.0421,5.0748 -35.2062,85.0397 6.9592,63.8451 41.0832,-3.2464 36.0271,-73.267 -6.9592,-63.8451 z m 177.1879,78.2858 c -18.0043,14.3661 -6.5301,45.4117 10.5973,55.2628 14.8511,6.6979 35.9338,-5.8584 29.8516,-23.0417 4.4777,-21.4932 -19.5715,-47.7253 -40.4489,-32.2211 v 0"
         style="fill:#ffffff;fill-opacity:1;fill-rule:evenodd;stroke:none;stroke-width:1.86572"
         id="path15743" />
      <path
         d="m 2363.1246,3081.6645 c 40.6728,-0.7276 41.6057,29.3665 5.2987,40.7661 -39.031,-11.7727 -78.8642,-22.0902 -118.0817,-33.7696 37.2025,-6.0263 75.1513,-8.4704 112.783,-6.9965 z m -53.4717,-34.889 c -83.4165,-1.8844 -206.2372,45.2438 -52.147,80.9351 30.8591,4.4591 86.7936,34.46 113.0443,24.2171 72.6513,8.2652 108.1561,-128.8096 -60.8973,-105.1522 v 0"
         style="fill:#4f262c;fill-opacity:1;fill-rule:evenodd;stroke:none;stroke-width:1.86572"
         id="path15745" />
      <path
         d="m 2597.0118,3526.6772 c 1.5859,0 3.1718,0.019 4.7763,0.019 -46.4006,22.2022 -105.9918,44.3297 -156.4223,24.7209 45.0759,-26.1015 101.1595,-22.2395 151.646,-24.7395 z m -65.5988,-301.2959 c -70.0766,-2.4627 -216.9092,20.2804 -247.9175,90.9168 -0.597,15.1497 20.0379,23.9932 30.3367,12.575 69.7781,-73.0245 218.8308,-79.3493 312.4902,-59.0689 4.1419,73.5842 -1.7165,148.2318 -9.5898,221.3682 -288.9262,-11.8287 -248.6638,136.2352 -76.8679,95.7117 30.0755,-6.2129 134.2762,-38.9377 110.0778,-81.215 10.7465,-81.9613 17.687,-165.0793 10.2614,-247.1152 -13.769,-40.2623 -93.6966,-31.3628 -128.7909,-33.1726 v 0"
         style="fill:#4f262c;fill-opacity:1;fill-rule:evenodd;stroke:none;stroke-width:1.86572"
         id="path15747" />
      <path
         d="m 2294.3353,3311.9509 c -8.6942,3.6755 -13.5078,14.4967 -9.4592,23.2843 14.0862,29.1799 27.5195,58.677 40.2997,88.454 20.5789,44.4602 43.2848,88.0435 68.64,129.985 7.4442,18.4893 36.8107,17.5192 37.2025,-4.3844 -15.3922,-33.5085 -39.3481,-67.0169 -54.8523,-101.1037 -20.6162,-41.7549 -38.0048,-84.9837 -58.5464,-126.7759 -4.03,-8.8996 -14.4407,-13.3027 -23.2843,-9.4593"
         style="fill:#4f262c;fill-opacity:1;fill-rule:evenodd;stroke:none;stroke-width:1.86572"
         id="path15749" />
      <path
         d="m 2193.2317,3097.7844 c -20.4483,56.0277 38.4899,225.2489 99.1819,237.2829 21.9783,-3.1345 20.523,-30.0755 1.2874,-36.6615 -38.8257,-43.0423 -61.9234,-101.1223 -68.9199,-158.3441 -4.2538,-18.0602 14.3848,-46.2886 -9.6831,-54.6844 -9.0487,-2.5 -19.6274,2.9852 -21.8663,12.4071"
         style="fill:#4f262c;fill-opacity:1;fill-rule:evenodd;stroke:none;stroke-width:1.86572"
         id="path15751" />
      <path
         d="m 2392.7337,2885.9127 c -64.6474,8.8249 -133.5486,36.9787 -163.9226,98.473 -13.4705,25.4671 -30.8777,53.5836 -28.8254,83.2299 3.0224,9.1794 12.1831,15.0751 21.8476,12.4071 16.549,-4.5337 11.7914,-23.9932 17.7617,-36.3443 30.1688,-99.0513 124.9102,-130.2649 219.7823,-125.3394 135.3957,11.1944 198.6997,135.0785 188.1584,259.8954 -1.7165,22.7805 -6.3808,45.9528 -18.2841,65.7482 -11.9034,19.6088 19.3102,37.9861 30.6725,17.9109 7.1644,-12.2578 12.5563,-25.2432 16.2131,-38.9749 42.1467,-187.1136 -79.2,-371.2233 -283.4035,-337.0059"
         style="fill:#4f262c;fill-opacity:1;fill-rule:evenodd;stroke:none;stroke-width:1.86572"
         id="path15753" />
      <path
         d="m 2261.0881,3153.0285 c -19.9259,8.1346 -13.0787,43.7699 8.4704,43.0796 30.2248,-1.2314 20.5976,-54.5538 -8.4704,-43.0796"
         style="fill:#4f262c;fill-opacity:1;fill-rule:evenodd;stroke:none;stroke-width:1.86572"
         id="path15755" />
      <path
         d="m 2486.9341,3139.3901 c -12.3698,27.5567 27.5008,56.662 40.6168,23.1536 9.1048,-25.3179 -26.6798,-53.1918 -40.6168,-23.1536"
         style="fill:#4f262c;fill-opacity:1;fill-rule:evenodd;stroke:none;stroke-width:1.86572"
         id="path15757" />
      <path
         d="m 2439.3021,2186.0794 c -36.9786,0.037 -73.9573,4.4964 -109.6299,14.3288 -35.8406,9.8697 -69.8341,24.4596 -101.9432,43.1728 -32.1465,18.7506 -61.3637,42.6505 -87.1107,69.4237 -39.8332,41.3631 -70.6737,91.775 -89.7227,145.9183 -0.056,0.1679 -0.1119,0.3358 -0.1493,0.4478 -0.019,0.019 -0.019,0.056 -0.037,0.075 -0.2985,0.709 -0.541,1.4179 -0.7276,2.1269 l -0.2612,0.7463 c -24.5529,70.599 -28.9747,147.9333 -13.0041,220.9391 15.5415,71.0468 50.132,137.7465 99.667,191.0502 33.8256,36.4003 73.9014,66.3452 117.8578,88.4354 0.2053,0.093 0.4105,0.2052 0.6157,0.2985 l 0.019,0.019 c 3.3396,1.6419 6.6793,3.265 10.0562,4.8509 0,0 0,0.019 0.019,0.019 8.8062,3.9926 19.5901,-0.7463 23.2842,-9.4593 3.8807,-9.198 -0.7089,-19.1609 -9.4592,-23.2842 0,0 -0.019,-0.019 -0.037,-0.019 -0.019,-0.019 -0.037,-0.019 -0.056,-0.037 -3.0225,-1.4179 -6.0449,-2.8545 -9.0487,-4.3658 -0.075,-0.037 -0.1493,-0.075 -0.2426,-0.1119 -14.2168,-7.239 -27.9485,-15.2989 -41.2325,-24.1425 -13.8437,-9.4965 -27.0344,-19.758 -39.6653,-30.8031 -11.4742,-10.3361 -22.3141,-21.2693 -32.6129,-32.7808 -10.6346,-12.3324 -20.5416,-25.1686 -29.7023,-38.6205 -8.4704,-12.9294 -16.2505,-26.1948 -23.3216,-39.9451 -7.0151,-14.2728 -13.2093,-28.8255 -18.6572,-43.7699 -5.6718,-16.6236 -10.3921,-33.4338 -14.0116,-50.6358 -3.1344,-16.493 -5.336,-33.0606 -6.6047,-49.8149 -0.8955,-16.4183 -0.8955,-32.7994 0.056,-49.2178 1.306,-16.8848 3.5449,-33.583 6.7726,-50.2066 3.2277,-15.0191 7.0338,-29.9262 12.0152,-44.4602 0.5784,-1.5859 1.1755,-3.1718 1.5673,-4.4964 5.4292,-14.9445 11.6048,-29.4785 18.5826,-43.7699 7.2576,-14.1609 15.2803,-27.818 24.0305,-41.1206 9.3473,-13.6011 19.3849,-26.6052 30.2061,-39.0683 10.4667,-11.5675 21.4745,-22.5379 33.0793,-32.9673 12.1645,-10.4294 24.7395,-20.1312 37.9115,-29.2546 13.5265,-8.9368 27.4262,-17.09 41.8482,-24.4596 14.5527,-7.0898 29.3852,-13.34 44.6095,-18.8065 15.5974,-5.2614 31.4001,-9.6085 47.4827,-13.0601 16.9967,-3.265 34.0308,-5.5972 51.3074,-6.9032 16.0639,-0.8955 32.0905,-0.8955 48.173,0 17.1833,1.306 34.1801,3.5635 51.1022,6.8472 16.2691,3.5262 32.2397,7.9107 48.0051,13.228 14.9445,5.336 29.5158,11.4929 43.7886,18.452 15.187,7.7241 29.8142,16.3438 43.9937,25.8216 13.0041,8.9742 25.4112,18.6946 37.2959,29.068 11.3809,10.2802 22.1834,21.1014 32.4449,32.501 10.1869,11.6981 19.6648,23.8999 28.471,36.6428 9.4219,14.1235 18.0602,28.6948 25.7283,43.8259 7.0898,14.478 13.3213,29.3105 18.7319,44.5161 5.2987,15.6721 9.6458,31.5681 13.0974,47.7626 3.1531,16.1945 5.336,32.5009 6.6606,48.938 1.0448,17.1646 1.0822,34.292 0.056,51.438 -1.2314,16.6609 -3.5262,33.1539 -6.2688,47.2588 -3.433,16.5303 -7.7988,32.7808 -13.1534,48.7887 -5.3733,15.3362 -11.6235,30.2994 -18.7505,44.908 -7.7241,15.2803 -16.3624,30.0381 -25.8963,44.2736 -8.8808,12.9108 -18.4707,25.2806 -28.7881,37.072 -10.5414,11.81 -21.717,23.0044 -33.5644,33.5084 -11.81,10.2615 -24.1611,19.8513 -37.0719,28.6762 -13.7691,9.254 -28.0979,17.6684 -40.8781,24.0865 -3.0224,1.5299 -6.0449,3.0038 -9.1047,4.4404 -8.7689,4.1046 -13.3399,14.1049 -9.4592,23.2842 3.6568,8.657 14.534,13.5639 23.2842,9.4593 44.7774,-21.0267 85.4502,-50.0761 120.0034,-85.4875 47.9678,-49.1059 82.4091,-110.2457 101.1036,-176.1991 19.4036,-68.4907 19.4782,-142.0376 2.1643,-210.9574 -8.8062,-35.0757 -22.6313,-68.9945 -40.4303,-100.4507 -17.8923,-31.6613 -40.0011,-60.5614 -65.4496,-86.5136 -49.2365,-50.2253 -112.839,-87.7637 -180.7141,-106.2903 -35.1316,-9.6085 -71.5132,-15.1684 -107.9881,-15.1684 -0.112,0 -0.2239,0 -0.3359,0"
         style="fill:#4f262c;fill-opacity:1;fill-rule:evenodd;stroke:none;stroke-width:1.86572"
         id="path15759" />
      <path
         d="m 2727.9484,2658.2757 c -18.564,12.0899 -3.5076,31.4188 10.0936,40.1317 21.1386,17.2206 42.3333,34.404 63.5466,51.55 53.8634,40.8407 105.6559,84.0695 157.8029,127.0185 23.3403,18.0416 47.7066,34.7398 71.0841,52.7627 17.9856,14.0862 40.1131,-14.1795 21.6984,-28.1538 -13.2466,-10.2055 -26.941,-19.9073 -40.3743,-29.8889 -66.1026,-48.9753 -127.0558,-104.35 -193.0651,-153.5491 -21.5678,-17.6498 -43.4714,-34.9077 -64.834,-52.8187 -6.2875,-7.6122 -16.6236,-12.7242 -25.9522,-7.0524"
         style="fill:#4f262c;fill-opacity:1;fill-rule:evenodd;stroke:none;stroke-width:1.86572"
         id="path15761" />
      <path
         d="m 2921.9651,2838.542 c -9.3846,7.0151 -8.1346,19.2729 -2.2202,27.8926 9.4219,29.3291 14.8698,59.8897 26.7731,88.4353 8.7316,21.2319 41.8482,7.351 32.7435,-13.825 -15.6721,-22.4074 -17.1273,-125.9737 -57.2964,-102.5029"
         style="fill:#4f262c;fill-opacity:1;fill-rule:evenodd;stroke:none;stroke-width:1.86572"
         id="path15763" />
      <path
         d="m 3008.8706,2811.1531 c -25.9896,6.9032 -56.3449,10.5414 -77.1851,28.5083 -9.851,11.9966 0.7277,31.4375 16.3251,28.9747 9.0488,-2.5001 16.1945,-9.1607 25.5978,-11.3436 16.3997,-7.7054 37.9861,-5.7651 51.7365,-17.6684 9.8137,-11.6048 -1.4179,-31.4561 -16.4743,-28.471"
         style="fill:#4f262c;fill-opacity:1;fill-rule:evenodd;stroke:none;stroke-width:1.86572"
         id="path15765" />
      <path
         d="m 2054.0487,2712.5123 c -50.3746,43.9938 -101.9619,84.7972 -154.1649,126.4028 -22.5379,21.0081 -58.1359,37.2958 -65.8414,69.0318 2.6307,24.9261 30.5419,21.0267 38.2474,1.0448 65.3936,-59.2927 138.0263,-109.0889 203.4946,-168.3443 18.2468,-13.8996 -3.6569,-42.4266 -21.7357,-28.1351"
         style="fill:#4f262c;fill-opacity:1;fill-rule:evenodd;stroke:none;stroke-width:1.86572"
         id="path15767" />
      <path
         d="m 1903.4474,2846.5459 c 2.7426,27.2023 -51.8858,127.1492 -1.1381,121.1602 16.4557,0.5784 31.4001,-97.6707 36.3816,-116.3466 3.3024,-22.6872 -32.2024,-27.706 -35.2435,-4.8136"
         style="fill:#4f262c;fill-opacity:1;fill-rule:evenodd;stroke:none;stroke-width:1.86572"
         id="path15769" />
      <path
         d="m 1791.392,2814.1569 c -8.5637,4.5151 -11.1011,16.2505 -6.3622,24.3104 4.4591,7.6122 13.284,10.2615 21.1947,7.6868 -2.4628,1.1381 -5.0935,1.1568 -7.7055,0.9329 25.3552,-0.5784 145.0415,35.5794 144.687,1.8284 1.2687,-9.2727 -5.5412,-19.105 -15.187,-20.0006 -45.4304,-1.1381 -92.2228,-18.6945 -136.627,-14.7579"
         style="fill:#4f262c;fill-opacity:1;fill-rule:evenodd;stroke:none;stroke-width:1.86572"
         id="path15771" />
      <path
         d="m 2289.1859,2736.5055 c 21.8104,0.597 26.7172,21.4372 2.9665,26.6612 -7.9293,-3.4703 -20.1684,-5.224 -20.9894,-16.1012 0.3172,-10.0936 9.963,-11.269 18.0229,-10.56 z m -10.7652,-35.2062 c -61.0652,5.6904 -52.4455,91.5884 4.9442,94.4989 16.493,8.8436 38.0048,-5.0561 49.423,-17.2579 33.1913,-35.9899 -12.3697,-86.7562 -54.3672,-77.241 v 0"
         style="fill:#4f262c;fill-opacity:1;fill-rule:evenodd;stroke:none;stroke-width:1.86572"
         id="path15773" />
      <path
         d="m 2246.6101,2496.4427 c 22.6499,3.1158 27.3142,24.3664 6.1009,34.7585 -10.9518,1.0821 -21.064,-5.5226 -28.3776,-13.1907 l 0.3358,0.1679 c -7.2204,-14.2915 10.2988,-21.4372 21.9409,-21.7357 z m -15.4295,-33.5644 c -43.8446,6.4741 -60.3749,64.2556 -21.9223,89.1443 14.1982,10.0563 35.4674,21.1387 51.9977,10.6906 28.2285,-1.5112 46.8484,-37.2025 39.2736,-63.0614 -7.9854,-27.5568 -42.1654,-44.3856 -69.349,-36.7735 v 0"
         style="fill:#4f262c;fill-opacity:1;fill-rule:evenodd;stroke:none;stroke-width:1.86572"
         id="path15775" />
      <path
         d="m 2423.9472,1807.9157 c 8.8809,-0.4851 17.7617,-0.765 26.6426,-1.0635 35.2062,-1.1567 70.4684,-0.1679 103.1559,2.015 46.9043,3.377 93.4355,9.7018 139.5562,18.8998 46.3259,9.6271 91.9056,22.1088 136.6643,37.4638 44.3296,15.6161 87.5585,33.9002 129.4067,54.7776 0.075,0.037 0.1306,0.056 0.2052,0.093 l 0.3545,0.1866 c 40.3183,20.5603 79.312,43.3781 116.8876,68.6213 37.2772,25.4299 72.9872,52.968 106.9434,82.7076 33.8629,30.0755 65.8227,62.0354 95.8796,95.9169 30.2434,34.6465 58.3039,71.0468 84.0882,109.1262 25.3925,37.9862 48.2476,77.5022 68.8452,118.2683 20.3364,41.2512 38.1354,83.5472 53.3784,126.9439 7.5748,22.2395 14.5713,44.6282 20.7842,67.2967 6.3061,22.9671 11.6981,46.1767 16.5863,69.4983 9.2726,47.1095 15.5788,94.5176 18.9371,142.4107 2.7799,46.3073 2.7239,92.6146 -0.093,138.9405 -3.3956,47.632 -9.7391,94.8348 -19.0118,141.6832 -9.7204,46.755 -22.3887,92.7078 -37.8555,137.8957 -15.0191,42.4079 -32.4823,83.6777 -51.2328,122.037 -1.2127,2.4068 -2.4441,4.8322 -2.612,5.224 -20.2431,40.3183 -43.1729,79.1814 -68.1923,116.6825 -26.0455,38.2473 -54.2179,74.8155 -84.6665,109.6486 -29.9636,33.6577 -61.7928,65.431 -95.3945,95.2266 -33.4338,29.068 -68.3788,56.121 -104.8911,81.1963 -0.1865,0.1306 -0.3545,0.2612 -0.541,0.3918 -0.3545,0.2426 -0.7277,0.4664 -1.0822,0.7276 -0.2985,0.2053 -0.597,0.4105 -0.8768,0.6157 -0.4851,0.2986 -0.9702,0.6157 -1.4553,0.9329 l -0.4664,0.3172 c -36.4003,24.2357 -74.0693,46.2699 -112.5965,65.972 -1.9217,0.9515 -3.8434,1.9217 -5.7465,2.8732 -39.8518,19.9259 -81.0284,37.0346 -122.9885,51.9604 -45.5424,15.7094 -91.9056,28.5083 -139.0711,38.322 -46.1954,9.1794 -92.7265,15.4855 -137.28,18.7879 -48.5275,3.209 -96.9991,3.3023 -145.5266,0.3171 -47.5946,-3.3956 -94.7974,-9.6831 -140.1159,-18.7132 -45.8968,-9.4779 -91.0847,-21.773 -134.2762,-36.4003 -0.5224,-0.1865 -1.0448,-0.3731 -1.5672,-0.5597 l -0.1866,-0.056 c -43.8258,-15.3176 -86.5136,-33.2845 -127.2051,-53.3224 -0.3918,-0.1865 -0.8022,-0.3918 -1.194,-0.597 l -0.2799,-0.1493 c -41.9042,-21.1759 -82.409,-44.8333 -121.4027,-71.0281 -37.2958,-25.5418 -72.9685,-53.2291 -107.018,-82.9688 -32.4076,-28.9 -63.0988,-59.5166 -92.0548,-91.8682 -30.43,-34.7025 -58.677,-71.0095 -84.7039,-109.0703 -26.3067,-39.2922 -50.0574,-80.0023 -71.4013,-122.2236 -20.0752,-40.8967 -37.7249,-82.7449 -52.7254,-125.3394 -15.4482,-45.2625 -28.0605,-91.3086 -37.7436,-138.1756 -9.142,-46.4378 -15.4295,-93.2862 -18.7692,-140.489 -2.8359,-47.0723 -2.8732,-94.1072 0.056,-141.1794 3.3583,-46.4752 9.4965,-92.5399 18.452,-138.2875 0.5411,-2.6307 1.0821,-5.28 1.1568,-5.6345 9.4405,-46.1953 22.3514,-91.6631 37.7249,-136.2352 15.0005,-42.1654 32.3517,-83.286 52.1284,-123.4364 20.7655,-41.1205 43.8818,-80.8605 69.4609,-119.1824 26.344,-38.7511 54.9269,-75.7858 85.8606,-110.992 29.068,-32.6502 60.0017,-63.472 90.9541,-91.01 0.9142,-0.8023 1.8098,-1.5859 2.6493,-2.3882 0.5038,-0.3731 0.9702,-0.7649 1.418,-1.194 22.8738,-19.926 46.5685,-38.7698 70.8229,-56.9606 0.2239,-0.1493 0.4291,-0.3172 0.6344,-0.5038 0.2798,-0.1679 0.541,-0.3544 0.8022,-0.541 10.7279,-7.8547 21.5864,-15.5042 32.5569,-22.9671 38.3033,-25.8403 78.2112,-49.1618 117.3727,-68.9945 42.5386,-21.2506 86.2898,-39.7586 130.9553,-55.412 0.093,-0.019 0.1679,-0.056 0.2612,-0.075 l 0.4104,-0.1493 c 43.7886,-14.9631 88.3794,-27.109 133.6792,-36.6428 45.9155,-9.2167 92.2414,-15.5975 138.9032,-19.0677 2.015,-0.112 4.0673,-0.1493 6.0822,-0.4105 3.8434,-0.2425 7.7055,-0.4664 11.5675,-0.6903 z m -1.4739,-35.4488 c -4.1979,0.2426 -8.4144,0.5038 -12.6309,0.7836 -0.6344,0 -1.2874,0.037 -1.9217,0.112 -0.709,0.056 -1.418,0.093 -2.127,0.1492 h -0.019 c -0.7836,0.037 -1.5486,0.093 -2.3322,0.1493 -5.8024,0.4291 -11.6048,0.8769 -17.3885,1.362 -10.7839,0.8955 -21.5492,2.0336 -32.2771,3.265 -21.12,2.4068 -42.184,5.5039 -63.1174,9.2353 -42.2774,7.5562 -84.0323,17.4072 -125.1902,29.665 -83.174,24.7582 -163.2135,59.8898 -238.2157,103.4731 -33.3964,19.4036 -65.6548,40.7288 -96.7938,63.5093 -0.1865,0.1306 -0.3731,0.2799 -0.541,0.4105 -0.3172,0.2052 -0.6157,0.4291 -0.9142,0.653 -16.1572,12.1272 -32.1651,24.4036 -47.7253,37.3145 -6.1942,5.1307 -12.3324,10.3361 -18.4147,15.5974 -2.4254,2.0896 -5.2053,4.1233 -7.4815,6.4741 -0.3732,0.3171 -0.7277,0.6343 -1.0635,0.9702 l -0.1492,0.1492 c -64.3116,56.6434 -121.5893,120.899 -171.143,190.8077 -50.673,71.5132 -92.7078,149.5938 -124.6117,231.2192 -12.0899,30.8778 -22.7618,62.2779 -32.1651,94.0885 -9.0488,30.5792 -16.3624,61.6436 -22.2768,90.5809 -8.9181,43.6207 -14.9071,87.8197 -18.4147,132.1866 -3.4142,43.3408 -4.3471,86.9988 -2.3694,130.4328 2.015,44.3856 6.2502,88.6406 13.5265,132.4851 7.3882,44.5909 17.5005,88.622 30.0941,132.0187 24.6836,84.9278 60.3002,166.7958 104.7231,243.2345 44.2737,76.1589 97.8946,147.355 159.3329,210.5471 62.2966,64.1063 131.8694,120.6564 207.6365,168.1577 74.8902,46.9603 155.732,84.8345 239.7456,112.2793 84.5733,27.6501 172.5609,45.561 261.3321,51.8298 43.8818,3.0785 87.745,3.7502 131.7015,1.8844 45.4863,-1.903 90.8048,-7.1084 135.6568,-14.6646 87.1853,-14.6832 172.9154,-40.4675 253.8505,-75.9723 19.4408,-8.5077 38.5645,-17.6311 56.1583,-26.4559 37.6317,-18.9185 74.2372,-40.0572 109.2942,-63.3974 2.2948,-1.5112 4.6456,-2.9665 6.7912,-4.5897 0.653,-0.3918 1.306,-0.8022 1.959,-1.25 0.075,-0.056 0.1493,-0.1119 0.2425,-0.1492 0.5598,-0.3545 1.1008,-0.7277 1.6419,-1.1381 0.1119,-0.075 0.2239,-0.168 0.3172,-0.2612 0.019,-0.019 0.037,-0.019 0.056,-0.037 0.6344,-0.3358 1.2501,-0.7276 1.8471,-1.1567 2.015,-1.306 3.9926,-2.7613 5.989,-4.1233 4.515,-3.1157 9.0114,-6.2874 13.4892,-9.4592 9.2913,-6.6046 18.452,-13.3399 27.5194,-20.2431 17.5938,-13.3213 34.7211,-27.2955 51.494,-41.6616 33.5271,-28.7881 65.1511,-59.6845 95.04,-92.2414 60.3935,-65.8228 111.9808,-139.3324 154.7805,-217.6741 5.6905,-10.4294 11.1011,-20.9894 16.3997,-31.5868 40.0572,-80.0955 70.1886,-164.9113 89.7787,-252.3019 19.2916,-86.0286 28.1351,-174.5758 26.1388,-262.7127 -2.0523,-90.7861 -15.2616,-180.9939 -39.2362,-268.5897 -23.5641,-86.1405 -58.0613,-169.3518 -101.8499,-247.1898 -42.24,-75.0955 -93.3982,-145.34 -152.1125,-208.4015 -57.4457,-61.7555 -121.7759,-116.9249 -191.7592,-163.9972 -70.8602,-47.6879 -147.2243,-87.0733 -227.1706,-117.1302 -80.7299,-30.3553 -164.986,-51.0275 -250.5482,-61.7741 -43.0049,-5.4293 -86.4017,-8.2465 -129.7425,-8.4144 -1.9403,-0.019 -3.8807,-0.019 -5.821,-0.019 -19.6834,0 -39.3668,0.4851 -59.0129,1.5672 v 0"
         style="fill:#4f262c;fill-opacity:1;fill-rule:evenodd;stroke:none;stroke-width:1.86572"
         id="path15777" />
      <path
         d="m 1721.8564,1393.986 c -28.8628,13.9743 0.3732,54.5538 1.1381,78.1926 21.2133,88.7525 40.0011,178.0274 61.2704,266.7613 22.7059,83.7896 41.3631,169.0719 64.4235,252.5444 11.2316,19.7767 42.2586,2.127 30.7471,-17.8176 -34.2174,-144.8176 -73.5095,-288.3851 -104.4246,-434.0422 -9.7951,-44.5535 -20.8215,-88.8085 -31.2882,-133.2314 -2.1269,-9.4219 -12.8548,-14.8698 -21.8663,-12.4071"
         style="fill:#4f262c;fill-opacity:1;fill-rule:evenodd;stroke:none;stroke-width:1.86572"
         id="path15779" />
      <path
         d="m 3289.942,1386.8963 c -49.0872,206.1625 -111.2532,408.9482 -153.3439,616.8272 1.6418,26.0082 37.5943,20.6536 37.4824,-3.8061 31.1576,-137.6905 62.3152,-275.4929 99.8722,-411.5975 4.8882,-32.0345 78.7709,-214.577 35.9898,-216.6293 -9.6271,-1.3806 -18.34,5.5972 -20.0005,15.2057"
         style="fill:#4f262c;fill-opacity:1;fill-rule:evenodd;stroke:none;stroke-width:1.86572"
         id="path15781" />
      <path
         d="m 2540.0699,1193.5699 c -207.6365,7.1457 -417.7544,29.7396 -617.872,87.1667 -34.1801,9.6831 -220.0995,90.9167 -214.2038,119.6489 3.5075,17.6124 23.3215,17.9296 35.3181,8.0786 53.8449,-34.8704 110.8054,-65.1325 171.0683,-87.3719 106.4023,-37.5944 219.1294,-52.203 330.3825,-68.099 210.2672,-29.8329 424.8815,-32.8554 634.9061,-0.6157 115.7496,15.5975 325.3264,61.4197 405.7018,147.1871 13.8064,17.9482 42.4453,-4.627 27.5195,-22.5007 -43.7886,-52.6881 -112.8764,-75.6178 -175.1729,-98.9207 -189.7255,-70.3751 -397.0075,-82.2411 -597.6476,-84.5733"
         style="fill:#4f262c;fill-opacity:1;fill-rule:evenodd;stroke:none;stroke-width:1.86572"
         id="path15783" />
      <path
         d="m 1587.0578,1218.9624 c -30.4673,9.0301 -6.4367,50.7291 -5.5599,72.6513 16.3251,58.5091 44.2177,116.2347 86.4577,160.4337 55.9344,60.1323 104.1448,4.4031 58.0614,-8.8249 -51.9231,-5.4106 -86.2711,-97.5401 -104.7232,-141.0488 -12.6496,-21.3812 -3.0224,-85.5248 -34.236,-83.2113"
         style="fill:#4f262c;fill-opacity:1;fill-rule:evenodd;stroke:none;stroke-width:1.86572"
         id="path15785" />
      <path
         d="m 2443.1642,959.12285 c -232.5439,3.1158 -468.4461,38.6392 -679.0678,141.81385 -59.6659,27.8366 -117.5966,59.3673 -170.0794,99.3125 -18.8812,2.668 -24.9075,30.1688 -4.3285,36.0644 -1.2314,-0.4104 -2.4628,-0.7836 -3.5822,-1.3992 26.0268,8.7315 47.6133,-24.3291 68.8639,-34.2548 52.2776,-34.4039 105.3015,-58.565 160.6016,-84.965 238.8873,-104.2941 503.615,-130.71275 761.9059,-117.95125 113.4547,5.82115 225.9019,22.50075 337.6962,42.05355 168.6242,27.9112 338.6476,65.7668 486.0212,155.4335 8.7316,5.989 17.202,12.3884 25.3739,19.1237 17.5378,14.2168 40.4116,-14.0863 21.773,-28.1165 -58.4718,-46.9603 -129.4813,-74.9648 -198.9609,-101.3462 -109.6486,-42.3892 -226.1258,-62.2592 -341.4649,-82.4463 -153.4185,-26.71725 -308.7774,-45.72895 -464.752,-43.32225"
         style="fill:#4f262c;fill-opacity:1;fill-rule:evenodd;stroke:none;stroke-width:1.86572"
         id="path15787" />
      <path
         d="m 3425.7294,1208.477 c -13.3772,49.2738 -57.7442,219.8757 -116.6824,218.1779 -27.2023,-1.7352 -23.8999,38.4152 1.9403,36.5122 77.2037,-2.3881 104.9471,-117.8765 129.5746,-176.9826 3.8061,-23.4522 37.6317,-78.6403 6.6793,-90.6929 -9.1234,-2.2575 -19.5155,3.4889 -21.5118,12.9854"
         style="fill:#4f262c;fill-opacity:1;fill-rule:evenodd;stroke:none;stroke-width:1.86572"
         id="path15789" />
      <path
         d="m 1848.2592,1974.3943 c 23.7134,140.1346 150.9185,320.7367 292.8815,359.4878 24.3664,4.2725 28.5456,-33.6017 3.862,-35.598 -103.7529,-33.2472 -178.9229,-132.8396 -227.1706,-226.443 -15.187,-33.7883 -29.5157,-68.6587 -37.501,-104.294 -8.0973,-12.6869 -30.0009,-8.3025 -32.0719,6.8472"
         style="fill:#4f262c;fill-opacity:1;fill-rule:evenodd;stroke:none;stroke-width:1.86572"
         id="path15791" />
      <path
         d="m 3125.1798,2011.2797 c -50.02,164.3703 -169.7436,317.0985 -339.8977,364.7118 -38.863,-4.2911 -37.5757,43.714 0.7836,36.0645 134.9292,-32.2397 244.8017,-134.1829 313.7776,-251.5557 26.1574,-42.8183 41.4191,-90.6182 58.8263,-137.28 7.8174,-21.3998 -25.7284,-33.8442 -33.4898,-11.9406"
         style="fill:#4f262c;fill-opacity:1;fill-rule:evenodd;stroke:none;stroke-width:1.86572"
         id="path15793" />
      <path
         d="m 2388.1253,1391.6352 c -9.8323,1.3433 -16.2131,10.3921 -15.2056,20.0192 7.7241,77.2224 12.8735,154.6873 23.1909,231.6111 0.1866,22.7432 35.7473,22.538 35.5421,-0.3172 -1.1941,-16.4184 -4.1606,-32.6875 -5.8211,-49.0685 -6.2688,-52.2776 -10.0003,-104.8351 -14.7579,-157.262 -2.5374,-16.5676 1.8658,-46.9602 -22.9484,-44.9826"
         style="fill:#4f262c;fill-opacity:1;fill-rule:evenodd;stroke:none;stroke-width:1.86572"
         id="path15795" />
      <path
         d="m 2505.3301,1481.5445 c -78.3417,5.5785 -158.5492,17.1833 -231.9842,45.3558 -13.2093,9.9443 -5.5225,32.5382 11.1384,31.9038 54.1433,-16.4743 109.7606,-30.2993 166.2734,-36.9413 19.758,-2.4068 39.6093,-3.2464 59.4047,-5.0934 22.7991,-2.8173 17.9482,-38.4526 -4.8323,-35.2249"
         style="fill:#4f262c;fill-opacity:1;fill-rule:evenodd;stroke:none;stroke-width:1.86572"
         id="path15797" />
      <path
         d="m 2379.9348,1569.1403 c -13.9929,15.84 -37.3891,26.344 -45.2811,46.214 -2.668,14.9631 16.7915,26.5679 28.4709,16.493 14.9445,-14.1609 32.2397,-26.9411 45.7849,-42.296 11.5488,-18.1722 -15.6908,-37.5197 -28.9747,-20.411"
         style="fill:#4f262c;fill-opacity:1;fill-rule:evenodd;stroke:none;stroke-width:1.86572"
         id="path15799" />
      <path
         d="m 2404.6556,1557.5541 c -39.2548,27.818 38.3407,52.0537 55.0762,68.64 12.8922,8.5264 30.7658,-5.5412 26.1015,-20.0565 -13.3399,-21.3626 -42.4825,-29.4598 -61.9234,-45.2065 -5.0188,-4.5711 -12.9481,-6.045 -19.2543,-3.377"
         style="fill:#4f262c;fill-opacity:1;fill-rule:evenodd;stroke:none;stroke-width:1.86572"
         id="path15801" />
      <path
         d="m 2454.4332,1502.5899 c -8.7316,15.3922 33.9188,87.633 54.2366,66.4198 20.5043,-19.1797 -12.5377,-39.4974 -18.9371,-58.0987 -1.3993,-18.7132 -26.5679,-27.2396 -35.2995,-8.3211"
         style="fill:#4f262c;fill-opacity:1;fill-rule:evenodd;stroke:none;stroke-width:1.86572"
         id="path15803" />
      <path
         d="m 2472.2135,1441.3381 c -7.3136,11.6048 -13.0041,23.9746 -19.0863,36.2324 -0.112,0.1866 -0.2053,0.3731 -0.1679,0.3545 -12.0899,18.4333 15.9519,37.016 28.2657,21.12 0.9142,-1.0448 1.6791,-2.1643 0.8955,-1.0075 7.7801,-13.2653 12.4631,-26.4 20.7655,-38.7698 11.8287,-19.646 -19.0117,-37.9115 -30.6725,-17.9296"
         style="fill:#4f262c;fill-opacity:1;fill-rule:evenodd;stroke:none;stroke-width:1.86572"
         id="path15805" />
      <path
         d="m 2430.6265,1380.8513 c -14.1981,18.0043 -61.7368,59.2181 -22.3327,74.1253 9.3473,1.2687 18.6386,-5.4106 20.0006,-14.8325 7.9666,-12.2578 17.8923,-23.1723 27.4634,-34.1615 16.5304,-16.0452 -9.254,-41.7549 -25.1313,-25.1313"
         style="fill:#4f262c;fill-opacity:1;fill-rule:evenodd;stroke:none;stroke-width:1.86572"
         id="path15807" />
      <path
         d="m 2328.1982,1410.7029 c -11.5674,23.135 20.3924,30.9897 36.0272,38.0981 14.7579,6.7726 41.8668,9.5898 42.7437,-12.8175 0.1306,-15.243 -14.5526,-17.743 -26.4373,-19.0677 -16.7915,-3.8621 -38.5645,-26.8105 -52.3336,-6.2129"
         style="fill:#4f262c;fill-opacity:1;fill-rule:evenodd;stroke:none;stroke-width:1.86572"
         id="path15809" />
      <path
         d="m 2277.6744,1471.0218 c -17.2579,14.3101 2.6307,31.9412 11.4929,44.7028 8.0226,15.784 33.4524,24.3663 40.281,3.153 2.2015,-8.0039 -1.6419,-16.493 -8.6756,-20.355 -11.4183,-12.3511 -22.2954,-41.7922 -43.0983,-27.5008"
         style="fill:#4f262c;fill-opacity:1;fill-rule:evenodd;stroke:none;stroke-width:1.86572"
         id="path15811" />
      <path
         d="m 2300.8467,1531.4526 c 3.321,19.9819 -22.1275,48.4156 1.8844,61.0652 31.2882,8.3211 31.1949,-40.4862 33.6577,-61.0652 0.1866,-22.9857 -35.7286,-23.0044 -35.5421,0"
         style="fill:#4f262c;fill-opacity:1;fill-rule:evenodd;stroke:none;stroke-width:1.86572"
         id="path15813" />
      <path
         d="m 2364.6918,1384.4708 c 4.3285,19.3663 -4.4217,60.207 24.8515,59.5913 27.3515,-6.4368 9.1607,-40.4676 10.6906,-59.6472 0.1119,-22.9671 -35.7473,-22.9298 -35.5421,0.056"
         style="fill:#4f262c;fill-opacity:1;fill-rule:evenodd;stroke:none;stroke-width:1.86572"
         id="path15815" />
      <path
         d="m 1557.6353,3169.6894 c -39.516,2.3695 40.0758,156.9821 48.8447,180.5089 72.9125,152.2618 197.375,271.9667 330.1027,372.8091 29.665,17.6311 45.0199,-20.1125 6.6046,-40.6542 -119.6862,-89.2189 -227.5997,-199.0914 -297.2845,-332.2295 -19.1983,-39.1616 -36.7921,-78.7896 -50.7104,-119.4997 -11.0265,-19.161 -7.5189,-64.4048 -37.5571,-60.9346"
         style="fill:#4f262c;fill-opacity:1;fill-rule:evenodd;stroke:none;stroke-width:1.86572"
         id="path15817" />
      <path
         d="m 1520.0969,3016.8679 c -27.1649,6.5114 -10.504,41.9415 -9.0301,60.9346 2.015,17.4072 13.7504,46.3633 35.2436,31.6613 14.5153,-11.8287 0.541,-26.6798 -0.8583,-40.5981 -5.9703,-17.5752 2.0523,-53.4157 -25.3552,-51.9978"
         style="fill:#4f262c;fill-opacity:1;fill-rule:evenodd;stroke:none;stroke-width:1.86572"
         id="path15819" />
      <path
         d="m 3409.7588,2519.5217 c -8.9182,2.5934 -15.2989,12.9108 -12.0712,22.0529 13.1906,37.4824 26.4933,75.0021 34.889,113.9211 25.803,123.8841 21.7544,251.6676 -6.0076,373.8539 -3.0598,22.6499 32.5755,27.2396 35.2995,4.2912 32.5382,-146.4407 33.8629,-302.8071 -11.157,-446.8037 -11.1757,-19.6648 -10.672,-72.3155 -40.9527,-67.3154"
         style="fill:#4f262c;fill-opacity:1;fill-rule:evenodd;stroke:none;stroke-width:1.86572"
         id="path15821" />
      <path
         d="m 3305.8379,2333.8821 c -21.7356,16.5677 25.8963,60.5988 30.2808,84.3308 6.6046,11.9033 8.5077,29.1053 21.5864,35.7286 13.881,6.2502 29.9262,-9.9443 22.8551,-23.7134 -14.0862,-21.6424 -40.7101,-118.3242 -74.7223,-96.346"
         style="fill:#4f262c;fill-opacity:1;fill-rule:evenodd;stroke:none;stroke-width:1.86572"
         id="path15823" />
      <path
         d="m 2986.855,1245.437 c -2.8172,20.8962 -6.1569,41.7176 -9.9816,62.4645 -7.9853,39.7213 -19.5528,78.603 -28.1538,118.1937 -2.0523,9.4592 3.0784,19.1796 12.7242,21.661 9.0861,2.3695 19.6275,-3.2277 21.6798,-12.7056 1.8843,-30.9897 65.1137,-204.2968 23.4894,-205.1364 -9.5525,-1.2127 -18.508,5.877 -19.758,15.5228"
         style="fill:#4f262c;fill-opacity:1;fill-rule:evenodd;stroke:none;stroke-width:1.86572"
         id="path15825" />
      <path
         d="m 3084.0966,1287.1546 c -6.0823,23.5082 -12.3511,48.229 -22.3514,70.2073 -4.3658,8.2278 -1.3806,19.2169 6.8845,23.732 35.0383,15.075 40.393,-63.1175 49.8522,-84.9651 5.9143,-22.1835 -28.7695,-31.3442 -34.3853,-8.9742"
         style="fill:#4f262c;fill-opacity:1;fill-rule:evenodd;stroke:none;stroke-width:1.86572"
         id="path15827" />
      <path
         d="m 2384.5058,2105.8346 c -56.5688,5.7464 -112.0367,21.12 -162.8591,46.7737 -19.9259,13.6011 -97.9692,39.9452 -79.6664,70.1139 15.3176,19.0864 33.3591,-4.3657 47.9304,-12.2391 20.1872,-12.4817 41.4191,-23.3962 62.9309,-33.4151 46.5312,-21.1574 96.7192,-33.0047 147.6162,-36.9787 16.493,-2.6493 35.0942,4.7949 50.2812,-2.556 31.9412,-41.102 -43.9937,-33.807 -66.2332,-31.6987"
         style="fill:#4f262c;fill-opacity:1;fill-rule:evenodd;stroke:none;stroke-width:1.86572"
         id="path15829" />
      <path
         d="m 2518.4648,2114.193 c -9.3846,2.2949 -15.3176,12.0713 -13.0227,21.4745 4.8136,19.4595 25.5977,10.2429 39.5907,13.8064 21.008,4.8882 41.2884,12.463 60.692,21.8663 8.6943,4.2912 19.6461,-0.6903 23.3775,-9.254 15.4669,-30.9524 -90.0958,-55.0575 -110.6375,-47.8932"
         style="fill:#4f262c;fill-opacity:1;fill-rule:evenodd;stroke:none;stroke-width:1.86572"
         id="path15831" />
      <path
         d="m 3104.6009,3418.5025 c -0.4851,23.3775 -0.9702,46.7177 -0.9702,70.0952 0,9.6831 8.0786,17.7804 17.7617,17.7804 32.9114,-5.1681 12.5004,-63.472 18.7505,-87.8756 0.2426,-22.9858 -35.654,-23.0231 -35.542,0"
         style="fill:#4f262c;fill-opacity:1;fill-rule:evenodd;stroke:none;stroke-width:1.86572"
         id="path15833" />
      <path
         d="m 3204.697,3362.0083 c -16.9781,6.2129 -49.3857,-2.4254 -51.1208,22.5939 2.612,28.415 37.7622,14.7579 55.9157,12.631 22.8551,-3.0225 17.8737,-38.6392 -4.7949,-35.2249"
         style="fill:#4f262c;fill-opacity:1;fill-rule:evenodd;stroke:none;stroke-width:1.86572"
         id="path15835" />
      <path
         d="m 3103.1083,3278.1813 c 4.1606,21.5865 -13.1347,65.1325 17.7057,69.7595 30.9151,-4.6457 13.3959,-48.1357 17.855,-69.7595 0.2052,-23.0044 -35.71,-23.0044 -35.5607,0"
         style="fill:#4f262c;fill-opacity:1;fill-rule:evenodd;stroke:none;stroke-width:1.86572"
         id="path15837" />
      <path
         d="m 3065.2901,3352.1386 c -20.7096,5.1308 -61.9981,-11.0077 -66.0094,18.9745 0,9.5525 8.0786,17.9482 17.7617,17.7803 19.6648,-2.5001 43.6207,4.7203 60.804,-6.4181 11.157,-10.2428 2.724,-31.1762 -12.5563,-30.3367"
         style="fill:#4f262c;fill-opacity:1;fill-rule:evenodd;stroke:none;stroke-width:1.86572"
         id="path15839" />
      <path
         d="m 3407.4453,3828.3648 c 2.1829,22.2955 -17.2579,67.8191 14.8325,73.0991 30.2061,-4.4217 13.937,-47.7065 20.3924,-68.2668 3.4329,-22.7992 -32.5942,-27.6687 -35.2249,-4.8323"
         style="fill:#4f262c;fill-opacity:1;fill-rule:evenodd;stroke:none;stroke-width:1.86572"
         id="path15841" />
      <path
         d="m 3530.3779,3775.6954 c -19.87,4.3285 -59.0875,-7.836 -62.4831,20.4111 0,9.6831 8.0972,17.7617 17.7803,17.7617 19.7954,-5.2614 59.0129,8.1159 62.4645,-20.4111 0.019,-9.3846 -8.1532,-18.1535 -17.7617,-17.7617"
         style="fill:#4f262c;fill-opacity:1;fill-rule:evenodd;stroke:none;stroke-width:1.86572"
         id="path15843" />
      <path
         d="m 3406.2326,3675.9165 c -0.3358,22.2208 -2.7053,44.796 0.056,66.8676 5.5785,21.717 39.4973,13.3026 34.4599,-8.5077 0.075,0.3358 0.1306,0.6903 0.2052,1.0261 l 0.056,0.2239 c -1.1381,-19.814 0.093,-39.7959 0.7649,-59.6099 0.2799,-22.9857 -35.654,-23.0044 -35.542,0"
         style="fill:#4f262c;fill-opacity:1;fill-rule:evenodd;stroke:none;stroke-width:1.86572"
         id="path15845" />
      <path
         d="m 3348.9922,3748.8663 c -15.4482,2.6493 -34.4413,-2.668 -47.5574,7.1831 -11.1197,10.2241 -2.7612,31.2135 12.575,30.3366 21.3066,-5.7837 56.1397,7.7988 69.1065,-12.5936 7.9666,-21.5305 -17.6685,-28.4336 -34.1241,-24.9261"
         style="fill:#4f262c;fill-opacity:1;fill-rule:evenodd;stroke:none;stroke-width:1.86572"
         id="path15847" />
      <path
         d="m 2086.0085,899.97945 c -169.016,27.4075 -341.5395,86.9241 -478.521,190.35995 -10.1122,19.5341 19.6461,36.7547 31.2136,17.9669 87.4465,-58.3226 182.0014,-100.32 281.2766,-133.51135 56.1583,-19.4968 114.6301,-30.7658 173.2512,-40.0011 22.5006,-4.3098 15.2803,-39.628 -7.2204,-34.8144"
         style="fill:#4f262c;fill-opacity:1;fill-rule:evenodd;stroke:none;stroke-width:1.86572"
         id="path15849" />
      <path
         d="m 2254.9686,873.84065 c -22.594,4.7203 -77.9314,-6.82863 -72.5394,29.5717 5.2427,15.1497 21.0827,11.7168 33.1353,9.0115 34.1427,-3.5449 68.6026,-5.1681 102.82,-1.8658 9.6458,0.8769 18.1909,-7.3882 18.6946,-16.8101 -3.9553,-33.06073 -58.5651,-16.7916 -82.1105,-19.9073"
         style="fill:#4f262c;fill-opacity:1;fill-rule:evenodd;stroke:none;stroke-width:1.86572"
         id="path15851" />
    </g>
  </g>
</svg>
