<?xml version="1.0" encoding="UTF-8" standalone="no"?>
<!-- Created with Inkscape (http://www.inkscape.org/) -->

<svg
   version="1.1"
   id="svg15367"
   width="666.66663"
   height="666.66669"
   viewBox="0 0 666.66663 666.66669"
   sodipodi:docname="172780529_10004174.eps"
   xmlns:inkscape="http://www.inkscape.org/namespaces/inkscape"
   xmlns:sodipodi="http://sodipodi.sourceforge.net/DTD/sodipodi-0.dtd"
   xmlns="http://www.w3.org/2000/svg"
   xmlns:svg="http://www.w3.org/2000/svg">
  <defs
     id="defs15371" />
  <sodipodi:namedview
     id="namedview15369"
     pagecolor="#ffffff"
     bordercolor="#000000"
     borderopacity="0.25"
     inkscape:showpageshadow="2"
     inkscape:pageopacity="0.0"
     inkscape:pagecheckerboard="0"
     inkscape:deskcolor="#d1d1d1"
     showgrid="true">
    <inkscape:grid
       type="xygrid"
       id="grid19220" />
  </sodipodi:namedview>
  <g
     id="g15375"
     inkscape:groupmode="layer"
     inkscape:label="Page 1"
     transform="matrix(1.3333333,0,0,-1.3333333,0,666.66665)">
    <g
       id="g15377"
       transform="scale(0.1)">
      <path
         d="M 5000,5000 V 0 H 0 v 5000 h 5000"
         style="fill:#f2f7ef;fill-opacity:1;fill-rule:evenodd;stroke:none"
         id="path15379"
         inkscape:export-filename="../Documentos/INGENIERÃA INFORMATICA/3er CURSO/1er CUATRI/interfaces/FinalCase/cp_gr07/src/images/galeria/galeria6.svg"
         inkscape:export-xdpi="96"
         inkscape:export-ydpi="96" />
      <path
         d="m 2478.1963,1381.6375 c 696.5226,0 1261.1649,-159.7462 1261.1649,-356.7986 0,-197.03879 -564.6423,-356.78503 -1261.1649,-356.78503 -696.5226,0 -1261.1643,159.74624 -1261.1643,356.78503 0,197.0524 564.6417,356.7986 1261.1643,356.7986"
         style="fill:#a8b99c;fill-opacity:1;fill-rule:evenodd;stroke:none;stroke-width:1.12535"
         id="path1870" />
      <g
         id="g24135"
         transform="matrix(2.1687442,0,0,2.1687442,-14374.915,2176.4886)">
        <path
           d="m 7944.6159,666.96162 c 6.34,-33.36 -10.45,-74.74 -18.98,-107.47 -18.21,-66.49 -77.3,-133.91 -152.04,-122.25 -88.19,4.03 -155.51,61.03 -164.56,150.42 -1.96,19.46 -18.09,106.22 7.65,108.69 8.58,7.09 21.34,2.73 31.53,2.5 23.83,-0.9 44.11,10.97 62.14,24.97 29.26,6.77 17.3,-20.31 23.67,-35.23 20.53,-28.21 59.58,-20.44 85.41,-4.12 15.66,8.65 26.93,25.85 44.49,30.36 27.98,1.84 20.61,-46.01 48.79,-45.8 10.41,4.27 24.89,11.26 31.9,-2.07"
           style="fill:#fab588;fill-opacity:1;fill-rule:evenodd;stroke:none"
           id="path15853" />
        <path
           d="m 7696.6659,-122.70838 c -18.35,11.28 -8.34,34.739995 -5.58,51.569995 1.57,13.36 8.95,35.3 26.17,25.64 4.19,2.41 9.41,2.74 14.12,0.75 8.43,-3.56 11.81,-12.96 13.18,-21.41 18.74,-10.31 7.11,-61.609995 -17.76,-50.299995 -7.96,-7.5 -20.04,-12.85 -30.13,-6.25"
           style="fill:#fab588;fill-opacity:1;fill-rule:evenodd;stroke:none"
           id="path15855" />
        <path
           d="m 7793.9659,-122.71838 c -5.16,-1.08 -10.87,-0.14 -14.96,3.01 -0.92,0.71 -1.79,1.52 -2.59,2.4 -40.35,5.73 9.15,105.789995 34.75,72.079995 19.58,-5.5 11.99,-29.19 2.98,-41.08 0.83,-1.24 1.46,-2.61 1.81,-4.05 0.57,-2.38 0.68,-4.75 0.4,-7.06 15.98,-12.919995 -7.58,-39.289995 -22.39,-25.299995"
           style="fill:#fab588;fill-opacity:1;fill-rule:evenodd;stroke:none"
           id="path15857" />
        <path
           d="m 7772.3759,-112.09838 c -0.03,0.22 -0.05,0.44 -0.07,0.66 -2.48,0.62 -4.92,1.4 -7.29,2.4 -1.63,0.7 -3.19,1.53 -4.78,2.31 -3.82,-0.16 -6.53,1.41 -8.14,3.74 -12.65,-11.03 -29.58,-16.66 -46.3,-16.26 -1.86,0.02 -3.61,0.58 -5.09,1.52 -3.05,-2.72 -7.65,-3.64 -11.86,-0.4 -7.2,5.25 -4.37,13.7 1.17,16.68 -5.02,5.019995 -7.92,11.959995 -1.46,17.379995 14.31,10.24 19.51,-24.649995 50.05,-5.19 5.08,5.51 11.7,4.11 15.2,0.15 1.57,1.32 3.67,2.15 6.29,2.16 5.26,-0.11 9.51,-3.67 14.34,-5.32 8.48,-2.47 17.58,-2.65 26.22,-0.93 4.38,1.01 8.85,1.92 12.99,3.75 2.3,1.83 4.84,3.14 8.1,2.64 5.63,-0.69 9.37,-6.55 7.88,-11.97 -8.76,-15.409995 -30.26,-18.809995 -46.52,-21.449995 -5.07,-0.62 -10.03,2.91 -10.73,8.13 z m -142.08,772.13 c 2.69,-74.24 11.11,-165.84 83.3,-198.87 7.21,-2.43 14.49,-4.63 21.84,-6.68 11.91,-3.39 6.93,-21.61 -5.07,-18.37 -40.62,9.06 -67.34,32.45 -85,63.13 -2.77,-3.8 -8.27,-5.74 -12.65,-2.92 -2.21,1.3 -3.59,3.31 -4.39,5.7 -5.86,17.74 -11.45,35.59 -16.87,53.48 -9.02,28.54 -13.64,56.07 -11.28,85.22 0.88,6.32 1.64,19.49 3.62,32.41 -7.6,4.47 -12.92,10.35 -12.08,17.54 1.18,4.28 5.16,7.08 9.54,7.08 3.43,0.21 5.46,-1.73 7.46,-3.8 0.4,1.07 0.82,2.09 1.27,3.05 l -0.07,3.54 c 0,5.19 4.34,9.52 9.53,9.52 5.55,-0.19 7.93,-3.28 8.98,-7.36 1.45,-1.98 2.21,-4.46 1.98,-6.88 1.19,-0.13 2.34,-0.25 3.42,-0.31 15.24,-0.81 30.8,-1.15 45.42,3.84 16.55,2.65 26.35,20.73 36.22,25.03 6.01,3.85 14.86,-0.69 14.69,-8.11 -3.21,-27.8 17.34,-61.59 48.36,-57.72 -3.26,6.33 1.8,13.43 8.56,13.84 19.67,4.73 39.63,10.54 56.66,21.8 7.35,4.92 13.61,11.23 18.81,18.36 2.41,3.85 5.74,7.4 10.61,7.46 9.22,0.14 11.79,-10.99 6.96,-17.49 -0.6,-1.21 -1.25,-2.42 -1.95,-3.62 0.13,-2.86 -1.15,-5.82 -4.43,-8.03 -0.29,-0.88 -0.34,-1.81 -0.33,-2.74 12.79,2.2 12,-14.79 18.84,-21.48 6.67,0.17 13.49,0.77 20.21,1.95 -0.32,4.49 0.03,8.96 3.05,11.55 l -0.01,0.05 c -3.92,14.81 17.47,19.97 18.96,4.29 0.45,-2.97 0.86,-5.94 1.22,-8.91 l 0.53,0.24 c 6.53,2.6 11.36,10.01 18.88,9.19 18.19,-7.59 4.22,-24.64 -17.29,-36.03 1.82,-49.26 -7.88,-98.46 -27.41,-144.03 -1.59,-3.89 -4.79,-11.87 -8.99,-20.69 -3.9,1.06 -8.13,0.94 -11.99,-0.43 -6.62,-2.36 -11.43,-8 -12.58,-14.63 -1.71,-1.57 -3.52,-3.14 -4.95,-4.91 -2.69,-3.35 -4.52,-6.98 -4.82,-11.32 -0.13,-1.85 0.03,-3.7 0.44,-5.5 -1.06,0.39 -2.11,1 -3.14,1.85 -2.25,2.27 -2.96,4.76 -2.68,7.22 -14.5,-14.1 -33.33,-28.11 -40.12,-16.62 -5.02,8.95 4.72,14.05 11.2,17.9 8.14,5.66 16.02,11.73 22.67,19.13 40.26,44.05 57.56,103.95 58.31,162.86 -11.78,-2.8 -23.33,-2.93 -31.65,1.44 -11.17,3.99 -21.5,17.8 -25.77,32.26 -27.12,-23.27 -67.67,-39.09 -97.26,-32.32 -22.19,5.51 -37.34,24.16 -44.22,45.21 -4.56,-3.4 -9.27,-6.4 -12.07,-8.86 -16.79,-11.93 -37.15,-18.87 -57.79,-18.96 -3.18,0.15 -8.76,0.52 -14.68,1.45 v 0"
           style="fill:#e59c6c;fill-opacity:1;fill-rule:evenodd;stroke:none"
           id="path15859" />
        <path
           d="m 7871.7559,524.31162 c -22.14,0.79 -31.52,27.93 -11.21,39.57 14.71,9 50.02,8.64 47.08,-15.39 0.31,-18.45 -20.14,-26.09 -35.87,-24.18 z m -198.85,41.01 c 3.56,-1.36 6.76,-3.46 9.24,-6.35 9.13,-11.36 -1.34,-25.93 -13.68,-29.49 -4.73,-2.69 -10.46,-4.02 -16.71,-3.13 -35.93,7.49 -14.8,53.44 15.66,42.04 2.09,-0.9 3.91,-1.93 5.49,-3.07 v 0"
           style="fill:#f68771;fill-opacity:1;fill-rule:evenodd;stroke:none"
           id="path15861" />
        <path
           d="m 8071.9259,619.37162 c 1.7,-35.69 5.94,-75.85 -14.44,-107.23 -21.6,-28.44 -64.09,-51.62 -98.64,-33.1 -23.33,15.82 -47.47,25.96 -29.38,57.33 13.92,48.34 16.42,98.24 10.29,147.97 -21.15,-16.36 -52.37,-25.35 -64.79,5.74 -3.02,5.29 -6.03,14.41 -7.47,23.75 -2.34,-1.55 -4.42,-3.08 -6.07,-4.64 -47.9,-32.73 -135.01,-77.47 -135.64,18.02 -34.34,-22.38 -76.64,-48.09 -118.66,-32.34 -8.16,-51.38 -10.47,-107.25 11.17,-155.73 8.62,-13.38 13.65,-28.84 -5.43,-35.45 -23.49,-13.87 -50.35,-20.54 -77.62,-18.95 -33.43,2.02 -66.21,16.94 -69.13,54.15 -9.03,70.13 24.68,155.79 62.39,214.15 6.57,15.01 13.61,22.79 19.9,25.91 2.24,2.51 4.26,4.82 5.76,6.83 17.88,16.6 38.21,30.54 58.19,44.47 30.2,19.75 65.65,31.75 101.62,34.49 16.05,0.87 32.29,0.44 48.02,-3.02 11.73,-1.6 21.46,-9.96 33.07,-11.03 20.28,3.26 39.81,10.95 60.7,9.33 41.03,-0.49 84.02,-7.89 118.99,-30.44 27.97,-20.28 52.49,-47.29 67.78,-78.4 17.12,-41.94 26.98,-86.58 29.39,-131.81"
           style="fill:#f3c34f;fill-opacity:1;fill-rule:evenodd;stroke:none"
           id="path15863" />
        <path
           d="m 8068.7359,638.37162 c 0.17,-3.25 0.37,-6.54 0.55,-9.85 -6.42,-2.16 -11.29,-7.52 -16.12,-12.06 -3.98,-3.72 -7.78,-7.61 -11.55,-11.52 -7.6,-7.9 -14.97,-16.07 -21.59,-24.83 -6.97,-9.21 -13.72,-18.6 -18.96,-28.94 -2.71,-5.38 -5.55,-10.86 -7.55,-16.56 -1.82,-5.2 -3.47,-10.36 -4.95,-15.66 -1.92,-6.92 -3.55,-14.02 -4.26,-21.17 -0.68,-6.87 -1.44,-13.86 -0.98,-20.79 -0.18,0 -0.35,0 -0.52,0 -1.4,0 -2.81,0.03 -4.23,0.13 -24.71,0.91 -49.83,15.96 -54.31,41.65 -0.9,13.72 5.38,26.65 9.51,39.41 12.87,41.48 23.4,87.11 9.3,129.52 -12.76,-11.59 -30.87,-23.12 -47.93,-13.24 -12.58,7.66 -44.63,38.91 -20.93,49.63 -1.36,1.97 -2.57,4.05 -3.62,6.19 -7.14,-7.52 -16.6,-14.32 -27.26,-19.87 1.42,-10.06 -12.61,-16.76 -20.64,-20.29 -17.24,-10.57 -38.11,-16.85 -58.41,-14.25 -16.37,1.97 -36.39,24.8 -25.14,39.71 -5.71,7.56 -9.47,17.45 -10.5,30.1 -2.85,-1.99 -5.83,-4.02 -8.94,-6.04 -10.59,-22.05 -89.2,-58.28 -118.01,-38.04 -4.72,-34.51 -12.43,-69.93 -6.05,-104.65 0.66,-10.07 9.45,-19.54 6.79,-29.36 2.41,-18.1 29.55,-47.28 21.93,-57.94 -5.64,-7.55 -18.94,-6.53 -26.58,-9.04 -21.65,-3.92 -43.08,-10.75 -64.98,-13.11 1.13,5.6 2,11.25 2.58,16.92 0.71,7.02 1.24,14.25 0.51,21.28 -0.71,6.76 -2.06,13.25 -3.9,19.78 -1.99,7.07 -4.42,14.1 -7.71,20.68 -2.45,4.89 -4.94,9.71 -8.12,14.19 -4.7,6.63 -9.74,13.28 -15.97,18.57 -6.65,5.63 -14.41,10.21 -22.94,12.29 -2.68,0.67 -5.44,1.32 -8.22,1.64 15.83,74.67 59.3,158.67 89.69,180.3 8.09,6.92 14.93,16.33 24.77,20.72 1.15,0.39 2.29,0.54 3.41,0.52 -4.72,-8.22 -8.38,-16.94 -10.85,-26.17 -1.42,-5.32 -2.27,-10.88 -2.3,-16.4 -0.05,-7.54 0.5,-15.83 3.89,-22.72 6.63,-13.37 19.79,-22.69 34.63,-24.64 2.8,-0.36 5.62,-0.52 8.44,-0.52 2.67,0 5.34,0.15 8.01,0.42 27.55,0.28 56.42,16.89 79.26,29.8 9.38,4.88 16.2,16.65 27.36,16.86 27.29,-6.35 -12.02,-66.19 69.83,-54.75 24.32,5.17 45.33,19.61 62.12,37.47 13.11,8.48 17.57,-4.97 20.47,-15.26 5.7,-10.84 17.73,-16.5 29.81,-18.21 2.39,-0.97 4.87,-1.77 7.42,-2.38 3.61,-0.85 7.38,-1.23 11.15,-1.23 3.39,0 6.79,0.3 10.07,0.82 6.73,1.08 13.64,3.16 19.43,6.88 3.5,2.25 6.75,4.71 9.92,7.41 4.91,4.18 9.42,9.19 13.25,14.38 3.29,4.44 6.41,9 9.04,13.87 2.71,5.06 4.62,10.4 6.38,15.85 1.86,5.8 3.2,11.79 3.76,17.88 0.05,0.41 0.07,0.83 0.08,1.24 3.59,-4.28 5.7,-10 8.13,-14.9 7.34,-19.7 16.56,-38.19 27.73,-55.97 13.68,-26.67 22.31,-55.82 24.8,-85.75"
           style="fill:#dc913d;fill-opacity:1;fill-rule:evenodd;stroke:none"
           id="path15865" />
        <path
           d="m 8383.4759,695.76162 c 62.55,-41.92 -17.11,-107.2 -51.1,-139.22 40.22,2.82 76.94,-29.51 78.84,-69.82 -0.67,-38.8 -44.86,-50.55 -74.56,-62.17 30.41,-7.15 55.62,-34.76 57.34,-66.33 -0.25,-37.78 -82.63,-47.46 -111.48,-60.38 13.47,-13.51 29,-25.64 38.48,-42.47 16.03,-24.19 3.65,-54.74 -24.17,-61.93 -30.07,-10.96 -62.16,-3.88 -93.24,-4.28 11.55,-11.54 25.54,-22.4 30.04,-38.87 4.86,-20.07 -6.92,-43.96 -25.77,-52.340005 -27.13,-11.34 -56.25,2.130005 -84.25,2.550005 -4.22,-36.030005 -27.7,-62.440005 -65.12,-63.150005 -14.3,1.97 -19.67,17.05 -22.84,29.26 -3.97,15.76 -10.42,30.71 -16.61,45.690005 -15.52,32.81 -23.42,67.63 -28.35,103.4 -6.45,39.59 -24.69,75.18 -41.46,111.15 -8.25,17.15 -24.54,32.79 -26.51,51.98 -22.06,10.9 -7.55,29.24 3.24,42.67 10.31,15.28 19.98,31.14 32.64,44.63 6.72,8.43 17.09,6.85 26.54,6.24 35.59,3.89 65.69,29.05 79.36,61.6 10,18.42 15.09,38.23 17.8,58.72 22.91,36.37 66.22,55.05 103.32,74.04 60.79,24.99 132.93,54.19 197.86,29.03"
           style="fill:#ffffff;fill-opacity:1;fill-rule:evenodd;stroke:none"
           id="path15867" />
        <path
           d="m 7608.4959,448.16162 c 14.28,-17.86 50.14,-65.66 37.16,-87.5 -3.21,-33.09 -17.13,-63.86 -30.15,-94.07 -25.93,-56.94 -52.75,-113.56 -73.79,-172.560005 -11.13,-21.52 -18.42,-81.64 -47.98,-79.81 -8.56,0.98 -14.69,7.5 -22.22,11.05 -11.15,5.34 -24.22,0.04 -36.14,1.28 -12.39,0.49 -24.78,2.46 -35.81,8.44 -29.69,15.74 -23.03,56.8 1.49,74.270005 -37.51,-1.7 -75.62,6.21 -105.39,30.12 -40.71,36.93 -34.59,73.42 13.79,97.89 -41.59,20.14 -84.05,41.56 -109.94,81.08 -23.19,36 1.79,68.77 41.05,72.1 -24.43,16.94 -54.57,31.21 -67.87,59.28 -25.57,49.11 8.44,103.2 62.48,106.65 -30.27,35.58 -87.44,67.55 -51.36,121.06 24.52,33.87 71.56,19.41 105.82,12.32 18.64,-3.5 37.74,-6.42 54.74,-15.29 17.3,-8.75 33.4,-19.56 49.23,-30.69 25.15,-16.13 53.48,-32.59 66.34,-60.91 6.7,-19.29 6.69,-40.59 17.4,-58.77 14.22,-31.8 52.39,-39.56 83.99,-39.78 22.61,0.51 35.25,-20.02 47.16,-36.16"
           style="fill:#ffffff;fill-opacity:1;fill-rule:evenodd;stroke:none"
           id="path15869" />
        <path
           d="m 8053.6459,515.84162 c -10.57,-24.2 -37.24,-37.35 -62.02,-42.44 -10.46,-3.97 -27.55,1.87 -35.41,-6.37 -4.43,-0.81 -7.86,-4.76 -7.86,-9.38 2.61,-15.67 27.89,-18.99 41.08,-19.85 43.49,-2.05 74.14,31.37 81.95,71.88 1.73,10.02 -12.86,15.03 -17.74,6.16 z m -529.97,-423.770005 c -3.59,14.640005 -30.47,1.36 -60.79,23.010005 -13.52,9.09 -22.95,22.63 -31.81,36.02 -6.71,11.67 -17.65,5.22 -27.43,2.68 -12.59,-2.08 -25.53,-2.97 -38.15,-0.67 -29.97,5.77 -71.45,35.92 -55.32,69.97 4.03,5.89 9.2,11.18 15.94,13.84 10.03,2.99 19.59,12.28 9.91,21.88 -29.61,24.17 -101.33,57.26 -93.03,102.32 7.18,20.28 34.08,15.16 41.47,28.37 8.14,15.74 -51.39,47.48 -57.37,90.61 -13.92,56.93 71.47,63.07 49.62,89.4 -26.41,17.15 -49.62,36.91 -67.85,63.51 -5.42,8.85 -10.9,17.95 -13.32,28.14 0.51,3.77 -1.5,7.86 -4.83,9.72 -14.6,5.6 -16.68,-10.69 -11.86,-20.66 -3.34,-17.39 9.89,-37.18 18.91,-51.61 9.92,-17.43 28.92,-25.74 41.71,-40.17 -9.91,-19.71 -37.93,-7.98 -54.42,-21.72 -38.21,-30.69 -21.31,-77.64 9.88,-106.28 12.15,-14.21 31.4,-20.34 43.03,-34.69 -26.11,-2.74 -52.47,-21.61 -52.65,-49.9 -0.84,-44.28 71.43,-89.26 108.53,-103.13 -2.61,-8.31 -12,-11.53 -16.98,-18.28 -19.78,-19.38 -16.63,-45.62 -1.67,-66.82 26.26,-40.32 68.7,-49.37 113.97,-48.34 4.91,-0.14 13.14,-1.05 7.84,-7.39 -25.75,-27.790005 -15.43,-53.890005 16.23,-69.980005 12.99,-5.81 27.75,-5.63 41.73,-5.74 7.51,0.22 14.85,2.76 20.96,-2.85 13.88,-7.66 21.73,4.42 24.96,16.53 3.81,9.91 7.71,19.78 12.2,29.4 2.79,7.95 12.46,13.69 10.59,22.83 z m -210.59,159.640005 c -1.2,0.79 -2.4,1.59 -3.6,2.38 0.72,-1.01 1.42,-2.13 2,-3.29 0.53,0.31 1.06,0.61 1.6,0.91 z m -52.73,145.65 c -1.44,1.44 -2.88,2.88 -4.32,4.32 0.35,-0.9 0.66,-1.83 0.92,-2.77 0.24,-0.87 0.39,-1.74 0.47,-2.62 0.97,0.39 1.96,0.69 2.93,1.07 z m 1141.99,259.34 c 3.96,-44.18 -36.28,-71.25 -66.18,-96.18 20.02,-12.5 42.39,-20.14 57.86,-38.4 43.6,-47.89 -19.85,-82.07 -59.78,-98.03 37.8,-11.05 78.67,-57.51 32.1,-86.45 -25.67,-19.59 -60.14,-20.99 -86.62,-37.92 7.8,-18.61 26.79,-29.08 34.5,-47.58 20.15,-69.37 -66.88,-64.33 -111.23,-63.21 71.06,-78.22 -4.93,-117.120005 -81.92,-91.430005 4.58,-36.5 -25.85,-60.07 -60.5,-56.01 -16.66,0.49 -12.51,16.18 -16.58,27.39 -2.21,11.95 -22.97,29.88 -3.48,36.920005 7.87,1.44 15.64,4.72 20.77,11.1 3.3,4.74 4.99,10.33 5.16,16.08 0.16,4 -0.59,7.99 2.19,11.33 4.59,5.55 12.29,3.8 18.61,4.34 22.79,0.15 45.95,11.01 57.65,31.09 8.11,11.29 -2.28,28.23 8.77,37.21 4.37,3.02 10.12,2.61 15.2,2.52 17.08,-0.63 34.49,-0.8 51.04,4.12 22.74,6.19 58.07,39.88 33.84,61.69 -7.99,5.9 -27.74,7.12 -18.88,21.52 4.25,4.7 12.51,5.41 17.51,8.55 25.48,14.29 71.74,38.17 64.69,72.94 -4.08,15.54 -22.92,17.22 -36.27,19.7 -6.8,0.29 -12.26,7.23 -9.37,13.77 3.57,7.23 13.13,7.38 19.44,11.25 15.25,7.05 29.1,17.13 38.5,31.25 19.32,25.46 24.36,59.14 -9.88,74.12 -13.78,6.59 -27.36,9.63 -42.1,12.18 -6.4,1.29 -9.99,8.96 -6.56,14.6 3.8,5.4 10.48,8 15.49,12.15 33.88,26.65 97.72,66.95 80.62,117.12 -25.06,11.86 16.54,40.64 21.85,-8.72 14.15,-0.3 11.11,-19.27 13.56,-29.01 z m -820.21,-188.5 c 2.57,-3.29 3.53,-6.4 3.23,-9.29 4.78,3.99 10.81,7.63 16.22,2.16 12.9,-23.04 -33.23,-27.57 -47.77,-25.64 -5.72,0.21 -11.42,0.73 -17.01,1.57 v 0 c -0.01,0 -0.01,0 -0.02,0 -5.13,0.07 -9.51,0.81 -12.35,2.34 -31.45,6.71 -60.38,29.94 -66.32,62.59 0,0.11 0,0.22 0.01,0.33 -4.36,11.66 -7.53,25.31 1.01,31.62 4.56,2.48 10.36,1.15 13.03,-3.42 2.48,-4.15 0.05,-8.83 1.67,-13.24 1.57,-6.72 3.85,-13.58 6.88,-20.12 v -0.01 c 12.01,-4.02 24.4,-9.3 36.06,-14.67 8.8,-4.42 16.73,-12.07 27.26,-10.03 12,-1.66 34.05,13.5 38.1,-4.19 v 0"
           style="fill:#d6bcc0;fill-opacity:1;fill-rule:evenodd;stroke:none"
           id="path15871" />
        <path
           d="m 8103.3959,-275.40838 c 4.2,-23.15 5.21,-46.82 5.49,-70.31 -0.1,-8.39 -5.87,-13.02 -12.21,-13.84 -17.17,-20.24 -43.1,-30.78 -65.5,-44.27 -22.38,-12.28 -46.89,-19.49 -71.17,-26.95 -21.02,-5.61 -78.15,-29.47 -96.4,-23.09 -3.19,1.87 -5.58,4.96 -6.57,8.54 -0.79,2.86 -0.55,6 0.49,8.85 -50.13,-5.23 -100.37,-10.03 -150.85,-7.54 -52.03,-0.55 -105.16,1.99 -153.82,22.23 -7.87,4.21 -21.56,8.9 -30.92,15.83 -3.86,-2.39 -8.89,-2.92 -14.11,0.1 -33.52,24.36 -107.51,51.06 -92.1,102.88 11.01,44.36 21.94,88.77 31.76,133.43 10.67,60.31 25.99,119.619995 43.86,178.1799952 13.5,35.5199998 17.2,76.5399998 39.98,107.6500048 -1.58,21.7 -5.4,44.11 1.16,65.3 0.55,16.15 2.48,32.01 5.62,37.22 1.64,15.84 5.83,30.62 13.38,44.43 9.72,21.37 20.97,42.2 35.18,60.94 11.74,17.1 29.31,29.6 43.73,43.67 15.38,18.59 25.55,40.68 37.71,61.35 23.6,42.34 24.35,24.98 61.21,14.56 18.46,-2.58 35.56,-3.56 53.91,-2.96 23.91,2.19 48.42,2.05 71.66,8.67 5.34,2.23 10.71,5.96 16.77,3.91 22.71,-14.15 30.93,-51.86 36.32,-83.33 1.02,-0.1 2.07,-0.29 3.16,-0.55 44.41,-13.75 69.99,-57.87 79.07,-101.15 10.7,-37.77 15.67,-76.85 17.89,-115.77 22.75,-55.470005 38.4,-113.470005 53.66,-171.360005 19.72,-78.27 23.33,-159.199995 34.51,-238.899995 4.87,-3.88 6.61,-11.4 7.13,-17.72 z m -310.89,147.13 c 39.06,1.65 30.56,24.09 24.96,52.609995 -5.04,17.81 -6.02,36.81 -14.05,53.67 -7.48,-7.3 -14.41,-15.24 -21.33,-23.04 -9.29,-10.6 -21.38,-35.06 -37.73,-20.7 -8.53,13.1 -16.97,25.27 -27.87,36.46 -17.96,-28.15 -36.75,-56.96 -46.04,-89.309995 50.65,-18.3 63.52,7.87 93.19,-1.31 8.83,-5 18.5,-9.14 28.87,-8.38 v 0"
           style="fill:#b3e1f0;fill-opacity:1;fill-rule:evenodd;stroke:none"
           id="path15873" />
        <path
           d="m 8109.4159,-321.91838 c 0.08,-13.4 4.01,-30.72 -8.86,-39.49 -13.78,-10.53 -27.75,-20.96 -39.8,-33.52 -4.03,-4.11 -8.72,-10.02 -15.06,-9.17 -6.43,0.75 -9.78,7.19 -8.61,13.2 1.12,11.29 1.11,22.65 1.18,34 0.11,30.1 0.07,60.24 -0.88,90.33 -0.97,55.75 -9.46,110.96 -19.44,165.73 -5.01,24.719995 -9.59,49.319995 -16.22,73.359995 -14.51,-34.47 -34.94,-66.5 -60.12,-93.849995 -19.97,-19.78 -42.22,-37.34 -65.66,-52.83 -31.15,-20.6 -49.1,-20 -73.74,8.87 -15.72,-4.31 -32.12,-2.29 -46.35,5.6 -15.81,-15.18 -38.57,-11.11 -57.72,-6.11 -7.27,-11.18 -15.4,-30.32 -31.79,-26.21 -59.87,23.52 -99.91,73.28 -125.85,130.739995 -2.99,-10.61 -5.75,-21.2 -8.02,-31.36 -8.36,-39.409995 -16.64,-78.859995 -25.16,-118.249995 -7.63,-35.78 -13.09,-72.02 -16.31,-108.47 -1.62,-19.91 -2.55,-39.88 -3.81,-59.82 0.18,-10.6 -1.5,-28.59 -16.57,-20.08 -1.63,1.47 -2.64,2.98 -3.44,5.02 -0.11,0.28 -0.21,0.57 -0.31,0.86 -2.64,-9.65 -17.64,-8.35 -18.55,1.66 -0.34,3.51 -0.22,7.06 -0.34,10.59 -11.68,-7.54 -17.92,5.89 -14.7,16.13 -11.35,1.71 -7.93,14.94 -7.57,23.08 -10.08,3.04 -6.07,14.76 -5.34,22.43 -4.1,14.36 3.26,30.15 4.53,44.78 3.86,11.2 3.17,44.63 15.69,47.07 0.48,1.86 0.97,3.71 1.44,5.55 0.03,48.17 17.34,96.03 29.5,142.719995 4.76,19.63 9.59,39.25 15.1,58.69 3.44,8.34 2.61,22.9600002 13.52,24.8900002 2.85,4.87 6.29,16.4099998 10.76,26.6999998 -2.19,10.22 -4.06,20.39 -5.64,30.41 -2.69,7.85 3.88,17.5 12.59,13.98 2.85,-1.44 4.51,-3.65 5.52,-6.27 1.5,-0.94 2.63,-2.32 3.4,-3.94 2.19,5.44 6.02,11.02 11.66,10.58 -2.75,18.61 -4.47,37.240005 -5.41,55.460005 -2.7,26.91 -6.02,54.15 -1.43,81.03 2.42,16.48 6.02,32.73 10.53,48.74 2.24,8.84 15.7,9.24 18.2,0.43 7.92,27.88 18.42,56.39 35.57,80.03 -6.96,5.78 -1.38,20.17 14.09,16.63 0.84,0.85 1.69,1.68 2.54,2.5 2.9,2.24 5.99,2.46 8.63,1.47 8.53,7.35 27.83,-4 18.37,-16.1 2.34,-9.72 12.97,-26.62 6.43,-35.1 -2.76,-3.29 -7.3,-4.72 -11.26,-2.95 -10.79,7.39 -4.74,19.06 -19.62,27.44 -4.83,-6.22 -9.03,-12.94 -12.96,-19.71 -39.84,-73.03 -43.11,-155.03 -13.81,-232.270005 15.95,-47.35 46.16,-89.2899998 82.86,-122.41 3.89,-3.24 7.69,-6.82 12.13,-9.28 6.13,-0.44 10.9,-6.23 9.69,-12.35 -3.87,-12.04 -11.09,-22.96 -13.2,-35.67 -1.54,-4.359995 -1.84,-10.509995 -2.26,-16.579995 1.62,-1.92 3.3,-3.77 5.14,-5.47 8.43,1.51 14.68,-6.49 22.1,-9.2 3.21,-2.05 7.45,-2.21 10.5,-4.2 14.48,3.24 23.83,14.34 39.9,14.1 21.48,-6.57 44.57,-15.33 66.4,-5.3 3.17,3.23 4.74,8.55 6.87,13.07 v 0.01 c -0.11,0.82 -0.25,1.61 -0.42,2.37 -1.33,12.739995 -4.96,25.089995 -6.91,37.699995 -0.87,7.23 4.17,12.18 10.11,15.24 6.92,4.76 13.34,10.27 19.59,15.75 41.45,37.1000002 70.43,86.42 88.82,138.57 17.7,52.590005 31.74,108.480005 25.85,164.310005 -2.77,23.67 -12.04,45.81 -20.85,67.82 -16.37,-2.82 -14.09,-19.47 -28.07,-15.69 -14.13,7.79 0.94,22.68 9.52,28.28 -0.64,6.29 5.61,10.79 11.2,9.99 0.12,5.09 2.54,9.32 9.26,9.73 6.51,-0.34 8.84,-5.29 10.57,-10.9 10.76,-2.71 15.38,-13.47 7.13,-19.12 7.5,-19.22 15.42,-38.42 18.9,-58.83 3.02,7.26 13.99,7.86 17.75,0.82 4.54,-14.47 0.99,-30.62 0.77,-45.6 -1.26,-21.06 -2.93,-41.92 -5.41,-62.86 8.13,2.45 13,-6.45 14.26,-13.58 1.4,-4.95 2.69,-9.93 3.95,-14.91 1.99,-0.8 3.87,-2.47 5.38,-5.21 4.67,-12.89 8.89,-25.92 13.42,-38.850005 14.13,-34.64 20.39,-71.61 30.31,-107.53 20.65,-75.36 30.76,-153.429995 39.19,-230.989995 2.92,-27.18 5.23,-51.97 6.65,-78.43 z m -314.72,314.9199952 c 7.5,-4.8800002 3.51,-13.2500002 -0.71,-18.8900002 -2.32,-4.23 -4.21,-8.91 -8.14,-11.95 -9.92,-7.73 -17.51,-18.37 -22.26,-29.96 0.76,-5.45 -2.85,-9.11 -7.16,-10.18 -1.07,-0.95 -2.46,-1.74 -4.25,-2.34 -4.89,-1.11 -10.49,2.06 -11.4,7.17 -1.78,7.15 -4.94,13.86 -8.59,20.3 -4.03,-0.57 -8.35,1.14 -9.99,5.79 -4.59,6.66 -0.95,15.64 -2.8,23.2 0.02,8.29 -3.7,18.8100002 2.91,25.3800002 5.42,5.32 14.4,1.52 16.4,-5.28 3.57,-8.1700002 2.12,-16.6200002 1.4,-25.0800002 4.64,-5.59 7.83,-14.69 11.32,-19.54 0.02,-0.04 0.02,-0.08 0.04,-0.12 6.3,10.22 15.77,19.57 22.86,26.2 4.15,7.5 9.56,21.64000018 20.37,15.3000002 z m 88.37,462.3300048 c 3.34,-2.64 5.08,-7.17 2.24,-11.89 -4.87,-7.89 -11.26,-14.49 -18.62,-20.07 -28.11,-18.54 -63.89,-23.35 -96.97,-23.02 -35.63,3.27 -76.63,18.2 -92.53,52.13 0,5.19 4.33,9.52 9.52,9.52 1.4,-0.24 2.69,-0.67 3.91,-1.23 h 0.01 c 4.47,0 10.2,-2.66 16.19,-9.71 11.06,2.61 22.83,-5.48 34,-7.01 41.14,-14.96 85.06,-12.15 121.13,13.78 6.86,5.98 19.24,7.01 21.12,-2.5 z m -41.86,-526.220005 c -0.23,-0.15 -0.46,-0.3 -0.68,-0.45 0.07,-0.35 0.15,-0.7 0.23,-1.05 0.12,0.51 0.27,1.01 0.45,1.5 v 0"
           style="fill:#79afc8;fill-opacity:1;fill-rule:evenodd;stroke:none"
           id="path15875" />
        <path
           d="m 8094.6659,-408.56838 c 0.12,0.89 0.22,1.78 0.32,2.67 -0.98,-0.83 -1.97,-1.65 -2.97,-2.44 0.89,-0.02 1.77,-0.09 2.65,-0.23 z m -410.69,-113.42 c -14.62,6.63 -34.57,14.29 -43.89,27.56 -33.53,2.01 -66.34,-5.64 -99.47,-8.51 -23.27,0.69 -51.95,24.35 -62.22,44.27 -6.18,-0.18 -10.16,2.89 -14.86,4.57 -9.49,2.78 -19.4,3.8 -29.21,4.79 -15.39,1.94 -39.53,-8.66 -45.81,11.74 -2.93,15.98 4.5,31.68 8.92,46.74 1.03,11.39 -0.94,23.05 1.11,34.53 0.59,19.19 31.78,19.54 33.2,0.79 26.89,-34.18 72.3,-44.36 110.6,-60.87 67.99,-31.38 111.33,-30.64 183.05,-32.99 63.62,-2.16 128.11,-3.65 190.8,7.1 49.83,12.77 101.61,24.72 147.35,48.55 16.24,7.18 29.2,34.83 44.6,32.75 28.9,-6.56 14.91,-69.26 1.87,-86.15 -25.23,-45.62 -77.57,-17.48 -117.17,-29 -58.91,-28.89 -59.18,-65.17 -135.32,-31.24 -18.04,-0.59 -35.63,7.01 -53.92,4.64 -40.33,-2.41 -78.87,-31.28 -119.63,-19.27 v 0"
           style="fill:#ffffff;fill-opacity:1;fill-rule:evenodd;stroke:none"
           id="path15877" />
        <path
           d="m 8101.8159,-356.87838 c 22.66,5.42 17.69,-33.88 17.73,-47.37 -0.62,-4.43 -1.42,-8.95 -2.44,-13.46 0.38,-0.26 0.77,-0.55 1.16,-0.87 7.41,-7.57 -2.41,-15.19 -4.45,-22.86 -2.66,-6.22 -7.07,-15.61 -14.23,-15.16 -2.62,-3.17 -5.57,-6.09 -8.87,-8.67 -18.24,-13.12 -43.52,-16.62 -61.91,-1.9 -9.24,-7.83 -21.84,-6.28 -32.66,-10.04 -21.7,-9.47 -34.6,-32.14 -57.25,-40.46 -37.06,-18.63 -72.01,11.32 -108.59,14.39 -36.57,1.41 -68.2,-23.87 -104.42,-23.62 -26.33,-0.34 -45.45,18.77 -67.5,29.65 -19.06,4.77 -39.4,3.12 -58.54,0.04 -22.28,-5.62 -45.99,-11.59 -68.41,-3.24 -27.18,11.33 -42.76,41.66 -71.88,49.1 -1.49,0.26 -2.99,0.5 -4.49,0.72 -4.3,-3.87 -11.63,-4.1 -15,1.53 -0.16,0.02 -0.32,0.03 -0.47,0.03 -2.96,-2.66 -7.13,-3.12 -11,-2.99 -9.34,-2.19 -18.99,-8.67 -28.72,-6.43 -7.84,3.31 -5.75,12.69 -5.39,19.47 1.93,29.48 4.68,59.11 12.6,87.67 1.62,18.11 23.72,18.62 20.43,-0.27 6.1,-1.41 8.41,-8.2 7.63,-13.87 7.44,2.6 14.21,-4.37 13.32,-11.77 2.93,-0.03 5.48,-1.46 7.44,-3.7 1.88,-2.13 2.34,-4.87 2.42,-7.61 0.84,0.33 1.78,0.56 2.82,0.63 2.06,0.16 3.97,-0.19 5.62,-1.02 7.01,5.89 18.21,-2.3 14.67,-10.86 -2.02,-8.03 -2.85,-16.28 -3.81,-24.49 -0.53,-4.17 -0.73,-8.41 -1.31,-12.58 30.9,-13.07 48.85,-53.39 86.11,-48.56 37.76,6.2 81.39,20.97 116.67,-1.15 40.53,-32.66 62.9,-20.73 106.77,-5.06 74.8,28.57 103.66,-35.93 156.05,-2.88 16.21,10.58 26.22,25.72 43.57,33.59 26.81,9.53 35.02,0.46 46.16,33.54 5.27,10.08 -0.25,23.86 8.39,32 13.13,6.14 27.27,10.74 39.45,18.99 8.22,5.57 13.6,14.77 22.33,19.54"
           style="fill:#d6bcc0;fill-opacity:1;fill-rule:evenodd;stroke:none"
           id="path15879" />
        <path
           d="m 7789.2259,426.93162 c -101.23,3.91 -174.68,57.49 -190.35,160.37 -6.11,34.52 -7.26,68.78 -6.4,103.45 0.18,8.81 -1.57,24.41 11.4,23.35 5.88,-0.77 9.3,-6.73 7.98,-12.32 -0.89,-20.62 -0.71,-43.66 0.2,-63.66 4.71,-94.12 37.97,-167.37 137.44,-187.4 138.97,-32.21 196.73,111.71 189.65,227.13 -0.08,5.19 4.4,9.53 9.53,9.53 18.22,0.4 6.29,-49.5 7.76,-62.19 -3.19,-91.74 -65.63,-199.17 -167.21,-198.26"
           style="fill:#4f262c;fill-opacity:1;fill-rule:evenodd;stroke:none"
           id="path15881" />
        <path
           d="m 7902.3659,657.83162 c -20.61,3.61 -33.46,24.89 -38.46,43.72 -37.46,-45.82 -138.26,-70.88 -143.07,12.3 -32.1,-24.78 -80.36,-43.59 -118.12,-20.69 -8.7,7.31 -30.39,20.81 -18.72,33.03 21.73,11.29 22.19,-50.9 102.6,-11.73 13.79,6.33 25,16.26 35.58,26.85 10.83,8.64 20.66,-2.82 17.64,-14.25 -5.68,-58.84 47.54,-57.96 85.51,-33.37 15.59,5.6 45.01,57.26 55.45,24.86 0.66,-14.16 5.67,-27.91 16.2,-37.74 22.45,-16.1 52.76,22.59 56.5,43.21 5.18,9.79 21.08,2.45 17.31,-7.59 -7.47,-30.33 -35.57,-59.97 -68.42,-58.6"
           style="fill:#4f262c;fill-opacity:1;fill-rule:evenodd;stroke:none"
           id="path15883" />
        <path
           d="m 7523.3659,472.50162 c -125.27,19.29 -57.33,211.59 -10.45,279.1 37.9,59.49 97.11,104.42 166.54,119.46 20,5.93 115.47,12.44 119.5,-11.25 0,-5.19 -4.33,-9.53 -9.52,-9.53 -71.38,19.45 -151.08,-0.48 -207.63,-47.77 -65.46,-60.55 -110.51,-149.49 -110.08,-239.51 1.12,-45.57 23.27,-76.42 72.01,-71.88 26.55,3.58 55.77,8.01 77.68,24.4 9.63,7.72 21.47,-7.66 11.64,-15.08 -30.85,-21.82 -72.34,-29.81 -109.69,-27.94"
           style="fill:#4f262c;fill-opacity:1;fill-rule:evenodd;stroke:none"
           id="path15885" />
        <path
           d="m 7977.0759,466.67162 c -13.15,0.75 -77.63,43.36 -58.87,56.94 11.72,7.7 18.11,-9.94 26.35,-15.37 18.51,-17.43 41.47,-31.02 66.91,-19.47 26.45,8.17 39.14,35.31 48.64,59.17 7.75,23.65 3.57,49.32 3.02,73.76 -4.8,60.65 -21.29,123.09 -62.41,169.5 0.08,-0.1 0.15,-0.18 0.23,-0.27 -28.79,32.16 -71.16,48.91 -112.46,58.03 -33.89,5.5 -69.58,0.98 -102.28,-8.59 -6.53,-4.95 -17.58,-2.4 -17.6,6.89 0.1,8.7 9.99,10.22 16.35,13.06 73.55,20.7 148.92,8.52 210.34,-37.7 68.85,-58.09 88.29,-153.92 88.19,-240.14 2.75,-57.47 -42.37,-127.47 -106.41,-115.81"
           style="fill:#4f262c;fill-opacity:1;fill-rule:evenodd;stroke:none"
           id="path15887" />
        <path
           d="m 7667.3659,580.47162 c -20.78,5.63 -8.8,42.4 11.73,29.74 10.81,-8.76 2.59,-31.58 -11.73,-29.74"
           style="fill:#4f262c;fill-opacity:1;fill-rule:evenodd;stroke:none"
           id="path15889" />
        <path
           d="m 7866.7059,581.72162 c -6.48,2.03 -13.54,13.25 -10.91,19.93 1.55,10.76 16.42,16.88 23.77,7.58 7.59,-9.41 1.13,-30.74 -12.86,-27.51"
           style="fill:#4f262c;fill-opacity:1;fill-rule:evenodd;stroke:none"
           id="path15891" />
        <path
           d="m 7762.7659,544.56162 c -22.46,4.69 -27.22,31.65 -24.9,51.12 0.76,5.14 5.54,8.85 10.73,8.14 11.06,-1.71 7.29,-13.87 8.01,-21.73 0.67,-7.31 2.97,-20.59 12.91,-18.68 -0.42,-0.14 -0.79,-0.27 -1.19,-0.41 11.08,3.4 13.8,16.47 13.93,26.68 -0.08,12.32 19.18,12.33 19.04,0 1.08,-21.53 -13.87,-49.29 -38.53,-45.12"
           style="fill:#4f262c;fill-opacity:1;fill-rule:evenodd;stroke:none"
           id="path15893" />
        <path
           d="m 7668.7659,-123.51838 c 7.66,43.229995 25.87,83.619995 43.67,123.47999518 -85.66,75.27999982 -98.54,253.40000482 -80.07,359.97000482 -140.69,-106.29 -116.77,-398.270005 36.4,-483.45 z m -6.08,-18.28 c -127.48,68.599995 -164.94,250.37 -129.52,381.58 12.24,44.71 63.18,145.3 115.57,144.07 6.31,-2.63 6.61,-9.69 4.43,-15.08 -3.46,-19.24 -6.7,-41 -7.96,-59.92 -6.08,-88.04 9.12,-238.620005 82.67,-296.280005 13.1,-11.85999982 -4.5,-29.19 -7.8,-42.25 -7.19,-16.81 -14.29,-33.69 -20.3,-50.85 -3.82,-11.16 -7.35,-22.439995 -9.82,-33.989995 -1.92,-14.81 -7.28,-39.28 -27.27,-27.28 v 0"
           style="fill:#4f262c;fill-opacity:1;fill-rule:evenodd;stroke:none"
           id="path15895" />
        <path
           d="m 7816.2259,-34.488385 c 7.4,-31.58 15.74,-63.03 20.53,-95.139995 82.29,35.229995 115.53,129.39999518 140.71,208.739995 26.75,90.440005 29.66,210.160005 -46.38,277.540005 2.65,-57.41 -3.96,-114.66 -22.51,-169.2 -21.84,-69.46 -45.45,-143.160005 -99.28,-194.8100048 2.02,-9.1100002 4.68,-18.0800002 6.93,-27.1300002 z m 5.69,-112.209995 c -10.88,44.01 -18.14,89.829995 -30.92,133.779995 -5.58,18.3900002 17.29,28.05 25.28,41.6 20.29,25.8 35.11,54.16 46.52,84.710005 22.09,58.9 43.98,119.33 48.72,182.51 1.16,20.09 0.67,40.23 0.54,60.34 -2.08,10.12 4.58,27.05 16.72,17.98 18.56,5.95 38.48,-27.88 47.7,-41.04 36.59,-59.01 42.81,-131.87 33.07,-199.39 -19.3,-94.530005 -53.4,-204.040005 -133.62,-264.06 -12.4,-6.8 -42.29,-29.45 -54.01,-16.43 v 0"
           style="fill:#4f262c;fill-opacity:1;fill-rule:evenodd;stroke:none"
           id="path15897" />
        <path
           d="m 7641.8559,371.90162 c -16.84,4.08 14.76,58.54 19.12,69.59 4.38,7.01 6.87,15.47 12.43,21.53 5.96,4.81 15.57,0.16 15.35,-7.54 -6.64,-18.74 -18.87,-34.99 -25.22,-53.82 -6.06,-9.68 -5.45,-34.18 -21.68,-29.76"
           style="fill:#4f262c;fill-opacity:1;fill-rule:evenodd;stroke:none"
           id="path15899" />
        <path
           d="m 7909.4059,363.08162 c -7.24,24.32 -15.2,48.11 -26.39,70.78 -3.62,9.84 -11.96,17.78 -14.62,27.64 1.49,13.98 17.19,10.74 21.29,-0.16 15.13,-25.01 25.47,-52.55 34.14,-80.36 2.55,-7.99 8.86,-20.89 -2.7,-24.56 -4.88,-1.35 -10.43,1.61 -11.72,6.66"
           style="fill:#4f262c;fill-opacity:1;fill-rule:evenodd;stroke:none"
           id="path15901" />
        <path
           d="m 7713.4859,-131.66838 c -12.05,0.58 -48.09,8.68 -27.67,24.47 10.16,2.04 19.92,-6.25 30.49,-5.6 48.34,0.23 25.64,42.829995 4.33,63.709995 -7.21,7.47 -19.58,16.58 -4.39,24.29 11.79,1.69 17.89,-12.49 25.23,-19.48 35.67,-35.15 30.38,-90.409995 -27.99,-87.389995"
           style="fill:#4f262c;fill-opacity:1;fill-rule:evenodd;stroke:none"
           id="path15903" />
        <path
           d="m 7753.7359,-89.938385 c -17.66,11.09 12.64,38.2 20.37,48.71 8.01,8.63 30.77,31.9000002 35.82,9.62 0.1,-4.89 -3.58,-7.87 -7.51,-9.75 -12.21,-9.04 -22.11,-20.93 -30.89,-33.23 -4.44,-6.69 -7.03,-19.63 -17.79,-15.35"
           style="fill:#4f262c;fill-opacity:1;fill-rule:evenodd;stroke:none"
           id="path15905" />
        <path
           d="m 7786.4759,-133.43838 c -12.8,2.87 -58.5,16.99 -39.46,34.739995 8.28,4.97 13.28,-4.929995 20.02,-7.649995 39.64,-23.98 49.71,11.669995 63.46,-4.48 8.21,-17.33 -32.32,-26.03 -44.02,-22.61"
           style="fill:#4f262c;fill-opacity:1;fill-rule:evenodd;stroke:none"
           id="path15907" />
        <path
           d="m 7410.2259,-333.70838 c -22.03,-1.7 11.63,99.32 12.14,114.79 7.22,35.27 12.94,68.37 22.1,102.67 17.56,57.909995 36.18,115.62999518 56.36,172.689995 5.54,15.45 13.41,29.91 19.29,45.190005 0.41,11.88 19.19,11.68 19.03,-0.47 -33.67,-88.360005 -68.09,-179.570005 -87.84,-272.43 -7.95,-41.52 -17.06,-82.25 -26.02,-123.49 -4.8,-11.18 1.74,-39.85 -15.06,-38.95"
           style="fill:#4f262c;fill-opacity:1;fill-rule:evenodd;stroke:none"
           id="path15909" />
        <path
           d="m 8102.9659,-343.41838 c -1.07,78.38 -14.78,155.3 -29.2,232.13 -18.13,91.659995 -36.43,184.759995 -75.59,270.08 -8.49,17.48 14.99,24.67 18.41,5.37 29.24,-62.54 45.39,-129.890005 60.54,-196.930005 9.36,-39.29 16.1,-79.079995 23.09,-118.839995 9.24,-51.2 18.91,-102.61 19.89,-154.78 0.52,-11.83 1.06,-23.67 1.84,-35.48 0.35,-5.18 -3.48,-9.85 -8.71,-10.28 -5.08,-0.41 -9.93,3.53 -10.27,8.73"
           style="fill:#4f262c;fill-opacity:1;fill-rule:evenodd;stroke:none"
           id="path15911" />
        <path
           d="m 7700.4359,-456.96838 c -84.92,5.59 -189.25,22.62 -255.72,79.08 -10.25,10.12 -49.27,40.22 -36.43,53.69 3.33,3.14 9.19,3.41 12.6,0.24 12.8,-19.26 29.7,-35.06 48.13,-48.92 81.09,-56.12 195.32,-66.23 291.46,-66.27 59.41,1.78 119,2.96 177.19,16.05 46.42,11.7 92.95,24.6 132.21,52.62 12.46,7.49 24.83,16.18 32.5,28.8 11.14,12.44 29.28,-3.67 5.32,-23.63 -105.9,-92.22 -273.45,-94.92 -407.26,-91.66"
           style="fill:#4f262c;fill-opacity:1;fill-rule:evenodd;stroke:none"
           id="path15913" />
        <path
           d="m 7710.1759,-542.43838 c -28.25,2.17 -47.56,24.5 -71.89,35.68 -22.88,7.29 -44.72,-6.63 -66.06,-12.98 -51.81,-12.84 -70.34,27.59 -104.02,53.73 -18.95,8.44 -39.83,-3.4 -59.67,0.42 -31.32,4.96 -34.76,38.65 -26.18,63.87 6.47,15.43 12.11,87.44 29.42,85.22 8.24,0.19 12.64,-10.5 6.82,-16.12 -8.23,-26.73 -12.76,-54.44 -19.5,-81.56 -5.68,-19.41 0.87,-36.32 23.77,-32.78 18.24,1.53 37.95,7.31 54.9,-2.58 24.56,-14.17 36.85,-45.46 66.14,-52.18 28.75,-6.39 53.08,18.13 81.89,15.98 39.68,0.47 64.39,-48.9 106.5,-36.66 33.28,10.22 58.05,33.65 95.7,26.63 41,-4.29 69.55,-36.6 114.32,-14.5 18.06,12.12 28.87,33.56 49.26,42.64 37.7,21.56 95.66,-22.67 119.05,26.47 14.54,30.89 5.92,66.42 -5.78,96.75 -2.46,15.77 18.86,15.68 19.84,0.29 21.67,-47.05 19.71,-129.78 -43.3,-140.36 -30.71,-3.83 -66.75,16.27 -92.66,-7.79 -12.2,-10.78 -21.6,-24.39 -35.12,-33.48 -69.16,-38.07 -109.76,35.42 -173.43,3.64 -21.46,-11.66 -44.79,-23.73 -70,-20.33"
           style="fill:#4f262c;fill-opacity:1;fill-rule:evenodd;stroke:none"
           id="path15915" />
        <path
           d="m 7905.4759,391.84162 c -13.2,6.91 0.37,20.59 4.18,29.43 13.1,24.09 29.75,43.97 49.38,62.63 8.67,8.72 22.32,-4.84 13.47,-13.47 -14.49,-13.8 -26.42,-26.98 -37.08,-43.19 -8.42,-8.64 -15.99,-41.46 -29.95,-35.4"
           style="fill:#4f262c;fill-opacity:1;fill-rule:evenodd;stroke:none"
           id="path15917" />
        <path
           d="m 8058.2259,27.711615 c -12.2,0.2 -12.43,19.05 -0.01,19.04 10.69,-0.35 21.17,2.63 31.26,5.86 36.73,12.21 13.13,40.92 28.8,57.830005 7.96,5.65 16.61,-2.26 24.44,-4.39 13.65,-4.57 27.85,-8.450005 42.37,-7.450005 54.98,6.040005 41.81,51.140005 11.15,79.580005 -11.52,10.47 -3.25,25.75 11.76,21.77 20.24,-3.38 40.71,-6.17 61.28,-4.69 12.89,1.58 29.49,1.72 38.12,12.74 9.77,20.14 3.11,46.12 -13.8,60.39 -9.4,10.96 -38.57,14.56 -31.74,33.31 5.83,8.33 20.22,6.75 28.5,9.53 33.31,7.29 74.69,14.43 93.12,46.44 0.65,15.51 -10.22,30.77 -21.99,40.17 -13.45,9.53 -30.6,9.15 -46.27,10.27 -11.23,-1.89 -20.81,10.94 -9.9,18.38 15.83,5.15 32.55,5.75 48.03,11.43 33.55,12.5 72.67,41.85 42.09,78.87 -17.13,21.64 -45.65,30.23 -72.22,24.98 -14.57,-4.27 -22.02,13.73 -7.8,19.91 43.94,21.47 127.7,84.11 63.88,129.6 -62.09,22.64 -168.5,-10.58 -221.93,-46.34 -18.26,-11.66 -36.88,-22.9 -53.19,-37.26 -9.15,-5.79 -16.61,-26.35 -28.89,-20.26 -18.7,13.02 28.53,43.38 38.15,51.71 33.19,21.92 66.59,44.89 104.93,56.82 47.67,15.01 98.49,27.33 148.59,19.23 40.15,-5.41 66.05,-50.99 49.02,-88.05 -11.26,-29.01 -39.33,-46.98 -62.82,-65.61 41.07,-5.47 83.36,-46.43 69.54,-90.05 -10.25,-25.97 -37.94,-40.98 -62.46,-51.32 18.08,-7.42 31.4,-23.51 38.35,-41.48 23.07,-55.38 -66.09,-79.37 -105.69,-86.33 31.69,-17.34 48.12,-59.3 31.72,-92.43 -20.26,-31.41 -70.91,-24.41 -103.26,-21.27 59.66,-74.18 -19.18,-120.890005 -89.73,-88.740005 3.66,-43.74 -35.29,-62.19 -73.4,-62.19"
           style="fill:#4f262c;fill-opacity:1;fill-rule:evenodd;stroke:none"
           id="path15919" />
        <path
           d="m 7643.1559,378.90162 c -25.06,32.5 -39.86,74.85 -75.9,98.26 -9.75,7.46 1.97,22.76 11.65,15.07 31.24,-21.38 50.09,-54.9 68.86,-86.83 2.72,-6.33 8.85,-11.17 9.75,-18.08 0.25,-7.2 -8.17,-12.28 -14.36,-8.42"
           style="fill:#4f262c;fill-opacity:1;fill-rule:evenodd;stroke:none"
           id="path15921" />
        <path
           d="m 7477.3359,10.861615 c -2.28,0.82 -4.55,1.94 -6.61,3.22 -1.28,0.8 -2.46,1.69 -3.59,2.63 -18.1,-6.8899998 -39.17,-7.6299998 -57.56,-1.43 -31.72,13.82 -58.15,59.68 -27.89,87.760005 -37.62,-2.35 -77.91,4.62 -104.96,32.96 -30.61,25.77 -40.32,85.09 4.95,100.74 -30.53,14.22 -60.36,32.28 -84.11,56.37 -34.22,35.37 -36.7,94.9 20.17,105.69 -28.95,20.47 -61.83,45.2 -68.33,82.26 -8.86,41.05 29.23,80.83 69.73,80.3 -33,24.63 -85.59,89.24 -37.58,122.76 25.69,17.9 58.45,20.62 88.6,15.43 70.57,-7.61 133.49,-45.42 189.33,-87.12 4.97,-3.56 12.24,-6.38 11.17,-13.87 -0.62,-5.66 -6.53,-9.34 -11.92,-7.93 -30.8,19.62 -59.43,43.5 -93.07,58.82 -48.92,24.31 -124.42,50.93 -174.38,18.31 -11.29,-6.15 -10.83,-20.02 -7.4,-30.81 9.44,-33.48 39.78,-53.8 64.77,-75.48 11.02,-6.89 6.45,-22.16 -6.68,-20.81 -55.21,12.64 -98.23,-37.9 -60.06,-85.75 18.88,-21.59 41.93,-38.88 66.37,-52.73 17.19,-8.1 6.93,-24.71 -9.38,-21.71 -41.68,5.08 -60.62,-29.1 -36.18,-62.72 24.55,-33.92 64.45,-54.37 102.4,-70 7.33,-2.32 13.79,-10.23 9.47,-17.86 -8.77,-10.4 -26.11,-6.73 -35.79,-16.59 -25.14,-24.23 3.58,-61.53 26.5,-76.06 38.36,-28.94 102.18,-1.58 102.89,-26.5 0.22,-11.370005 -11.66,-17.820005 -17.36,-26.430005 -11.64,-18.96 7.76,-40.19 23.14,-50.17 13.49,-5.75 29.39,-4.71 43.27,-0.86 5.17,1.91 10.84,4.98 16.31,2.32 13.15,-13.34 27.46,-3.46 30.06,-16.83 0.62,-14.1799998 -17.32,-11.5299998 -26.28,-7.91"
           style="fill:#4f262c;fill-opacity:1;fill-rule:evenodd;stroke:none"
           id="path15923" />
        <path
           d="m 7777.7959,886.65162 c 9.79,42.53 30.82,93.69 5.73,134.15998 -33.9,-36.02998 -18.71,-91.88998 -5.73,-134.15998 z m -2.95,-40.48 c -107.13,218.43998 108.18,287.18998 14.56,13.11 9.03,-10.24 -5.95,-24.43 -14.56,-13.11 v 0"
           style="fill:#4f262c;fill-opacity:1;fill-rule:evenodd;stroke:none"
           id="path15925" />
        <path
           d="m 8031.3859,357.31162 c -26.71,18.66 75.07,65.41 90.12,69.32 12.32,5.9 20.46,-13.78 7.18,-17.75 -29.56,-9.49 -57.05,-26 -81.49,-45 -3.92,-4.97 -9.04,-10.54 -15.81,-6.57"
           style="fill:#4f262c;fill-opacity:1;fill-rule:evenodd;stroke:none"
           id="path15927" />
        <path
           d="m 8055.6459,297.65162 c -14.99,24.07 66.4,27.21 80.36,28.56 12.3,0.15 12.36,-19.1 0,-19.05 -15.88,-0.46 -31.63,-2.86 -47.21,-5.93 -10.92,0.07 -24.59,-12.84 -33.15,-3.58"
           style="fill:#4f262c;fill-opacity:1;fill-rule:evenodd;stroke:none"
           id="path15929" />
        <path
           d="m 8108.3059,226.49162 c -11.01,2.36 -22.24,3.8 -33.51,3.97 -7.59,-0.67 -18.44,1.26 -17.22,11.18 3.1,13.7 21.05,6.29 31.02,7.16 9.18,-0.83 16.83,-2.19 24.78,-3.95 11.94,-3.02 6.78,-21.83 -5.07,-18.36"
           style="fill:#4f262c;fill-opacity:1;fill-rule:evenodd;stroke:none"
           id="path15931" />
        <path
           d="m 7506.6059,356.26162 c -15.28,19.84 -32.87,36.24 -53.07,50.71 -11.52,7.66 -24.04,13.66 -37.06,18.3 -6.04,1.15 -11.84,6.1 -9.84,12.79 6.76,16.22 28.33,-1.31 39.25,-4.65 27.07,-13.7 49.85,-34.74 69.46,-57.64 18.76,-16.19 2.77,-32.54 -8.74,-19.51"
           style="fill:#4f262c;fill-opacity:1;fill-rule:evenodd;stroke:none"
           id="path15933" />
        <path
           d="m 7469.4259,293.56162 c -14.94,10.82 -32.16,18.03 -49.84,23.02 -7.43,1.31 -18.28,2.89 -16.39,13.03 3.83,13.71 20.69,4.98 29.95,2.77 17.87,-6.07 36.05,-13.68 50.43,-26.07 8.01,-9.12 -6,-21.74 -14.15,-12.75"
           style="fill:#4f262c;fill-opacity:1;fill-rule:evenodd;stroke:none"
           id="path15935" />
        <path
           d="m 7463.3959,224.37162 c -12.59,2.11 -25.13,5.25 -38.01,4.66 -3.7,-0.08 -7.38,-0.24 -11.06,-0.68 -12.26,-1.07 -13.7,18.13 -1.38,19.01 11.67,0.95 62.26,2.45 60.53,-14.05 -0.29,-4.96 -4.98,-9.57 -10.08,-8.94"
           style="fill:#4f262c;fill-opacity:1;fill-rule:evenodd;stroke:none"
           id="path15937" />
        <path
           d="m 7677.7159,743.14162 c -3.39,4.85 -1.28,11 3.43,14.03 10.11,8.1 18.58,17.91 26.36,28.22 7.24,7.41 9.83,21.48 20.69,24.12 8.1,1.01 13.72,-9.7 8.03,-15.7 -8.53,-11.3 -42.97,-68.96 -58.51,-50.67"
           style="fill:#4f262c;fill-opacity:1;fill-rule:evenodd;stroke:none"
           id="path15939" />
        <path
           d="m 7645.3659,747.19162 c -8.1,0.09 -12.3,11.42 -5.89,16.58 2.89,2.3 5.63,4.7 8.26,7.28 6.44,5.85 11.42,20.48 22.22,14.01 14.53,-8.46 -14.74,-37.26 -24.59,-37.87"
           style="fill:#4f262c;fill-opacity:1;fill-rule:evenodd;stroke:none"
           id="path15941" />
        <path
           d="m 7984.8259,538.69162 c -4.57,12.2 -30.46,67.32 -9.17,69.86 15.57,-0.88 10.28,-23.55 15.98,-34.02 2.84,-9.22 5.88,-18.4 10.11,-27.09 5.71,-10.89 -11.34,-19.79 -16.92,-8.75"
           style="fill:#4f262c;fill-opacity:1;fill-rule:evenodd;stroke:none"
           id="path15943" />
        <path
           d="m 8007.3259,606.02162 c -3.7,12.27 -24.93,50.38 -6.93,56.15 13.27,2.18 11.74,-14.3 14.89,-22.76 0.88,-11.9 17.62,-28.32 4.89,-37.47 -4.46,-2.31 -10.65,-0.62 -12.85,4.08"
           style="fill:#4f262c;fill-opacity:1;fill-rule:evenodd;stroke:none"
           id="path15945" />
        <path
           d="m 7468.5059,-383.81838 c -0.2,16.04 18.78,180.08 39.37,165.93 4.8,-1.32 8.3,-6.79 6.65,-11.71 -9.57,-30.88 -14.51,-63.03 -20.31,-94.8 -3.12,-19.66 -6.66,-39.46 -6.66,-59.42 0.12,-12.28 -19.15,-12.36 -19.05,0"
           style="fill:#4f262c;fill-opacity:1;fill-rule:evenodd;stroke:none"
           id="path15947" />
        <path
           d="m 7520.9559,-409.72838 c 2.09,12.72 -0.88,98.04 25.02,72.24 1.24,-23.35 -7.21,-48.1 -5.98,-72.24 0.08,-12.3 -19.18,-12.34 -19.04,0"
           style="fill:#4f262c;fill-opacity:1;fill-rule:evenodd;stroke:none"
           id="path15949" />
        <path
           d="m 8037.0259,-391.74838 c -9.23,1.31 -8.54,11.12 -7.48,18.17 0.72,13.13 -0.28,26.3 -1.07,38.11 -1.88,27.21 -4.25,54.51 -9.29,81.34 -1.35,8.42 -8.65,21.19 3.26,24.97 20.06,3.39 17.42,-48.56 21.32,-62.29 -0.66,-16.27 16.9,-103.59 -6.74,-100.3"
           style="fill:#4f262c;fill-opacity:1;fill-rule:evenodd;stroke:none"
           id="path15951" />
        <path
           d="m 7965.7059,-407.74838 c 2.32,14.54 -17.95,61.21 2.68,62.6 5.64,0.02 9.98,-5.02 9.54,-10.57 1.9,-16.51 5.57,-32.81 6.66,-49.44 1.84,-12.2 -17.49,-14.82 -18.88,-2.59"
           style="fill:#4f262c;fill-opacity:1;fill-rule:evenodd;stroke:none"
           id="path15953" />
        <path
           d="m 7208.8259,233.70162 c -16.63,7.08 -79.62,72.29 -53.31,86.15 8.67,2.5 12.34,-6.03 13.87,-12.96 5.03,-12.53 13.03,-23.68 21.73,-33.93 8.64,-9 18.28,-16.95 28.75,-23.74 10.14,-7 -1.04,-22.71 -11.04,-15.52"
           style="fill:#4f262c;fill-opacity:1;fill-rule:evenodd;stroke:none"
           id="path15955" />
        <path
           d="m 7330.0859,68.861615 c -16.92,1.56 -33.33,6.61 -48.15,14.87 -11.7,5.65 -62.98,41.490005 -28.24,46.080005 17.44,-14.54 33.85,-31.750005 56.98,-37.860005 7,-2.05 14.14,-3.51 21.41,-4.14 12.26,-1.18 10.23,-20.38 -2,-18.95"
           style="fill:#4f262c;fill-opacity:1;fill-rule:evenodd;stroke:none"
           id="path15957" />
        <path
           d="m 8397.7959,559.01162 c -21.55,9.24 4.13,22.3 13.28,29.11 8.22,6.83 15.17,15.14 20.46,24.42 2.59,4.5 8.89,5.67 13.15,3 17.89,-13.29 -32.91,-56.22 -46.89,-56.53"
           style="fill:#4f262c;fill-opacity:1;fill-rule:evenodd;stroke:none"
           id="path15959" />
        <path
           d="m 8401.0559,408.69162 c -11.88,1.66 -9.46,20.22 2.46,18.87 17.1,2.55 27.87,18.12 36.38,31.81 3.95,7.14 15.78,5.06 17.33,-2.85 -4.9,-23.57 -31.03,-47.98 -56.17,-47.83"
           style="fill:#4f262c;fill-opacity:1;fill-rule:evenodd;stroke:none"
           id="path15961" />
        <path
           d="m 8140.9259,-286.32838 c 0.78,69.87 -12.73,139.79 -36.07,205.479995 -3.35,11.8 15.19,17.02 18.37,5.06 14.37,-38.989995 23.86,-79.609995 30.18,-120.669995 0.76,-15.46 17.94,-100.52 -2.96,-99.39 -5.17,0 -9.55,4.33 -9.52,9.52"
           style="fill:#4f262c;fill-opacity:1;fill-rule:evenodd;stroke:none"
           id="path15963" />
        <path
           d="m 8155.1259,-388.96838 c 0.53,15.86 -0.67,31.69 -4.08,47.2 -0.84,5.12 3.11,10.05 8.15,10.73 18.79,0.39 13.72,-44.54 14.98,-57.93 0.06,-12.32 -19.2,-12.34 -19.05,0"
           style="fill:#4f262c;fill-opacity:1;fill-rule:evenodd;stroke:none"
           id="path15965" />
      </g>
    </g>
  </g>
</svg>
