<?xml version="1.0" encoding="UTF-8" standalone="no"?>
<!-- Created with Inkscape (http://www.inkscape.org/) -->

<svg
   version="1.1"
   id="svg15367"
   width="666.66663"
   height="666.66669"
   viewBox="0 0 666.66663 666.66669"
   sodipodi:docname="172780529_10004174.eps"
   xmlns:inkscape="http://www.inkscape.org/namespaces/inkscape"
   xmlns:sodipodi="http://sodipodi.sourceforge.net/DTD/sodipodi-0.dtd"
   xmlns="http://www.w3.org/2000/svg"
   xmlns:svg="http://www.w3.org/2000/svg">
  <defs
     id="defs15371" />
  <sodipodi:namedview
     id="namedview15369"
     pagecolor="#ffffff"
     bordercolor="#000000"
     borderopacity="0.25"
     inkscape:showpageshadow="2"
     inkscape:pageopacity="0.0"
     inkscape:pagecheckerboard="0"
     inkscape:deskcolor="#d1d1d1"
     showgrid="true">
    <inkscape:grid
       type="xygrid"
       id="grid19220" />
  </sodipodi:namedview>
  <g
     id="g15375"
     inkscape:groupmode="layer"
     inkscape:label="Page 1"
     transform="matrix(1.3333333,0,0,-1.3333333,0,666.66665)">
    <g
       id="g15377"
       transform="scale(0.1)">
      <path
         d="M 5000,5000 V 0 H 0 v 5000 h 5000"
         style="fill:#f2f7ef;fill-opacity:1;fill-rule:evenodd;stroke:none"
         id="path15379"
         inkscape:export-filename="../Documentos/INGENIERÃA INFORMATICA/3er CURSO/1er CUATRI/interfaces/FinalCase/cp_gr07/src/images/galeria/galeria5.svg"
         inkscape:export-xdpi="96"
         inkscape:export-ydpi="96" />
      <path
         d="m 2478.1963,1381.6375 c 696.5226,0 1261.1649,-159.7462 1261.1649,-356.7986 0,-197.03879 -564.6423,-356.78503 -1261.1649,-356.78503 -696.5226,0 -1261.1643,159.74624 -1261.1643,356.78503 0,197.0524 564.6417,356.7986 1261.1643,356.7986"
         style="fill:#a8b99c;fill-opacity:1;fill-rule:evenodd;stroke:none;stroke-width:1.12535"
         id="path1870" />
      <g
         id="g23121"
         transform="matrix(2.2296675,0,0,2.2296675,-11836.203,-2568.4484)">
        <path
           d="m 6959.5716,2580.5794 c 0,-23.36 0.55,-46.74 -0.01,-70.08 -2.62,-61.23 -4.57,-124.11 -24.13,-182.69 -15.81,-49.16 -13.05,-101.98 -16.12,-152.96 -6.47,-122.92 -30.33,-244.37 -51.83,-365.37 -9.25,-47.59 -18.32,-95.24 -29.69,-142.38 -5.98,-20.06 -7.78,-47.83 -30.26,-56.23 -11.24,-2.73 -30.29,-11.11 -40.53,-4.52 -84.38,-18.68 -171.68,-23.06 -257.92,-21.17 -110.036,2.55 -220.009,8.09 -329.763,16.41 -36.867,3.3 -73.59,8.56 -110.168,14.27 -14.703,4.46 -42.437,1.89 -46.121,20.2 -4.715,0.64 -9.078,3.41 -10.891,8.4 -48.984,197.99 -73.902,400.8 -90.066,603.9 -1.266,65.11 -30.934,125.11 -34.934,189.99 -4.136,41.23 -2.062,82.76 1.032,124 0.652,10.79 0.234,21.83 2.343,32.44 2.188,8.02 11.172,12.21 18.5,9.77 16.184,5.92 35.911,4.52 52.856,8.09 39.191,5.08 78.105,6.21 117.457,10.47 189.109,11.17 379.905,24.91 568.835,5.41 89.94,-12.84 181.34,-9.1 271.33,-19.64 10.07,-1.93 20.53,-4.13 29.96,-8.21 6.27,-2.65 8.7,-8.03 8.38,-13.35 1.11,-2.02 1.74,-4.32 1.74,-6.75"
           style="fill:#f25a4c;fill-opacity:1;fill-rule:evenodd;stroke:none"
           id="path15643" />
        <path
           d="m 6080.9126,2363.2294 c 96.25,5.69 205.129,34.14 258.527,121.54 2.742,4.41 0.965,10.47 -3.414,13.03 -1.504,0.86 -2.898,1.28 -4.199,1.38 3.215,5.44 6.215,11 8.984,16.66 5.031,7.9 -0.617,19.73 -10.648,17.07 -13.352,-8.25 -19.11,-25.67 -30.469,-36.6 -0.961,-0.96 -1.777,-2.04 -2.707,-3.05 0.07,0.07 0.133,0.15 0.195,0.23 0.03,0.04 0.07,0.07 0.102,0.11 -23.574,-29.32 -57.977,-45.28 -94.902,-50 -12.231,-1.61 -9.59,-20.67 2.585,-18.87 11.403,1.85 22.731,4.38 33.852,7.49 -41.332,-20.73 -87.164,-36.86 -133.926,-42.67 8.571,3.43 10.785,16.42 0.559,19.35 -2.051,0.5 -3.914,0.43 -5.633,-0.04 1.531,4.1 2.809,8.24 3.77,12.36 -0.125,2.66 -1.461,5.11 -3.418,6.82 15.859,0.55 29.144,4.75 23.078,19.22 0.562,14.83 -17.34,9.43 -26.739,10.71 -11.019,0.79 -21.996,2.02 -32.968,3.31 6.394,4.62 18.605,8.57 14.586,18.64 -2,4.74 -7.719,7.14 -12.485,5.07 -8.054,-4.51 -15.48,-10.14 -23.808,-14.22 -5.715,-3.09 -13.907,-4.47 -18.496,-9.9 -10.973,-21.71 25.82,-27.7 40.539,-30.37 4.781,-0.47 14.464,-1.81 24.722,-2.33 -9.066,-7.64 -8.797,-24.85 -17.14,-34.07 -15.082,-14.95 -14.539,-30.07 9.453,-30.87 z m 591.959,25.29 c 13.42,-0.54 54.07,-0.46 43.44,21.78 -7.62,7.26 -19.64,7.42 -29.14,11.26 -8.02,2.57 -15.32,-7.38 -10.58,-14.18 -13.21,-0.71 -29.1,8.58 -40.65,-0.39 -9.16,-8.34 2.86,-23.58 12.66,-15.32 8.12,-0.8 16.1,-2.69 24.27,-3.15 z m 226.02,-65.41 c 39.7,0.98 30.95,-31.25 22.21,-57.89 -5.82,-9.73 -18.19,-6.88 -27.73,-7.64 -38.6,-1.47 -77.15,-4.02 -115.81,-3.14 -90.57,1.02 -181.11,2.57 -271.65,3.52 -0.11,-27.58 -0.07,-55.15 -0.66,-82.72 -0.94,-80.28 -0.64,-160.51 -4.4,-240.73 -3.68,-96.6 -5.85,-193.17 -6.94,-289.81 -0.86,-16.23 -1.85,-32.46 -3.03,-48.67 -0.38,-5.18 -5.8,-8.81 -10.72,-8.15 -9.11,1.37 -8.59,10.9 -7.66,18.01 0.97,15.77 2.04,31.52 2.77,47.3 0.26,109.45 4.61,218.77 7.89,328.16 4.15,79.9 1.56,159.95 3.61,239.93 0.01,12.29 0,24.58 0.06,36.87 -69.75,0.67 -139.493,0.93 -209.263,0.28 -113.066,1.9 -226.543,14.34 -339.519,6.2 -9.895,-1.69 -13.512,6.18 -11.215,12.43 -1.649,0.72 -3.086,1.88 -4.121,3.36 -0.707,-0.03 -1.497,0.04 -2.372,0.18 -20.265,7.17 1.301,36.42 17.196,34.05 46.969,0.85 93.937,2.4 140.906,3.44 133.945,1.5 267.856,-1.75 401.758,-3.71 1.9,15.17 4.12,30.29 5.25,45.56 1,19.48 -0.09,39.02 -1.31,57.61 0.31,6.43 -1.33,20.44 -2.61,35.73 -9.57,16.01 -17.39,32.89 -22.84,50.45 1.93,14.72 19.86,11.13 19.82,-2.83 0.81,-1.74 1.63,-3.46 2.47,-5.19 1.16,8.4 3.66,14.35 8.34,15.58 13.26,1.81 12.49,-9.87 10.43,-19.12 -0.11,-5.65 -0.08,-11.25 0.04,-16.83 0.88,-2.26 1.8,-4.5 2.77,-6.72 0.78,-1.34 1.63,-2.59 2.61,-3.65 11.49,-17.53 23.42,-34.87 36.59,-51.11 26.7,-20.71 52.49,-43.59 85.11,-54.13 12.35,-2.5 23.83,-5.48 28.93,-10.25 8.97,-3.59 16.62,-8.43 17.73,-16.82 -1.33,-11.17 -11.03,-12.39 -21.17,-11.04 -2.37,-2.56 -6.01,-3.82 -10.17,-1.99 -11.87,4.12 -23.51,8.9 -34.7,14.48 -32.21,13.34 -59.94,35.88 -82.39,62.78 -7.8,8.12 -15.25,16.63 -22.22,25.48 1.64,-23.25 2.93,-46.45 1.04,-70.16 -1.05,-12.76 -2.96,-25.41 -4.55,-38.1 83.27,-1.14 166.54,-1.68 249.81,-0.16 49.96,2.77 99.45,12.87 149.71,9.16 v 0"
           style="fill:#cd4536;fill-opacity:1;fill-rule:evenodd;stroke:none"
           id="path15645" />
        <path
           d="m 5957.9206,2599.8894 c 0,5.03 0.523,9.96 1.511,14.74 7.828,0.98 15.66,1.97 23.473,3.09 18.273,2.21 36.551,4.43 54.836,6.53 4.156,0.48 7.941,1.89 11.012,4.61 6.574,1.06 13.148,2.08 19.726,3.1 9.481,1.47 18.965,2.91 28.434,4.45 6.23,-10.84 9.816,-23.33 9.816,-36.52 0,-40.55 -33.851,-74.4 -74.402,-74.4 -40.551,0 -74.406,33.85 -74.406,74.4 z m 195.601,-187.31 c 0,40.55 33.852,74.4 74.403,74.4 40.55,0 74.406,-33.85 74.406,-74.4 0,-40.56 -33.856,-74.41 -74.406,-74.41 -40.551,0 -74.403,33.85 -74.403,74.41 z m 653.75,182.11 c 0,9.89 2.01,19.38 5.65,28.08 1.23,-0.32 2.51,-0.55 3.85,-0.72 1.73,-0.21 3.48,-0.32 5.23,-0.39 2.56,-0.12 5.13,-0.17 7.69,-0.21 5.18,-0.1 10.37,-0.02 15.56,0.01 10.89,0.07 21.68,-0.31 32.53,-1.27 5.94,-0.56 11.88,-1.13 17.85,-1.43 5.65,-0.29 11.3,-0.43 16.94,-0.85 3,-0.32 5.95,-0.74 8.91,-1.29 0.83,-1.02 1.77,-1.95 2.84,-2.73 2.96,-2.17 6.06,-3.9 9.47,-5.25 3.97,-1.56 7.96,-3.08 11.9,-4.71 3.43,-1.41 6.78,-3.09 10.23,-4.47 0.11,-1.58 0.16,-3.17 0.16,-4.77 0,-40.55 -33.85,-74.41 -74.41,-74.41 -40.55,0 -74.4,33.86 -74.4,74.41 z m 54.16,-267.8 c 0,40.55 33.85,74.41 74.4,74.41 6.96,0 13.72,-1 20.15,-2.86 -0.85,-2.98 -1.62,-5.98 -2.37,-8.99 -1.75,-7.05 -3.45,-14.13 -5.14,-21.21 -1.79,-7.4 -3.55,-14.81 -5.32,-22.21 -1.12,-4.68 -2.18,-9.39 -3.37,-14.06 -1.36,-0.86 -2.63,-1.9 -3.73,-3.11 -4.85,-5.33 -5.3,-12.25 -5.87,-19.05 -0.31,-3.74 -0.54,-7.5 -0.75,-11.26 -0.38,-7 -0.7,-14.01 -0.99,-21.02 -0.36,-8.18 -0.71,-16.36 -1.15,-24.54 -36.66,4.34 -65.86,36.23 -65.86,73.9 z m -159.77,-736.65 c 0,40.55 33.85,74.4 74.4,74.4 24.51,0 46.57,-12.36 60.19,-31.1 -3.15,-1.54 -6.03,-3.79 -8.58,-6.34 -1.63,-1.63 -3.24,-3.27 -4.83,-4.92 -0.03,-0.04 -0.06,-0.08 -0.1,-0.11 -0.63,-0.44 -1.26,-0.87 -1.91,-1.3 -2.32,-1.4 -4.65,-2.73 -7.03,-4.02 -4.23,-1.93 -8.5,-3.66 -12.86,-5.27 -16.7,-5.26 -33.79,-8.8 -50.89,-12.47 -9.4,-2.03 -18.79,-4.07 -28.17,-6.18 -4.14,-0.93 -8.29,-1.86 -12.43,-2.86 -2.55,-0.61 -5.17,-1.16 -7.77,-1.79 -0.01,0.65 -0.02,1.3 -0.02,1.96 z m 100.08,301.79 c 0,40.56 33.85,74.41 74.41,74.41 6,0 11.87,-0.74 17.5,-2.14 -1.32,-6.11 -2.54,-12.24 -3.67,-18.39 -0.03,-0.14 -0.05,-0.28 -0.07,-0.41 -0.1,-0.53 -0.2,-1.04 -0.3,-1.57 0.14,0.79 0.29,1.57 0.43,2.36 -0.28,-1.52 -0.56,-3.05 -0.84,-4.58 0.15,0.79 0.29,1.58 0.44,2.36 -0.17,-0.9 -0.32,-1.79 -0.45,-2.67 -0.32,-1.36 -0.55,-2.77 -0.81,-4.19 0.14,0.79 0.28,1.57 0.43,2.36 -5.85,-31.82 -8.77,-64.06 -11.61,-96.26 -1.54,-8.53 -3.06,-17.06 -4.5,-25.6 -39.01,1.85 -70.96,34.93 -70.96,74.32 z m -141.43,222.1 c 0,40.55 33.85,74.4 74.4,74.4 40.55,0 74.41,-33.85 74.41,-74.4 0,-40.55 -33.86,-74.41 -74.41,-74.41 -40.55,0 -74.4,33.86 -74.4,74.41 z m -230.61,86.04 c 0,40.55 33.86,74.4 74.41,74.4 40.55,0 74.4,-33.85 74.4,-74.4 0,-40.55 -33.85,-74.41 -74.4,-74.41 -40.55,0 -74.41,33.86 -74.41,74.41 z m 98.45,-343.71 c 0,40.55 33.85,74.4 74.4,74.4 40.55,0 74.41,-33.85 74.41,-74.4 0,-40.56 -33.86,-74.41 -74.41,-74.41 -40.55,0 -74.4,33.85 -74.4,74.41 z m -8.8,-275.48 c -14.42,0.35 -28.86,-0.11 -43.28,-0.28 -1.41,0.01 -2.8,0.01 -4.2,0.04 -4.97,0.28 -9.95,0.58 -14.91,0.87 -3.69,0.22 -7.38,0.42 -11.06,0.65 -0.16,0.01 -0.32,0.03 -0.48,0.04 -9.22,0.85 -18.46,1.64 -27.67,2.68 -5.01,0.59 -10.011,1.18 -15.015,1.77 -0.543,0.08 -1.09,0.16 -1.633,0.24 -4.629,9.63 -7.23,20.36 -7.23,31.61 0,40.55 33.848,74.4 74.408,74.4 40.55,0 74.4,-33.85 74.4,-74.4 0,-13.91 -3.98,-27.03 -10.85,-38.27 -4.15,0.31 -8.31,0.54 -12.48,0.65 z m -590.967,654.5 c -0.277,3.18 -0.546,6.36 -0.789,9.54 -0.875,11.58 -1.078,23.22 -2.109,34.78 -0.566,6.41 -1.199,12.86 -2.754,19.13 -1.535,6.16 -3.211,12.31 -5.105,18.39 -3.008,9.59 -7.149,18.74 -11.168,27.94 13.707,17.6 35.054,29.09 58.675,29.09 40.551,0 74.403,-33.86 74.403,-74.41 0,-40.55 -33.852,-74.4 -74.403,-74.4 -13.289,0 -25.855,3.63 -36.75,9.94 z m 328.868,-108.23 c 0,40.55 33.851,74.41 74.402,74.41 40.551,0 74.406,-33.86 74.406,-74.41 0,-40.55 -33.855,-74.4 -74.406,-74.4 -40.551,0 -74.402,33.85 -74.402,74.4 z m -96.45,-531.75 c -7.031,0.93 -14.07,1.69 -21.14,2.15 -0.426,0.06 -0.844,0.11 -1.266,0.18 -11.472,1.62 -22.98,2.95 -34.512,4.11 -5.765,0.59 -11.535,0.99 -17.32,1.4 -0.961,0.06 -1.949,0.12 -2.965,0.16 -2.121,6.84 -3.265,14.07 -3.265,21.52 0,40.56 33.855,74.41 74.406,74.41 40.551,0 74.402,-33.85 74.402,-74.41 0,-10.61 -2.316,-20.77 -6.472,-29.98 -0.547,0.05 -1.09,0.1 -1.625,0.15 -0.317,0.04 -0.633,0.08 -0.95,0.12 -0.675,0.06 -1.343,0.13 -2.015,0.19 0.06,0 0.117,0 0.176,0 -0.504,0.04 -1.016,0.1 -1.528,0.15 0.336,-0.03 0.68,-0.07 1.024,-0.11 0.07,-0.01 0.156,-0.02 0.23,-0.03 -16.058,1.51 -32.328,-0.14 -48.426,-0.77 -1.078,-0.02 -2.168,-0.03 -3.246,-0.05 -1.832,0.29 -3.664,0.57 -5.508,0.81 z m -0.234,264.74 c 0,40.55 33.856,74.41 74.406,74.41 40.551,0 74.403,-33.86 74.403,-74.41 0,-40.55 -33.852,-74.4 -74.403,-74.4 -40.55,0 -74.406,33.85 -74.406,74.4 z m -143.32,193.65 c 0,40.55 33.855,74.41 74.406,74.41 40.551,0 74.406,-33.86 74.406,-74.41 0,-40.55 -33.855,-74.4 -74.406,-74.4 -40.551,0 -74.406,33.85 -74.406,74.4 z m -35.91,-288.53 c -0.02,0.06 -0.03,0.12 -0.05,0.18 -0.559,2.14 -1.117,4.29 -1.664,6.44 -3.004,11.51 -6.067,23 -8.668,34.6 -2.735,12.22 -5.321,24.47 -7.813,36.74 -4.191,20.6 -8.289,41.21 -12.293,61.84 10.442,5.66 22.321,8.88 34.836,8.88 40.551,0 74.402,-33.85 74.402,-74.4 0,-40.55 -33.851,-74.41 -74.402,-74.41 -1.461,0 -2.91,0.05 -4.351,0.13 z m 563.863,746.92 c 0,40.55 33.86,74.41 74.41,74.41 40.55,0 74.4,-33.86 74.4,-74.41 0,-40.55 -33.85,-74.4 -74.4,-74.4 -40.55,0 -74.41,33.85 -74.41,74.4 v 0"
           style="fill:#ffffff;fill-opacity:1;fill-rule:evenodd;stroke:none"
           id="path15647" />
        <path
           d="m 6047.9706,2628.2094 c 0.262,0.21 0.524,0.43 0.778,0.65 3.41,0.55 6.824,1.09 10.238,1.63 -4,-2.05 -8,-4.1 -11.996,-6.15 0.457,1.26 0.785,2.56 0.98,3.87 z m 105.543,-215.65 c 0,40.56 33.852,74.41 74.403,74.41 32.156,0 60.086,-21.28 70.285,-50.3 -2.277,-1.65 -4.582,-3.27 -6.918,-4.83 -6.465,-4.35 -13.125,-8.41 -19.793,-12.43 -0.531,-0.32 -1.059,-0.63 -1.59,-0.95 -3.238,-1.91 -6.492,-3.81 -9.766,-5.68 -12.789,-7.27 -25.957,-13.96 -39.414,-19.92 -17.839,-7.55 -36.179,-13.67 -54.773,-19.11 -0.168,-0.04 -0.332,-0.09 -0.512,-0.15 -0.183,-0.04 -0.367,-0.09 -0.551,-0.14 -7.187,11.42 -11.371,24.85 -11.371,39.1 z m 800.578,187.09 c -2.06,0.42 -4.13,0.73 -6.23,0.85 0.08,0.82 0.1,1.65 0.06,2.48 2.67,-1.18 5.31,-2.43 8.01,-3.51 0,-0.09 0.01,-0.17 0.01,-0.26 -0.6,0.17 -1.22,0.32 -1.85,0.44 z m -47.97,18.64 c 1.17,-0.05 2.34,-0.11 3.51,-0.18 -1.13,-0.35 -2.25,-0.71 -3.38,-1.07 -0.03,0.42 -0.07,0.84 -0.13,1.25 z m -44.53,-296.33 c 0.63,-0.21 1.27,-0.41 1.91,-0.58 7.74,-2.09 15.95,-3.47 24.03,-3.47 0.93,0 1.86,0.02 2.78,0.06 5.79,0.23 11.44,0.82 17.16,1.67 6.22,0.94 12.66,1.92 18.7,3.71 2.54,0.75 5.07,1.54 7.59,2.36 -2.74,-4.77 -3.12,-10.37 -3.58,-15.9 -0.32,-3.75 -0.55,-7.5 -0.75,-11.26 -0.38,-7.01 -0.7,-14.01 -1,-21.02 -0.34,-8.18 -0.7,-16.36 -1.14,-24.54 -35.05,4.16 -63.29,33.48 -65.7,68.97 z m -431.89,-121.79 c 0,40.55 33.86,74.41 74.41,74.41 18.71,0 35.99,-7.21 49.18,-18.96 -1.04,0.04 -2.08,0.07 -3.12,0.1 0.84,-0.02 1.69,-0.05 2.53,-0.08 -5.09,0.16 -10.18,0.29 -15.28,0.37 -5.23,0.09 -10.77,0.61 -15.82,-1.02 -7.53,-2.45 -12.68,-8.4 -14.61,-16.02 -0.95,-3.76 -1.18,-7.74 -1.34,-11.6 -0.44,-10.14 -0.54,-20.29 -0.82,-30.43 0.01,0.24 0.02,0.46 0.03,0.69 -0.01,-0.24 -0.02,-0.49 -0.03,-0.73 0,0.02 0,0.03 0,0.04 0,-0.01 0,-0.03 0,-0.05 0,-0.04 0,-0.09 0,-0.14 0,-0.02 -0.01,-0.04 -0.01,-0.06 0,0.02 0.01,0.03 0.01,0.04 -0.01,-0.12 -0.01,-0.24 -0.01,-0.37 0,0.11 0,0.22 0,0.33 -0.63,-19.7 -1.48,-39.39 -1.85,-59.08 -0.08,-3.95 -0.14,-7.89 -0.2,-11.83 -39.95,0.73 -73.07,34.29 -73.07,74.39 z m -27.305,-92.65 c 0.68,6.44 1.508,13.04 0.707,19.51 -1.058,8.57 -4.39,17.14 -12.742,21.03 -0.895,0.41 -1.812,0.76 -2.734,1.02 0.472,2.6 0.922,5.21 1.332,7.82 0.722,4.68 1.543,9.35 1.953,14.07 0.02,0.25 0.04,0.5 0.06,0.74 9.438,-12.47 15.078,-27.91 15.078,-44.46 0,-8.5 -1.488,-16.7 -4.211,-24.36 0.204,1.54 0.391,3.09 0.555,4.63 z m 69.475,-526.77 c -4.97,0.28 -9.95,0.57 -14.92,0.86 -3.68,0.22 -7.37,0.43 -11.05,0.65 -0.16,0.01 -0.32,0.03 -0.48,0.04 -9.22,0.86 -18.46,1.65 -27.67,2.69 -5.01,0.58 -10.015,1.18 -15.019,1.76 -0.539,0.08 -1.086,0.15 -1.637,0.24 -4.621,9.63 -7.226,20.37 -7.226,31.61 0,40.55 33.852,74.4 74.402,74.4 9.14,0 17.93,-1.71 26.07,-4.84 -0.14,-4.3 -0.24,-8.61 -0.3,-12.92 -0.04,-2.01 -0.06,-4.02 -0.08,-6.02 -0.76,-12.99 -1.37,-25.99 -1.55,-38.99 -0.18,-13.21 -0.19,-26.43 0.45,-39.62 0.16,-3.21 0.3,-6.42 0.46,-9.63 -5.75,-0.1 -11.5,-0.21 -17.25,-0.28 -1.41,0.01 -2.8,0.02 -4.2,0.05 z m -490.662,687.15 c -10.493,0.23 -20.985,0.46 -31.477,0.42 -4.867,0.29 -9.738,0.5 -14.609,0.54 -2.957,0.03 -5.907,0.02 -8.856,-0.01 -0.207,3.65 -0.453,7.3 -0.777,10.94 -0.57,6.42 -1.199,12.86 -2.754,19.13 -1.273,5.1 -2.641,10.2 -4.148,15.25 6.101,-0.56 12.211,-0.84 18.332,-1.04 4.714,-0.15 9.437,-0.21 14.164,-0.21 8.101,0 16.211,0.19 24.3,0.54 12.875,0.54 25.739,1.19 38.598,1.85 5.934,0.3 11.867,0.59 17.801,0.88 1.957,0.1 3.898,0.18 5.844,0.27 1.246,-5.32 1.914,-10.86 1.914,-16.53 0,-11.84 -2.883,-23.11 -7.989,-33.13 -16.769,0.7 -33.586,0.73 -50.343,1.1 v 0"
           style="fill:#d6bcc0;fill-opacity:1;fill-rule:evenodd;stroke:none"
           id="path15649" />
        <path
           d="m 6908.3916,2993.6194 c 80.88,-9.72 81.45,-82.62 43.68,-139.41 -15.91,-24.41 -28.68,-51.34 -29.42,-80.99 -2.46,-44.4 9.36,-89.03 1.05,-133.24 -2.29,-27.91 -21.8,-35.48 -47.19,-31.89 -19.87,1.97 -39.17,7.74 -59.07,9.4 -17.61,0.82 -48.61,-6.17 -44.59,21.84 8.97,30.1 12.06,61.51 22.16,91.29 4.35,19.57 16.43,39.42 14.26,59.62 -30.69,41.85 -91.41,18.4 -130.37,1.68 -52.67,-26.06 -107.41,-48.59 -157.15,-80.13 -14.15,-9.71 -26.81,-21.21 -39.94,-32.21 4.03,-9.98 4.52,-20.9 -0.91,-30.5 11.01,-13.93 21.29,-28.42 31.77,-42.78 19.64,-24.96 40.52,-49.04 62.83,-71.67 27.76,-26.6 57.22,-51.95 90.45,-71.45 12.57,-6.31 24.9,-13.21 37.7,-19.04 12.77,-1.79 18.34,-19.36 6.78,-26.7 -5.1,-3.31 -11.55,-2.76 -17.35,-2.54 -17.77,0.92 -35.57,4.41 -53.38,2.13 3.23,-13.46 6.65,-27.17 13.3,-39.4 4.7,-9.36 16.47,-17.73 11.03,-29.22 -2.72,-6.43 -10.9,-9.55 -17.38,-7.31 -21.45,12.01 -39.29,30.04 -58.38,45.48 -35.99,30.29 -70.31,63.34 -96.14,102.93 -4.91,7.6 -9.6,15.32 -14.09,23.16 -2.46,-31.55 -2.26,-63.19 -0.87,-94.85 -1.74,-92.79 6.21,-185.34 2.68,-278.13 -1.84,-45.88 -10.77,-91.32 -11.36,-137.29 -0.17,-48.64 1.61,-97.26 -1.5,-145.85 -1.3,-50.64 -4.26,-101.37 -1.52,-152 0.8,-29.5 5.59,-58.81 6.19,-88.33 0.16,-13.63 -12.76,-33.16 -27.24,-21.39 -9.98,-7.9 -24.53,-5.26 -36.419,-5.06 -6.93,0.34 -13.914,3.09 -21.004,2.91 -18.481,4.79 -20.672,29.06 -19.742,45.28 0.984,34.4 -1.426,68.73 -4.27,102.99 -12.902,140.08 -9.281,280.89 -14.824,421.31 5.308,62.68 -2.949,125.22 -8.883,188.04 -4.605,56.79 -6.969,113.81 -9.395,170.75 -17.679,-18.34 -37.121,-35.1 -57.441,-50.35 -28.199,-21.66 -61.523,-33.99 -93.758,-48.15 -22.379,-8.03 -93.035,-33.55 -112.269,-23.71 -10.825,7.14 -6.825,21.67 2.875,27.8 8.871,10.02 16.386,21.26 23.66,32.5 -18.582,5.33 -39.266,3.56 -56.762,12.19 -9.066,5.51 -9.293,19.13 -0.324,24.88 6.101,4 13.976,2.99 20.906,4.14 32.348,7.38 64.508,15.72 97.035,22.39 45.442,13.76 85.453,38.26 122.543,67.22 12.481,9.75 23.922,20.86 37.137,29.67 8.223,8.39 15.801,17.61 24.473,25.57 -3.528,5.31 -3.024,12.73 0.586,20.78 -1.946,0.3 -3.946,1.06 -5.965,2.37 -22.785,20.13 -41.395,45.12 -67.196,62.03 -12.64,-3.62 -22.617,9.33 -32.906,14.75 -25.762,18.45 -52.594,35.38 -82.058,47.31 -29.121,10.72 -62.231,26 -93.5,17.25 -23.176,-11.65 -43.657,-39.14 -30.961,-65.33 21.261,-34.58 -1.953,-59.86 1.453,-92.87 12.258,-28.45 -11.133,-32.44 -33.828,-31 -20.078,0.92 -40.207,-4.28 -60.149,-2.21 -32.605,8.21 -29.054,51.31 -24.644,77.37 3.773,17.65 12.406,33.51 20.004,49.69 13.004,25.23 -3.489,50.58 -13.141,73.8 -25.391,51.93 -28.367,124.79 20.582,163.92 36.949,24.93 94.746,13.16 133.844,-1.95 66.304,-28.8 119.84,-79.13 175.625,-123.84 34.078,-32.69 73.605,-60.33 100.816,-99.48 10.949,-14.3 21.328,-29.02 31.512,-42.63 1.769,-2.63 4.055,-5.11 6.062,-7.71 19.368,8.69 42.446,11.83 65.276,2.97 4.86,10.59 16.51,21.56 22.28,28.84 27.19,33.3 58.51,62.66 89.3,92.57 44.17,40.17 93.16,74.59 143.94,105.86 60.66,37.36 131.77,60.48 203.5,55.93"
           style="fill:#f3c34f;fill-opacity:1;fill-rule:evenodd;stroke:none"
           id="path15651" />
        <path
           d="m 6604.3116,2766.6594 c 1.94,-0.87 3.9,-1.55 5.9,-2.08 -6.64,-7.33 -25.39,-12.35 -31.7,-17.32 -19.35,-11.71 -37.32,-25.61 -55.51,-39.01 -9.74,-5.56 -17.39,-18.87 -29.18,-18.88 -0.96,0 -1.96,0.09 -2.98,0.28 -45.37,28.56 -28.34,41.19 0.83,73.5 17.79,19.54 36.74,38.08 52.73,59.19 7.73,7.12 12.19,25.94 25.27,21.6 2.39,7.4 5.53,14.43 9.02,21.35 2.88,5.61 10.57,5.89 14.79,2.14 -1.26,-2.23 -2.44,-4.49 -3.55,-6.79 -2.5,-5.14 -4.83,-10.65 -6.3,-16.16 -1.56,-5.82 -3.12,-11.76 -3.82,-17.76 -1.42,-12.2 0.18,-24.93 4.43,-36.46 3.59,-9.76 10.37,-19.28 20.07,-23.6 z m 350.55,137.9 c 6.43,22.97 31.23,12.15 17.42,-7.84 -23.68,-45.88 -48.66,-93.19 -56.28,-144.81 -3.03,-43.65 21.09,-88.88 1.27,-130.97 -3.29,-8.67 -11.12,-17.58 -21.24,-13.58 -25.16,10.55 -52.68,9.9 -79.34,13.16 -14.24,2.21 -42.29,-1.55 -37.58,20.96 2.5,11.66 6.87,23.23 5.96,35.37 -1.54,13.5 -6,27.56 0.59,40.47 11.23,23.69 30.16,45.26 28.58,72.94 -9.1,-3.09 -16.87,8.98 -9.74,15.84 12.82,7.83 29.87,-0.88 44.17,3.1 48.08,11.75 82.33,54.31 106.19,95.36 z m -919.871,-81.12 c 7.281,-5.67 22.266,-7.95 19.207,-20.14 -2.531,-7.4 -10.539,-11.09 -16.465,-15.44 -21.019,-11.63 -18.07,-33.86 -8.723,-52.37 9.598,-23.05 -6.453,-45.45 -7.039,-68.7 -2.511,-19.9 19.204,-42.04 -15.3,-42.68 -18.469,-0.02 -36.875,-0.64 -55.161,-3.57 -9.597,-1.2 -20.304,-3.76 -29.066,2.09 -50.109,45.67 9.012,111.71 5.887,165.84 -0.77,17 -8.11,32.47 -15.114,47.67 -9.449,20.95 -15.464,43.84 -15.269,66.94 -1.313,19.54 24.301,89.27 47.824,83.31 0.453,20.97 26.563,18.2 19.539,0.22 -6.492,-33.11 -4.203,-68.37 12.434,-98.24 13.293,-26.06 33.336,-48.19 57.246,-64.93 z m 509.241,-414.59 c -48.32,49.15 -78.44,113.7 -99,178.83 -1.78,11.19 -15.35,31.92 -9.07,40.87 2.3,3.12 5.6,4.92 9.09,6.46 -6.49,-1.65 -13.22,-2.7 -18.6,1.32 -1.35,0.14 -2.64,0.57 -3.81,1.25 -10.51,-1.81 -21.171,-3.58 -31.839,-4.35 0.605,-0.29 1.199,-0.61 1.785,-0.97 14.101,-10.82 -13.977,-47.29 -20.805,-58.93 -28.07,-38.57 -62.508,-72.6 -98.41,-103.85 -13.477,-10.79 -28.078,-20.16 -42.606,-29.46 -14.742,-8.51 -29.082,-20.05 -46.019,-23.37 -0.06,0 -0.121,0 -0.176,0 -4.754,0 -8.344,3.72 -9.152,7.96 1.582,0.79 3.152,1.61 4.707,2.46 4.648,2.53 9.047,5.48 13.512,8.3 5.218,3.31 10.41,6.58 15.308,10.35 8.848,6.8 17.617,14.4 24.285,23.42 7.477,10.1 13.032,22.11 15.282,34.47 0.789,4.32 0.988,8.72 0.734,13.09 0.07,2.87 -0.08,5.78 -0.473,8.75 -0.785,13.01 -5.32,26.9 -18.332,31.46 -8.769,10.38 4.481,20.83 14.77,14.14 19.472,9.62 37.172,22.16 53.383,36.57 12.984,9.37 26.421,31.81 42.496,35.91 -2.223,2.29 -3.461,5.55 -2.864,9.07 1.86,7.36 4.715,15.64 10.469,20.85 -1.82,2.19 -3.273,4.28 -4.406,6.26 -4.848,-5.35 -10.313,-8.83 -17.746,-5.27 -14.695,13.8 -26.125,31.43 -43.844,42.12 -11.559,10.64 -41.973,15.15 -47.144,27.3 -16.59,-1.22 -23.801,4.51 -24.895,10.23 -1.156,6.05 4.527,12.12 13.223,9.95 -0.391,0.14 -0.77,0.28 -1.145,0.4 21.113,-5.78 44.227,5.64 56.43,23 6.414,8.51 6.097,30.55 21.918,23.09 11.144,-8.61 15.562,-23.5 25.543,-33.48 16.422,-15.99 34.929,-31.24 42.929,-53.53 5.719,-10.74 -2.753,-19.59 -10.257,-26.54 -0.161,-0.11 -0.317,-0.22 -0.477,-0.34 0.672,-1.46 1.117,-3.24 1.246,-5.34 16.195,-37.46 75.76,-32.8 89.91,4.04 10.6,13.96 26.36,-1.56 30.12,-13.47 6.26,-13.19 1.55,-26.42 -8.05,-35.17 2.03,-0.4 4.15,-1.42 6.41,-3.29 11.39,-10.4 19,-24.49 29.16,-36.1 11.12,-13.55 22.05,-27.26 32.88,-41.04 14.43,0.11 27.86,-8.21 37.83,-18.06 1.35,-1.68 2.03,-3.42 2.2,-5.12 -6.56,3.28 -13.59,5.41 -20.98,6.11 -4.41,0.4 -8.88,0.65 -13.28,-0.05 -2.18,-0.35 -4.63,-0.74 -6.68,-1.62 -0.28,-0.12 -0.56,-0.25 -0.84,-0.38 -8.61,-0.99 -14.62,-8.45 -17.65,-17.9 -0.48,-1.11 -0.92,-2.24 -1.31,-3.4 -2.2,-6.54 -2.88,-13.99 -2.86,-20.89 0.01,-6.38 0.94,-12.82 2.41,-19.03 2.49,-10.44 6.27,-20.57 10.22,-30.53 4.33,-10.96 9.67,-21.54 15.97,-31.49 3.14,-4.94 6.56,-9.65 10.18,-14.2 -1.78,-1.6 -4.09,-2.6 -6.49,-2.6 -1.74,0 -3.53,0.53 -5.19,1.74 z m -80.85,64.97 c -9.16,0.97 -12.79,11.24 -17.67,17.76 -15.29,22.57 -26.43,47.33 -34.49,73.17 -10.477,-20.01 -24.946,-40.46 -29.751,-45.78 -11.554,-13.68 -24.812,-25.79 -38.785,-36.93 -4.41,-7.31 -16.836,-4.31 -17.336,4.38 -0.285,3.57 1.125,6.75 3.817,9.1 0.57,0.5 1.148,1 1.734,1.49 -6.738,9.33 20.453,30.75 25.699,40.99 -4.234,6.49 1.785,12.4 5.575,17.39 13.3,19.71 26.324,39.74 37.347,60.82 0.06,0.27 0.125,0.53 0.192,0.79 0.406,4.91 2.289,9.01 6.695,9.78 2.723,1.39 5.733,1.25 8.223,-0.02 10.26,6.23 16.26,-7.34 16.95,-16.4 2.93,-12.54 6.04,-25.05 9.75,-37.39 5.84,-20.12 15.28,-38.84 25.38,-57.11 1.69,-3.01 1.44,-6.63 -0.24,-9.44 4.03,-9.99 15.15,-31.04 -3.09,-32.6 z m -81.051,-214.59 c -12.895,0.07 -27.016,-0.1 -39.641,1.71 -5.875,1.09 -8.023,6.11 -7.293,10.71 -2.312,5.83 1.422,14.06 10.246,14.15 -0.683,1.12 -1.14,2.38 -1.316,3.71 -4.305,1.11 -7.422,5.21 -7.168,9.78 2.422,19.77 52.629,9.43 67.543,10.52 12.84,-0.61 25.73,-0.53 38.58,0 7.89,1.95 20.61,5.62 23.33,-5.27 2.14,-0.29 3.82,-1 5.12,-2.02 3.52,-0.85 6.5,-3.53 6.83,-8.22 1.34,-11.15 3.17,-28.04 -11.25,-30.87 -28.29,-1.83 -56.55,-5.2 -84.981,-4.2 z m 182.311,554.67 c -0.02,0.54 -0.03,1.09 -0.03,1.63 -1.21,-1.79 -2.41,-3.56 -3.64,-5.33 1.21,1.24 2.43,2.48 3.67,3.7 v 0"
           style="fill:#f78f3f;fill-opacity:1;fill-rule:evenodd;stroke:none"
           id="path15653" />
        <path
           d="m 6969.7716,2962.1894 c -0.22,-9.6 -10.7,-11.15 -17.85,-7.74 -65.9,14.08 -136.47,7.58 -200.3,-12.61 -21.8,-7.98 -43.37,-16.68 -64.38,-26.55 -9.63,-2.62 -17.97,-16.82 -28.2,-10.12 -19.86,20.05 52.95,39.41 65.59,46.87 -15.45,15.78 16.7,23.42 27.05,29 56.58,20.83 123.46,23.67 180.33,2.47 10.89,-6.41 35.54,-7.24 37.76,-21.32 z m -696.793,-141.56 c -84.203,64.87 -176.504,120.35 -276.57,156.92 -24.867,4.82 -17.52,27.61 -1.613,21.03 55.109,-20.35 108.812,-44.42 159.109,-74.89 45.551,-25.75 88.707,-55.8 130.215,-87.6 9.945,-7.13 -1.192,-22.84 -11.141,-15.46 z m -243.773,-340.08 c -7.641,1.95 -9.356,12.62 -3.035,17.14 19.222,7.35 41.718,-0.36 61.855,4.94 32.121,6.33 62.066,20.07 91.527,33.92 8.743,3.41 20.411,16.58 28.176,5.11 10.602,-15.37 -42.332,-30.76 -52.726,-37.08 -22.715,-10.04 -46.496,-18.16 -71.102,-21.92 -18.187,-2.09 -36.824,-0.12 -54.695,-2.11 z m 331.25,206.64 c -5.836,4.05 -4.367,13.84 2.156,16.36 8.125,1.15 16.484,0.39 24.629,2.75 13.367,3.35 26.961,5.09 40.601,6.76 5.11,0.89 10.04,-3.13 10.72,-8.15 0.1,-16.38 -22.72,-10.23 -33.302,-14.19 -14.425,-1.97 -30.761,-9.78 -44.804,-3.53 z m 334.306,-254.4 c -54.47,18.26 -118.7,51.72 -135.58,110.63 0,5.19 4.33,9.53 9.52,9.53 8.96,0.11 9.01,-9.42 12.23,-15.39 18.18,-37.04 55.86,-60.31 92.33,-76.67 8.68,-3.76 17.61,-6.75 26.56,-9.73 11.88,-3.22 6.75,-21.84 -5.06,-18.37 z m -301.377,-805.36 c 1.817,-2.07 2.887,-4.94 3.004,-7.88 1.77,-8.23 4.184,-16.31 6.633,-24.36 2.727,-9.48 -8.637,-14.71 -14.933,-10.22 -3.032,-1.29 -6.633,-1.17 -9.387,1.17 -2.055,1.59 -3.113,3.76 -3.617,6.25 -3.442,17.5 -3.973,35.4 -5.692,53.13 -3.945,39.03 -3.457,78.3 -5.238,117.45 -0.957,59.48 -5.641,118.82 -6.398,178.29 -0.481,40.24 -3.622,79.55 -7.829,118.76 -0.961,1.25 -1.605,2.74 -1.777,4.39 -1.766,16.89 -3.496,33.79 -5.094,50.69 -0.129,1.08 -0.101,2.07 0.05,3 -1.617,13.06 -3.269,26.15 -4.894,39.31 -0.418,8.15 10.738,12.76 16.257,6.73 1.961,-1.94 2.747,-4.49 2.813,-7.2 1.773,-18.85 4.949,-37.54 7.473,-56.3 1.289,-10.75 2.504,-21.51 3.629,-32.28 14.265,-109.08 14.363,-219.25 16.066,-329.11 1.027,-37.88 3.863,-74.71 8.937,-111.82 z m 61.927,691.64 c -0.03,0.01 -0.06,0.02 -0.08,0.03 -1.54,0.55 -2.89,1.64 -3.9,3.01 -14.61,-5.45 -30.63,-1.04 -45.822,-1.52 -21.32,2.39 -69.761,-6.17 -70.906,24.91 -9.281,6.87 0.578,22.31 10.742,16.21 10.536,-10.6 24.391,-17.97 39.594,-18.68 21.621,-0.3 44.082,-2.68 65.152,3.14 7.1,1.69 8.7,10.17 15.01,13.2 5.5,2.62 12.49,-1.53 13.14,-7.49 0.44,-4.38 -2.32,-8.18 -3.06,-12.48 -4.81,-7.85 -7.34,-24.7 -19.87,-20.33 z m 309.15,646.43 c 17.57,4.8 35.34,8.61 53.36,11.17 -18.51,-1.66 -37.24,-4.12 -54.47,-11.47 0.37,0.1 0.74,0.2 1.11,0.3 v 0"
           style="fill:#fdedbd;fill-opacity:1;fill-rule:evenodd;stroke:none"
           id="path15655" />
        <path
           d="m 6409.7616,2641.6094 c 21.51,2.93 54.35,-5.42 68.27,14.68 2.58,20.36 -11.36,40.57 -30.25,47.62 -40.486,13.52 -107.666,-6.32 -100.373,-58.17 20.543,-4.14 41.43,-5.28 62.353,-4.13 z m -42.916,-18.14 c -9.238,2.62 -25.187,-0.57 -28.617,10.78 -15.301,1.72 -11.144,23.3 -8.707,33.86 11.641,46.64 65.223,64.43 108.58,57.36 38.69,-1.62 78.02,-54.15 50.27,-87.71 -33.83,-22.98 -82.393,-14.04 -121.526,-14.29 v 0"
           style="fill:#4f262c;fill-opacity:1;fill-rule:evenodd;stroke:none"
           id="path15657" />
        <path
           d="m 6069.2996,2389.1294 c -72.227,7.04 -4.446,35.39 11.253,61.18 -16.953,3.39 -88.128,19.18 -77.421,42.99 15.347,13.48 53.39,13.06 74.265,21.01 43.981,10.46 86.434,26.68 126.93,46.68 33.57,17.17 65.348,37.81 93.805,62.59 12.582,7.48 27.269,33.76 42.957,21.28 -0.918,0.85 -1.993,1.63 -3.204,1.95 4.086,-1.56 6.829,-5.62 6.207,-10.2 -0.675,-5 -5.613,-9.01 -10.726,-8.14 -82.566,-77.52 -188.969,-123.1 -299.484,-143.68 16.335,-6.92 33.027,-13.78 50.781,-15.84 5.812,-0.74 12.472,-1.37 15.765,-7 7.383,-22.37 -20.48,-40.1 -34.793,-53.45 135.969,-5.52 262.903,90.64 320.274,209.98 4.797,19.94 24.723,20.14 21.863,2.06 -57.558,-130.24 -192.84,-234.53 -338.472,-231.41"
           style="fill:#4f262c;fill-opacity:1;fill-rule:evenodd;stroke:none"
           id="path15659" />
        <path
           d="m 6649.7616,2335.8394 c -116.42,37.55 -214.21,179.1 -232.31,297.11 -0.43,12.21 18.69,13.03 19.04,0.62 0.21,-6.25 1.59,-12.41 2.9,-18.51 29.92,-107.95 107.46,-225.04 217.53,-261.42 -12,17.87 -35.55,47.32 -18.53,67.83 21.05,8.62 46.71,-0.75 68.31,9.9 -91.24,47.63 -164.31,122.77 -226.83,202.93 -7.82,9.38 6.84,21.75 14.68,12.13 21.67,-26.04 43,-53.3 65.83,-78.09 38.57,-39.02 80.78,-75.6 127.42,-104.49 89.6,-39.78 21.04,-60.41 -36.51,-57.74 2.62,-12.78 9.2,-24.52 16.4,-35.27 5.45,-8.59 16.35,-15.41 16.53,-26.37 -2.25,-16 -23.42,-11.71 -34.46,-8.63"
           style="fill:#4f262c;fill-opacity:1;fill-rule:evenodd;stroke:none"
           id="path15661" />
        <path
           d="m 5894.1236,2602.1994 c -12.098,0.79 -11.106,19.76 1.14,19.01 39.266,3.43 78.539,6.87 117.926,8.76 103.129,4.88 206.055,13.46 309.121,18.98 12.137,0.84 13.696,-18.36 1.266,-19.01 -143.121,-9.29 -286.481,-16.63 -429.453,-27.74"
           style="fill:#4f262c;fill-opacity:1;fill-rule:evenodd;stroke:none"
           id="path15663" />
        <path
           d="m 6543.9516,2303.9694 c -131.73,4.91 -263.668,2.87 -395.387,6.18 -57.598,0.12 -112.738,-0.85 -169.527,0.62 -27.879,4.07 -69.336,-12.54 -81.141,22.39 -17.18,48.04 -22.695,99.6 -22.769,150.41 1.902,20.46 -5.34,134.19 22.211,128.16 6.839,-2.36 7.25,-9.95 4.773,-15.72 -5.023,-18.47 -5.797,-37.72 -6.906,-56.74 -1.274,-69.23 -5.582,-145.75 26.633,-208.81 251.328,-0.64 502.903,-7.96 754.023,-5.42 72.46,-0.1 144.63,6.94 217.05,8.05 12.64,2.09 34.9,-4.07 40.56,10.06 6.02,28.01 7.96,56.81 11.17,85.26 4.08,43.28 7.75,86.79 6.12,130.29 -1.15,19.91 0.87,40.32 -25.37,39.01 -43.06,5.39 -86.24,9.94 -129.44,14.08 -67.99,5.3 -136.07,10.67 -204.3,11.44 -28.85,0.31 -57.7,1.62 -86.56,2.09 -6.62,-1 -14.79,0.68 -15.29,8.71 0.64,15.61 21.22,9.05 31.48,10.03 34.11,-1.35 68.26,-1.78 102.39,-2.42 100.09,-3.65 200,-12.21 299.4,-24.45 51.44,0.09 46.14,-39.08 47.17,-78.23 -0.18,-43.58 -3.84,-87.08 -8.5,-130.38 -7.82,-116.25 -21.9,-89.86 -122.98,-96.11 -98.56,-6.86 -197.36,-6.77 -296.1,-8.5 h 1.29"
           style="fill:#4f262c;fill-opacity:1;fill-rule:evenodd;stroke:none"
           id="path15665" />
        <path
           d="m 6011.1626,1619.9994 c -24.969,54.98 -30.504,119.97 -44.383,179.2 -28.145,138.39 -40.652,279.81 -51.184,420.26 -2.543,29.08 -4.187,58.22 -6.761,87.29 -1.067,8.28 -2.883,21.58 8.882,22.03 15.942,-1.6 8.133,-29.36 11.766,-40.87 3.059,-48.04 8.231,-97.02 11.203,-144.83 9.942,-135.83 29.125,-270.76 57.356,-404 8.054,-36.31 15.738,-72.88 27.113,-108.33 2.617,-7.82 -7.094,-15.2 -13.992,-10.75"
           style="fill:#4f262c;fill-opacity:1;fill-rule:evenodd;stroke:none"
           id="path15667" />
        <path
           d="m 6828.8616,1632.1894 c -17.06,5.44 5.92,42.87 5.67,56.55 13.49,55.96 23.38,112.3 33.2,168.93 25.89,150.66 40.74,303.45 50.32,455.85 -2.23,16.72 23,19.91 19.38,1.47 -11.02,-165.12 -26.74,-329.99 -56.55,-492.9 -6.98,-23.65 -29.55,-200.14 -52.02,-189.9"
           style="fill:#4f262c;fill-opacity:1;fill-rule:evenodd;stroke:none"
           id="path15669" />
        <path
           d="m 6386.5646,1577.7394 c -101.18,1.2 -202.558,10.62 -302.742,24.51 -18.262,3.01 -35.785,9.09 -53.676,13.63 -8.461,-2.62 -15.808,8.55 -9.894,15.34 6.703,7.67 17.48,2.11 25.632,0.15 29.778,-9.51 60.723,-14.03 91.723,-17.37 156.367,-18.89 313.734,-20.56 470.964,-13.93 61.46,3.84 125.5,0.61 184.26,20.77 13.37,0.66 26.25,21.77 38.16,10.72 15.23,-65.15 -388.68,-51.18 -444.427,-53.82"
           style="fill:#4f262c;fill-opacity:1;fill-rule:evenodd;stroke:none"
           id="path15671" />
        <path
           d="m 6906.7716,2600.9894 c -13.52,10.26 11.05,31.95 10.42,46.52 6.72,44.09 -9.1,88.31 -3.16,132.49 8.06,48.14 41.23,87.55 51.1,135.25 8.15,117.24 -153.27,67.47 -217.32,42.75 -89.85,-43.82 -170.07,-108.17 -236.36,-182.73 -17.99,-20.96 -36.14,-41.88 -52.61,-64.06 -2.23,-7.53 -11.04,-12.03 -17.19,-5.95 -10.1,16.02 19.78,35.55 27.12,49.07 76.7,94 172.4,177.4 284.25,226.24 57.65,18.34 123.22,40.62 182.9,20.19 38.43,-14.65 58.57,-60.25 45.48,-98.9 -10.62,-42.19 -38.23,-77.96 -47.76,-120.42 -8.58,-51.18 16.09,-104.82 -2.86,-154.76 -5.2,-9.5 -9.43,-31.92 -24.01,-25.69"
           style="fill:#4f262c;fill-opacity:1;fill-rule:evenodd;stroke:none"
           id="path15673" />
        <path
           d="m 6763.8416,2616.1894 c -12.76,10.37 7.95,28.13 7.21,41.84 4.02,28.81 -4.82,59.55 13.73,85.16 68.25,113.35 -110.31,46.6 -153.92,21.23 -30.77,-15.3 -60.66,-34.26 -88.76,-53.47 -13.94,-5.18 -55.5,-52.12 -61.44,-23.82 2,11.67 45.18,33.06 56.57,43.46 49.97,34.12 103.56,63.85 161.14,82.97 94.31,30.6 158.13,6.9 95.54,-95.76 -7.37,-20.74 1.48,-43.08 -4.37,-64.24 -4.36,-12.31 -7.38,-43.29 -25.7,-37.37"
           style="fill:#4f262c;fill-opacity:1;fill-rule:evenodd;stroke:none"
           id="path15675" />
        <path
           d="m 5904.9866,2616.4694 c -40.328,51.11 12.301,111.91 11.184,166.2 -9.356,36.78 -34.45,69.59 -33.954,108.73 3.231,151.28 144.715,131.4 240.106,70.84 57.398,-35.59 112.449,-75.65 161.18,-122.58 12.769,-12.24 137.649,-125.29 99.558,-130.88 -4.375,-0.6 -8.472,1.95 -9.539,4.67 -15.582,23.25 -34.226,44.43 -53.695,64.49 -68.406,70.68 -145.32,134.72 -232.039,181.49 -91.504,49.66 -197.301,45.11 -184.949,-85 7.007,-36.6 35.234,-68.62 32.781,-106.85 -7.356,-37.21 -27,-72.96 -26.426,-111.25 0.684,-10.21 4.059,-20.45 10.867,-28.23 7.727,-9.49 -7.57,-21.52 -15.074,-11.63"
           style="fill:#4f262c;fill-opacity:1;fill-rule:evenodd;stroke:none"
           id="path15677" />
        <path
           d="m 6022.3346,2629.6194 c -21.481,29.41 9.644,61.24 1.98,91.54 -30.902,53.91 3.449,103.18 63.762,99.03 59.473,-10.52 110.824,-45.24 160.648,-77.48 13.2,-11.46 112.188,-63.57 86.719,-80.34 -7.652,-4.78 -12.953,3.7 -17.488,7.99 -28.168,24.6 -60.59,43.43 -91.496,64.28 -46.075,26.77 -163.102,113.66 -194.836,33.51 -3.461,-22.09 17.582,-40.65 13.351,-63.14 -1.429,-18.7 -14.043,-36.12 -10.519,-55.16 0.832,-3.75 2.23,-7.37 4.324,-10.61 6.359,-10.49 -10.25,-20.36 -16.445,-9.62"
           style="fill:#4f262c;fill-opacity:1;fill-rule:evenodd;stroke:none"
           id="path15679" />
        <path
           d="m 6330.3886,2317.4094 c -6.418,11.36 -1.679,26.61 -3.882,39.33 -1.188,20.76 -3.59,41.42 -4.805,62.18 1.594,17.61 -12.762,103.84 8.976,103.51 10.493,-0.29 9.981,-10.95 8.039,-18.44 -1.359,-30.59 0.868,-61.27 2.458,-91.83 2.148,-27.26 5.089,-54.48 5.23,-81.85 3.051,-10 -6.859,-21.15 -16.016,-12.9"
           style="fill:#4f262c;fill-opacity:1;fill-rule:evenodd;stroke:none"
           id="path15681" />
        <path
           d="m 6465.8216,2325.7994 c 1.16,59.17 6,119.19 -3.95,177.79 1.34,14.7 20.4,10.83 20.05,-2.81 8.03,-58.02 4.42,-116.66 2.95,-174.98 0.08,-12.25 -19.17,-12.38 -19.05,0"
           style="fill:#4f262c;fill-opacity:1;fill-rule:evenodd;stroke:none"
           id="path15683" />
        <path
           d="m 6357.4666,1600.6994 c -12.035,229.47 -12.843,459.45 -29.953,688.7 -6.543,41.73 24.578,36.69 19.09,17.67 7.461,-165.52 19.231,-331.16 20.899,-497.02 1.312,-58.95 5.351,-117.8 6.961,-176.74 -1.079,-12.17 4.668,-25.83 -0.02,-37.14 -4.687,-6.52 -16.269,-3.69 -16.973,4.53"
           style="fill:#4f262c;fill-opacity:1;fill-rule:evenodd;stroke:none"
           id="path15685" />
        <path
           d="m 6460.4516,1604.0594 c -5.92,233.84 11.59,467.5 9.73,701.33 -0.11,12.1 19.16,12.5 19.05,0.01 1.16,-161.39 -6.49,-322.64 -9.82,-483.97 -1.33,-57.13 -1.3,-114.31 -0.91,-171.45 -2.56,-13.37 9.37,-54.64 -8.52,-55.45 -5.25,0 -9.46,4.35 -9.53,9.53"
           style="fill:#4f262c;fill-opacity:1;fill-rule:evenodd;stroke:none"
           id="path15687" />
        <path
           d="m 6464.4116,2700.6494 c 13.87,36.88 49.05,63.85 78.39,89 13.17,6.68 60.82,55.21 70.54,40.06 10.57,-14.8 -30.71,-30.02 -39.39,-40.34 -18.78,-13.88 -37.26,-28.21 -53.69,-44.86 -13.43,-13.58 -26.69,-27.77 -36.43,-44.29 -1.36,-11.74 -19.2,-11.91 -19.42,0.43"
           style="fill:#4f262c;fill-opacity:1;fill-rule:evenodd;stroke:none"
           id="path15689" />
        <path
           d="m 6641.6516,2847.4094 c 1.17,11.18 15.22,13.16 23.47,17.7 11.31,4.89 18.81,-12.83 7.41,-17.55 -9.78,-3.42 -28.14,-18.94 -30.88,-0.15"
           style="fill:#4f262c;fill-opacity:1;fill-rule:evenodd;stroke:none"
           id="path15691" />
        <path
           d="m 6338.5336,2700.4094 c -25.949,24.63 -51.192,48.85 -79.766,70.22 -8.211,9.29 -40.918,20.53 -35.468,33.55 9.281,24.9 88.402,-54.73 100.976,-64.66 9.895,-10.39 26.227,-18.26 30.516,-32.38 0.308,-8.11 -10.742,-12.84 -16.258,-6.73"
           style="fill:#4f262c;fill-opacity:1;fill-rule:evenodd;stroke:none"
           id="path15693" />
        <path
           d="m 6188.1346,2820.8794 c -10.738,4.53 -24.941,18.35 -7.246,24.49 6.668,0.54 11.254,-5.37 16.864,-8.05 10.687,-6.17 0.918,-22.8 -9.618,-16.44"
           style="fill:#4f262c;fill-opacity:1;fill-rule:evenodd;stroke:none"
           id="path15695" />
        <path
           d="m 5850.8536,2649.6494 c -8.367,26.85 -5.508,55.98 4.985,81.83 2.988,7.67 6.203,15.15 10.046,22.43 6.067,10.71 22.696,1.05 16.454,-9.6 -10.239,-20.59 -18.7,-43.21 -17.215,-66.56 0.566,-7.8 1.664,-15.57 4.09,-23.04 3.418,-11.77 -15.051,-17.04 -18.36,-5.06"
           style="fill:#4f262c;fill-opacity:1;fill-rule:evenodd;stroke:none"
           id="path15697" />
        <path
           d="m 5864.8496,2795.2694 c -5.531,12.78 -32.789,66.56 -14.383,72.8 17.477,2.8 14,-30.18 21.274,-41.29 1.582,-11.19 18.293,-25.68 6.141,-34.93 -4.356,-2.56 -10.563,-1.15 -13.032,3.42"
           style="fill:#4f262c;fill-opacity:1;fill-rule:evenodd;stroke:none"
           id="path15699" />
        <path
           d="m 6721.5616,1602.3994 c -10.91,5.07 -2.92,16.58 -0.4,24.49 12.63,33.51 16.29,69.17 18.78,104.61 1.58,12.19 20.67,9.65 18.87,-2.59 -1.32,-18.91 -11.13,-134.41 -37.25,-126.51"
           style="fill:#4f262c;fill-opacity:1;fill-rule:evenodd;stroke:none"
           id="path15701" />
        <path
           d="m 6653.5216,1599.2094 c -5.96,2.47 -6.93,9.37 -4.27,14.67 5.74,17.87 8.61,36.51 14.38,54.37 2.01,15.72 25.04,11.26 18.82,-3.83 -8.38,-13.59 -8.06,-71.74 -28.93,-65.21"
           style="fill:#4f262c;fill-opacity:1;fill-rule:evenodd;stroke:none"
           id="path15703" />
        <path
           d="m 6021.5726,2204.3894 c -3.496,38.1 -5.152,76.36 -5.023,114.63 -0.102,12.29 19.152,12.36 19.046,0 -0.312,-37.4 1.618,-75.2 4.844,-112.04 1.707,-12.18 -17.363,-14.86 -18.867,-2.59"
           style="fill:#4f262c;fill-opacity:1;fill-rule:evenodd;stroke:none"
           id="path15705" />
        <path
           d="m 6084.6776,2256.5394 c -1.304,21.46 -10.949,46.77 -1.718,66.86 20.418,11.6 14.734,-15.12 15.961,-26.47 -1.938,-13.05 13.48,-44.52 -3.516,-48.53 -5.105,-0.73 -9.938,2.99 -10.727,8.14"
           style="fill:#4f262c;fill-opacity:1;fill-rule:evenodd;stroke:none"
           id="path15707" />
        <path
           d="m 6941.4016,1958.2594 c -14.56,5.79 -1.29,26.74 -1.38,36.98 3.99,19.65 7.89,39.32 10.95,59.15 8.46,61.8 15.18,124.3 14.74,186.21 -0.16,12.23 19.11,12.4 19.05,0 1.21,-40.85 -3.58,-81.6 -6.85,-122.26 -3.47,-40.66 -9.79,-80.97 -18.04,-120.93 -5.32,-12 -0.04,-40.55 -18.47,-39.15"
           style="fill:#4f262c;fill-opacity:1;fill-rule:evenodd;stroke:none"
           id="path15709" />
        <path
           d="m 6916.5616,1816.8394 c -15.79,6.55 1.64,33.63 1.1,45.49 5.69,12.96 0.94,44.86 17.35,47.6 5.19,0 9.52,-4.33 9.53,-9.53 -5.83,-14.26 -9.05,-90.34 -27.98,-83.56"
           style="fill:#4f262c;fill-opacity:1;fill-rule:evenodd;stroke:none"
           id="path15711" />
      </g>
    </g>
  </g>
</svg>
