<?xml version="1.0" encoding="utf-8"?>
<!-- Generator: Adobe Illustrator 27.5.0, SVG Export Plug-In . SVG Version: 6.00 Build 0)  -->
<svg version="1.1" id="Layer_1" xmlns="http://www.w3.org/2000/svg" xmlns:xlink="http://www.w3.org/1999/xlink" x="0px" y="0px"
	 viewBox="0 0 450 450" style="enable-background:new 0 0 450 450;" xml:space="preserve">
<g>
	<g>
		<linearGradient id="SVGID_1_" gradientUnits="userSpaceOnUse" x1="173.8644" y1="207.6774" x2="154.06" y2="201.6842">
			<stop  offset="0" style="stop-color:#902A04"/>
			<stop  offset="1" style="stop-color:#B52A04"/>
		</linearGradient>
		<path style="fill:url(#SVGID_1_);" d="M221.792,211.1c-0.476-24.976-15.711-59.211-20.757-63.253c-5.73-4.588-35.1,4.03-35.1,4.03
			l0.71,17.619c-2.608,20.279-14.464,21.69-13.988,46.666c0.468,24.547-9.418,49.499-19.104,47.684
			c39.955,7.487,72.871-0.273,80.447-9.66C220.022,246.724,222.259,235.646,221.792,211.1z"/>
		
			<linearGradient id="SVGID_00000072275311079204146470000009615781313746172038_" gradientUnits="userSpaceOnUse" x1="237.7919" y1="72.5941" x2="237.7919" y2="63.0546">
			<stop  offset="0" style="stop-color:#ECE0D5"/>
			<stop  offset="1" style="stop-color:#FFFFFF"/>
		</linearGradient>
		
			<rect x="185.84" y="63.081" style="fill:url(#SVGID_00000072275311079204146470000009615781313746172038_);" width="103.903" height="20.521"/>
		<g>
			<g style="enable-background:new    ;">
				<path style="fill:#252626;" d="M272.818,420.338c0.227-10.222-4.216-22.054-11.865-33.532l0.055-15.898l-42.02-22.859
					l-0.056,29.86l8.03,1.703v15.304L272.818,420.338z"/>
				
					<linearGradient id="SVGID_00000032610874064465688240000014588029794008176307_" gradientUnits="userSpaceOnUse" x1="218.9762" y1="358.0703" x2="261.0235" y2="358.0703">
					<stop  offset="0" style="stop-color:#FFFFFF"/>
					<stop  offset="1" style="stop-color:#ECE0D5"/>
				</linearGradient>
				<polygon style="fill:url(#SVGID_00000032610874064465688240000014588029794008176307_);" points="219.002,339.637 
					218.987,348.048 218.976,353.645 260.996,376.504 261.007,370.907 261.023,362.494 				"/>
				<g>
					<polygon style="fill:#F8F3EE;" points="261.023,362.494 219.002,339.637 256.89,334.31 298.91,357.171 					"/>
				</g>
				<g>
					<polygon style="fill:#B52A04;" points="261.023,362.494 219.002,339.637 219.084,300.188 261.105,323.046 					"/>
				</g>
				<g>
					<polygon style="fill:#F8F3EE;" points="207.335,370.04 173.507,351.278 203.201,341.856 245.221,364.715 					"/>
				</g>
				<g>
					<polygon style="fill:#B52A04;" points="207.345,370.039 173.517,351.277 169.334,279.742 203.162,298.505 					"/>
				</g>
				<g>
					
						<linearGradient id="SVGID_00000168109232097659618070000015215590830788884654_" gradientUnits="userSpaceOnUse" x1="253.4037" y1="295.0696" x2="254.4789" y2="323.0264">
						<stop  offset="0" style="stop-color:#B52A04"/>
						<stop  offset="1" style="stop-color:#DD4919"/>
					</linearGradient>
					<path style="fill:url(#SVGID_00000168109232097659618070000015215590830788884654_);" d="M298.91,357.171l-37.887,5.323
						l0.081-39.448c-2.576,0.646-5.203,1.156-7.894,1.534c-2.691,0.378-5.333,0.608-7.908,0.687l-0.082,39.448l-37.876,5.324
						l-4.183-71.534l100.207-14.084L298.91,357.171z"/>
					<path style="fill:#3F3F3F;" d="M245.181,388.95l0.014-10.226l-37.093,5.213l0.628,9.084
						c7.653,11.483,12.727,24.333,12.502,34.559l35.881-5.115C257.338,412.236,252.83,400.431,245.181,388.95z"/>
					<path style="fill:#252626;" d="M221.231,427.58c0.225-10.225-4.849-23.076-12.502-34.559l-0.628-9.084l-33.828-18.761
						l1.102,10.121v26.858L221.231,427.58z"/>
					<g>
						
							<linearGradient id="SVGID_00000003803599923241457070000011493912580534555067_" gradientUnits="userSpaceOnUse" x1="173.5074" y1="367.6079" x2="208.1012" y2="367.6079">
							<stop  offset="0" style="stop-color:#FFFFFF"/>
							<stop  offset="1" style="stop-color:#ECE0D5"/>
						</linearGradient>
						<polygon style="fill:url(#SVGID_00000003803599923241457070000011493912580534555067_);" points="208.101,383.938 
							174.273,365.177 173.507,351.278 207.335,370.04 						"/>
					</g>
					<g>
						
							<linearGradient id="SVGID_00000152229612702947212580000016809178499048104375_" gradientUnits="userSpaceOnUse" x1="207.3346" y1="374.3261" x2="245.2208" y2="374.3261">
							<stop  offset="0" style="stop-color:#FFFFFF"/>
							<stop  offset="1" style="stop-color:#ECE0D5"/>
						</linearGradient>
						<polygon style="fill:url(#SVGID_00000152229612702947212580000016809178499048104375_);" points="245.221,364.715 
							245.194,378.725 208.101,383.938 207.335,370.04 						"/>
					</g>
					<path style="fill:#3F3F3F;" d="M308.698,415.224c0.226-10.228-3.191-22.154-10.844-33.634l-0.064,0.009l0.304-10.31
						l-37.098,5.215l-0.044,10.289l-0.008,0.001c0.003,0.004,0.005,0.008,0.008,0.012v0.014l0.008-0.001
						c7.644,11.474,12.084,23.301,11.857,33.52L308.698,415.224z"/>
					<g>
						
							<linearGradient id="SVGID_00000013875449535051561660000005298740740481126295_" gradientUnits="userSpaceOnUse" x1="260.9962" y1="366.8374" x2="298.9103" y2="366.8374">
							<stop  offset="0" style="stop-color:#FFFFFF"/>
							<stop  offset="1" style="stop-color:#ECE0D5"/>
						</linearGradient>
						<polygon style="fill:url(#SVGID_00000013875449535051561660000005298740740481126295_);" points="298.91,357.171 
							298.097,371.289 260.996,376.504 261.007,370.907 261.023,362.494 						"/>
					</g>
				</g>
				<g>
					<polygon style="fill:#DD4919;" points="203.162,298.505 169.334,279.742 261.347,261.563 303.368,284.421 					"/>
				</g>
			</g>
		</g>
		<g style="enable-background:new    ;">
			<g>
				<polygon style="fill:#DD4919;" points="330.198,266.976 311.523,256.818 307.215,244.94 325.89,255.1 				"/>
			</g>
			<g>
				<polygon style="fill:#FFD097;" points="306.162,295.727 287.486,285.567 286.118,270.852 304.794,281.011 				"/>
			</g>
			<g>
				<polygon style="fill:#FFD097;" points="304.794,281.011 286.118,270.852 304.724,260.574 323.4,270.733 				"/>
			</g>
			<g>
				
					<linearGradient id="SVGID_00000128461006790635997030000017910204143929988505_" gradientUnits="userSpaceOnUse" x1="301.3107" y1="268.7446" x2="330.1983" y2="268.7446">
					<stop  offset="0" style="stop-color:#FFFFFF"/>
					<stop  offset="1" style="stop-color:#ECE0D5"/>
				</linearGradient>
				<polygon style="fill:url(#SVGID_00000128461006790635997030000017910204143929988505_);" points="325.89,255.1 330.198,266.976 
					302.298,282.39 301.311,267.531 				"/>
			</g>
			<g>
				<path style="fill:#FFD097;" d="M323.4,270.733c-0.892,12.07-7.903,22.673-17.237,24.993l-1.368-14.716L323.4,270.733z"/>
			</g>
			<g>
				<polygon style="fill:#F8F3EE;" points="302.298,282.39 283.623,272.229 282.635,257.371 301.311,267.531 				"/>
			</g>
			<g>
				<polygon style="fill:#F8F3EE;" points="301.311,267.531 282.635,257.371 307.215,244.94 325.89,255.1 				"/>
			</g>
			<g>
				<polygon style="fill:#DD4919;" points="301.313,267.53 282.638,257.37 276.106,159.138 294.781,169.297 				"/>
			</g>
			<g>
				
					<linearGradient id="SVGID_00000000901452426183531910000007689853785297337508_" gradientUnits="userSpaceOnUse" x1="300.5876" y1="218.3544" x2="323.7057" y2="217.8163">
					<stop  offset="0" style="stop-color:#B52A04"/>
					<stop  offset="1" style="stop-color:#DD4919"/>
				</linearGradient>
				<polygon style="fill:url(#SVGID_00000000901452426183531910000007689853785297337508_);" points="294.781,169.297 325.89,255.1 
					301.313,267.53 				"/>
			</g>
		</g>
		<g>
			<g style="enable-background:new    ;">
				<g>
					<polygon style="fill:#F8F3EE;" points="261.433,287.94 219.413,265.081 270.377,257.918 312.397,280.778 					"/>
				</g>
				<g>
					<polygon style="fill:#DD4919;" points="261.451,278.111 219.431,255.252 269.83,248.168 311.851,271.027 					"/>
				</g>
				<g>
					<path style="fill:#3F3F3F;" d="M264.783,240.096c14.008,7.62,28.014,15.239,42.021,22.859c0.112,2.126-1.418,4.076-3.436,4.36
						l-42.021-22.86C263.365,244.173,264.895,242.223,264.783,240.096z"/>
				</g>
				<g>
					<polygon style="fill:#3F3F3F;" points="280.264,270.561 238.244,247.703 261.347,244.455 303.368,267.315 					"/>
				</g>
				<g>
					<polygon style="fill:#FFFFFF;" points="280.279,262.822 238.259,239.964 260.919,236.779 302.94,259.639 					"/>
				</g>
				<g>
					<path style="fill:#3F3F3F;" d="M264.783,240.096c-0.08-1.321-0.785-2.402-1.801-2.953l42.021,22.859
						c1.015,0.551,1.722,1.632,1.8,2.953C292.797,255.335,278.791,247.716,264.783,240.096L264.783,240.096z"/>
				</g>
				<g>
					<path style="fill:#3F3F3F;" d="M236.276,247.368c0.567,0.307,1.241,0.438,1.968,0.335l42.02,22.858
						c-0.725,0.103-1.401-0.029-1.967-0.336C265.69,263.369,248.881,254.225,236.276,247.368z"/>
				</g>
				<g>
					<path style="fill:#FFFFFF;" d="M278.297,270.226l-42.021-22.857c-1.007-0.549-1.669-1.659-1.668-3.031
						c0.004-2.125,1.632-4.09,3.651-4.373l42.02,22.858c-2.02,0.284-3.646,2.248-3.651,4.374
						C276.626,268.568,277.29,269.679,278.297,270.226z"/>
				</g>
				<g>
					<polygon style="fill:#3F3F3F;" points="261.483,260.56 219.463,237.701 268.855,230.76 310.875,253.619 					"/>
				</g>
				<g>
					<path style="fill:#FFFFFF;" d="M262.983,237.143l42.021,22.859c-0.603-0.328-1.311-0.472-2.064-0.363l-42.021-22.859
						C261.671,236.673,262.382,236.814,262.983,237.143z"/>
				</g>
				<g>
					<path style="fill:#7C7C7C;" d="M302.94,259.639c2.018-0.284,3.738,1.209,3.864,3.316c0.112,2.126-1.418,4.076-3.436,4.36
						l-23.104,3.246c-2.017,0.284-3.64-1.223-3.636-3.365c0.005-2.126,1.632-4.09,3.651-4.374L302.94,259.639z"/>
				</g>
				<g>
					<polygon style="fill:#DD4919;" points="261.433,287.94 219.413,265.081 219.431,255.252 261.451,278.111 					"/>
				</g>
				<g>
					
						<linearGradient id="SVGID_00000036250925614429632950000017039681819728181177_" gradientUnits="userSpaceOnUse" x1="203.2173" y1="190.2197" x2="253.217" y2="243.7195">
						<stop  offset="0" style="stop-color:#B52A04"/>
						<stop  offset="1" style="stop-color:#DD4919"/>
					</linearGradient>
					<polygon style="fill:url(#SVGID_00000036250925614429632950000017039681819728181177_);" points="312.397,280.778 
						261.433,287.94 261.451,278.111 311.851,271.027 					"/>
				</g>
				<g>
					<polygon style="fill:#F8F3EE;" points="252.937,279.308 210.915,256.449 219.431,255.252 261.451,278.111 					"/>
				</g>
				<g>
					<polygon style="fill:#F8F3EE;" points="252.917,289.138 210.897,266.279 210.915,256.449 252.937,279.308 					"/>
				</g>
				<g>
					<polygon style="fill:#3F3F3F;" points="252.969,261.757 210.948,238.897 219.463,237.701 261.483,260.56 					"/>
				</g>
				<g>
					<polygon style="fill:#F8F3EE;" points="201.953,296.3 159.931,273.439 210.897,266.279 252.917,289.138 					"/>
				</g>
				<g>
					<polygon style="fill:#DD4919;" points="202.537,286.392 160.515,263.531 210.915,256.449 252.937,279.308 					"/>
				</g>
				<g>
					<path style="fill:#3F3F3F;" d="M195.77,249.795c14.007,7.621,28.014,15.241,42.021,22.86c-0.004,2.142-1.632,4.105-3.65,4.389
						l-42.02-22.858C194.138,253.902,195.765,251.938,195.77,249.795z"/>
				</g>
				<g>
					<polygon style="fill:#3F3F3F;" points="211.037,280.291 169.017,257.432 192.12,254.186 234.141,277.044 					"/>
				</g>
				<g>
					<polygon style="fill:#FFFFFF;" points="211.495,272.489 169.473,249.631 192.133,246.446 234.155,269.305 					"/>
				</g>
				<g>
					<path style="fill:#3F3F3F;" d="M195.77,249.795c0.003-1.358-0.66-2.466-1.666-3.013l42.021,22.858
						c1.005,0.549,1.668,1.655,1.665,3.015C223.783,265.036,209.777,257.416,195.77,249.795L195.77,249.795L195.77,249.795z"/>
				</g>
				<g>
					<path style="fill:#FFFFFF;" d="M194.104,246.782l42.021,22.858c-0.566-0.308-1.243-0.438-1.97-0.336l-42.021-22.858
						C192.861,246.343,193.538,246.475,194.104,246.782z"/>
				</g>
				<g>
					<polygon style="fill:#B52A04;" points="200.732,316.975 158.713,294.115 160.515,263.531 202.537,286.392 					"/>
				</g>
				<g>
					
						<linearGradient id="SVGID_00000067931834953022568900000009254668136885625728_" gradientUnits="userSpaceOnUse" x1="158.7125" y1="295.207" x2="201.9527" y2="295.207">
						<stop  offset="0" style="stop-color:#FFFFFF"/>
						<stop  offset="1" style="stop-color:#ECE0D5"/>
					</linearGradient>
					<polygon style="fill:url(#SVGID_00000067931834953022568900000009254668136885625728_);" points="200.732,316.975 
						158.713,294.115 159.931,273.439 201.953,296.3 					"/>
				</g>
				<g>
					<path style="fill:#3F3F3F;" d="M209.156,279.978c-14.006-7.619-28.013-15.238-42.02-22.857c0.535,0.289,1.178,0.41,1.882,0.311
						l42.02,22.859C210.334,280.391,209.69,280.271,209.156,279.978z"/>
				</g>
				<g>
					
						<linearGradient id="SVGID_00000022531252055418705000000015936574897331298748_" gradientUnits="userSpaceOnUse" x1="232.4176" y1="162.9294" x2="282.4172" y2="216.429">
						<stop  offset="0" style="stop-color:#B52A04"/>
						<stop  offset="1" style="stop-color:#DD4919"/>
					</linearGradient>
					<polygon style="fill:url(#SVGID_00000022531252055418705000000015936574897331298748_);" points="306.49,175.658 
						310.875,253.619 261.483,260.56 261.63,181.963 					"/>
				</g>
				<g>
					
						<linearGradient id="SVGID_00000102520652498690135390000008253477529729373625_" gradientUnits="userSpaceOnUse" x1="167.4686" y1="223.6293" x2="217.4687" y2="277.1295">
						<stop  offset="0" style="stop-color:#B52A04"/>
						<stop  offset="1" style="stop-color:#DD4919"/>
					</linearGradient>
					<polygon style="fill:url(#SVGID_00000102520652498690135390000008253477529729373625_);" points="252.917,289.138 
						201.953,296.3 202.537,286.392 252.937,279.308 					"/>
				</g>
				<g>
					
						<linearGradient id="SVGID_00000174597112297106967920000006707852456968286852_" gradientUnits="userSpaceOnUse" x1="200.732" y1="297.5429" x2="313.5411" y2="297.5429">
						<stop  offset="0" style="stop-color:#FFFFFF"/>
						<stop  offset="1" style="stop-color:#ECE0D5"/>
					</linearGradient>
					<polygon style="fill:url(#SVGID_00000174597112297106967920000006707852456968286852_);" points="312.397,280.778 
						313.541,301.12 261.396,308.448 252.88,309.645 200.732,316.975 201.953,296.3 252.917,289.138 252.937,279.308 
						261.451,278.111 261.433,287.94 					"/>
				</g>
				<g>
					<polygon style="fill:#252626;" points="202.537,286.392 160.515,263.531 161.558,245.839 203.579,268.697 					"/>
				</g>
				<g>
					<path style="fill:#7C7C7C;" d="M234.155,269.305c2.018-0.283,3.64,1.224,3.636,3.351c-0.004,2.142-1.632,4.105-3.65,4.389
						l-23.104,3.247c-2.018,0.285-3.542-1.236-3.406-3.398c0.12-2.141,1.862-4.123,3.863-4.403L234.155,269.305z"/>
				</g>
				<g>
					<polygon style="fill:#F8F3EE;" points="261.63,181.963 261.483,260.56 252.969,261.757 253.114,183.159 					"/>
				</g>
				<g>
					<path style="fill:#3F3F3F;" d="M310.875,253.619l0.983,17.406l-50.407,7.086l-8.515,1.196l-50.4,7.084l1.042-17.694l49.39-6.94
						l8.515-1.197L310.875,253.619z M303.368,267.315c2.018-0.284,3.548-2.234,3.436-4.36c-0.126-2.107-1.846-3.6-3.864-3.316
						l-22.66,3.184c-2.02,0.284-3.646,2.248-3.651,4.374c-0.004,2.143,1.619,3.649,3.636,3.365L303.368,267.315L303.368,267.315z
						 M234.141,277.044c2.018-0.283,3.646-2.247,3.65-4.389c0.004-2.127-1.618-3.634-3.636-3.351l-22.66,3.185
						c-2.001,0.28-3.744,2.263-3.863,4.403c-0.136,2.162,1.388,3.684,3.406,3.398L234.141,277.044L234.141,277.044z"/>
				</g>
				<g>
					<polygon style="fill:#3F3F3F;" points="203.579,268.697 161.558,245.839 210.948,238.897 252.969,261.757 					"/>
				</g>
			</g>
			<g style="enable-background:new    ;">
				<g>
					<polygon style="fill:#B52A04;" points="203.581,268.697 161.56,245.839 166.232,166.605 208.253,189.464 					"/>
				</g>
				<g>
					
						<linearGradient id="SVGID_00000134931025680404741570000013052410833085751439_" gradientUnits="userSpaceOnUse" x1="198.8175" y1="194.3308" x2="248.8175" y2="247.8308">
						<stop  offset="0" style="stop-color:#B52A04"/>
						<stop  offset="1" style="stop-color:#DD4919"/>
					</linearGradient>
					<polygon style="fill:url(#SVGID_00000134931025680404741570000013052410833085751439_);" points="253.114,183.159 
						252.969,261.757 203.581,268.697 208.253,189.464 					"/>
				</g>
			</g>
		</g>
		<g>
			<path style="fill:#F99B1D;" d="M266.472,262.198l-4.669-2.538c0.94,0.512,1.565,1.559,1.563,2.849l-0.017,9.21
				c-0.004,2-1.515,3.842-3.369,4.102l-8.549,1.203c-0.659,0.092-1.275-0.026-1.794-0.311l4.669,2.542
				c0.519,0.281,1.135,0.401,1.794,0.309l8.55-1.2c1.854-0.261,3.365-2.104,3.368-4.104l0.018-9.21
				C268.037,263.759,267.412,262.713,266.472,262.198z"/>
			<path style="fill:#F99B1D;" d="M247.621,277.124l0.018-9.209c0.01-5.066,3.823-9.708,8.501-10.365l8.549-1.203
				c1.662-0.233,3.212,0.067,4.52,0.779l-4.669-2.539c-1.308-0.713-2.858-1.013-4.52-0.78l-8.549,1.202
				c-4.678,0.657-8.491,5.301-8.501,10.366l-0.018,9.209c-0.006,3.267,1.571,5.91,3.945,7.203l4.668,2.539
				C249.193,283.035,247.614,280.391,247.621,277.124z"/>
		</g>
		<g>
			<path style="fill:#FDC00F;" d="M264.689,256.347c4.676-0.657,8.475,2.916,8.465,7.983l-0.016,9.208
				c-0.011,5.066-3.825,9.711-8.499,10.367l-8.551,1.201c-4.677,0.657-8.476-2.917-8.467-7.981l0.018-9.209
				c0.01-5.066,3.823-9.708,8.501-10.365L264.689,256.347z M268.017,274.259l0.018-9.21c0.004-2.001-1.502-3.419-3.357-3.159
				l-8.549,1.202c-1.854,0.261-3.366,2.104-3.37,4.104l-0.018,9.209c-0.004,2.001,1.503,3.42,3.357,3.158l8.55-1.2
				C266.502,278.102,268.014,276.259,268.017,274.259L268.017,274.259z"/>
		</g>
		<g>
			<polygon style="fill:#F8F3EE;" points="261.63,181.963 219.609,159.103 264.47,152.799 306.49,175.658 			"/>
		</g>
		<g>
			<polygon style="fill:#F8F3EE;" points="208.253,189.464 166.232,166.605 211.094,160.3 253.114,183.159 			"/>
			<g>
				
					<linearGradient id="SVGID_00000079471873562704655050000013265985396067860910_" gradientUnits="userSpaceOnUse" x1="161.2787" y1="176.6006" x2="314.6839" y2="176.6006">
					<stop  offset="0" style="stop-color:#ECE0D5"/>
					<stop  offset="0.1063" style="stop-color:#F0E7DE"/>
					<stop  offset="0.5222" style="stop-color:#FFFFFF"/>
					<stop  offset="0.7078" style="stop-color:#FEFDFC"/>
					<stop  offset="0.8275" style="stop-color:#FAF7F4"/>
					<stop  offset="0.9282" style="stop-color:#F3ECE5"/>
					<stop  offset="1" style="stop-color:#ECE0D5"/>
				</linearGradient>
				<path style="fill:url(#SVGID_00000079471873562704655050000013265985396067860910_);" d="M261.347,205.837
					c-0.416,0-0.832-0.032-1.247-0.096l-53.094-8.179c-0.955-0.148-1.877-0.463-2.722-0.93l-38.78-21.481
					c-3.112-1.724-4.755-5.256-4.071-8.746c0.685-3.49,3.544-6.139,7.075-6.558l104.65-12.425c1.847-0.22,3.709,0.196,5.289,1.176
					l32.366,20.099c2.535,1.574,4.014,4.401,3.86,7.381c-0.153,2.978-1.913,5.64-4.595,6.946l-45.144,21.987
					C263.813,205.556,262.585,205.837,261.347,205.837z"/>
			</g>
		</g>
		<g>
			<g>
				<g>
					<g>
						<polygon style="fill:#B52A04;" points="263.983,53.368 267.773,43.606 287.055,43.602 253.981,26.699 226.354,26.699 
							193.961,64.547 193.961,68.854 283.236,68.857 283.236,64.547 						"/>
						
							<linearGradient id="SVGID_00000003811202422220770430000017139549279773799817_" gradientUnits="userSpaceOnUse" x1="240.5079" y1="26.3335" x2="240.5079" y2="66.9451">
							<stop  offset="0" style="stop-color:#B52A04"/>
							<stop  offset="1" style="stop-color:#DD4919"/>
						</linearGradient>
						<polygon style="fill:url(#SVGID_00000003811202422220770430000017139549279773799817_);" points="259.44,53.368 
							264.365,43.606 287.055,43.602 253.981,26.699 226.354,26.699 193.961,68.854 283.236,68.857 						"/>
					</g>
					<g>
						<path style="fill:#F8F3EE;" d="M297.874,43.303c-0.547,6.817-6.516,11.889-13.332,11.346
							c-6.811-0.554-11.888-6.521-11.342-13.338c0.55-6.813,6.517-11.885,13.334-11.342
							C293.346,30.522,298.419,36.486,297.874,43.303z"/>
						<path style="fill:#E0DBDA;" d="M287.319,50.781c-6.815-0.547-11.894-6.515-11.342-13.33c0.115-1.477,0.53-2.854,1.118-4.131
							c-2.163,2.026-3.637,4.807-3.895,7.991c-0.546,6.817,4.53,12.785,11.342,13.338c5.335,0.425,10.108-2.614,12.21-7.213
							C294.296,49.742,290.94,51.078,287.319,50.781z"/>
					</g>
				</g>
				<g>
					
						<linearGradient id="SVGID_00000134966011929764553750000001947095068421006731_" gradientUnits="userSpaceOnUse" x1="217.6348" y1="232.0229" x2="217.6348" y2="155.4202" gradientTransform="matrix(1 0 0 1.0526 20.1563 -75.8292)">
						<stop  offset="0" style="stop-color:#FFFFFF"/>
						<stop  offset="1" style="stop-color:#ECE0D5"/>
					</linearGradient>
					<polygon style="fill:url(#SVGID_00000134966011929764553750000001947095068421006731_);" points="283.24,90.323 
						192.347,90.327 177.134,169.202 298.448,169.202 					"/>
					<polygon style="fill:#FFD097;" points="279.358,90.323 196.226,90.32 192.463,165.26 283.115,165.26 					"/>
					
						<ellipse transform="matrix(0.1606 -0.987 0.987 0.1606 89.0023 374.4991)" style="fill:#FFBD99;" cx="264.685" cy="134.921" rx="8.676" ry="8.676"/>
					
						<ellipse transform="matrix(0.2306 -0.973 0.973 0.2306 30.9747 309.0164)" style="fill:#FFBD99;" cx="210.894" cy="134.921" rx="8.676" ry="8.676"/>
					<g>
						<polygon style="fill:#FFFFFF;" points="280.483,112.019 245.991,104.42 253.599,92.24 280.483,99.845 						"/>
						<polygon style="fill:#FFFFFF;" points="195.103,112.022 229.596,104.418 221.988,92.242 195.103,99.847 						"/>
					</g>
					<g>
						<rect x="212.347" y="112.019" style="fill:#3F3F3F;" width="9.319" height="9.326"/>
						<rect x="253.916" y="112.02" style="fill:#3F3F3F;" width="9.32" height="9.325"/>
					</g>
				</g>
				<g>
					
						<linearGradient id="SVGID_00000041260381518905103840000006227437386251900033_" gradientUnits="userSpaceOnUse" x1="217.6349" y1="293.2004" x2="217.6349" y2="194.9839" gradientTransform="matrix(1 0 0 1 20.1558 -39.6128)">
						<stop  offset="0" style="stop-color:#FFFFFF"/>
						<stop  offset="1" style="stop-color:#DFD3C9"/>
					</linearGradient>
					<path style="fill:url(#SVGID_00000041260381518905103840000006227437386251900033_);" d="M269.424,144.461
						c-9.08,6.655-19.948,10.54-31.636,10.54c-11.69,0-22.558-3.882-31.632-10.537c-15.608,11.439-25.908,31.091-25.909,53.416
						c0,19.883,30.788,30.666,41.577,45.268c8.375,11.346-0.001,17.256-0.001,17.256s73.512-27.201,73.511-62.521
						C295.336,175.547,285.029,155.896,269.424,144.461z"/>
					<path style="fill:#F4765D;" d="M220.191,145.702c1.558,8.309,8.837,14.598,17.598,14.598c8.76,0,16.04-6.29,17.6-14.598
						H220.191z"/>
					<path style="fill:#FFFFFF;" d="M222.902,145.702c1.318,7.028,7.475,12.349,14.886,12.349c7.411,0,13.568-5.32,14.888-12.349
						H222.902z"/>
					
						<linearGradient id="SVGID_00000050632989845491689910000006193748814150809225_" gradientUnits="userSpaceOnUse" x1="217.6344" y1="193.681" x2="217.6344" y2="173.4975" gradientTransform="matrix(1 0 0 1 20.1558 -39.6128)">
						<stop  offset="0" style="stop-color:#FFFFFF"/>
						<stop  offset="1" style="stop-color:#DFD3C9"/>
					</linearGradient>
					<path style="fill:url(#SVGID_00000050632989845491689910000006193748814150809225_);" d="M264.993,139.44
						c-13.981-11.503-27.201-2.896-27.201-2.896s-13.222-8.61-27.208,2.9c-13.575,11.164-24.748-6.426-24.748-6.426
						s6.563,30.824,39.33,18.688l12.626-5.34l12.622,5.34c32.766,12.14,39.329-18.688,39.329-18.688S278.571,150.608,264.993,139.44
						z"/>
				</g>
				<rect x="185.845" y="71.635" style="fill:#F8F3EE;" width="103.893" height="18.686"/>
			</g>
			<path style="fill:#DD4919;" d="M248.6,134.926c0,5.952-4.828,10.776-10.779,10.776c-5.956,0-10.781-4.829-10.776-10.78
				c-0.003-5.956,4.825-10.775,10.776-10.781C243.772,124.141,248.603,128.969,248.6,134.926z"/>
			<path style="fill:#FF8C71;" d="M245.166,132.506c0,4.06-3.292,7.343-7.346,7.343c-4.058,0.003-7.343-3.281-7.349-7.343
				c0.002-4.059,3.29-7.345,7.35-7.343C241.874,125.161,245.166,128.454,245.166,132.506z"/>
		</g>
		<g>
			<polygon style="fill:#DD4919;" points="191.796,189.291 195.615,215.413 214.122,217.307 			"/>
			
				<linearGradient id="SVGID_00000018933324342570191430000003553887414538100360_" gradientUnits="userSpaceOnUse" x1="169.6915" y1="208.8803" x2="222.8082" y2="208.8803">
				<stop  offset="0" style="stop-color:#B52A04"/>
				<stop  offset="1" style="stop-color:#DD4919"/>
			</linearGradient>
			<polygon style="fill:url(#SVGID_00000018933324342570191430000003553887414538100360_);" points="169.691,178.405 
				191.548,239.355 222.808,216.33 204.242,194.163 195.117,200.496 191.796,189.291 			"/>
			<polygon style="fill:#DD4919;" points="208.84,236.183 191.548,239.355 222.808,216.33 240.505,213.599 			"/>
			
				<linearGradient id="SVGID_00000095338217412204583820000005122269232512378285_" gradientUnits="userSpaceOnUse" x1="201.5978" y1="204.9416" x2="226.4015" y2="204.9416">
				<stop  offset="0" style="stop-color:#FFFFFF"/>
				<stop  offset="1" style="stop-color:#ECE0D5"/>
			</linearGradient>
			<polygon style="fill:url(#SVGID_00000095338217412204583820000005122269232512378285_);" points="201.598,195.999 
				219.515,218.756 226.402,213.617 208.544,191.127 			"/>
			
				<linearGradient id="SVGID_00000101790323479185862600000002784369302555560598_" gradientUnits="userSpaceOnUse" x1="219.5152" y1="214.7202" x2="244.5128" y2="214.7202">
				<stop  offset="0" style="stop-color:#FFFFFF"/>
				<stop  offset="1" style="stop-color:#ECE0D5"/>
			</linearGradient>
			<polygon style="fill:url(#SVGID_00000101790323479185862600000002784369302555560598_);" points="226.402,213.617 
				219.515,218.756 237.48,216.111 244.513,210.684 			"/>
			
				<linearGradient id="SVGID_00000003807921731901798370000017321931741682875798_" gradientUnits="userSpaceOnUse" x1="208.5436" y1="201.3398" x2="244.5128" y2="201.3398">
				<stop  offset="0" style="stop-color:#FFFFFF"/>
				<stop  offset="1" style="stop-color:#ECE0D5"/>
			</linearGradient>
			<polygon style="fill:url(#SVGID_00000003807921731901798370000017321931741682875798_);" points="227.77,189.063 
				208.544,191.127 226.402,213.617 244.513,210.684 			"/>
		</g>
		<g>
			<g style="enable-background:new    ;">
				<g>
					
						<linearGradient id="SVGID_00000070833540139436383440000015513254690401039004_" gradientUnits="userSpaceOnUse" x1="96.9925" y1="197.1316" x2="238.2589" y2="197.1316">
						<stop  offset="0" style="stop-color:#B52A04"/>
						<stop  offset="1" style="stop-color:#DD4919"/>
					</linearGradient>
					<path style="fill:url(#SVGID_00000070833540139436383440000015513254690401039004_);" d="M172.478,129.762
						c45.339,0,65.773,60.978,65.781,61.231c0,0-7.498,8.547-9.911,3.955c-2.75-5.232-9.944-14.684-19.141-17.476
						c-22.665-6.881-50.465-5.613-51.329,41.452c-0.57,31.077-6.239,48.811-23.614,45.084
						c-22.602-4.848-37.658-22.871-37.264-53.791C97.659,158.752,136.256,129.762,172.478,129.762z"/>
				</g>
			</g>
		</g>
		<path style="fill:#B52A04;" d="M224.57,180.203c-1.616-2.885-3.301-6.026-5.055-9.448c0,0,0.873,3.328,2.558,8.111
			c-4.47-2.215-9.916-4.014-16.56-5.176c0,0,10.37,3.437,20.311,14.626c1.814,4.061,4.006,8.294,6.552,12.082
			c2.834-1.418,5.882-5.124,5.882-5.124c-0.001-0.031-0.19-0.727-0.585-1.948C235.09,188.57,228.348,188.366,224.57,180.203z"/>
		<path style="fill:#F4C089;" d="M253.937,200.299l-13.472-18.169c-11.611-1.089-19.592,1.038-27.844,10.843l-0.003,0.001
			l0.002,0.001c-0.01,0.011-0.019,0.02-0.028,0.031l0.045-0.006l13.427,18.175L253.937,200.299z"/>
		<g>
			<g>
				<path style="fill:#FFD097;" d="M253.937,200.299l-11.777,8.607l-16.095,2.268C234.327,201.34,242.313,199.208,253.937,200.299z"
					/>
			</g>
		</g>
		<path style="fill:#DD4919;" d="M231.549,209.865c0.382,4.895,2.563,11.229,5.163,12.319c2.212,0.926,4.07-2.223,4.777-6.013
			c1.684,1.201,3.166,1.781,3.986,1.232c0.975-0.652,1.739-2.524,0.969-5.085c4.255,1.279,7.995,0.725,7.98-1.992
			c-0.016-2.649-4.457-6.721-8.626-9.043c-0.317-0.021-0.634-0.048-0.955-0.048C238.914,201.236,233.823,204.782,231.549,209.865z"
			/>
	</g>
	<path style="fill:#B52A04;" d="M241.409,204.782c-0.901-0.99-2.109-2.453-2.109-2.453c1.684,5.931,0.906,11.512,1.706,15.779
		v-0.001c0.004-0.014,0.8-3.171,0.794-7.822c1.482,0.945,3.037,1.645,4.653,2.076c-0.004-0.015-0.005-0.028-0.01-0.042
		c0.383,0.115,0.759,0.21,1.13,0.295c1.729,0.312,3.524,0.311,5.396-0.102C252.969,212.512,249.118,213.124,241.409,204.782z"/>
</g>
</svg>
