<?xml version="1.0" encoding="utf-8"?>
<!-- Generator: Adobe Illustrator 27.5.0, SVG Export Plug-In . SVG Version: 6.00 Build 0)  -->
<svg version="1.1" id="Capa_1" xmlns="http://www.w3.org/2000/svg" xmlns:xlink="http://www.w3.org/1999/xlink" x="0px" y="0px"
	 viewBox="0 0 2122 2122" style="enable-background:new 0 0 2122 2122;" xml:space="preserve">
<path style="fill:#E9E2D2;" d="M1434.893,410.674c0,0-2.227,4.416-6.079,7.928c-0.085,0.078-0.174,0.152-0.261,0.228
	c-0.401,0.354-0.814,0.692-1.246,1.018c-0.156,0.118-0.316,0.229-0.475,0.342c-0.385,0.272-0.78,0.526-1.188,0.766
	c-0.208,0.123-0.417,0.239-0.631,0.352c-0.385,0.204-0.781,0.383-1.185,0.551c-0.247,0.103-0.494,0.205-0.748,0.293
	c-0.397,0.138-0.806,0.242-1.219,0.339c-0.275,0.065-0.547,0.136-0.828,0.182c-0.429,0.068-0.87,0.088-1.313,0.107
	c-0.284,0.013-0.561,0.042-0.851,0.033c-0.494-0.017-1.005-0.1-1.517-0.186c-0.256-0.043-0.503-0.053-0.764-0.114
	c-0.779-0.183-1.575-0.44-2.392-0.803c-1.94-0.863-5.015-3.865-8.935-8.406c-3.28-3.8-7.159-8.696-11.449-14.301
	c-30.239,15.271-51.022,46.537-51.022,82.728c0,11.306,2.124,22.09,5.83,32.108c2.398-4.029,5.975-7.668,10.947-10.8
	c12.421-7.826,28.927-10.849,43.441-9.354c20.929,2.156,38.846,17.059,60.565,14.946c15.676-1.525,27.716-13.271,34.625-26.774
	c11.234-21.959,12.651-42.118,7.647-60.421c-17.004-19.818-42.181-32.419-70.342-32.419c-1.182,0-2.329,0.133-3.501,0.177
	C1434.936,398.792,1436.185,406.371,1434.893,410.674z"/>
<path style="fill:#CCC5B8;" d="M1498.197,481.861c-6.909,13.503-18.949,25.249-34.625,26.774
	c-21.719,2.113-39.636-12.79-60.565-14.946c-14.514-1.495-31.02,1.528-43.441,9.354c-4.972,3.132-8.549,6.771-10.947,10.8
	c-0.022,0.036-0.051,0.069-0.072,0.105c0.283,0.767,0.632,1.501,0.936,2.258c0.375,0.937,0.753,1.872,1.159,2.793
	c0.792,1.802,1.653,3.563,2.554,5.302c0.35,0.675,0.665,1.37,1.031,2.035c1.272,2.312,2.642,4.561,4.1,6.748
	c0.45,0.677,0.946,1.319,1.414,1.983c1.096,1.554,2.224,3.079,3.411,4.56c0.618,0.771,1.252,1.525,1.894,2.275
	c1.179,1.381,2.402,2.718,3.659,4.027c0.629,0.653,1.243,1.319,1.888,1.954c1.873,1.839,3.805,3.62,5.828,5.296
	c0.196,0.162,0.406,0.308,0.603,0.469c1.907,1.554,3.884,3.022,5.915,4.423c0.726,0.501,1.476,0.969,2.218,1.45
	c1.573,1.02,3.173,1.996,4.81,2.922c0.806,0.456,1.615,0.911,2.437,1.344c1.834,0.966,3.709,1.86,5.614,2.704
	c0.602,0.267,1.186,0.565,1.796,0.819c2.508,1.048,5.072,1.986,7.687,2.814c0.639,0.202,1.298,0.358,1.944,0.547
	c2.029,0.594,4.08,1.128,6.164,1.585c0.902,0.197,1.811,0.371,2.722,0.541c1.968,0.37,3.958,0.669,5.969,0.911
	c0.86,0.104,1.715,0.227,2.583,0.306c2.842,0.263,5.709,0.436,8.619,0.436c35.202,0,65.823-19.619,81.522-48.52
	c1.427-2.627,2.731-5.331,3.904-8.105c2.346-5.546,4.168-11.367,5.403-17.403c1.235-6.036,1.883-12.284,1.883-18.685
	c0-3.05-0.168-6.059-0.455-9.033c-0.101-1.032-0.287-2.036-0.422-3.057c-0.251-1.915-0.504-3.827-0.871-5.703
	c-0.239-1.227-0.554-2.425-0.842-3.634c-0.384-1.617-0.77-3.23-1.238-4.813c-0.382-1.296-0.822-2.567-1.259-3.839
	c-0.493-1.434-0.999-2.859-1.559-4.26c-0.529-1.319-1.094-2.617-1.68-3.905c-0.583-1.285-1.192-2.552-1.832-3.804
	c-0.672-1.315-1.365-2.617-2.096-3.895c-0.662-1.153-1.359-2.278-2.066-3.4c-0.814-1.29-1.633-2.576-2.508-3.822
	c-0.724-1.03-1.493-2.02-2.257-3.018c-0.953-1.248-1.899-2.504-2.914-3.7c-0.136-0.162-0.255-0.339-0.393-0.5
	c0.008,0.029,0.012,0.06,0.02,0.089C1510.848,439.743,1509.431,459.902,1498.197,481.861z"/>
<path style="fill:#CA241D;" d="M1064.082,255.854c17.733,3.637,35.159,8.617,52.671,13.158c18.211,4.723,36.098,9.366,51.543,20.593
	c5.256,3.82,13.73-1.267,13.236-7.595c-1.477-18.879-10.022-33.602-19.424-48.489c7.638,3.47,14.954,7.881,22.055,11.95
	c14.368,8.234,28.768,17.121,42.08,26.985c13.523,10.02,28.539,26.766,47.041,17.225c13.102-6.757,15.18-22.136,12.423-37.75
	c-3.79-5.512-7.035-10.07-8.85-12.592c-1.001-1.391-1.566-2.162-1.567-2.165h0c-0.957-1.307-0.673-3.141,0.633-4.097
	c1.307-0.956,3.141-0.673,4.097,0.634c0.007,0.008,1.283,1.758,3.293,4.576c33.386,18.192,61.607,44.288,85.722,73.932
	c24.238,29.796,51.679,66.274,61.14,105.046c-0.427,0.453-0.883,0.901-1.361,1.337c3.853-3.512,6.079-7.928,6.079-7.928
	c1.292-4.303,0.042-11.882-2.892-21.477c-14.939-48.855-74.414-150.995-74.414-150.995
	c-104.782-98.999-285.231-65.884-285.231-65.884C926.099,222.901,869.811,285.409,864.55,310.123
	c26.239-17.224,53.907-32.066,83.607-42.791C986.481,253.491,1023.781,247.588,1064.082,255.854z"/>
<path style="fill:#A51A1A;" d="M1263.407,372.04c4.659,3.993,9.641,12.703,14.104,22.772c0.118,0.266,0.234,0.533,0.351,0.801
	c0.504,1.151,1,2.314,1.488,3.493c0.066,0.16,0.133,0.316,0.199,0.476c0.546,1.327,1.079,2.667,1.601,4.014
	c0.1,0.259,0.198,0.517,0.296,0.776c0.441,1.15,0.873,2.301,1.294,3.453c0.091,0.251,0.185,0.501,0.275,0.752
	c0.469,1.296,0.925,2.59,1.366,3.877c1.754-1.823,3.215-3.818,4.341-5.987c0.929-1.789,1.66-3.679,2.217-5.647
	c1.114-3.935,1.531-8.18,1.446-12.534c-0.021-1.089-0.074-2.184-0.155-3.283c-0.243-3.298-0.741-6.628-1.412-9.909
	c-2.922-14.279-9.119-27.587-11.837-32.994c-1.18,0.611-2.647,0.412-3.551-0.64c-0.002-0.003-0.809-0.941-2.317-2.651
	c-1.509-1.71-3.71-4.181-6.472-7.216c-5.524-6.07-13.293-14.397-22.255-23.404c-17.899-18.008-40.667-38.761-59.443-49.507
	c-1.405-0.806-1.891-2.597-1.086-4.002c0.805-1.405,2.597-1.891,4.002-1.086c19.725,11.33,42.583,32.282,60.685,50.459
	c16.746,16.833,29.306,31.243,31.093,33.306l32.273-35.619c-1.098-0.995-1.223-2.61-0.41-3.802l-0.006-0.002l0.021-0.287
	c0.019-0.663-0.308-2.226-1.04-4.154c-0.722-1.943-1.807-4.307-3.147-6.914c-2.683-5.221-6.388-11.427-10.321-17.62
	c-3.79-5.968-7.78-11.911-11.302-17.032c2.757,15.613,0.679,30.992-12.423,37.75c-18.501,9.541-33.518-7.205-47.041-17.225
	c-13.311-9.864-27.711-18.751-42.08-26.985c-7.101-4.069-14.417-8.479-22.055-11.95c9.402,14.888,17.947,29.611,19.424,48.489
	c0.494,6.328-7.98,11.415-13.236,7.595c-15.445-11.227-33.333-15.87-51.543-20.593c-17.512-4.542-34.938-9.521-52.671-13.158
	c-40.3-8.265-77.6-2.362-115.925,11.478c-29.7,10.726-57.368,25.568-83.607,42.791v0l-0.196,0.862
	c-0.258,1.507-0.442,2.995-0.558,4.458c-0.116,1.464-0.166,2.904-0.156,4.318c0.018,2.827,0.271,5.548,0.692,8.134
	c0.459,2.819,1.125,5.461,1.893,7.926c11.803-6.65,23.656-10.693,23.656-10.693C1093.271,251.31,1248.92,359.622,1263.407,372.04z"
	/>
<path style="fill:#A51A1A;" d="M1414.196,421.712c0.818,0.363,1.613,0.62,2.392,0.803c0.261,0.061,0.508,0.071,0.764,0.114
	c0.512,0.085,1.023,0.169,1.517,0.186c0.29,0.009,0.567-0.021,0.851-0.033c0.442-0.019,0.885-0.039,1.313-0.107
	c0.281-0.045,0.553-0.117,0.828-0.182c0.412-0.097,0.824-0.201,1.219-0.339c0.254-0.088,0.501-0.19,0.748-0.293
	c0.403-0.169,0.802-0.347,1.185-0.551c0.214-0.113,0.422-0.229,0.631-0.352c0.407-0.24,0.804-0.495,1.188-0.766
	c0.159-0.113,0.319-0.224,0.475-0.342c0.431-0.326,0.847-0.666,1.246-1.018c0.087-0.077,0.176-0.151,0.261-0.228
	c0.477-0.436,0.934-0.884,1.361-1.337c-9.461-38.772-36.902-75.251-61.14-105.046c-24.115-29.645-52.336-55.74-85.722-73.932
	c2.811,3.942,7.101,10.043,11.743,16.97c7.97,11.916,16.799,25.91,20.535,35.205c1.059,2.698,1.765,4.969,1.791,7.189
	c-0.005,1.216-0.249,2.611-1.28,3.821c14.453,12.743,35.228,40.315,54.146,65.895c2.488,3.364,4.944,6.693,7.35,9.949
	c2.404,3.256,4.758,6.438,7.042,9.509c3.217,4.324,6.285,8.408,9.173,12.181c4.29,5.604,8.169,10.5,11.449,14.301
	C1409.181,417.848,1412.256,420.85,1414.196,421.712z"/>
<path style="fill:#CA241D;" d="M470.427,1010.189c9.737-5.056,32.487,2.107,53.87,11.12c7.877-3.367,16.659-6.932,25.689-10.61
	c-0.77-0.667-1.203-1.686-0.99-2.757c0.048-0.146,23.024-116.106,71.614-201.719c16.22-28.543,35.291-53.761,57.586-70.194
	c1.304-0.96,3.139-0.681,4.099,0.623c0.96,1.304,0.681,3.139-0.623,4.099c-39.948,29.331-70.662,90.196-91.614,146.55
	c-21.001,56.35-32.45,108.147-34.837,119.488c-0.318,1.513-0.474,2.294-0.474,2.296h0.001c-0.306,1.536-1.762,2.523-3.294,2.305
	c-1.007,6.934-1.875,14.006-2.647,21.171c0.008,0.004,0.016,0.008,0.024,0.012c1.493,0.735,2.923,1.448,4.305,2.143
	c0.18,0.091,0.357,0.179,0.535,0.269c4.3,2.168,7.993,4.095,10.845,5.611c0.06,0.032,0.118,0.062,0.177,0.094
	c1.889,1.005,3.388,1.815,4.424,2.382c0.058,0.032,0.093,0.051,0.149,0.081c0.452,0.248,0.805,0.442,1.053,0.579
	c0.048,0.026,0.065,0.036,0.105,0.058c0.219,0.121,0.368,0.204,0.368,0.204c3.514,1.593,5.704,5.53,6.808,11.193
	c0.85,4.359,1.043,9.76,0.715,15.883c0.409,0.017,0.851,0.024,1.249,0.045c12.286,0.674,24.218,3.167,33.308,8.913
	c20.598,12.995,11.612,40.475,8.524,53.005c5.403-0.156,11.172-0.47,17.362-0.975c43.78-3.569,177.495-15.933,284.512-23.082
	c0.016-5.599,0.072-10.618,0.159-15.016l-0.003,0.001c0.007-0.329,0.015-0.624,0.021-0.945c0.014-0.704,0.029-1.402,0.046-2.068
	c0.031-1.256,0.064-2.462,0.102-3.578c0.015-0.439,0.03-0.823,0.046-1.239c0.03-0.813,0.062-1.585,0.095-2.308
	c0.019-0.404,0.038-0.802,0.058-1.177c0.049-0.945,0.101-1.828,0.157-2.581c0.01-0.131,0.021-0.226,0.032-0.351
	c0.051-0.656,0.107-1.216,0.164-1.701c0.019-0.157,0.037-0.308,0.056-0.447c0.069-0.501,0.14-0.924,0.215-1.171
	c0.166-0.546,0.736-2.935,2.008-5.888c1.273-2.953,3.248-6.468,6.225-9.265c5.048-4.744,11.428-8.793,18.826-12.235
	c1.227-0.571,2.482-1.124,3.766-1.66c2.412-1.009,4.917-1.961,7.515-2.853c2.01-0.691,4.071-1.347,6.183-1.969
	c0.884-0.26,1.775-0.516,2.676-0.764c3.984-1.1,8.127-2.086,12.413-2.962c4.004-0.818,8.124-1.543,12.351-2.175
	c0.255-0.038,0.517-0.072,0.773-0.11c-82.813-79.616-196.706-135.093-228.72-251.484c-5.525-20.09-7.318-40.269-6.623-60.397
	c-2.491,2.347-4.386,0.341-4.429-11.096c-0.01-2.303,0.009-4.674,0.054-7.094c0.015-0.804,0.051-1.64,0.072-2.457
	c0.043-1.637,0.09-3.275,0.164-4.959c0.046-1.036,0.116-2.098,0.175-3.15c0.085-1.521,0.171-3.041,0.286-4.595
	c0.085-1.161,0.195-2.34,0.298-3.519c0.13-1.483,0.265-2.967,0.426-4.476c0.134-1.266,0.29-2.543,0.447-3.825
	c0.179-1.463,0.372-2.93,0.583-4.413c0.191-1.343,0.398-2.69,0.617-4.048c0.126-0.781,0.229-1.549,0.364-2.334
	c-3.471,2.334-7.219,4.936-11.204,7.814v0c0,0-468.267,138.47-511.041,309.563c-21.239,84.952,68.571,193.719,124.66,237.631
	C369.063,1160.804,433.352,1029.441,470.427,1010.189z"/>
<path style="fill:#311414;" d="M681.836,1763.498c5.523,32.836,18.896,116.89,12.247,123.541
	c-8.279,8.278-117.971,41.393-107.623,60.02c10.348,18.627,245.172-2.069,247.801-22.766c2.019-15.894,9.806-109.847,13.313-152.62
	C795.241,1779.326,717.302,1773.557,681.836,1763.498z"/>
<path style="fill:#311414;" d="M1216.036,1756.919c2.39,29.325,12.215,149.232,14.52,167.374
	c2.629,20.697,237.453,41.394,247.802,22.766c10.348-18.627-99.345-51.742-107.623-60.02c-7.509-7.509,10.521-113.769,13.94-133.463
	C1342.808,1760.885,1261.752,1762.182,1216.036,1756.919z"/>
<path style="fill:#AF1918;" d="M1101.564,1447.48c-139.832-4.223-278.761,29.421-409.606,76.265
	c-31.091,11.13-61.854,23.125-92.377,35.708c-0.378-2.475-0.728-4.992-1.051-7.552c4.714,37.764,15.999,65.274,25.743,101.265
	c11.767,43.463,17.859,84.856,41.393,103.483c3.055,2.417,8.686,4.726,16.169,6.849c35.466,10.059,113.405,15.828,165.738,8.174
	c21.705-3.174,39.019-8.645,47.024-17.093c31.379-33.115,21.572-76.578,49.029-126.25c27.456-49.672,55.053-103.483,55.053-103.483
	s71.769,2.07,94.649,4.139c0,0,32.988,66.229,50.382,101.414c17.395,35.185,14.709,105.553,42.821,120.041
	c5.345,2.754,15.854,4.906,29.503,6.478c45.716,5.264,126.772,3.967,168.638-3.343c11.381-1.987,19.929-4.408,24.003-7.275
	c23.534-16.558,48.984-72.715,62.091-142.807c5.533-29.59,9.109-51.13,12.343-68.754c-0.082,0.445-0.161,0.864-0.244,1.315
	C1361.356,1487.786,1232.572,1451.436,1101.564,1447.48z"/>
<path style="fill:#931917;" d="M1487.549,1449.078c-29.217-1.719-61.524-4.995-92.723-9.504c-6.686-0.966-13.982-1.786-21.752-2.488
	c-7.771-0.702-16.016-1.289-24.601-1.789c-5.722-0.334-11.598-0.629-17.583-0.896c-5.986-0.266-12.083-0.504-18.251-0.722
	c-24.671-0.872-50.479-1.426-74.868-2.248c-30.485-1.027-58.749-2.471-79.793-5.47c-8.418-1.2-15.681-2.649-21.469-4.421
	c-2.894-0.886-5.72-1.998-8.476-3.304c-2.755-1.307-5.441-2.809-8.052-4.473c-36.561-23.297-58.749-78.511-58.756-78.531
	c-0.003,0.013-3.248,17.163-11.675,36.454c-0.278,0.636-0.561,1.272-0.85,1.911c-1.261,2.79-2.621,5.613-4.104,8.427
	c-0.552,1.047-1.12,2.093-1.704,3.136c-2.337,4.169-4.932,8.278-7.805,12.182c-2.155,2.927-4.465,5.738-6.94,8.371
	c-1.65,1.755-3.373,3.431-5.171,5.009c-4.496,3.945-11.826,7.267-21.389,10.071c-1.913,0.56-3.916,1.1-6.002,1.62
	c-4.174,1.04-8.687,2-13.499,2.886c-4.812,0.887-9.925,1.7-15.3,2.447c-13.437,1.867-28.511,3.318-44.624,4.455
	c-6.445,0.455-13.057,0.86-19.796,1.221c-26.957,1.446-55.962,2.195-84.563,2.671c-7.151,0.119-14.276,0.221-21.338,0.313
	c-7.061,0.091-14.06,0.173-20.956,0.25c-10.345,0.116-20.461,0.223-30.218,0.344c-3.253,0.04-6.52,0.117-9.799,0.227
	c-6.559,0.221-13.167,0.578-19.797,1.05c-9.946,0.707-19.945,1.673-29.915,2.827c-6.645,0.769-13.279,1.622-19.874,2.538
	c-26.381,3.663-52.161,8.333-75.771,12.681c-0.751,0.139-1.481,0.273-2.229,0.411c0.235,1.204,0.471,2.434,0.706,3.689
	c0.462,2.459,0.924,5.013,1.382,7.651c0.686,3.957,1.358,8.102,1.999,12.395c0.427,2.863,0.839,5.791,1.23,8.775
	c0.586,4.475,1.124,9.072,1.594,13.753c0.784,7.802,1.378,15.836,1.684,23.92c0,0.007,0,0.013,0,0.019
	c0.116,3.038,0.278,5.999,0.476,8.898c0.133,1.947,0.301,3.834,0.469,5.724c0.075,0.847,0.135,1.719,0.218,2.556
	c0.24,2.462,0.511,4.877,0.806,7.253c0.021,0.177,0.04,0.359,0.062,0.535c0.323,2.561,0.673,5.077,1.051,7.552
	c30.522-12.583,61.286-24.578,92.377-35.708c130.845-46.844,269.774-80.488,409.606-76.265
	c131.008,3.956,259.791,40.306,381.303,88.574c0.083-0.45,0.162-0.87,0.244-1.315c0.31-1.694,0.62-3.379,0.926-5.004
	c0.226-1.203,0.451-2.352,0.676-3.521c0.161-0.832,0.322-1.692,0.482-2.508c0.254-1.291,0.508-2.535,0.762-3.789
	c0.132-0.649,0.262-1.319,0.394-1.958c0.123-0.595,0.248-1.162,0.373-1.75c0.472-2.247,0.954-4.445,1.443-6.601
	c0.854-3.76,1.743-7.412,2.691-11.002c0.341-1.289,0.691-2.575,1.048-3.854c0.281-1.007,0.555-2.016,0.849-3.021
	c0.736-2.522,1.47-5.627,2.187-9.206c0.955-4.772,1.876-10.389,2.716-16.594c0.21-1.551,0.414-3.14,0.614-4.76
	c0.451-3.667,0.867-7.515,1.249-11.471C1495.596,1449.523,1491.605,1449.317,1487.549,1449.078z"/>
<path style="fill:#E9E2D2;" d="M1566.131,1388.047c-31.66,16.747-167.093-11.594-262.07-14.17
	c-94.978-2.576-151.895-15.458-183.555-32.205c-13.815-7.308-26.86-30.447-37.178-54.209c-13.39,0.111-26.963,0.063-40.188-0.143
	c-11.317,23.812-25.641,47.029-40.81,54.352c-34.694,16.746-97.065,29.628-201.145,32.204
	c-104.08,2.577-252.49,30.917-287.184,14.17c-14.316-6.91-15.439-15.497-10.215-26.091c-11.442,7.286-25.057,18.198-30.261,31.354
	c-5.158,13.041-10.8,30.883-9.674,46.06c8.605,4.099,20.238,4.792,32.304,3.136c47.664-6.541,94.703-16.385,142.605-21.661
	c56.283-6.199,112.551-7.357,169.079-9.268c52.383-1.771,106.693-3.114,158.367-12.618c24.385-4.486,46.835-13.908,63.489-32.796
	c14.876-16.871,24.343-37.307,34.602-57.132c16.212,11.809,26.952,29.34,41.538,43.187c16.363,15.534,37.966,25.336,58.968,32.942
	c49.774,18.026,103.781,26.462,156.188,32.469c55.729,6.387,111.863,8.289,167.926,7.766c25.957-0.243,52.168,0.749,77.7-4.906
	c15.699-3.477,29.974-10.48,38.282-21.295c0.816,1.419,1.586,2.803,2.314,4.14c-6.29-11.567-16.002-26.865-27.891-34.382
	C1580.459,1376.155,1577.084,1382.253,1566.131,1388.047z"/>
<path style="fill:#D8D1C3;" d="M1566.616,1420.489c-25.532,5.656-51.743,4.664-77.7,4.906
	c-56.063,0.523-112.196-1.379-167.926-7.766c-52.407-6.006-106.414-14.443-156.188-32.469
	c-21.002-7.606-42.605-17.408-58.968-32.942c-14.585-13.847-25.325-31.378-41.538-43.187c-10.26,19.825-19.726,40.261-34.602,57.132
	c-16.654,18.888-39.103,28.31-63.489,32.796c-51.673,9.505-105.983,10.847-158.367,12.618
	c-56.529,1.911-112.796,3.068-169.079,9.268c-47.902,5.276-94.942,15.12-142.605,21.661c-12.066,1.656-23.699,0.963-32.304-3.136
	c-0.021-0.01-0.044-0.017-0.065-0.026c0.027,0.369,0.102,0.717,0.137,1.082c0.08,0.841,0.19,1.669,0.315,2.491
	c0.129,0.846,0.288,1.675,0.468,2.498c0.172,0.787,0.364,1.565,0.585,2.328c0.236,0.815,0.516,1.606,0.811,2.391
	c0.269,0.718,0.545,1.433,0.867,2.124c0.36,0.776,0.783,1.514,1.211,2.252c0.371,0.639,0.734,1.283,1.158,1.891
	c0.508,0.729,1.1,1.406,1.688,2.087c0.469,0.544,0.913,1.103,1.435,1.614c0.693,0.678,1.495,1.288,2.285,1.905
	c0.553,0.432,1.059,0.894,1.661,1.294c0.959,0.637,2.054,1.183,3.142,1.735c0.573,0.291,1.079,0.627,1.69,0.892
	c1.754,0.763,3.652,1.428,5.728,1.971c0.018,0.005,0.032,0.012,0.05,0.017c11.926,3.1,33.872,0.567,61.769-4.143
	c5.072-0.857,10.341-1.785,15.782-2.765c5.441-0.98,11.055-2.011,16.816-3.072c2.146-0.396,4.334-0.799,6.52-1.202
	c0.748-0.138,1.478-0.272,2.229-0.411c23.61-4.347,49.39-9.017,75.771-12.681c6.596-0.915,13.229-1.769,19.874-2.538
	c9.97-1.154,19.969-2.12,29.915-2.827c6.63-0.472,13.238-0.829,19.797-1.05c3.279-0.111,6.547-0.188,9.799-0.227
	c9.758-0.121,19.873-0.228,30.218-0.344c6.896-0.077,13.894-0.159,20.956-0.25c7.062-0.091,14.187-0.194,21.338-0.313
	c28.601-0.476,57.606-1.225,84.563-2.671c6.739-0.361,13.351-0.766,19.796-1.221c16.112-1.137,31.187-2.588,44.624-4.455
	c5.375-0.747,10.487-1.56,15.3-2.447c4.812-0.886,9.325-1.846,13.499-2.886c2.086-0.52,4.089-1.06,6.002-1.62
	c9.564-2.803,16.893-6.125,21.389-10.071c1.798-1.578,3.521-3.254,5.171-5.009c2.475-2.633,4.786-5.443,6.94-8.371
	c2.873-3.903,5.468-8.012,7.805-12.182c0.584-1.043,1.152-2.089,1.704-3.136c1.483-2.814,2.843-5.637,4.104-8.427
	c0.289-0.639,0.572-1.276,0.85-1.911c8.426-19.291,11.672-36.441,11.675-36.454v-0.001c0,0,22.189,55.231,58.756,78.532
	c2.611,1.664,5.297,3.166,8.052,4.473c2.756,1.307,5.582,2.419,8.476,3.304c5.788,1.772,13.051,3.22,21.469,4.421
	c21.044,3,49.308,4.444,79.793,5.47c24.388,0.822,50.197,1.376,74.868,2.248c6.168,0.218,12.266,0.456,18.251,0.722
	c5.985,0.267,11.861,0.562,17.583,0.896c8.586,0.5,16.83,1.087,24.601,1.789c7.77,0.703,15.066,1.522,21.752,2.488
	c31.199,4.509,63.506,7.784,92.723,9.504c4.056,0.239,8.046,0.445,11.971,0.623l0,0c4.155,0.188,8.236,0.344,12.22,0.462
	c7.744,0.229,15.14,0.324,22.087,0.277c11.586-0.079,21.823-0.579,30.464-1.483c2.855-0.299,5.504-0.648,7.972-1.042
	c1.26-0.201,2.59-0.386,3.741-0.612c3.396-0.667,6.485-1.453,9.392-2.3c1.134-0.33,2.237-0.67,3.297-1.024
	c2.533-0.847,4.883-1.751,7.015-2.719c0.209-0.095,0.448-0.181,0.654-0.277c8.131-3.804,13.28-8.423,15.855-13.179
	c2.575-4.755,2.575-9.646,0.407-13.994c-0.423-0.847-0.902-1.808-1.428-2.851c-0.033-0.064-0.066-0.13-0.099-0.196
	c-0.495-0.98-1.036-2.042-1.616-3.16c-0.073-0.142-0.146-0.281-0.222-0.425c-0.582-1.118-1.206-2.293-1.866-3.512
	c-0.061-0.113-0.119-0.221-0.18-0.334c-0.728-1.337-1.498-2.72-2.314-4.14C1596.591,1410.009,1582.316,1417.012,1566.616,1420.489z"
	/>
<path style="fill:#CA241D;" d="M514,1388.047c34.694,16.746,183.104-11.594,287.184-14.17
	c104.08-2.576,166.451-15.458,201.145-32.204c15.17-7.323,29.493-30.54,40.81-54.352c-53.087-0.828-100.41-4.208-106.347-10.145
	c-0.216-0.215-0.419-0.588-0.629-0.883c-28.417,0.881-56.833,1.873-85.253,2.809c-82.979,2.734-165.272,8.696-247.125,23.064
	c-21.88,3.842-43.695,8.058-65.489,12.385c0,0,0,0,0-0.001c-12.829,19.092-28.243,34.695-34.512,47.406
	C498.562,1372.55,499.684,1381.137,514,1388.047z"/>
<path style="fill:#CA241D;" d="M1492.582,1314.558c-40.832-7.136-81.875-11.955-122.961-17.333
	c-57.027-7.464-113.66-14.197-170.662-18.456c-13.106,5.36-62.859,8.259-115.632,8.695c10.318,23.762,23.363,46.901,37.178,54.209
	c31.66,16.746,88.577,29.628,183.555,32.205c94.978,2.576,230.41,30.917,262.07,14.17c10.953-5.794,14.328-11.892,13.192-19.095
	c-1.836-11.643-15.469-26.179-28.012-47.005c0.004,0.006,0.007,0.013,0.011,0.019
	C1531.932,1318.591,1511.825,1317.921,1492.582,1314.558z"/>
<path style="fill:#A51A1A;" d="M603.786,1302.167c81.853-14.368,164.146-20.33,247.125-23.064
	c28.42-0.936,56.836-1.929,85.253-2.809c-2.185-3.072-4.044-10.314-5.609-20.39c-9.776,0.141-19.454,0.3-28.961,0.488
	c-11.51,0.227-22.817,0.487-33.909,0.775c-165.291,4.291-282.678,14.834-311.38,17.423c-0.43,1.771-0.886,3.547-1.402,5.334
	c-1.14,3.938-2.5,7.905-4.119,11.852c-1.079,2.632-2.271,5.255-3.59,7.857c-0.659,1.301-1.35,2.596-2.072,3.884
	c-2.133,3.802-4.434,7.477-6.824,11.033c0,0.001,0,0.001,0,0.001C560.091,1310.224,581.906,1306.008,603.786,1302.167z"/>
<path style="fill:#A51A1A;" d="M1535.987,1285.063c-66.357-8.073-132.473-14.171-197.242-18.672
	c-21.728-1.51-43.304-2.84-64.688-4.006c-21.383-1.166-42.573-2.167-63.529-3.017c-1.099-0.044-2.186-0.082-3.283-0.126
	c-1.54,9.318-3.366,15.767-5.533,17.934c-0.554,0.554-1.506,1.083-2.751,1.593c57.002,4.259,113.636,10.992,170.662,18.456
	c41.086,5.378,82.129,10.197,122.961,17.333c19.243,3.363,39.349,4.034,58.739,7.409c-0.004-0.006-0.007-0.014-0.011-0.019
	c-0.943-1.564-1.874-3.176-2.799-4.811c-0.226-0.399-0.448-0.8-0.672-1.203c-0.903-1.626-1.797-3.277-2.669-4.977
	c-0.026-0.05-0.054-0.097-0.079-0.148C1540.899,1302.62,1537.986,1293.854,1535.987,1285.063z"/>
<path style="fill:#4F1C1C;" d="M923.272,1108.976c-107.017,7.149-240.732,19.513-284.512,23.082
	c-6.19,0.505-11.959,0.819-17.362,0.975c-0.269,1.097-0.51,2.121-0.666,2.968c0,0,17.269,18.149-0.323,47.058
	c0,0,16.449,40.814-17.886,52.249c0,0,2.507,9.431-2.067,18.936c116.791-12.738,226.513-19.716,327.258-22.748
	C924.376,1194.008,923.171,1142.281,923.272,1108.976z"/>
<path style="fill:#4F1C1C;" d="M1210.354,1232.785c146.252,5.875,255.661,18.647,316.372,27.259
	c-12.057-11.29-7.931-26.842-7.931-26.842c-34.334-11.435-17.886-52.249-17.886-52.249c-10.937-17.974-8.397-31.779-4.912-39.658
	c-0.137-0.011-0.259-0.015-0.395-0.026c-42.371-3.455-172.494-18.495-280.404-28.384
	C1214.719,1146.541,1213.491,1196.61,1210.354,1232.785z"/>
<path style="fill:#A51A1A;" d="M1317.612,850.134c0,0-8.279,5.519-2.07-27.596c0,0-25.526,66.92-119.112,111.073
	c0,0-11.277,0.689-4.379-13.108c0,0-78.041,38.386-97.274,51.742c-24.836,17.247-28.286,27.595-32.425,37.944
	c-4.139-10.349-7.589-20.697-32.425-37.944c-19.232-13.356-97.274-51.742-97.274-51.742c6.899,13.798-4.379,13.108-4.379,13.108
	c-93.586-44.153-119.112-111.073-119.112-111.073c6.21,33.115-2.069,27.596-2.069,27.596
	c-42.083-52.432-33.115-151.776-33.115-151.776s-7.25,21.642-12.166,26.274c-0.695,20.127,1.098,40.306,6.623,60.397
	c32.014,116.391,145.906,171.868,228.72,251.484c2.871-0.42,5.781-0.804,8.737-1.142c0.4-0.045,0.798-0.092,1.199-0.136
	c5.284-0.584,10.69-1.042,16.189-1.379c2.07-0.127,4.149-0.24,6.243-0.333c1.959-0.088,3.928-0.161,5.905-0.22
	c3.936-0.117,7.905-0.178,11.894-0.186c0.017,0,0.034,0,0.051,0c18.027-0.032,36.46,1.028,54.203,2.942
	c3.943,0.425,7.851,0.893,11.714,1.4c3.863,0.507,7.68,1.053,11.438,1.636c2.157,0.335,4.289,0.686,6.405,1.044
	c2.774,0.47,5.505,0.962,8.2,1.471c10.547-11.115,22.074-21.404,34.176-30.966c16.299-12.877,33.733-24.108,51.045-35.504
	c81.954-63.634,134.473-157.303,132.949-259.477c-3.585-7.771-6.779-17.305-6.779-17.305S1359.696,797.703,1317.612,850.134z"/>
<path style="fill:#F8B989;" d="M1249.313,474.834c0,0,5.675,5.028,12.026,11.111c0.221-1.756,0.475-3.49,0.781-5.182
	C1255.882,478.839,1249.313,474.834,1249.313,474.834z"/>
<path style="fill:#F8B989;" d="M1255.522,502.43c0,0,2.046,2.465,5.541,6.612c-0.184-1.587-0.337-3.194-0.425-4.862
	C1257.624,503.229,1255.522,502.43,1255.522,502.43z"/>
<path style="fill:#F8B989;" d="M1270.594,450.046c-1.189,0.141-2.39,0.274-3.606,0.39c-6.466,0.615-13.178,0.837-18.736,0.376
	c-0.001,0.001-0.002,0.002-0.003,0.003c4.473,9.1,8.684,16.151,12.102,18.5c1.394,0.958,2.674,1.86,3.839,2.709
	c0.816-2.677,1.761-5.132,2.833-7.266c1.451-2.823,3.119-5.169,5.42-6.709c1.309-0.871,2.889-1.434,4.554-1.429l1.048,0.071
	c3.906,0.539,7.228,2.611,10.025,5.159c2.803,2.564,5.144,5.673,7.072,8.684c3.841,6.02,6.014,11.685,6.06,11.793l0,0
	c0.581,1.511-0.173,3.208-1.684,3.79c-0.519,0.199-1.047,0.193-1.556,0.101c1.419,5.757,1.866,12.515,0.503,20.466
	c-3.498,20.41-12.056,24.468-19.264,23.579c3.411,3.936,7.048,8.099,10.817,12.37c34.225-22.991,28.998-82.957,0.798-97.221
	c-2.064,1.314-7.632,2.746-14.484,3.839C1274.5,449.546,1272.568,449.811,1270.594,450.046z"/>
<path style="fill:#EB9A63;" d="M1298.468,506.685c1.363-7.951,0.916-14.709-0.503-20.466c-0.976-0.175-1.852-0.792-2.234-1.785
	l-0.195-0.484c-0.136-0.331-0.342-0.819-0.614-1.429c-0.543-1.22-1.349-2.927-2.377-4.834c-2.049-3.815-5.04-8.43-8.426-11.506
	c-2.258-2.067-4.614-3.385-6.858-3.678l-0.262-0.018c-0.387,0.005-0.771,0.102-1.328,0.461c-0.547,0.357-1.213,0.997-1.891,1.93
	c-1.369,1.86-2.739,4.839-3.857,8.447c-0.263,0.839-0.467,1.811-0.703,2.713c3.66,3.336,3.875,5.251-0.59,5.698
	c-0.214,0.021-0.448,0.012-0.672,0.018c-0.553,3.041-0.986,6.206-1.251,9.448c7.847,7.883,14.622,15.72,10.892,16.059
	c-3.025,0.275-7.141-0.44-11.004-1.395c0.409,5.108,1.316,9.639,2.67,12.842c2.989,3.503,6.317,7.378,9.94,11.559
	C1286.412,531.153,1294.969,527.095,1298.468,506.685z"/>
<path style="fill:#9F633B;" d="M1273.78,464.875c0.678-0.933,1.344-1.573,1.891-1.93c0.556-0.359,0.941-0.456,1.328-0.461
	l0.262,0.018c2.244,0.293,4.6,1.612,6.858,3.678c3.386,3.076,6.377,7.691,8.426,11.506c1.028,1.907,1.834,3.614,2.377,4.834
	c0.271,0.61,0.477,1.098,0.614,1.429l0.195,0.484c0.382,0.992,1.258,1.609,2.234,1.785c0.509,0.092,1.037,0.099,1.556-0.101
	c1.511-0.582,2.265-2.279,1.684-3.79l0,0c-0.045-0.108-2.219-5.773-6.06-11.793c-1.928-3.011-4.269-6.12-7.072-8.684
	c-2.798-2.548-6.12-4.62-10.025-5.159l-1.048-0.071c-1.666-0.005-3.245,0.558-4.554,1.429c-2.301,1.541-3.969,3.886-5.42,6.709
	c-1.073,2.133-2.017,4.589-2.833,7.266c2.091,1.522,3.747,2.844,5.029,4.012c0.236-0.902,0.441-1.874,0.703-2.713
	C1271.041,469.714,1272.411,466.736,1273.78,464.875z"/>
<path style="fill:#9F633B;" d="M1260.639,504.181c0.088,1.668,0.241,3.275,0.425,4.862c2.194,2.602,5.005,5.919,8.2,9.663
	c-1.354-3.203-2.261-7.734-2.67-12.842C1264.452,505.333,1262.39,504.734,1260.639,504.181z"/>
<path style="fill:#9F633B;" d="M1262.12,480.763c-0.306,1.692-0.56,3.426-0.781,5.182c1.778,1.703,3.591,3.47,5.367,5.254
	c0.265-3.242,0.698-6.407,1.251-9.448C1266.213,481.797,1264.191,481.402,1262.12,480.763z"/>
<path style="fill:#F8B989;" d="M823.238,506.685c-1.363-7.951-0.916-14.709,0.503-20.465c-0.51,0.091-1.038,0.098-1.557-0.101
	c-1.512-0.582-2.266-2.279-1.684-3.79c0.032-0.079,1.268-3.289,3.498-7.426c2.242-4.137,5.437-9.204,9.633-13.052
	c2.798-2.548,6.12-4.62,10.025-5.159l1.048-0.071c1.665-0.005,3.245,0.558,4.554,1.429c1.319,0.872,2.42,2.03,3.401,3.37
	c1.95,2.686,3.464,6.157,4.718,10.159c0.231,0.742,0.402,1.583,0.612,2.36c1.749-1.37,3.852-2.895,6.364-4.623
	c3.194-2.196,7.083-8.506,11.229-16.748c-0.061-0.053-0.132-0.11-0.194-0.164c-0.182,0.217-0.455,0.383-0.811,0.505
	c-0.714,0.243-1.756,0.304-3.037,0.218c-2.562-0.173-6.079-0.935-9.839-2.007c-1.879-0.535-3.82-1.148-5.732-1.802
	c-1.911-0.655-3.795-1.351-5.56-2.054c-4.38-1.744-8.027-3.528-9.597-4.818c-1.186,0.186-2.369,0.363-3.605,0.654
	c-34.155,8.037-42.485,77.253-3.632,100.785c4.458-5.04,8.737-9.939,12.703-14.521C838.597,532.128,827.377,530.834,823.238,506.685
	z"/>
<path style="fill:#F8B989;" d="M875.393,474.834c0,0-8.837,5.389-15.744,6.66c0.403,2.323,0.726,4.687,0.971,7.109
	C867.99,481.391,875.393,474.834,875.393,474.834z"/>
<path style="fill:#EB9A63;" d="M846.033,462.945c-0.557-0.359-0.941-0.456-1.327-0.461l-0.261,0.018
	c-2.106,0.277-4.302,1.447-6.435,3.302c-2.126,1.842-4.131,4.319-5.838,6.866c-3.428,5.098-5.673,10.45-6.115,11.556l-0.082,0.208
	h0.001c-0.382,0.993-1.258,1.609-2.234,1.785c-1.419,5.757-1.866,12.514-0.503,20.465c4.139,24.149,15.358,25.443,23.041,22.679
	c2.177-2.516,4.246-4.918,6.201-7.198c-0.559-0.821-0.731-1.88-0.288-2.848c1.431-3.084,2.392-7.627,2.853-12.77
	c-2.879,0.572-5.708,0.913-7.939,0.71c-3.278-0.298,1.562-6.391,8.106-13.212c-0.237-4.419-0.769-8.853-1.547-12.96
	c-0.963-0.513-1.096-1.307-0.497-2.371c-0.982-4.462-2.238-8.426-3.718-11.302C848.291,465.102,846.997,463.555,846.033,462.945z"/>
<path style="fill:#9F633B;" d="M852.66,461.418c-0.98-1.34-2.081-2.497-3.401-3.37c-1.309-0.871-2.889-1.434-4.554-1.429
	l-1.048,0.071c-3.905,0.539-7.227,2.611-10.025,5.159c-4.197,3.848-7.391,8.915-9.633,13.052c-2.23,4.136-3.466,7.346-3.498,7.426
	c-0.582,1.511,0.172,3.208,1.684,3.79c0.519,0.199,1.047,0.193,1.557,0.101c0.975-0.176,1.851-0.792,2.234-1.785h-0.001l0.082-0.208
	c0.442-1.106,2.687-6.458,6.115-11.556c1.707-2.548,3.712-5.024,5.838-6.866c2.132-1.855,4.329-3.024,6.435-3.302l0.261-0.018
	c0.386,0.005,0.77,0.102,1.327,0.461c0.964,0.61,2.259,2.157,3.417,4.469c1.48,2.876,2.736,6.84,3.718,11.302
	c0.691-1.23,2.312-2.812,4.821-4.778c-0.211-0.777-0.381-1.618-0.612-2.36C856.124,467.576,854.61,464.105,852.66,461.418z"/>
<path style="fill:#9F633B;" d="M852.481,522.166c2.779-3.242,5.299-6.2,7.499-8.794c0.499-2.617,0.87-5.366,1.053-8.281
	c-1.895,0.537-3.953,1.054-5.987,1.457c-0.461,5.143-1.421,9.686-2.853,12.77C851.75,520.287,851.922,521.346,852.481,522.166z"/>
<path style="fill:#9F633B;" d="M860.62,488.604c-0.245-2.423-0.568-4.786-0.971-7.109c-1.278,0.236-2.496,0.346-3.573,0.239
	c-1.125-0.112-1.853-0.351-2.41-0.646c0.778,4.106,1.31,8.541,1.547,12.96C856.938,492.249,858.774,490.411,860.62,488.604z"/>
<path style="fill:#E9E2D2;" d="M1315.542,570.729c-8.448-8.96-17.29-18.769-25.521-28.094c-3.769-4.271-7.406-8.434-10.817-12.37
	c-3.623-4.181-6.95-8.056-9.94-11.559c-3.196-3.744-6.007-7.06-8.2-9.663c-3.496-4.148-5.541-6.612-5.541-6.612
	s2.101,0.799,5.116,1.751c1.752,0.553,3.814,1.153,5.955,1.683c3.863,0.955,7.979,1.671,11.004,1.395
	c3.73-0.339-3.045-8.176-10.892-16.059c-1.777-1.784-3.589-3.552-5.367-5.254c-6.351-6.083-12.026-11.111-12.026-11.111
	s6.569,4.005,12.807,5.929c2.071,0.639,4.093,1.034,5.838,0.988c0.225-0.006,0.458,0.003,0.672-0.018
	c4.465-0.447,4.25-2.361,0.59-5.698c-1.282-1.168-2.938-2.491-5.029-4.012c-1.165-0.849-2.446-1.751-3.839-2.709
	c-3.418-2.35-7.63-9.401-12.102-18.5c-0.001-0.001-0.001-0.003-0.002-0.003c-12.228-1.015-28.414-5.397-46.96-11.417
	c0.013,0.004,0.027,0.009,0.04,0.013c2.069,8.724,4.36,17.352,6.852,25.219c1.858,5.867,3.823,11.325,5.891,16.071
	c14.426,33.111,44.343,82.712,37.783,123.805c8.822-7.788,14.51-17.46,15.633-23.426c1.574-8.364,15.981,1.877,21.318,24.002
	c0.007-0.05,0.02-0.1,0.026-0.15c0.089,0.367,0.137,0.783,0.22,1.157c0.284,1.267,0.524,2.579,0.745,3.92
	c0.144,0.875,0.289,1.741,0.403,2.647c0.178,1.413,0.287,2.883,0.385,4.369c0.061,0.918,0.143,1.813,0.171,2.758
	c0.049,1.657-0.002,3.383-0.063,5.12c-0.03,0.849-0.014,1.663-0.072,2.531c-0.177,2.637-0.465,5.346-0.925,8.149
	c-3.829,23.353-12.029,39.039-24.274,50.279c-0.437,1.697-0.945,3.432-1.618,5.255c-22.033,59.676-79.548,65.522-121.013,58.173
	c-17.114-3.033-33.723-8.612-50.403-12.912c-4.833,9.714-14.305,18.443-32.825,18.443c-20.111,0-29.547-9.836-33.971-20.244
	c-41.781,11.634-83.233,32.044-126.269,11.338c-19.878-9.565-36.245-25.905-47.045-45.03c-4.637-8.213-8.836-17.865-11.846-27.965
	c-6.303-9.698-10.785-21.819-13.329-37.337c-0.388-2.366-0.635-4.654-0.82-6.903c-0.037-0.451-0.079-0.901-0.108-1.346
	c-0.142-2.148-0.203-4.243-0.178-6.275c0.005-0.37,0.024-0.727,0.034-1.094c0.05-1.895,0.161-3.742,0.341-5.528
	c0.022-0.227,0.034-0.464,0.06-0.69c0.209-1.897,0.498-3.714,0.834-5.48c0.075-0.392,0.151-0.778,0.232-1.163
	c0.357-1.714,0.755-3.376,1.213-4.954c0.069-0.239,0.147-0.46,0.219-0.695c0.427-1.412,0.891-2.762,1.385-4.058
	c0.117-0.307,0.227-0.621,0.347-0.921c0.541-1.354,1.115-2.632,1.711-3.848c0.167-0.34,0.336-0.662,0.505-0.991
	c0.568-1.096,1.147-2.143,1.744-3.113c0.139-0.226,0.278-0.442,0.418-0.662c0.574-0.896,1.156-1.723,1.743-2.501
	c0.216-0.287,0.429-0.574,0.646-0.845c0.571-0.713,1.142-1.387,1.709-1.984c-0.001,0.008-0.001,0.018-0.002,0.026
	c4.829-5.082,9.333-5.937,10.172-1.477c1.142,6.07,7.001,15.978,16.088,23.833c-6.828-41.174,23.219-90.99,37.695-124.212
	c8.067-18.515,14.615-47.625,19.012-71.06c0.217-1.156,0.427-2.295,0.633-3.422c0.028-0.155,0.058-0.313,0.087-0.468
	c0.073-0.402,0.141-0.788,0.213-1.186c-2.38,1.256-4.692,2.534-6.849,3.853c-6.326,3.866-11.753,7.946-16.388,11.998
	c-8.112,7.092-13.797,14.101-17.626,19.743c-0.977,1.44-1.816,2.773-2.56,4.013c-1.361,2.952-2.706,5.771-4.028,8.398
	c-4.146,8.242-8.035,14.552-11.229,16.748c-2.513,1.728-4.615,3.252-6.364,4.623c-2.509,1.966-4.13,3.548-4.821,4.778
	c-0.599,1.064-0.466,1.858,0.497,2.371c0.557,0.295,1.285,0.534,2.41,0.646c1.077,0.107,2.295-0.004,3.573-0.239
	c6.907-1.272,15.744-6.66,15.744-6.66s-7.403,6.557-14.773,13.77c-1.846,1.807-3.682,3.645-5.407,5.443
	c-6.545,6.821-11.384,12.914-8.106,13.212c2.231,0.203,5.06-0.138,7.939-0.71c2.034-0.404,4.091-0.92,5.987-1.457
	c2.391-0.678,4.501-1.372,5.983-1.884c1.339-0.462,2.168-0.777,2.168-0.777s-1.987,2.393-5.384,6.425
	c-1.116,1.324-2.419,2.865-3.82,4.518c-2.2,2.594-4.72,5.552-7.499,8.794c-1.955,2.28-4.024,4.682-6.201,7.198
	c-3.965,4.581-8.244,9.48-12.703,14.521c-7.916,8.95-16.341,18.281-24.414,26.844c-4.108,4.358-7.794,8.793-11.289,13.256
	c-5.869,33.599-9.189,67.266-1.863,101.434c7.853,36.62,27.16,70.259,56.605,93.668c32.79,26.067,71.636,41.668,110.122,57.221
	c19.937,8.057,40.633,15.597,58.952,27.021c17.956,11.195,31.75,26.702,44.107,43.677c3.759,5.165,11.63,6.158,15.19,0
	c5.555-9.608,10.634-19.664,18.597-27.556c8.121-8.049,18.812-13.883,28.993-18.934c19.393-9.622,40.199-16.025,59.637-25.551
	c37.544-18.4,72.063-45.213,98.613-77.54c34.828-42.405,55.855-92.791,58.515-144.638
	C1337.998,598.535,1328.367,584.33,1315.542,570.729z"/>
<path style="fill:#D8D1C3;" d="M759.889,675.048c-0.211,1.483-0.404,2.95-0.583,4.413c-0.157,1.281-0.313,2.561-0.447,3.825
	c-0.161,1.509-0.296,2.993-0.426,4.476c-0.104,1.177-0.213,2.359-0.298,3.519c-0.115,1.554-0.201,3.074-0.286,4.595
	c-0.059,1.051-0.128,2.115-0.175,3.15c-0.074,1.684-0.121,3.322-0.164,4.959c-0.021,0.815-0.057,1.653-0.072,2.457
	c-0.045,2.42-0.063,4.791-0.054,7.094c0.043,11.437,1.938,13.443,4.429,11.096c4.916-4.631,12.166-26.274,12.166-26.274
	s-8.968,99.344,33.115,151.776c0,0,8.279,5.519,2.069-27.596c0,0,25.526,66.92,119.112,111.073c0,0,11.278,0.689,4.379-13.108
	c0,0,78.041,38.386,97.274,51.742c24.836,17.247,28.286,27.595,32.425,37.944c4.139-10.349,7.589-20.697,32.425-37.944
	c19.233-13.356,97.274-51.742,97.274-51.742c-6.898,13.798,4.379,13.108,4.379,13.108
	c93.586-44.153,119.112-111.073,119.112-111.073c-6.21,33.115,2.07,27.596,2.07,27.596c42.084-52.432,33.114-151.776,33.114-151.776
	s3.194,9.534,6.779,17.305c4.557,9.877,9.745,16.904,9.818-2.127c0.008-2.134-0.013-4.339-0.05-6.575
	c-0.011-0.643-0.028-1.296-0.043-1.947c-0.041-1.796-0.102-3.62-0.181-5.473c-0.024-0.581-0.043-1.154-0.072-1.741
	c-0.114-2.364-0.262-4.768-0.448-7.214c-0.04-0.521-0.092-1.055-0.136-1.58c-0.165-1.989-0.357-4.001-0.575-6.038
	c-0.08-0.744-0.162-1.49-0.251-2.241c-0.271-2.308-0.574-4.639-0.923-7.001c-0.043-0.284-0.074-0.562-0.118-0.847
	c-0.183-1.203-0.401-2.425-0.607-3.64c-0.238-1.403-0.483-2.807-0.751-4.224c-0.144-0.758-0.302-1.522-0.456-2.283
	c-0.414-2.059-0.866-4.13-1.352-6.215c-0.173-0.743-0.338-1.484-0.52-2.23c-0.663-2.701-1.38-5.419-2.175-8.154
	c-0.154-0.531-0.333-1.065-0.491-1.597c-0.68-2.265-1.409-4.537-2.186-6.818c-0.29-0.848-0.586-1.697-0.889-2.547
	c-0.832-2.331-1.718-4.667-2.661-7.009c-0.204-0.507-0.389-1.012-0.598-1.52c-1.145-2.77-2.387-5.544-3.7-8.32
	c-0.371-0.786-0.77-1.571-1.156-2.358c-0.543-1.109-1.057-2.218-1.629-3.326c-0.003,0.048-0.009,0.097-0.011,0.146
	c-2.66,51.847-23.687,102.232-58.515,144.638c-26.551,32.327-61.069,59.14-98.613,77.54c-19.439,9.526-40.245,15.929-59.637,25.551
	c-10.181,5.051-20.872,10.885-28.993,18.934c-7.963,7.892-13.041,17.948-18.597,27.556c-3.56,6.158-11.431,5.165-15.19,0
	c-12.356-16.975-26.15-32.482-44.107-43.677c-18.319-11.423-39.016-18.963-58.952-27.021
	c-38.486-15.552-77.332-31.154-110.122-57.221c-29.445-23.409-48.751-57.047-56.605-93.668
	c-7.326-34.168-4.006-67.835,1.863-101.434c0.01-0.055,0.018-0.11,0.027-0.164c-0.687,0.875-1.289,1.762-1.953,2.641
	c-1.118,1.479-2.231,2.957-3.287,4.443c-1.063,1.497-2.067,2.999-3.069,4.503c-0.996,1.496-2.005,2.99-2.941,4.491
	c-0.945,1.513-1.818,3.03-2.704,4.547c-0.875,1.496-1.776,2.99-2.595,4.489c-0.851,1.557-1.618,3.115-2.412,4.673
	c-0.744,1.462-1.53,2.923-2.225,4.385c-0.9,1.892-1.702,3.783-2.523,5.673c-1.045,2.405-2.026,4.804-2.948,7.202
	c-0.626,1.625-1.279,3.253-1.851,4.872c-0.521,1.474-0.973,2.937-1.451,4.405c-0.498,1.527-1.012,3.055-1.467,4.574
	c-0.442,1.479-0.832,2.946-1.234,4.417c-0.409,1.493-0.822,2.985-1.191,4.467c-0.363,1.456-0.689,2.9-1.015,4.344
	c-0.334,1.483-0.665,2.961-0.963,4.429c-0.286,1.411-0.549,2.813-0.804,4.21c-0.126,0.691-0.28,1.393-0.398,2.08
	c-0.135,0.786-0.238,1.554-0.364,2.334C760.286,672.357,760.079,673.707,759.889,675.048z"/>
<path style="fill:#CCC5B8;" d="M1246.92,705.947c-7.933,9.659-87.616,21.387-125.56,11.039c0,0,21.386,9.658,13.798,10.348
	c-4.496,0.409-19.906-0.7-38.014-9.505c-0.36,5.072-1.511,12.018-4.758,18.547c16.68,4.301,33.288,9.879,50.403,12.912
	c41.465,7.349,98.979,1.503,121.013-58.173c0.673-1.823,1.181-3.558,1.618-5.255c-9.821,9.014-22.234,15.175-37.126,20.087
	C1228.293,705.947,1250.451,701.649,1246.92,705.947z"/>
<path style="fill:#CCC5B8;" d="M981.636,727.334c-7.588-0.69,13.798-10.348,13.798-10.348
	c-37.944,10.348-117.626-1.38-125.56-11.039c-3.53-4.297,18.628,0,18.628,0c-21.121-6.968-37.279-16.428-48.071-33.029
	c3.01,10.1,7.209,19.752,11.846,27.965c10.799,19.125,27.166,35.465,47.045,45.03c43.036,20.707,84.488,0.297,126.269-11.338
	c-2.754-6.477-3.594-13.122-3.748-17.817C1002.789,726.581,986.312,727.759,981.636,727.334z"/>
<path style="fill:#F8B989;" d="M1082.97,709.545c0.411,6.236-0.238,13.111-3.549,18.596c-0.06,0.099-0.118,0.196-0.179,0.294
	c-0.953,1.518-2.111,2.924-3.521,4.171c-0.109,0.096-0.229,0.185-0.34,0.278c-0.592,0.499-1.228,0.969-1.905,1.412
	c-0.188,0.123-0.375,0.246-0.569,0.365c-0.795,0.482-1.634,0.933-2.547,1.332c-0.041,0.017-0.075,0.039-0.116,0.056
	c-0.949,0.408-1.981,0.756-3.065,1.065c-0.284,0.081-0.588,0.148-0.882,0.221c-0.848,0.213-1.736,0.393-2.665,0.542
	c-0.352,0.056-0.699,0.116-1.062,0.164c-1.264,0.163-2.576,0.288-3.99,0.331c-1.61,0.049-3.081-0.039-4.489-0.188
	c-0.321-0.034-0.64-0.067-0.95-0.111c-1.345-0.187-2.618-0.441-3.78-0.799c-0.117-0.036-0.219-0.085-0.335-0.123
	c-1.082-0.353-2.075-0.787-3.005-1.276c-0.189-0.099-0.383-0.193-0.565-0.297c-0.975-0.558-1.874-1.181-2.687-1.878
	c-0.085-0.073-0.16-0.154-0.244-0.229c-0.775-0.692-1.476-1.444-2.108-2.251c-0.06-0.076-0.126-0.147-0.185-0.224
	c-0.671-0.883-1.26-1.826-1.779-2.819c-0.03-0.057-0.056-0.116-0.085-0.173c-1.054-2.065-1.803-4.334-2.304-6.728
	c0-0.001,0-0.001-0.001-0.002l0,0c-0.852-4.073-1.005-8.479-0.752-12.786c-4.556,3.274-9.078,6.006-13.471,8.271
	c0.154,4.696,0.994,11.34,3.748,17.817c4.424,10.407,13.859,20.244,33.971,20.244c18.521,0,27.992-8.729,32.825-18.443
	c3.248-6.529,4.399-13.474,4.758-18.547C1092.544,715.592,1087.788,712.888,1082.97,709.545z"/>
<path style="fill:#6B2F3B;" d="M1036.064,721.273c10.766-9.462,34.646-10.047,44.583,4.54c-0.358,0.801-0.772,1.575-1.226,2.328
	c3.312-5.484,3.96-12.36,3.549-18.596c-8.233-5.711-16.584-13.157-24.391-22.915h-0.367c-7.335,9.17-15.154,16.287-22.901,21.857
	C1035.06,712.793,1035.213,717.2,1036.064,721.273z"/>
<path style="fill:#9B374E;" d="M1036.064,721.273L1036.064,721.273c0.001,0.001,0.001,0.001,0.001,0.002
	c0.5,2.394,1.253,4.664,2.304,6.728c0.029,0.057,0.055,0.116,0.085,0.173c0.517,0.994,1.109,1.936,1.779,2.819
	c0.059,0.077,0.124,0.148,0.185,0.224c0.631,0.807,1.334,1.558,2.108,2.251c0.084,0.075,0.158,0.156,0.244,0.229
	c0.811,0.697,1.713,1.32,2.687,1.878c0.182,0.105,0.377,0.198,0.565,0.297c0.93,0.49,1.924,0.922,3.005,1.276
	c0.116,0.038,0.218,0.087,0.335,0.123c1.161,0.358,2.436,0.612,3.78,0.799c0.31,0.044,0.629,0.077,0.95,0.111
	c1.408,0.148,2.879,0.236,4.489,0.188c1.413-0.042,2.727-0.168,3.99-0.331c0.363-0.047,0.71-0.107,1.062-0.164
	c0.928-0.15,1.817-0.33,2.665-0.542c0.294-0.073,0.598-0.14,0.882-0.221c1.084-0.309,2.116-0.657,3.065-1.065
	c0.041-0.018,0.075-0.039,0.116-0.056c0.913-0.399,1.753-0.85,2.547-1.332c0.195-0.119,0.381-0.242,0.569-0.365
	c0.677-0.443,1.314-0.912,1.905-1.412c0.112-0.094,0.231-0.182,0.34-0.278c1.408-1.248,2.57-2.653,3.521-4.171
	c0.061-0.097,0.119-0.195,0.179-0.294c0.454-0.753,0.868-1.527,1.226-2.328C1070.71,711.226,1046.83,711.811,1036.064,721.273z"/>
<path style="fill:#F8B989;" d="M1181.918,465.073c3.573,7.404,4.504,14.289,4.483,16.315c-0.045,4.484-8.232,0-8.232,0
	c-45.878-29.321-81.407-5.864-81.407-5.864c-6.031,3.105-2.414-6.29-2.414-6.29c4.454-8.811,10.18-15.325,16.35-20.22
	c-34.367-11.484-67.989-25.126-103.172-34.166c-29.173-7.495-56.886-10.312-85.446-5.086c0.007-0.041,0.014-0.081,0.023-0.123
	c-4.397,23.435-10.945,52.544-19.012,71.06c-14.475,33.222-44.523,83.039-37.695,124.212c11.827,10.223,29.123,16.966,48.631,7.212
	c34.495-17.247,68.299-16.558,68.299-16.558l3.324,0.992c-2.99-5.889-4.704-12.215-4.704-18.842c0-1.722,0.145-3.418,0.361-5.1
	c0.064-0.501,0.157-0.994,0.24-1.491c0.204-1.222,0.461-2.431,0.773-3.627c0.13-0.498,0.251-0.996,0.401-1.489
	c0.46-1.525,0.988-3.031,1.619-4.507c0.036-0.086,0.062-0.175,0.099-0.26c0.003-0.007,0.005-0.014,0.008-0.021
	c0,0.001,0.001,0.002,0.001,0.003c9.807-22.474,39.122-38.788,73.767-38.788c42.674,0,77.268,24.749,77.268,55.278
	c0,1.524-0.149,3.021-0.318,4.514c0.015-0.013,0.031-0.026,0.044-0.039c-0.014,0.13-0.053,0.254-0.069,0.383
	c-0.139,1.138-0.371,2.252-0.605,3.368c-0.139,0.666-0.253,1.336-0.425,1.994c-0.283,1.083-0.646,2.142-1.016,3.201
	c-0.232,0.666-0.449,1.334-0.715,1.99c-0.415,1.023-0.895,2.022-1.389,3.019c-0.086,0.176-0.155,0.358-0.244,0.533l3.724-1.112
	c0,0,33.805-0.689,68.3,16.558c19.762,9.881,37.25,2.828,49.086-7.619c6.56-41.093-23.357-90.694-37.783-123.805
	c-2.068-4.747-4.033-10.205-5.891-16.071C1199.527,465.619,1190.722,465.648,1181.918,465.073z"/>
<path style="fill:#E09867;" d="M1055.333,392.293c-5.628-1.266-11.18-2.382-16.626-3.317c-13.616-2.336-26.576-3.541-38.444-3.137
	c-12.677,0.431-24.135,1.794-34.482,3.85c-5.174,1.028-10.069,2.229-14.701,3.573c-4.631,1.344-8.997,2.832-13.112,4.432
	c-5.416,2.106-10.355,4.421-14.93,6.851c-0.073,0.403-0.142,0.796-0.216,1.203c-0.029,0.155-0.058,0.313-0.087,0.468
	c-0.206,1.126-0.416,2.266-0.633,3.422c-0.008,0.041-0.016,0.081-0.023,0.123c28.561-5.225,56.273-2.409,85.446,5.086
	c35.184,9.04,68.805,22.682,103.172,34.166c20.588-16.334,46.376-13.822,48.499-11.433c2.759,3.104-5.174,5.985-5.174,5.985
	c15.319,2.771,23.559,12.522,27.896,21.508c8.804,0.575,17.609,0.546,26.261-0.446l0,0c-2.492-7.867-4.782-16.495-6.852-25.219
	c-20.414-6.626-43.695-15.246-67.85-23.651c-11.521-4.009-23.232-7.963-34.915-11.62
	C1083.96,399.565,1069.405,395.458,1055.333,392.293z"/>
<path style="fill:#EFEAE1;" d="M849.551,638.001c9.217,16.488,23.512,29.7,40.743,37.422
	c39.169,17.557,93.097,10.447,128.946-11.849c10.218-6.356,22.641-21.894,35.522-30.706c-6.762-0.214-13.324-0.981-19.526-2.361
	c-23.049-5.129-41.388-17.8-49.587-33.951l-3.324-0.992c0,0-33.805-0.689-68.299,16.558c-19.508,9.754-36.804,3.011-48.631-7.212
	c-9.086-7.855-14.946-17.763-16.088-23.833c-0.839-4.46-5.343-3.605-10.172,1.477C837.994,601.836,839.497,620.018,849.551,638.001z
	"/>
<path style="fill:#EFEAE1;" d="M1202.767,612.123c-34.495-17.247-68.3-16.558-68.3-16.558l-3.724,1.112
	c-0.247,0.484-0.5,0.965-0.766,1.443c-0.534,0.96-1.12,1.897-1.725,2.83c-0.424,0.653-0.85,1.303-1.308,1.942
	c-0.64,0.893-1.321,1.765-2.026,2.628c-0.521,0.64-1.053,1.272-1.608,1.894c-0.735,0.823-1.499,1.628-2.293,2.42
	c-0.619,0.62-1.255,1.227-1.909,1.827c-0.816,0.748-1.651,1.481-2.519,2.198c-0.723,0.598-1.469,1.178-2.226,1.753
	c-0.883,0.669-1.777,1.328-2.706,1.966c-0.825,0.567-1.678,1.11-2.538,1.65c-0.939,0.591-1.88,1.175-2.86,1.733
	c-0.93,0.529-1.891,1.027-2.853,1.526c-0.985,0.509-1.964,1.02-2.984,1.497c-1.031,0.482-2.096,0.926-3.161,1.374
	c-1.02,0.429-2.029,0.865-3.078,1.26c-1.139,0.43-2.313,0.811-3.484,1.2c-1.035,0.345-2.057,0.703-3.117,1.016
	c-1.255,0.37-2.547,0.681-3.835,1.004c-0.431,0.108-0.85,0.234-1.285,0.336c8.051,5.193,14.755,12.571,22.415,18.294
	c9.364,6.996,19.865,12.329,30.651,16.773c38.802,15.984,94.703,21.445,127.911-9.504c13.738-12.803,22.732-31.645,25.361-50.658
	c-5.336-22.125-19.744-32.366-21.318-24.002c-1.122,5.966-6.811,15.638-15.633,23.426
	C1240.017,614.951,1222.53,622.004,1202.767,612.123z"/>
<path style="fill:#DED7CB;" d="M1135.531,665.241c-10.786-4.443-21.288-9.776-30.651-16.773
	c-7.66-5.722-14.364-13.101-22.415-18.294c-0.608,0.144-1.206,0.301-1.82,0.434c-1.391,0.302-2.82,0.534-4.243,0.78
	c-0.998,0.173-1.976,0.378-2.988,0.522c-1.618,0.231-3.273,0.38-4.925,0.537c-0.86,0.082-1.699,0.205-2.566,0.266
	c-2.536,0.18-5.107,0.278-7.71,0.278c-1.165,0-2.298-0.088-3.451-0.124c-12.881,8.812-25.304,24.35-35.522,30.706
	c-35.849,22.296-89.777,29.406-128.946,11.849c-17.231-7.723-31.526-20.935-40.743-37.422
	c-10.054-17.983-11.557-36.165-10.415-55.447c0.001-0.008,0.001-0.018,0.002-0.026c-0.567,0.597-1.139,1.271-1.709,1.984
	c-0.216,0.27-0.431,0.559-0.646,0.845c-0.587,0.778-1.169,1.605-1.743,2.501c-0.14,0.219-0.279,0.437-0.418,0.662
	c-0.597,0.97-1.176,2.017-1.744,3.113c-0.169,0.327-0.339,0.653-0.505,0.991c-0.597,1.216-1.17,2.494-1.711,3.848
	c-0.12,0.299-0.231,0.616-0.347,0.921c-0.493,1.296-0.957,2.646-1.385,4.058c-0.072,0.235-0.15,0.457-0.219,0.695
	c-0.458,1.578-0.857,3.24-1.213,4.954c-0.08,0.384-0.157,0.772-0.232,1.163c-0.336,1.766-0.625,3.583-0.834,5.48
	c-0.025,0.226-0.037,0.463-0.06,0.69c-0.18,1.786-0.29,3.633-0.341,5.528c-0.01,0.366-0.029,0.724-0.034,1.094
	c-0.025,2.032,0.036,4.126,0.178,6.275c0.029,0.445,0.07,0.897,0.108,1.346c0.185,2.249,0.432,4.537,0.82,6.903
	c2.544,15.518,7.026,27.64,13.329,37.337c10.792,16.6,26.95,26.061,48.071,33.029c0,0-22.158-4.297-18.628,0
	c7.935,9.659,87.616,21.387,125.56,11.039c0,0-21.386,9.658-13.798,10.348c4.676,0.425,21.153-0.753,40.206-10.576
	c4.393-2.265,8.915-4.997,13.471-8.271c7.747-5.569,15.566-12.687,22.901-21.857h0.367c7.807,9.758,16.158,17.204,24.391,22.915
	c4.817,3.343,9.573,6.047,14.173,8.283c18.108,8.805,33.518,9.914,38.014,9.505c7.588-0.69-13.798-10.348-13.798-10.348
	c37.944,10.348,117.626-1.38,125.56-11.039c3.531-4.297-18.627,0-18.627,0c14.892-4.912,27.305-11.073,37.126-20.087
	c12.245-11.24,20.445-26.926,24.274-50.279c0.46-2.803,0.748-5.512,0.925-8.149c0.058-0.868,0.042-1.682,0.072-2.531
	c0.061-1.736,0.112-3.465,0.063-5.12c-0.028-0.945-0.109-1.839-0.171-2.758c-0.097-1.484-0.207-2.958-0.385-4.369
	c-0.114-0.906-0.259-1.772-0.403-2.647c-0.221-1.339-0.46-2.655-0.745-3.92c-0.083-0.374-0.131-0.79-0.22-1.157
	c-0.007,0.05-0.02,0.1-0.026,0.15c-2.629,19.012-11.622,37.855-25.361,50.658C1230.235,686.686,1174.333,681.225,1135.531,665.241z"
	/>
<path style="fill:#F49E73;" d="M924.42,522.437c-27.077,0-49.028,18.223-49.028,40.703c0,22.48,21.95,40.704,49.028,40.704
	c27.078,0,49.028-18.224,49.028-40.704C973.449,540.66,951.498,522.437,924.42,522.437z"/>
<path style="fill:#F49E73;" d="M1143.711,563.14c0,22.48,21.951,40.704,49.028,40.704c27.077,0,49.028-18.224,49.028-40.704
	c0-22.479-21.951-40.703-49.028-40.703C1165.662,522.437,1143.711,540.66,1143.711,563.14z"/>
<path style="fill:#E89261;" d="M1135.163,582.228c0.169-1.493,0.318-2.99,0.318-4.514c0-30.529-34.594-55.278-77.268-55.278
	c-34.645,0-63.96,16.314-73.767,38.788C1000.572,610.807,1093.495,621.387,1135.163,582.228z"/>
<path style="fill:#D87E50;" d="M1035.236,630.508c6.202,1.38,12.763,2.147,19.526,2.361c1.153,0.036,2.286,0.124,3.451,0.124
	c2.603,0,5.174-0.098,7.71-0.278c0.868-0.061,1.708-0.184,2.566-0.266c1.652-0.157,3.307-0.306,4.925-0.537
	c1.011-0.145,1.991-0.35,2.988-0.522c1.423-0.246,2.852-0.479,4.243-0.78c1.054-0.229,2.072-0.511,3.105-0.77
	c1.288-0.323,2.58-0.635,3.835-1.004c1.06-0.312,2.081-0.671,3.117-1.016c1.171-0.389,2.345-0.77,3.484-1.2
	c1.047-0.395,2.059-0.831,3.078-1.26c1.065-0.448,2.13-0.891,3.161-1.374c1.018-0.477,2-0.987,2.984-1.497
	c0.963-0.499,1.924-0.997,2.853-1.526c0.978-0.557,1.922-1.143,2.86-1.733c0.86-0.54,1.714-1.083,2.538-1.65
	c0.928-0.637,1.823-1.296,2.706-1.966c0.757-0.575,1.503-1.155,2.226-1.753c0.867-0.716,1.704-1.45,2.519-2.198
	c0.654-0.6,1.29-1.207,1.909-1.827c0.793-0.792,1.559-1.598,2.293-2.42c0.555-0.623,1.087-1.255,1.608-1.894
	c0.704-0.863,1.387-1.736,2.026-2.628c0.458-0.639,0.884-1.289,1.308-1.942c0.605-0.932,1.192-1.871,1.725-2.83
	c0.266-0.477,0.518-0.958,0.766-1.443c0.089-0.175,0.158-0.357,0.244-0.533c0.493-0.996,0.974-1.998,1.389-3.019
	c0.265-0.656,0.483-1.324,0.715-1.99c0.37-1.058,0.733-2.119,1.016-3.201c0.172-0.657,0.287-1.328,0.425-1.994
	c0.234-1.115,0.466-2.231,0.605-3.368c0.016-0.129,0.054-0.253,0.069-0.383c-0.014,0.013-0.03,0.025-0.044,0.039
	c-41.668,39.158-134.591,28.578-150.716-21.004c0-0.001-0.001-0.002-0.001-0.003c-0.003,0.007-0.005,0.014-0.008,0.021
	c-0.037,0.085-0.062,0.175-0.099,0.26c-0.632,1.475-1.159,2.982-1.619,4.507c-0.148,0.492-0.27,0.991-0.401,1.489
	c-0.313,1.196-0.57,2.404-0.773,3.627c-0.083,0.496-0.176,0.991-0.24,1.491c-0.215,1.682-0.361,3.378-0.361,5.1
	c0,6.627,1.715,12.954,4.704,18.842C993.849,612.708,1012.187,625.379,1035.236,630.508z"/>
<path style="fill:#2F1C14;" d="M1161.496,509.221c0,0-8.893-13.97-30.059-13.452c-21.166,0.517-27.892,18.627-22.718,21.214
	c5.174,2.587,10.502-6.057,25.007-6.529c14.115-0.459,17.165,6.31,23.63,7.113C1161.668,518.102,1164.6,514.223,1161.496,509.221z"
	/>
<path style="fill:#2F1C14;" d="M988.184,495.768c-21.166-0.517-30.058,13.452-30.058,13.452c-3.105,5.002-0.173,8.881,4.138,8.346
	c6.466-0.803,9.516-7.573,23.631-7.113c14.505,0.472,19.832,9.116,25.007,6.529C1016.076,514.395,1009.349,496.286,988.184,495.768z
	"/>
<path style="fill:#EFEAE1;" d="M1018.938,469.234c-19.316-38.207-62.09-34.758-64.849-31.653c-2.76,3.104,5.174,5.985,5.174,5.985
	c-27.941,5.053-32.425,33.339-32.379,37.823c0.045,4.484,8.232,0,8.232,0c45.878-29.321,81.407-5.864,81.407-5.864
	C1022.555,478.629,1018.938,469.234,1018.938,469.234z"/>
<path style="fill:#EFEAE1;" d="M1094.347,469.234c0,0-3.617,9.395,2.414,6.29c0,0,35.53-23.456,81.407,5.864
	c0,0,8.187,4.484,8.232,0c0.021-2.026-0.91-8.911-4.483-16.315c-4.336-8.986-12.576-18.737-27.896-21.508
	c0,0,7.933-2.881,5.174-5.985c-2.123-2.389-27.911-4.901-48.499,11.433C1104.526,453.909,1098.801,460.423,1094.347,469.234z"/>
<path style="fill:#311414;" d="M867.685,1257.166c11.092-0.288,22.399-0.548,33.909-0.775c9.507-0.188,19.184-0.347,28.961-0.488
	c-1.082-6.971-2.026-15.252-2.84-24.407c-100.745,3.032-210.467,10.01-327.258,22.748c-4.661,9.684-16.673,19.445-46.223,19.386
	c-1.475-0.002-2.861-0.145-4.25-0.281c0.03,0.034,0.061,0.065,0.092,0.099c0.334,0.364,0.687,0.658,1.061,0.88
	c0.147,0.087,0.292,0.177,0.446,0.241c0.518,0.217,1.06,0.349,1.652,0.296c0.863-0.077,1.919-0.173,3.07-0.276l0,0
	C585.006,1272,702.394,1261.457,867.685,1257.166z"/>
<path style="fill:#311414;" d="M1207.244,1259.242c1.097,0.043,2.184,0.081,3.283,0.126c20.956,0.851,42.146,1.851,63.529,3.017
	c21.384,1.166,42.96,2.496,64.688,4.006c65.184,4.53,131.731,10.673,198.514,18.823c0,0,12.501-3.747,21.07-14.011
	c-15.966-1.173-25.719-5.651-31.603-11.159c-60.712-8.611-170.12-21.383-316.372-27.259
	C1209.476,1242.916,1208.448,1251.958,1207.244,1259.242z"/>
<path style="fill:#CC9B44;" d="M932.654,1074.349c-5.954,5.594-7.902,14.061-8.233,15.153c-0.191,0.631-0.362,2.121-0.511,4.322
	l-0.478,0.138c-0.087,4.398-0.143,9.417-0.159,15.016c-0.101,33.305,1.104,85.032,4.443,122.52
	c0.815,9.155,1.758,17.436,2.84,24.407l0,0c1.565,10.076,3.424,17.318,5.609,20.39c0.21,0.295,0.414,0.668,0.629,0.883
	c5.936,5.937,53.259,9.317,106.347,10.145c13.224,0.206,26.798,0.254,40.188,0.143c52.773-0.436,102.526-3.335,115.632-8.695
	c1.246-0.51,2.197-1.039,2.751-1.593c2.167-2.167,3.993-8.617,5.533-17.934l0,0c1.203-7.283,2.232-16.326,3.11-26.457
	c3.137-36.174,4.365-86.243,4.845-119.9c0.136-9.542,0.213-17.753,0.255-23.963
	C1213.214,1053.973,989.599,1020.833,932.654,1074.349z"/>
<path style="fill:#EDAC42;" d="M1124.729,1039.095c-3.759-0.583-7.575-1.13-11.438-1.636c-3.862-0.507-7.771-0.974-11.714-1.4
	c-17.744-1.914-36.177-2.974-54.203-2.942c-0.017,0-0.034,0-0.051,0c-3.989,0.008-7.958,0.068-11.894,0.186
	c-1.977,0.059-3.946,0.132-5.905,0.22c-2.094,0.093-4.174,0.206-6.243,0.333c-5.498,0.337-10.904,0.795-16.189,1.379
	c-0.401,0.044-0.799,0.09-1.199,0.136c-2.956,0.339-5.866,0.722-8.737,1.142c-0.257,0.038-0.518,0.072-0.773,0.11
	c-4.227,0.632-8.347,1.358-12.351,2.175c-4.286,0.876-8.429,1.862-12.413,2.962c-0.901,0.249-1.792,0.504-2.676,0.764
	c-2.112,0.622-4.173,1.278-6.183,1.969c-2.597,0.891-5.102,1.843-7.515,2.853c-1.283,0.537-2.538,1.09-3.766,1.66
	c-7.397,3.441-13.778,7.49-18.826,12.234c-2.977,2.798-4.953,6.313-6.225,9.266c-1.272,2.952-1.843,5.342-2.008,5.888
	c-0.075,0.247-0.146,0.67-0.215,1.171c-0.018,0.139-0.037,0.289-0.056,0.447c-0.057,0.485-0.112,1.045-0.164,1.701
	c-0.011,0.126-0.022,0.22-0.032,0.351c-0.056,0.754-0.108,1.636-0.157,2.581c-0.02,0.375-0.039,0.773-0.058,1.177
	c-0.033,0.723-0.065,1.496-0.095,2.308c-0.016,0.416-0.032,0.8-0.046,1.239c-0.038,1.116-0.071,2.322-0.102,3.578
	c-0.016,0.667-0.032,1.365-0.046,2.068c-0.007,0.321-0.014,0.616-0.021,0.945l0.003-0.001l0.478-0.138
	c0.149-2.201,0.32-3.69,0.511-4.322c0.331-1.092,2.28-9.558,8.233-15.153c56.945-53.515,280.56-20.376,282.8,14.572l0,0
	c0-0.015,0.001-0.026,0.001-0.04c0.002-0.392,0.004-0.741,0.006-1.117c0.005-0.767,0.01-1.509,0.014-2.206
	c0.032-5.802,0.033-9.164,0.033-9.164c0.021-3.274-1.924-6.537-5.505-9.719c-0.085-0.075-0.177-0.149-0.263-0.224
	c-6.69-5.81-18.833-11.343-34.503-16.171c-1.438-0.444-2.906-0.881-4.401-1.312c-2.601-0.749-5.301-1.475-8.064-2.185
	c-2.004-0.515-4.032-1.022-6.113-1.515c-1.65-0.391-3.325-0.773-5.021-1.149c-3.659-0.81-7.429-1.582-11.278-2.318
	c-0.34-0.065-0.685-0.127-1.026-0.192c-2.695-0.509-5.426-1.001-8.2-1.471C1129.018,1039.78,1126.886,1039.43,1124.729,1039.095z"/>
<path style="fill:#4F1C1C;" d="M1162.657,1106.75c0.143-22.443-143.997-44.02-180.548-9.672c-3.8,3.571-5.043,8.975-5.255,9.672
	c-1.733,5.709-0.911,119.353,7.897,128.16c8.807,8.807,160.29,8.807,169.097,0c3.773-3.773,5.926-27.836,7.159-54.106h-33.46
	c-3.225,0-5.864-2.639-5.864-5.864v-14.752c0-3.225,2.639-5.864,5.864-5.864h34.417
	C1162.654,1128.624,1162.657,1106.75,1162.657,1106.75z"/>
<path style="fill:#FABB5E;" d="M1121.683,1160.187v14.752c0,3.225,2.639,5.864,5.864,5.864h33.46h19.661
	c3.225,0,5.864-2.639,5.864-5.864v-14.752c0-3.225-2.639-5.864-5.864-5.864h-18.704h-34.417
	C1124.323,1154.323,1121.683,1156.962,1121.683,1160.187z"/>
<path style="fill:#E9E2D2;" d="M444.683,1156.981c12.117-32.258,23.493-65.661,46.921-91.439
	c15.141-16.661,35.761-33.072,57.149-33.009c-7.283-3.584-15.75-7.554-24.456-11.224c-21.383-9.013-44.133-16.175-53.87-11.12
	c-37.076,19.252-101.365,150.615-107.143,213.485c-1.104,12.001-0.1,21.537,3.659,27.286c6.527,9.983,30.689,23.402,55.605,33.4
	C422.658,1283.027,406.958,1257.411,444.683,1156.981z"/>
<path style="fill:#D8D1C3;" d="M514.827,1231.409c0,0-2.727-0.704-6.919-2.17c-5.689,10.995-11.406,20.964-16.889,29.379
	c-10.467,15.979-20.113,26.212-27.239,26.594c-10.056,0.527-10.056-17.973-4.75-44.537c1.76-8.825,4.105-18.56,6.89-28.763
	c9.382-34.657,23.485-74.972,35.536-105.143c5.102-12.783,9.852-23.778,13.722-31.724c2.521-5.278,4.691-9.237,6.304-11.494
	c16.566-23.251,33.103-8.532,33.103-8.532c3.547,2.492,5.219,8.151,5.365,16.097c6.653-0.245,12.939-0.276,18.366-0.045
	c0.328-6.123,0.135-11.524-0.715-15.883c-1.104-5.663-3.294-9.6-6.808-11.193c0,0-0.154-0.086-0.368-0.204
	c-0.04-0.022-0.057-0.032-0.105-0.058c-0.249-0.138-0.612-0.337-1.053-0.579c-0.056-0.03-0.091-0.049-0.149-0.081
	c-1.04-0.568-2.543-1.381-4.424-2.382c-0.059-0.032-0.117-0.063-0.177-0.094c-2.851-1.515-6.557-3.448-10.845-5.611
	c-0.179-0.09-0.356-0.178-0.535-0.269c-1.382-0.694-2.815-1.409-4.305-2.143c-0.008-0.004-0.016-0.008-0.024-0.012
	c-0.019-0.009-0.036-0.018-0.055-0.027l0,0c-21.388-0.063-42.008,16.348-57.149,33.009c-23.428,25.779-34.803,59.182-46.921,91.439
	c-37.726,100.43-22.026,126.046-22.135,127.378l0,0c0.003,0.001,0.006,0.002,0.009,0.004c1.579,0.634,3.161,1.253,4.742,1.857
	c0.009,0.004,0.018,0.007,0.027,0.011c4.771,1.823,9.529,3.505,14.158,4.997c0.003,0.001,0.007,0.002,0.009,0.003
	c1.493,0.481,2.971,0.941,4.433,1.381c0.056,0.017,0.114,0.036,0.171,0.053c1.386,0.417,2.752,0.809,4.104,1.185
	c0.129,0.036,0.262,0.076,0.39,0.112c1.266,0.35,2.507,0.674,3.735,0.986c0.203,0.051,0.414,0.11,0.616,0.161
	c1.154,0.289,2.277,0.549,3.391,0.802c0.258,0.058,0.527,0.126,0.783,0.183c1.058,0.234,2.083,0.438,3.101,0.636
	c0.288,0.056,0.588,0.124,0.871,0.177c0.949,0.178,1.857,0.323,2.764,0.468c0.327,0.052,0.671,0.118,0.992,0.166
	c0.824,0.122,1.603,0.21,2.387,0.302c0.371,0.043,0.761,0.102,1.123,0.139c0.721,0.073,1.393,0.111,2.076,0.156
	c0.381,0.025,0.785,0.067,1.153,0.083c0.649,0.029,1.243,0.02,1.852,0.02c0.355,0,0.737,0.018,1.079,0.009
	c0.589-0.017,1.121-0.074,1.665-0.122c0.309-0.027,0.648-0.034,0.943-0.072c0.521-0.065,0.978-0.173,1.45-0.271
	c0.264-0.055,0.562-0.089,0.811-0.154c0.584-0.153,1.098-0.35,1.59-0.562c0.091-0.039,0.206-0.063,0.294-0.104
	c11.33-5.306,21.052-26.31,32.519-51.194C513.675,1239.712,513.379,1234.255,514.827,1231.409z"/>
<path style="fill:#9A9184;" d="M463.78,1285.212c7.126-0.381,16.772-10.614,27.239-26.594c5.483-8.415,11.2-18.384,16.889-29.379
	c-0.88-0.293-1.818-0.645-2.815-1.026c-8.561-3.225-29.672-7.975-39.172-16.302c-2.785,10.204-5.131,19.938-6.89,28.763
	C453.723,1267.238,453.723,1285.739,463.78,1285.212z"/>
<path style="fill:#9A9184;" d="M554.586,1055.018c0,0-16.537-14.719-33.103,8.532c-1.612,2.258-3.782,6.216-6.304,11.494
	c10.761-1.613,28.646-3.343,44.772-3.929C559.804,1063.169,558.133,1057.51,554.586,1055.018z"/>
<path style="fill:#F8B989;" d="M554.233,1273.63c29.55,0.059,41.562-9.702,46.223-19.386c4.574-9.505,2.067-18.936,2.067-18.936
	c34.335-11.435,17.886-52.249,17.886-52.249c17.592-28.909,0.323-47.058,0.323-47.058c0.156-0.847,0.397-1.871,0.666-2.968
	c3.088-12.529,12.073-40.01-8.524-53.005c-9.09-5.746-21.022-8.239-33.308-8.913c-0.399-0.021-0.84-0.027-1.249-0.045l0,0
	c-5.428-0.231-11.713-0.201-18.366,0.045c-16.127,0.586-34.011,2.316-44.772,3.929c-3.87,7.946-8.621,18.941-13.722,31.724
	c-12.05,30.171-26.153,70.487-35.536,105.143c9.5,8.327,30.611,13.077,39.172,16.302c0.997,0.381,1.935,0.733,2.815,1.026
	c4.193,1.466,6.919,2.17,6.919,2.17c-1.447,2.847-1.152,8.303,0.962,14.362c4.095,11.737,15.149,25.692,34.165,27.576
	c0.01,0.001,0.02,0.001,0.03,0.002C551.372,1273.485,552.759,1273.629,554.233,1273.63z"/>
<path style="fill:#C97D4A;" d="M547.107,1239.969c2.722,4.575,6.814,8.556,10.452,11.594c4.047,3.353,7.463,5.497,7.534,5.543
	c1.37,0.861,3.18,0.447,4.042-0.924c0.861-1.372,0.447-3.181-0.924-4.042l-0.001,0l-0.523-0.34c-1.231-0.812-4.461-3.03-7.806-5.961
	c-1.917-1.669-3.823-3.596-5.449-5.571c0.46,0.006,0.919,0.02,1.378,0.02c5.201-0.001,10.365-0.367,15.051-1.369
	c1.582-0.34,2.591-1.898,2.252-3.481c-0.34-1.583-1.898-2.591-3.481-2.252c-4.101,0.881-8.902,1.24-13.822,1.239
	c-8.118,0.002-16.558-0.963-22.935-1.933c-3.19-0.484-5.867-0.969-7.74-1.331c-0.936-0.182-1.672-0.332-2.17-0.437
	c-0.499-0.105-0.747-0.161-0.748-0.161c-1.581-0.354-3.148,0.64-3.502,2.221c-0.355,1.58,0.64,3.148,2.22,3.502l0,0
	C521.028,1236.298,533.188,1239.03,547.107,1239.969z"/>
<path style="fill:#C97D4A;" d="M620.035,1177.702c-0.081-0.089-2.63-2.924-6.778-6.144c-4.154-3.211-9.897-6.848-16.564-8.371
	c-1.58-0.358-3.15,0.634-3.507,2.213c-0.357,1.579,0.634,3.149,2.213,3.507c5.36,1.199,10.521,4.369,14.263,7.284
	c1.874,1.453,3.398,2.832,4.442,3.837c0.522,0.502,0.924,0.911,1.19,1.189l0.297,0.314l0.081,0.088
	c1.082,1.205,2.936,1.305,4.141,0.224c1.205-1.082,1.305-2.936,0.224-4.141L620.035,1177.702z"/>
<path style="fill:#C97D4A;" d="M620.264,1130.333L620.264,1130.333c-0.168-0.109-9.656-8.59-20.944-12.042
	c-1.551-0.468-3.186,0.41-3.654,1.96c-0.468,1.55,0.409,3.187,1.96,3.655c4.784,1.437,9.549,4.157,13.054,6.525
	c1.755,1.182,3.199,2.273,4.196,3.06c0.498,0.394,0.885,0.712,1.143,0.928l0.37,0.315c1.215,1.07,3.067,0.952,4.138-0.262
	C621.596,1133.256,621.479,1131.403,620.264,1130.333z"/>
<path style="fill:#C97D4A;" d="M589.457,1213.574c-4.315-3.754-7.752-6.187-7.806-6.226c-1.322-0.935-3.152-0.622-4.087,0.7
	c-0.935,1.322-0.623,3.151,0.699,4.087l0,0l0.549,0.399c2.552,1.848,13.468,10.266,18.873,18.562c0.888,1.354,2.706,1.73,4.06,0.842
	c1.354-0.889,1.731-2.707,0.842-4.061C598.969,1222.383,593.773,1217.338,589.457,1213.574z"/>
<path style="fill:#7F1714;" d="M457.378,1012.611c1.337,0.912,3.161,0.567,4.074-0.771c0.912-1.338,0.567-3.162-0.77-4.074h-0.001
	c-0.265-0.183-30.589-20.701-85.462-27.875l-37.462-42.695c-1.068-1.217-2.92-1.338-4.137-0.27c-1.217,1.068-1.338,2.921-0.27,4.137
	l33.176,37.811c-9.169-0.91-18.918-1.458-29.308-1.458c-8.837,0-18.105,0.378-27.79,1.221c-1.614,0.14-2.807,1.562-2.667,3.175
	c0.141,1.613,1.563,2.807,3.176,2.667c9.514-0.829,18.612-1.2,27.281-1.2c38.644,0.001,68.753,7.387,89.176,14.747
	c10.211,3.68,17.998,7.355,23.212,10.095c2.607,1.37,4.57,2.506,5.872,3.294c0.651,0.394,1.136,0.7,1.453,0.904l0.35,0.228
	L457.378,1012.611z"/>
<path style="fill:#7F1714;" d="M551.3,1011.389c0.052,0.01,0.102-0.008,0.155,0c1.532,0.219,2.988-0.769,3.294-2.305h-0.001
	c0-0.002,0.156-0.783,0.474-2.296c2.387-11.342,13.836-63.139,34.837-119.488c20.952-56.354,51.665-117.219,91.614-146.55
	c1.304-0.96,1.583-2.795,0.623-4.099c-0.96-1.304-2.795-1.583-4.099-0.623c-22.295,16.433-41.367,41.651-57.586,70.194
	c-48.59,85.612-71.566,201.573-71.614,201.719c-0.213,1.071,0.221,2.09,0.99,2.757
	C550.357,1011.022,550.782,1011.286,551.3,1011.389z"/>
<path style="fill:#CA241D;" d="M1371.654,674.372c0,0,0.084,0.201,0.208,0.494c-2.781-2.017-5.435-3.893-7.943-5.625
	c0.206,1.215,0.424,2.437,0.607,3.64c0.044,0.285,0.075,0.563,0.118,0.847c0.349,2.361,0.653,4.692,0.923,7.001
	c0.089,0.751,0.171,1.495,0.251,2.241c0.218,2.036,0.411,4.049,0.575,6.038c0.044,0.526,0.096,1.058,0.136,1.58
	c0.187,2.446,0.334,4.85,0.448,7.214c0.029,0.588,0.048,1.158,0.072,1.741c0.079,1.853,0.14,3.677,0.181,5.473
	c0.015,0.653,0.032,1.303,0.043,1.947c0.037,2.236,0.058,4.441,0.05,6.575c-0.073,19.031-5.262,12.004-9.818,2.127
	c1.525,102.173-50.994,195.842-132.949,259.477c-17.312,11.396-34.746,22.627-51.045,35.504
	c-12.102,9.562-23.629,19.851-34.176,30.966c0.341,0.064,0.686,0.127,1.026,0.192c3.849,0.736,7.619,1.508,11.278,2.318
	c1.696,0.376,3.37,0.758,5.021,1.149c2.081,0.492,4.11,1,6.113,1.515c2.763,0.709,5.463,1.435,8.064,2.185
	c1.495,0.431,2.963,0.868,4.401,1.312c15.67,4.828,27.813,10.362,34.503,16.171c0.086,0.075,0.179,0.149,0.263,0.224
	c3.581,3.182,5.526,6.444,5.505,9.719c0,0-0.001,3.389-0.033,9.164c-0.004,0.698-0.009,1.439-0.014,2.206
	c-0.002,0.383-0.004,0.717-0.006,1.117c0,0.015-0.001,0.026-0.001,0.04l0,0c-0.042,6.21-0.119,14.421-0.255,23.963
	c107.91,9.889,238.033,24.929,280.404,28.384c0.136,0.011,0.258,0.015,0.395,0.026c2.12-4.794,4.589-7.401,4.589-7.401
	c-1.934-10.526-14.542-41.84,7.859-55.972c9.089-5.747,21.022-8.239,33.308-8.913c0.398-0.021,0.84-0.028,1.248-0.045
	c-0.753-14.077,1.303-24.257,7.524-27.076c0,0,0.149-0.083,0.368-0.204c0.04-0.022,0.057-0.032,0.105-0.058
	c0.247-0.137,0.602-0.331,1.054-0.578c0.055-0.03,0.09-0.05,0.149-0.082c1.036-0.566,2.534-1.376,4.422-2.381
	c0.063-0.034,0.127-0.068,0.193-0.102c2.862-1.522,6.572-3.456,10.891-5.633c0.141-0.071,0.281-0.141,0.424-0.213
	c1.384-0.697,2.814-1.409,4.308-2.145c0.044-0.022,0.083-0.042,0.128-0.064c0,0,0,0,0.001,0c1.011-0.498,2.05-1.003,3.104-1.514
	c-0.759-6.645-1.648-13.172-2.619-19.62c8.421,3.43,16.594,6.758,23.97,9.91c21.383-9.013,44.133-16.175,53.87-11.12
	c37.075,19.252,101.364,150.616,107.143,213.485c56.088-43.912,145.896-152.678,124.659-237.631
	C1839.922,812.842,1371.654,674.372,1371.654,674.372z"/>
<path style="fill:#E9E2D2;" d="M1650.893,1008.081c-9.737-5.055-32.487,2.107-53.87,11.12c-7.497,3.161-14.809,6.542-21.351,9.711
	c-1.054,0.511-2.092,1.016-3.104,1.514c21.386-0.062,42.008,16.348,57.149,33.009c23.427,25.779,34.802,59.182,46.921,91.44
	c37.725,100.43,22.026,126.045,22.134,127.378c24.917-9.997,49.078-23.417,55.605-33.399c3.76-5.75,4.762-15.286,3.66-27.287
	C1752.257,1158.697,1687.968,1027.333,1650.893,1008.081z"/>
<path style="fill:#D8D1C3;" d="M1676.637,1154.874c-12.118-32.258-23.493-65.661-46.921-91.44
	c-15.141-16.66-35.762-33.071-57.149-33.009c-0.001,0-0.001,0-0.001,0c-0.045,0.022-0.084,0.042-0.128,0.064
	c-1.491,0.734-2.927,1.45-4.308,2.145c-0.142,0.072-0.282,0.142-0.424,0.213c-4.309,2.172-8.028,4.113-10.891,5.633
	c-0.066,0.034-0.129,0.068-0.193,0.102c-1.88,1-3.382,1.813-4.422,2.381c-0.058,0.032-0.094,0.051-0.149,0.082
	c-0.442,0.241-0.804,0.441-1.054,0.578c-0.047,0.026-0.064,0.036-0.105,0.058c-0.214,0.118-0.368,0.204-0.368,0.204
	c-6.221,2.82-8.277,13-7.524,27.076c5.428-0.231,11.713-0.201,18.367,0.045c0.146-7.946,1.818-13.605,5.366-16.097
	c0,0,16.537-14.719,33.102,8.532c1.612,2.258,3.782,6.217,6.304,11.494c3.87,7.946,8.62,18.941,13.721,31.724
	c12.051,30.171,26.154,70.486,35.537,105.143c2.784,10.204,5.13,19.938,6.89,28.764c5.307,26.564,5.307,45.065-4.75,44.537
	c-7.125-0.381-16.771-10.614-27.239-26.594c-5.483-8.415-11.2-18.384-16.888-29.379c-4.194,1.466-6.921,2.17-6.921,2.17
	c1.447,2.846,1.152,8.303-0.961,14.361c9.197,19.96,17.276,37.426,25.956,46.292c2.142,2.187,4.32,3.851,6.563,4.902
	c0.564,0.264,1.195,0.484,1.887,0.666c0.207,0.054,0.456,0.081,0.674,0.128c0.513,0.111,1.018,0.226,1.588,0.298
	c0.257,0.032,0.553,0.037,0.82,0.062c0.582,0.054,1.156,0.113,1.79,0.131c0.304,0.009,0.646-0.009,0.961-0.008
	c0.645,0.002,1.28,0.01,1.971-0.02c0.33-0.015,0.693-0.053,1.033-0.075c0.719-0.046,1.435-0.087,2.197-0.165
	c0.335-0.034,0.698-0.089,1.04-0.129c0.809-0.094,1.615-0.187,2.465-0.312c0.305-0.045,0.63-0.107,0.94-0.156
	c0.925-0.147,1.856-0.296,2.826-0.478c0.234-0.044,0.483-0.1,0.721-0.146c1.065-0.207,2.143-0.422,3.253-0.668
	c0.209-0.045,0.427-0.101,0.635-0.148c1.162-0.262,2.336-0.535,3.54-0.836c0.162-0.041,0.329-0.088,0.492-0.129
	c1.266-0.321,2.546-0.656,3.852-1.016c0.112-0.031,0.226-0.066,0.339-0.097c1.367-0.38,2.749-0.778,4.151-1.199
	c0.052-0.016,0.105-0.033,0.157-0.049c1.465-0.441,2.948-0.902,4.445-1.384c0.006-0.002,0.014-0.005,0.02-0.007
	c6.168-1.989,12.566-4.315,18.916-6.861c0.004-0.002,0.007-0.003,0.011-0.005v0
	C1698.663,1280.919,1714.362,1255.303,1676.637,1154.874z"/>
<path style="fill:#9A9184;" d="M1606.141,1072.936c-2.522-5.277-4.692-9.236-6.304-11.494c-16.565-23.25-33.102-8.532-33.102-8.532
	c-3.548,2.492-5.219,8.151-5.366,16.097C1577.496,1069.593,1595.38,1071.323,1606.141,1072.936z"/>
<path style="fill:#9A9184;" d="M1613.413,1227.131c5.688,10.995,11.405,20.965,16.888,29.379
	c10.468,15.98,20.113,26.212,27.239,26.594c10.057,0.528,10.057-17.973,4.75-44.537c-1.76-8.826-4.106-18.56-6.89-28.764
	c-9.501,8.327-30.611,13.077-39.171,16.303C1615.23,1226.486,1614.292,1226.839,1613.413,1227.131z"/>
<path style="fill:#F8B989;" d="M1606.492,1229.301c0,0,2.728-0.704,6.921-2.17c0.879-0.292,1.817-0.645,2.815-1.025
	c8.56-3.226,29.671-7.975,39.171-16.303c-9.382-34.657-23.486-74.972-35.537-105.143c-5.101-12.783-9.851-23.778-13.721-31.724
	c-10.761-1.613-28.646-3.343-44.772-3.929c-6.654-0.246-12.939-0.276-18.367-0.045c-0.408,0.017-0.85,0.024-1.248,0.045
	c-12.286,0.674-24.219,3.167-33.308,8.913c-22.401,14.132-9.793,45.447-7.859,55.972c0,0-2.469,2.606-4.589,7.401
	c-3.485,7.88-6.024,21.685,4.912,39.658c0,0-16.448,40.814,17.886,52.249c0,0-4.127,15.552,7.931,26.842
	c5.883,5.508,15.637,9.987,31.603,11.159c0.013,0.001,0.029,0.001,0.044,0.003c2.732,0.199,5.606,0.323,8.714,0.317
	c21.681-0.02,34.049-15.259,38.444-27.86C1607.644,1237.604,1607.939,1232.147,1606.492,1229.301z"/>
<path style="fill:#C97D4A;" d="M1602.603,1230.674c-0.353-1.58-1.921-2.574-3.501-2.22l-0.001,0c-0.001,0-0.249,0.056-0.748,0.161
	c-3.477,0.735-18.627,3.707-32.844,3.7c-4.922,0.001-9.725-0.358-13.82-1.239c-1.583-0.34-3.143,0.668-3.482,2.251
	c-0.34,1.583,0.669,3.143,2.252,3.482c4.681,1.002,9.847,1.367,15.05,1.368c0.451,0,0.903-0.014,1.354-0.019
	c-2.034,2.464-4.504,4.854-6.847,6.782c-1.87,1.551-3.616,2.837-4.884,3.727c-0.634,0.445-1.149,0.792-1.501,1.024l-0.522,0.34
	c-1.371,0.861-1.786,2.671-0.924,4.043c0.861,1.371,2.671,1.785,4.043,0.924l-0.002,0c0.072-0.045,3.487-2.189,7.533-5.542
	c3.639-3.038,7.732-7.019,10.454-11.594c13.917-0.938,26.079-3.67,26.171-3.685
	C1601.963,1233.821,1602.958,1232.254,1602.603,1230.674z"/>
<path style="fill:#C97D4A;" d="M1505.65,1179.513h-0.002l0.08-0.089c0.476-0.515,2.973-3.137,6.647-5.887
	c3.669-2.759,8.52-5.61,13.546-6.737c1.578-0.358,2.57-1.927,2.212-3.506c-0.357-1.579-1.927-2.57-3.506-2.213
	c-6.669,1.522-12.412,5.16-16.565,8.371c-4.148,3.22-6.697,6.055-6.778,6.143c-1.083,1.205-0.983,3.06,0.223,4.142
	C1502.713,1180.818,1504.566,1180.718,1505.65,1179.513z"/>
<path style="fill:#C97D4A;" d="M1504.932,1132.626l-0.002,0l0.37-0.315c1.78-1.519,9.994-8.01,18.393-10.514
	c1.549-0.467,2.427-2.103,1.96-3.653c-0.468-1.551-2.104-2.428-3.653-1.96c-11.289,3.452-20.777,11.932-20.944,12.042
	c-1.215,1.07-1.333,2.923-0.263,4.138C1501.862,1133.579,1503.716,1133.696,1504.932,1132.626z"/>
<path style="fill:#C97D4A;" d="M1535.71,1215.89c2.049-1.783,3.899-3.259,5.231-4.284c0.665-0.512,1.201-0.912,1.566-1.181
	l0.548-0.398c1.322-0.935,1.635-2.764,0.699-4.086c-0.934-1.322-2.764-1.635-4.085-0.7h-0.001c-0.055,0.039-3.491,2.472-7.806,6.225
	c-4.317,3.765-9.512,8.81-13.129,14.302c-0.889,1.354-0.513,3.173,0.842,4.062c1.355,0.889,3.173,0.512,4.062-0.842
	C1526.72,1224.272,1531.614,1219.445,1535.71,1215.89z"/>
<path style="fill:#7F1714;" d="M1811.891,976.53c-9.688-0.843-18.956-1.222-27.79-1.222c-10.389,0-20.138,0.549-29.307,1.459
	l33.176-37.811c1.068-1.217,0.946-3.07-0.271-4.137c-1.217-1.068-3.069-0.947-4.138,0.27l-37.461,42.695
	c-54.872,7.174-85.196,27.693-85.462,27.875c-1.339,0.912-1.683,2.737-0.771,4.075c0.911,1.338,2.736,1.683,4.075,0.771h-0.002
	l0.096-0.064c2.318-1.534,45.206-29.27,120.065-29.268c8.667,0,17.765,0.372,27.282,1.2c1.612,0.14,3.034-1.054,3.175-2.667
	C1814.698,978.092,1813.504,976.67,1811.891,976.53z"/>
<path style="fill:#7F1714;" d="M1443.123,733.92c-1.304-0.96-3.14-0.681-4.099,0.623c-0.96,1.304-0.681,3.139,0.624,4.099
	c21.276,15.654,40.001,40.246,55.962,68.368c23.96,42.178,41.741,92.225,53.486,131.683c5.876,19.731,10.249,36.818,13.15,48.963
	c1.452,6.073,2.534,10.911,3.254,14.226c0.72,3.315,1.071,5.088,1.072,5.093c0.316,1.589,1.859,2.621,3.448,2.305
	c1.589-0.316,2.621-1.859,2.306-3.448h-0.001c-0.02-0.086-10.266-51.678-31.465-111.405c-10.602-29.865-23.939-61.767-40.15-90.314
	C1484.489,775.572,1465.418,750.354,1443.123,733.92z"/>
<path style="fill:#E9E2D2;" d="M1263.407,372.04c-14.487-12.418-170.136-120.73-373.526-46.912c0,0-11.852,4.043-23.656,10.693
	c-9.479,5.342-18.924,12.362-22.173,20.352c-3.381,8.313-5.391,26.553-6.088,44.147c41.387-39.12,97.805-60.754,156.744-60.192
	c53.312,0.509,104.468,18.828,153.397,38.394c32.43,12.969,70.871,39.436,107.324,27.432c8.794-2.896,15.579-8.272,20.331-14.958
	C1271.768,382.579,1267.465,375.519,1263.407,372.04z"/>
<path style="fill:#DED7CB;" d="M855.97,449.318c1.912,0.654,3.853,1.267,5.732,1.802c3.76,1.071,7.277,1.833,9.839,2.007
	c1.281,0.086,2.323,0.026,3.037-0.218c0.356-0.122,0.63-0.288,0.811-0.505c0.001,0,0.002-0.001,0.003-0.002
	c0,0,0.366-0.986,1.206-2.719c0.42-0.866,0.958-1.919,1.627-3.129c0.407-0.734,0.879-1.543,1.385-2.385
	c0.744-1.24,1.583-2.573,2.56-4.013c3.829-5.642,9.515-12.651,17.626-19.743c4.635-4.052,10.063-8.132,16.388-11.998
	c6.327-3.867,13.552-7.52,21.782-10.721c4.115-1.6,8.481-3.088,13.112-4.432c4.631-1.344,9.527-2.545,14.701-3.573
	c10.347-2.056,21.805-3.419,34.482-3.85c11.868-0.404,24.828,0.801,38.444,3.137c5.446,0.934,10.998,2.051,16.626,3.317
	c14.072,3.165,28.626,7.272,43.229,11.844c11.682,3.658,23.394,7.612,34.915,11.62c46.08,16.034,89.088,32.923,114.77,35.054
	c0.002,0,0.004,0,0.005,0c5.558,0.461,12.27,0.239,18.736-0.376c1.216-0.116,2.417-0.248,3.606-0.39
	c1.975-0.235,3.906-0.5,5.74-0.793c6.854-1.094,12.424-2.526,14.486-3.84c0.19-0.121,0.331-0.36,0.45-0.653
	c0.031-0.077,0.058-0.164,0.084-0.252c0.087-0.288,0.152-0.629,0.189-1.032c0.006-0.07,0.02-0.124,0.025-0.197
	c0.033-0.488,0.031-1.061,0.001-1.689c-0.007-0.153-0.021-0.319-0.031-0.479c-0.035-0.544-0.091-1.13-0.166-1.759
	c-0.021-0.166-0.035-0.322-0.058-0.494c-0.104-0.787-0.235-1.63-0.394-2.528c-0.031-0.177-0.069-0.367-0.103-0.548
	c-0.142-0.77-0.303-1.576-0.48-2.414c-0.052-0.248-0.104-0.491-0.159-0.745c-0.226-1.029-0.472-2.091-0.746-3.203
	c-0.023-0.095-0.05-0.195-0.074-0.29c-0.257-1.033-0.538-2.103-0.833-3.195c-0.079-0.29-0.158-0.58-0.239-0.875
	c-0.322-1.166-0.658-2.352-1.018-3.569c-0.01-0.034-0.019-0.067-0.03-0.101c-0.375-1.265-0.776-2.558-1.189-3.863
	c-0.095-0.298-0.192-0.597-0.288-0.898c-0.368-1.145-0.748-2.299-1.142-3.462c-0.062-0.185-0.122-0.367-0.185-0.552
	c-0.457-1.34-0.932-2.688-1.42-4.038c-0.09-0.251-0.184-0.501-0.275-0.752c-0.421-1.152-0.853-2.304-1.294-3.453
	c-0.098-0.259-0.196-0.517-0.296-0.776c-0.522-1.347-1.055-2.688-1.601-4.014c-0.066-0.16-0.133-0.316-0.199-0.476
	c-0.488-1.178-0.985-2.343-1.488-3.493c-0.117-0.267-0.233-0.534-0.351-0.801c-0.574-1.297-1.156-2.577-1.746-3.821
	c-4.752,6.688-11.539,12.066-20.335,14.963c-36.454,12.005-74.894-14.463-107.324-27.432
	c-48.928-19.566-100.085-37.885-153.397-38.394c-58.941-0.562-115.361,21.074-156.748,60.196
	c-0.251,6.329-0.331,12.573-0.244,18.242c0.003,0.153,0.007,0.3,0.009,0.452c0.016,0.939,0.036,1.863,0.061,2.767
	c0.008,0.258,0.017,0.508,0.025,0.763c0.025,0.786,0.052,1.561,0.084,2.315c0.013,0.299,0.027,0.589,0.04,0.882
	c0.033,0.688,0.067,1.362,0.106,2.019c0.018,0.316,0.038,0.622,0.058,0.93c0.039,0.606,0.08,1.199,0.126,1.775
	c0.025,0.322,0.051,0.637,0.078,0.948c0.045,0.529,0.094,1.042,0.144,1.54c0.031,0.309,0.063,0.614,0.096,0.91
	c0.052,0.468,0.107,0.915,0.165,1.351c0.038,0.285,0.074,0.57,0.113,0.841c0.058,0.407,0.122,0.785,0.185,1.159
	c0.042,0.253,0.084,0.511,0.13,0.748c0.066,0.351,0.138,0.666,0.208,0.98c0.048,0.212,0.094,0.435,0.144,0.629
	c0.076,0.297,0.157,0.551,0.238,0.807c0.05,0.161,0.099,0.339,0.152,0.483c0.092,0.253,0.19,0.453,0.288,0.654
	c0.046,0.095,0.09,0.216,0.138,0.298c0.149,0.257,0.303,0.461,0.464,0.596c0.012,0.009,0.032,0.022,0.044,0.031
	c1.57,1.29,5.217,3.074,9.597,4.818C852.176,447.967,854.06,448.663,855.97,449.318z"/>
<path style="fill:#631311;" d="M1187.859,253.595c-1.405-0.806-3.196-0.319-4.002,1.086c-0.806,1.405-0.319,3.197,1.086,4.002
	c18.776,10.746,41.544,31.499,59.443,49.507c8.961,9.007,16.73,17.333,22.255,23.404c2.762,3.035,4.964,5.506,6.472,7.216
	c1.508,1.71,2.315,2.648,2.317,2.651c0.904,1.051,2.37,1.25,3.551,0.64c0.198-0.103,0.408-0.176,0.585-0.328
	c1.228-1.056,1.367-2.908,0.312-4.136h0c-0.002-0.002-0.098-0.113-0.24-0.277c-1.787-2.063-14.347-16.472-31.093-33.306
	C1230.443,285.877,1207.584,264.925,1187.859,253.595z"/>
<path style="fill:#631311;" d="M1315.59,290.462c-3.736-9.295-12.565-23.289-20.535-35.205c-4.642-6.927-8.932-13.028-11.743-16.97
	c-2.01-2.819-3.286-4.568-3.293-4.576c-0.956-1.307-2.791-1.59-4.097-0.634c-1.306,0.956-1.59,2.79-0.633,4.097h0
	c0.001,0.003,0.566,0.774,1.567,2.165c1.816,2.522,5.061,7.079,8.85,12.592c3.521,5.121,7.511,11.064,11.302,17.032
	c3.933,6.193,7.639,12.398,10.321,17.62c1.341,2.607,2.425,4.971,3.147,6.914c0.732,1.929,1.058,3.491,1.04,4.154l-0.021,0.287
	l0.006,0.002c-0.814,1.192-0.688,2.807,0.41,3.802c0.003,0.003,0.005,0.008,0.008,0.011c1.206,1.082,3.059,0.981,4.142-0.224
	c0.016-0.018,0.024-0.038,0.039-0.057c1.032-1.21,1.275-2.605,1.28-3.821C1317.355,295.431,1316.649,293.161,1315.59,290.462z"/>
<path style="fill:#F8B989;" d="M867.016,503.207c-1.482,0.512-3.592,1.206-5.983,1.884c-0.183,2.915-0.553,5.664-1.053,8.281
	c1.401-1.653,2.704-3.194,3.82-4.518c3.397-4.032,5.384-6.425,5.384-6.425S868.354,502.745,867.016,503.207z"/>
</svg>
