<?xml version="1.0" encoding="utf-8"?>
<!-- Generator: Adobe Illustrator 27.5.0, SVG Export Plug-In . SVG Version: 6.00 Build 0)  -->
<svg version="1.1" id="Capa_1" xmlns="http://www.w3.org/2000/svg" xmlns:xlink="http://www.w3.org/1999/xlink" x="0px" y="0px"
	 viewBox="0 0 2122 2122" style="enable-background:new 0 0 2122 2122;" xml:space="preserve">
<path style="fill:#E5251D;" d="M1532.879,1080.272c-20.552,16.002-92.586,12.01-111.55-25.773
	c-26.156-13.725-33.429-38.879-55.483-52.013c-23.635,15.311-55.184,2.325-55.184,2.325s9.434,94.341-92.994,90.297
	c5.394,41.19-7.194,57.173-26.293,67.793c9.469,49.586,17.052,100.215,22.441,147.885c128.669-9.993,229.656-29.645,231.186-28.268
	c0.016,0.014,0.033,0.044,0.049,0.06c-1.13-9.267-2.505-18.565-4.094-27.872c19.859,4.533,40.607-1.344,62.591-18.255
	C1556.109,1196.02,1532.879,1080.272,1532.879,1080.272z"/>
<path style="fill:#F1DBD1;" d="M1212.503,618.463c-92.992-51.663-201.485-30.997-294.478,5.166
	c-30.998,10.333-56.829-10.332-82.66-25.831c-16.656-10.41-26.492-26.731-30.4-45.168c-0.005,0.003-0.008,0.005-0.013,0.007
	c-3.403,1.762-6.679,3.522-9.858,5.273c-0.301,0.166-0.602,0.331-0.901,0.497c-6.423,3.56-12.373,7.081-17.782,10.499
	c-0.204,0.129-0.395,0.255-0.598,0.384c-2.392,1.52-4.664,3.015-6.84,4.488c-0.39,0.264-0.784,0.529-1.167,0.792
	c-4.599,3.152-8.676,6.176-12.194,9.026c-0.267,0.216-0.533,0.431-0.793,0.646c-0.14,0.115-0.249,0.22-0.388,0.334
	c-1.288,1.068-2.49,2.107-3.61,3.119c-0.397,0.357-0.8,0.716-1.175,1.066c-1.352,1.262-2.611,2.492-3.678,3.648
	c-0.476,0.515-0.896,1.09-1.31,1.67c-5.399,7.555-5.722,20.473-4.099,37.019c0.635,6.479,1.564,13.51,2.597,20.986
	c0.259,1.869,0.523,3.766,0.791,5.689c0.372,2.669,0.667,5.471,0.928,8.346c0.366,4.015,0.667,8.177,1.015,12.35
	c0.239,2.864,0.501,5.733,0.824,8.559c0.321,2.826,0.704,5.61,1.184,8.305c0.66,3.713,1.525,7.238,2.651,10.495
	c0.271,0.783,0.567,1.538,0.872,2.286c0.869,2.132,1.881,4.113,3.067,5.91c1.066,1.615,2.241,3.112,3.61,4.396
	c0.203,0.19,0.522,0.372,0.784,0.558c-2.347,4.312-5.077,9.553-7.932,15.473c-0.53,1.098-1.062,2.219-1.598,3.362
	c-0.608,1.295-1.217,2.616-1.828,3.964c-0.507,1.118-1.012,2.253-1.519,3.404c1.166,1.093,2.332,2.142,3.5,3.394
	c12.428,13.316,16.593,23.448,17.991,29.025c1.147-5.456,2.323-10.906,3.339-16.391c0.606-3.27,5.584-1.877,4.982,1.373
	c-6.036,32.595-14.395,64.721-25.01,96.124c-1.06,3.138-6.049,1.784-4.982-1.373c1.963-5.808,3.767-11.666,5.576-17.521
	c-5.631-0.504-11.303-2.123-16.794-4.794c0.564,17.515-0.74,33.756-3.014,48.875c-0.132,0.88-0.267,1.754-0.406,2.627
	c-0.968,6.1-2.081,12.016-3.281,17.764c-0.224,1.077-0.45,2.15-0.68,3.215c-2.789,12.911-5.94,24.969-8.717,36.286
	c-1.921,7.832-3.66,15.316-4.969,22.498c-2.617,14.363-3.513,27.518-0.703,39.834c1.055,4.618,2.629,9.118,4.83,13.52
	c2.737,5.475,6.824,9.371,11.772,12.048c1.978,1.071,4.095,1.946,6.318,2.649c3.335,1.055,6.909,1.723,10.617,2.082
	c27.192,2.628,61.589-11.385,61.591-11.386c0,0-2.079,11.993-2.234,28.649c-0.394,42.312,11.681,114.651,101.743,96.956
	c0.538-0.106,1.026-0.155,1.57-0.267c0,0.002,0.001,0.005,0.001,0.007c0.703,2.969,1.544,5.891,2.448,8.788
	c0.258,0.827,0.535,1.645,0.809,2.466c0.751,2.252,1.56,4.48,2.428,6.684c0.268,0.682,0.519,1.37,0.799,2.049
	c1.148,2.787,2.381,5.539,3.709,8.245c0.252,0.513,0.53,1.014,0.788,1.525c1.134,2.242,2.327,4.454,3.578,6.637
	c0.42,0.732,0.842,1.461,1.274,2.186c1.388,2.328,2.831,4.626,4.347,6.882c0.192,0.286,0.369,0.579,0.562,0.864
	c1.737,2.547,3.566,5.038,5.457,7.489c0.436,0.564,0.887,1.115,1.33,1.673c1.562,1.969,3.172,3.905,4.828,5.807
	c0.463,0.53,0.917,1.066,1.387,1.592c2.106,2.356,4.266,4.671,6.51,6.916c0.041,0.042,0.085,0.081,0.127,0.122
	c2.184,2.181,4.447,4.295,6.752,6.369c0.512,0.46,1.029,0.915,1.548,1.37c2.126,1.869,4.296,3.697,6.515,5.472
	c0.28,0.224,0.551,0.455,0.832,0.677c2.573,2.033,5.205,4.001,7.889,5.903c0.305,0.215,0.615,0.421,0.921,0.634
	c2.38,1.666,4.804,3.277,7.263,4.837c0.485,0.307,0.967,0.616,1.454,0.92c5.577,3.469,11.337,6.667,17.247,9.569
	c0.435,0.213,0.872,0.418,1.307,0.628c2.679,1.291,5.385,2.524,8.118,3.693c0.339,0.145,0.675,0.297,1.014,0.44
	c3.126,1.316,6.281,2.56,9.466,3.712c-56.461-53.726-48.074-142.15-65.56-212.092c-5.166-20.665-67.162-10.332-87.827-46.496
	c-18.407-36.815-22.184-75.238-15.28-111.763c-22.788-5.411-42.182-19.967-48.512-38.957
	c-10.782-32.346-10.108-97.373,18.194-135.784c17.658-23.964,51.475-30.712,90.042-31.062c0.689-0.911,1.353-1.838,2.052-2.743
	c11.508-12.947,23.034-25.052,34.989-36.174c31.285-6.948,61.898-11.698,87.394-11.698c92.589,0,264.64,59.44,264.64,59.44
	s4.598,9.755,10.898,25.076c0.513-0.301,1.05-0.546,1.537-0.909c0.055-0.04,0.105-0.092,0.16-0.133
	c0.911-0.697,1.786-1.482,2.62-2.366c0.002-0.001,0.002-0.001,0.002-0.002l0,0C1317.847,671.697,1259.859,643.832,1212.503,618.463z
	"/>
<path style="fill:#A4160D;" d="M805.727,1053.677c0.155-16.652,2.233-28.643,2.234-28.649c-0.003,0.001-34.399,14.014-61.591,11.386
	c-3.708-0.358-7.282-1.027-10.617-2.082c-2.223-0.703-4.34-1.578-6.318-2.649c-4.948-2.676-9.034-6.572-11.772-12.047
	c-0.187-0.374-0.331-0.755-0.509-1.13c-80.287,10.972-139.412,25.954-158.363,89.912c-11.566,39.037-7.62,74.569-1.476,99.139
	c24.511-28.707,83.54-33.656,102.63-20.433c6.418,4.445,11.755,18.399,14.179,32.406c1.295-7.385,2.788-14.736,4.499-22.038
	c5.878-25.098,13.802-49.773,23.846-73.516c2.2-5.202,4.514-10.379,6.951-15.503c-0.049-0.182-0.132-0.338-0.145-0.546
	c-0.871-14.282,1.017-28.658,5.541-42.232c1.048-3.144,6.035-1.788,4.982,1.374c-3.412,10.235-5.218,20.845-5.48,31.568
	c6.706-12.888,14.393-25.259,23.58-36.494c2.106-2.576,5.741,1.1,3.654,3.653c-7.99,9.771-14.713,20.543-20.713,31.629
	c-11.942,22.065-21.12,45.609-28.548,69.545c-6.981,22.49-12.558,45.594-15.509,68.978c-0.123,0.969-0.683,1.617-1.375,2.012
	c-0.273,4.791-1.112,8.944-2.709,11.781c-0.491,0.872-1.348,1.739-2.491,2.598c-0.233,1.673-0.464,3.347-0.682,5.018
	c0.985,1.882,1.844,3.874,2.476,6.051c0.589,2.028,1.067,4.006,1.559,5.989c22.56,3.426,108.745,22.237,215.838,35.005
	c4.52-51.936,10.455-104.157,18.071-153.768C817.408,1168.328,805.333,1095.988,805.727,1053.677z"/>
<path d="M779.715,1773.476c-4.028,1.803-1.83,109.327,24.539,132.29c-13.141,4.043-2.625,20.879-2.625,20.879
	s-62.331,27.948-74.833,33.568c-24.447,10.969-12.326,42.212,15.799,44.61c28.304,2.414,98.515-3.259,131.403-19.205
	c33.356-16.173,1.011-65.702,1.011-65.702s-1.883-25.823,3.032-45.485c8.038-32.151,24.02-65.193,20.216-70.756
	c-1.249-1.827-6.64-4.312-14.428-7.073c-20.132-7.138-56.496-16.14-80.605-20.632
	C790.905,1773.676,781.773,1772.551,779.715,1773.476z"/>
<path style="fill:#A4160D;" d="M1242.089,1597.642c-14.825-47.17-17.52-101.079-17.52-101.079
	c-1.348-10.782,0.316-23.361-1.348-45.823c-78.168,14.825-258.763,25.607-342.322,0c0.868-12.14,2.035-42.302,3.283-69.341
	c-103.596-11.708-186.906-29.654-216.693-38.077c-4.499,8.608-10.285,16.144-17.052,22.511c-1.999,1.881-4.081,3.606-6.213,5.223
	c-8.448,20.47-16.481,39.764-17.533,48.855c0,0,0,0,0,0c95.175,21.395,153.128,113.04,256.903,88.781
	c-0.337,34.704-9.434,81.2-27.488,85.996c-52.031-5.681-104.388-26.338-151.508-48.733c27.796,43.874,71.913,83.302,127.127,113.161
	c-5.398,13.441-10.092,27.153-13.989,41c-6.971,24.766-11.493,50.255-14.509,75.854c24.109,4.492,60.473,13.494,80.605,20.632
	c0.59-6.53,1.299-13.047,2.108-19.556c4.321-29.171,11.178-57.946,21.602-85.532c48.33,15.809,101.69,24.896,157.841,24.896
	c69.115,0,134.035-13.721,190.485-36.888c0.801,1.728,1.547,3.482,2.319,5.223c11.92,29.642,19.609,60.742,24.285,92.319
	c0.809,6.503,1.518,13.015,2.106,19.538c20.088-7.122,56.341-16.102,80.451-20.603c-0.999-8.416-2.14-16.822-3.449-25.217
	c-4.742-30.433-12.386-60.478-24.025-89.031c-2.793-6.851-5.744-13.607-8.796-20.31c34.184-22.332,62.892-48.555,84.604-77.104
	C1368.974,1578.224,1310.562,1591.636,1242.089,1597.642z"/>
<path d="M1270.149,1803.676c-3.804,5.563,12.178,38.605,20.216,70.756c4.916,19.663,3.033,45.485,3.033,45.485
	s-32.346,49.529,1.01,65.702c32.889,15.945,103.1,21.618,131.404,19.205c28.125-2.398,40.246-33.641,15.799-44.61
	c-12.502-5.62-74.832-33.568-74.832-33.568s10.515-16.836-2.625-20.879c26.368-22.963,28.567-130.487,24.538-132.29
	c-2.067-0.928-11.265,0.208-23.664,2.523c-24.11,4.501-60.362,13.481-80.451,20.603
	C1276.789,1799.364,1271.399,1801.849,1270.149,1803.676z"/>
<path style="fill:#FEF6F2;" d="M1224.569,1496.563c0,0,2.696,53.909,17.52,101.079c68.473-6.006,126.885-19.418,171.272-33.304
	c51.639-16.155,84.286-32.949,91.534-39.473c13.477-12.129-1.517-74.798-8.087-97.036
	C1450.986,1466.913,1381.382,1490.628,1224.569,1496.563z"/>
<path style="fill:#F1DBD1;" d="M883.594,1508.692c-103.775,24.259-161.727-67.386-256.903-88.781c0,0,0,0,0,0l0,0
	c-6.895,17.3-15.338,71.935-9.274,82.044c25.408,12.704,55.092,28.752,87.18,44.002c47.121,22.395,99.477,43.052,151.508,48.733
	C874.159,1589.893,883.257,1543.397,883.594,1508.692z"/>
<path style="fill:#E5251D;" d="M1220.56,1384.668c1.611,23.779,2.522,46.042,2.661,66.073c1.664,22.462,0,35.041,1.348,45.823
	c156.814-5.935,226.418-29.65,272.24-68.734c-3.422-30.421-28.389-62.045-41.045-85.625c-0.008,2.765-0.254,4.675-0.808,5.327
	C1453.667,1349.046,1351.451,1372.123,1220.56,1384.668z"/>
<path style="fill:#191910;" d="M1220.56,1384.668c-0.163,0.015-0.323,0.033-0.486,0.048c-4.214,0.403-7.93-2.753-8.261-6.974
	c-1.552-19.803-3.954-39.476-4.854-59.959c-0.158-3.593,2.636-6.668,6.22-6.945c0.214-0.016,0.424-0.034,0.637-0.051
	c-5.389-47.67-12.972-98.299-22.441-147.885c-33.393,18.569-86.705,20.727-98.707,112.465c-27.57,1.88-56.126-3.499-82.385-14.557
	c-0.339-0.143-0.676-0.295-1.014-0.44c-2.733-1.169-5.438-2.402-8.118-3.693c-0.436-0.21-0.873-0.415-1.307-0.628
	c-5.911-2.903-11.67-6.099-17.247-9.569c-0.487-0.303-0.969-0.612-1.454-0.92c-2.459-1.561-4.882-3.171-7.263-4.837
	c-0.306-0.214-0.616-0.419-0.921-0.634c-2.685-1.903-5.316-3.87-7.889-5.903c-0.28-0.222-0.552-0.453-0.832-0.677
	c-2.219-1.775-4.389-3.602-6.515-5.472c-0.518-0.455-1.035-0.91-1.548-1.37c-2.305-2.073-4.569-4.187-6.752-6.369
	c-0.041-0.042-0.085-0.081-0.127-0.122c-2.244-2.246-4.404-4.56-6.51-6.916c-0.47-0.526-0.924-1.062-1.387-1.592
	c-1.656-1.902-3.266-3.837-4.828-5.807c-0.443-0.558-0.894-1.11-1.33-1.673c-1.891-2.451-3.721-4.941-5.457-7.489
	c-0.194-0.284-0.37-0.578-0.562-0.864c-1.516-2.256-2.959-4.553-4.347-6.882c-0.432-0.725-0.855-1.454-1.274-2.186
	c-1.251-2.183-2.444-4.395-3.578-6.637c-0.258-0.51-0.536-1.011-0.788-1.525c-1.328-2.707-2.56-5.458-3.709-8.245
	c-0.28-0.678-0.531-1.367-0.799-2.049c-0.867-2.205-1.676-4.432-2.428-6.684c-0.274-0.821-0.55-1.639-0.809-2.466
	c-0.904-2.898-1.744-5.819-2.448-8.788c0-0.002-0.001-0.005-0.001-0.007c-0.544,0.112-1.032,0.161-1.57,0.267
	c-7.616,49.611-13.552,101.832-18.071,153.768c0.383,0.045,0.759,0.093,1.143,0.139c4.669,0.554,8.022,4.811,7.413,9.473
	c-2.702,20.685-5.216,40.172-5.345,60.269c-0.026,4.285-3.701,7.653-7.959,7.172c-0.158-0.017-0.312-0.036-0.469-0.054
	c-1.247,27.04-2.415,57.201-3.283,69.341c83.559,25.607,264.155,14.825,342.322,0
	C1223.082,1430.71,1222.171,1408.447,1220.56,1384.668z"/>
<path style="fill:#E5251D;" d="M689.97,341.337C700.303,362.002,710.635,393,736.467,393c111.218-3.707,256.974,19.226,330.449,105
	c86.987,8.688,204.897,42.989,251.18,75.354c-1.506-97.246-55.927-125.363-111.208-220.842
	c-41.695-72.013-146.741-120.116-201.998-103.943c-60.388,17.675-252.024,97.036-252.024,97.036s5.174-33.285,4.09-64.773
	c-1.571,0.622-3.294,1.024-5.174,1.134c-5.97,0.353-11.123-3.161-13.504-7.989c-1.876,3.051-4.125,5.836-7.072,8
	c-4.869,3.581-11.408,5.251-17.132,2.756c-5.421-2.362-8.956-7.846-10.113-13.512c-0.931-4.556-0.46-9.122,0.547-13.597
	c-4.078,1.392-8.802,0.872-12.097-2.26c-0.966-0.918-1.643-1.988-2.195-3.107c-0.101,0.119-0.202,0.229-0.303,0.349
	C681.761,281.836,681.241,312.965,689.97,341.337z"/>
<path style="fill:#A4160D;" d="M736.467,393c-25.831,0-36.163-30.998-46.496-51.663c-8.73-28.372-8.209-59.501-0.058-88.73l0,0
	c0,0.001-0.002,0.002-0.003,0.003c-0.985,1.174-1.964,2.396-2.941,3.626c-0.371,0.467-0.744,0.931-1.114,1.406
	c-0.954,1.225-1.903,2.473-2.848,3.745c-0.339,0.456-0.674,0.919-1.011,1.382c-3.301,4.522-6.541,9.309-9.695,14.302
	c-0.085,0.134-0.171,0.264-0.256,0.399c-0.972,1.545-1.933,3.116-2.889,4.695c-0.273,0.452-0.546,0.903-0.818,1.357
	c-0.935,1.562-1.862,3.135-2.78,4.725c-0.208,0.361-0.413,0.726-0.621,1.088c-2.963,5.177-5.827,10.479-8.574,15.834
	c-0.195,0.38-0.393,0.758-0.586,1.139c-0.816,1.602-1.617,3.208-2.411,4.815c-0.287,0.582-0.573,1.164-0.857,1.746
	c-0.773,1.582-1.539,3.164-2.288,4.746c-0.207,0.436-0.408,0.871-0.612,1.308c-2.389,5.081-4.654,10.142-6.786,15.129
	c-0.328,0.766-0.656,1.531-0.977,2.293c-0.561,1.334-1.112,2.66-1.653,3.98c-0.353,0.861-0.698,1.715-1.042,2.57
	c-0.508,1.262-1.017,2.524-1.505,3.769c-0.369,0.94-0.718,1.86-1.075,2.789c-0.751,1.957-1.476,3.885-2.174,5.788
	c-0.39,1.061-0.782,2.125-1.154,3.166c-0.356,0.997-0.693,1.971-1.033,2.948c-0.364,1.048-0.721,2.085-1.066,3.109
	c-0.303,0.901-0.602,1.794-0.89,2.675c-0.376,1.147-0.731,2.266-1.081,3.378c-0.225,0.717-0.461,1.448-0.675,2.15
	c-0.532,1.739-1.031,3.432-1.493,5.069c-0.135,0.478-0.249,0.925-0.378,1.395c-0.335,1.217-0.654,2.411-0.946,3.563
	c-0.148,0.581-0.283,1.141-0.419,1.705c-0.25,1.029-0.48,2.025-0.693,2.993c-0.11,0.501-0.222,1.005-0.322,1.489
	c-0.233,1.128-0.434,2.2-0.612,3.229c-0.042,0.249-0.099,0.521-0.138,0.765c-0.202,1.245-0.356,2.402-0.469,3.485
	c-0.029,0.287-0.041,0.54-0.064,0.816c-0.067,0.776-0.111,1.51-0.125,2.188c-0.007,0.299-0.005,0.585-0.001,0.865
	c0.008,0.608,0.044,1.161,0.103,1.672c0.024,0.214,0.041,0.444,0.074,0.641c0.111,0.654,0.256,1.239,0.469,1.688
	c6.022,12.797,14.965,23.656,25.521,32.863c0.39,0.341,0.795,0.663,1.19,0.999c3.264,2.778,6.658,5.423,10.179,7.902
	c1.933,1.36,3.899,2.677,5.892,3.95c5.979,3.821,12.202,7.257,18.502,10.344c12.601,6.174,25.515,10.952,37.419,14.616
	c3.967,1.221,7.824,2.319,11.519,3.303c3.694,0.984,7.229,1.854,10.552,2.623c13.295,3.071,23.231,4.496,26.673,4.944
	c0.861,0.112,1.316,0.162,1.316,0.162v0.001c-0.004,0.003-10.448,12.193-15.535,42.28c-1.211,7.164-2.119,15.344-2.509,24.615
	c-0.157,3.708-0.229,7.592-0.207,11.655c0.035,6.163,0.295,12.745,0.821,19.753c0.26-0.214,0.527-0.43,0.793-0.646
	c3.514-2.849,7.6-5.874,12.194-9.026c0.384-0.263,0.777-0.527,1.167-0.792c2.174-1.473,4.449-2.968,6.84-4.488
	c0.203-0.128,0.394-0.255,0.598-0.384c5.408-3.419,11.358-6.936,17.782-10.499c0.299-0.166,0.6-0.331,0.901-0.497
	c3.179-1.752,6.454-3.51,9.858-5.273c0.005-0.003,0.008-0.005,0.013-0.007c56.267-29.142,142.498-58.837,231.264-56.641
	c9.619,0.238,19.925,0.936,30.688,2.012C993.44,412.226,847.685,389.293,736.467,393z"/>
<path style="fill:#FEF6F2;" d="M1332.226,585.668c-3.361-4.033-8.187-8.159-14.13-12.314
	c-46.283-32.365-164.193-66.666-251.18-75.354c-10.763-1.075-21.069-1.774-30.688-2.012
	c-88.765-2.196-174.997,27.499-231.264,56.641c3.908,18.438,13.744,34.759,30.4,45.168c25.831,15.499,51.662,36.164,82.66,25.831
	c92.993-36.163,201.486-56.829,294.478-5.166c47.357,25.37,105.344,53.234,102.594,100.397
	c10.661-11.312,14.797-38.204,19.15-64.121C1338.891,627.098,1345.115,601.135,1332.226,585.668z"/>
<g>
	<path style="fill:#FEF6F2;" d="M1347.281,833.672c-6.823,3.756-13.995,5.914-21.061,6.252c1.977,5.405,4.078,10.766,6.442,16.024
		c1.354,3.01-3.1,5.635-4.461,2.607c-13.826-30.748-21.351-63.999-21.995-97.715c-0.064-3.331,5.103-3.32,5.166,0
		c0.099,5.16,0.42,10.306,0.845,15.443c1.353-4.599,4.421-11.597,11.412-20.482c-4.479-12.624-8.976-24.112-12.837-33.503
		c0.514-0.297,1.034-0.583,1.524-0.94c-0.487,0.363-1.024,0.608-1.537,0.909c-6.3-15.321-10.898-25.076-10.898-25.076
		s-172.051-59.44-264.64-59.44c-24.936,0-54.766,4.543-85.332,11.243c-0.687,0.151-1.375,0.302-2.062,0.455
		c-11.955,11.122-23.481,23.228-34.989,36.174c-0.699,0.906-1.363,1.832-2.052,2.743c44.764-0.406,95.927,7.814,135.702,7.814
		c74.052,0,158.149-14.755,187.334,14.825c49.492,50.162,52.561,109.166,44.475,141.511c-9.311,37.242-76.855,58.752-116.672,42.209
		c-8.437-1.381-16.601-3.585-24.101-6.574c-0.133-0.054-0.261-0.11-0.394-0.165c-6.575-2.654-12.66-5.855-17.835-9.695
		c-3.125-2.318-6.216-5.21-9.234-8.525c-4.514,7.14-11.774,13.373-20.976,18.151c28.579,5.466,45.17,40.032,74.011,44.959
		c18.726,3.199,36.812-7.159,52.992-17.114c22.013-13.543,44.027-27.086,66.04-40.63c12.114-7.453,26.508-15.179,39.837-10.216
		c11.944,4.447,18.153,17.473,21.871,29.662c5.474,17.945,8.121,36.737,7.9,55.496c2.282,1.827,4.563,3.653,6.845,5.479
		c1.126,0.902,0.861,2.716,0,3.653c-0.436,0.476-1.193,0.757-1.827,0.757c-0.739,0-1.272-0.313-1.827-0.757
		c-1.126-0.901-2.253-1.803-3.38-2.704c-0.389,7.85-1.448,15.798-5.082,22.737c-3.914,7.472-11.336,13.598-19.768,13.847
		c-9.204,0.272-18.146-6.25-27.056-3.926c-12.99,3.388-14.357,20.721-17.11,33.86c-7.396,35.299-47.955,59.698-82.605,49.692
		c13.432,21.002,4.116,50.099-13.236,68c-17.352,17.901-40.955,28.003-62.459,40.616c-11.243,6.595-22.168,14.238-31.127,23.78
		c-6.581,7.01-12.072,19.451-22.664,20.747c-6.792,0.831-13.344-1.981-19.354-6.724c0.593,4.356,1.185,8.714,1.779,13.07
		c0.189,1.388-0.312,2.767-1.804,3.178c-1.216,0.334-2.989-0.421-3.178-1.805c-0.902-6.635-1.805-13.27-2.708-19.905
		c-11.086-11.68-19.588-28.88-22.944-39.011c-8.991-27.138-8.345-56.358-11.209-84.802c-2.865-28.444-10.357-58.365-31.352-77.769
		c-11.047-10.21-25.159-16.82-35.515-27.73c-14.751-15.541-19.895-39.53-12.812-59.707c-2.996-2.938-5.558-6.317-7.479-10.042
		c-0.664-1.287-0.3-2.743,0.926-3.534c1.13-0.728,2.914-0.276,3.535,0.927c0.847,1.642,1.807,3.221,2.888,4.72l0.448,0.609
		c0.072,0.096,0.074,0.1,0.099,0.135c0.026,0.031,0.032,0.037,0.114,0.138l0.8,0.972c0.257,0.301,0.538,0.582,0.804,0.875
		c9.1-19.109,29.493-32.516,50.698-32.626c6.283-0.033,12.477,1.003,18.648,2.305c-8.106-3.839-14.909-8.732-19.829-14.406
		c-1.418,1.288-2.842,2.505-4.278,3.57c-21.92,16.263-59.143,22.092-88.201,15.504c-13.123,3.518-26.797,3.379-39.457,0.374
		c-6.904,36.526-3.127,74.948,15.28,111.763c20.665,36.164,82.661,25.831,87.827,46.496c17.482,69.926,9.104,158.324,65.523,212.054
		c23.588,8.542,48.653,12.539,72.957,10.882c12.003-91.738,65.314-93.897,98.707-112.465c19.099-10.62,31.687-26.603,26.293-67.793
		c102.428,4.043,92.994-90.297,92.994-90.297s31.549,12.986,55.184-2.325c4.992-3.233,9.637-7.699,13.55-13.848
		C1397.499,960.191,1350.768,917.306,1347.281,833.672z"/>
	<path style="fill:#FEF6F2;" d="M1019.748,1264.522c-0.013-0.012-0.024-0.025-0.037-0.037c-3.169-1.148-6.318-2.365-9.428-3.675
		C1013.408,1262.126,1016.563,1263.37,1019.748,1264.522z"/>
</g>
<path style="fill:#F6B09D;" d="M767.493,777.6c-1.398-5.577-5.563-15.709-17.991-29.025c-1.168-1.252-2.334-2.301-3.5-3.394l0,0
	c-27.089-25.378-53.1-8.622-52.094,20.578c1.153,33.435,19.481,58.938,40.696,69.258c0,0,0,0,0,0
	c5.491,2.671,11.164,4.29,16.794,4.794c3.167-10.257,6.164-20.563,8.853-30.953c-1.068,1.78-4.162,2.073-4.648-0.466
	c-0.863-4.506-1.95-8.947-3.194-13.337c-2.29-5.956-5.723-12.34-11.729-14.714c-7.146-2.825-15.769,1.589-17.713,9.015
	c-0.843,3.218-5.825,1.845-4.982-1.374c2.57-9.819,13.728-16.011,23.419-12.852c1.497,0.488,2.837,1.198,4.11,1.998
	c-0.503-0.994-0.919-2.02-1.465-2.998c-3.069-5.503-6.643-10.85-10.711-15.665c-4.015-4.751-9.097-9.381-15.711-9.039
	c-3.328,0.173-3.308-4.995,0-5.166c13.79-0.715,23.373,14.56,29.516,24.891c4.526,7.61,7.69,15.763,10.11,24.173
	c0.471,1.204,0.91,2.406,1.31,3.586c0.164,0.487,0.15,0.91,0.064,1.301c0.724,2.913,1.391,5.846,1.958,8.807
	c0.033,0.171-0.008,0.313-0.004,0.473C763.124,797.586,765.389,787.611,767.493,777.6z"/>
<path style="fill:#DA8C71;" d="M760.586,807.019c-0.568-2.961-1.234-5.893-1.958-8.807c0.086-0.391,0.1-0.815-0.064-1.301
	c-0.399-1.18-0.838-2.382-1.31-3.586c-2.421-8.409-5.584-16.563-10.11-24.173c-6.143-10.331-15.727-25.607-29.516-24.891
	c-3.308,0.172-3.328,5.339,0,5.166c6.614-0.343,11.697,4.288,15.711,9.039c4.068,4.815,7.642,10.162,10.711,15.665
	c0.545,0.978,0.962,2.004,1.465,2.998c-1.273-0.8-2.613-1.51-4.11-1.998c-9.691-3.159-20.848,3.032-23.419,12.852
	c-0.843,3.219,4.139,4.592,4.982,1.374c1.944-7.426,10.567-11.84,17.713-9.015c6.006,2.374,9.439,8.758,11.729,14.714
	c1.244,4.39,2.33,8.832,3.194,13.337c0.486,2.538,3.58,2.246,4.648,0.466c0.117-0.453,0.213-0.912,0.33-1.366
	C760.578,807.332,760.619,807.19,760.586,807.019z"/>
<path style="fill:#F6B09D;" d="M1326.22,839.925c7.066-0.338,14.238-2.496,21.061-6.252c20.113-11.071,37.048-35.826,38.155-67.914
	c1.05-30.457-27.292-47.508-55.594-17.184c-2.36,2.529-4.411,4.938-6.213,7.229c-6.991,8.884-10.059,15.883-11.412,20.482
	C1314.013,798.018,1318.727,819.446,1326.22,839.925z M1320.781,796.911c0.397-1.174,0.834-2.37,1.302-3.568
	c2.42-8.418,5.583-16.581,10.117-24.191c6.153-10.328,15.72-25.607,29.517-24.891c3.314,0.172,3.323,5.339,0,5.166
	c-6.778-0.352-11.958,4.515-16.018,9.402c-3.93,4.731-7.411,9.932-10.405,15.301c-0.545,0.978-0.962,2.004-1.464,2.998
	c1.272-0.8,2.613-1.51,4.109-1.998c9.69-3.159,20.848,3.033,23.418,12.852c0.844,3.224-4.14,4.587-4.982,1.374
	c-1.943-7.421-10.569-11.847-17.713-9.015c-6.007,2.381-9.438,8.756-11.728,14.714c-1.244,4.39-2.331,8.832-3.195,13.338
	c-0.625,3.267-5.604,1.875-4.981-1.373c0.567-2.961,1.233-5.896,1.958-8.81C1320.632,797.819,1320.617,797.396,1320.781,796.911z"/>
<path style="fill:#DA8C71;" d="M1318.76,807.019c-0.622,3.249,4.356,4.641,4.981,1.373c0.863-4.506,1.951-8.948,3.195-13.338
	c2.29-5.957,5.721-12.332,11.728-14.714c7.144-2.832,15.77,1.594,17.713,9.015c0.842,3.213,5.826,1.851,4.982-1.374
	c-2.571-9.818-13.728-16.011-23.418-12.852c-1.497,0.488-2.838,1.198-4.109,1.998c0.502-0.994,0.918-2.02,1.464-2.998
	c2.994-5.369,6.475-10.571,10.405-15.301c4.06-4.887,9.241-9.754,16.018-9.402c3.323,0.173,3.314-4.994,0-5.166
	c-13.797-0.716-23.364,14.563-29.517,24.891c-4.534,7.61-7.697,15.773-10.117,24.191c-0.469,1.198-0.905,2.394-1.302,3.568
	c-0.164,0.484-0.15,0.908-0.064,1.298C1319.993,801.124,1319.327,804.058,1318.76,807.019z"/>
<path style="fill:#F1DBD1;" d="M826.36,204.311c0.559-10.9-7.272-20.511-17.275-23.749c2.56-4.06,3.101-9.353,0.914-13.761
	c-2.286-4.604-6.922-7.248-11.832-7.587c2.708-11.363-0.323-23.905-10.692-30.504c-8.317-5.293-19.586-3.982-26.043,3.141
	c-4.154-8.168-10.158-16.265-20.293-15.875c-9.907,0.38-12.805,8.928-13.059,17.232c-10.888-5.93-23.508-10.594-35.182-4.013
	c-5.117,2.883-8.81,7.767-9.585,13.647c-0.673,5.103,0.75,10.101,3.098,14.614c-6.409-0.293-12.924,2.772-15.99,8.756
	c-3.143,6.136-1.755,13.651,2.567,18.73c-9.697,3.023-16.886,13.324-14.627,23.701c1.896,8.707,10.164,14.867,18.801,15.642
	c-3.085,4.891-3.663,11.361,0.146,16.125c2.894,3.619,7.476,5.065,11.808,4.549c-0.395,2.483-0.02,5.033,1.098,7.299
	c0.552,1.119,1.229,2.189,2.195,3.107c3.295,3.132,8.018,3.652,12.097,2.26c-1.007,4.475-1.479,9.041-0.547,13.597
	c1.157,5.666,4.692,11.15,10.113,13.512c5.724,2.495,12.263,0.825,17.132-2.756c2.946-2.164,5.195-4.949,7.072-8
	c2.381,4.827,7.534,8.342,13.504,7.989c1.88-0.111,3.603-0.512,5.174-1.134c4.896-1.939,8.26-6.112,9.826-11.05
	c6.385,7.536,17.876,10.053,26.875,3.369c9.411-6.99,10.251-19.926,3.913-28.427c5.4-0.057,10.554-1.915,13.515-7.102
	c2.22-3.889,1.555-8.77-0.988-12.061C818.962,222.306,825.861,214.044,826.36,204.311z"/>
<path style="fill:#FEF6F2;" d="M791.655,199.01c0.373-7.28-4.857-13.699-11.538-15.862c1.709-2.712,2.071-6.247,0.61-9.191
	c-1.527-3.075-4.624-4.841-7.902-5.067c1.809-7.589-0.216-15.966-7.141-20.374c-5.555-3.536-13.081-2.66-17.394,2.097
	c-2.775-5.456-6.784-10.863-13.553-10.602c-6.617,0.253-8.552,5.963-8.722,11.509c-7.271-3.961-15.701-7.076-23.497-2.681
	c-3.418,1.926-5.884,5.188-6.402,9.115c-0.45,3.409,0.501,6.746,2.07,9.76c-4.282-0.195-8.633,1.852-10.68,5.848
	c-2.099,4.098-1.171,9.117,1.715,12.51c-6.477,2.019-11.278,8.899-9.77,15.83c1.266,5.815,6.789,9.93,12.557,10.446
	c-2.061,3.267-2.446,7.589,0.098,10.77c1.932,2.417,4.992,3.383,7.886,3.039c-0.394,2.478,0.248,5.095,2.2,6.95
	c2.2,2.092,5.356,2.44,8.079,1.51c-0.672,2.989-0.987,6.038-0.366,9.082c0.773,3.784,3.134,7.447,6.754,9.025
	c3.823,1.666,8.191,0.551,11.443-1.841c1.967-1.445,3.469-3.305,4.723-5.343c1.591,3.224,5.032,5.572,9.019,5.336
	c5.169-0.306,8.637-3.782,10.018-8.138c4.265,5.032,11.94,6.714,17.95,2.25c6.286-4.669,6.846-13.309,2.614-18.986
	c3.607-0.038,7.049-1.279,9.027-4.744c1.482-2.597,1.038-5.858-0.66-8.056C786.714,211.029,791.322,205.511,791.655,199.01z"/>
<path style="fill:#F4A38C;" d="M1233.842,711.007c-29.185-29.58-113.282-14.825-187.334-14.825
	c-39.775,0-90.938-8.219-135.702-7.814c-38.567,0.349-72.384,7.097-90.042,31.062c-28.303,38.411-28.976,103.438-18.194,135.784
	c6.33,18.991,25.723,33.546,48.512,38.957c12.66,3.005,26.334,3.144,39.457-0.374c-0.045-0.01-0.088-0.023-0.134-0.034
	c0,0-0.001-0.001-0.001-0.001c-3.143-0.717-6.159-1.605-9.078-2.617c-0.267-0.092-0.529-0.187-0.793-0.282
	c-2.892-1.037-5.659-2.206-8.264-3.543c-0.005-0.003-0.01-0.004-0.013-0.006l0,0c-4.859-2.495-9.227-5.457-12.79-9.021
	c-4.132-4.133-7.817-9.283-11.055-15.04c-0.008-0.013-0.015-0.025-0.022-0.039c-0.924-1.644-1.804-3.333-2.643-5.08
	c0-0.001,0-0.001,0-0.002c-2.521-5.242-4.643-10.904-6.326-16.855c-0.008-0.025-0.015-0.051-0.023-0.077
	c-0.559-1.983-1.066-3.986-1.523-6.023c0-0.002-0.001-0.003-0.001-0.005l0,0c-5.896-26.296-3.131-56.492,13.507-77.164
	c3.664-4.553,8.365-8.376,13.77-11.617c-1.008-3.117-0.968-6.564,0.918-9.312c18.105-26.372,61.371-35.019,68.856-32.54
	c4.126,1.367,6.476,8.947,6.962,16.285c36.491-4.286,84.36,4.09,119.79,4.09c27.307,0,60.59-2.881,89.535-3.107
	c0.257-7.893,2.748-16.73,7.265-18.165c7.514-2.387,50.671,6.791,68.452,33.382c1.37,2.049,1.714,4.469,1.388,6.848
	c7.383,3.7,13.695,8.339,18.361,14.136c1.471,1.828,2.79,3.757,4.036,5.731c0.362,0.564,0.732,1.12,1.077,1.695
	c0.921,1.563,1.767,3.171,2.569,4.803c17.399,35.05,6.726,85.561-15.768,108.056c-16.267,16.268-48.015,21.167-76.944,16.433
	c39.816,16.543,107.361-4.967,116.672-42.209C1286.403,820.173,1283.334,761.168,1233.842,711.007z"/>
<path style="fill:#F6B09D;" d="M1073.587,775.404c-14.138-10.819-33.938-12.336-49.22-2.099c0.669,11.017-1.346,24.161-5.267,37.518
	c7.949-1.987,16.568-3.117,25.616-3.117c12.812,0,24.79,2.221,35.144,6.043C1075.626,800.241,1073.253,786.798,1073.587,775.404z"/>
<path style="fill:#F6B09D;" d="M1151.21,721.807c-28.945,0.226-62.228,3.107-89.535,3.107c-35.43,0-83.298-8.376-119.79-4.09
	c0.283,4.288-0.063,8.49-1.081,11.325c0.516,0.019,1.027,0.052,1.542,0.075c1.78,0.076,3.555,0.163,5.32,0.277
	c0.541,0.035,1.075,0.082,1.614,0.122c1.747,0.125,3.487,0.259,5.212,0.42c0.474,0.044,0.94,0.096,1.413,0.143
	c1.789,0.177,3.565,0.366,5.321,0.578c0.383,0.046,0.758,0.097,1.138,0.145c1.857,0.234,3.692,0.482,5.502,0.753
	c0.251,0.038,0.497,0.077,0.747,0.115c1.934,0.296,3.837,0.61,5.708,0.946c0.135,0.024,0.269,0.049,0.404,0.074
	c1.966,0.357,3.889,0.733,5.773,1.13c0.061,0.013,0.121,0.026,0.181,0.038c1.949,0.414,3.846,0.846,5.693,1.3
	c0.004,0.001,0.008,0.001,0.012,0.003c7.299,1.792,13.739,3.876,18.947,6.148c0,0,0,0,0,0c2.633,1.148,4.952,2.34,6.9,3.565
	c0.068,0.043,0.147,0.085,0.216,0.128c0.854,0.546,1.622,1.099,2.326,1.655c0.113,0.089,0.251,0.176,0.36,0.265
	c0.77,0.634,1.454,1.271,2.017,1.914c0.86,0.982,1.609,2.084,2.309,3.238c1.309,2.158,2.348,4.598,3.132,7.284
	c9.35-5.11,20.072-7.522,30.817-6.26c7.715,0.906,15.12,3.542,21.685,7.559c1.191-4.681,3.087-8.706,5.813-11.821
	c8.126-9.287,38.594-17.741,71.865-19.577C1151.577,729.97,1151.072,726.037,1151.21,721.807z"/>
<path style="fill:#FEF6F2;" d="M1152.769,732.367c13.441-0.741,27.318-0.389,40.388,1.419c0.039,0.005,0.079,0.012,0.118,0.017
	c2.08,0.289,4.136,0.617,6.169,0.982c0.052,0.009,0.103,0.019,0.155,0.029c2.032,0.367,4.034,0.774,6.008,1.22
	c0.033,0.008,0.066,0.015,0.099,0.023c1.996,0.453,3.955,0.948,5.881,1.486c0.003,0.001,0.005,0.002,0.007,0.002
	c6,1.675,11.62,3.771,16.721,6.328c0.326-2.378-0.018-4.799-1.388-6.848c-17.78-26.591-60.938-35.768-68.452-33.382
	c-4.517,1.435-7.008,10.272-7.265,18.165C1151.072,726.037,1151.577,729.97,1152.769,732.367z"/>
<path style="fill:#FEF6F2;" d="M933.958,731.994L933.958,731.994c0.11,0,0.219,0.006,0.328,0.007
	c2.177,0.02,4.351,0.069,6.518,0.149l0,0c1.017-2.835,1.364-7.038,1.081-11.325c-0.486-7.338-2.836-14.918-6.962-16.285
	c-7.484-2.479-50.75,6.169-68.856,32.54c-1.886,2.748-1.926,6.195-0.918,9.312C882.85,735.782,908.553,731.793,933.958,731.994z"/>
<path d="M1213.816,1310.787c-0.214,0.016-0.423,0.034-0.637,0.051c-3.585,0.277-6.378,3.353-6.22,6.945
	c0.9,20.483,3.302,40.156,4.854,59.959c0.331,4.221,4.047,7.377,8.261,6.974c0.163-0.015,0.323-0.033,0.486-0.048
	c130.891-12.544,233.107-35.621,234.396-37.136c0.554-0.652,0.8-2.561,0.808-5.327c0.04-15.131-7.113-56.084-10.712-59.625
	c-0.016-0.015-0.033-0.046-0.049-0.06C1443.472,1281.142,1342.485,1300.794,1213.816,1310.787z"/>
<path style="fill:#781201;" d="M676.782,1235.946c2.951-23.385,8.528-46.488,15.509-68.978c7.429-23.935,16.606-47.48,28.548-69.545
	c6-11.086,12.723-21.858,20.713-31.629c2.088-2.554-1.547-6.23-3.654-3.653c-9.186,11.235-16.873,23.607-23.58,36.494
	c0.262-10.724,2.068-21.333,5.48-31.568c1.053-3.161-3.934-4.517-4.982-1.374c-4.524,13.574-6.412,27.951-5.541,42.232
	c0.013,0.208,0.096,0.364,0.145,0.546c-2.437,5.124-4.75,10.301-6.951,15.503c-10.044,23.743-17.969,48.419-23.846,73.516
	c-1.711,7.302-3.204,14.652-4.499,22.038c1.116,6.455,1.6,12.877,1.282,18.429C676.099,1237.563,676.659,1236.915,676.782,1235.946z
	"/>
<path style="fill:#781201;" d="M777.19,484.592c23.735-11.261,46.225-24.971,67.107-40.91c2.608-1.991,0.037-6.48-2.608-4.461
	c-16.623,12.688-34.301,23.896-52.778,33.647c12.737-13.166,24.91-26.868,36.455-41.101c2.076-2.56-1.557-6.237-3.654-3.653
	c-14.889,18.355-30.797,35.854-47.653,52.42C771.866,482.691,774.637,485.803,777.19,484.592z"/>
<path style="fill:#FFFFFF;" d="M707.945,212.308c1.344,5.792,8.122,8.312,13.996,9.233c8.304,1.302,17.472,1.126,24.25-3.844
	c6.779-4.97,9.335-16.101,3.209-21.856c8.523-3.759,11-16.734,4.462-23.369c-6.538-6.635-19.547-4.35-23.433,4.116
	c-0.132-4.009-3.329-7.707-7.276-8.417c-3.948-0.711-8.234,1.64-9.756,5.351l2.32,3.529c-3.463-2.462-7.939,2.465-7.675,6.705
	c0.264,4.241,2.828,8.124,2.864,12.373C710.953,201.671,706.692,206.908,707.945,212.308z"/>
<path style="fill:#FFFFFF;" d="M974.386,516.717c-11.481,2.445-24.782,7.619-27.106,19.125c-1.545,7.649,2.826,15.58,9.107,20.213
	c6.28,4.633,14.144,6.53,21.859,7.699c28.799,4.361,58.111,0.018,87.235-0.493c57.153-1.004,114.315,13.602,164.482,40.869
	c12.948,7.039,25.44,14.922,37.35,23.604c8.85,6.452,21.575,22.671,31.705,25.424c29.389,7.986,26.401-48.04,14.615-62.202
	c-7.329-8.807-18.457-13.337-29.117-17.536c-49.639-19.557-99.496-39.181-151.455-51.293
	C1081.101,510.013,1026.569,505.606,974.386,516.717z"/>
<path style="fill:#C8AAA2;" d="M921.157,655.281c-35.1,7.31-69.929,18.204-103.195,31.971c-0.04,0.017-0.081,0.033-0.122,0.049
	c-6.112,2.532-12.19,5.126-18.188,7.85c-10.097,4.586-20.037,9.549-29.583,15.205c-2.858,1.693-0.263,6.161,2.608,4.461
	c17.466-10.346,36.188-18.55,55.084-25.891c20.568-7.992,41.563-14.935,62.825-20.834c10.565-2.932,21.209-5.593,31.944-7.829
	c2.682-0.559,2.19-3.999,0.123-4.825c-0.003-0.001-0.005-0.003-0.008-0.003C922.206,655.26,921.723,655.162,921.157,655.281z"/>
<path style="fill:#F1DBD1;" d="M1270.78,710.542c1.196,0.635,2.353,1.339,3.462,2.116l0.801,0.581l0.028,0.017l0.388,0.308
	c0.54,0.435,1.065,0.887,1.576,1.356c0.973,0.892,1.893,1.843,2.751,2.846l0.632,0.762c0.016,0.02,0.06,0.073,0.109,0.131
	l0.274,0.365c0.413,0.557,0.805,1.128,1.182,1.71c0.734,1.132,2.325,1.707,3.535,0.926c1.131-0.729,1.713-2.321,0.926-3.534
	c-3.262-5.03-7.755-9.229-13.056-12.046c-1.192-0.634-2.865-0.34-3.534,0.927C1269.221,708.204,1269.506,709.864,1270.78,710.542z"
	/>
<path style="fill:#F1DBD1;" d="M1285.346,745.725c-0.353,4.379-0.706,8.758-1.058,13.137c-0.109,1.35,1.266,2.642,2.583,2.583
	c1.492-0.066,2.467-1.136,2.583-2.583c0.353-4.379,0.706-8.758,1.058-13.137c0.109-1.35-1.266-2.642-2.583-2.583
	C1286.437,743.208,1285.462,744.279,1285.346,745.725z"/>
<path style="fill:#F1DBD1;" d="M1040.751,667.724c-1.399-0.195-2.778-0.508-4.119-0.955l-0.996-0.357l-0.546-0.217l-0.031-0.02
	c-0.677-0.312-1.344-0.643-1.992-1.012c-0.614-0.349-1.212-0.726-1.792-1.129l-0.384-0.272l-0.135-0.091l-0.819-0.67
	c-1.103-0.946-2.107-1.996-3.013-3.131c-0.848-1.06-2.781-0.95-3.653,0c-1.033,1.125-0.904,2.522,0,3.653
	c3.928,4.916,9.874,8.316,16.109,9.183c1.333,0.186,2.841-0.322,3.178-1.804C1042.832,669.685,1042.183,667.923,1040.751,667.724z"
	/>
<path style="fill:#F1DBD1;" d="M1072.461,651.349c-1.189-0.628-2.866-0.352-3.534,0.927c-2.652,5.077-5.304,10.153-7.955,15.23
	c-0.626,1.197-0.347,2.862,0.926,3.534c1.189,0.629,2.866,0.352,3.535-0.927c2.651-5.077,5.304-10.154,7.955-15.23
	C1074.013,653.687,1073.734,652.022,1072.461,651.349z"/>
<path style="fill:#F1DBD1;" d="M1143.389,671.868c-3.722-2.674-7.444-5.348-11.166-8.022c-1.1-0.791-2.924-0.227-3.534,0.927
	c-0.706,1.335-0.249,2.69,0.927,3.534c3.721,2.674,7.443,5.348,11.165,8.022c1.101,0.791,2.925,0.227,3.534-0.927
	C1145.021,674.067,1144.564,672.713,1143.389,671.868z"/>
<path style="fill:#F1DBD1;" d="M1311.372,760.842c-0.063-3.32-5.23-3.331-5.166,0c0.644,33.716,8.17,66.966,21.995,97.715
	c1.361,3.027,5.815,0.403,4.461-2.607c-2.363-5.258-4.465-10.62-6.442-16.024c-7.493-20.479-12.207-41.906-14.003-63.64
	C1311.792,771.148,1311.471,766.002,1311.372,760.842z"/>
<path style="fill:#C8AAA2;" d="M760.252,808.858c-2.689,10.39-5.686,20.696-8.853,30.953c-1.808,5.856-3.612,11.714-5.576,17.521
	c-1.067,3.157,3.921,4.512,4.982,1.373c10.615-31.404,18.973-63.529,25.01-96.124c0.602-3.25-4.376-4.643-4.982-1.373
	c-1.016,5.484-2.192,10.934-3.339,16.391c-2.104,10.012-4.37,19.986-6.912,29.892C760.465,807.946,760.369,808.405,760.252,808.858z
	"/>
<path style="fill:#FEF6F2;" d="M1432.119,1025.533c-3.577-4.769-6.493-9.828-8.921-15.001c-5.588,13.555-5.373,36.987-1.869,43.968
	c18.964,37.782,90.998,41.775,111.55,25.773c7.054-5.492,12.02-23.351,12.887-39.254c-8.333,8.443-18.096,13.978-28.74,14.164
	C1494.324,1055.581,1450.313,1049.792,1432.119,1025.533z"/>
<path style="fill:#FFFFFF;" d="M1344.844,947.468c0.436-0.475,1.193-0.757,1.826-0.757c0.738,0,1.272,0.313,1.827,0.757
	c1.087,0.87,2.173,1.74,3.26,2.61c0.221-18.76-2.426-37.551-7.9-55.496c-3.718-12.19-9.928-25.215-21.871-29.662
	c-13.329-4.963-27.723,2.763-39.837,10.216c-22.014,13.543-44.027,27.086-66.04,40.63c-16.18,9.955-34.267,20.313-52.992,17.114
	c-28.842-4.927-45.433-39.493-74.011-44.959c-12.124,6.296-27.56,10.081-44.39,10.081c-15.698,0-30.15-3.322-41.869-8.872
	c-6.171-1.302-12.364-2.337-18.648-2.305c-21.205,0.11-41.598,13.516-50.698,32.626c0.355,0.39,0.698,0.79,1.07,1.164
	c0.65,0.656,1.323,1.289,2.019,1.895l1.061,0.89l0.493,0.392l0.279,0.205c1.487,1.097,3.056,2.075,4.689,2.939
	c1.275,0.675,1.558,2.339,0.927,3.534c-0.67,1.269-2.34,1.559-3.534,0.927c-3.357-1.777-6.423-4.083-9.137-6.745
	c-7.083,20.177-1.939,44.166,12.812,59.707c10.356,10.91,24.468,17.52,35.515,27.73c20.995,19.404,28.487,49.325,31.352,77.769
	c2.865,28.444,2.219,57.665,11.209,84.802c3.356,10.131,11.858,27.331,22.944,39.011c-0.105-0.778-0.211-1.556-0.317-2.333
	c-0.189-1.388,0.312-2.768,1.805-3.178c1.216-0.335,2.989,0.421,3.177,1.804c0.416,3.056,0.832,6.112,1.247,9.168
	c6.009,4.744,12.561,7.555,19.354,6.724c10.592-1.296,16.083-13.737,22.664-20.747c8.959-9.542,19.884-17.185,31.127-23.78
	c21.504-12.613,45.107-22.715,62.459-40.616c17.352-17.9,26.667-46.997,13.236-68c34.65,10.006,75.209-14.392,82.605-49.692
	c2.753-13.14,4.119-30.473,17.11-33.86c8.909-2.323,17.852,4.198,27.056,3.926c8.431-0.249,15.854-6.375,19.768-13.847
	c3.634-6.939,4.693-14.887,5.082-22.737c-2.242-1.795-4.484-3.59-6.726-5.384C1343.717,950.219,1343.983,948.405,1344.844,947.468z"
	/>
<path d="M1051.84,937.957c-14.374,2.788-29.682-2.094-40.247-12.078c-2.416-2.283-6.076,1.364-3.653,3.653
	c11.76,11.114,28.368,16.346,44.361,13.573c15.04-2.607,28.407-12.389,35.855-25.637c1.631-2.902-2.829-5.509-4.461-2.608
	C1076.999,926.772,1065.284,935.349,1051.84,937.957z"/>
<path style="fill:#F1DBD1;" d="M888.531,958.442c-1.205,0.705-1.637,2.327-0.927,3.535c3.37,5.727,6.739,11.455,10.108,17.183
	c0.707,1.202,2.328,1.633,3.535,0.927c1.204-0.705,1.636-2.327,0.926-3.534c-3.369-5.728-6.739-11.456-10.108-17.184
	C891.358,958.168,889.738,957.737,888.531,958.442z"/>
<path style="fill:#F1DBD1;" d="M987.01,958.409c-1.26,0-2.76,1.189-2.583,2.583c0.98,7.753,1.96,15.507,2.941,23.26
	c0.175,1.384,1.061,2.583,2.583,2.583c1.26,0,2.759-1.189,2.583-2.583c-0.981-7.753-1.961-15.506-2.941-23.26
	C989.419,959.609,988.531,958.409,987.01,958.409z"/>
<path style="fill:#F1DBD1;" d="M984.146,1074.5c0.508,0.46,0.995,0.944,1.461,1.449l0.681,0.772l0.298,0.361l0-0.007l0.605,0.832
	l0.568,0.859c0.365,0.58,0.703,1.177,1.014,1.789l0.405,0.843c0.01,0.021,0.033,0.068,0.055,0.113l0.191,0.478
	c0.489,1.255,1.756,2.265,3.178,1.804c1.22-0.395,2.329-1.829,1.803-3.177c-2.288-5.876-6.607-10.865-12.289-13.686
	c-1.209-0.6-2.853-0.364-3.534,0.927c-0.618,1.168-0.366,2.893,0.927,3.534c1.232,0.612,2.394,1.334,3.503,2.148l-0.005-0.005
	l0.364,0.295L984.146,1074.5z"/>
<path style="fill:#F1DBD1;" d="M987.013,1134.051c-0.96-1.012-2.685-0.968-3.653,0c-1.01,1.01-0.963,2.638,0,3.653
	c4.313,4.545,7.576,10.096,9.443,16.044c0.419,1.331,1.799,2.183,3.178,1.804c1.312-0.361,2.224-1.841,1.803-3.178
	C995.635,1145.527,991.953,1139.257,987.013,1134.051z"/>
<path style="fill:#F1DBD1;" d="M1068.92,1077.664c-1.096-0.641-2.97-0.357-3.534,0.926c-3.675,8.37-5.238,17.513-4.243,26.623
	c0.152,1.387,1.079,2.583,2.583,2.583c1.279,0,2.735-1.187,2.583-2.583c-0.889-8.153,0.232-16.484,3.537-24.015
	C1070.406,1079.922,1070.221,1078.424,1068.92,1077.664z"/>
<path style="fill:#F1DBD1;" d="M1046.686,1208.16c-1.493,0.41-1.994,1.79-1.805,3.178c0.106,0.777,0.212,1.555,0.317,2.333
	c0.903,6.635,1.806,13.27,2.708,19.905c0.189,1.384,1.962,2.139,3.178,1.805c1.492-0.411,1.993-1.79,1.804-3.178
	c-0.593-4.357-1.185-8.714-1.779-13.07c-0.415-3.056-0.832-6.112-1.247-9.168C1049.675,1208.58,1047.902,1207.825,1046.686,1208.16z
	"/>
<path style="fill:#F1DBD1;" d="M1112.902,1132.593c-1.498,0-2.461,1.188-2.583,2.583c-0.677,7.75-1.353,15.498-2.03,23.248
	c-0.121,1.391,1.275,2.583,2.583,2.583c1.498,0,2.461-1.188,2.583-2.583c0.676-7.75,1.353-15.498,2.029-23.248
	C1115.607,1133.784,1114.212,1132.593,1112.902,1132.593z"/>
<path style="fill:#F1DBD1;" d="M1071.211,985.82c-0.78-1.1-2.291-1.728-3.534-0.927c-1.091,0.703-1.763,2.355-0.927,3.534
	c3.353,4.729,6.705,9.458,10.057,14.187c0.779,1.1,2.291,1.729,3.535,0.927c1.091-0.704,1.762-2.356,0.926-3.534
	C1077.917,995.278,1074.564,990.549,1071.211,985.82z"/>
<path style="fill:#F1DBD1;" d="M1154.724,997.393c2.033-7.746,4.064-15.493,6.097-23.24c0.844-3.219-4.138-4.592-4.983-1.374
	c-2.031,7.746-4.064,15.493-6.096,23.24C1148.898,999.238,1153.88,1000.611,1154.724,997.393z"/>
<path style="fill:#F1DBD1;" d="M1173.824,1076.45c1.244-0.802,1.567-2.235,0.927-3.535c-2.442-4.953-6.344-9.148-11.034-12.045
	c-1.151-0.711-2.894-0.286-3.535,0.927c-0.667,1.263-0.302,2.775,0.927,3.534c0.534,0.33,1.057,0.675,1.567,1.039l0.362,0.263
	l0.167,0.123l0.161,0.13l0.416,0.341c0.938,0.786,1.822,1.637,2.645,2.543c0.402,0.442,0.789,0.897,1.161,1.364l-0.019-0.027
	l0.32,0.431l0.515,0.733c0.704,1.038,1.331,2.126,1.886,3.251C1170.889,1076.738,1172.709,1077.169,1173.824,1076.45z"/>
<path style="fill:#F1DBD1;" d="M1263.558,982.689c-1.464,0-2.503,1.185-2.583,2.583c-0.444,7.781-3.422,15.416-8.422,21.407
	c-0.892,1.07-1.049,2.604,0,3.653c0.919,0.919,2.755,1.077,3.654,0c5.922-7.097,9.406-15.823,9.935-25.059
	C1266.22,983.878,1264.897,982.689,1263.558,982.689z"/>
<path style="fill:#F1DBD1;" d="M1303.445,948.685c0.994,0.915,2.683,1.057,3.654,0c0.914-0.996,1.062-2.676,0-3.653
	c-4.386-4.037-8.772-8.074-13.157-12.111c-0.994-0.915-2.683-1.057-3.653,0c-0.914,0.996-1.062,2.676,0,3.653
	C1294.673,940.611,1299.059,944.648,1303.445,948.685z"/>
<path style="fill:#F1DBD1;" d="M1231.341,935.545c0.901,1.013,2.747,0.987,3.653,0c0.992-1.081,0.96-2.572,0-3.653
	c-2.696-3.032-5.391-6.065-8.086-9.097c-0.901-1.013-2.747-0.987-3.653,0c-0.993,1.081-0.961,2.573,0,3.653
	C1225.951,929.48,1228.647,932.513,1231.341,935.545z"/>
<path style="fill:#F1DBD1;" d="M1313.29,895.756c1.46,0.402,2.671-0.498,3.177-1.804c2.352-6.067,4.704-12.135,7.055-18.203
	c0.504-1.301-0.555-2.834-1.804-3.177c-1.46-0.401-2.672,0.498-3.177,1.805c-2.352,6.067-4.704,12.135-7.056,18.202
	C1310.981,893.88,1312.041,895.413,1313.29,895.756z"/>
<path style="fill:#F1DBD1;" d="M1346.67,946.711c-0.634,0-1.39,0.281-1.826,0.757c-0.861,0.937-1.127,2.751,0,3.653
	c2.242,1.794,4.484,3.589,6.726,5.384c1.126,0.901,2.253,1.803,3.38,2.704c0.555,0.444,1.088,0.757,1.827,0.757
	c0.634,0,1.39-0.281,1.827-0.757c0.861-0.937,1.126-2.751,0-3.653c-2.282-1.826-4.563-3.652-6.845-5.479
	c-1.087-0.87-2.173-1.74-3.26-2.61C1347.942,947.024,1347.408,946.711,1346.67,946.711z"/>
<path style="fill:#F1DBD1;" d="M944.038,930.469c0.632-1.195,0.348-2.859-0.927-3.534c-1.633-0.864-3.202-1.842-4.689-2.939
	l-0.279-0.205l-0.493-0.392l-1.061-0.89c-0.697-0.606-1.37-1.239-2.019-1.895c-0.371-0.375-0.714-0.774-1.07-1.164
	c-0.266-0.293-0.547-0.574-0.804-0.875l-0.8-0.972c-0.081-0.101-0.087-0.107-0.114-0.138c-0.025-0.035-0.027-0.039-0.099-0.135
	l-0.448-0.609c-1.081-1.499-2.041-3.078-2.888-4.72c-0.621-1.203-2.405-1.655-3.535-0.927c-1.226,0.791-1.59,2.248-0.926,3.534
	c1.921,3.726,4.483,7.104,7.479,10.042c2.714,2.663,5.78,4.968,9.137,6.745C941.697,932.028,943.368,931.738,944.038,930.469z"/>
<path d="M974.176,852.864c0-19.15,18.646-35.474,44.923-42.041c3.921-13.357,5.936-26.501,5.267-37.518
	c15.282-10.237,35.082-8.72,49.22,2.099c-0.334,11.393,2.039,24.837,6.272,38.345c8.103,2.992,15.166,6.982,20.824,11.713
	l86.087-92.44c2.147,0.216,4.278,0.471,6.387,0.763c-13.07-1.807-26.947-2.16-40.388-1.419
	c-33.271,1.836-63.738,10.29-71.865,19.577c-2.725,3.115-4.622,7.14-5.813,11.821c-6.565-4.017-13.97-6.653-21.685-7.559
	c-10.745-1.262-21.467,1.151-30.817,6.26c-0.783-2.686-1.823-5.126-3.132-7.284L890.404,893.763c0.046,0.01,0.089,0.024,0.134,0.034
	c29.058,6.589,66.281,0.759,88.201-15.504c1.436-1.065,2.86-2.282,4.278-3.57C977.399,868.245,974.176,860.798,974.176,852.864z"/>
<path d="M1005.331,744.416c-5.208-2.271-11.648-4.355-18.947-6.148l-128.617,138.11l1.698,1.915
	c3.563,3.564,7.931,6.526,12.79,9.021L1005.331,744.416z"/>
<path d="M933.958,731.994c-25.405-0.201-51.108,3.788-68.809,14.398c-5.406,3.24-10.106,7.063-13.77,11.617
	c-16.638,20.671-19.404,50.868-13.507,77.164L933.958,731.994z"/>
<path d="M1246.56,757.881l0.116,0.127c-3.377-4.195-7.615-7.784-12.498-10.849l-1.476-0.889l-118.724,127.487l0.65,0.619
	c1.551,1.438,3.115,2.751,4.688,3.917c2.677,1.986,5.598,3.802,8.704,5.459l0.917,0.433L1246.56,757.881z"/>
<path d="M1238.589,878.293c21.617-21.618,32.318-69.113,17.674-103.893l-0.287-0.695l-109.495,117.578l1.207,0.325
	c4.519,1.297,9.194,2.339,13.957,3.119C1190.574,899.461,1222.322,894.561,1238.589,878.293z"/>
<path style="fill:#202223;" d="M986.384,738.268L986.384,738.268c-0.004-0.001-0.008-0.002-0.012-0.003
	c-1.845-0.453-3.747-0.886-5.693-1.3c-0.06-0.012-0.12-0.025-0.181-0.038c-1.881-0.398-3.809-0.773-5.773-1.13
	c-0.135-0.024-0.269-0.049-0.404-0.074c-1.868-0.336-3.776-0.65-5.708-0.946c-0.25-0.038-0.496-0.077-0.747-0.115
	c-1.808-0.271-3.646-0.519-5.502-0.753c-0.38-0.048-0.755-0.099-1.138-0.145c-1.755-0.213-3.533-0.401-5.321-0.578
	c-0.473-0.047-0.938-0.099-1.413-0.143c-1.723-0.161-3.465-0.295-5.212-0.42c-0.54-0.039-1.073-0.086-1.614-0.122
	c-1.764-0.115-3.541-0.2-5.32-0.277c-0.515-0.023-1.026-0.056-1.542-0.075l0,0c-2.166-0.08-4.341-0.129-6.518-0.149
	c-0.109-0.001-0.218-0.007-0.328-0.008l0,0l-96.086,103.179l0,0c0,0.002,0.001,0.004,0.001,0.005
	c0.457,2.034,0.965,4.044,1.523,6.023c0.008,0.025,0.015,0.051,0.023,0.077c1.681,5.949,3.81,11.622,6.326,16.855
	c0,0.001,0,0.001,0,0.002c0.839,1.744,1.72,3.44,2.643,5.08c0.008,0.013,0.015,0.026,0.022,0.039
	c2.772,4.925,5.911,9.354,9.357,13.125L986.384,738.268z"/>
<path style="fill:#202223;" d="M1019.458,755.182L1019.458,755.182L1019.458,755.182c-0.7-1.154-1.449-2.255-2.309-3.238
	c-0.563-0.643-1.241-1.282-2.016-1.915c-0.109-0.089-0.247-0.176-0.36-0.265c-0.708-0.556-1.467-1.11-2.326-1.655
	c-0.068-0.043-0.147-0.085-0.216-0.128c-1.958-1.224-4.269-2.417-6.9-3.565c0,0,0,0,0,0l0,0L872.255,887.314l0,0
	c0.004,0.002,0.009,0.004,0.013,0.006c2.605,1.336,5.378,2.504,8.264,3.543c0.263,0.095,0.526,0.19,0.793,0.282
	c2.912,1.014,5.936,1.899,9.078,2.617c0,0,0,0.001,0.001,0.001l0,0L1019.458,755.182z"/>
<path style="fill:#202223;" d="M1205.705,736.056c-0.033-0.008-0.066-0.015-0.099-0.023c-1.973-0.447-3.977-0.853-6.008-1.22
	c-0.052-0.01-0.103-0.02-0.155-0.029c-2.031-0.366-4.089-0.692-6.169-0.982c-0.039-0.005-0.078-0.012-0.118-0.017
	c-2.109-0.292-4.24-0.547-6.387-0.763l-86.087,92.44c9.095,7.604,14.558,17.083,14.558,27.402c0,5.976-1.857,11.667-5.153,16.887
	c1.285,1.411,2.578,2.763,3.888,4.005l118.724-127.487c-6.187-3.679-13.339-6.553-21.108-8.726c-0.003,0-0.005-0.001-0.007-0.002
	C1209.663,737.004,1207.7,736.51,1205.705,736.056z"/>
<path style="fill:#202223;" d="M1255.976,773.705c-0.507-1.173-1.058-2.324-1.619-3.468c-0.802-1.632-1.648-3.24-2.569-4.803
	c-0.34-0.577-0.719-1.129-1.077-1.695c-1.246-1.975-2.565-3.903-4.036-5.731l-0.116-0.127l-117.623,126.304
	c2.624,1.379,5.372,2.644,8.214,3.803c0.133,0.054,0.261,0.111,0.394,0.165c2.881,1.161,5.862,2.212,8.937,3.13L1255.976,773.705z"
	/>
<path style="fill:#ED6D66;" d="M1100.683,825.462c-5.658-4.731-12.721-8.721-20.824-11.713c-10.355-3.823-22.332-6.043-35.144-6.043
	c-9.048,0-17.667,1.13-25.616,3.117c-26.277,6.568-44.923,22.891-44.923,42.041c0,7.934,3.223,15.38,8.841,21.859
	c4.92,5.674,11.723,10.567,19.829,14.406c11.719,5.55,26.17,8.872,41.869,8.872c16.83,0,32.266-3.786,44.39-10.081
	c9.202-4.779,16.462-11.012,20.976-18.151c0.003-0.005,0.005-0.011,0.009-0.016c3.296-5.22,5.153-10.911,5.153-16.887
	C1115.242,842.545,1109.778,833.066,1100.683,825.462z"/>
<path style="fill:#F28F86;" d="M1054.751,847.432c18.276,0,33.089-6.057,33.089-13.541c0-7.482-14.813-13.54-33.089-13.54
	c-18.27,0-33.084,6.059-33.084,13.54C1021.667,841.375,1036.481,847.432,1054.751,847.432z"/>
<path d="M1571.608,958.146c-8.086-19.542-38.411-27.628-38.411-27.628s10.109-59.637-8.086-64.691
	c-18.195-5.054-28.303,52.562-28.303,52.562s-6.064-54.583-21.422-52.167c-30.727,4.834-16.988,69.351-16.988,69.351
	s-19.374-4.603-28.303,1.011c-16.476,10.359-20.835,44.262-6.899,73.949c2.428,5.173,5.344,10.232,8.921,15.001
	c18.194,24.259,62.206,30.048,84.907,29.65c10.644-0.187,20.408-5.721,28.74-14.164
	C1567.499,1018.995,1579.453,977.105,1571.608,958.146z"/>
<path style="fill:#202223;" d="M1469.035,986.222c7.444-1.871,13.834-7.838,15.739-15.93c3.311-14.073-6.399-26.877-19.599-30.886
	c-3.188-0.968-4.551,4.017-1.373,4.982c10.137,3.079,18.194,12.633,16.178,23.643c-1.608,8.778-9.929,14.961-18.293,13.456
	c-1.77-0.833-3.617-1.531-5.531-2.068c-2.821-0.792-4.525,3.236-1.991,4.721c1.832,1.074,3.739,1.775,5.661,2.21
	c10.273,4.981,17.526,15.481,18.024,27.06c0.143,3.312,5.309,3.33,5.166,0C1482.554,1002.679,1477.183,992.807,1469.035,986.222z"/>
<path style="fill:#202223;" d="M1554.091,991.08c-1.964,3.402-4.042,7.288-7.519,9.375c-2.582,1.549-6.843,2.113-8.841-0.666
	c-2.241-3.117-0.15-7.597,1.319-10.571c1.744-3.53,3.36-6.866,3.666-10.85c0.195-2.53-3.694-3.556-4.814-1.304
	c-2.807,5.65-6.044,12.711-12.31,15.204c-6.47,2.574-12.619-0.677-12.516-7.949c0.099-6.918,2.996-14.351,5.595-20.671
	c2.967-7.212,6.876-14.009,11.441-20.322c1.951-2.698-2.529-5.279-4.461-2.608c-5.656,7.823-10.185,16.377-13.464,25.459
	c-2.616,7.249-6.356,17.151-3.099,24.744c2.905,6.772,10.875,8.742,17.456,6.492c2-0.683,3.765-1.687,5.344-2.917
	c-0.551,4.238,0.593,8.625,4.494,10.924c3.638,2.144,8.451,1.813,12.105-0.113c4.659-2.456,7.519-7.21,10.065-11.62
	C1560.217,990.803,1555.754,988.198,1554.091,991.08z"/>
<path style="fill:#A4160D;" d="M1431.71,1251.751c2.978,1.449,5.599-3.004,2.608-4.461c-18.774-9.139-34.08-24.304-43.383-42.998
	c-1.481-2.977-5.939-0.363-4.461,2.607C1396.127,1226.296,1412.229,1242.268,1431.71,1251.751z"/>
<path style="fill:#A4160D;" d="M1423.026,1175.375c-11.236-35.39-11.781-73.601-1.52-109.289c0.92-3.201-4.063-4.568-4.982-1.373
	c-8.722,30.334-9.724,62.554-3.263,93.362c-6.919-14.265-12.111-29.307-15.457-44.865c-0.699-3.249-5.68-1.874-4.982,1.373
	c4.619,21.471,12.734,42.078,23.965,60.951c0.318,0.535,0.747,0.826,1.201,1.012c0.021,0.066,0.034,0.135,0.055,0.201
	C1419.047,1179.905,1424.036,1178.556,1423.026,1175.375z"/>
<path style="fill:#A4160D;" d="M1364.367,1142.135c0.173,3.308,5.34,3.328,5.166,0c-1.89-36.208-13.836-71.542-34.455-101.38
	c-1.878-2.718-6.358-0.137-4.461,2.608C1350.722,1072.456,1362.523,1106.807,1364.367,1142.135z"/>
<path style="fill:#FEF6F2;" d="M667.519,1254.031c1.011-0.56,1.93-1.124,2.688-1.694c1.142-0.859,2-1.726,2.491-2.598
	c1.597-2.837,2.436-6.99,2.709-11.781c0.317-5.553-0.166-11.975-1.282-18.429c-2.424-14.007-7.761-27.961-14.179-32.406
	c-19.09-13.223-78.119-8.274-102.63,20.433c-2.982,3.492-5.484,7.314-7.309,11.519c-4.236,9.763-0.715,49.748,13.309,52.921
	c1.991,0.451,5.505,0.583,10.028,0.458c0.099-0.773,0.154-1.528,0.273-2.309C578.553,1238.058,646.739,1224.085,667.519,1254.031z"
	/>
<path d="M667.488,1343.322c29.786,8.423,113.097,26.369,216.693,38.077c0.158,0.018,0.312,0.037,0.469,0.054
	c4.258,0.48,7.933-2.888,7.959-7.172c0.128-20.097,2.643-39.584,5.345-60.269c0.609-4.662-2.743-8.918-7.413-9.473
	c-0.384-0.045-0.76-0.093-1.143-0.139c-107.093-12.768-193.278-31.579-215.838-35.005c-0.492-1.984-0.97-3.961-1.559-5.989
	c-0.632-2.177-1.491-4.169-2.476-6.051c-0.608-1.162-1.276-2.271-2.006-3.324c-20.78-29.946-88.966-15.973-93.903,16.114
	c-0.12,0.782-0.175,1.536-0.273,2.309c-4.348,33.897,11.055,59.686,11.055,59.686s-43.127,0-36.388,29.65
	c6.032,26.539,59.848,36.839,96.214,9.266c2.132-1.616,4.214-3.341,6.213-5.223C657.203,1359.466,662.99,1351.93,667.488,1343.322z"
	/>
<path style="fill:#FFFFFF;" d="M1056.776,1302.49c-12.281,0-22.238,9.956-22.238,22.238c0,12.281,9.956,22.237,22.238,22.237
	c12.282,0,22.237-9.956,22.237-22.237C1079.014,1312.446,1069.058,1302.49,1056.776,1302.49z"/>
<path style="fill:#FFFFFF;" d="M1056.776,1386.05c-12.281,0-22.238,9.956-22.238,22.238s9.956,22.238,22.238,22.238
	c12.282,0,22.237-9.956,22.237-22.238S1069.058,1386.05,1056.776,1386.05z"/>
</svg>
