<?xml version="1.0" encoding="UTF-8" standalone="no"?>
<!-- Created with Inkscape (http://www.inkscape.org/) -->

<svg
   version="1.1"
   id="svg6864"
   width="586.66663"
   height="178.66399"
   viewBox="0 0 586.66663 178.66399"
   sodipodi:docname="1371079_189964-OXNTUE-30.eps"
   xmlns:inkscape="http://www.inkscape.org/namespaces/inkscape"
   xmlns:sodipodi="http://sodipodi.sourceforge.net/DTD/sodipodi-0.dtd"
   xmlns="http://www.w3.org/2000/svg"
   xmlns:svg="http://www.w3.org/2000/svg">
  <defs
     id="defs6868">
    <clipPath
       clipPathUnits="userSpaceOnUse"
       id="clipPath8526">
      <path
         d="m 300,1890.65 v 0 1339.97 H 4700 V 2026.65 c 0,0 -200.03,93.52 -487.54,93.52 -98.22,0 -206.63,-10.91 -320.79,-40.19 -143.07,-36.7 -265.79,-48.12 -373.7,-48.12 -88.96,0 -167.85,7.76 -239.83,15.52 -71.98,7.76 -137.04,15.52 -198.29,15.52 -36.06,0 -70.79,-2.69 -104.85,-9.65 -50.53,-10.32 -108.53,-21.34 -170.77,-32.23 -144.7,18.82 -306.09,33.81 -452.92,33.81 -59.64,0 -116.83,-2.47 -169.6,-8.16 -61.82,-6.67 -119.87,-9.42 -175.32,-9.42 -58,0 -113.18,3.01 -166.94,7.67 22.51,14.23 44.26,31.58 64.72,52.58 v 0 0 l 119.58,88.33 -63.33,26.67 -21.26,-15.48 -117.08,15.48 -31.24,-34.94 c 0,0 -82.02,-78.66 -183.31,-92.89 -21.85,8.95 -47.11,19.91 -47.11,19.91 l 36.1,37.47 v 0 c -0.09,0.2 -0.18,0.4 -0.27,0.6 34.34,10.65 66.68,25.3 95.83,44.02 153.78,98.77 158.33,358.33 18.26,461.66 -53.98,39.82 -88.12,77.66 -121.16,108.91 32.57,6.2 65,19.98 87.49,47.76 63.75,78.75 67.5,257.5 0,296.25 -16.76,9.62 -31.68,13.93 -44.32,13.93 -26.31,0 -42.78,-18.65 -45.62,-46.78 -1.29,-12.79 0.24,-27.54 4.94,-43.4 11.93,-40.28 21.81,-89.9 21.81,-125.5 0,-24.06 -4.51,-41.72 -15.95,-45.75 -1.77,-0.62 -3.36,-0.92 -4.77,-0.92 -21.23,0 -5.34,66.16 -46.26,75.1 -4.79,1.05 -9.05,1.54 -12.8,1.54 -18.58,0 -24.95,-12.14 -24.96,-29.45 -0.01,-11.01 2.55,-24.11 6.18,-37.52 4.78,-17.63 8.76,-32.07 8.77,-43.23 0.01,-4.18 -0.54,-7.89 -1.81,-11.15 -2.43,1.29 -4.91,2.54 -7.42,3.76 -5.73,22.24 -30.47,50.34 -67.54,73.33 -4.67,5.08 -105.51,112.49 -273.17,112.49 -62.72,0 -134.76,-15.02 -214.656,-56.04 -77.879,-39.97 -128.321,-99.8 -160.328,-166.38 -15.157,32.8 -4.309,111.46 1.882,188.52 5.676,70.68 -32.824,104.27 -72.492,104.27 -14.355,0 -28.867,-4.4 -41.492,-13.04 -26.812,-18.34 -49.641,-105.58 -49.601,-194.97 0.027,-68.97 13.667,-139.22 49.601,-180.08 v 0 c 0.141,-0.16 0.281,-0.32 0.422,-0.48 0.258,-0.29 0.516,-0.58 0.777,-0.86 0.114,-0.13 0.227,-0.25 0.336,-0.38 0.024,-0.02 0.043,-0.05 0.067,-0.07 0.015,-0.02 0.035,-0.04 0.05,-0.05 0.106,-0.12 0.211,-0.24 0.321,-0.36 18.437,-20.14 41.929,-34.65 67.343,-45.05 -7.832,-49.9 -9.398,-98.69 -8.003,-141.55 -41.7,-7.27 -73.399,-43.65 -73.399,-87.43 0,-49.01 39.738,-88.75 88.75,-88.75 v 0 c 0.008,0 0.008,0 0.008,0 0.086,0 0.176,0 0.262,0 0.019,0 0.035,0 0.05,0 0.079,0 0.157,0 0.231,0 0.016,0 0.027,0 0.043,0 36.516,0.24 67.801,22.53 81.195,54.23 v 0 c 4.485,10.61 6.965,22.28 6.965,34.52 0,27.39 -12.41,51.89 -31.914,68.17 11.504,11.26 25.41,21.62 42.258,30.23 -0.617,-6.11 -0.938,-12.31 -0.934,-18.6 0,-1.37 0.016,-2.75 0.043,-4.13 0,-0.01 0,-0.03 0,-0.04 0.004,-0.12 0.008,-0.24 0.012,-0.36 v -0.01 c 0,-0.11 0.004,-0.22 0.008,-0.32 0,-0.03 0,-0.06 0,-0.09 0.004,-0.11 0.008,-0.21 0.011,-0.32 0,-0.03 0,-0.06 0,-0.09 0.004,-0.08 0.004,-0.17 0.008,-0.24 0,-0.05 0.004,-0.09 0.004,-0.13 0.004,-0.09 0.008,-0.18 0.008,-0.28 0.004,-0.05 0.004,-0.11 0.008,-0.16 0,-0.05 0.004,-0.11 0.004,-0.17 0.004,-0.05 0.004,-0.11 0.007,-0.16 0,-0.05 0.004,-0.11 0.004,-0.16 0.004,-0.09 0.008,-0.2 0.012,-0.29 0,-0.05 0,-0.09 0.004,-0.14 0.004,-0.06 0.004,-0.12 0.008,-0.18 0,-0.04 0.004,-0.08 0.004,-0.13 0.004,-0.11 0.008,-0.22 0.011,-0.33 0.004,-0.03 0.004,-0.07 0.008,-0.11 0,-0.06 0.004,-0.13 0.008,-0.19 0,-0.03 0,-0.06 0.004,-0.08 0.004,-0.13 0.008,-0.25 0.016,-0.37 0,-0.05 0.004,-0.08 0.004,-0.12 0.011,-0.22 0.023,-0.44 0.031,-0.65 0.004,-0.04 0.004,-0.07 0.004,-0.1 0.011,-0.22 0.023,-0.45 0.035,-0.67 0.004,-0.03 0.004,-0.06 0.004,-0.09 0.015,-0.23 0.027,-0.45 0.039,-0.68 0.004,-0.03 0.004,-0.05 0.004,-0.07 0.008,-0.14 0.015,-0.28 0.023,-0.42 0.004,-0.02 0.004,-0.03 0.004,-0.05 0.004,-0.07 0.008,-0.13 0.012,-0.2 0.004,-0.05 0.008,-0.09 0.008,-0.13 0.007,-0.09 0.011,-0.18 0.019,-0.27 0.004,-0.07 0.008,-0.12 0.012,-0.18 0.004,-0.06 0.008,-0.11 0.012,-0.17 0.003,-0.06 0.003,-0.11 0.007,-0.17 0.008,-0.07 0.012,-0.15 0.016,-0.22 0.004,-0.07 0.012,-0.14 0.016,-0.21 0.004,-0.05 0.007,-0.1 0.011,-0.16 0.004,-0.06 0.008,-0.13 0.012,-0.2 0.004,-0.06 0.008,-0.11 0.012,-0.16 0.008,-0.09 0.011,-0.18 0.019,-0.26 0.004,-0.05 0.008,-0.09 0.008,-0.13 0.008,-0.09 0.016,-0.17 0.02,-0.26 0.004,-0.03 0.004,-0.06 0.007,-0.09 0.008,-0.1 0.016,-0.2 0.024,-0.3 0.004,-0.03 0.004,-0.07 0.008,-0.1 0.008,-0.11 0.015,-0.23 0.023,-0.34 v 0 0 c 5.973,-75.48 55.887,-134.98 117.012,-145.39 -0.449,-5.84 -0.715,-12.05 -0.711,-18.52 0,-0.51 0,-1.02 0.004,-1.54 -50.098,-14.36 -104.817,-36.72 -148.61,-71.36 -0.003,-0.01 -0.003,-0.01 -0.007,-0.01 -0.11,-0.09 -0.223,-0.18 -0.332,-0.26 -0.016,-0.02 -0.032,-0.03 -0.047,-0.04 -0.102,-0.08 -0.196,-0.16 -0.297,-0.24 -0.024,-0.02 -0.047,-0.04 -0.07,-0.05 -0.094,-0.08 -0.184,-0.15 -0.278,-0.22 -0.027,-0.03 -0.051,-0.05 -0.078,-0.07 -0.082,-0.06 -0.176,-0.14 -0.258,-0.2 -0.035,-0.03 -0.066,-0.06 -0.101,-0.08 -0.086,-0.07 -0.168,-0.14 -0.254,-0.21 -0.031,-0.02 -0.063,-0.05 -0.09,-0.07 -0.117,-0.09 -0.227,-0.18 -0.34,-0.27 -0.043,-0.04 -0.082,-0.07 -0.125,-0.11 -0.074,-0.06 -0.141,-0.11 -0.215,-0.17 -0.058,-0.05 -0.121,-0.1 -0.183,-0.15 -0.047,-0.03 -0.102,-0.08 -0.149,-0.12 -0.062,-0.05 -0.129,-0.1 -0.195,-0.16 -0.047,-0.03 -0.102,-0.08 -0.149,-0.12 -0.062,-0.05 -0.125,-0.1 -0.187,-0.15 -0.047,-0.04 -0.102,-0.08 -0.148,-0.12 -0.063,-0.05 -0.125,-0.11 -0.188,-0.16 -0.055,-0.04 -0.102,-0.08 -0.152,-0.12 -0.063,-0.05 -0.125,-0.1 -0.188,-0.15 -0.054,-0.05 -0.094,-0.08 -0.148,-0.13 -0.063,-0.05 -0.121,-0.1 -0.188,-0.15 -0.051,-0.04 -0.105,-0.09 -0.16,-0.13 -0.058,-0.05 -0.117,-0.1 -0.176,-0.15 -0.05,-0.04 -0.117,-0.1 -0.172,-0.14 -0.054,-0.04 -0.105,-0.09 -0.16,-0.13 -0.113,-0.1 -0.218,-0.19 -0.336,-0.28 C 715.238,2136.67 709.406,2065 709.406,2065 v 0 0 c 0,0 13.707,-7.11 32.824,-16.98 -131.714,-18.8 -235.82,-37.62 -297.265,-49.5 -70.016,18.35 -123.906,34.35 -144.965,36.46 v -48.93 -95.4 m 166.406,246.74 c -9.062,0 -16.406,-7.34 -16.406,-16.4 0,-9.06 7.344,-16.41 16.406,-16.41 9.063,0 16.407,7.35 16.407,16.41 0,9.06 -7.344,16.4 -16.407,16.4 m 2943.994,21.27 c -14.81,0 -26.84,-12.01 -26.84,-26.83 0,-14.82 12.03,-26.84 26.84,-26.84 14.82,0 26.84,12.02 26.84,26.84 0,14.82 -12.02,26.83 -26.84,26.83 m -374.85,60.83 c -11.58,0 -20.97,-9.39 -20.97,-20.96 0,-11.59 9.39,-20.97 20.97,-20.97 11.58,0 20.96,9.38 20.96,20.97 0,11.57 -9.38,20.96 -20.96,20.96 m -731.56,8.68 c -10.31,0 -18.67,-8.36 -18.67,-18.67 0,-10.31 8.36,-18.67 18.67,-18.67 10.31,0 18.68,8.36 18.68,18.67 0,10.31 -8.37,18.67 -18.68,18.67 m 1902.1,29.95 c -10.66,0 -19.31,-8.64 -19.31,-19.31 0,-10.68 8.65,-19.32 19.31,-19.32 10.68,0 19.33,8.64 19.33,19.32 0,10.67 -8.65,19.31 -19.33,19.31 m 354.41,27.68 c -7.64,0 -13.83,-6.19 -13.83,-13.84 0,-7.63 6.19,-13.84 13.83,-13.84 7.64,0 13.84,6.21 13.84,13.84 0,7.65 -6.2,13.84 -13.84,13.84 m -1761.41,6.82 c -9.53,0 -17.24,-7.73 -17.24,-17.25 0,-9.52 7.71,-17.25 17.24,-17.25 9.52,0 17.24,7.73 17.24,17.25 0,9.52 -7.72,17.25 -17.24,17.25 m 897.07,22.38 c -13.73,0 -24.86,-11.13 -24.86,-24.86 0,-13.73 11.13,-24.87 24.86,-24.87 13.73,0 24.87,11.14 24.87,24.87 0,13.73 -11.14,24.86 -24.87,24.86 m -3071.832,0 c -12.363,0 -22.39,-10.02 -22.39,-22.38 0,-12.38 10.027,-22.39 22.39,-22.39 12.363,0 22.387,10.01 22.387,22.39 0,12.36 -10.024,22.38 -22.387,22.38 m 1745.952,205.62 c -9.86,0 -17.85,-7.99 -17.85,-17.84 0,-9.86 7.99,-17.85 17.85,-17.85 9.85,0 17.85,7.99 17.85,17.85 0,9.85 -8,17.84 -17.85,17.84 m 2099.1,16.23 c -12.24,0 -22.16,-9.93 -22.16,-22.18 0,-12.24 9.92,-22.17 22.16,-22.17 12.25,0 22.18,9.93 22.18,22.17 0,12.25 -9.93,22.18 -22.18,22.18 m -4058.919,23.79 c -13.141,0 -23.797,-10.65 -23.797,-23.79 0,-13.14 10.656,-23.8 23.797,-23.8 13.137,0 23.785,10.66 23.785,23.8 0,13.14 -10.648,23.79 -23.785,23.79 m 3867.009,38.75 c -13.14,0 -23.79,-10.65 -23.79,-23.79 0,-13.14 10.65,-23.8 23.79,-23.8 13.14,0 23.79,10.66 23.79,23.8 0,13.14 -10.65,23.79 -23.79,23.79 m -2133.11,119.64 c -13.39,0 -24.26,-10.86 -24.26,-24.25 0,-13.4 10.87,-24.26 24.26,-24.26 13.4,0 24.26,10.86 24.26,24.26 0,13.39 -10.86,24.25 -24.26,24.25 m -289.24,17.64 c -15.95,0 -28.87,-12.93 -28.87,-28.87 0,-15.95 12.92,-28.87 28.87,-28.87 15.94,0 28.87,12.92 28.87,28.87 0,15.94 -12.93,28.87 -28.87,28.87 m -1270.819,0 c -9.738,0 -17.637,-7.9 -17.637,-17.64 0,-9.74 7.899,-17.64 17.637,-17.64 9.742,0 17.637,7.9 17.637,17.64 0,9.74 -7.895,17.64 -17.637,17.64 m 3950.949,101.26 c -13.94,0 -25.25,-11.31 -25.25,-25.25 0,-13.95 11.31,-25.25 25.25,-25.25 13.95,0 25.25,11.3 25.25,25.25 0,13.94 -11.3,25.25 -25.25,25.25 m -2198.67,35.41 c -12.94,0 -23.43,-10.49 -23.43,-23.43 0,-12.94 10.49,-23.43 23.43,-23.43 12.93,0 23.42,10.49 23.42,23.43 0,12.94 -10.49,23.43 -23.42,23.43 M 3465.45,2950 c -15.58,0 -28.21,-12.63 -28.21,-28.21 0,-15.59 12.63,-28.22 28.21,-28.22 15.59,0 28.21,12.63 28.21,28.22 0,15.58 -12.62,28.21 -28.21,28.21 m -1998.78,83.34 c -4.75,0 -8.6,-3.86 -8.6,-8.61 0,-4.75 3.85,-8.61 8.6,-8.61 4.76,0 8.61,3.86 8.61,8.61 0,4.75 -3.85,8.61 -8.61,8.61 m 1425.03,50.91 c -15.67,0 -28.37,-12.7 -28.37,-28.37 0,-15.67 12.7,-28.37 28.37,-28.37 15.66,0 28.37,12.7 28.37,28.37 0,15.67 -12.71,28.37 -28.37,28.37 m -962.95,0 c -13.58,0 -24.58,-11.01 -24.58,-24.59 0,-13.57 11,-24.58 24.58,-24.58 13.58,0 24.58,11.01 24.58,24.58 0,13.58 -11,24.59 -24.58,24.59 m -1004.777,0 c -10.481,0 -18.977,-8.5 -18.977,-18.98 0,-10.48 8.496,-18.98 18.977,-18.98 10.484,0 18.98,8.5 18.98,18.98 0,10.48 -8.496,18.98 -18.98,18.98 m 2976.737,38.47 c -15.1,0 -27.32,-12.23 -27.32,-27.32 0,-15.09 12.22,-27.32 27.32,-27.32 15.09,0 27.33,12.23 27.33,27.32 0,15.09 -12.24,27.32 -27.33,27.32 m -1376.15,0 c -10.62,0 -19.24,-8.61 -19.24,-19.23 0,-10.63 8.62,-19.24 19.24,-19.24 10.63,0 19.24,8.61 19.24,19.24 0,10.62 -8.61,19.23 -19.24,19.23 m -2105.771,-7.55 c -8.535,0 -15.453,-6.93 -15.453,-15.46 0,-8.54 6.918,-15.46 15.453,-15.46 8.539,0 15.457,6.92 15.457,15.46 0,8.53 -6.918,15.46 -15.457,15.46 m 4004.611,27.86 c -13.16,0 -23.82,-10.66 -23.82,-23.82 0,-13.15 10.66,-23.81 23.82,-23.81 13.15,0 23.82,10.66 23.82,23.81 0,13.16 -10.67,23.82 -23.82,23.82 m -3149.96,20.31 c -11.21,0 -20.3,-9.1 -20.3,-20.31 0,-11.22 9.09,-20.31 20.3,-20.31 11.22,0 20.31,9.09 20.31,20.31 0,11.21 -9.09,20.31 -20.31,20.31 M 887.07,2067.08 c 21.11,45.81 56.453,102.66 113.24,144.2 0.15,-0.28 0.29,-0.56 0.44,-0.84 -21.121,-38.56 -41.895,-84.29 -58.926,-136.99 -18.558,-2.08 -36.824,-4.2 -54.754,-6.37"
         id="path8524" />
    </clipPath>
    <linearGradient
       x1="0"
       y1="0"
       x2="1"
       y2="0"
       gradientUnits="userSpaceOnUse"
       gradientTransform="matrix(4400,0,0,-4400,300,2560.64)"
       spreadMethod="pad"
       id="linearGradient8534">
      <stop
         style="stop-color:#b2cbd5;stop-opacity:1;"
         offset="0"
         id="stop8528" />
      <stop
         style="stop-color:#78a1bb;stop-opacity:1;"
         offset="0.00540541"
         id="stop8530" />
      <stop
         style="stop-color:#64859e;stop-opacity:1;"
         offset="1"
         id="stop8532" />
    </linearGradient>
    <clipPath
       clipPathUnits="userSpaceOnUse"
       id="clipPath8544">
      <path
         d="m 418.789,3084.25 c -8.535,0 -15.453,6.92 -15.453,15.46 0,8.53 6.918,15.46 15.453,15.46 8.539,0 15.457,-6.93 15.457,-15.46 0,-8.54 -6.918,-15.46 -15.457,-15.46"
         id="path8542" />
    </clipPath>
    <linearGradient
       x1="0"
       y1="0"
       x2="1"
       y2="0"
       gradientUnits="userSpaceOnUse"
       gradientTransform="matrix(4400,0,0,-4400,300,2560.64)"
       spreadMethod="pad"
       id="linearGradient8552">
      <stop
         style="stop-opacity:1;stop-color:#7aaecf"
         offset="0"
         id="stop8546" />
      <stop
         style="stop-opacity:1;stop-color:#7aaecf"
         offset="0.00540541"
         id="stop8548" />
      <stop
         style="stop-opacity:1;stop-color:#697ba1"
         offset="1"
         id="stop8550" />
    </linearGradient>
    <clipPath
       clipPathUnits="userSpaceOnUse"
       id="clipPath8562">
      <path
         d="m 584.301,2701.39 c -9.738,0 -17.637,7.9 -17.637,17.64 0,9.74 7.899,17.64 17.637,17.64 9.742,0 17.637,-7.9 17.637,-17.64 0,-9.74 -7.895,-17.64 -17.637,-17.64"
         id="path8560" />
    </clipPath>
    <linearGradient
       x1="0"
       y1="0"
       x2="1"
       y2="0"
       gradientUnits="userSpaceOnUse"
       gradientTransform="matrix(4400,0,0,-4400,300,2560.64)"
       spreadMethod="pad"
       id="linearGradient8570">
      <stop
         style="stop-opacity:1;stop-color:#7aaecf"
         offset="0"
         id="stop8564" />
      <stop
         style="stop-opacity:1;stop-color:#7aaecf"
         offset="0.00540541"
         id="stop8566" />
      <stop
         style="stop-opacity:1;stop-color:#697ba1"
         offset="1"
         id="stop8568" />
    </linearGradient>
    <clipPath
       clipPathUnits="userSpaceOnUse"
       id="clipPath8580">
      <path
         d="m 410.461,2513.05 c -13.141,0 -23.797,10.66 -23.797,23.8 0,13.14 10.656,23.79 23.797,23.79 13.137,0 23.785,-10.65 23.785,-23.79 0,-13.14 -10.648,-23.8 -23.785,-23.8"
         id="path8578" />
    </clipPath>
    <linearGradient
       x1="0"
       y1="0"
       x2="1"
       y2="0"
       gradientUnits="userSpaceOnUse"
       gradientTransform="matrix(4400,0,0,-4400,300,2560.64)"
       spreadMethod="pad"
       id="linearGradient8588">
      <stop
         style="stop-opacity:1;stop-color:#7aaecf"
         offset="0"
         id="stop8582" />
      <stop
         style="stop-opacity:1;stop-color:#7aaecf"
         offset="0.00540541"
         id="stop8584" />
      <stop
         style="stop-opacity:1;stop-color:#697ba1"
         offset="1"
         id="stop8586" />
    </linearGradient>
    <clipPath
       clipPathUnits="userSpaceOnUse"
       id="clipPath8598">
      <path
         d="m 624.328,2270.23 c -12.363,0 -22.39,10.01 -22.39,22.39 0,12.36 10.027,22.38 22.39,22.38 12.363,0 22.387,-10.02 22.387,-22.38 0,-12.38 -10.024,-22.39 -22.387,-22.39"
         id="path8596" />
    </clipPath>
    <linearGradient
       x1="0"
       y1="0"
       x2="1"
       y2="0"
       gradientUnits="userSpaceOnUse"
       gradientTransform="matrix(4400,0,0,-4400,300,2560.64)"
       spreadMethod="pad"
       id="linearGradient8606">
      <stop
         style="stop-opacity:1;stop-color:#7aaecf"
         offset="0"
         id="stop8600" />
      <stop
         style="stop-opacity:1;stop-color:#7aaecf"
         offset="0.00540541"
         id="stop8602" />
      <stop
         style="stop-opacity:1;stop-color:#697ba1"
         offset="1"
         id="stop8604" />
    </linearGradient>
    <clipPath
       clipPathUnits="userSpaceOnUse"
       id="clipPath8616">
      <path
         d="m 466.406,2104.58 c -9.062,0 -16.406,7.35 -16.406,16.41 0,9.06 7.344,16.4 16.406,16.4 9.063,0 16.407,-7.34 16.407,-16.4 0,-9.06 -7.344,-16.41 -16.407,-16.41"
         id="path8614" />
    </clipPath>
    <linearGradient
       x1="0"
       y1="0"
       x2="1"
       y2="0"
       gradientUnits="userSpaceOnUse"
       gradientTransform="matrix(4400,0,0,-4400,300,2560.64)"
       spreadMethod="pad"
       id="linearGradient8624">
      <stop
         style="stop-opacity:1;stop-color:#7aaecf"
         offset="0"
         id="stop8618" />
      <stop
         style="stop-opacity:1;stop-color:#7aaecf"
         offset="0.00540541"
         id="stop8620" />
      <stop
         style="stop-opacity:1;stop-color:#697ba1"
         offset="1"
         id="stop8622" />
    </linearGradient>
    <clipPath
       clipPathUnits="userSpaceOnUse"
       id="clipPath8634">
      <path
         d="m 923.973,3046.29 c -10.481,0 -18.977,8.5 -18.977,18.98 0,10.48 8.496,18.98 18.977,18.98 10.484,0 18.98,-8.5 18.98,-18.98 0,-10.48 -8.496,-18.98 -18.98,-18.98"
         id="path8632" />
    </clipPath>
    <linearGradient
       x1="0"
       y1="0"
       x2="1"
       y2="0"
       gradientUnits="userSpaceOnUse"
       gradientTransform="matrix(4400,0,0,-4400,300,2560.64)"
       spreadMethod="pad"
       id="linearGradient8642">
      <stop
         style="stop-opacity:1;stop-color:#7aaecf"
         offset="0"
         id="stop8636" />
      <stop
         style="stop-opacity:1;stop-color:#7aaecf"
         offset="0.00540541"
         id="stop8638" />
      <stop
         style="stop-opacity:1;stop-color:#697ba1"
         offset="1"
         id="stop8640" />
    </linearGradient>
    <clipPath
       clipPathUnits="userSpaceOnUse"
       id="clipPath8652">
      <path
         d="m 1273.44,3122.72 c -11.21,0 -20.3,9.09 -20.3,20.31 0,11.21 9.09,20.31 20.3,20.31 11.22,0 20.31,-9.1 20.31,-20.31 0,-11.22 -9.09,-20.31 -20.31,-20.31"
         id="path8650" />
    </clipPath>
    <linearGradient
       x1="0"
       y1="0"
       x2="1"
       y2="0"
       gradientUnits="userSpaceOnUse"
       gradientTransform="matrix(4400,0,0,-4400,300,2560.64)"
       spreadMethod="pad"
       id="linearGradient8660">
      <stop
         style="stop-opacity:1;stop-color:#7aaecf"
         offset="0"
         id="stop8654" />
      <stop
         style="stop-opacity:1;stop-color:#7aaecf"
         offset="0.00540541"
         id="stop8656" />
      <stop
         style="stop-opacity:1;stop-color:#697ba1"
         offset="1"
         id="stop8658" />
    </linearGradient>
    <clipPath
       clipPathUnits="userSpaceOnUse"
       id="clipPath8670">
      <path
         d="m 1466.67,3016.12 c -4.75,0 -8.6,3.86 -8.6,8.61 0,4.75 3.85,8.61 8.6,8.61 4.76,0 8.61,-3.86 8.61,-8.61 0,-4.75 -3.85,-8.61 -8.61,-8.61"
         id="path8668" />
    </clipPath>
    <linearGradient
       x1="0"
       y1="0"
       x2="1"
       y2="0"
       gradientUnits="userSpaceOnUse"
       gradientTransform="matrix(4400,0,0,-4400,300,2560.64)"
       spreadMethod="pad"
       id="linearGradient8678">
      <stop
         style="stop-opacity:1;stop-color:#7aaecf"
         offset="0"
         id="stop8672" />
      <stop
         style="stop-opacity:1;stop-color:#7aaecf"
         offset="0.00540541"
         id="stop8674" />
      <stop
         style="stop-opacity:1;stop-color:#697ba1"
         offset="1"
         id="stop8676" />
    </linearGradient>
    <clipPath
       clipPathUnits="userSpaceOnUse"
       id="clipPath8688">
      <path
         d="m 1928.75,3035.08 c -13.58,0 -24.58,11.01 -24.58,24.58 0,13.58 11,24.59 24.58,24.59 13.58,0 24.58,-11.01 24.58,-24.59 0,-13.57 -11,-24.58 -24.58,-24.58"
         id="path8686" />
    </clipPath>
    <linearGradient
       x1="0"
       y1="0"
       x2="1"
       y2="0"
       gradientUnits="userSpaceOnUse"
       gradientTransform="matrix(4400,0,0,-4400,300,2560.64)"
       spreadMethod="pad"
       id="linearGradient8696">
      <stop
         style="stop-opacity:1;stop-color:#7aaecf"
         offset="0"
         id="stop8690" />
      <stop
         style="stop-opacity:1;stop-color:#7aaecf"
         offset="0.00540541"
         id="stop8692" />
      <stop
         style="stop-opacity:1;stop-color:#697ba1"
         offset="1"
         id="stop8694" />
    </linearGradient>
    <clipPath
       clipPathUnits="userSpaceOnUse"
       id="clipPath8706">
      <path
         d="m 1855.12,2678.93 c -15.95,0 -28.87,12.92 -28.87,28.87 0,15.94 12.92,28.87 28.87,28.87 15.94,0 28.87,-12.93 28.87,-28.87 0,-15.95 -12.93,-28.87 -28.87,-28.87"
         id="path8704" />
    </clipPath>
    <linearGradient
       x1="0"
       y1="0"
       x2="1"
       y2="0"
       gradientUnits="userSpaceOnUse"
       gradientTransform="matrix(4400,0,0,-4400,300,2560.64)"
       spreadMethod="pad"
       id="linearGradient8714">
      <stop
         style="stop-opacity:1;stop-color:#7aaecf"
         offset="0"
         id="stop8708" />
      <stop
         style="stop-opacity:1;stop-color:#7aaecf"
         offset="0.00540541"
         id="stop8710" />
      <stop
         style="stop-opacity:1;stop-color:#697ba1"
         offset="1"
         id="stop8712" />
    </linearGradient>
    <clipPath
       clipPathUnits="userSpaceOnUse"
       id="clipPath8724">
      <path
         d="m 2370.28,2484.93 c -9.86,0 -17.85,7.99 -17.85,17.85 0,9.85 7.99,17.84 17.85,17.84 9.85,0 17.85,-7.99 17.85,-17.84 0,-9.86 -8,-17.85 -17.85,-17.85"
         id="path8722" />
    </clipPath>
    <linearGradient
       x1="0"
       y1="0"
       x2="1"
       y2="0"
       gradientUnits="userSpaceOnUse"
       gradientTransform="matrix(4400,0,0,-4400,300,2560.64)"
       spreadMethod="pad"
       id="linearGradient8732">
      <stop
         style="stop-opacity:1;stop-color:#7aaecf"
         offset="0"
         id="stop8726" />
      <stop
         style="stop-opacity:1;stop-color:#7aaecf"
         offset="0.00540541"
         id="stop8728" />
      <stop
         style="stop-opacity:1;stop-color:#697ba1"
         offset="1"
         id="stop8730" />
    </linearGradient>
    <clipPath
       clipPathUnits="userSpaceOnUse"
       id="clipPath8742">
      <path
         d="m 2336.58,2826.48 c -12.94,0 -23.43,10.49 -23.43,23.43 0,12.94 10.49,23.43 23.43,23.43 12.93,0 23.42,-10.49 23.42,-23.43 0,-12.94 -10.49,-23.43 -23.42,-23.43"
         id="path8740" />
    </clipPath>
    <linearGradient
       x1="0"
       y1="0"
       x2="1"
       y2="0"
       gradientUnits="userSpaceOnUse"
       gradientTransform="matrix(4400,0,0,-4400,300,2560.64)"
       spreadMethod="pad"
       id="linearGradient8750">
      <stop
         style="stop-opacity:1;stop-color:#7aaecf"
         offset="0"
         id="stop8744" />
      <stop
         style="stop-opacity:1;stop-color:#7aaecf"
         offset="0.00540541"
         id="stop8746" />
      <stop
         style="stop-opacity:1;stop-color:#697ba1"
         offset="1"
         id="stop8748" />
    </linearGradient>
    <clipPath
       clipPathUnits="userSpaceOnUse"
       id="clipPath8760">
      <path
         d="m 2891.7,3027.51 c -15.67,0 -28.37,12.7 -28.37,28.37 0,15.67 12.7,28.37 28.37,28.37 15.66,0 28.37,-12.7 28.37,-28.37 0,-15.67 -12.71,-28.37 -28.37,-28.37"
         id="path8758" />
    </clipPath>
    <linearGradient
       x1="0"
       y1="0"
       x2="1"
       y2="0"
       gradientUnits="userSpaceOnUse"
       gradientTransform="matrix(4400,0,0,-4400,300,2560.64)"
       spreadMethod="pad"
       id="linearGradient8768">
      <stop
         style="stop-opacity:1;stop-color:#7aaecf"
         offset="0"
         id="stop8762" />
      <stop
         style="stop-opacity:1;stop-color:#7aaecf"
         offset="0.00540541"
         id="stop8764" />
      <stop
         style="stop-opacity:1;stop-color:#697ba1"
         offset="1"
         id="stop8766" />
    </linearGradient>
    <clipPath
       clipPathUnits="userSpaceOnUse"
       id="clipPath8778">
      <path
         d="m 3465.45,2893.57 c -15.58,0 -28.21,12.63 -28.21,28.22 0,15.58 12.63,28.21 28.21,28.21 15.59,0 28.21,-12.63 28.21,-28.21 0,-15.59 -12.62,-28.22 -28.21,-28.22"
         id="path8776" />
    </clipPath>
    <linearGradient
       x1="0"
       y1="0"
       x2="1"
       y2="0"
       gradientUnits="userSpaceOnUse"
       gradientTransform="matrix(4400,0,0,-4400,300,2560.64)"
       spreadMethod="pad"
       id="linearGradient8786">
      <stop
         style="stop-opacity:1;stop-color:#7aaecf"
         offset="0"
         id="stop8780" />
      <stop
         style="stop-opacity:1;stop-color:#7aaecf"
         offset="0.00540541"
         id="stop8782" />
      <stop
         style="stop-opacity:1;stop-color:#697ba1"
         offset="1"
         id="stop8784" />
    </linearGradient>
    <clipPath
       clipPathUnits="userSpaceOnUse"
       id="clipPath8796">
      <path
         d="m 3900.71,3068.08 c -15.1,0 -27.32,12.23 -27.32,27.32 0,15.09 12.22,27.32 27.32,27.32 15.09,0 27.33,-12.23 27.33,-27.32 0,-15.09 -12.24,-27.32 -27.33,-27.32"
         id="path8794" />
    </clipPath>
    <linearGradient
       x1="0"
       y1="0"
       x2="1"
       y2="0"
       gradientUnits="userSpaceOnUse"
       gradientTransform="matrix(4400,0,0,-4400,300,2560.64)"
       spreadMethod="pad"
       id="linearGradient8804">
      <stop
         style="stop-opacity:1;stop-color:#7aaecf"
         offset="0"
         id="stop8798" />
      <stop
         style="stop-opacity:1;stop-color:#7aaecf"
         offset="0.00540541"
         id="stop8800" />
      <stop
         style="stop-opacity:1;stop-color:#697ba1"
         offset="1"
         id="stop8802" />
    </linearGradient>
    <clipPath
       clipPathUnits="userSpaceOnUse"
       id="clipPath8814">
      <path
         d="m 2303.99,2190.83 c -10.31,0 -18.67,8.36 -18.67,18.67 0,10.31 8.36,18.67 18.67,18.67 10.31,0 18.68,-8.36 18.68,-18.67 0,-10.31 -8.37,-18.67 -18.68,-18.67"
         id="path8812" />
    </clipPath>
    <linearGradient
       x1="0"
       y1="0"
       x2="1"
       y2="0"
       gradientUnits="userSpaceOnUse"
       gradientTransform="matrix(4400,0,0,-4400,300,2560.64)"
       spreadMethod="pad"
       id="linearGradient8822">
      <stop
         style="stop-opacity:1;stop-color:#7aaecf"
         offset="0"
         id="stop8816" />
      <stop
         style="stop-opacity:1;stop-color:#7aaecf"
         offset="0.00540541"
         id="stop8818" />
      <stop
         style="stop-opacity:1;stop-color:#697ba1"
         offset="1"
         id="stop8820" />
    </linearGradient>
    <clipPath
       clipPathUnits="userSpaceOnUse"
       id="clipPath8832">
      <path
         d="m 2799.09,2258.12 c -9.53,0 -17.24,7.73 -17.24,17.25 0,9.52 7.71,17.25 17.24,17.25 9.52,0 17.24,-7.73 17.24,-17.25 0,-9.52 -7.72,-17.25 -17.24,-17.25"
         id="path8830" />
    </clipPath>
    <linearGradient
       x1="0"
       y1="0"
       x2="1"
       y2="0"
       gradientUnits="userSpaceOnUse"
       gradientTransform="matrix(4400,0,0,-4400,300,2560.64)"
       spreadMethod="pad"
       id="linearGradient8840">
      <stop
         style="stop-opacity:1;stop-color:#7aaecf"
         offset="0"
         id="stop8834" />
      <stop
         style="stop-opacity:1;stop-color:#7aaecf"
         offset="0.00540541"
         id="stop8836" />
      <stop
         style="stop-opacity:1;stop-color:#697ba1"
         offset="1"
         id="stop8838" />
    </linearGradient>
    <clipPath
       clipPathUnits="userSpaceOnUse"
       id="clipPath8850">
      <path
         d="m 3410.4,2104.99 c -14.81,0 -26.84,12.02 -26.84,26.84 0,14.82 12.03,26.83 26.84,26.83 14.82,0 26.84,-12.01 26.84,-26.83 0,-14.82 -12.02,-26.84 -26.84,-26.84"
         id="path8848" />
    </clipPath>
    <linearGradient
       x1="0"
       y1="0"
       x2="1"
       y2="0"
       gradientUnits="userSpaceOnUse"
       gradientTransform="matrix(4400,0,0,-4400,300,2560.64)"
       spreadMethod="pad"
       id="linearGradient8858">
      <stop
         style="stop-opacity:1;stop-color:#7aaecf"
         offset="0"
         id="stop8852" />
      <stop
         style="stop-opacity:1;stop-color:#7aaecf"
         offset="0.00540541"
         id="stop8854" />
      <stop
         style="stop-opacity:1;stop-color:#697ba1"
         offset="1"
         id="stop8856" />
    </linearGradient>
    <clipPath
       clipPathUnits="userSpaceOnUse"
       id="clipPath8868">
      <path
         d="m 3696.16,2265.27 c -13.73,0 -24.86,11.14 -24.86,24.87 0,13.73 11.13,24.86 24.86,24.86 13.73,0 24.87,-11.13 24.87,-24.86 0,-13.73 -11.14,-24.87 -24.87,-24.87"
         id="path8866" />
    </clipPath>
    <linearGradient
       x1="0"
       y1="0"
       x2="1"
       y2="0"
       gradientUnits="userSpaceOnUse"
       gradientTransform="matrix(4400,0,0,-4400,300,2560.64)"
       spreadMethod="pad"
       id="linearGradient8876">
      <stop
         style="stop-opacity:1;stop-color:#7aaecf"
         offset="0"
         id="stop8870" />
      <stop
         style="stop-opacity:1;stop-color:#7aaecf"
         offset="0.00540541"
         id="stop8872" />
      <stop
         style="stop-opacity:1;stop-color:#697ba1"
         offset="1"
         id="stop8874" />
    </linearGradient>
    <clipPath
       clipPathUnits="userSpaceOnUse"
       id="clipPath8886">
      <path
         d="m 4206.09,2219.49 c -10.66,0 -19.31,8.64 -19.31,19.32 0,10.67 8.65,19.31 19.31,19.31 10.68,0 19.33,-8.64 19.33,-19.31 0,-10.68 -8.65,-19.32 -19.33,-19.32"
         id="path8884" />
    </clipPath>
    <linearGradient
       x1="0"
       y1="0"
       x2="1"
       y2="0"
       gradientUnits="userSpaceOnUse"
       gradientTransform="matrix(4400,0,0,-4400,300,2560.64)"
       spreadMethod="pad"
       id="linearGradient8894">
      <stop
         style="stop-opacity:1;stop-color:#7aaecf"
         offset="0"
         id="stop8888" />
      <stop
         style="stop-opacity:1;stop-color:#7aaecf"
         offset="0.00540541"
         id="stop8890" />
      <stop
         style="stop-opacity:1;stop-color:#697ba1"
         offset="1"
         id="stop8892" />
    </linearGradient>
    <clipPath
       clipPathUnits="userSpaceOnUse"
       id="clipPath8904">
      <path
         d="m 4277.47,2551.8 c -13.14,0 -23.79,10.66 -23.79,23.8 0,13.14 10.65,23.79 23.79,23.79 13.14,0 23.79,-10.65 23.79,-23.79 0,-13.14 -10.65,-23.8 -23.79,-23.8"
         id="path8902" />
    </clipPath>
    <linearGradient
       x1="0"
       y1="0"
       x2="1"
       y2="0"
       gradientUnits="userSpaceOnUse"
       gradientTransform="matrix(4400,0,0,-4400,300,2560.64)"
       spreadMethod="pad"
       id="linearGradient8912">
      <stop
         style="stop-opacity:1;stop-color:#7aaecf"
         offset="0"
         id="stop8906" />
      <stop
         style="stop-opacity:1;stop-color:#7aaecf"
         offset="0.00540541"
         id="stop8908" />
      <stop
         style="stop-opacity:1;stop-color:#697ba1"
         offset="1"
         id="stop8910" />
    </linearGradient>
    <clipPath
       clipPathUnits="userSpaceOnUse"
       id="clipPath8922">
      <path
         d="m 4560.5,2258.12 c -7.64,0 -13.83,6.21 -13.83,13.84 0,7.65 6.19,13.84 13.83,13.84 7.64,0 13.84,-6.19 13.84,-13.84 0,-7.63 -6.2,-13.84 -13.84,-13.84"
         id="path8920" />
    </clipPath>
    <linearGradient
       x1="0"
       y1="0"
       x2="1"
       y2="0"
       gradientUnits="userSpaceOnUse"
       gradientTransform="matrix(4400,0,0,-4400,300,2560.64)"
       spreadMethod="pad"
       id="linearGradient8930">
      <stop
         style="stop-opacity:1;stop-color:#7aaecf"
         offset="0"
         id="stop8924" />
      <stop
         style="stop-opacity:1;stop-color:#7aaecf"
         offset="0.00540541"
         id="stop8926" />
      <stop
         style="stop-opacity:1;stop-color:#697ba1"
         offset="1"
         id="stop8928" />
    </linearGradient>
    <clipPath
       clipPathUnits="userSpaceOnUse"
       id="clipPath8940">
      <path
         d="m 4535.25,2787.43 c -13.94,0 -25.25,11.3 -25.25,25.25 0,13.94 11.31,25.25 25.25,25.25 13.95,0 25.25,-11.31 25.25,-25.25 0,-13.95 -11.3,-25.25 -25.25,-25.25"
         id="path8938" />
    </clipPath>
    <linearGradient
       x1="0"
       y1="0"
       x2="1"
       y2="0"
       gradientUnits="userSpaceOnUse"
       gradientTransform="matrix(4400,0,0,-4400,300,2560.64)"
       spreadMethod="pad"
       id="linearGradient8948">
      <stop
         style="stop-opacity:1;stop-color:#7aaecf"
         offset="0"
         id="stop8942" />
      <stop
         style="stop-opacity:1;stop-color:#7aaecf"
         offset="0.00540541"
         id="stop8944" />
      <stop
         style="stop-opacity:1;stop-color:#697ba1"
         offset="1"
         id="stop8946" />
    </linearGradient>
    <clipPath
       clipPathUnits="userSpaceOnUse"
       id="clipPath8958">
      <path
         d="m 4423.4,3095.4 c -13.16,0 -23.82,10.66 -23.82,23.81 0,13.16 10.66,23.82 23.82,23.82 13.15,0 23.82,-10.66 23.82,-23.82 0,-13.15 -10.67,-23.81 -23.82,-23.81"
         id="path8956" />
    </clipPath>
    <linearGradient
       x1="0"
       y1="0"
       x2="1"
       y2="0"
       gradientUnits="userSpaceOnUse"
       gradientTransform="matrix(4400,0,0,-4400,300,2560.64)"
       spreadMethod="pad"
       id="linearGradient8966">
      <stop
         style="stop-opacity:1;stop-color:#7aaecf"
         offset="0"
         id="stop8960" />
      <stop
         style="stop-opacity:1;stop-color:#7aaecf"
         offset="0.00540541"
         id="stop8962" />
      <stop
         style="stop-opacity:1;stop-color:#697ba1"
         offset="1"
         id="stop8964" />
    </linearGradient>
    <clipPath
       clipPathUnits="userSpaceOnUse"
       id="clipPath8976">
      <path
         d="m 4469.38,2492.5 c -12.24,0 -22.16,9.93 -22.16,22.17 0,12.25 9.92,22.18 22.16,22.18 12.25,0 22.18,-9.93 22.18,-22.18 0,-12.24 -9.93,-22.17 -22.18,-22.17"
         id="path8974" />
    </clipPath>
    <linearGradient
       x1="0"
       y1="0"
       x2="1"
       y2="0"
       gradientUnits="userSpaceOnUse"
       gradientTransform="matrix(4400,0,0,-4400,300,2560.64)"
       spreadMethod="pad"
       id="linearGradient8984">
      <stop
         style="stop-opacity:1;stop-color:#7aaecf"
         offset="0"
         id="stop8978" />
      <stop
         style="stop-opacity:1;stop-color:#7aaecf"
         offset="0.00540541"
         id="stop8980" />
      <stop
         style="stop-opacity:1;stop-color:#697ba1"
         offset="1"
         id="stop8982" />
    </linearGradient>
    <clipPath
       clipPathUnits="userSpaceOnUse"
       id="clipPath8994">
      <path
         d="m 2524.56,3084.25 c -10.62,0 -19.24,8.61 -19.24,19.24 0,10.62 8.62,19.23 19.24,19.23 10.63,0 19.24,-8.61 19.24,-19.23 0,-10.63 -8.61,-19.24 -19.24,-19.24"
         id="path8992" />
    </clipPath>
    <linearGradient
       x1="0"
       y1="0"
       x2="1"
       y2="0"
       gradientUnits="userSpaceOnUse"
       gradientTransform="matrix(4400,0,0,-4400,300,2560.64)"
       spreadMethod="pad"
       id="linearGradient9002">
      <stop
         style="stop-opacity:1;stop-color:#7aaecf"
         offset="0"
         id="stop8996" />
      <stop
         style="stop-opacity:1;stop-color:#7aaecf"
         offset="0.00540541"
         id="stop8998" />
      <stop
         style="stop-opacity:1;stop-color:#697ba1"
         offset="1"
         id="stop9000" />
    </linearGradient>
    <clipPath
       clipPathUnits="userSpaceOnUse"
       id="clipPath9012">
      <path
         d="m 3035.55,2177.56 c -11.58,0 -20.97,9.38 -20.97,20.97 0,11.57 9.39,20.96 20.97,20.96 11.58,0 20.96,-9.39 20.96,-20.96 0,-11.59 -9.38,-20.97 -20.96,-20.97"
         id="path9010" />
    </clipPath>
    <linearGradient
       x1="0"
       y1="0"
       x2="1"
       y2="0"
       gradientUnits="userSpaceOnUse"
       gradientTransform="matrix(4400,0,0,-4400,300,2560.64)"
       spreadMethod="pad"
       id="linearGradient9020">
      <stop
         style="stop-opacity:1;stop-color:#7aaecf"
         offset="0"
         id="stop9014" />
      <stop
         style="stop-opacity:1;stop-color:#7aaecf"
         offset="0.00540541"
         id="stop9016" />
      <stop
         style="stop-opacity:1;stop-color:#697ba1"
         offset="1"
         id="stop9018" />
    </linearGradient>
    <clipPath
       clipPathUnits="userSpaceOnUse"
       id="clipPath9030">
      <path
         d="m 2144.36,2670.52 c -13.39,0 -24.26,10.86 -24.26,24.26 0,13.39 10.87,24.25 24.26,24.25 13.4,0 24.26,-10.86 24.26,-24.25 0,-13.4 -10.86,-24.26 -24.26,-24.26"
         id="path9028" />
    </clipPath>
    <linearGradient
       x1="0"
       y1="0"
       x2="1"
       y2="0"
       gradientUnits="userSpaceOnUse"
       gradientTransform="matrix(4400,0,0,-4400,300,2560.64)"
       spreadMethod="pad"
       id="linearGradient9038">
      <stop
         style="stop-opacity:1;stop-color:#7aaecf"
         offset="0"
         id="stop9032" />
      <stop
         style="stop-opacity:1;stop-color:#7aaecf"
         offset="0.00540541"
         id="stop9034" />
      <stop
         style="stop-opacity:1;stop-color:#697ba1"
         offset="1"
         id="stop9036" />
    </linearGradient>
    <clipPath
       clipPathUnits="userSpaceOnUse"
       id="clipPath9054">
      <path
         d="m 2023.75,2185.83 -84.59,11.19 21.26,15.48 63.33,-26.67"
         id="path9052" />
    </clipPath>
    <linearGradient
       x1="0"
       y1="0"
       x2="1"
       y2="0"
       gradientUnits="userSpaceOnUse"
       gradientTransform="matrix(4400,0,0,-4400,300,2560.64)"
       spreadMethod="pad"
       id="linearGradient9062">
      <stop
         style="stop-opacity:1;stop-color:#3672a0"
         offset="0"
         id="stop9056" />
      <stop
         style="stop-opacity:1;stop-color:#3672a0"
         offset="0.00540541"
         id="stop9058" />
      <stop
         style="stop-opacity:1;stop-color:#25365f"
         offset="1"
         id="stop9060" />
    </linearGradient>
    <clipPath
       clipPathUnits="userSpaceOnUse"
       id="clipPath9096">
      <path
         d="m 824.738,2227.78 c 0.055,0.04 0.106,0.09 0.16,0.13 -0.054,-0.04 -0.109,-0.09 -0.16,-0.13 m 0.332,0.27 c 0.059,0.05 0.118,0.1 0.176,0.15 -0.058,-0.05 -0.113,-0.1 -0.176,-0.15 m 0.336,0.28 c 0.067,0.05 0.125,0.1 0.188,0.15 -0.059,-0.05 -0.125,-0.1 -0.188,-0.15 m 0.336,0.28 c 0.063,0.05 0.125,0.1 0.188,0.15 -0.063,-0.05 -0.125,-0.1 -0.188,-0.15 m 0.34,0.27 c 0.063,0.05 0.125,0.11 0.188,0.16 -0.059,-0.05 -0.129,-0.11 -0.188,-0.16 m 0.336,0.28 c 0.062,0.05 0.125,0.1 0.187,0.15 -0.066,-0.05 -0.121,-0.1 -0.187,-0.15 m 0.336,0.27 c 0.066,0.06 0.133,0.11 0.195,0.16 -0.066,-0.05 -0.129,-0.1 -0.195,-0.16 m 0.344,0.28 c 0.062,0.05 0.125,0.1 0.183,0.15 -0.062,-0.05 -0.121,-0.1 -0.183,-0.15 m 0.398,0.32 c 0.043,0.04 0.082,0.07 0.125,0.11 -0.039,-0.04 -0.086,-0.07 -0.125,-0.11 m 0.465,0.38 c 0.027,0.02 0.059,0.05 0.09,0.07 -0.028,-0.02 -0.067,-0.05 -0.09,-0.07 m 0.344,0.28 c 0.035,0.02 0.066,0.05 0.101,0.08 -0.035,-0.03 -0.066,-0.06 -0.101,-0.08 m 0.359,0.28 c 0.027,0.02 0.051,0.04 0.078,0.07 -0.027,-0.03 -0.051,-0.05 -0.078,-0.07 m 0.356,0.29 c 0.023,0.01 0.046,0.03 0.07,0.05 -0.02,-0.01 -0.051,-0.04 -0.07,-0.05 m 0.367,0.29 c 0.015,0.01 0.031,0.02 0.047,0.04 -0.016,-0.02 -0.036,-0.03 -0.047,-0.04 m 0.379,0.3 c 0.004,0 0.004,0 0.007,0.01 -0.003,-0.01 -0.003,-0.01 -0.007,-0.01"
         id="path9094" />
    </clipPath>
    <linearGradient
       x1="0"
       y1="0"
       x2="1"
       y2="0"
       gradientUnits="userSpaceOnUse"
       gradientTransform="matrix(4400,0,0,-4400,300,2560.64)"
       spreadMethod="pad"
       id="linearGradient9104">
      <stop
         style="stop-opacity:1;stop-color:#347d9e"
         offset="0"
         id="stop9098" />
      <stop
         style="stop-opacity:1;stop-color:#347d9e"
         offset="0.00540541"
         id="stop9100" />
      <stop
         style="stop-opacity:1;stop-color:#243a5e"
         offset="1"
         id="stop9102" />
    </linearGradient>
    <clipPath
       clipPathUnits="userSpaceOnUse"
       id="clipPath9130">
      <path
         d="m 1613.48,2899.5 c 0,35.6 -9.88,85.22 -21.81,125.5 -4.7,15.86 -6.23,30.61 -4.94,43.4 -1.29,-12.79 0.24,-27.54 4.94,-43.4 11.93,-40.28 21.81,-89.9 21.81,-125.5"
         id="path9128" />
    </clipPath>
    <linearGradient
       x1="0"
       y1="0"
       x2="1"
       y2="0"
       gradientUnits="userSpaceOnUse"
       gradientTransform="matrix(4400,0,0,-4400,300,2560.64)"
       spreadMethod="pad"
       id="linearGradient9138">
      <stop
         style="stop-opacity:1;stop-color:#3672a0"
         offset="0"
         id="stop9132" />
      <stop
         style="stop-opacity:1;stop-color:#3672a0"
         offset="0.00540541"
         id="stop9134" />
      <stop
         style="stop-opacity:1;stop-color:#25365f"
         offset="1"
         id="stop9136" />
    </linearGradient>
    <clipPath
       clipPathUnits="userSpaceOnUse"
       id="clipPath9184">
      <path
         d="m 862.055,2469.01 c -0.004,0.03 -0.004,0.07 -0.008,0.1 0.004,-0.04 0.004,-0.07 0.008,-0.1 m -0.032,0.4 c -0.003,0.03 -0.003,0.06 -0.007,0.09 0.004,-0.03 0.004,-0.06 0.007,-0.09 m -0.027,0.35 c 0,0.04 -0.004,0.08 -0.008,0.13 0.004,-0.05 0.004,-0.09 0.008,-0.13 m -0.027,0.39 c -0.004,0.05 -0.008,0.1 -0.012,0.16 0.004,-0.06 0.008,-0.11 0.012,-0.16 m -0.024,0.36 c -0.004,0.06 -0.007,0.11 -0.011,0.16 0.004,-0.05 0.007,-0.1 0.011,-0.16 m -0.027,0.37 c -0.004,0.07 -0.008,0.15 -0.016,0.22 0.008,-0.07 0.012,-0.14 0.016,-0.22 m -0.023,0.39 c -0.004,0.06 -0.008,0.11 -0.012,0.17 0.004,-0.05 0.008,-0.12 0.012,-0.17 m -0.024,0.35 c -0.008,0.09 -0.012,0.18 -0.019,0.27 0.007,-0.09 0.011,-0.18 0.019,-0.27 m -0.027,0.4 c -0.004,0.07 -0.008,0.13 -0.012,0.2 0.004,-0.07 0.008,-0.13 0.012,-0.2 m -0.016,0.25 c -0.008,0.14 -0.015,0.28 -0.023,0.42 0.008,-0.14 0.015,-0.28 0.023,-0.42 m -0.027,0.49 c -0.012,0.23 -0.024,0.45 -0.039,0.68 0.015,-0.22 0.027,-0.45 0.039,-0.68 m -0.043,0.77 c -0.012,0.22 -0.024,0.45 -0.035,0.67 0.011,-0.23 0.023,-0.45 0.035,-0.67 m -0.039,0.77 c -0.008,0.21 -0.02,0.43 -0.031,0.65 0.011,-0.21 0.023,-0.44 0.031,-0.65 m -0.035,0.77 c -0.008,0.12 -0.012,0.24 -0.016,0.37 0.004,-0.12 0.008,-0.25 0.016,-0.37 m -0.02,0.45 c -0.004,0.06 -0.008,0.13 -0.008,0.19 0,-0.06 0.004,-0.13 0.008,-0.19 m -0.016,0.3 c -0.003,0.11 -0.007,0.22 -0.011,0.33 0.004,-0.11 0.008,-0.22 0.011,-0.33 m -0.015,0.46 c -0.004,0.06 -0.004,0.12 -0.008,0.18 0.004,-0.06 0.004,-0.12 0.008,-0.18 m -0.012,0.32 c -0.004,0.09 -0.008,0.2 -0.012,0.29 0.004,-0.1 0.008,-0.19 0.012,-0.29 m -0.016,0.45 c -0.003,0.05 -0.003,0.11 -0.007,0.16 0.004,-0.06 0.004,-0.11 0.007,-0.16 m -0.011,0.33 c -0.004,0.05 -0.004,0.11 -0.008,0.16 0.004,-0.05 0.004,-0.1 0.008,-0.16 m -0.016,0.44 c 0,0.04 -0.004,0.08 -0.004,0.13 0,-0.05 0.004,-0.09 0.004,-0.13 m -0.012,0.37 c 0,0.03 0,0.06 0,0.09 0,-0.03 0,-0.06 0,-0.09 m -0.011,0.41 c 0,0.03 0,0.06 0,0.09 0,-0.03 0,-0.06 0,-0.09 m -0.008,0.41 v 0.01 -0.01 m -0.012,0.37 c 0,0.01 0,0.03 0,0.04 0,-0.01 0,-0.03 0,-0.04"
         id="path9182" />
    </clipPath>
    <linearGradient
       x1="0"
       y1="0"
       x2="1"
       y2="0"
       gradientUnits="userSpaceOnUse"
       gradientTransform="matrix(4400,0,0,-4400,300,2560.64)"
       spreadMethod="pad"
       id="linearGradient9192">
      <stop
         style="stop-opacity:1;stop-color:#3d80b2"
         offset="0"
         id="stop9186" />
      <stop
         style="stop-opacity:1;stop-color:#3d80b2"
         offset="0.00540541"
         id="stop9188" />
      <stop
         style="stop-opacity:1;stop-color:#283d6c"
         offset="1"
         id="stop9190" />
    </linearGradient>
    <clipPath
       clipPathUnits="userSpaceOnUse"
       id="clipPath9214">
      <path
         d="m 763.336,2315 v 0 c 0.086,0 0.172,0 0.262,0 -0.086,0 -0.176,0 -0.262,0 m 0.312,0 c 0.075,0 0.157,0 0.231,0 -0.074,0 -0.152,0 -0.231,0 m 0.274,0 c 36.516,0.24 67.801,22.53 81.195,54.23 v 0 c -13.394,-31.7 -44.679,-53.99 -81.195,-54.23"
         id="path9212" />
    </clipPath>
    <linearGradient
       x1="0"
       y1="0"
       x2="1"
       y2="0"
       gradientUnits="userSpaceOnUse"
       gradientTransform="matrix(4400,0,0,-4400,300,2560.64)"
       spreadMethod="pad"
       id="linearGradient9222">
      <stop
         style="stop-opacity:1;stop-color:#3d80b2"
         offset="0"
         id="stop9216" />
      <stop
         style="stop-opacity:1;stop-color:#3d80b2"
         offset="0.00540541"
         id="stop9218" />
      <stop
         style="stop-opacity:1;stop-color:#283d6c"
         offset="1"
         id="stop9220" />
    </linearGradient>
  </defs>
  <sodipodi:namedview
     id="namedview6866"
     pagecolor="#ffffff"
     bordercolor="#000000"
     borderopacity="0.25"
     inkscape:showpageshadow="2"
     inkscape:pageopacity="0.0"
     inkscape:pagecheckerboard="0"
     inkscape:deskcolor="#d1d1d1"
     showgrid="false" />
  <g
     id="g6872"
     inkscape:groupmode="layer"
     inkscape:label="Page 1"
     transform="matrix(1.3333333,0,0,-1.3333333,-40,430.74933)">
    <g
       id="g8520"
       transform="scale(0.1)">
      <g
         id="g8522"
         clip-path="url(#clipPath8526)">
        <path
           d="m 300,1890.65 v 0 1339.97 H 4700 V 2026.65 c 0,0 -200.03,93.52 -487.54,93.52 -98.22,0 -206.63,-10.91 -320.79,-40.19 -143.07,-36.7 -265.79,-48.12 -373.7,-48.12 -88.96,0 -167.85,7.76 -239.83,15.52 -71.98,7.76 -137.04,15.52 -198.29,15.52 -36.06,0 -70.79,-2.69 -104.85,-9.65 -50.53,-10.32 -108.53,-21.34 -170.77,-32.23 -144.7,18.82 -306.09,33.81 -452.92,33.81 -59.64,0 -116.83,-2.47 -169.6,-8.16 -61.82,-6.67 -119.87,-9.42 -175.32,-9.42 -58,0 -113.18,3.01 -166.94,7.67 22.51,14.23 44.26,31.58 64.72,52.58 v 0 0 l 119.58,88.33 -63.33,26.67 -21.26,-15.48 -117.08,15.48 -31.24,-34.94 c 0,0 -82.02,-78.66 -183.31,-92.89 -21.85,8.95 -47.11,19.91 -47.11,19.91 l 36.1,37.47 v 0 c -0.09,0.2 -0.18,0.4 -0.27,0.6 34.34,10.65 66.68,25.3 95.83,44.02 153.78,98.77 158.33,358.33 18.26,461.66 -53.98,39.82 -88.12,77.66 -121.16,108.91 32.57,6.2 65,19.98 87.49,47.76 63.75,78.75 67.5,257.5 0,296.25 -16.76,9.62 -31.68,13.93 -44.32,13.93 -26.31,0 -42.78,-18.65 -45.62,-46.78 -1.29,-12.79 0.24,-27.54 4.94,-43.4 11.93,-40.28 21.81,-89.9 21.81,-125.5 0,-24.06 -4.51,-41.72 -15.95,-45.75 -1.77,-0.62 -3.36,-0.92 -4.77,-0.92 -21.23,0 -5.34,66.16 -46.26,75.1 -4.79,1.05 -9.05,1.54 -12.8,1.54 -18.58,0 -24.95,-12.14 -24.96,-29.45 -0.01,-11.01 2.55,-24.11 6.18,-37.52 4.78,-17.63 8.76,-32.07 8.77,-43.23 0.01,-4.18 -0.54,-7.89 -1.81,-11.15 -2.43,1.29 -4.91,2.54 -7.42,3.76 -5.73,22.24 -30.47,50.34 -67.54,73.33 -4.67,5.08 -105.51,112.49 -273.17,112.49 -62.72,0 -134.76,-15.02 -214.656,-56.04 -77.879,-39.97 -128.321,-99.8 -160.328,-166.38 -15.157,32.8 -4.309,111.46 1.882,188.52 5.676,70.68 -32.824,104.27 -72.492,104.27 -14.355,0 -28.867,-4.4 -41.492,-13.04 -26.812,-18.34 -49.641,-105.58 -49.601,-194.97 0.027,-68.97 13.667,-139.22 49.601,-180.08 v 0 c 0.141,-0.16 0.281,-0.32 0.422,-0.48 0.258,-0.29 0.516,-0.58 0.777,-0.86 0.114,-0.13 0.227,-0.25 0.336,-0.38 0.024,-0.02 0.043,-0.05 0.067,-0.07 0.015,-0.02 0.035,-0.04 0.05,-0.05 0.106,-0.12 0.211,-0.24 0.321,-0.36 18.437,-20.14 41.929,-34.65 67.343,-45.05 -7.832,-49.9 -9.398,-98.69 -8.003,-141.55 -41.7,-7.27 -73.399,-43.65 -73.399,-87.43 0,-49.01 39.738,-88.75 88.75,-88.75 v 0 c 0.008,0 0.008,0 0.008,0 0.086,0 0.176,0 0.262,0 0.019,0 0.035,0 0.05,0 0.079,0 0.157,0 0.231,0 0.016,0 0.027,0 0.043,0 36.516,0.24 67.801,22.53 81.195,54.23 v 0 c 4.485,10.61 6.965,22.28 6.965,34.52 0,27.39 -12.41,51.89 -31.914,68.17 11.504,11.26 25.41,21.62 42.258,30.23 -0.617,-6.11 -0.938,-12.31 -0.934,-18.6 0,-1.37 0.016,-2.75 0.043,-4.13 0,-0.01 0,-0.03 0,-0.04 0.004,-0.12 0.008,-0.24 0.012,-0.36 v -0.01 c 0,-0.11 0.004,-0.22 0.008,-0.32 0,-0.03 0,-0.06 0,-0.09 0.004,-0.11 0.008,-0.21 0.011,-0.32 0,-0.03 0,-0.06 0,-0.09 0.004,-0.08 0.004,-0.17 0.008,-0.24 0,-0.05 0.004,-0.09 0.004,-0.13 0.004,-0.09 0.008,-0.18 0.008,-0.28 0.004,-0.05 0.004,-0.11 0.008,-0.16 0,-0.05 0.004,-0.11 0.004,-0.17 0.004,-0.05 0.004,-0.11 0.007,-0.16 0,-0.05 0.004,-0.11 0.004,-0.16 0.004,-0.09 0.008,-0.2 0.012,-0.29 0,-0.05 0,-0.09 0.004,-0.14 0.004,-0.06 0.004,-0.12 0.008,-0.18 0,-0.04 0.004,-0.08 0.004,-0.13 0.004,-0.11 0.008,-0.22 0.011,-0.33 0.004,-0.03 0.004,-0.07 0.008,-0.11 0,-0.06 0.004,-0.13 0.008,-0.19 0,-0.03 0,-0.06 0.004,-0.08 0.004,-0.13 0.008,-0.25 0.016,-0.37 0,-0.05 0.004,-0.08 0.004,-0.12 0.011,-0.22 0.023,-0.44 0.031,-0.65 0.004,-0.04 0.004,-0.07 0.004,-0.1 0.011,-0.22 0.023,-0.45 0.035,-0.67 0.004,-0.03 0.004,-0.06 0.004,-0.09 0.015,-0.23 0.027,-0.45 0.039,-0.68 0.004,-0.03 0.004,-0.05 0.004,-0.07 0.008,-0.14 0.015,-0.28 0.023,-0.42 0.004,-0.02 0.004,-0.03 0.004,-0.05 0.004,-0.07 0.008,-0.13 0.012,-0.2 0.004,-0.05 0.008,-0.09 0.008,-0.13 0.007,-0.09 0.011,-0.18 0.019,-0.27 0.004,-0.07 0.008,-0.12 0.012,-0.18 0.004,-0.06 0.008,-0.11 0.012,-0.17 0.003,-0.06 0.003,-0.11 0.007,-0.17 0.008,-0.07 0.012,-0.15 0.016,-0.22 0.004,-0.07 0.012,-0.14 0.016,-0.21 0.004,-0.05 0.007,-0.1 0.011,-0.16 0.004,-0.06 0.008,-0.13 0.012,-0.2 0.004,-0.06 0.008,-0.11 0.012,-0.16 0.008,-0.09 0.011,-0.18 0.019,-0.26 0.004,-0.05 0.008,-0.09 0.008,-0.13 0.008,-0.09 0.016,-0.17 0.02,-0.26 0.004,-0.03 0.004,-0.06 0.007,-0.09 0.008,-0.1 0.016,-0.2 0.024,-0.3 0.004,-0.03 0.004,-0.07 0.008,-0.1 0.008,-0.11 0.015,-0.23 0.023,-0.34 v 0 0 c 5.973,-75.48 55.887,-134.98 117.012,-145.39 -0.449,-5.84 -0.715,-12.05 -0.711,-18.52 0,-0.51 0,-1.02 0.004,-1.54 -50.098,-14.36 -104.817,-36.72 -148.61,-71.36 -0.003,-0.01 -0.003,-0.01 -0.007,-0.01 -0.11,-0.09 -0.223,-0.18 -0.332,-0.26 -0.016,-0.02 -0.032,-0.03 -0.047,-0.04 -0.102,-0.08 -0.196,-0.16 -0.297,-0.24 -0.024,-0.02 -0.047,-0.04 -0.07,-0.05 -0.094,-0.08 -0.184,-0.15 -0.278,-0.22 -0.027,-0.03 -0.051,-0.05 -0.078,-0.07 -0.082,-0.06 -0.176,-0.14 -0.258,-0.2 -0.035,-0.03 -0.066,-0.06 -0.101,-0.08 -0.086,-0.07 -0.168,-0.14 -0.254,-0.21 -0.031,-0.02 -0.063,-0.05 -0.09,-0.07 -0.117,-0.09 -0.227,-0.18 -0.34,-0.27 -0.043,-0.04 -0.082,-0.07 -0.125,-0.11 -0.074,-0.06 -0.141,-0.11 -0.215,-0.17 -0.058,-0.05 -0.121,-0.1 -0.183,-0.15 -0.047,-0.03 -0.102,-0.08 -0.149,-0.12 -0.062,-0.05 -0.129,-0.1 -0.195,-0.16 -0.047,-0.03 -0.102,-0.08 -0.149,-0.12 -0.062,-0.05 -0.125,-0.1 -0.187,-0.15 -0.047,-0.04 -0.102,-0.08 -0.148,-0.12 -0.063,-0.05 -0.125,-0.11 -0.188,-0.16 -0.055,-0.04 -0.102,-0.08 -0.152,-0.12 -0.063,-0.05 -0.125,-0.1 -0.188,-0.15 -0.054,-0.05 -0.094,-0.08 -0.148,-0.13 -0.063,-0.05 -0.121,-0.1 -0.188,-0.15 -0.051,-0.04 -0.105,-0.09 -0.16,-0.13 -0.058,-0.05 -0.117,-0.1 -0.176,-0.15 -0.05,-0.04 -0.117,-0.1 -0.172,-0.14 -0.054,-0.04 -0.105,-0.09 -0.16,-0.13 -0.113,-0.1 -0.218,-0.19 -0.336,-0.28 C 715.238,2136.67 709.406,2065 709.406,2065 v 0 0 c 0,0 13.707,-7.11 32.824,-16.98 -131.714,-18.8 -235.82,-37.62 -297.265,-49.5 -70.016,18.35 -123.906,34.35 -144.965,36.46 v -48.93 -95.4 m 166.406,246.74 c -9.062,0 -16.406,-7.34 -16.406,-16.4 0,-9.06 7.344,-16.41 16.406,-16.41 9.063,0 16.407,7.35 16.407,16.41 0,9.06 -7.344,16.4 -16.407,16.4 m 2943.994,21.27 c -14.81,0 -26.84,-12.01 -26.84,-26.83 0,-14.82 12.03,-26.84 26.84,-26.84 14.82,0 26.84,12.02 26.84,26.84 0,14.82 -12.02,26.83 -26.84,26.83 m -374.85,60.83 c -11.58,0 -20.97,-9.39 -20.97,-20.96 0,-11.59 9.39,-20.97 20.97,-20.97 11.58,0 20.96,9.38 20.96,20.97 0,11.57 -9.38,20.96 -20.96,20.96 m -731.56,8.68 c -10.31,0 -18.67,-8.36 -18.67,-18.67 0,-10.31 8.36,-18.67 18.67,-18.67 10.31,0 18.68,8.36 18.68,18.67 0,10.31 -8.37,18.67 -18.68,18.67 m 1902.1,29.95 c -10.66,0 -19.31,-8.64 -19.31,-19.31 0,-10.68 8.65,-19.32 19.31,-19.32 10.68,0 19.33,8.64 19.33,19.32 0,10.67 -8.65,19.31 -19.33,19.31 m 354.41,27.68 c -7.64,0 -13.83,-6.19 -13.83,-13.84 0,-7.63 6.19,-13.84 13.83,-13.84 7.64,0 13.84,6.21 13.84,13.84 0,7.65 -6.2,13.84 -13.84,13.84 m -1761.41,6.82 c -9.53,0 -17.24,-7.73 -17.24,-17.25 0,-9.52 7.71,-17.25 17.24,-17.25 9.52,0 17.24,7.73 17.24,17.25 0,9.52 -7.72,17.25 -17.24,17.25 m 897.07,22.38 c -13.73,0 -24.86,-11.13 -24.86,-24.86 0,-13.73 11.13,-24.87 24.86,-24.87 13.73,0 24.87,11.14 24.87,24.87 0,13.73 -11.14,24.86 -24.87,24.86 m -3071.832,0 c -12.363,0 -22.39,-10.02 -22.39,-22.38 0,-12.38 10.027,-22.39 22.39,-22.39 12.363,0 22.387,10.01 22.387,22.39 0,12.36 -10.024,22.38 -22.387,22.38 m 1745.952,205.62 c -9.86,0 -17.85,-7.99 -17.85,-17.84 0,-9.86 7.99,-17.85 17.85,-17.85 9.85,0 17.85,7.99 17.85,17.85 0,9.85 -8,17.84 -17.85,17.84 m 2099.1,16.23 c -12.24,0 -22.16,-9.93 -22.16,-22.18 0,-12.24 9.92,-22.17 22.16,-22.17 12.25,0 22.18,9.93 22.18,22.17 0,12.25 -9.93,22.18 -22.18,22.18 m -4058.919,23.79 c -13.141,0 -23.797,-10.65 -23.797,-23.79 0,-13.14 10.656,-23.8 23.797,-23.8 13.137,0 23.785,10.66 23.785,23.8 0,13.14 -10.648,23.79 -23.785,23.79 m 3867.009,38.75 c -13.14,0 -23.79,-10.65 -23.79,-23.79 0,-13.14 10.65,-23.8 23.79,-23.8 13.14,0 23.79,10.66 23.79,23.8 0,13.14 -10.65,23.79 -23.79,23.79 m -2133.11,119.64 c -13.39,0 -24.26,-10.86 -24.26,-24.25 0,-13.4 10.87,-24.26 24.26,-24.26 13.4,0 24.26,10.86 24.26,24.26 0,13.39 -10.86,24.25 -24.26,24.25 m -289.24,17.64 c -15.95,0 -28.87,-12.93 -28.87,-28.87 0,-15.95 12.92,-28.87 28.87,-28.87 15.94,0 28.87,12.92 28.87,28.87 0,15.94 -12.93,28.87 -28.87,28.87 m -1270.819,0 c -9.738,0 -17.637,-7.9 -17.637,-17.64 0,-9.74 7.899,-17.64 17.637,-17.64 9.742,0 17.637,7.9 17.637,17.64 0,9.74 -7.895,17.64 -17.637,17.64 m 3950.949,101.26 c -13.94,0 -25.25,-11.31 -25.25,-25.25 0,-13.95 11.31,-25.25 25.25,-25.25 13.95,0 25.25,11.3 25.25,25.25 0,13.94 -11.3,25.25 -25.25,25.25 m -2198.67,35.41 c -12.94,0 -23.43,-10.49 -23.43,-23.43 0,-12.94 10.49,-23.43 23.43,-23.43 12.93,0 23.42,10.49 23.42,23.43 0,12.94 -10.49,23.43 -23.42,23.43 M 3465.45,2950 c -15.58,0 -28.21,-12.63 -28.21,-28.21 0,-15.59 12.63,-28.22 28.21,-28.22 15.59,0 28.21,12.63 28.21,28.22 0,15.58 -12.62,28.21 -28.21,28.21 m -1998.78,83.34 c -4.75,0 -8.6,-3.86 -8.6,-8.61 0,-4.75 3.85,-8.61 8.6,-8.61 4.76,0 8.61,3.86 8.61,8.61 0,4.75 -3.85,8.61 -8.61,8.61 m 1425.03,50.91 c -15.67,0 -28.37,-12.7 -28.37,-28.37 0,-15.67 12.7,-28.37 28.37,-28.37 15.66,0 28.37,12.7 28.37,28.37 0,15.67 -12.71,28.37 -28.37,28.37 m -962.95,0 c -13.58,0 -24.58,-11.01 -24.58,-24.59 0,-13.57 11,-24.58 24.58,-24.58 13.58,0 24.58,11.01 24.58,24.58 0,13.58 -11,24.59 -24.58,24.59 m -1004.777,0 c -10.481,0 -18.977,-8.5 -18.977,-18.98 0,-10.48 8.496,-18.98 18.977,-18.98 10.484,0 18.98,8.5 18.98,18.98 0,10.48 -8.496,18.98 -18.98,18.98 m 2976.737,38.47 c -15.1,0 -27.32,-12.23 -27.32,-27.32 0,-15.09 12.22,-27.32 27.32,-27.32 15.09,0 27.33,12.23 27.33,27.32 0,15.09 -12.24,27.32 -27.33,27.32 m -1376.15,0 c -10.62,0 -19.24,-8.61 -19.24,-19.23 0,-10.63 8.62,-19.24 19.24,-19.24 10.63,0 19.24,8.61 19.24,19.24 0,10.62 -8.61,19.23 -19.24,19.23 m -2105.771,-7.55 c -8.535,0 -15.453,-6.93 -15.453,-15.46 0,-8.54 6.918,-15.46 15.453,-15.46 8.539,0 15.457,6.92 15.457,15.46 0,8.53 -6.918,15.46 -15.457,15.46 m 4004.611,27.86 c -13.16,0 -23.82,-10.66 -23.82,-23.82 0,-13.15 10.66,-23.81 23.82,-23.81 13.15,0 23.82,10.66 23.82,23.81 0,13.16 -10.67,23.82 -23.82,23.82 m -3149.96,20.31 c -11.21,0 -20.3,-9.1 -20.3,-20.31 0,-11.22 9.09,-20.31 20.3,-20.31 11.22,0 20.31,9.09 20.31,20.31 0,11.21 -9.09,20.31 -20.31,20.31 M 887.07,2067.08 c 21.11,45.81 56.453,102.66 113.24,144.2 0.15,-0.28 0.29,-0.56 0.44,-0.84 -21.121,-38.56 -41.895,-84.29 -58.926,-136.99 -18.558,-2.08 -36.824,-4.2 -54.754,-6.37"
           style="fill:url(#linearGradient8534);fill-opacity:1;fill-rule:nonzero;stroke:none"
           id="path8536" />
      </g>
    </g>
    <g
       id="g8538"
       transform="scale(0.1)">
      <g
         id="g8540"
         clip-path="url(#clipPath8544)">
        <path
           d="m 418.789,3084.25 c -8.535,0 -15.453,6.92 -15.453,15.46 0,8.53 6.918,15.46 15.453,15.46 8.539,0 15.457,-6.93 15.457,-15.46 0,-8.54 -6.918,-15.46 -15.457,-15.46"
           style="fill:url(#linearGradient8552);fill-opacity:1;fill-rule:nonzero;stroke:none"
           id="path8554" />
      </g>
    </g>
    <g
       id="g8556"
       transform="scale(0.1)">
      <g
         id="g8558"
         clip-path="url(#clipPath8562)">
        <path
           d="m 584.301,2701.39 c -9.738,0 -17.637,7.9 -17.637,17.64 0,9.74 7.899,17.64 17.637,17.64 9.742,0 17.637,-7.9 17.637,-17.64 0,-9.74 -7.895,-17.64 -17.637,-17.64"
           style="fill:url(#linearGradient8570);fill-opacity:1;fill-rule:nonzero;stroke:none"
           id="path8572" />
      </g>
    </g>
    <g
       id="g8574"
       transform="scale(0.1)">
      <g
         id="g8576"
         clip-path="url(#clipPath8580)">
        <path
           d="m 410.461,2513.05 c -13.141,0 -23.797,10.66 -23.797,23.8 0,13.14 10.656,23.79 23.797,23.79 13.137,0 23.785,-10.65 23.785,-23.79 0,-13.14 -10.648,-23.8 -23.785,-23.8"
           style="fill:url(#linearGradient8588);fill-opacity:1;fill-rule:nonzero;stroke:none"
           id="path8590" />
      </g>
    </g>
    <g
       id="g8592"
       transform="scale(0.1)">
      <g
         id="g8594"
         clip-path="url(#clipPath8598)">
        <path
           d="m 624.328,2270.23 c -12.363,0 -22.39,10.01 -22.39,22.39 0,12.36 10.027,22.38 22.39,22.38 12.363,0 22.387,-10.02 22.387,-22.38 0,-12.38 -10.024,-22.39 -22.387,-22.39"
           style="fill:url(#linearGradient8606);fill-opacity:1;fill-rule:nonzero;stroke:none"
           id="path8608" />
      </g>
    </g>
    <g
       id="g8610"
       transform="scale(0.1)">
      <g
         id="g8612"
         clip-path="url(#clipPath8616)">
        <path
           d="m 466.406,2104.58 c -9.062,0 -16.406,7.35 -16.406,16.41 0,9.06 7.344,16.4 16.406,16.4 9.063,0 16.407,-7.34 16.407,-16.4 0,-9.06 -7.344,-16.41 -16.407,-16.41"
           style="fill:url(#linearGradient8624);fill-opacity:1;fill-rule:nonzero;stroke:none"
           id="path8626" />
      </g>
    </g>
    <g
       id="g8628"
       transform="scale(0.1)">
      <g
         id="g8630"
         clip-path="url(#clipPath8634)">
        <path
           d="m 923.973,3046.29 c -10.481,0 -18.977,8.5 -18.977,18.98 0,10.48 8.496,18.98 18.977,18.98 10.484,0 18.98,-8.5 18.98,-18.98 0,-10.48 -8.496,-18.98 -18.98,-18.98"
           style="fill:url(#linearGradient8642);fill-opacity:1;fill-rule:nonzero;stroke:none"
           id="path8644" />
      </g>
    </g>
    <g
       id="g8646"
       transform="scale(0.1)">
      <g
         id="g8648"
         clip-path="url(#clipPath8652)">
        <path
           d="m 1273.44,3122.72 c -11.21,0 -20.3,9.09 -20.3,20.31 0,11.21 9.09,20.31 20.3,20.31 11.22,0 20.31,-9.1 20.31,-20.31 0,-11.22 -9.09,-20.31 -20.31,-20.31"
           style="fill:url(#linearGradient8660);fill-opacity:1;fill-rule:nonzero;stroke:none"
           id="path8662" />
      </g>
    </g>
    <g
       id="g8664"
       transform="scale(0.1)">
      <g
         id="g8666"
         clip-path="url(#clipPath8670)">
        <path
           d="m 1466.67,3016.12 c -4.75,0 -8.6,3.86 -8.6,8.61 0,4.75 3.85,8.61 8.6,8.61 4.76,0 8.61,-3.86 8.61,-8.61 0,-4.75 -3.85,-8.61 -8.61,-8.61"
           style="fill:url(#linearGradient8678);fill-opacity:1;fill-rule:nonzero;stroke:none"
           id="path8680" />
      </g>
    </g>
    <g
       id="g8682"
       transform="scale(0.1)">
      <g
         id="g8684"
         clip-path="url(#clipPath8688)">
        <path
           d="m 1928.75,3035.08 c -13.58,0 -24.58,11.01 -24.58,24.58 0,13.58 11,24.59 24.58,24.59 13.58,0 24.58,-11.01 24.58,-24.59 0,-13.57 -11,-24.58 -24.58,-24.58"
           style="fill:url(#linearGradient8696);fill-opacity:1;fill-rule:nonzero;stroke:none"
           id="path8698" />
      </g>
    </g>
    <g
       id="g8700"
       transform="scale(0.1)">
      <g
         id="g8702"
         clip-path="url(#clipPath8706)">
        <path
           d="m 1855.12,2678.93 c -15.95,0 -28.87,12.92 -28.87,28.87 0,15.94 12.92,28.87 28.87,28.87 15.94,0 28.87,-12.93 28.87,-28.87 0,-15.95 -12.93,-28.87 -28.87,-28.87"
           style="fill:url(#linearGradient8714);fill-opacity:1;fill-rule:nonzero;stroke:none"
           id="path8716" />
      </g>
    </g>
    <g
       id="g8718"
       transform="scale(0.1)">
      <g
         id="g8720"
         clip-path="url(#clipPath8724)">
        <path
           d="m 2370.28,2484.93 c -9.86,0 -17.85,7.99 -17.85,17.85 0,9.85 7.99,17.84 17.85,17.84 9.85,0 17.85,-7.99 17.85,-17.84 0,-9.86 -8,-17.85 -17.85,-17.85"
           style="fill:url(#linearGradient8732);fill-opacity:1;fill-rule:nonzero;stroke:none"
           id="path8734" />
      </g>
    </g>
    <g
       id="g8736"
       transform="scale(0.1)">
      <g
         id="g8738"
         clip-path="url(#clipPath8742)">
        <path
           d="m 2336.58,2826.48 c -12.94,0 -23.43,10.49 -23.43,23.43 0,12.94 10.49,23.43 23.43,23.43 12.93,0 23.42,-10.49 23.42,-23.43 0,-12.94 -10.49,-23.43 -23.42,-23.43"
           style="fill:url(#linearGradient8750);fill-opacity:1;fill-rule:nonzero;stroke:none"
           id="path8752" />
      </g>
    </g>
    <g
       id="g8754"
       transform="scale(0.1)">
      <g
         id="g8756"
         clip-path="url(#clipPath8760)">
        <path
           d="m 2891.7,3027.51 c -15.67,0 -28.37,12.7 -28.37,28.37 0,15.67 12.7,28.37 28.37,28.37 15.66,0 28.37,-12.7 28.37,-28.37 0,-15.67 -12.71,-28.37 -28.37,-28.37"
           style="fill:url(#linearGradient8768);fill-opacity:1;fill-rule:nonzero;stroke:none"
           id="path8770" />
      </g>
    </g>
    <g
       id="g8772"
       transform="scale(0.1)">
      <g
         id="g8774"
         clip-path="url(#clipPath8778)">
        <path
           d="m 3465.45,2893.57 c -15.58,0 -28.21,12.63 -28.21,28.22 0,15.58 12.63,28.21 28.21,28.21 15.59,0 28.21,-12.63 28.21,-28.21 0,-15.59 -12.62,-28.22 -28.21,-28.22"
           style="fill:url(#linearGradient8786);fill-opacity:1;fill-rule:nonzero;stroke:none"
           id="path8788" />
      </g>
    </g>
    <g
       id="g8790"
       transform="scale(0.1)">
      <g
         id="g8792"
         clip-path="url(#clipPath8796)">
        <path
           d="m 3900.71,3068.08 c -15.1,0 -27.32,12.23 -27.32,27.32 0,15.09 12.22,27.32 27.32,27.32 15.09,0 27.33,-12.23 27.33,-27.32 0,-15.09 -12.24,-27.32 -27.33,-27.32"
           style="fill:url(#linearGradient8804);fill-opacity:1;fill-rule:nonzero;stroke:none"
           id="path8806" />
      </g>
    </g>
    <g
       id="g8808"
       transform="scale(0.1)">
      <g
         id="g8810"
         clip-path="url(#clipPath8814)">
        <path
           d="m 2303.99,2190.83 c -10.31,0 -18.67,8.36 -18.67,18.67 0,10.31 8.36,18.67 18.67,18.67 10.31,0 18.68,-8.36 18.68,-18.67 0,-10.31 -8.37,-18.67 -18.68,-18.67"
           style="fill:url(#linearGradient8822);fill-opacity:1;fill-rule:nonzero;stroke:none"
           id="path8824" />
      </g>
    </g>
    <g
       id="g8826"
       transform="scale(0.1)">
      <g
         id="g8828"
         clip-path="url(#clipPath8832)">
        <path
           d="m 2799.09,2258.12 c -9.53,0 -17.24,7.73 -17.24,17.25 0,9.52 7.71,17.25 17.24,17.25 9.52,0 17.24,-7.73 17.24,-17.25 0,-9.52 -7.72,-17.25 -17.24,-17.25"
           style="fill:url(#linearGradient8840);fill-opacity:1;fill-rule:nonzero;stroke:none"
           id="path8842" />
      </g>
    </g>
    <g
       id="g8844"
       transform="scale(0.1)">
      <g
         id="g8846"
         clip-path="url(#clipPath8850)">
        <path
           d="m 3410.4,2104.99 c -14.81,0 -26.84,12.02 -26.84,26.84 0,14.82 12.03,26.83 26.84,26.83 14.82,0 26.84,-12.01 26.84,-26.83 0,-14.82 -12.02,-26.84 -26.84,-26.84"
           style="fill:url(#linearGradient8858);fill-opacity:1;fill-rule:nonzero;stroke:none"
           id="path8860" />
      </g>
    </g>
    <g
       id="g8862"
       transform="scale(0.1)">
      <g
         id="g8864"
         clip-path="url(#clipPath8868)">
        <path
           d="m 3696.16,2265.27 c -13.73,0 -24.86,11.14 -24.86,24.87 0,13.73 11.13,24.86 24.86,24.86 13.73,0 24.87,-11.13 24.87,-24.86 0,-13.73 -11.14,-24.87 -24.87,-24.87"
           style="fill:url(#linearGradient8876);fill-opacity:1;fill-rule:nonzero;stroke:none"
           id="path8878" />
      </g>
    </g>
    <g
       id="g8880"
       transform="scale(0.1)">
      <g
         id="g8882"
         clip-path="url(#clipPath8886)">
        <path
           d="m 4206.09,2219.49 c -10.66,0 -19.31,8.64 -19.31,19.32 0,10.67 8.65,19.31 19.31,19.31 10.68,0 19.33,-8.64 19.33,-19.31 0,-10.68 -8.65,-19.32 -19.33,-19.32"
           style="fill:url(#linearGradient8894);fill-opacity:1;fill-rule:nonzero;stroke:none"
           id="path8896" />
      </g>
    </g>
    <g
       id="g8898"
       transform="scale(0.1)">
      <g
         id="g8900"
         clip-path="url(#clipPath8904)">
        <path
           d="m 4277.47,2551.8 c -13.14,0 -23.79,10.66 -23.79,23.8 0,13.14 10.65,23.79 23.79,23.79 13.14,0 23.79,-10.65 23.79,-23.79 0,-13.14 -10.65,-23.8 -23.79,-23.8"
           style="fill:url(#linearGradient8912);fill-opacity:1;fill-rule:nonzero;stroke:none"
           id="path8914" />
      </g>
    </g>
    <g
       id="g8916"
       transform="scale(0.1)">
      <g
         id="g8918"
         clip-path="url(#clipPath8922)">
        <path
           d="m 4560.5,2258.12 c -7.64,0 -13.83,6.21 -13.83,13.84 0,7.65 6.19,13.84 13.83,13.84 7.64,0 13.84,-6.19 13.84,-13.84 0,-7.63 -6.2,-13.84 -13.84,-13.84"
           style="fill:url(#linearGradient8930);fill-opacity:1;fill-rule:nonzero;stroke:none"
           id="path8932" />
      </g>
    </g>
    <g
       id="g8934"
       transform="scale(0.1)">
      <g
         id="g8936"
         clip-path="url(#clipPath8940)">
        <path
           d="m 4535.25,2787.43 c -13.94,0 -25.25,11.3 -25.25,25.25 0,13.94 11.31,25.25 25.25,25.25 13.95,0 25.25,-11.31 25.25,-25.25 0,-13.95 -11.3,-25.25 -25.25,-25.25"
           style="fill:url(#linearGradient8948);fill-opacity:1;fill-rule:nonzero;stroke:none"
           id="path8950" />
      </g>
    </g>
    <g
       id="g8952"
       transform="scale(0.1)">
      <g
         id="g8954"
         clip-path="url(#clipPath8958)">
        <path
           d="m 4423.4,3095.4 c -13.16,0 -23.82,10.66 -23.82,23.81 0,13.16 10.66,23.82 23.82,23.82 13.15,0 23.82,-10.66 23.82,-23.82 0,-13.15 -10.67,-23.81 -23.82,-23.81"
           style="fill:url(#linearGradient8966);fill-opacity:1;fill-rule:nonzero;stroke:none"
           id="path8968" />
      </g>
    </g>
    <g
       id="g8970"
       transform="scale(0.1)">
      <g
         id="g8972"
         clip-path="url(#clipPath8976)">
        <path
           d="m 4469.38,2492.5 c -12.24,0 -22.16,9.93 -22.16,22.17 0,12.25 9.92,22.18 22.16,22.18 12.25,0 22.18,-9.93 22.18,-22.18 0,-12.24 -9.93,-22.17 -22.18,-22.17"
           style="fill:url(#linearGradient8984);fill-opacity:1;fill-rule:nonzero;stroke:none"
           id="path8986" />
      </g>
    </g>
    <g
       id="g8988"
       transform="scale(0.1)">
      <g
         id="g8990"
         clip-path="url(#clipPath8994)">
        <path
           d="m 2524.56,3084.25 c -10.62,0 -19.24,8.61 -19.24,19.24 0,10.62 8.62,19.23 19.24,19.23 10.63,0 19.24,-8.61 19.24,-19.23 0,-10.63 -8.61,-19.24 -19.24,-19.24"
           style="fill:url(#linearGradient9002);fill-opacity:1;fill-rule:nonzero;stroke:none"
           id="path9004" />
      </g>
    </g>
    <g
       id="g9006"
       transform="scale(0.1)">
      <g
         id="g9008"
         clip-path="url(#clipPath9012)">
        <path
           d="m 3035.55,2177.56 c -11.58,0 -20.97,9.38 -20.97,20.97 0,11.57 9.39,20.96 20.97,20.96 11.58,0 20.96,-9.39 20.96,-20.96 0,-11.59 -9.38,-20.97 -20.96,-20.97"
           style="fill:url(#linearGradient9020);fill-opacity:1;fill-rule:nonzero;stroke:none"
           id="path9022" />
      </g>
    </g>
    <g
       id="g9024"
       transform="scale(0.1)">
      <g
         id="g9026"
         clip-path="url(#clipPath9030)">
        <path
           d="m 2144.36,2670.52 c -13.39,0 -24.26,10.86 -24.26,24.26 0,13.39 10.87,24.25 24.26,24.25 13.4,0 24.26,-10.86 24.26,-24.25 0,-13.4 -10.86,-24.26 -24.26,-24.26"
           style="fill:url(#linearGradient9038);fill-opacity:1;fill-rule:nonzero;stroke:none"
           id="path9040" />
      </g>
    </g>
    <path
       d="m 324.492,194.667 c 0,0 -66.149,14.333 -106.321,10 -20.639,-2.227 -37.042,-0.083 -53.756,2.061 -15.818,2.03 -31.914,4.058 -52.143,2.383 C 70.6664,205.667 38.3336,198.605 38.3336,198.605 H 30 v -9.541 h 292.667 l 1.825,5.603"
       style="fill:#ddf4f5;fill-opacity:1;fill-rule:nonzero;stroke:none;stroke-width:0.1"
       id="path9042" />
    <path
       d="m 470,202.665 c 0,0 -36,16.833 -80.833,5.333 -26.101,-6.695 -45.423,-4.977 -61.353,-3.26 -11.434,1.232 -21.122,2.465 -30.314,0.587 -22,-4.494 -58.206,-10.327 -81.539,-10.494 -8.969,-0.064 -15.494,0.479 -21.284,1.022 -9.275,0.87 -16.662,1.74 -29.179,0.116 -20.331,-2.638 -67.6644,-2.721 -87.3316,-2.013 C 58.5,194.665 35,202.998 30,203.498 v -14.434 h 440 v 13.601"
       style="fill:#f0fafb;fill-opacity:1;fill-rule:nonzero;stroke:none;stroke-width:0.1"
       id="path9044" />
    <path
       d="m 182.708,208.667 7.709,1.083 11.958,8.833 -20.167,2.667 -3.124,-3.494 3.624,-9.089"
       style="fill:#473b3d;fill-opacity:1;fill-rule:nonzero;stroke:none;stroke-width:0.1"
       id="path9046" />
    <g
       id="g9048"
       transform="scale(0.1)">
      <g
         id="g9050"
         clip-path="url(#clipPath9054)">
        <path
           d="m 2023.75,2185.83 -84.59,11.19 21.26,15.48 63.33,-26.67"
           style="fill:url(#linearGradient9062);fill-opacity:1;fill-rule:nonzero;stroke:none"
           id="path9064" />
      </g>
    </g>
    <path
       d="m 190.417,209.75 -5.16,3.645 8.659,6.307 8.459,-1.119 -11.958,-8.833"
       style="fill:#3b3132;fill-opacity:1;fill-rule:nonzero;stroke:none;stroke-width:0.1"
       id="path9066" />
    <path
       d="m 141.375,202.271 c 0,0 30.041,-12.021 49.042,7.479 l -11.333,8.006 c 0,0 -13.455,-12.907 -27.186,-8.645 -13.731,4.264 -10.523,-6.84 -10.523,-6.84"
       style="fill:#e1962f;fill-opacity:1;fill-rule:nonzero;stroke:none;stroke-width:0.1"
       id="path9068" />
    <path
       d="m 161.935,198.606 c -2.805,0 -5.474,0.222 -7.905,0.556 -0.202,1.1 -0.426,2.268 -0.676,3.49 2.31,0.699 4.374,0.879 5.882,0.879 1.584,0 2.555,-0.198 2.555,-0.198 v 0 0 c -0.005,0.396 -0.017,0.783 -0.034,1.159 1.959,0.235 4.003,0.589 6.118,1.091 6.848,1.628 12.758,4.703 17.382,7.812 l 5.16,-3.645 c -8.51,-8.734 -19.233,-11.144 -28.482,-11.144"
       style="fill:#db8f27;fill-opacity:1;fill-rule:nonzero;stroke:none;stroke-width:0.1"
       id="path9070" />
    <path
       d="m 192.625,256.063 v 0 c 1.035,-2.129 3.717,-2.848 5.679,-1.521 -0.169,-2.362 1.795,-4.325 4.156,-4.157 -1.326,-1.961 -0.607,-4.643 1.522,-5.679 -2.129,-1.035 -2.848,-3.717 -1.522,-5.678 v -0.001 c -2.361,0.169 -4.325,-1.795 -4.156,-4.156 -1.962,1.326 -4.644,0.608 -5.679,-1.521 -1.036,2.129 -3.717,2.847 -5.679,1.521 0.168,2.361 -1.795,4.325 -4.157,4.156 v 0.001 c 1.327,1.961 0.608,4.643 -1.521,5.678 2.129,1.036 2.848,3.718 1.521,5.679 2.362,-0.168 4.325,1.795 4.157,4.157 1.962,-1.327 4.643,-0.608 5.679,1.521"
       style="fill:#d4b818;fill-opacity:1;fill-rule:nonzero;stroke:none;stroke-width:0.1"
       id="path9072" />
    <path
       d="m 200.96,238.149 h -27 v 7.601 h 27 v -7.601"
       style="fill:#9d3ea1;fill-opacity:1;fill-rule:nonzero;stroke:none;stroke-width:0.1"
       id="path9074" />
    <path
       d="m 190.523,238.149 h -6.125 v 7.601 h 6.125 v -7.601"
       style="fill:#e9d125;fill-opacity:1;fill-rule:nonzero;stroke:none;stroke-width:0.1"
       id="path9076" />
    <path
       d="m 200.96,217.256 h -27 v 20.893 h 27 v -20.893"
       style="fill:#873890;fill-opacity:1;fill-rule:nonzero;stroke:none;stroke-width:0.1"
       id="path9078" />
    <path
       d="m 212.46,238.149 h -11.5 v 7.601 h 11.5 v -7.601"
       style="fill:#b149ab;fill-opacity:1;fill-rule:nonzero;stroke:none;stroke-width:0.1"
       id="path9080" />
    <path
       d="m 212.46,217.256 h -11.5 v 20.893 h 11.5 v -20.893"
       style="fill:#9d3ea1;fill-opacity:1;fill-rule:nonzero;stroke:none;stroke-width:0.1"
       id="path9082" />
    <path
       d="m 190.523,217.256 h -6.125 v 20.893 h 6.125 v -20.893"
       style="fill:#d4b818;fill-opacity:1;fill-rule:nonzero;stroke:none;stroke-width:0.1"
       id="path9084" />
    <path
       d="m 112.024,232.833 c -0.25,0 -18.6666,-1 -29.5838,-10.083 -10.9164,-9.083 -11.4996,-16.25 -11.4996,-16.25 0,0 14.8793,-7.721 14.9879,-7.6 0.109,0.122 4.8453,23.1 25.5955,27.267 20.75,4.166 0.5,6.666 0.5,6.666"
       style="fill:#3fab3c;fill-opacity:1;fill-rule:nonzero;stroke:none;stroke-width:0.1"
       id="path9086" />
    <path
       d="m 85.9289,198.901 v 0 0 m 0.0117,0.033 c 0.0559,0.19 0.2867,1.175 0.7699,2.668 4e-4,-0.001 8e-4,-0.002 8e-4,-0.002 -0.4808,-1.488 -0.7144,-2.475 -0.7707,-2.666"
       style="fill:#bbe7cd;fill-opacity:1;fill-rule:nonzero;stroke:none;stroke-width:0.1"
       id="path9088" />
    <g
       id="g9090"
       transform="scale(0.1)">
      <g
         id="g9092"
         clip-path="url(#clipPath9096)">
        <path
           d="m 824.738,2227.78 c 0.055,0.04 0.106,0.09 0.16,0.13 -0.054,-0.04 -0.109,-0.09 -0.16,-0.13 m 0.332,0.27 c 0.059,0.05 0.118,0.1 0.176,0.15 -0.058,-0.05 -0.113,-0.1 -0.176,-0.15 m 0.336,0.28 c 0.067,0.05 0.125,0.1 0.188,0.15 -0.059,-0.05 -0.125,-0.1 -0.188,-0.15 m 0.336,0.28 c 0.063,0.05 0.125,0.1 0.188,0.15 -0.063,-0.05 -0.125,-0.1 -0.188,-0.15 m 0.34,0.27 c 0.063,0.05 0.125,0.11 0.188,0.16 -0.059,-0.05 -0.129,-0.11 -0.188,-0.16 m 0.336,0.28 c 0.062,0.05 0.125,0.1 0.187,0.15 -0.066,-0.05 -0.121,-0.1 -0.187,-0.15 m 0.336,0.27 c 0.066,0.06 0.133,0.11 0.195,0.16 -0.066,-0.05 -0.129,-0.1 -0.195,-0.16 m 0.344,0.28 c 0.062,0.05 0.125,0.1 0.183,0.15 -0.062,-0.05 -0.121,-0.1 -0.183,-0.15 m 0.398,0.32 c 0.043,0.04 0.082,0.07 0.125,0.11 -0.039,-0.04 -0.086,-0.07 -0.125,-0.11 m 0.465,0.38 c 0.027,0.02 0.059,0.05 0.09,0.07 -0.028,-0.02 -0.067,-0.05 -0.09,-0.07 m 0.344,0.28 c 0.035,0.02 0.066,0.05 0.101,0.08 -0.035,-0.03 -0.066,-0.06 -0.101,-0.08 m 0.359,0.28 c 0.027,0.02 0.051,0.04 0.078,0.07 -0.027,-0.03 -0.051,-0.05 -0.078,-0.07 m 0.356,0.29 c 0.023,0.01 0.046,0.03 0.07,0.05 -0.02,-0.01 -0.051,-0.04 -0.07,-0.05 m 0.367,0.29 c 0.015,0.01 0.031,0.02 0.047,0.04 -0.016,-0.02 -0.036,-0.03 -0.047,-0.04 m 0.379,0.3 c 0.004,0 0.004,0 0.007,0.01 -0.003,-0.01 -0.003,-0.01 -0.007,-0.01"
           style="fill:url(#linearGradient9104);fill-opacity:1;fill-rule:nonzero;stroke:none"
           id="path9106" />
      </g>
    </g>
    <path
       d="m 85.9234,198.899 c -0.3351,0.001 -14.9828,7.601 -14.9828,7.601 0,0 0.5832,7.167 11.4996,16.25 0.0114,0.009 0.0223,0.018 0.0336,0.028 0.0051,0.004 0.0106,0.009 0.016,0.013 0.0059,0.005 0.0118,0.01 0.0172,0.014 0.0063,0.005 0.0118,0.01 0.0176,0.015 0.0055,0.004 0.0109,0.009 0.016,0.013 0.0063,0.005 0.0129,0.01 0.0188,0.015 0.0051,0.004 0.0101,0.009 0.0148,0.013 0.0063,0.005 0.0125,0.01 0.0188,0.015 0.005,0.004 0.0101,0.008 0.0152,0.012 0.0059,0.005 0.0129,0.011 0.0188,0.016 0.005,0.004 0.0097,0.008 0.0148,0.012 0.0066,0.005 0.0121,0.01 0.0187,0.015 0.0051,0.004 0.0102,0.008 0.0149,0.012 0.0066,0.006 0.0129,0.011 0.0195,0.016 0.0051,0.004 0.0102,0.008 0.0149,0.012 0.0062,0.005 0.0121,0.01 0.0183,0.015 0.0071,0.006 0.0145,0.012 0.0215,0.017 0.0039,0.004 0.0086,0.007 0.0125,0.011 0.0113,0.009 0.0227,0.018 0.034,0.027 0.0023,0.002 0.0062,0.005 0.009,0.007 0.0086,0.007 0.0168,0.014 0.0254,0.021 0.0035,0.002 0.0066,0.005 0.0101,0.008 0.0086,0.006 0.0172,0.013 0.0258,0.02 0.0027,0.002 0.0051,0.004 0.0078,0.007 0.0094,0.007 0.0184,0.014 0.0278,0.022 0.0019,0.001 0.005,0.004 0.007,0.005 0.0098,0.008 0.0195,0.016 0.0297,0.024 0.0011,0.001 0.0031,0.002 0.0047,0.004 0.0109,0.008 0.0218,0.017 0.0332,0.026 4e-4,0 4e-4,0 7e-4,0.001 2.9047,2.297 6.2899,4.052 9.7012,5.394 -4.2543,-7.177 -7.9472,-16.302 -6.5297,-24.997 0.1207,-0.736 0.3141,-1.39 0.5617,-1.981 -0.4832,-1.493 -0.714,-2.478 -0.7699,-2.668 -0.0054,-0.019 -0.0093,-0.03 -0.0117,-0.033 v 0 c 0,0 0,-0.001 -4e-4,-0.001 v 0 c -8e-4,-0.001 -0.0023,-0.001 -0.0051,-0.001"
       style="fill:#349f3e;fill-opacity:1;fill-rule:nonzero;stroke:none;stroke-width:0.1"
       id="path9108" />
    <path
       d="m 111.291,236.25 c 0,0 -18.0836,-16.368 -20.7914,-47.185 h 65.0414 c 0,0 -1.574,15.831 -7.122,31.935 -5.548,16.105 -37.128,15.25 -37.128,15.25"
       style="fill:#bc4749;fill-opacity:1;fill-rule:nonzero;stroke:none;stroke-width:0.1"
       id="path9110" />
    <path
       d="M 134.739,189.065 H 90.4996 c 1.1844,13.477 5.3086,24.189 9.5754,31.979 1.591,-2.994 4.217,-5.897 8.432,-8.211 v 0 c 3.088,-1.695 6.26,-2.374 9.353,-2.374 0.774,0 1.544,0.043 2.306,0.122 0.678,-1.7 1.436,-3.397 2.278,-5.077 -3.887,0.388 -6.276,1.844 -8.108,3.301 -2.137,1.7 -3.515,3.4 -5.623,3.4 -0.216,0 -0.439,-0.017 -0.671,-0.055 -5.074,-0.815 -5.25,-4.386 -3.903,-7.821 0.003,-0.006 0.005,-0.013 0.008,-0.019 0,0 3.433,-8.81 20.372,-11.56 v 0 c 1.763,-0.286 3.449,-0.414 5.051,-0.414 v 0 0 c 0.627,0 1.242,0.019 1.844,0.057 1.044,-1.14 2.152,-2.252 3.325,-3.328"
       style="fill:#bc4749;fill-opacity:1;fill-rule:nonzero;stroke:none;stroke-width:0.1"
       id="path9112" />
    <path
       d="m 98.875,237.472 c 0,0 -5.7016,-16.222 9.632,-24.639 15.333,-8.416 32.701,8.227 32.451,8.53 -0.25,0.304 -28.666,19.804 -28.666,19.804 l -13.417,-3.695"
       style="fill:#3fab3c;fill-opacity:1;fill-rule:nonzero;stroke:none;stroke-width:0.1"
       id="path9114" />
    <path
       d="m 110.198,212.018 c -0.566,0.243 -1.13,0.507 -1.691,0.815 v 0 c -4.255,2.335 -6.889,5.271 -8.476,8.295 -1.6607,3.164 -2.1736,6.426 -2.1927,9.194 -4e-4,0.052 -4e-4,0.103 -4e-4,0.154 -4e-4,0.647 0.0262,1.268 0.0711,1.852 0.625,-0.107 1.2621,-0.162 1.907,-0.162 0.002,0 0.0035,0 0.0051,0 v 0 0 0 c 0.2899,-0.001 0.5799,0.011 0.8729,0.033 0.009,10e-4 0.019,10e-4 0.028,0.002 v 0 0 c 1.245,0.098 2.433,0.397 3.545,0.866 1.176,-2.114 2.569,-4.073 4.142,-5.876 -0.649,-5.25 -0.464,-10.811 1.789,-15.173"
       style="fill:#349f3e;fill-opacity:1;fill-rule:nonzero;stroke:none;stroke-width:0.1"
       id="path9116" />
    <path
       d="m 146.041,285.333 -1.331,3.169 c 0,0 -18.934,20.998 -48.8006,5.664 -29.868,-15.332 -19.3676,-59.833 -19.3676,-59.833 0,0 -0.0984,17.222 19.3676,18.278 19.4656,1.056 50.1316,32.722 50.1316,32.722"
       style="fill:#bc4749;fill-opacity:1;fill-rule:nonzero;stroke:none;stroke-width:0.1"
       id="path9118" />
    <path
       d="m 82.0168,247.192 c -1.5398,1.285 -3.5215,2.058 -5.684,2.058 -0.5226,0 -1.0348,-0.045 -1.5328,-0.132 -0.1387,4.286 0.0188,9.164 0.8027,14.153 4.9504,-2.023 10.6282,-2.482 14.7231,-2.487 0.0246,0 0.0492,-10e-4 0.0738,-10e-4 v 0 0 c 8e-4,0 0.0012,0 0.0016,0 0.3855,10e-4 0.7562,0.005 1.1109,0.012 -2.8769,-2.448 -4.8308,-6.25 -5.2695,-10.58 -1.6848,-0.861 -3.0754,-1.897 -4.2258,-3.023 m 12.1977,21.814 c -1.1672,0 -2.3821,0.418 -3.5481,2.122 -1.8469,2.7 -0.5445,6.208 -0.1547,8.855 1.3207,-2.744 4.3738,-4.866 10.3073,-5.471 -1.0877,-1.82 -1.9346,-3.589 -2.5952,-5.254 -0.2691,0.099 -0.5531,0.136 -0.85,0.136 -0.4761,0 -0.9847,-0.097 -1.5148,-0.194 -0.5301,-0.097 -1.0817,-0.194 -1.6445,-0.194 m -12.2086,6.94 c -0.1418,0 -0.2961,0.018 -0.4645,0.057 -0.7453,0.174 -1.2836,0.704 -1.6609,1.517 2.5386,5.281 6.2371,10.138 11.5437,13.916 -1.0605,-2.548 -1.8937,-5.473 -1.7269,-8.174 -0.3899,0.267 -0.9278,0.451 -1.6559,0.533 -0.2031,0.023 -0.3949,0.035 -0.5773,0.035 -2.4262,0 -3.0629,-1.971 -3.4563,-3.942 -0.3937,-1.972 -0.5445,-3.942 -2.0019,-3.942"
       style="fill:#bc4749;fill-opacity:1;fill-rule:nonzero;stroke:none;stroke-width:0.1"
       id="path9120" />
    <path
       d="m 146.917,276 c 0,0 14.375,-3.375 20.75,4.5 6.375,7.875 6.75,25.75 0,29.625 -6.75,3.875 -10.5,-0.875 -8.5,-7.625 1.999,-6.75 3.422,-16.125 0.586,-17.125 -2.837,-1 -0.738,6.465 -5.103,7.418 -4.364,0.954 -4.208,-2.668 -3.158,-6.543 1.05,-3.875 1.715,-6.205 -1.368,-6.915 -3.082,-0.71 -3.207,-3.335 -3.207,-3.335"
       style="fill:#524346;fill-opacity:1;fill-rule:nonzero;stroke:none;stroke-width:0.1"
       id="path9122" />
    <g
       id="g9124"
       transform="scale(0.1)">
      <g
         id="g9126"
         clip-path="url(#clipPath9130)">
        <path
           d="m 1613.48,2899.5 c 0,35.6 -9.88,85.22 -21.81,125.5 -4.7,15.86 -6.23,30.61 -4.94,43.4 -1.29,-12.79 0.24,-27.54 4.94,-43.4 11.93,-40.28 21.81,-89.9 21.81,-125.5"
           style="fill:url(#linearGradient9138);fill-opacity:1;fill-rule:nonzero;stroke:none"
           id="path9140" />
      </g>
    </g>
    <path
       d="m 158.912,275.729 c -2.121,2.007 -4.197,3.742 -6.724,5.083 0.127,0.326 0.182,0.697 0.181,1.115 -0.001,1.116 -0.399,2.56 -0.877,4.323 -0.363,1.341 -0.619,2.651 -0.618,3.752 0.001,1.731 0.638,2.945 2.496,2.945 0.375,0 0.801,-0.049 1.28,-0.154 4.092,-0.894 2.503,-7.51 4.626,-7.51 0.141,0 0.3,0.03 0.477,0.092 1.144,0.403 1.595,2.169 1.595,4.575 0,3.56 -0.988,8.522 -2.181,12.55 -0.47,1.586 -0.623,3.061 -0.494,4.34 0.284,2.813 1.931,4.676 4.562,4.676 0.632,0 1.322,-0.107 2.062,-0.335 2.333,-7.03 5.68,-20.659 1.336,-31.787 -2.153,-2.045 -4.932,-3.133 -7.721,-3.665"
       style="fill:#45383a;fill-opacity:1;fill-rule:nonzero;stroke:none;stroke-width:0.1"
       id="path9142" />
    <path
       d="m 95.9164,257.899 c 0,0 -0.8996,16.768 16.9876,29.372 17.888,12.604 36.821,0.605 38.542,-6.084 1.72,-6.687 -45.154,-34.009 -45.154,-34.009 l -10.3826,10.057 0.007,0.664"
       style="fill:#3fab3c;fill-opacity:1;fill-rule:nonzero;stroke:none;stroke-width:0.1"
       id="path9144" />
    <path
       d="m 105.119,262.009 c -1.822,1.064 -3.858,1.66 -5.9827,1.66 -0.1183,0 -0.2367,-0.002 -0.3554,-0.006 0.9472,1.244 1.5641,2.808 0.698,4.398 -0.3617,0.664 -0.782,1.021 -1.248,1.194 1.2363,3.114 3.1261,6.595 6.0141,10.08 0.768,-3.121 2.775,-6.355 6.622,-9.545 -2.597,-3.025 -4.53,-5.883 -5.748,-7.781"
       style="fill:#349f3e;fill-opacity:1;fill-rule:nonzero;stroke:none;stroke-width:0.1"
       id="path9146" />
    <path
       d="m 95.9285,261.074 c 0,0 -19.0121,-2.457 -27.2621,6.924 -8.25,9.38 -4.75,34.255 0,37.505 4.75,3.25 12.1715,0.503 11.3984,-9.123 -0.7734,-9.627 -2.2734,-19.502 1.4766,-20.377 1.8945,-0.442 2.0344,1.722 2.4664,3.885 0.4231,2.119 1.1266,4.237 4.0336,3.907 5.875,-0.667 -0.6246,-7.917 2.625,-12.667 1.7281,-2.525 3.5625,-2.227 5.1926,-1.928 1.4355,0.263 2.7129,0.526 3.6199,-1.139 1.9381,-3.558 -3.5504,-6.987 -3.5504,-6.987"
       style="fill:#524346;fill-opacity:1;fill-rule:nonzero;stroke:none;stroke-width:0.1"
       id="path9148" />
    <path
       d="m 90.3996,260.783 c -0.0246,0 -0.0492,10e-4 -0.0738,10e-4 0.0246,0 0.0492,-10e-4 0.0738,-10e-4 v 0 m 0.0016,0 c 0.3855,10e-4 0.7562,0.005 1.1109,0.012 v 0 c -0.3547,-0.007 -0.7254,-0.011 -1.1109,-0.012"
       style="fill:#c9242d;fill-opacity:1;fill-rule:nonzero;stroke:none;stroke-width:0.1"
       id="path9150" />
    <path
       d="m 90.3996,260.783 c -0.0246,0 -0.0492,10e-4 -0.0738,10e-4 -6.1985,0.008 -16.0262,1.056 -21.4621,6.994 -0.011,0.012 -0.0215,0.024 -0.0321,0.036 -0.0015,10e-4 -0.0035,0.003 -0.005,0.005 -0.0024,0.002 -0.0043,0.005 -0.0067,0.007 -0.0109,0.013 -0.0222,0.025 -0.0336,0.038 -0.0261,0.028 -0.0519,0.057 -0.0777,0.086 -0.0141,0.016 -0.0281,0.032 -0.0422,0.048 v 0 c -3.5934,4.086 -4.9574,11.111 -4.9601,18.008 -0.004,8.939 2.2789,17.663 4.9601,19.497 1.1922,0.816 2.5512,1.253 3.9078,1.299 -2.1058,-9.563 -3.3558,-23.099 2.7172,-33.177 3.6535,-6.062 10.5164,-8.029 17.8973,-8.029 2.2027,0 4.4527,0.176 6.6761,0.469 -0.1082,-0.868 -0.5429,-1.688 -1.0863,-2.402 -0.1801,-0.005 -0.3613,-0.015 -0.5426,-0.03 -2.5293,-0.2 -4.8269,-1.225 -6.7238,-2.838 -0.3547,-0.007 -0.7254,-0.011 -1.1109,-0.012 -4e-4,0 -8e-4,0 -0.0016,0"
       style="fill:#45383a;fill-opacity:1;fill-rule:nonzero;stroke:none;stroke-width:0.1"
       id="path9152" />
    <path
       d="m 103.642,259.718 c 0.9,0.949 12.694,23.682 32.713,24.066 20.02,0.383 20.672,-8.618 34.679,-18.951 14.007,-10.333 13.552,-36.289 -1.826,-46.166 -20.5,-13.167 -56.833,-6.167 -66.667,18 -9.8332,24.166 1.101,23.051 1.101,23.051"
       style="fill:#e1962f;fill-opacity:1;fill-rule:nonzero;stroke:none;stroke-width:0.1"
       id="path9154" />
    <path
       d="m 129.831,214.213 c -10.729,3.055 -20.31,9.412 -25.563,18.854 5.06,2.137 8.541,7.826 8.541,14.412 0,0.491 -0.019,0.988 -0.059,1.488 -0.457,5.78 -3.491,10.622 -7.631,13.042 2.382,3.712 7.492,11.089 14.972,16.223 -6.608,-18.421 -11.713,-46.76 9.74,-64.019"
       style="fill:#db8f27;fill-opacity:1;fill-rule:nonzero;stroke:none;stroke-width:0.1"
       id="path9156" />
    <path
       d="m 172.837,240.195 c 0.617,-5.973 -5.592,-11.509 -13.867,-12.363 -8.275,-0.853 -15.483,3.298 -16.099,9.273 -0.616,5.973 5.592,11.509 13.867,12.362 8.275,0.854 15.483,-3.297 16.099,-9.272"
       style="fill:#bc4749;fill-opacity:1;fill-rule:nonzero;stroke:none;stroke-width:0.1"
       id="path9158" />
    <path
       d="m 156.821,227.721 c -0.002,0 -0.003,0 -0.005,0 0.002,0 0.003,0 0.005,0 v 0 m 0.001,0 c 0.683,0 1.38,0.034 2.082,0.104 -0.702,-0.07 -1.398,-0.104 -2.082,-0.104 m -13.937,9.262 c -0.003,0.019 -0.005,0.039 -0.007,0.058 0.002,-0.019 0.004,-0.039 0.007,-0.058 m -0.007,0.058 v 0 0 m -0.009,0.084 c 0,0.003 0,0.005 -0.001,0.008 0.001,-0.003 0.001,-0.005 0.001,-0.008 m -0.002,0.021 c 0,0.003 -10e-4,0.006 -10e-4,0.009 0,-0.003 10e-4,-0.006 10e-4,-0.009 m -0.002,0.022 c -0.001,0.005 -0.001,0.009 -0.001,0.014 0,-0.005 0,-0.009 0.001,-0.014 m -0.003,0.026 c 0,0.004 0,0.007 -0.001,0.01 0.001,-0.003 0.001,-0.006 0.001,-0.01 m -0.001,0.021 c -10e-4,0.003 -10e-4,0.007 -10e-4,0.01 0,-0.003 0,-0.007 10e-4,-0.01 m -0.002,0.021 c -0.001,0.006 -0.001,0.012 -0.002,0.018 0.001,-0.006 0.001,-0.012 0.002,-0.018 m -0.003,0.028 c 0,0.003 0,0.007 -0.001,0.01 0.001,-0.003 0.001,-0.007 0.001,-0.01 m -0.001,0.021 c -10e-4,0.003 -10e-4,0.007 -10e-4,0.01 0,-0.003 0,-0.007 10e-4,-0.01 m -0.002,0.025 c -0.001,0.004 -0.001,0.007 -0.001,0.011 0,-0.004 0,-0.007 0.001,-0.011 m -0.002,0.025 c 0,0.003 -0.001,0.005 -0.001,0.008 0,-0.003 0.001,-0.005 0.001,-0.008 m -0.002,0.022 c 0,0.002 0,0.005 0,0.007 0,-0.002 0,-0.005 0,-0.007 m -0.002,0.028 c 0,0 0,0 0,0.001 v -0.001 m -0.001,0.022 c 0,10e-4 0,0.002 0,0.003 0,-0.001 0,-0.002 0,-0.003"
       style="fill:#d27b2b;fill-opacity:1;fill-rule:nonzero;stroke:none;stroke-width:0.1"
       id="path9160" />
    <path
       d="m 156.821,227.721 c -0.002,0 -0.003,0 -0.005,0 -7.283,0.002 -13.293,3.876 -13.931,9.262 -0.003,0.019 -0.005,0.039 -0.007,0.058 0,0 0,-0.001 0,0 v 0 c -0.002,0.021 -0.005,0.042 -0.007,0.064 v 0 0 c -0.001,0.006 -0.001,0.013 -0.002,0.02 0,0.003 0,0.005 -0.001,0.008 0,0.004 -0.001,0.008 -0.001,0.013 0,0.003 -10e-4,0.006 -10e-4,0.009 0,0.004 -0.001,0.009 -0.001,0.013 -0.001,0.005 -0.001,0.009 -0.001,0.014 -0.001,0.004 -0.001,0.008 -0.002,0.012 0,0.004 0,0.007 -0.001,0.01 0,0.004 0,0.007 0,0.011 -10e-4,0.003 -10e-4,0.007 -10e-4,0.01 -0.001,0.004 -0.001,0.008 -0.001,0.011 -0.001,0.006 -0.001,0.012 -0.002,0.018 0,0.003 0,0.007 -0.001,0.01 0,0.003 0,0.007 -0.001,0.01 0,0.004 0,0.008 0,0.011 -10e-4,0.003 -10e-4,0.007 -10e-4,0.01 -0.001,0.005 -0.001,0.01 -0.001,0.015 -0.001,0.004 -0.001,0.007 -0.001,0.011 -0.001,0.004 -0.001,0.009 -0.001,0.014 0,0.003 -0.001,0.005 -0.001,0.008 0,0.005 -0.001,0.009 -0.001,0.014 0,0.002 0,0.005 0,0.007 -10e-4,0.007 -10e-4,0.014 -0.002,0.021 v 0.001 c 0,0.007 -0.001,0.014 -0.001,0.021 0,10e-4 0,0.002 0,0.003 -0.251,3.881 2.37,7.537 6.527,9.812 -1.343,-1.848 -2.026,-3.952 -1.803,-6.118 0.562,-5.45 6.611,-9.383 13.95,-9.383 0.706,0 1.424,0.036 2.149,0.111 2.743,0.283 5.25,1.089 7.365,2.246 -2.363,-3.251 -6.788,-5.701 -12.064,-6.246 v 0 0 c -0.022,-0.002 -0.044,-0.005 -0.066,-0.007 -0.702,-0.07 -1.399,-0.104 -2.082,-0.104 0,0 0,0 -0.001,0"
       style="fill:#bc4749;fill-opacity:1;fill-rule:nonzero;stroke:none;stroke-width:0.1"
       id="path9162" />
    <path
       d="m 134.875,257.667 c 0,-3.038 -2.462,-5.5 -5.5,-5.5 -3.038,0 -5.5,2.462 -5.5,5.5 0,3.037 2.462,5.5 5.5,5.5 3.038,0 5.5,-2.463 5.5,-5.5"
       style="fill:#473b3d;fill-opacity:1;fill-rule:nonzero;stroke:none;stroke-width:0.1"
       id="path9164" />
    <path
       d="m 133.744,259.07 c 0,-1.013 -0.822,-1.835 -1.836,-1.835 -1.013,0 -1.835,0.822 -1.835,1.835 0,1.014 0.822,1.836 1.835,1.836 1.014,0 1.836,-0.822 1.836,-1.836"
       style="fill:#ffffff;fill-opacity:1;fill-rule:nonzero;stroke:none;stroke-width:0.1"
       id="path9166" />
    <path
       d="m 158.528,266.489 c 0,-3.037 -2.463,-5.5 -5.5,-5.5 -3.037,0 -5.5,2.463 -5.5,5.5 0,3.038 2.463,5.5 5.5,5.5 3.037,0 5.5,-2.462 5.5,-5.5"
       style="fill:#473b3d;fill-opacity:1;fill-rule:nonzero;stroke:none;stroke-width:0.1"
       id="path9168" />
    <path
       d="m 157.397,267.893 c 0,-1.014 -0.822,-1.836 -1.835,-1.836 -1.014,0 -1.836,0.822 -1.836,1.836 0,1.013 0.822,1.835 1.836,1.835 1.013,0 1.835,-0.822 1.835,-1.835"
       style="fill:#ffffff;fill-opacity:1;fill-rule:nonzero;stroke:none;stroke-width:0.1"
       id="path9170" />
    <path
       d="m 112.75,248.967 c 0.686,-8.68 -4.698,-16.187 -12.028,-16.766 -7.3294,-0.58 -13.8275,5.987 -14.5142,14.666 -0.6863,8.68 4.6988,16.186 12.0281,16.766 7.3291,0.58 13.8271,-5.986 14.5141,-14.666"
       style="fill:#ffffff;fill-opacity:1;fill-rule:nonzero;stroke:none;stroke-width:0.1"
       id="path9172" />
    <path
       d="m 112.75,248.967 c 0.686,-8.68 -4.698,-16.187 -12.028,-16.766 -7.3294,-0.58 -13.8275,5.987 -14.5142,14.666 -0.6863,8.68 4.6988,16.186 12.0281,16.766 7.3291,0.58 13.8271,-5.986 14.5141,-14.666"
       style="fill:#ffffff;fill-opacity:1;fill-rule:nonzero;stroke:none;stroke-width:0.1"
       id="path9174" />
    <path
       d="m 99.8211,232.166 c -0.0016,0 -0.0031,0 -0.0051,0 0.002,0 0.0035,0 0.0051,0 v 0 m 0,0 c 0.2889,0 0.5809,0.011 0.8729,0.033 -0.293,-0.022 -0.583,-0.034 -0.8729,-0.033"
       style="fill:#31973d;fill-opacity:1;fill-rule:nonzero;stroke:none;stroke-width:0.1"
       id="path9176" />
    <g
       id="g9178"
       transform="scale(0.1)">
      <g
         id="g9180"
         clip-path="url(#clipPath9184)">
        <path
           d="m 862.055,2469.01 c -0.004,0.03 -0.004,0.07 -0.008,0.1 0.004,-0.04 0.004,-0.07 0.008,-0.1 m -0.032,0.4 c -0.003,0.03 -0.003,0.06 -0.007,0.09 0.004,-0.03 0.004,-0.06 0.007,-0.09 m -0.027,0.35 c 0,0.04 -0.004,0.08 -0.008,0.13 0.004,-0.05 0.004,-0.09 0.008,-0.13 m -0.027,0.39 c -0.004,0.05 -0.008,0.1 -0.012,0.16 0.004,-0.06 0.008,-0.11 0.012,-0.16 m -0.024,0.36 c -0.004,0.06 -0.007,0.11 -0.011,0.16 0.004,-0.05 0.007,-0.1 0.011,-0.16 m -0.027,0.37 c -0.004,0.07 -0.008,0.15 -0.016,0.22 0.008,-0.07 0.012,-0.14 0.016,-0.22 m -0.023,0.39 c -0.004,0.06 -0.008,0.11 -0.012,0.17 0.004,-0.05 0.008,-0.12 0.012,-0.17 m -0.024,0.35 c -0.008,0.09 -0.012,0.18 -0.019,0.27 0.007,-0.09 0.011,-0.18 0.019,-0.27 m -0.027,0.4 c -0.004,0.07 -0.008,0.13 -0.012,0.2 0.004,-0.07 0.008,-0.13 0.012,-0.2 m -0.016,0.25 c -0.008,0.14 -0.015,0.28 -0.023,0.42 0.008,-0.14 0.015,-0.28 0.023,-0.42 m -0.027,0.49 c -0.012,0.23 -0.024,0.45 -0.039,0.68 0.015,-0.22 0.027,-0.45 0.039,-0.68 m -0.043,0.77 c -0.012,0.22 -0.024,0.45 -0.035,0.67 0.011,-0.23 0.023,-0.45 0.035,-0.67 m -0.039,0.77 c -0.008,0.21 -0.02,0.43 -0.031,0.65 0.011,-0.21 0.023,-0.44 0.031,-0.65 m -0.035,0.77 c -0.008,0.12 -0.012,0.24 -0.016,0.37 0.004,-0.12 0.008,-0.25 0.016,-0.37 m -0.02,0.45 c -0.004,0.06 -0.008,0.13 -0.008,0.19 0,-0.06 0.004,-0.13 0.008,-0.19 m -0.016,0.3 c -0.003,0.11 -0.007,0.22 -0.011,0.33 0.004,-0.11 0.008,-0.22 0.011,-0.33 m -0.015,0.46 c -0.004,0.06 -0.004,0.12 -0.008,0.18 0.004,-0.06 0.004,-0.12 0.008,-0.18 m -0.012,0.32 c -0.004,0.09 -0.008,0.2 -0.012,0.29 0.004,-0.1 0.008,-0.19 0.012,-0.29 m -0.016,0.45 c -0.003,0.05 -0.003,0.11 -0.007,0.16 0.004,-0.06 0.004,-0.11 0.007,-0.16 m -0.011,0.33 c -0.004,0.05 -0.004,0.11 -0.008,0.16 0.004,-0.05 0.004,-0.1 0.008,-0.16 m -0.016,0.44 c 0,0.04 -0.004,0.08 -0.004,0.13 0,-0.05 0.004,-0.09 0.004,-0.13 m -0.012,0.37 c 0,0.03 0,0.06 0,0.09 0,-0.03 0,-0.06 0,-0.09 m -0.011,0.41 c 0,0.03 0,0.06 0,0.09 0,-0.03 0,-0.06 0,-0.09 m -0.008,0.41 v 0.01 -0.01 m -0.012,0.37 c 0,0.01 0,0.03 0,0.04 0,-0.01 0,-0.03 0,-0.04"
           style="fill:url(#linearGradient9192);fill-opacity:1;fill-rule:nonzero;stroke:none"
           id="path9194" />
      </g>
    </g>
    <path
       d="m 99.8211,232.166 c -0.0016,0 -0.0031,0 -0.0051,0 -6.9515,0.003 -12.95,6.381 -13.6082,14.701 v 0 0 c -8e-4,0.011 -0.0015,0.022 -0.0023,0.034 -4e-4,0.003 -4e-4,0.006 -8e-4,0.01 -8e-4,0.01 -0.0016,0.02 -0.0024,0.03 -3e-4,0.003 -3e-4,0.006 -7e-4,0.009 -4e-4,0.009 -0.0012,0.017 -0.002,0.026 -4e-4,0.004 -4e-4,0.008 -8e-4,0.013 -8e-4,0.008 -0.0011,0.017 -0.0019,0.026 -4e-4,0.005 -8e-4,0.01 -0.0012,0.016 -4e-4,0.007 -8e-4,0.014 -0.0012,0.02 -4e-4,0.006 -7e-4,0.011 -0.0011,0.016 -4e-4,0.007 -8e-4,0.014 -0.0016,0.021 -4e-4,0.008 -8e-4,0.015 -0.0016,0.022 -4e-4,0.006 -4e-4,0.011 -7e-4,0.017 -4e-4,0.005 -8e-4,0.012 -0.0012,0.017 -4e-4,0.006 -8e-4,0.012 -0.0012,0.018 -8e-4,0.009 -0.0012,0.018 -0.0019,0.027 0,0.004 -4e-4,0.009 -8e-4,0.013 -4e-4,0.007 -8e-4,0.013 -0.0012,0.02 0,0.002 0,0.003 -4e-4,0.005 -8e-4,0.014 -0.0015,0.028 -0.0023,0.042 0,0.002 0,0.005 -4e-4,0.007 -0.0012,0.023 -0.0024,0.046 -0.0039,0.068 0,0.003 0,0.006 -4e-4,0.009 -0.0012,0.022 -0.0024,0.044 -0.0035,0.067 0,0.003 0,0.006 -4e-4,0.01 -8e-4,0.021 -0.002,0.044 -0.0031,0.065 0,0.004 -4e-4,0.008 -4e-4,0.012 -8e-4,0.012 -0.0012,0.025 -0.0016,0.037 -4e-4,0.002 -4e-4,0.005 -4e-4,0.008 -4e-4,0.006 -8e-4,0.013 -8e-4,0.019 -4e-4,0.004 -4e-4,0.008 -8e-4,0.011 -3e-4,0.011 -7e-4,0.022 -0.0011,0.033 0,0.004 -4e-4,0.009 -4e-4,0.013 -4e-4,0.006 -4e-4,0.012 -8e-4,0.018 -4e-4,0.005 -4e-4,0.009 -4e-4,0.014 -4e-4,0.01 -8e-4,0.019 -0.0012,0.029 -4e-4,0.005 -4e-4,0.01 -4e-4,0.016 -3e-4,0.005 -3e-4,0.01 -7e-4,0.016 0,0.006 -4e-4,0.011 -4e-4,0.017 -4e-4,0.006 -4e-4,0.011 -8e-4,0.016 0,0.009 -4e-4,0.019 -8e-4,0.028 0,0.004 -4e-4,0.008 -4e-4,0.013 -4e-4,0.008 -4e-4,0.016 -8e-4,0.024 0,0.003 0,0.006 0,0.009 -3e-4,0.011 -7e-4,0.021 -0.0011,0.032 0,0.003 0,0.006 0,0.009 -4e-4,0.011 -8e-4,0.021 -8e-4,0.032 v 10e-4 c -4e-4,0.012 -8e-4,0.024 -0.0012,0.036 0,0.001 0,0.003 0,0.004 -0.1351,6.141 2.761,11.551 7.1649,14.127 0.205,0.028 0.4062,0.07 0.6152,0.086 0.3019,0.024 0.6016,0.036 0.9004,0.036 6.953,0 12.956,-6.38 13.614,-14.703 0.52,-6.579 -2.451,-12.476 -7.111,-15.201 -0.205,-0.028 -0.406,-0.069 -0.615,-0.086 v 0 0 c -0.009,-0.001 -0.019,-0.001 -0.028,-0.002 -0.292,-0.022 -0.584,-0.033 -0.8729,-0.033 v 0"
       style="fill:#f6f7f7;fill-opacity:1;fill-rule:nonzero;stroke:none;stroke-width:0.1"
       id="path9196" />
    <path
       d="m 124.542,237.472 c 0,0 15.043,-10.639 32.855,-11.555 0,0 -11.189,-11.917 -22.522,-8.834 -11.333,3.084 -10.333,20.389 -10.333,20.389"
       style="fill:#473b3d;fill-opacity:1;fill-rule:nonzero;stroke:none;stroke-width:0.1"
       id="path9198" />
    <path
       d="m 125.314,229.06 c 1.09,-4.877 3.642,-10.367 9.561,-11.977 4.826,-1.312 9.623,0.097 13.544,2.146 -3.395,5.493 -12.382,9.5 -23.105,9.831"
       style="fill:#ef2d3d;fill-opacity:1;fill-rule:nonzero;stroke:none;stroke-width:0.1"
       id="path9200" />
    <path
       d="m 125.368,229.058 c -0.002,0 -0.003,0 -0.006,0 0.002,0 0.004,0 0.006,0"
       style="fill:#573437;fill-opacity:1;fill-rule:nonzero;stroke:none;stroke-width:0.1"
       id="path9202" />
    <path
       d="m 138.732,216.576 c -1.272,0 -2.564,0.155 -3.857,0.507 v 0 c -5.919,1.61 -8.471,7.1 -9.561,11.977 0.016,-0.001 0.032,-0.001 0.048,-0.002 0.003,0 0.004,0 0.006,0 2.196,-0.071 4.312,-0.302 6.328,-0.662 -0.993,-1.731 -1.227,-3.585 -0.321,-5.579 2,-4.4 6.833,-5.192 12.078,-5.574 -1.522,-0.417 -3.106,-0.667 -4.721,-0.667"
       style="fill:#e92835;fill-opacity:1;fill-rule:nonzero;stroke:none;stroke-width:0.1"
       id="path9204" />
    <path
       d="m 85.2082,240.375 c 0,-4.901 -3.9734,-8.875 -8.8754,-8.875 -4.9012,0 -8.875,3.974 -8.875,8.875 0,4.901 3.9738,8.875 8.875,8.875 4.902,0 8.8754,-3.974 8.8754,-8.875"
       style="fill:#ffffff;fill-opacity:1;fill-rule:nonzero;stroke:none;stroke-width:0.1"
       id="path9206" />
    <g
       id="g9208"
       transform="scale(0.1)">
      <g
         id="g9210"
         clip-path="url(#clipPath9214)">
        <path
           d="m 763.336,2315 v 0 c 0.086,0 0.172,0 0.262,0 -0.086,0 -0.176,0 -0.262,0 m 0.312,0 c 0.075,0 0.157,0 0.231,0 -0.074,0 -0.152,0 -0.231,0 m 0.274,0 c 36.516,0.24 67.801,22.53 81.195,54.23 v 0 c -13.394,-31.7 -44.679,-53.99 -81.195,-54.23"
           style="fill:url(#linearGradient9222);fill-opacity:1;fill-rule:nonzero;stroke:none"
           id="path9224" />
      </g>
    </g>
    <path
       d="m 76.3336,231.5 c -4.902,0 -8.875,3.974 -8.875,8.875 0,3.423 1.9406,6.389 4.7797,7.869 -0.4488,-1.061 -0.6969,-2.227 -0.6969,-3.452 0,-4.902 3.9738,-8.875 8.875,-8.875 1.4785,0 2.8691,0.366 4.0953,1.006 -1.3394,-3.17 -4.4679,-5.399 -8.1195,-5.423 -0.0016,0 -0.0027,0 -0.0043,0 -0.0074,0 -0.0156,0 -0.0231,0 -0.0015,0 -0.0031,0 -0.005,0 -0.009,0 -0.0176,0 -0.027,0"
       style="fill:#f6f7f7;fill-opacity:1;fill-rule:nonzero;stroke:none;stroke-width:0.1"
       id="path9226" />
    <path
       d="m 156.042,210.458 3.61,3.747 c -1.636,3.591 -3.61,4.878 -3.61,4.878 -8.417,-1.833 -13.213,-6.933 -13.213,-6.933 l -1.454,-7.483 9.75,-2.834 c 5.75,2.5 10.666,1.5 10.666,1.5 -0.024,1.82 -0.181,3.426 -0.411,4.879 -2.295,0.926 -5.338,2.246 -5.338,2.246"
       style="fill:#473b3d;fill-opacity:1;fill-rule:nonzero;stroke:none;stroke-width:0.1"
       id="path9228" />
    <path
       d="m 151.125,201.833 v 0 0 0 c -0.009,0.012 -1.136,1.418 -2.554,3.188 -0.002,-0.002 -0.004,-0.003 -0.006,-0.004 l -0.077,0.095 c 0.076,0.049 0.116,0.076 0.116,0.076 0,0 0.783,8.347 11.048,9.017 l -3.61,-3.747 v 0 c 0,0 3.043,-1.32 5.338,-2.246 0.23,-1.453 0.387,-3.059 0.411,-4.879 0,0 -0.971,0.198 -2.555,0.198 -1.979,0 -4.917,-0.309 -8.111,-1.698"
       style="fill:#3b3132;fill-opacity:1;fill-rule:nonzero;stroke:none;stroke-width:0.1"
       id="path9230" />
    <path
       d="m 104.147,204.31 c 0,0 3.433,-8.81 20.372,-11.56 16.939,-2.75 26.606,9.083 26.606,9.083 l -8.296,10.317 c -0.035,0.002 -3.204,-5.567 -16.121,-6.65 -6.549,-0.549 -9.949,1.378 -12.372,3.305 -2.356,1.874 -3.788,3.748 -6.294,3.345 -5.084,-0.817 -5.25,-4.4 -3.895,-7.84"
       style="fill:#e1962f;fill-opacity:1;fill-rule:nonzero;stroke:none;stroke-width:0.1"
       id="path9232" />
    <path
       d="m 131.414,192.393 v 0 c 12.643,0.785 19.711,9.44 19.711,9.44 v 0 c 0,0 -7.068,-8.655 -19.711,-9.44"
       style="fill:#ef3733;fill-opacity:1;fill-rule:nonzero;stroke:none;stroke-width:0.1"
       id="path9234" />
    <path
       d="m 129.57,192.336 v 0 c 0.627,-0.001 1.242,0.019 1.844,0.057 v 0 c -0.602,-0.038 -1.217,-0.057 -1.844,-0.057 m -5.051,0.414 v 0 c -16.939,2.75 -20.372,11.56 -20.372,11.56 -0.003,0.006 -0.005,0.013 -0.008,0.019 0.003,-0.006 0.005,-0.013 0.008,-0.019 0,0 3.433,-8.81 20.372,-11.56 v 0"
       style="fill:#e3352e;fill-opacity:1;fill-rule:nonzero;stroke:none;stroke-width:0.1"
       id="path9236" />
    <path
       d="m 151.125,201.833 v 0 0 m 0,0 -2.56,3.184 c 0.002,0.001 0.004,0.002 0.006,0.004 1.418,-1.77 2.545,-3.176 2.554,-3.188"
       style="fill:#563e2d;fill-opacity:1;fill-rule:nonzero;stroke:none;stroke-width:0.1"
       id="path9238" />
    <path
       d="m 129.57,192.336 c -1.602,0 -3.288,0.128 -5.051,0.414 v 0 c -16.939,2.75 -20.372,11.56 -20.372,11.56 -0.003,0.006 -0.005,0.013 -0.008,0.019 -0.656,1.675 -0.945,3.379 -0.488,4.782 4.492,-5.009 11.986,-10.698 22.88,-10.698 1.19,0 2.421,0.068 3.692,0.212 7.693,0.872 13.732,3.43 18.342,6.392 l 2.56,-3.184 v 0 0 0 c 0,0 -7.068,-8.655 -19.711,-9.44 -0.602,-0.038 -1.217,-0.058 -1.844,-0.057"
       style="fill:#db8f27;fill-opacity:1;fill-rule:nonzero;stroke:none;stroke-width:0.1"
       id="path9240" />
  </g>
</svg>
