<?xml version="1.0" encoding="utf-8"?>
<!-- Generator: Adobe Illustrator 27.5.0, SVG Export Plug-In . SVG Version: 6.00 Build 0)  -->
<svg version="1.1" id="Слой_1" xmlns="http://www.w3.org/2000/svg" xmlns:xlink="http://www.w3.org/1999/xlink" x="0px" y="0px"
	 viewBox="0 0 500 500" style="enable-background:new 0 0 500 500;" xml:space="preserve">
<rect style="fill:#FFFFFF;" width="500" height="500"/>
<g>
	<g>
		<g>
			<polygon style="fill:#7ACFFB;" points="307.564,227.756 304.033,265.314 330.207,278.088 333.522,242.826 			"/>
			<polygon style="fill:#68B4FB;" points="361.834,232.857 358.304,270.414 330.207,278.088 333.522,242.826 			"/>
			<polygon style="fill:#7ACFFB;" points="307.564,227.756 333.522,242.826 361.834,232.857 335.584,220.893 			"/>
			<polygon style="fill:#60AA1A;" points="334.553,231.859 320.885,235.489 317.465,271.869 311.048,268.737 317.494,233.521 
				332.016,230.055 321.573,224.324 325.328,223.404 334.215,229.059 345.928,225.607 349.978,227.453 336.935,230.517 
				351.47,236.507 350.79,272.467 343.886,274.353 347.678,237.842 			"/>
			<path style="fill:#60AA1A;" d="M334.709,230.284c0,0-26.8,0.298-26.977-12.398c-0.12-8.727,9.017-11.984,9.017-11.984
				L334.709,230.284z"/>
			<path style="fill:#448413;" d="M345.106,207.284l-11.592,22.688c0,0,19.41-2.606,20.78-7.617
				C357.124,212.01,345.106,207.284,345.106,207.284z"/>
			<path style="fill:#448413;" d="M333.515,229.972c-1.339-7.922-2.706-15.784-7.225-16.834l6.595-3.895c0,0,3.68,0.41,2.155,10.569
				C333.515,229.972,333.515,229.972,333.515,229.972z"/>
		</g>
		<g>
			<polygon style="fill:#FBD02F;" points="337.227,245.827 321.108,279.934 341.363,300.863 356.495,268.842 			"/>
			<polygon style="fill:#FBB92C;" points="386.51,269.118 370.393,303.224 341.363,300.863 356.495,268.842 			"/>
			<polygon style="fill:#FBD02F;" points="337.227,245.827 356.495,268.842 386.51,269.118 365.908,248.924 			"/>
			<polygon style="fill:#792DAA;" points="361.202,258.883 347.114,257.638 331.502,290.674 326.537,285.543 344.598,254.632 
				359.432,256.321 351.567,247.376 355.41,247.79 361.839,256.134 374.026,256.882 377.205,259.997 363.897,258.433 
				375.522,269.017 362.628,302.593 355.495,302.013 371.503,268.979 			"/>
			<polygon style="fill:#592384;" points="355.495,302.013 362.628,302.593 375.522,269.017 371.503,268.979 			"/>
			<path style="fill:#792DAA;" d="M361.865,257.496c0,0-21.731-7.62-17.596-17.393c4.136-9.773,10.478-6.857,10.478-6.857
				L361.865,257.496z"/>
			<path style="fill:#792DAA;" d="M361.969,227.518l-0.135,29.939c0,0,18.639-13.439,17.443-19.393
				C376.808,225.77,361.969,227.518,361.969,227.518z"/>
			<path style="fill:#592384;" d="M361.868,257.473c9.829-1.672,19.576-3.374,19.941-8.561l6.4,7.475c0,0,0.271,4.217-13.035,2.651
				C361.868,257.473,361.868,257.473,361.868,257.473z"/>
		</g>
	</g>
	<path style="fill:#0A0E56;" d="M379.357,295.818c0,0-21.357,5.372-45.857-8.665c-19.149-10.972-28.023-28.5-28.023-28.5
		l-59.753-2.272c0,0-69.211,75.154-52.962,121.347c25.772,73.265,76.124,68.62,115.694,64.881
		c39.57-3.738,69.243-20.64,89.049-47.482c38.357-51.985-30.406-82.716-30.406-82.716L379.357,295.818z"/>
	<path style="fill:#070D44;" d="M308.455,442.608c39.57-3.738,69.243-20.64,89.049-47.482c28.661-38.844-2.482-65.817-20.062-76.975
		c-1.429,10.281-6.503,32.725-24.442,53.54c-24.251,28.14-84.011,27.035-98.96,27.429c-6.92,0.182-30.617-1.868-54.073-4.121
		C227.151,450.185,272.301,446.024,308.455,442.608z"/>
	<g>
		<polygon style="fill:#EA113F;" points="297.618,382.651 286.624,439.967 273.506,443.606 257.123,379.365 		"/>
		<polygon style="fill:#59061F;" points="291.022,423.91 288.185,451.885 272.444,451.885 266.189,420.2 		"/>
		<path style="fill:#420318;" d="M272.444,451.885h26.866c0,0-0.363-7.833-8.289-8.278
			C283.095,443.16,272.444,451.885,272.444,451.885z"/>
	</g>
	<g>
		<path style="fill:#EA113F;" d="M198.217,384.1c0,0-7.634,22.372-9.034,30.315c-0.698,3.958-1,16.077-1,16.077h18.288
			c5.475-15,11.622-21.064,27.546-37.993L198.217,384.1z"/>
		<path style="fill:#59061F;" d="M187.183,422.415c0,0,1.447,5.571-0.994,12.751c-3.176,9.341-20.272,3.448-20.272,3.448
			s2.371,8.104,12.08,11.235c9.708,3.13,25.675,1.819,25.675,1.819l8.548-31.144L187.183,422.415z"/>
	</g>
	<g>
		<path style="fill:#FF1F45;" d="M193.704,322.115c0,0-26.16-1.332-35.533-7.256c-9.372-5.923-9.372-5.923-9.372-5.923l-7.815,8.905
			c0,0,19.036,18.925,37.06,24.684c18.025,5.759,25.871,6.586,25.871,6.586L193.704,322.115z"/>
		<path style="fill:#FF1F45;" d="M144.915,304.932c0,0,1.358-7.065-3.177-10.284c-4.093-2.904-3.561,3.871-3.561,3.871
			s-13.739-14.451-17.792-3.121c-6.741,18.845,16.424,19.922,16.424,19.922l12.184-7.167L144.915,304.932z"/>
		<path style="fill:#FCF9F7;" d="M131.697,316.26l10.519,3.983c0,0,4.326-3.481,5.939-6.551c1.613-3.069,2.438-6.963,2.438-6.963
			l-2.628-2.119c0,0-2.922,4.172-7.642,7.24C135.605,314.919,131.697,316.26,131.697,316.26z"/>
	</g>
	<g>
		<path style="fill:#FF1F45;" d="M185.561,314.698l-11.307,77.153c42.605,10.457,89.529,8.844,139.169-0.194l-13.471-82.315
			L185.561,314.698z"/>
		<path style="fill:#EA113F;" d="M302.214,313.65l12.5,77.714c-6.652,1.644-15.997,2.818-22.968,3.778l7.268-19.896
			c0,0-0.832-25.863-0.856-55.909C298.152,312.377,302.214,313.65,302.214,313.65z"/>
		<path style="fill:#28020C;" d="M177.673,368.525c0,0,47.445,12.987,71.008,12.988c41.313,0.001,62.324-13.206,62.324-13.206
			l-0.696-14.109c0,0-15.148,14.35-55.688,15.734c-33.77,1.154-76.958-14.22-76.958-14.22L177.673,368.525z"/>
	</g>
	<path style="fill:#FCE0F4;" d="M331.629,233.302c-2.264,42.93-44.456,75.603-94.239,72.978
		c-49.783-2.626-88.305-39.555-86.041-82.484c2.264-42.93,44.456-75.603,94.239-72.978
		C295.37,153.443,333.893,190.372,331.629,233.302z"/>
	<defs>
		<filter id="Adobe_OpacityMaskFilter" filterUnits="userSpaceOnUse" x="168.617" y="195.26" width="42.573" height="42.574">
			<feFlood  style="flood-color:white;flood-opacity:1" result="back"/>
			<feBlend  in="SourceGraphic" in2="back" mode="normal"/>
		</filter>
	</defs>
	<mask maskUnits="userSpaceOnUse" x="168.617" y="195.26" width="42.573" height="42.574" id="SVGID_1_">
		<g style="filter:url(#Adobe_OpacityMaskFilter);">
			<defs>
				
					<filter id="Adobe_OpacityMaskFilter_00000096780655942820350000000012397050759769100450_" filterUnits="userSpaceOnUse" x="168.617" y="195.26" width="42.573" height="42.574">
					<feFlood  style="flood-color:white;flood-opacity:1" result="back"/>
					<feBlend  in="SourceGraphic" in2="back" mode="normal"/>
				</filter>
			</defs>
			<mask maskUnits="userSpaceOnUse" x="168.617" y="195.26" width="42.573" height="42.574" id="SVGID_1_">
				<g style="filter:url(#Adobe_OpacityMaskFilter_00000096780655942820350000000012397050759769100450_);">
				</g>
			</mask>
			
				<radialGradient id="SVGID_00000106109632689317710790000004498566340017508261_" cx="276.3351" cy="137.3117" r="21.2865" gradientTransform="matrix(0.9986 0.0527 -0.0527 0.9986 -78.8079 64.8645)" gradientUnits="userSpaceOnUse">
				<stop  offset="0" style="stop-color:#FFFFFF"/>
				<stop  offset="1" style="stop-color:#000000"/>
			</radialGradient>
			<path style="mask:url(#SVGID_1_);fill:url(#SVGID_00000106109632689317710790000004498566340017508261_);" d="M211.161,217.668
				c-0.619,11.739-10.638,20.755-22.377,20.136c-11.74-0.619-20.755-10.639-20.136-22.378c0.619-11.74,10.638-20.755,22.377-20.136
				C202.765,195.909,211.78,205.928,211.161,217.668z"/>
		</g>
	</mask>
	
		<radialGradient id="SVGID_00000158724684126727468880000003452446507013462658_" cx="276.3351" cy="137.3117" r="21.2865" gradientTransform="matrix(0.9986 0.0527 -0.0527 0.9986 -78.8079 64.8645)" gradientUnits="userSpaceOnUse">
		<stop  offset="0" style="stop-color:#FF6F75"/>
		<stop  offset="1" style="stop-color:#FFBFC2"/>
	</radialGradient>
	<path style="opacity:0.6;fill:url(#SVGID_00000158724684126727468880000003452446507013462658_);" d="M211.161,217.668
		c-0.619,11.739-10.638,20.755-22.377,20.136c-11.74-0.619-20.755-10.639-20.136-22.378c0.619-11.74,10.638-20.755,22.377-20.136
		C202.765,195.909,211.78,205.928,211.161,217.668z"/>
	<defs>
		
			<filter id="Adobe_OpacityMaskFilter_00000047739101230882502190000006167236344323352995_" filterUnits="userSpaceOnUse" x="263.298" y="197.622" width="42.573" height="42.573">
			<feFlood  style="flood-color:white;flood-opacity:1" result="back"/>
			<feBlend  in="SourceGraphic" in2="back" mode="normal"/>
		</filter>
	</defs>
	
		<mask maskUnits="userSpaceOnUse" x="263.298" y="197.622" width="42.573" height="42.573" id="SVGID_00000130630914078892207050000009097917939408949378_">
		<g style="filter:url(#Adobe_OpacityMaskFilter_00000047739101230882502190000006167236344323352995_);">
			<defs>
				
					<filter id="Adobe_OpacityMaskFilter_00000113346718096555708960000010798459485003675277_" filterUnits="userSpaceOnUse" x="263.298" y="197.622" width="42.573" height="42.573">
					<feFlood  style="flood-color:white;flood-opacity:1" result="back"/>
					<feBlend  in="SourceGraphic" in2="back" mode="normal"/>
				</filter>
			</defs>
			
				<mask maskUnits="userSpaceOnUse" x="263.298" y="197.622" width="42.573" height="42.573" id="SVGID_00000130630914078892207050000009097917939408949378_">
				<g style="filter:url(#Adobe_OpacityMaskFilter_00000113346718096555708960000010798459485003675277_);">
				</g>
			</mask>
			
				<radialGradient id="SVGID_00000109711608494039835860000003913188134250285495_" cx="371.0095" cy="134.6805" r="21.2861" gradientTransform="matrix(0.9986 0.0527 -0.0527 0.9986 -78.8079 64.8645)" gradientUnits="userSpaceOnUse">
				<stop  offset="0" style="stop-color:#FFFFFF"/>
				<stop  offset="1" style="stop-color:#000000"/>
			</radialGradient>
			
				<path style="mask:url(#SVGID_00000130630914078892207050000009097917939408949378_);fill:url(#SVGID_00000109711608494039835860000003913188134250285495_);" d="
				M305.841,220.029c-0.618,11.74-10.638,20.755-22.377,20.136c-11.74-0.619-20.755-10.638-20.136-22.377
				c0.619-11.74,10.638-20.755,22.378-20.136C297.445,198.271,306.46,208.29,305.841,220.029z"/>
		</g>
	</mask>
	
		<radialGradient id="SVGID_00000051341345341483011570000006278211313724169876_" cx="371.0095" cy="134.6805" r="21.2861" gradientTransform="matrix(0.9986 0.0527 -0.0527 0.9986 -78.8079 64.8645)" gradientUnits="userSpaceOnUse">
		<stop  offset="0" style="stop-color:#FF6F75"/>
		<stop  offset="1" style="stop-color:#FFBFC2"/>
	</radialGradient>
	<path style="opacity:0.6;fill:url(#SVGID_00000051341345341483011570000006278211313724169876_);" d="M305.841,220.029
		c-0.618,11.74-10.638,20.755-22.377,20.136c-11.74-0.619-20.755-10.638-20.136-22.377c0.619-11.74,10.638-20.755,22.378-20.136
		C297.445,198.271,306.46,208.29,305.841,220.029z"/>
	<path style="fill:#EA113F;" d="M308.7,301.19c0,0,15.806,21.513,16.256,31.503c0.45,9.99-2.215,18.099-7.529,22.939
		c-9.389,8.552-19.629,9.987-17.811,5.683c8.895-21.058-1.074-40.727-1.074-40.727L308.7,301.19z"/>
	<path style="fill:#EFEFEF;" d="M297.926,340.751l4.496-3.48c0,0,11.8-1.811,12.168,12.785c0.192,7.664-2.722,10.323-5.632,13.076
		c-3.661,3.463-10.153,0.475-11.612-1.082c-1.481-1.58,0.074-20.152,0.074-20.152L297.926,340.751z"/>
	<path style="fill:#FFBD76;" d="M369.364,309.342c-0.14,0.01-13.324,2.611-24.874-1.419c-7.255-2.537-17.441-8.056-25.7-13.84
		c-13.969,15.876-18.67,30.764-21.863,49.063c1.421,0.517,1.421,0.517,2.223,0.621c7.754-15.082,17.661-28.184,30.221-39.543
		c4.25,2.359,9.25,4.83,14.14,6.529c12.15,4.25,26.047,3.218,26.638,3.168L369.364,309.342z M301.47,331.673
		c3.47-12.71,9.341-23.779,17.811-33.6c1.409,0.94,4.039,2.65,7.35,4.59C316.19,312.184,307.77,321.903,301.47,331.673z"/>
	<path style="fill:#FFBD76;" d="M306.583,421.969c-0.868,0-1.962-0.361-3.299-1.436c-13.403-10.783-6.389-54.93-6.083-56.804
		l1.092-6.706l1.833,6.543c0.036,0.131,3.71,13.28,6.603,26.743c6.051,28.149,2.833,30.272,1.459,31.179
		C307.784,421.755,307.251,421.969,306.583,421.969z M299.193,371.691c-1.421,13.051-3.016,39.273,5.972,46.503
		c0.99,0.797,1.396,0.771,1.408,0.775c0.08-0.065,2.771-2.232-2.782-28.057C302.256,383.776,300.502,376.728,299.193,371.691z"/>
	<path style="fill:#EA113F;" d="M307.827,346.106l-2.445-5.567c0,0-3.564-0.776-4.603,2.015c-0.371,0.998,0.544,2.241,0.544,2.241
		s-7.104-5.379-10.589,0.15c-3.486,5.53-0.152,18.218,5.947,19.024c6.099,0.806,10.3-2.02,10.479-3.947
		C307.34,358.095,307.827,346.106,307.827,346.106z"/>
	<g>
		<path style="fill:#FCF9F7;" d="M321.794,193.897c0,0,1.953,27.843-13.574,36.343c-27.615,15.119-109.139,16.73-135.92,5.325
			c-16.286-6.936-15.343-37.699-15.343-37.699s-25.913,31.363-16.799,65.769c12.272,46.329,60.876,92.845,104.343,91.798
			c35.075-0.845,92.309-53.473,97.238-96.651C345.776,223.419,321.794,193.897,321.794,193.897z"/>
		<path style="fill:#EFEFEF;" d="M328.772,262.464c-10.063,22.174-43.857,72.333-70.709,77.244
			c-26.854,4.911-41.555,1.609-54.546-6.607c-12.991-8.216-30.59-15.721-46.992-33.902c0,0,0,0-0.001,0
			c21.004,31.857,55.888,57.006,87.976,56.233c35.075-0.845,92.309-53.473,97.238-96.651c3.204-28.069-11.235-52.441-17.332-61.308
			l-2.575,1.761C321.832,199.234,338.836,240.29,328.772,262.464z"/>
	</g>
	<path style="fill:#EFEFEF;" d="M158.039,197.862c0,0-0.624,1.311-1.457,3.567c-2.65,7.186-7.403,23.957-0.759,38.448
		c13.845,30.197,56.376,38.953,88.461,3.527c6.522,7.172,23.823,27.199,52.321,24.918c12.248-0.98,27.479-3.709,37.393-11.836
		c9.913-8.127,5.575-31.033,5.575-31.033l-24.854,16.832l-24.248,3.555l-50.2-19.515l-33.764,23.438l-36.14-12.087l-11.581-17.413
		L158.039,197.862z"/>
	<g>
		<path style="fill:#420212;" d="M252.516,251.756c-1.08,7.034-7.659,11.861-14.693,10.781c-7.035-1.08-11.862-7.658-10.782-14.693
			c1.08-7.034,7.659-11.861,14.693-10.781C248.768,238.143,253.595,244.721,252.516,251.756z"/>
		<path style="fill:#EA113F;" d="M229.912,256.473c1.949,2.449,4.724,4.564,8.062,5.076c4.82,0.74,9.01-1.547,11.78-5.163
			c-1.949-2.449-4.365-3.956-7.703-4.469C237.231,251.178,232.682,252.856,229.912,256.473z"/>
	</g>
	<g>
		<path style="fill:#FF1F45;" d="M329.183,204.301c0,0,14.619-28.851-3.492-67.996c-18.11-39.146-48.178-44.919-33.866-66.382
			c14.312-21.464,29.506,0.904,29.506,0.904l10.537-7.128c0,0-38.476-46.782-107.396-4.09
			c-46.135,28.577-68.437,105.984-68.437,105.984l92.459-1.129L329.183,204.301z"/>
		<path style="fill:#EA113F;" d="M329.185,204.304l-22.021-10.87c0.546-15.764,0.896-39.088-0.841-54.434
			c-2.853-25.029-27.763-38.132-32.408-58.082c-4.525-19.379,17.395-50.183,51.854-13.099l-4.433,3.008
			c0,0-15.201-22.373-29.507-0.906c-14.319,21.466,15.757,27.235,33.86,66.388C343.808,175.447,329.185,204.304,329.185,204.304z"/>
		<path style="fill:#FCF9F7;" d="M146.957,202.017c0,0,80.167-18.84,122.516-11.855c42.35,6.985,69.037,24.315,69.037,24.315
			l3.342-36.259c0,0-55.596-36.051-129.455-31.655c-54.665,3.253-61.353,11.11-61.353,11.11L146.957,202.017z"/>
		<path style="fill:#EFEFEF;" d="M341.852,178.224l-3.342,36.255c0,0-26.683-17.339-69.044-24.324
			c-42.347-6.985-122.508,11.856-122.508,11.856l0.314-3.401c22.904-5.377,78.421-17.663,110.039-18.486
			c40.537-1.061,62.467,14.361,71.263,17.264c4.845,1.604,11.074-7.024,10.864-20.64
			C341.027,177.507,341.852,178.224,341.852,178.224z"/>
		<g>
			<path style="fill:#FCF9F7;" d="M355.59,84.365c-4.658,9.859-16.755,13.922-27.017,9.072
				c-10.262-4.849-14.803-16.773-10.143-26.633c4.659-9.86,16.755-13.923,27.017-9.073C355.709,62.581,360.25,74.505,355.59,84.365z
				"/>
			<path style="fill:#EFEFEF;" d="M355.585,84.363c-4.661,9.861-16.749,13.921-27.011,9.07c-4.877-2.304-8.464-6.204-10.362-10.73
				c1.356,1.631,14.439,11.151,24.853,3.834c11.68-8.206,9.108-18.873,8.239-24.727C357.248,67.671,359.223,76.652,355.585,84.363z"
				/>
		</g>
	</g>
	<path style="fill:#FEFFFF;" d="M325.959,212.006c0,0,0,0,3.051,6.819c3.051,6.82-4.583,20.201-17.503,16.717
		c-10.88-2.935-19.192-12.276-30.457-19.943c-10.623-7.23-32.555-5.507-35.02-5.287c-2.429-0.479-24.057-4.498-35.382,1.575
		c-12.008,6.438-21.257,14.854-32.385,16.628c-13.215,2.106-19.398-12.003-15.647-18.464c3.751-6.461,3.751-6.461,3.751-6.461
		s-10.816,8.16-11.44,20.006c-1.346,25.524,29.965,42.902,62.495,31.82c15.505-5.282,27.181-18.023,27.181-18.023
		s9.46,15.365,24.704,21.358c29.236,11.493,64.58-0.124,65.926-25.647C335.856,221.259,325.959,212.006,325.959,212.006z"/>
	<g>
		<g>
			<path style="fill:#212121;" d="M225.381,205.255c-1.125,3.073-4.529,4.654-7.603,3.529c-3.074-1.125-4.654-4.529-3.529-7.604
				c1.125-3.073,4.529-4.653,7.603-3.529C224.925,198.776,226.505,202.181,225.381,205.255z"/>
			<path style="fill:#FFFFFF;" d="M223.305,205.867c0.124,0.841-0.456,1.624-1.297,1.749c-0.841,0.125-1.624-0.456-1.749-1.298
				c-0.125-0.841,0.456-1.624,1.297-1.749C222.397,204.445,223.18,205.025,223.305,205.867z"/>
		</g>
		<g>
			<path style="fill:#212121;" d="M258.351,206.434c0.902,3.147,4.185,4.966,7.331,4.064c3.146-0.902,4.966-4.184,4.063-7.331
				c-0.902-3.147-4.185-4.967-7.331-4.065C259.268,200.005,257.448,203.287,258.351,206.434z"/>
			<path style="fill:#FFFFFF;" d="M260.377,207.193c-0.185,0.83,0.339,1.652,1.169,1.837c0.83,0.184,1.652-0.339,1.837-1.169
				c0.185-0.83-0.339-1.652-1.168-1.837C261.385,205.84,260.562,206.363,260.377,207.193z"/>
		</g>
	</g>
	<g>
		<path style="fill:#FFD4E8;" d="M261.027,216.633c-0.324,6.158-8.847,10.715-19.036,10.178
			c-10.189-0.538-18.185-5.965-17.86-12.123c0.325-6.158,8.848-10.715,19.036-10.178
			C253.356,205.047,261.353,210.475,261.027,216.633z"/>
		<path style="fill:#FFCCDE;" d="M261.03,216.636c-0.324,6.154-8.847,10.706-19.04,10.169c-10.193-0.538-18.189-5.961-17.865-12.115
			c0.033-0.62,0.15-1.225,0.339-1.812c1.157,5.355,8.546,9.794,17.718,10.277c9.171,0.483,16.987-3.154,18.7-8.357
			C261.01,215.402,261.063,216.015,261.03,216.636z"/>
	</g>
	<path style="fill:#0A0E56;" d="M326.63,381.262c0,0,14.612,12.392,17.49,23.392c2.88,11,2.88,11,2.88,11
		s23.078-15.315,28.039-26.158c4.961-10.842-24.204-25.828-24.204-25.828L326.63,381.262z"/>
	<path style="fill:#070D44;" d="M324.999,376.352c0,0,7.017,1.056,13.509,7.737c6.493,6.682,3.017-16.749-5.246-12.243
		C324.999,376.352,324.999,376.352,324.999,376.352z"/>
	<path style="fill:#070D44;" d="M337.762,367.55c0,0,7.096,0.064,14.459,5.771c7.363,5.708,0.644-17.007-6.907-11.389
		C337.762,367.55,337.762,367.55,337.762,367.55z"/>
</g>
</svg>
